<?xml version="1.0" encoding="utf-8"?>
<!-- Generator: Adobe Illustrator 25.2.0, SVG Export Plug-In . SVG Version: 6.00 Build 0)  -->
<svg version="1.1" xmlns="http://www.w3.org/2000/svg" xmlns:xlink="http://www.w3.org/1999/xlink" x="0px" y="0px"
	 viewBox="0 0 3367.1 2270.7" style="enable-background:new 0 0 3367.1 2270.7;" xml:space="preserve">
<style type="text/css">
	.st0{display:none;}
	.st1{display:inline;stroke:#FFFFFF;stroke-miterlimit:10;}
	.st2{fill:url(#SVGID_1_);}
	.st3{fill-rule:evenodd;clip-rule:evenodd;fill:#B3B2B2;}
	.st4{fill-rule:evenodd;clip-rule:evenodd;fill:#626261;}
	.st5{opacity:0.5;fill-rule:evenodd;clip-rule:evenodd;fill:url(#SVGID_2_);enable-background:new    ;}
	.st6{fill-rule:evenodd;clip-rule:evenodd;fill:#A3A1A1;}
	.st7{fill-rule:evenodd;clip-rule:evenodd;fill:url(#SVGID_3_);}
	.st8{fill-rule:evenodd;clip-rule:evenodd;fill:#777778;}
	.st9{fill-rule:evenodd;clip-rule:evenodd;fill:#1E1E1C;}
	.st10{fill-rule:evenodd;clip-rule:evenodd;fill:#2F2F7D;}
	.st11{opacity:0.2;fill-rule:evenodd;clip-rule:evenodd;fill:url(#SVGID_4_);enable-background:new    ;}
	.st12{fill-rule:evenodd;clip-rule:evenodd;fill:#C3E1D4;}
	.st13{fill-rule:evenodd;clip-rule:evenodd;fill:#EF7F0A;}
	.st14{opacity:0.99;fill-rule:evenodd;clip-rule:evenodd;fill:#1E1E1C;enable-background:new    ;}
	.st15{fill-rule:evenodd;clip-rule:evenodd;fill:#049D84;}
	.st16{opacity:0.99;fill:#1E1E1C;enable-background:new    ;}
	.st17{fill-rule:evenodd;clip-rule:evenodd;fill:url(#SVGID_5_);}
	.st18{fill-rule:evenodd;clip-rule:evenodd;fill:url(#SVGID_6_);}
	.st19{fill-rule:evenodd;clip-rule:evenodd;fill:url(#SVGID_7_);}
	.st20{fill-rule:evenodd;clip-rule:evenodd;fill:url(#SVGID_8_);}
	.st21{fill:#86BC28;}
	.st22{fill-rule:evenodd;clip-rule:evenodd;fill:url(#SVGID_9_);}
	.st23{fill-rule:evenodd;clip-rule:evenodd;fill:url(#SVGID_10_);}
	.st24{fill-rule:evenodd;clip-rule:evenodd;fill:url(#SVGID_11_);}
	.st25{fill:url(#SVGID_12_);}
	.st26{fill:url(#SVGID_13_);}
	.st27{fill:url(#SVGID_14_);}
	.st28{fill:url(#SVGID_15_);}
	.st29{fill:url(#SVGID_16_);}
	.st30{fill:url(#SVGID_17_);}
	.st31{fill:url(#SVGID_18_);}
	.st32{fill:url(#SVGID_19_);}
	.st33{fill:url(#SVGID_20_);}
	.st34{fill-rule:evenodd;clip-rule:evenodd;fill:#484848;}
	.st35{fill:#626261;}
	.st36{opacity:0.39;}
	.st37{fill:#020303;}
	.st38{clip-path:url(#SVGID_22_);}
	.st39{opacity:0.7;fill:#302D7D;enable-background:new    ;}
	.st40{opacity:0.7;fill:#059D84;enable-background:new    ;}
	.st41{opacity:0.9;fill:#FFFFFF;enable-background:new    ;}
	.st42{fill:#302D7D;}
	.st43{opacity:0.41;fill-rule:evenodd;clip-rule:evenodd;fill:#3F3F3F;enable-background:new    ;}
	.st44{opacity:0.5;fill-rule:evenodd;clip-rule:evenodd;fill:url(#SVGID_23_);enable-background:new    ;}
	.st45{fill-rule:evenodd;clip-rule:evenodd;fill:url(#SVGID_24_);}
	.st46{opacity:0.2;fill-rule:evenodd;clip-rule:evenodd;fill:url(#SVGID_25_);enable-background:new    ;}
	.st47{fill-rule:evenodd;clip-rule:evenodd;fill:url(#SVGID_26_);}
	.st48{fill-rule:evenodd;clip-rule:evenodd;fill:url(#SVGID_27_);}
	.st49{fill-rule:evenodd;clip-rule:evenodd;fill:url(#SVGID_28_);}
	.st50{fill-rule:evenodd;clip-rule:evenodd;fill:url(#SVGID_29_);}
	.st51{fill-rule:evenodd;clip-rule:evenodd;fill:url(#SVGID_30_);}
	.st52{fill-rule:evenodd;clip-rule:evenodd;fill:url(#SVGID_31_);}
	.st53{fill-rule:evenodd;clip-rule:evenodd;fill:url(#SVGID_32_);}
	.st54{fill:url(#SVGID_33_);}
	.st55{fill:url(#SVGID_34_);}
	.st56{fill:url(#SVGID_35_);}
	.st57{fill:url(#SVGID_36_);}
	.st58{fill:url(#SVGID_37_);}
	.st59{fill:url(#SVGID_38_);}
	.st60{fill:url(#SVGID_39_);}
	.st61{fill:url(#SVGID_40_);}
	.st62{fill:url(#SVGID_41_);}
	.st63{clip-path:url(#SVGID_43_);}
</style>
<g id="Ebene_2" class="st0">
	<rect x="-118.5" y="-42" class="st1" width="3728.7" height="2435.7"/>
</g>
<g id="Ebene_3">
	
		<radialGradient id="SVGID_1_" cx="1465.4166" cy="1140.6586" r="1399.2412" fx="1199.6578" fy="1150.8566" gradientTransform="matrix(1.2483 1.730229e-02 -1.734308e-02 0.8027 -155.124 199.662)" gradientUnits="userSpaceOnUse">
		<stop  offset="0" style="stop-color:#BBFAFF"/>
		<stop  offset="0.1309" style="stop-color:#B8F6FB;stop-opacity:0.8691"/>
		<stop  offset="0.2571" style="stop-color:#B0EBF0;stop-opacity:0.7429"/>
		<stop  offset="0.3815" style="stop-color:#A1D8DC;stop-opacity:0.6185"/>
		<stop  offset="0.5049" style="stop-color:#8DBDC1;stop-opacity:0.4951"/>
		<stop  offset="0.6275" style="stop-color:#749A9E;stop-opacity:0.3725"/>
		<stop  offset="0.7494" style="stop-color:#547072;stop-opacity:0.2506"/>
		<stop  offset="0.8711" style="stop-color:#2E3E3F;stop-opacity:0.1289"/>
		<stop  offset="0.9895" style="stop-color:#040506;stop-opacity:1.054317e-02"/>
		<stop  offset="1" style="stop-color:#000000;stop-opacity:0"/>
	</radialGradient>
	<path class="st2" d="M3379.3,2307.1c-650.9,1.3-1301.8,2.6-1952.7,3.9c-58.2-12.9-116.3-25.8-174.5-38.7
		c-462.9-15.4-925.7-30.7-1388.6-46.1c-14.4-733.3-28.9-1466.6-43.3-2200c6.3-5,12.6-10.1,18.8-15.1h3569.5
		c10.4,0,18.8,6.8,18.8,15.1C3411.3,786.6,3395.3,1546.8,3379.3,2307.1z"/>
</g>
<g id="Ebene_1">
	<g id="Ebene_4">
		<g>
			<g>
				<g id="Ebene_1_2_">
					<polygon class="st3" points="561,1875 576.1,383.4 1313.2,360.4 1237,1875 					"/>
					<polygon class="st4" points="1313.2,360.4 1613.2,397.1 1517.4,1875 1237,1875 					"/>
					<polygon class="st4" points="602.5,1207.8 1237,1201.9 1275.7,493 614.8,511.4 					"/>
					
						<linearGradient id="SVGID_2_" gradientUnits="userSpaceOnUse" x1="945.2372" y1="-7158.9785" x2="945.2372" y2="-6976.9785" gradientTransform="matrix(1 0 0 -1 0 -6484.0044)">
						<stop  offset="0" style="stop-color:#A499CA"/>
						<stop  offset="1" style="stop-color:#561F39"/>
					</linearGradient>
					<polygon class="st5" points="614.8,511.4 776.3,675 1266.2,666.8 1275.7,493 					"/>
					<polygon class="st3" points="776.3,675 780,1155 1239.6,1155 1266.2,666.8 					"/>
					<polygon class="st6" points="770.1,814.5 602.5,1207.8 1237,1201.9 1258.8,802 					"/>
					
						<linearGradient id="SVGID_3_" gradientUnits="userSpaceOnUse" x1="637.6873" y1="665.133" x2="1258.7872" y2="665.133" gradientTransform="matrix(1 0 0 1 0 333.4915)">
						<stop  offset="0" style="stop-color:#141414;stop-opacity:0.5"/>
						<stop  offset="3.400000e-02" style="stop-color:#1E1F22;stop-opacity:0.5292"/>
						<stop  offset="0.1448" style="stop-color:#393C4B;stop-opacity:0.6247"/>
						<stop  offset="0.2514" style="stop-color:#4F5571;stop-opacity:0.7164"/>
						<stop  offset="0.3511" style="stop-color:#606991;stop-opacity:0.8022"/>
						<stop  offset="0.4421" style="stop-color:#6C78AB;stop-opacity:0.8806"/>
						<stop  offset="0.5216" style="stop-color:#7482BC;stop-opacity:0.949"/>
						<stop  offset="0.5808" style="stop-color:#7685C1"/>
						<stop  offset="0.7053" style="stop-color:#7584BF;stop-opacity:0.8337"/>
						<stop  offset="0.7652" style="stop-color:#7280B8;stop-opacity:0.7537"/>
						<stop  offset="0.8113" style="stop-color:#6C78AB;stop-opacity:0.6921"/>
						<stop  offset="0.8504" style="stop-color:#646E9A;stop-opacity:0.6399"/>
						<stop  offset="0.885" style="stop-color:#5A6285;stop-opacity:0.5937"/>
						<stop  offset="0.9164" style="stop-color:#4D526D;stop-opacity:0.5517"/>
						<stop  offset="0.9455" style="stop-color:#3E4152;stop-opacity:0.5129"/>
						<stop  offset="0.9726" style="stop-color:#2C2D36;stop-opacity:0.4765"/>
						<stop  offset="0.9974" style="stop-color:#171718;stop-opacity:0.4435"/>
						<stop  offset="1" style="stop-color:#141414;stop-opacity:0.44"/>
					</linearGradient>
					<polygon class="st7" points="637.7,1182.8 1224.6,1178.4 1240.5,1130.4 1258.8,814.5 777.4,824.7 					"/>
					<polygon class="st3" points="730.9,1421.5 730.9,1281.8 1076.4,1281.8 1067.7,1421.5 					"/>
					<polygon class="st8" points="751.1,1295.7 745.6,1404.7 1042.6,1404.7 1050.1,1292.2 					"/>
					<polygon class="st4" points="746.1,1392.5 1043.4,1392.5 1050.1,1292.2 751.1,1295.7 					"/>
					<polygon class="st9" points="751.1,1295.7 764.4,1379 1044.3,1379 1050.1,1292.2 					"/>
					<polygon class="st4" points="1076.4,1281.8 1084.1,1281.8 1080.3,1421.5 1067.7,1421.5 					"/>
					<polygon class="st4" points="757.3,1421.5 776.3,1438.2 1093.2,1438.2 1101.1,1292.2 1084.1,1281.8 1080.3,1421.5 					"/>
					<polygon class="st4" points="562.3,1745.9 1244.4,1728.4 1244,1737.1 562.3,1749.1 					"/>
					<polygon class="st10" points="751.1,1841.7 749.8,1826.5 1022.6,1822.4 1016.8,1841.7 					"/>
					
						<linearGradient id="SVGID_4_" gradientUnits="userSpaceOnUse" x1="1473.5372" y1="-8358.9785" x2="1473.5372" y2="-7456.1787" gradientTransform="matrix(1 0 0 -1 0 -6484.0044)">
						<stop  offset="0" style="stop-color:#7D3654"/>
						<stop  offset="1" style="stop-color:#020303"/>
					</linearGradient>
					<polygon class="st11" points="1371.1,1875 1452.8,1004.8 1576,972.2 1517.4,1875 					"/>
					<polygon class="st12" points="602.5,1555.1 1219.1,1547.2 1209.2,1729.3 602.5,1744.9 					"/>
					<polygon class="st13" points="613.7,1566.8 771.5,1564.7 771.5,1728.9 613.7,1732.9 					"/>
					<polygon class="st14" points="827.6,1585.9 1140.4,1582.7 1139.5,1566.3 827.6,1566.9 					"/>
					<polygon class="st15" points="916.6,1735.9 916.6,1673.4 992.9,1671.1 989.9,1734.1 					"/>
					<polygon class="st15" points="1016.7,1734.2 1016.7,1671.7 1094.6,1669.2 1091,1732.4 					"/>
					<polygon class="st15" points="1108.2,1731.9 1108.2,1669.2 1186,1669.2 1181.5,1729.9 					"/>
					<rect x="827.6" y="1608.6" class="st16" width="46.8" height="13.1"/>
					<rect x="827.6" y="1649" class="st16" width="71" height="13.1"/>
					<rect x="827.6" y="1628.7" class="st16" width="126.4" height="13.1"/>
					<polygon class="st12" points="602.5,390.7 602.5,493 1275.1,476.7 1286.6,376 					"/>
					
						<radialGradient id="SVGID_5_" cx="1138.2872" cy="-7225.2788" r="77.0588" gradientTransform="matrix(1 0 0 -1 0 -6484.0044)" gradientUnits="userSpaceOnUse">
						<stop  offset="2.000000e-02" style="stop-color:#422944"/>
						<stop  offset="0.99" style="stop-color:#2B1433"/>
					</radialGradient>
					<polygon class="st17" points="1039.6,785.5 1039.6,697.2 1237,695.1 1236.8,787.5 					"/>
					
						<radialGradient id="SVGID_6_" cx="893.9872" cy="-7229.5786" r="77.9818" gradientTransform="matrix(1 0 0 -1 0 -6484.0044)" gradientUnits="userSpaceOnUse">
						<stop  offset="2.000000e-02" style="stop-color:#422944"/>
						<stop  offset="0.99" style="stop-color:#2B1433"/>
					</radialGradient>
					<polygon class="st18" points="795.3,794.8 795.3,697.2 992.7,696.4 992.4,787.5 					"/>
					
						<radialGradient id="SVGID_7_" cx="893.9872" cy="-7260.5269" r="70.8382" gradientTransform="matrix(1 0 0 -1 0 -6484.0044)" gradientUnits="userSpaceOnUse">
						<stop  offset="0" style="stop-color:#E6DAE3"/>
						<stop  offset="1" style="stop-color:#B7A2BB"/>
					</radialGradient>
					<polygon class="st19" points="795.3,794.8 795.3,764.2 992.7,758.5 992.4,791.4 					"/>
					
						<linearGradient id="SVGID_8_" gradientUnits="userSpaceOnUse" x1="819.1873" y1="-7260.4287" x2="966.4872" y2="-7260.4287" gradientTransform="matrix(1 0 0 -1 0 -6484.0044)">
						<stop  offset="0" style="stop-color:#706187"/>
						<stop  offset="1" style="stop-color:#41214B"/>
					</linearGradient>
					<polygon class="st20" points="819.2,773.7 819.2,782.1 966.5,778.5 966.5,770.8 					"/>
					<path class="st21" d="M836.9,713.1h4.8v4.8h-4.8V713.1z M836.9,718.3h4.8v4.8h-4.8V718.3z M836.9,723.5h4.8v4.8h-4.8V723.5z
						 M836.9,728.5h4.8v4.8h-4.8V728.5z M836.9,733.7h4.8v4.8h-4.8V733.7z M842.1,707.7h4.8v4.8h-4.8V707.7z M842.1,738.6h4.8v4.8
						h-4.8V738.6z M847.3,707.7h4.8v4.8h-4.8V707.7z M847.3,738.6h4.8v4.8h-4.8V738.6z M852.6,707.7h4.8v4.8h-4.8V707.7z
						 M852.6,738.6h4.8v4.8h-4.8V738.6z M857.9,712.5h4.4v4.8h-4.7L857.9,712.5z M857.9,733.2h4.4v4.8h-4.7L857.9,733.2z"/>
					<path class="st21" d="M863.9,723.5h4.7v4.8h-4.7V723.5z M863.9,728.5h4.7v4.8h-4.7V728.5z M863.9,733.7h4.7v4.8h-4.7V733.7z
						 M869.1,718.3h4.8v4.8h-4.8V718.3z M869.1,738.8h4.8v4.8h-4.8V738.8z M874.3,718.3h4.8v4.8h-4.8V718.3z M874.3,738.8h4.8v4.8
						h-4.8V738.8z M879.5,718.3h4.7v4.8h-4.7V718.3z M879.5,733.7h4.7v4.8h-4.7V733.7z M884.7,723.5h4.7v4.8h-4.7V723.5z
						 M884.7,728.5h4.7v4.8h-4.7V728.5z M884.7,733.7h4.7v4.8h-4.7V733.7z M884.7,738.8h4.7v4.8h-4.7V738.8z"/>
					<path class="st21" d="M890.7,723.5h4.8v4.8h-4.8V723.5z M890.7,738.8h4.8v4.8h-4.8V738.8z M895.9,718.3h5.5v4.8h-4.8
						L895.9,718.3z M895.9,728.5h5.5v4.8h-4.8L895.9,728.5z M895.9,738.8h5.5v4.8h-4.8L895.9,738.8z M901.1,718.3h4.8v4.8h-4.6
						L901.1,718.3z M901.1,728.5h4.8v4.8h-4.6L901.1,728.5z M901.1,738.8h4.8v4.8h-4.6L901.1,738.8z M906.3,718.3h4.8v4.8h-4.8
						V718.3z M906.3,728.5h4.8v4.8h-4.8V728.5z M906.3,738.8h4.8v4.8h-4.8V738.8z M911.5,733.7h4.8v4.8h-4.8V733.7z"/>
					<path class="st21" d="M917.6,708h4.7v4.8h-4.7V708z M917.6,713.1h4.7v4.8h-4.7V713.1z M917.6,718.3h4.7v4.8h-4.7V718.3z
						 M917.6,723.5h4.7v4.8h-4.7V723.5z M917.6,728.5h4.7v4.8h-4.7V728.5z M917.6,733.7h4.7v4.8h-4.7V733.7z M917.6,738.8h4.7v4.8
						h-4.7V738.8z M922.7,723.5h4.7v4.8h-4.8L922.7,723.5z M928,718.3h4.7v4.8H928V718.3z M933.2,718.3h4.7v4.8h-4.7V718.3z
						 M938.4,723.5h4.7v4.8h-4.7V723.5z M938.4,728.5h4.7v4.8h-4.7V728.5z M938.4,733.7h4.7v4.8h-4.7V733.7z M938.4,738.8h4.7v4.8
						h-4.7V738.8z"/>
					
						<radialGradient id="SVGID_9_" cx="1033.2101" cy="-7098.396" r="82.2136" gradientTransform="matrix(0.98 0 0 -1.04 109.9245 -6604.0181)" gradientUnits="userSpaceOnUse">
						<stop  offset="0" style="stop-color:#E6DAE3"/>
						<stop  offset="1" style="stop-color:#B7A2BB"/>
					</radialGradient>
					<polygon class="st22" points="1011,792.7 1011.5,765.9 1237,760.9 1236.7,795.1 					"/>
					
						<linearGradient id="SVGID_10_" gradientUnits="userSpaceOnUse" x1="1066.6873" y1="-7263.5786" x2="1211.4873" y2="-7263.5786" gradientTransform="matrix(1 0 0 -1 0 -6484.0044)">
						<stop  offset="0" style="stop-color:#706187"/>
						<stop  offset="1" style="stop-color:#41214B"/>
					</linearGradient>
					<polygon class="st23" points="1066.7,776.7 1066.7,785.5 1211.5,784 1211.5,773.7 					"/>
					<path class="st21" d="M1083.5,715h4.7v5.1h-4.7V715z M1083.5,720.4h4.7v5.1h-4.7V720.4z M1083.5,725.8h4.7v4.9h-4.7V725.8z
						 M1083.5,731.1h4.7v4.9h-4.7V731.1z M1083.5,736.5h4.7v4.9h-4.7V736.5z M1088.5,709.7h4.7v4.9h-4.7V709.7z M1088.5,741.8h4.7
						v4.9h-4.7V741.8z M1093.6,709.7h4.7v4.9h-4.7V709.7z M1093.6,741.8h4.7v4.9h-4.7V741.8z M1098.7,709.7h4.7v4.9h-4.7V709.7z
						 M1098.7,741.8h4.7v4.9h-4.7V741.8z M1103.9,715h4.7v5.1h-4.7V715z M1103.9,736.5h4.7v4.9h-4.7V736.5z"/>
					<path class="st21" d="M1109.5,725.8h4.7v4.9h-4.7V725.8z M1109.5,731.1h4.7v4.9h-4.7V731.1z M1109.5,736.5h4.7v4.9h-4.7V736.5z
						 M1114.5,720.4h4.8v5.1h-4.8V720.4z M1114.5,741.8h4.8v4.9h-4.8V741.8z M1119.7,720.4h4.7v5.1h-4.7V720.4z M1119.7,741.8h4.7
						v4.9h-4.7V741.8z M1124.8,720.4h4.7v5.1h-4.7V720.4z M1124.8,736.5h4.7v4.9h-4.7V736.5z M1130,725.8h4.6v4.9h-4.6V725.8z
						 M1130,731.1h4.6v4.9h-4.6V731.1z M1130,736.5h4.6v4.9h-4.6V736.5z M1130,741.8h4.6v4.9h-4.6V741.8z"/>
					<path class="st21" d="M1135.5,720.4h4.7v5.1h-4.7V720.4z M1135.5,725.8h4.7v4.9h-4.7V725.8z M1135.5,731.1h4.7v4.9h-4.7V731.1z
						 M1135.5,736.5h4.7v4.9h-4.7V736.5z M1135.5,741.8h4.7v4.9h-4.7V741.8z M1140.6,725.8h4.7v4.9h-4.7V725.8z M1145.8,720.4h4.7
						v5.1h-4.7V720.4z M1150.8,720.4h4.7v5.1h-4.7V720.4z M1155.9,725.8h5.6v4.9h-5.2L1155.9,725.8z"/>
					<path class="st21" d="M1162.3,725.8h4.7v4.9h-4.7V725.8z M1162.3,731.1h4.7v4.9h-4.7V731.1z M1162.3,736.5h4.7v4.9h-4.7V736.5z
						 M1167.4,720.4h4.7v5.1h-4.7V720.4z M1167.4,741.8h4.7v4.9h-4.7V741.8z M1172.4,720.4h4.8v5.1h-4.8V720.4z M1172.4,741.8h4.8
						v4.9h-4.8V741.8z M1177.6,725.8h4.7v4.9h-4.7V725.8z M1177.6,741.8h4.7v4.9h-4.7V741.8z M1182.7,709.7h4.8v4.9h-4.7
						L1182.7,709.7z M1182.7,715h4.8v5.1h-4.7L1182.7,715z M1182.7,720.4h4.8v5.1h-4.7L1182.7,720.4z M1182.7,725.8h4.8v4.9h-4.7
						L1182.7,725.8z M1182.7,731.1h4.8v4.9h-4.7L1182.7,731.1z M1182.7,736.5h4.8v4.9h-4.7L1182.7,736.5z"/>
					
						<radialGradient id="SVGID_11_" cx="950.8665" cy="-7053.2563" r="33.0415" gradientTransform="matrix(0.98 0 0 -1.04 109.9245 -6604.0181)" gradientUnits="userSpaceOnUse">
						<stop  offset="2.000000e-02" style="stop-color:#422944"/>
						<stop  offset="0.99" style="stop-color:#2B1433"/>
					</radialGradient>
					<polygon class="st24" points="1011.5,765.9 1011,696.4 1075.3,696.8 1072.8,764.6 					"/>
					<g>
						
							<radialGradient id="SVGID_12_" cx="933.4351" cy="-7033.2231" r="6.5042" gradientTransform="matrix(0.98 0 0 -1.04 109.9245 -6604.0181)" gradientUnits="userSpaceOnUse">
							<stop  offset="0" style="stop-color:#E6DAE3"/>
							<stop  offset="1" style="stop-color:#C1AFC4"/>
						</radialGradient>
						<rect x="1019.6" y="703.6" class="st25" width="12.9" height="13.7"/>
						
							<radialGradient id="SVGID_13_" cx="951.3867" cy="-7033.2231" r="6.5042" gradientTransform="matrix(0.98 0 0 -1.04 109.9245 -6604.0181)" gradientUnits="userSpaceOnUse">
							<stop  offset="0" style="stop-color:#E6DAE3"/>
							<stop  offset="1" style="stop-color:#C1AFC4"/>
						</radialGradient>
						<rect x="1037.3" y="703.6" class="st26" width="12.9" height="13.7"/>
						
							<radialGradient id="SVGID_14_" cx="968.2977" cy="-7033.2231" r="6.5042" gradientTransform="matrix(0.98 0 0 -1.04 109.9245 -6604.0181)" gradientUnits="userSpaceOnUse">
							<stop  offset="0" style="stop-color:#E6DAE3"/>
							<stop  offset="1" style="stop-color:#C1AFC4"/>
						</radialGradient>
						<rect x="1053.9" y="703.6" class="st27" width="12.9" height="13.7"/>
						
							<radialGradient id="SVGID_15_" cx="933.4351" cy="-7053.2563" r="6.5042" gradientTransform="matrix(0.98 0 0 -1.04 109.9245 -6604.0181)" gradientUnits="userSpaceOnUse">
							<stop  offset="0" style="stop-color:#E6DAE3"/>
							<stop  offset="1" style="stop-color:#C1AFC4"/>
						</radialGradient>
						<rect x="1019.6" y="724.4" class="st28" width="12.9" height="13.7"/>
						
							<radialGradient id="SVGID_16_" cx="951.3867" cy="-7053.2563" r="6.5042" gradientTransform="matrix(0.98 0 0 -1.04 109.9245 -6604.0181)" gradientUnits="userSpaceOnUse">
							<stop  offset="0" style="stop-color:#E6DAE3"/>
							<stop  offset="1" style="stop-color:#C1AFC4"/>
						</radialGradient>
						<rect x="1037.3" y="724.4" class="st29" width="12.9" height="13.7"/>
						
							<radialGradient id="SVGID_17_" cx="968.2977" cy="-7053.2563" r="6.5042" gradientTransform="matrix(0.98 0 0 -1.04 109.9245 -6604.0181)" gradientUnits="userSpaceOnUse">
							<stop  offset="0" style="stop-color:#E6DAE3"/>
							<stop  offset="1" style="stop-color:#C1AFC4"/>
						</radialGradient>
						<rect x="1053.9" y="724.4" class="st30" width="12.9" height="13.7"/>
						
							<radialGradient id="SVGID_18_" cx="933.4351" cy="-7073.2896" r="6.5042" gradientTransform="matrix(0.98 0 0 -1.04 109.9245 -6604.0181)" gradientUnits="userSpaceOnUse">
							<stop  offset="0" style="stop-color:#E6DAE3"/>
							<stop  offset="1" style="stop-color:#C1AFC4"/>
						</radialGradient>
						<rect x="1019.6" y="745.2" class="st31" width="12.9" height="13.7"/>
						
							<radialGradient id="SVGID_19_" cx="951.3867" cy="-7073.2896" r="6.5042" gradientTransform="matrix(0.98 0 0 -1.04 109.9245 -6604.0181)" gradientUnits="userSpaceOnUse">
							<stop  offset="0" style="stop-color:#E6DAE3"/>
							<stop  offset="1" style="stop-color:#C1AFC4"/>
						</radialGradient>
						<rect x="1037.3" y="745.2" class="st32" width="12.9" height="13.7"/>
						
							<radialGradient id="SVGID_20_" cx="968.2977" cy="-7073.2896" r="6.5042" gradientTransform="matrix(0.98 0 0 -1.04 109.9245 -6604.0181)" gradientUnits="userSpaceOnUse">
							<stop  offset="0" style="stop-color:#E6DAE3"/>
							<stop  offset="1" style="stop-color:#C1AFC4"/>
						</radialGradient>
						<rect x="1053.9" y="745.2" class="st33" width="12.9" height="13.7"/>
					</g>
					<polygon class="st34" points="1351.6,782.1 1517.4,794.8 1473.4,1494.6 1312.3,1494.6 					"/>
					<polygon class="st4" points="1371.1,816.1 1350.4,1155 1481.4,1155.7 1507.5,825.6 					"/>
					<polygon class="st4" points="1333.7,1476.4 1339.8,1438.2 1462.9,1438.2 1462.9,1476.4 					"/>
					<rect x="601.2" y="1207.8" class="st35" width="2.6" height="537.1"/>
					<polygon class="st35" points="1210.5,1737.9 1207.9,1737.7 1235.7,1201.8 1238.4,1201.9 					"/>
					<polygon class="st15" points="966.5,484.1 966.5,382.9 1286.6,376 1275.1,476.7 					"/>
					<g class="st36">
						
							<ellipse transform="matrix(1 -1.396260e-03 1.396260e-03 1 -1.7971 1.6583)" class="st37" cx="1186.8" cy="1287.9" rx="8.7" ry="8.3"/>
					</g>
					<g class="st36">
						<path class="st37" d="M1158.1,1287.3c-0.5,0.1-1,0.1-1.4,0c-2.3-0.7-3.5-3.1-2.8-5.4c0-0.1,0.1-0.1,0.1-0.2
							c3.9-14.4,16.4-24.7,31.2-26c6-0.1,12,1.4,17.2,4.4c2,1.4,2.5,4.2,1,6.2c-1.2,1.7-3.4,2.3-5.3,1.5c-3.9-2.4-8.4-3.6-13-3.4
							c-10.9,1.3-19.9,9.1-22.8,19.6C1161.8,1285.9,1160.1,1287.3,1158.1,1287.3z"/>
					</g>
					<g class="st36">
						<path class="st37" d="M1134.3,1279.8c-0.6,0.1-1.1,0.1-1.7,0c-2.2-0.9-3.3-3.4-2.4-5.6c0-0.1,0-0.1,0.1-0.2
							c8.2-23.1,28.6-39.7,52.9-43.1c9.6-0.7,19.2,1.2,27.8,5.6c2.2,1.1,3,3.8,1.9,6c-1.1,2.1-3.6,2.9-5.8,2
							c-7.2-3.8-15.2-5.4-23.3-4.8c-20.9,3.3-38.4,17.8-45.5,37.7C1137.5,1279,1136,1279.9,1134.3,1279.8z"/>
					</g>
				</g>
			</g>
			<g>
				<g>
					<g>
						<defs>
							<polygon id="SVGID_21_" points="1135.7,1019.4 704.5,1012.6 775.8,824.6 1056.2,820.1 							"/>
						</defs>
						<clipPath id="SVGID_22_">
							<use xlink:href="#SVGID_21_"  style="overflow:visible;"/>
						</clipPath>
						<g class="st38">
							<path class="st39" d="M833.9,915.5l-91.5-160.8c-8.5-15-3.2-34.9,11.8-44.5l2.7-1.7c15.1-9.7,34.4-5.5,43.2,9.4L894.3,878
								c9.6,16.2,4.3,37.6-11.8,47.4l-2.8,1.8C863.7,937.2,843.2,931.9,833.9,915.5z"/>
							<path class="st40" d="M864.6,932.6l-131.8-0.3c-17.7,0-31.5-15.2-31-33.7l0.1-3.3c0.6-18.4,15.2-33.4,32.7-33.6l130.5-1.3
								c18.4-0.2,33.4,15,33.3,34.1v3.4C898.4,917.1,883.2,932.6,864.6,932.6z"/>
							<path class="st41" d="M892.4,896.2c-0.1,16.1-12.9,29.1-28.5,29.1c-15.6,0-27.9-13-27.7-28.9c0.2-15.8,12.8-28.7,28.2-28.9
								C879.9,867.4,892.5,880.2,892.4,896.2z"/>
							<g>
								<path class="st42" d="M822.3,892.4v3.7c-0.2,10.7-3.3,18.6-10.1,25.7c-6.8,6.9-15.3,10.7-24.7,10.7
									c-19.4,0-33.5-15.3-33-35.5c0.5-20.3,15-35.5,34.2-35.7c10.6-0.1,20.1,4.5,26.4,12.8l-10.3,8.4c-4.7-5.9-9.5-8.4-16-8.4
									c-11.5,0.1-20.4,9.9-20.7,22.8c-0.3,12.7,8.6,22.7,20.1,22.7c5.7,0,11.3-2.6,14.9-6.9c2-2.4,3.1-4.6,4.2-8.7l-18.4,0.1
									l0.2-11.5L822.3,892.4z"/>
								<path class="st42" d="M890,871.9c5.8,6.6,8.6,14.6,8.6,24.7c-0.1,19.9-15.7,36-35,36c-19.8,0-35-15.8-34.7-35.7
									c0.3-20.4,15.7-36.1,35.5-36.3C874.2,860.5,883.3,864.5,890,871.9z M842.8,896.6c-0.2,12.9,8.7,22.8,20.5,22.8
									c11.7,0,20.9-10,21-22.6c0.1-13.4-8.6-23.2-20.5-23.1C851.9,873.7,843,883.5,842.8,896.6z"/>
							</g>
						</g>
					</g>
				</g>
			</g>
			<polygon class="st43" points="614.8,510.7 746.1,869.7 1255.3,865.8 1275.7,492.2 			"/>
		</g>
		<g>
			<g>
				<g id="Ebene_1_3_">
					<polygon class="st3" points="1488.2,1918.8 1503.7,384.4 2262,360.8 2183.5,1918.8 					"/>
					<polygon class="st4" points="2262,360.8 2570.5,398.5 2472,1918.8 2183.5,1918.8 					"/>
					<polygon class="st4" points="1530.9,1232.4 2183.5,1226.4 2223.4,497.1 1543.5,516.1 					"/>
					
						<linearGradient id="SVGID_23_" gradientUnits="userSpaceOnUse" x1="1883.4373" y1="-7168.2788" x2="1883.4373" y2="-6981.0786" gradientTransform="matrix(1 0 0 -1 0 -6484.0044)">
						<stop  offset="0" style="stop-color:#A499CA"/>
						<stop  offset="1" style="stop-color:#561F39"/>
					</linearGradient>
					<polygon class="st44" points="1543.5,516.1 1709.7,684.3 2213.6,675.9 2223.4,497.1 					"/>
					<polygon class="st3" points="1709.7,684.3 1713.4,1178.1 2186.2,1178.1 2213.6,675.9 					"/>
					<polygon class="st6" points="1703.3,827.9 1530.9,1232.4 2183.5,1226.4 2206,815.1 					"/>
					
						<linearGradient id="SVGID_24_" gradientUnits="userSpaceOnUse" x1="1566.9872" y1="683.783" x2="2205.9873" y2="683.783" gradientTransform="matrix(1 0 0 1 0 333.4915)">
						<stop  offset="0" style="stop-color:#141414;stop-opacity:0.5"/>
						<stop  offset="3.400000e-02" style="stop-color:#1E1F22;stop-opacity:0.5292"/>
						<stop  offset="0.1448" style="stop-color:#393C4B;stop-opacity:0.6247"/>
						<stop  offset="0.2514" style="stop-color:#4F5571;stop-opacity:0.7164"/>
						<stop  offset="0.3511" style="stop-color:#606991;stop-opacity:0.8022"/>
						<stop  offset="0.4421" style="stop-color:#6C78AB;stop-opacity:0.8806"/>
						<stop  offset="0.5216" style="stop-color:#7482BC;stop-opacity:0.949"/>
						<stop  offset="0.5808" style="stop-color:#7685C1"/>
						<stop  offset="0.7053" style="stop-color:#7584BF;stop-opacity:0.8337"/>
						<stop  offset="0.7652" style="stop-color:#7280B8;stop-opacity:0.7537"/>
						<stop  offset="0.8113" style="stop-color:#6C78AB;stop-opacity:0.6921"/>
						<stop  offset="0.8504" style="stop-color:#646E9A;stop-opacity:0.6399"/>
						<stop  offset="0.885" style="stop-color:#5A6285;stop-opacity:0.5937"/>
						<stop  offset="0.9164" style="stop-color:#4D526D;stop-opacity:0.5517"/>
						<stop  offset="0.9455" style="stop-color:#3E4152;stop-opacity:0.5129"/>
						<stop  offset="0.9726" style="stop-color:#2C2D36;stop-opacity:0.4765"/>
						<stop  offset="0.9974" style="stop-color:#171718;stop-opacity:0.4435"/>
						<stop  offset="1" style="stop-color:#141414;stop-opacity:0.44"/>
					</linearGradient>
					<polygon class="st45" points="1567,1206.7 2170.8,1202.2 2187.1,1152.8 2206,827.9 1710.8,838.3 					"/>
					<polygon class="st3" points="1663,1452.3 1663,1308.6 2018.4,1308.6 2009.4,1452.3 					"/>
					<polygon class="st8" points="1683.7,1322.9 1678.1,1435 1983.6,1435 1991.4,1319.3 					"/>
					<polygon class="st4" points="1678.6,1422.5 1984.4,1422.5 1991.4,1319.3 1683.7,1322.9 					"/>
					<polygon class="st9" points="1683.7,1322.9 1697.4,1408.5 1985.4,1408.5 1991.4,1319.3 					"/>
					<polygon class="st4" points="2018.4,1308.6 2026.3,1308.6 2022.4,1452.3 2009.4,1452.3 					"/>
					<polygon class="st4" points="1690.2,1452.3 1709.7,1469.4 2035.7,1469.4 2043.8,1319.3 2026.3,1308.6 2022.4,1452.3 					"/>
					<polygon class="st4" points="1489.6,1786 2191.2,1768 2190.8,1776.9 1489.6,1789.2 					"/>
					<polygon class="st10" points="1683.7,1884.5 1682.4,1868.9 1963,1864.7 1957.1,1884.5 					"/>
					
						<linearGradient id="SVGID_25_" gradientUnits="userSpaceOnUse" x1="2426.8872" y1="-8402.7783" x2="2426.8872" y2="-7474.0786" gradientTransform="matrix(1 0 0 -1 0 -6484.0044)">
						<stop  offset="0" style="stop-color:#7D3654"/>
						<stop  offset="1" style="stop-color:#020303"/>
					</linearGradient>
					<polygon class="st46" points="2321.5,1918.8 2405.5,1023.7 2532.3,990.1 2472,1918.8 					"/>
					<polygon class="st12" points="1530.9,1589.7 2165.2,1581.6 2155,1768.9 1530.9,1785 					"/>
					<polygon class="st13" points="1542.4,1601.8 1704.7,1599.6 1704.7,1768.5 1542.4,1772.7 					"/>
					<polygon class="st14" points="1762.4,1621.4 2084.2,1618.1 2083.3,1601.2 1762.4,1601.9 					"/>
					<polygon class="st15" points="1853.9,1775.7 1853.9,1711.4 1932.5,1709.1 1929.4,1773.9 					"/>
					<polygon class="st15" points="1957,1774 1957,1709.6 2037.1,1707.1 2033.4,1772.1 					"/>
					<polygon class="st15" points="2051.1,1771.6 2051.1,1707.1 2131.1,1707.1 2126.5,1769.6 					"/>
					<rect x="1762.4" y="1644.7" class="st16" width="48.2" height="13.5"/>
					<rect x="1762.4" y="1686.3" class="st16" width="73.1" height="13.5"/>
					<rect x="1762.4" y="1665.5" class="st16" width="130.1" height="13.5"/>
					<polygon class="st12" points="1530.9,391.9 1530.9,497.1 2222.7,480.4 2234.7,376.8 					"/>
					
						<radialGradient id="SVGID_26_" cx="2081.9873" cy="-7236.5786" r="79.2417" gradientTransform="matrix(1 0 0 -1 0 -6484.0044)" gradientUnits="userSpaceOnUse">
						<stop  offset="2.000000e-02" style="stop-color:#422944"/>
						<stop  offset="0.99" style="stop-color:#2B1433"/>
					</radialGradient>
					<polygon class="st47" points="1980.5,798.1 1980.5,707.2 2183.5,705.1 2183.4,800.1 					"/>
					
						<radialGradient id="SVGID_27_" cx="1830.6873" cy="-7240.9785" r="80.1954" gradientTransform="matrix(1 0 0 -1 0 -6484.0044)" gradientUnits="userSpaceOnUse">
						<stop  offset="2.000000e-02" style="stop-color:#422944"/>
						<stop  offset="0.99" style="stop-color:#2B1433"/>
					</radialGradient>
					<polygon class="st48" points="1729.2,807.6 1729.2,707.2 1932.2,706.4 1932,800.1 					"/>
					
						<radialGradient id="SVGID_28_" cx="1830.6873" cy="-7272.812" r="72.9707" gradientTransform="matrix(1 0 0 -1 0 -6484.0044)" gradientUnits="userSpaceOnUse">
						<stop  offset="0" style="stop-color:#E6DAE3"/>
						<stop  offset="1" style="stop-color:#B7A2BB"/>
					</radialGradient>
					<polygon class="st49" points="1729.2,807.6 1729.2,776.1 1932.2,770.2 1932,804.1 					"/>
					
						<linearGradient id="SVGID_29_" gradientUnits="userSpaceOnUse" x1="1753.7872" y1="-7272.7285" x2="1905.2872" y2="-7272.7285" gradientTransform="matrix(1 0 0 -1 0 -6484.0044)">
						<stop  offset="0" style="stop-color:#706187"/>
						<stop  offset="1" style="stop-color:#41214B"/>
					</linearGradient>
					<polygon class="st50" points="1753.8,785.9 1753.8,794.6 1905.3,790.8 1905.3,782.9 					"/>
					<path class="st21" d="M1772,723.5h4.9v4.9h-4.9V723.5z M1772,728.9h4.9v4.9h-4.9V728.9z M1772,734.2h4.9v4.9h-4.9V734.2z
						 M1772,739.5h4.9v4.9h-4.9V739.5z M1772,744.8h4.9v4.9h-4.9V744.8z M1777.4,718h4.9v4.9h-4.9V718z M1777.4,749.8h4.9v4.9h-4.9
						V749.8z M1782.8,718h4.9v4.9h-4.9V718z M1782.8,749.8h4.9v4.9h-4.9V749.8z M1788.1,718h4.9v4.9h-4.9V718z M1788.1,749.8h4.9
						v4.9h-4.9V749.8z M1793.6,723h4.6v4.9h-4.8L1793.6,723z M1793.6,744.3h4.6v4.9h-4.8L1793.6,744.3z"/>
					<path class="st21" d="M1799.7,734.2h4.8v4.9h-4.8V734.2z M1799.7,739.5h4.8v4.9h-4.8V739.5z M1799.7,744.8h4.8v4.9h-4.8V744.8z
						 M1805.1,728.9h4.9v4.9h-4.9V728.9z M1805.1,750h4.9v4.9h-4.9V750z M1810.5,728.9h4.9v4.9h-4.9V728.9z M1810.5,750h4.9v4.9
						h-4.9V750z M1815.8,728.9h4.8v4.9h-4.8V728.9z M1815.8,744.8h4.8v4.9h-4.8V744.8z M1821.2,734.2h4.8v4.9h-4.8V734.2z
						 M1821.2,739.5h4.8v4.9h-4.8V739.5z M1821.2,744.8h4.8v4.9h-4.8V744.8z M1821.2,750h4.8v4.9h-4.8V750z"/>
					<path class="st21" d="M1827.3,734.2h4.9v4.9h-4.9V734.2z M1827.3,750h4.9v4.9h-4.9V750z M1832.7,728.9h5.6v4.9h-4.9
						L1832.7,728.9z M1832.7,739.5h5.6v4.9h-4.9L1832.7,739.5z M1832.7,750h5.6v4.9h-4.9L1832.7,750z M1838,728.9h4.9v4.9h-4.7
						L1838,728.9z M1838,739.5h4.9v4.9h-4.7L1838,739.5z M1838,750h4.9v4.9h-4.7L1838,750z M1843.4,728.9h4.9v4.9h-4.9V728.9z
						 M1843.4,739.5h4.9v4.9h-4.9V739.5z M1843.4,750h4.9v4.9h-4.9V750z M1848.7,744.8h4.9v4.9h-4.9V744.8z"/>
					<path class="st21" d="M1855,718.3h4.8v4.9h-4.8V718.3z M1855,723.5h4.8v4.9h-4.8V723.5z M1855,728.9h4.8v4.9h-4.8V728.9z
						 M1855,734.2h4.8v4.9h-4.8V734.2z M1855,739.5h4.8v4.9h-4.8V739.5z M1855,744.8h4.8v4.9h-4.8V744.8z M1855,750h4.8v4.9h-4.8
						V750z M1860.2,734.2h4.8v4.9h-4.9L1860.2,734.2z M1865.7,728.9h4.8v4.9h-4.8V728.9z M1871.1,728.9h4.8v4.9h-4.8V728.9z
						 M1876.4,734.2h4.8v4.9h-4.8V734.2z M1876.4,739.5h4.8v4.9h-4.8V739.5z M1876.4,744.8h4.8v4.9h-4.8V744.8z M1876.4,750h4.8v4.9
						h-4.8V750z"/>
					
						<radialGradient id="SVGID_30_" cx="1995.7604" cy="-7110.2583" r="84.5724" gradientTransform="matrix(0.98 0 0 -1.04 109.9245 -6604.0181)" gradientUnits="userSpaceOnUse">
						<stop  offset="0" style="stop-color:#E6DAE3"/>
						<stop  offset="1" style="stop-color:#B7A2BB"/>
					</radialGradient>
					<polygon class="st51" points="1951.1,805.4 1951.6,777.9 2183.5,772.8 2183.3,808 					"/>
					
						<linearGradient id="SVGID_31_" gradientUnits="userSpaceOnUse" x1="2008.3872" y1="-7275.9785" x2="2157.2874" y2="-7275.9785" gradientTransform="matrix(1 0 0 -1 0 -6484.0044)">
						<stop  offset="0" style="stop-color:#706187"/>
						<stop  offset="1" style="stop-color:#41214B"/>
					</linearGradient>
					<polygon class="st52" points="2008.4,789 2008.4,798.1 2157.3,796.5 2157.3,785.9 					"/>
					<path class="st21" d="M2025.6,725.5h4.8v5.2h-4.8V725.5z M2025.6,731h4.8v5.2h-4.8V731z M2025.6,736.6h4.8v5.1h-4.8V736.6z
						 M2025.6,742.1h4.8v5.1h-4.8V742.1z M2025.6,747.6h4.8v5.1h-4.8V747.6z M2030.8,720.1h4.8v5.1h-4.8V720.1z M2030.8,753.1h4.8
						v5.1h-4.8V753.1z M2036.1,720.1h4.8v5.1h-4.8V720.1z M2036.1,753.1h4.8v5.1h-4.8V753.1z M2041.3,720.1h4.8v5.1h-4.8V720.1z
						 M2041.3,753.1h4.8v5.1h-4.8V753.1z M2046.6,725.5h4.8v5.2h-4.8V725.5z M2046.6,747.6h4.8v5.1h-4.8V747.6z"/>
					<path class="st21" d="M2052.4,736.6h4.8v5.1h-4.8V736.6z M2052.4,742.1h4.8v5.1h-4.8V742.1z M2052.4,747.6h4.8v5.1h-4.8V747.6z
						 M2057.6,731h4.9v5.2h-4.9V731z M2057.6,753.1h4.9v5.1h-4.9V753.1z M2063,731h4.8v5.2h-4.8V731z M2063,753.1h4.8v5.1h-4.8
						V753.1z M2068.2,731h4.8v5.2h-4.8V731z M2068.2,747.6h4.8v5.1h-4.8V747.6z M2073.5,736.6h4.7v5.1h-4.7V736.6z M2073.5,742.1
						h4.7v5.1h-4.7V742.1z M2073.5,747.6h4.7v5.1h-4.7V747.6z M2073.5,753.1h4.7v5.1h-4.7V753.1z"/>
					<path class="st21" d="M2079.2,731h4.8v5.2h-4.8V731z M2079.2,736.6h4.8v5.1h-4.8V736.6z M2079.2,742.1h4.8v5.1h-4.8V742.1z
						 M2079.2,747.6h4.8v5.1h-4.8V747.6z M2079.2,753.1h4.8v5.1h-4.8V753.1z M2084.4,736.6h4.8v5.1h-4.8V736.6z M2089.7,731h4.8v5.2
						h-4.8V731z M2094.9,731h4.8v5.2h-4.8V731z M2100.2,736.6h5.8v5.1h-5.4L2100.2,736.6z"/>
					<path class="st21" d="M2106.7,736.6h4.8v5.1h-4.8V736.6z M2106.7,742.1h4.8v5.1h-4.8V742.1z M2106.7,747.6h4.8v5.1h-4.8V747.6z
						 M2111.9,731h4.8v5.2h-4.8V731z M2111.9,753.1h4.8v5.1h-4.8V753.1z M2117.2,731h4.9v5.2h-4.9V731z M2117.2,753.1h4.9v5.1h-4.9
						V753.1z M2122.5,736.6h4.8v5.1h-4.8V736.6z M2122.5,753.1h4.8v5.1h-4.8V753.1z M2127.7,720.1h4.9v5.1h-4.8L2127.7,720.1z
						 M2127.7,725.5h4.9v5.2h-4.8L2127.7,725.5z M2127.7,731h4.9v5.2h-4.8L2127.7,731z M2127.7,736.6h4.9v5.1h-4.8L2127.7,736.6z
						 M2127.7,742.1h4.9v5.1h-4.8L2127.7,742.1z M2127.7,747.6h4.9v5.1h-4.8L2127.7,747.6z"/>
					
						<radialGradient id="SVGID_32_" cx="1911.0541" cy="-7063.8237" r="33.9895" gradientTransform="matrix(0.98 0 0 -1.04 109.9245 -6604.0181)" gradientUnits="userSpaceOnUse">
						<stop  offset="2.000000e-02" style="stop-color:#422944"/>
						<stop  offset="0.99" style="stop-color:#2B1433"/>
					</radialGradient>
					<polygon class="st53" points="1951.6,777.9 1951.1,706.4 2017.2,706.8 2014.7,776.5 					"/>
					<g>
						
							<radialGradient id="SVGID_33_" cx="1893.1227" cy="-7043.2153" r="6.6909" gradientTransform="matrix(0.98 0 0 -1.04 109.9245 -6604.0181)" gradientUnits="userSpaceOnUse">
							<stop  offset="0" style="stop-color:#E6DAE3"/>
							<stop  offset="1" style="stop-color:#C1AFC4"/>
						</radialGradient>
						<rect x="1959.9" y="713.8" class="st54" width="13.2" height="14.1"/>
						
							<radialGradient id="SVGID_34_" cx="1911.5892" cy="-7043.2153" r="6.6909" gradientTransform="matrix(0.98 0 0 -1.04 109.9245 -6604.0181)" gradientUnits="userSpaceOnUse">
							<stop  offset="0" style="stop-color:#E6DAE3"/>
							<stop  offset="1" style="stop-color:#C1AFC4"/>
						</radialGradient>
						<rect x="1978.1" y="713.8" class="st55" width="13.2" height="14.1"/>
						
							<radialGradient id="SVGID_35_" cx="1928.9855" cy="-7043.2153" r="6.6909" gradientTransform="matrix(0.98 0 0 -1.04 109.9245 -6604.0181)" gradientUnits="userSpaceOnUse">
							<stop  offset="0" style="stop-color:#E6DAE3"/>
							<stop  offset="1" style="stop-color:#C1AFC4"/>
						</radialGradient>
						<rect x="1995.3" y="713.8" class="st56" width="13.2" height="14.1"/>
						
							<radialGradient id="SVGID_36_" cx="1893.1227" cy="-7063.8237" r="6.6909" gradientTransform="matrix(0.98 0 0 -1.04 109.9245 -6604.0181)" gradientUnits="userSpaceOnUse">
							<stop  offset="0" style="stop-color:#E6DAE3"/>
							<stop  offset="1" style="stop-color:#C1AFC4"/>
						</radialGradient>
						<rect x="1959.9" y="735.2" class="st57" width="13.2" height="14.1"/>
						
							<radialGradient id="SVGID_37_" cx="1911.5892" cy="-7063.8237" r="6.6909" gradientTransform="matrix(0.98 0 0 -1.04 109.9245 -6604.0181)" gradientUnits="userSpaceOnUse">
							<stop  offset="0" style="stop-color:#E6DAE3"/>
							<stop  offset="1" style="stop-color:#C1AFC4"/>
						</radialGradient>
						<rect x="1978.1" y="735.2" class="st58" width="13.2" height="14.1"/>
						
							<radialGradient id="SVGID_38_" cx="1928.9855" cy="-7063.8237" r="6.6909" gradientTransform="matrix(0.98 0 0 -1.04 109.9245 -6604.0181)" gradientUnits="userSpaceOnUse">
							<stop  offset="0" style="stop-color:#E6DAE3"/>
							<stop  offset="1" style="stop-color:#C1AFC4"/>
						</radialGradient>
						<rect x="1995.3" y="735.2" class="st59" width="13.2" height="14.1"/>
						
							<radialGradient id="SVGID_39_" cx="1893.1227" cy="-7084.4312" r="6.6909" gradientTransform="matrix(0.98 0 0 -1.04 109.9245 -6604.0181)" gradientUnits="userSpaceOnUse">
							<stop  offset="0" style="stop-color:#E6DAE3"/>
							<stop  offset="1" style="stop-color:#C1AFC4"/>
						</radialGradient>
						<rect x="1959.9" y="756.6" class="st60" width="13.2" height="14.1"/>
						
							<radialGradient id="SVGID_40_" cx="1911.5892" cy="-7084.4312" r="6.6909" gradientTransform="matrix(0.98 0 0 -1.04 109.9245 -6604.0181)" gradientUnits="userSpaceOnUse">
							<stop  offset="0" style="stop-color:#E6DAE3"/>
							<stop  offset="1" style="stop-color:#C1AFC4"/>
						</radialGradient>
						<rect x="1978.1" y="756.6" class="st61" width="13.2" height="14.1"/>
						
							<radialGradient id="SVGID_41_" cx="1928.9855" cy="-7084.4312" r="6.6909" gradientTransform="matrix(0.98 0 0 -1.04 109.9245 -6604.0181)" gradientUnits="userSpaceOnUse">
							<stop  offset="0" style="stop-color:#E6DAE3"/>
							<stop  offset="1" style="stop-color:#C1AFC4"/>
						</radialGradient>
						<rect x="1995.3" y="756.6" class="st62" width="13.2" height="14.1"/>
					</g>
					<polygon class="st34" points="2301.4,794.6 2472,807.6 2426.8,1527.5 2261,1527.5 					"/>
					<polygon class="st4" points="2321.5,829.5 2300.2,1178.1 2435,1178.9 2461.9,839.3 					"/>
					<polygon class="st4" points="2283.1,1508.8 2289.4,1469.4 2416,1469.4 2416,1508.8 					"/>
					<rect x="1529.6" y="1232.4" class="st35" width="2.7" height="552.5"/>
					<polygon class="st35" points="2156.4,1777.7 2153.7,1777.6 2182.2,1226.3 2185,1226.4 					"/>
					<polygon class="st15" points="1905.3,488 1905.3,383.9 2234.7,376.8 2222.7,480.4 					"/>
					<g class="st36">
						
							<ellipse transform="matrix(1 -1.396260e-03 1.396260e-03 1 -1.8337 2.9781)" class="st37" cx="2132" cy="1314.8" rx="9" ry="8.6"/>
					</g>
					<g class="st36">
						<path class="st37" d="M2102.4,1314.2c-0.5,0.1-1,0.1-1.5,0c-2.3-0.7-3.6-3.2-2.9-5.5c0-0.1,0.1-0.1,0.1-0.2
							c4-14.8,16.9-25.4,32.1-26.8c6.2-0.2,12.3,1.4,17.7,4.6c2.1,1.5,2.5,4.3,1.1,6.3c-1.2,1.7-3.5,2.4-5.5,1.6
							c-4-2.4-8.7-3.7-13.4-3.5c-11.2,1.3-20.4,9.3-23.4,20.2C2106.2,1312.8,2104.5,1314.2,2102.4,1314.2z"/>
					</g>
					<g class="st36">
						<path class="st37" d="M2078,1306.6c-0.6,0.1-1.2,0.1-1.7,0c-2.3-0.9-3.4-3.5-2.5-5.7c0-0.1,0-0.1,0.1-0.1
							c8.5-23.8,29.5-40.9,54.5-44.3c9.9-0.7,19.8,1.3,28.6,5.8c2.2,1.2,3.1,3.9,1.9,6.1c-1.1,2.2-3.7,3-5.9,2
							c-7.4-3.9-15.7-5.6-23.9-4.9c-21.5,3.4-39.5,18.3-46.8,38.8C2081.3,1305.7,2079.7,1306.6,2078,1306.6z"/>
					</g>
				</g>
			</g>
			<g>
				<g>
					<g>
						<defs>
							<polygon id="SVGID_42_" points="2079.3,1038.7 1635.8,1031.6 1709.2,838.3 1997.6,833.7 							"/>
						</defs>
						<clipPath id="SVGID_43_">
							<use xlink:href="#SVGID_42_"  style="overflow:visible;"/>
						</clipPath>
						<g class="st63">
							<path class="st39" d="M1768.9,931.8l-94.1-165.4c-8.8-15.4-3.3-35.9,12.2-45.8l2.8-1.8c15.5-9.9,35.4-5.6,44.5,9.7
								l96.9,164.7c9.8,16.7,4.4,38.6-12.1,48.8l-2.9,1.8C1799.6,954.1,1778.5,948.6,1768.9,931.8z"/>
							<path class="st40" d="M1800.5,949.4l-135.6-0.3c-18.2,0-32.4-15.6-31.8-34.6l0.1-3.4c0.6-18.9,15.6-34.4,33.7-34.5l134.3-1.3
								c19-0.2,34.4,15.4,34.3,35v3.5C1835.3,933.4,1819.6,949.4,1800.5,949.4z"/>
							<path class="st41" d="M1829.1,911.9c-0.1,16.5-13.2,29.9-29.3,29.9c-16,0-28.7-13.3-28.5-29.7c0.2-16.3,13.2-29.6,29-29.7
								C1816.3,882.3,1829.2,895.4,1829.1,911.9z"/>
							<g>
								<path class="st42" d="M1757,908l-0.1,3.8c-0.2,10.9-3.4,19.2-10.4,26.4s-15.8,11-25.4,11c-19.9,0-34.4-15.7-33.9-36.5
									s15.5-36.5,35.2-36.7c10.9-0.1,20.7,4.6,27.2,13.2l-10.6,8.6c-4.9-6.1-9.8-8.7-16.5-8.6c-11.8,0.1-21,10.2-21.3,23.4
									c-0.3,13.1,8.8,23.3,20.7,23.3c5.8,0,11.7-2.7,15.3-7.1c2.1-2.4,3.2-4.7,4.3-8.9l-19,0.1l0.2-11.8L1757,908z"/>
								<path class="st42" d="M1826.6,886.9c5.9,6.8,8.8,15,8.8,25.4c-0.1,20.5-16.2,37-36,37c-20.3-0.1-36-16.3-35.7-36.7
									c0.3-21,16.1-37.2,36.6-37.4C1810.4,875.2,1819.7,879.3,1826.6,886.9z M1778.1,912.4c-0.2,13.2,9,23.4,21.1,23.4
									c12,0,21.5-10.2,21.6-23.2c0.1-13.8-8.8-23.9-21.1-23.8C1787.5,888.8,1778.3,898.9,1778.1,912.4z"/>
							</g>
						</g>
					</g>
				</g>
			</g>
			<polygon class="st43" points="1543.5,515.3 1678.6,884.6 2202.4,880.6 2223.4,496.3 			"/>
		</g>
	</g>
</g>
</svg>
