<svg id="Ebene_1" data-name="Ebene 1" xmlns="http://www.w3.org/2000/svg" viewBox="0 0 1617 286"><defs><style>.cls-1{fill:#fff;}.cls-2{fill:#302d7e;}</style></defs><rect class="cls-1" x="43" width="1532" height="286" rx="143"/><path class="cls-2" d="M187.8,193H174.28V85.59h13.36l39.77,80.49,40.25-80.49h13.2V193H267.33V114.4l-39.92,79.7L187.8,114.24Z"/><path class="cls-2" d="M313.54,159.8c.64,6.28,1.77,9.5,4.83,13.53a24.13,24.13,0,0,0,20,10.14,25.68,25.68,0,0,0,22.22-12.72l10.79,4c-6.12,12.39-18.84,20-33,20-22.05,0-37.83-16.1-37.83-38.64,0-22.86,15.62-39.12,37.35-39.12,21.57,0,37.67,16.26,37.67,38,0,1,0,3.06-.16,4.83Zm48.94-9c-.48-5.8-1.61-9-4.18-12.72a25.47,25.47,0,0,0-20.45-10.14,23.83,23.83,0,0,0-20,10.3c-2.26,3.54-3.22,6.6-4.19,12.56Z"/><path class="cls-2" d="M404.5,129.05C411.27,120.68,418,117,426.88,117c6.44,0,13.2,2.58,17.23,6.76s5.79,9.82,5.79,19.32V193H437.67V143.71c0-10.15-5-15.78-13.85-15.78a18.9,18.9,0,0,0-14.49,6.6c-3.7,4.18-4.83,7.89-4.83,15V193H392.27V85.59H404.5Z"/><path class="cls-2" d="M486.29,118.75v12.56c2.25-5.31,3.87-7.57,6.76-9.82A23.28,23.28,0,0,1,507.22,117h2.9v12.4a27.62,27.62,0,0,0-3.38-.16,19,19,0,0,0-16.1,8.53c-3.22,4.67-4.35,9-4.35,17.55V193H474.06V118.75Z"/><path class="cls-2" d="M588.2,193H574.68V85.59H588.2Z"/><path class="cls-2" d="M626,118.75v10.47c6.44-8.7,12.88-12.24,22.05-12.24a25.82,25.82,0,0,1,17.23,6.12c4.67,4.51,6.28,9.66,6.28,19.8V193H659.36V145.64c0-6.6-.8-10.15-2.74-12.72-2.25-3.06-6.6-5-11.59-5a18.44,18.44,0,0,0-14.16,6.28c-3.55,3.86-4.83,7.4-4.83,13.52V193H613.8V118.75Z"/><path class="cls-2" d="M709.27,193H697V129.54H686.89V118.75H697v-10c0-14.65,7.56-23.34,20.44-23.34a29,29,0,0,1,3.38.16V96.53c-8.85,1-11.27,3.55-11.59,12.24v10h11.59v10.79H709.27Z"/><path class="cls-2" d="M805.06,156.1c0,21.74-16.74,38.64-38,38.64-22.06,0-37.51-16.1-37.51-39,0-23,15.45-38.8,38-38.8C789.45,117,805.06,133.24,805.06,156.1Zm-62.95-.16c0,16.42,10.15,27.53,25.28,27.53,14.65,0,25.11-11.43,25.11-27.53,0-16.58-10-27.69-25-27.69C752.26,128.25,742.11,139.36,742.11,155.94Z"/><path class="cls-2" d="M836,118.75v12.56c2.26-5.31,3.87-7.57,6.77-9.82A23.22,23.22,0,0,1,856.9,117h2.9v12.4a27.54,27.54,0,0,0-3.38-.16,19,19,0,0,0-16.1,8.53c-3.22,4.67-4.35,9-4.35,17.55V193H823.74V118.75Z"/><path class="cls-2" d="M885.88,118.75v10.3C891.52,120.52,897.8,117,907,117c10.15,0,16.59,4.35,20,13.52,5.47-9.5,12.39-13.52,23.5-13.52,8.54,0,15,2.74,18.84,7.89,3.54,4.67,4.51,8.85,4.51,20.61V193H961.55v-44.6c0-9-.32-11.1-2.09-14.16-2.25-3.87-7.08-6.28-12.88-6.28-10.79,0-16.74,7.24-16.74,20.44V193H917.6V148.54c0-7.25-.64-10.95-2.41-14.17-2.1-4.19-6.61-6.44-12.08-6.44-10.79,0-17.23,7.73-17.23,20.61V193H873.65V118.75Z"/><path class="cls-2" d="M1054,118.75h12.24V193H1054V178.64c-7.4,11.11-15.77,16.1-27,16.1-20.45,0-34.94-16.1-34.94-38.64,0-22.7,14.81-39.12,35.26-39.12,11.27,0,19.48,4.35,26.72,14Zm-43,18a33.92,33.92,0,0,0-6.12,19.64c0,15.78,10.31,27.7,23.83,27.7,14,0,25.43-13.05,25.43-29,0-16.1-10.3-27.21-25.11-27.21C1021,127.93,1015.33,130.67,1011,136.78Z"/><path class="cls-2" d="M1103.39,177.84c.16,3.7,1.13,4.5,5.64,4.5h5.63V193h-11.43c-8.69-.16-12.07-3.38-12.07-11.59V129.54h-10.31V118.75h10.31V95.41h12.23v23.34h11.27v10.79h-11.27Z"/><path class="cls-2" d="M1144.93,98a7.76,7.76,0,0,1-7.89,7.73,7.89,7.89,0,0,1,.16-15.78A7.8,7.8,0,0,1,1144.93,98Zm-1.77,95h-12.24V118.75h12.24Z"/><path class="cls-2" d="M1237.34,156.1c0,21.74-16.74,38.64-38,38.64-22.06,0-37.52-16.1-37.52-39,0-23,15.46-38.8,38-38.8C1221.72,117,1237.34,133.24,1237.34,156.1Zm-62.95-.16c0,16.42,10.15,27.53,25.28,27.53,14.65,0,25.11-11.43,25.11-27.53,0-16.58-10-27.69-25-27.69C1184.54,128.25,1174.39,139.36,1174.39,155.94Z"/><path class="cls-2" d="M1268.25,118.75v10.47c6.44-8.7,12.88-12.24,22.06-12.24a25.82,25.82,0,0,1,17.23,6.12c4.67,4.51,6.28,9.66,6.28,19.8V193h-12.24V145.64c0-6.6-.81-10.15-2.74-12.72-2.25-3.06-6.6-5-11.59-5a18.47,18.47,0,0,0-14.17,6.28c-3.54,3.86-4.83,7.4-4.83,13.52V193H1256V118.75Z"/><path class="cls-2" d="M1345.05,159.8c.64,6.28,1.77,9.5,4.83,13.53a24.13,24.13,0,0,0,20,10.14,25.7,25.7,0,0,0,22.22-12.72l10.79,4c-6.12,12.39-18.84,20-33,20-22,0-37.83-16.1-37.83-38.64,0-22.86,15.61-39.12,37.35-39.12,21.57,0,37.67,16.26,37.67,38,0,1,0,3.06-.16,4.83Zm48.94-9c-.48-5.8-1.61-9-4.19-12.72a25.44,25.44,0,0,0-20.44-10.14,23.83,23.83,0,0,0-20,10.3c-2.26,3.54-3.22,6.6-4.19,12.56Z"/><path class="cls-2" d="M1437,118.75v10.47c6.44-8.7,12.88-12.24,22-12.24a25.82,25.82,0,0,1,17.23,6.12c4.67,4.51,6.28,9.66,6.28,19.8V193H1470.3V145.64c0-6.6-.8-10.15-2.73-12.72-2.26-3.06-6.61-5-11.6-5a18.44,18.44,0,0,0-14.16,6.28c-3.54,3.86-4.83,7.4-4.83,13.52V193h-12.24V118.75Z"/></svg>