<svg id="Ebene_1" data-name="Ebene 1" xmlns="http://www.w3.org/2000/svg" viewBox="0 0 1585 421"><defs><style>.cls-1{fill:#fff;opacity:0.9;}.cls-2{fill:#302d7e;}.cls-3{fill:#1d1d1b;}</style></defs><rect class="cls-1" x="127.09" y="24.46" width="1331.01" height="317.39" rx="158.7"/><path class="cls-2" d="M1297.34,109.18a103.27,103.27,0,0,0-147,1.21v-8.83a6.44,6.44,0,0,0-6.44-6.42H1131a6.45,6.45,0,0,0-6.45,6.42v48.19a6.45,6.45,0,0,0,6.45,6.42h45.09a6.44,6.44,0,0,0,6.45-6.42V136.9a6.44,6.44,0,0,0-6.45-6.43h-9.3a77.05,77.05,0,1,1-19.69,51.4,12.89,12.89,0,0,0-25.77,0,102,102,0,0,0,30.19,72.69,102.94,102.94,0,0,0,145.78-145.38Z"/><path class="cls-3" d="M331.77,234.91H317.44V121.09h13.14l60.75,85.66V121.09h14.33V234.91H393l-61.26-87Z"/><path class="cls-3" d="M506.68,195.83c0,23-17.75,40.95-40.27,40.95-23.38,0-39.76-17.06-39.76-41.29,0-24.4,16.38-41.13,40.27-41.13C490.13,154.36,506.68,171.6,506.68,195.83ZM440,195.66c0,17.4,10.75,29.18,26.79,29.18,15.53,0,26.62-12.12,26.62-29.18,0-17.58-10.58-29.35-26.45-29.35C450.71,166.31,440,178.08,440,195.66Z"/><path class="cls-3" d="M587.73,225.18c-8.87,8-17.57,11.6-29,11.6-22.52,0-38.56-17.06-38.56-40.95,0-24.4,16.21-41.47,39.25-41.47,11.26,0,20.47,3.76,28.66,11.78l-8.36,8.36q-9-8.19-20-8.19c-15.53,0-26.28,11.94-26.28,29,0,17.4,10.75,29.52,26.11,29.52,7.67,0,13.82-2.56,20.13-8.53Z"/><path class="cls-3" d="M615.55,167.16c7.16-8.87,14.33-12.8,23.72-12.8,6.82,0,14,2.73,18.25,7.17,4.27,4.27,6.15,10.41,6.15,20.48v52.9h-13V182.69c0-10.75-5.29-16.72-14.68-16.72a20,20,0,0,0-15.35,7c-3.93,4.44-5.12,8.36-5.12,15.87v46.08h-13V121.09h13Z"/><path class="cls-3" d="M702.23,156.24v10.92c6-9,12.63-12.8,22.36-12.8,10.75,0,17.57,4.61,21.16,14.34,5.8-10.07,13.13-14.34,24.91-14.34,9,0,15.87,2.9,20,8.37,3.76,4.94,4.78,9.38,4.78,21.84v50.34h-13V187.64c0-9.56-.34-11.78-2.22-15-2.38-4.09-7.5-6.65-13.65-6.65-11.43,0-17.74,7.68-17.74,21.67v47.27h-13v-47.1c0-7.68-.68-11.6-2.56-15-2.22-4.43-7-6.82-12.8-6.82-11.43,0-18.26,8.19-18.26,21.84v47.1h-13V156.24Z"/><path class="cls-3" d="M880.38,156.24h13v78.67h-13V219.72c-7.85,11.77-16.72,17.06-28.67,17.06-21.67,0-37-17.06-37-40.95,0-24.06,15.7-41.47,37.37-41.47,12,0,20.65,4.61,28.33,14.85Zm-45.56,19.11a35.87,35.87,0,0,0-6.49,20.82c0,16.72,10.93,29.35,25.26,29.35,14.85,0,27-13.82,27-30.71,0-17.07-10.92-28.84-26.62-28.84C845.4,166,839.43,168.87,834.82,175.35Z"/><path class="cls-3" d="M919.46,234.91V121.09h13V234.91Z"/><path class="cls-3" d="M970.31,206.75c-.17-23.89.85-26.62,14.5-37.37,9.56-7.34,12.29-11.77,12.29-19.62,0-10.41-7.17-17.92-16.9-17.92-9.38,0-16.38,6.65-16.38,15.53v2.22H951.37c.17-18.26,11.09-29.7,28.66-29.7s30.38,12.46,30.38,29.53c0,11.26-4.78,19.28-17.07,28.49-9.21,7-10.41,9.39-10.41,20.82,0,.51,0,4.78.18,8ZM986,227.57a8.88,8.88,0,1,1-8.88-9A8.67,8.67,0,0,1,986,227.57Z"/></svg>