<?xml version="1.0" encoding="utf-8"?>
<!-- Generator: Adobe Illustrator 25.2.0, SVG Export Plug-In . SVG Version: 6.00 Build 0)  -->
<svg version="1.1" id="Ebene_1" xmlns="http://www.w3.org/2000/svg" xmlns:xlink="http://www.w3.org/1999/xlink" x="0px" y="0px"
	 viewBox="0 0 1988.4 1020.7" style="enable-background:new 0 0 1988.4 1020.7;" xml:space="preserve">
<style type="text/css">
	.st0{fill-rule:evenodd;clip-rule:evenodd;fill:url(#SVGID_1_);}
	.st1{fill-rule:evenodd;clip-rule:evenodd;fill:url(#SVGID_2_);}
	.st2{fill-rule:evenodd;clip-rule:evenodd;fill:url(#SVGID_3_);}
	.st3{fill:#86BC28;}
</style>
<g>
	
		<radialGradient id="SVGID_1_" cx="1000.1755" cy="-7635.2153" r="769.4757" gradientTransform="matrix(1 0 0 -1 0 -7115.1533)" gradientUnits="userSpaceOnUse">
		<stop  offset="2.000000e-02" style="stop-color:#422944"/>
		<stop  offset="0.99" style="stop-color:#2B1433"/>
	</radialGradient>
	<polygon class="st0" points="26.3,1005.5 26.3,42.5 1974.1,34.6 1971.1,933.5 	"/>
	
		<radialGradient id="SVGID_2_" cx="1000.1755" cy="-7940.5928" r="698.9871" gradientTransform="matrix(1 0 0 -1 0 -7115.1533)" gradientUnits="userSpaceOnUse">
		<stop  offset="0" style="stop-color:#E6DAE3"/>
		<stop  offset="1" style="stop-color:#B7A2BB"/>
	</radialGradient>
	<polygon class="st1" points="26.3,1005.5 26.3,703.6 1974.1,647.4 1971.1,972 	"/>
	
		<linearGradient id="SVGID_3_" gradientUnits="userSpaceOnUse" x1="262.0961" y1="-7939.6235" x2="1715.5602" y2="-7939.6235" gradientTransform="matrix(1 0 0 -1 0 -7115.1533)">
		<stop  offset="0" style="stop-color:#706187"/>
		<stop  offset="1" style="stop-color:#41214B"/>
	</linearGradient>
	<polygon class="st2" points="262.1,797.3 262.1,880.2 1715.6,844.7 1715.6,768.7 	"/>
	<path class="st3" d="M436.7,199.4h47.4v47.4h-47.4V199.4z M436.7,250.7h47.4V298h-47.4V250.7z M436.7,302h47.4v47.4h-47.4V302z
		 M436.7,351.3h47.4v47.4h-47.4V351.3z M436.7,402.6h47.4V450h-47.4V402.6z M488.1,146.1h47.4v47.4h-47.4V146.1z M488.1,451h47.4
		v47.4h-47.4V451z M539.4,146.1h47.4v47.4h-47.4V146.1z M539.4,451h47.4v47.4h-47.4V451z M591.7,146.1H639v47.4h-47.4V146.1z
		 M591.7,451H639v47.4h-47.4V451z M644,193.5h43.4v47.4H641L644,193.5z M644,397.7h43.4v47.4H641L644,397.7z"/>
	<path class="st3" d="M703.2,302h46.4v47.4h-46.4V302z M703.2,351.3h46.4v47.4h-46.4V351.3z M703.2,402.6h46.4V450h-46.4V402.6z
		 M754.5,250.7h47.4V298h-47.4V250.7z M754.5,453h47.4v47.4h-47.4V453z M805.8,250.7h47.4V298h-47.4V250.7z M805.8,453h47.4v47.4
		h-47.4V453z M857.1,250.7h46.4V298h-46.4V250.7z M857.1,402.6h46.4V450h-46.4V402.6z M908.4,302h46.4v47.4h-46.4V302z M908.4,351.3
		h46.4v47.4h-46.4V351.3z M908.4,402.6h46.4V450h-46.4V402.6z M908.4,453h46.4v47.4h-46.4V453z"/>
	<path class="st3" d="M967.6,302h47.4v47.4h-47.4V302z M967.6,453h47.4v47.4h-47.4V453z M1018.9,250.7h54.3V298h-47.4L1018.9,250.7z
		 M1018.9,351.3h54.3v47.4h-47.4L1018.9,351.3z M1018.9,453h54.3v47.4h-47.4L1018.9,453z M1070.2,250.7h47.4V298h-45.4L1070.2,250.7
		z M1070.2,351.3h47.4v47.4h-45.4L1070.2,351.3z M1070.2,453h47.4v47.4h-45.4L1070.2,453z M1121.5,250.7h47.4V298h-47.4V250.7z
		 M1121.5,351.3h47.4v47.4h-47.4V351.3z M1121.5,453h47.4v47.4h-47.4V453z M1172.9,402.6h47.4V450h-47.4V402.6z"/>
	<path class="st3" d="M1233,149h46.4v47.4H1233V149z M1233,199.4h46.4v47.4H1233V199.4z M1233,250.7h46.4V298H1233V250.7z M1233,302
		h46.4v47.4H1233V302z M1233,351.3h46.4v47.4H1233V351.3z M1233,402.6h46.4V450H1233V402.6z M1233,453h46.4v47.4H1233V453z
		 M1283.4,302h46.4v47.4h-47.4L1283.4,302z M1335.7,250.7h46.4V298h-46.4V250.7z M1387,250.7h46.4V298H1387V250.7z M1438.3,302h46.4
		v47.4h-46.4V302z M1438.3,351.3h46.4v47.4h-46.4V351.3z M1438.3,402.6h46.4V450h-46.4V402.6z M1438.3,453h46.4v47.4h-46.4V453z"/>
</g>
</svg>
