<svg id="Ebene_1" data-name="Ebene 1" xmlns="http://www.w3.org/2000/svg" viewBox="0 0 5442.52 3061.42"><defs><style>.cls-1{fill:#c1e1d3;}.cls-2,.cls-5{fill:#302d7e;}.cls-2,.cls-3{opacity:0.7;}.cls-3{fill:#009c83;}.cls-4{fill:#fff;opacity:0.9;}</style></defs><rect class="cls-1" x="-159.74" y="-197.29" width="6349" height="3505"/><path class="cls-2" d="M3204.29,898.52,2668-.29H938.92l996.4,1670c211,353.66,666.14,467.72,1016.55,254.76S3415.3,1252.18,3204.29,898.52Z"/><path class="cls-3" d="M2570.62,542.79H-.43v1495h2571c409,0,740.64-334.67,740.64-747.5h0C3311.26,877.46,2979.66,542.79,2570.62,542.79Z"/><ellipse class="cls-4" cx="2590.4" cy="1288.07" rx="593.39" ry="598.89"/><path class="cls-5" d="M1698.29,1203.32v77.62c0,222.06-64.1,388.06-207.22,534.66-143.11,144.45-324.68,222.06-525.49,222.06-418.69,0-732.68-319.06-732.68-743.79,0-429,311.87-750.26,730.53-750.26,230.72,0,437.93,99.17,576.76,276l-220,174.62c-104.67-125-209.33-178.92-350.3-178.92-250,0-440,207-440,478.6,0,267.33,196.52,476.46,446.45,476.46,121.76,0,243.52-53.9,318.28-144.44,42.71-49.57,64.07-94.87,87.57-181.09H984.82V1203.32Z"/><path class="cls-5" d="M3129.69,785.09c121.76,138,181.57,304,181.57,513.1,0,409.61-324.69,739.47-728.42,739.47-416.55,0-743.38-325.53-743.38-739.47,0-426.89,324.69-754.58,747.64-754.58C2796.46,543.61,2988.69,629.85,3129.69,785.09Zm-991.18,508.78c0,267.33,190.11,472.16,437.92,472.16,245.64,0,437.9-204.83,437.9-465.67,0-278.12-183.71-482.93-435.78-482.93S2138.51,1020.07,2138.51,1293.87Z"/><text/><rect class="cls-4" x="3996.25" y="135.71" width="1331.01" height="317.39" rx="158.7"/></svg>