<?xml version="1.0" encoding="utf-8"?>
<!-- Generator: Adobe Illustrator 25.2.0, SVG Export Plug-In . SVG Version: 6.00 Build 0)  -->
<svg version="1.1" xmlns="http://www.w3.org/2000/svg" xmlns:xlink="http://www.w3.org/1999/xlink" x="0px" y="0px"
	 viewBox="0 0 1920 1080" width="128px" heigh="128px" style="enable-background:new 0 0 1920 1080;" xml:space="preserve">
<style type="text/css">
	.st0{display:none;}
	.st1{display:inline;}
	.st2{fill:#C5D9A2;}
	.st3{fill:#5D8478;}
	.st4{fill:#B4BF95;}
	.st5{fill:#FFD715;}
	.st6{fill:#FFCC01;}
	.st7{fill:#FCBD11;}
	.st8{fill:#FFDB53;}
	.st9{fill:#E69A24;}
	.st10{fill:#FBD6D0;}
	.st11{fill:#BFE0D2;}
	.st12{fill:url(#SVGID_1_);}
	.st13{opacity:0.5;}
	.st14{fill:url(#SVGID_2_);}
</style>
<g id="Ebene_1" class="st0">
	<g class="st1">
		<g>
			<g>
				<g>
					<g>
						
							<rect x="261.1" y="178.1" transform="matrix(0.3415 -0.9399 0.9399 0.3415 48.0381 645.3185)" class="st2" width="447" height="220.6"/>
					</g>
				</g>
				<g>
					<g>
						<path class="st3" d="M653.2,123.4L507,525.7l-191.3-70.9l0.5-1.5l146-400.8L653.2,123.4z M505.1,521.7l144.1-396.5L464.1,56.5
							L319.7,453L505.1,521.7z"/>
					</g>
				</g>
				<g>
					<g>
						<path class="st3" d="M442.5,110.3c0,0,25.7-41.2,81.4-23.4l95.8,36.1c0,0,16.8,6.1,16.5,27.5l-2.7,18.9l17.6-45l-188-69.8
							L442.5,110.3z"/>
					</g>
				</g>
				<g>
					<g>
						<path class="st3" d="M338.1,399.3c0,0-6.7,48.1,47.4,70.2l96.6,33.9c0,0,16.8,6.1,30.3-10.5l10-16.2l-15.4,45.8l-189-67.2
							L338.1,399.3z"/>
					</g>
				</g>
				<g>
					<g>
						
							<ellipse transform="matrix(0.3415 -0.9399 0.9399 0.3415 -93.8521 676.188)" class="st3" cx="435.7" cy="405.1" rx="21.2" ry="22.6"/>
					</g>
				</g>
				<g>
					<g>
						<g>
							
								<rect x="469.6" y="444.4" transform="matrix(0.3415 -0.9399 0.9399 0.3415 -114.7167 742.636)" class="st3" width="6.1" height="17.5"/>
						</g>
					</g>
					<g>
						<g>
							
								<rect x="473" y="435.1" transform="matrix(0.3415 -0.9399 0.9399 0.3415 -103.737 739.6947)" class="st3" width="6.1" height="17.5"/>
						</g>
					</g>
					<g>
						<g>
							
								<rect x="476.4" y="425.8" transform="matrix(0.3415 -0.9399 0.9399 0.3415 -92.7662 736.7362)" class="st3" width="6.1" height="17.5"/>
						</g>
					</g>
					<g>
						<g>
							
								<rect x="479.7" y="416.5" transform="matrix(0.3415 -0.9399 0.9399 0.3415 -81.7911 733.7863)" class="st3" width="6.1" height="17.5"/>
						</g>
					</g>
					<g>
						<g>
							
								<rect x="483.1" y="407.2" transform="matrix(0.3415 -0.9399 0.9399 0.3415 -70.8112 730.8447)" class="st3" width="6.1" height="17.5"/>
						</g>
					</g>
					<g>
						<g>
							
								<rect x="486.5" y="397.9" transform="matrix(0.3415 -0.9399 0.9399 0.3415 -59.8407 727.8865)" class="st3" width="6.1" height="17.5"/>
						</g>
					</g>
					<g>
						<g>
							
								<rect x="489.9" y="388.6" transform="matrix(0.3415 -0.9399 0.9399 0.3415 -48.8606 724.9447)" class="st3" width="6.1" height="17.5"/>
						</g>
					</g>
					<g>
						<g>
							
								<rect x="493.3" y="379.3" transform="matrix(0.3415 -0.9399 0.9399 0.3415 -37.8903 721.9867)" class="st3" width="6.1" height="17.5"/>
						</g>
					</g>
				</g>
				<g>
					<g>
						<g>
							
								<rect x="477.8" y="176.5" transform="matrix(0.3415 -0.9399 0.9399 0.3415 148.1006 569.9619)" class="st3" width="6.1" height="5.5"/>
						</g>
					</g>
					<g>
						<g>
							
								<rect x="481.2" y="167.2" transform="matrix(0.3415 -0.9399 0.9399 0.3415 159.0758 567.012)" class="st3" width="6.1" height="5.5"/>
						</g>
					</g>
					<g>
						<g>
							
								<rect x="484.5" y="157.9" transform="matrix(0.3415 -0.9399 0.9399 0.3415 170.051 564.0621)" class="st3" width="6.1" height="5.5"/>
						</g>
					</g>
					<g>
						<g>
							
								<rect x="487.9" y="148.6" transform="matrix(0.3415 -0.9399 0.9399 0.3415 181.0322 561.1168)" class="st3" width="6.1" height="5.5"/>
						</g>
					</g>
					<g>
						<g>
							
								<rect x="491.3" y="139.3" transform="matrix(0.3415 -0.9399 0.9399 0.3415 192.0013 558.1623)" class="st3" width="6.1" height="5.5"/>
						</g>
					</g>
					<g>
						<g>
							
								<rect x="494.7" y="130" transform="matrix(0.3415 -0.9399 0.9399 0.3415 202.9765 555.2125)" class="st3" width="6.1" height="5.5"/>
						</g>
					</g>
					<g>
						<g>
							
								<rect x="498.1" y="120.7" transform="matrix(0.3415 -0.9399 0.9399 0.3415 213.9517 552.2625)" class="st3" width="6.1" height="5.5"/>
						</g>
					</g>
					<g>
						<g>
							
								<rect x="501.5" y="111.4" transform="matrix(0.3415 -0.9399 0.9399 0.3415 224.9269 549.3126)" class="st3" width="6.1" height="5.5"/>
						</g>
					</g>
				</g>
				<g>
					<g>
						
							<rect x="501.8" y="314.5" transform="matrix(0.3415 -0.9399 0.9399 0.3415 76.3595 748.8847)" class="st3" width="141.7" height="10.9"/>
					</g>
				</g>
				<g>
					<g>
						<g>
							<path class="st3" d="M580.3,323.2c-6.3,17.3-22.2,29.9-44.9,35.4c-22.3,5.4-48.5,3.3-73.8-5.9c-25.3-9.2-46.8-24.4-60.4-42.9
								c-13.8-18.8-18-38.6-11.7-55.9s22.2-29.9,44.9-35.4c22.3-5.4,48.5-3.3,73.8,5.9c25.3,9.2,46.8,24.4,60.4,42.9
								C582.5,286,586.6,305.9,580.3,323.2z M393.9,255.4c-12,33,19.1,74.6,69.3,92.8c50.2,18.2,100.7,6.3,112.7-26.7
								c12-33-19.1-74.6-69.3-92.8C456.5,210.5,405.9,222.5,393.9,255.4z"/>
						</g>
					</g>
					<g>
						<g>
							
								<ellipse transform="matrix(0.3415 -0.9399 0.9399 0.3415 47.9394 646.0981)" class="st4" cx="485.1" cy="288.8" rx="65.9" ry="99.2"/>
						</g>
					</g>
				</g>
			</g>
		</g>
		<g>
			<g>
				<g>
					<circle class="st5" cx="611.5" cy="307.3" r="90.8"/>
				</g>
			</g>
			<g>
				<g>
					
						<ellipse transform="matrix(0.7071 -0.7071 0.7071 0.7071 -38.1642 522.3764)" class="st6" cx="611.5" cy="307.3" rx="77.1" ry="77.1"/>
				</g>
			</g>
			<g>
				<g>
					<path class="st7" d="M651.8,241.5c7.7,12,12.1,26.2,12.1,41.5c0,42.6-34.5,77.1-77.1,77.1c-14.8,0-28.6-4.2-40.3-11.4
						c13.7,21.4,37.7,35.6,64.9,35.6c42.6,0,77.1-34.5,77.1-77.1C688.6,279.4,673.9,255,651.8,241.5z"/>
				</g>
			</g>
			<g>
				<g>
					<path class="st8" d="M547.9,314.3c0-37.6,30.5-68,68-68c22,0,41.5,10.4,53.9,26.6c-11.7-20.4-33.8-34.1-59-34.1
						c-37.6,0-68,30.5-68,68c0,15.6,5.3,30,14.1,41.5C551.2,338.2,547.9,326.7,547.9,314.3z"/>
				</g>
			</g>
			<g>
				<g>
					<g>
						<rect x="573.1" y="292.3" class="st9" width="45.8" height="10.8"/>
					</g>
					<g>
						<rect x="573.1" y="311.4" class="st9" width="45.8" height="10.8"/>
					</g>
				</g>
				<g>
					<path class="st9" d="M633,336.2c-3,1.5-6.6,2.2-10.9,2.2c-8.3,0-14.6-2.3-20.3-8.4c-5.7-6.1-8.6-13.6-8.6-22.4
						c0-9,2.9-16.6,8.6-22.8c5.7-6.2,11.9-8.6,20.2-8.6c3.3,0,6.6,0.6,9.8,1.8l4.9-10.7c-4.9-2.1-8.7-3.1-13.8-3.1
						c-13.3,0-23.4,4.4-31.7,14.7c-6.8,8.4-10.2,18-10.2,28.8c0,12,4.1,22.2,12.2,30.7c8.2,8.4,17.3,11.9,28.8,11.9
						c5.5,0,10.9-1.1,16-3.2l-2.6-12.1C634.6,335.5,633.8,335.9,633,336.2z"/>
				</g>
			</g>
		</g>
		<path class="st10" d="M52.1,520.6c1.8-6,4.2-11.9,7.1-17.5c6.7-12.6,20-16.5,32-23.5c23.5-13.6,47-27.2,70.5-40.8
			c30.2-17.4,60.3-34.9,90.5-52.3c10.5-16.8,21-33.5,31.5-50.3c17.5-28,35-56,52.6-83.9c2.7-4.3,5.3-8.5,8-12.8c1-1.6,1.9-3.3,3-4.8
			c9.2-12.9,30.9-15.4,45-19.6c16.9-5,33.8-10.1,50.8-15.1c4.9-1.5,9.6-3.7,14.7-4.6c4.6-0.9,9,0.1,13.6,0.4
			c8.3,0.5,16.6,1.5,24.9,2.3c18.4,1.8,36.9,3.5,55.1,6.7c3.2,0.6,6.6,1.1,9.7,2.2c14.9,5.2-9.4,33.4-37.8,33
			c-28.3-0.4-59.4-7.9-84.5,4.7c-25.2,12.6-54.6,27-54.6,27c25.9-5.8,51.7-11.5,77.6-17.3c4.1-0.9,8.3-1.8,12.4-2.8
			c13.5-3,27.5-2.8,41.4-3c19.2-0.3,38.3-0.3,57.5,0.4c43.2,1.5,42.1,16.3,17.8,26.1c-24.2,9.7-103.3,17.1-104.4,17.2
			c-9.2,0.9-15.5,7-23.5,10.6c-8.4,3.8-16.8,7.6-25.3,11.4c-9.8,4.4-20.6,11.4-31.1,14c0,0,118.6-29,118.6-29s73.7-16.5,85.4-1.6
			c11.6,14.9-91.4,45-91.4,45S433,375.8,433,375.8c0.9-0.4,2.1-0.4,3.1-0.6c33.2-6.4,65.9-12.4,98.2-22.2c7.3-2.2,14.5-4.4,21.8-6.6
			c0,0,22.4-6.2,15.3,9.3c-7.1,15.6-50.3,38.7-60.7,44.9c-10.5,6.2-61.7,22.4-79.3,37.5c-17.5,15.1-68,68-99.5,68.6
			s-31.5,0.7-31.5,0.7c-37.6,31.8-72.3,67-111.8,96.5c-15.4,11.5-35.2,32.8-55.8,32.4c-22.8-0.4-50.3-22.1-64.6-38.1
			C49.1,577.1,44.1,547.8,52.1,520.6z"/>
	</g>
</g>
<g id="Ebene_2" class="st0">
	<g class="st1">
		<g>
			<circle class="st11" cx="982.7" cy="630.2" r="102.7"/>
			<g>
				<radialGradient id="SVGID_1_" cx="982.2987" cy="630.1638" r="104.2622" gradientUnits="userSpaceOnUse">
					<stop  offset="0.5774" style="stop-color:#BFE0D2"/>
					<stop  offset="0.6432" style="stop-color:#BBDFD0;stop-opacity:0.9049"/>
					<stop  offset="0.7047" style="stop-color:#B0DBCC;stop-opacity:0.8162"/>
					<stop  offset="0.7644" style="stop-color:#9DD4C4;stop-opacity:0.73"/>
					<stop  offset="0.8231" style="stop-color:#83CAB9;stop-opacity:0.6453"/>
					<stop  offset="0.881" style="stop-color:#60BEAB;stop-opacity:0.5617"/>
					<stop  offset="0.9383" style="stop-color:#36AF9A;stop-opacity:0.479"/>
					<stop  offset="0.9942" style="stop-color:#059E86;stop-opacity:0.3983"/>
					<stop  offset="1" style="stop-color:#009C84;stop-opacity:0.39"/>
				</radialGradient>
				<circle class="st12" cx="982.3" cy="630.2" r="104.3"/>
				<g class="st13">
					
						<image style="overflow:visible;" width="267" height="123" xlink:href="9CCE8C31.png"  transform="matrix(1.0639 0 0 1.0639 840.6719 564.0655)">
					</image>
				</g>
			</g>
		</g>
		<path class="st10" d="M446.2,865.5c1.8-6,4.2-11.9,7.1-17.5c6.7-12.6,20-16.5,32-23.5c23.5-13.6,47-27.2,70.5-40.8
			c30.2-17.4,60.3-34.9,90.5-52.3c10.5-16.8,21-33.5,31.5-50.3c17.5-28,35-56,52.6-83.9c2.7-4.3,5.3-8.5,8-12.8c1-1.6,1.9-3.3,3-4.8
			c9.2-12.9,30.9-15.4,45-19.6c16.9-5,33.8-10.1,50.8-15.1c4.9-1.5,9.6-3.7,14.7-4.6c4.6-0.9,9,0.1,13.6,0.4
			c8.3,0.5,16.6,1.5,24.9,2.3c18.4,1.8,36.9,3.5,55.1,6.7c3.2,0.6,6.6,1.1,9.7,2.2c14.9,5.2-9.4,33.4-37.8,33
			c-28.3-0.4-59.4-7.9-84.5,4.7c-25.2,12.6-54.6,27-54.6,27c25.9-5.8,51.7-11.5,77.6-17.3c4.1-0.9,8.3-1.8,12.4-2.8
			c13.5-3,27.5-2.8,41.4-3c19.2-0.3,38.3-0.3,57.5,0.4c43.2,1.5,42.1,16.3,17.8,26.1c-24.2,9.7-103.3,17.1-104.4,17.2
			c-9.2,0.9-15.5,7-23.5,10.6c-8.4,3.8-16.8,7.6-25.3,11.4c-9.8,4.4-20.6,11.4-31.1,14c0,0,118.6-29,118.6-29s73.7-16.5,85.4-1.6
			c11.6,14.9-91.4,45-91.4,45s-86.2,33.1-86.2,33.1c0.9-0.4,2.1-0.4,3.1-0.6c33.2-6.4,65.9-12.4,98.2-22.2
			c7.3-2.2,14.5-4.4,21.8-6.6c0,0,22.4-6.2,15.3,9.3c-7.1,15.6-50.3,38.7-60.7,44.9c-10.5,6.2-61.7,22.4-79.3,37.5
			c-17.5,15.1-68,68-99.5,68.6s-31.5,0.7-31.5,0.7c-37.6,31.8-72.3,67-111.8,96.5c-15.4,11.5-35.2,32.8-55.8,32.4
			c-22.8-0.4-50.3-22.1-64.6-38.1C443.2,921.9,438.2,892.7,446.2,865.5z"/>
	</g>
	<g class="st1">
		<g>
			<circle class="st11" cx="1111.9" cy="359.5" r="102.7"/>
			<g>
				<radialGradient id="SVGID_2_" cx="1111.5081" cy="359.4659" r="104.2622" gradientUnits="userSpaceOnUse">
					<stop  offset="0.5774" style="stop-color:#BFE0D2"/>
					<stop  offset="0.6432" style="stop-color:#BBDFD0;stop-opacity:0.9049"/>
					<stop  offset="0.7047" style="stop-color:#B0DBCC;stop-opacity:0.8162"/>
					<stop  offset="0.7644" style="stop-color:#9DD4C4;stop-opacity:0.73"/>
					<stop  offset="0.8231" style="stop-color:#83CAB9;stop-opacity:0.6453"/>
					<stop  offset="0.881" style="stop-color:#60BEAB;stop-opacity:0.5617"/>
					<stop  offset="0.9383" style="stop-color:#36AF9A;stop-opacity:0.479"/>
					<stop  offset="0.9942" style="stop-color:#059E86;stop-opacity:0.3983"/>
					<stop  offset="1" style="stop-color:#009C84;stop-opacity:0.39"/>
				</radialGradient>
				<circle class="st14" cx="1111.5" cy="359.5" r="104.3"/>
				<g class="st13">
					
						<image style="overflow:visible;" width="267" height="123" xlink:href="9CCE8C33.png"  transform="matrix(1.0639 0 0 1.0639 969.8812 293.3676)">
					</image>
				</g>
			</g>
		</g>
		<path class="st10" d="M1720.4,471c-4.3-5.2-9-10-14.2-14.2c-11.8-9.7-26.5-8-41.3-9.9c-28.8-3.7-57.6-7.3-86.3-11
			c-36.9-4.7-73.8-9.4-110.7-14.1c-17.3-12.2-34.5-24.3-51.8-36.5c-28.8-20.3-57.6-40.6-86.5-60.9c-16.4-11.6-26.6-19.1-47.5-16.6
			c-27.9,3.3-58.8,6.8-86.6,10.1c-9.5,1.1-19.9,3.4-25.2,12.2c-0.6,1-1.1,2-1.7,3c-3.7,6.2-10,11-15,16.1
			c-5.1,5.1-10.3,10.2-15.4,15.3c-4.3,4.3-10,7.6-12.8,13c-6,11.3,11.3,25,31.8,18.6c18.6-5.8,40.8-31.6,45.3-32
			c4.4-0.4,24.1-2.5,30.7-2.7c27.4-1.1,36.7,6,57.4,11.1c-18.7,3.4-37.9,0-56.3,1c-9.6,0.5-51.4,4.7-55.7,15.1
			c-7.3,17.7,7.3,30.4,23.7,34.4c13,3.2,27,1.4,40.2,2.4c14.1,1,30.2,4.3,44.3,3c-23.3,2.1-46,3.5-69.5,3.9
			c-6.3,0.1-12.8,0.3-18.5,2.9c-5.4,2.5-9.8,7.4-11,13.3c-1.5,7.8,2.8,15.7,8.5,21.2c11.1,10.8,27.7,11.8,43.2,12.9
			c14.4,1.1,28.8,3.4,43.3,3.6c-13.2,6.9-31.5,1.9-45.6,1c-4.3-0.3-8.8-0.2-12.4,2c-14.8,9.4,4.1,31.7,12.9,37.6
			c22.3,14.9,50.6,11.8,75.2,19.7c23.5,7.6,95.1,38.8,126.3,26.5s31.3-12.3,31.3-12.3c50.2,15.8,98.9,36.1,150,48.9
			c19.9,5,48.2,17.7,68.3,8.9c22.3-9.8,40.4-42.5,47.9-64.2C1746.7,525.3,1739.5,494.4,1720.4,471z"/>
	</g>
</g>
<g id="Ebene_3">
	<path class="st10" d="M1042.4,814.9"/>
	<g>
		<path class="st10" d="M1266.5,466.3c31.8,23.5,70.4,34.8,103.7,53.6c17.3,9.8,91.3,56,89.7,79.4c-2.6,39.6-41.6,49.8-75.7,42.2
			c-27-6-51.5-22.2-76.9-32.6c-27.2-11.2-60.1-19.8-85.1-35.2c41.4,25.3,82.4,48.8,125.7,71.3c11.6,6,23.5,12.3,31.7,22.5
			c7.7,9.7,11.5,22.9,8.2,34.8c-4.3,15.9-19.7,26.5-35.4,31.6c-30.7,9.9-62.3-3.6-92.3-15.7c-27.9-11.3-56.7-20.3-83.8-33.2
			c18.2,25,56.7,32.6,83.8,43.9c8.2,3.4,16.7,7.7,21.3,15.3c18.8,31-36.7,55.2-58.7,58.1c-55.2,7.2-104.9-24.7-158.1-32.5
			c-50.7-7.5-212.6-15.3-259.4-67.1c-46.8-51.7-46.8-51.7-46.8-51.7c-107.8-16.9-217.1-24-323.9-47.1c-41.6-9-106-11.5-135.3-46.4
			c-32.5-38.8-35.9-116.3-30-163.5c7.9-63.1,49.7-114,107-139.9c12.7-5.8,26-10.3,39.6-13.4c30.9-7.1,56.6,9.5,85.8,19.6
			c56.9,19.7,113.8,39.3,170.7,59c73,25.2,145.9,50.5,218.9,75.7c43.3-6.7,86.6-13.5,129.9-20.2c72.3-11.2,144.6-22.5,216.9-33.7
			c40.5-6.3,66.2-10.7,101.8,11.7L1266.5,466.3z"/>
		<path class="st10" d="M1435.7,529.7c-34.7-23-48.6-30.3-54.7-33.4c0,0-20.6-10.5-42.3-18.2c-35.2-12.5-78.7-18-81.8-18.3
			c6.2-16.9,16.9-40.1,35.3-64.1c15.7-20.5,32.1-35.2,45.2-45.2c0.6,0.4,1.2,0.7,1.8,1.1c48.8,31.7,103,66.8,151.8,98.5
			c10.8,7,17.7,14.7,23.2,23.2l0.2-0.3c7.8,3,15.1,7,23.3,11.3c33.7,17.5,35.1,34.6,77.3,59.9c11.4,6.9,17.7,12.1,30.6,22.3
			c14.5,11.4,15.6,13.6,15.8,15.8c1,14.4-37.3,35.7-74.8,32.8c-14.2-1.1-24.5-5.4-37.7-11c-28.2-12-48.4-27.3-60.8-38.1
			C1467.1,550.9,1449.2,538.7,1435.7,529.7z"/>
	</g>
</g>
</svg>
