<?xml version="1.0" encoding="utf-8"?>
<!-- Generator: Adobe Illustrator 25.2.0, SVG Export Plug-In . SVG Version: 6.00 Build 0)  -->
<svg version="1.1" id="Ebene_1" xmlns="http://www.w3.org/2000/svg" xmlns:xlink="http://www.w3.org/1999/xlink" x="0px" y="0px"
	 viewBox="0 0 416.7 836.9" style="enable-background:new 0 0 416.7 836.9;" xml:space="preserve">
<style type="text/css">
	.st0{display:none;}
	.st1{display:inline;}
	.st2{fill:#B1B1B1;}
	.st3{fill:#00A585;}
	.st4{fill:#9E9E9E;}
	.st5{fill:#A30000;}
	.st6{fill:#8E8E8E;}
	.st7{display:inline;fill:url(#SVGID_1_);}
	.st8{fill:url(#SVGID_2_);}
	.st9{fill:url(#SVGID_3_);}
	.st10{fill:url(#SVGID_4_);}
	.st11{fill:#4D4D4D;}
	.st12{fill:#333333;}
	.st13{fill:url(#SVGID_5_);}
	.st14{display:inline;fill:url(#SVGID_6_);}
	.st15{display:inline;fill:url(#SVGID_7_);}
	.st16{fill:#009C84;}
	.st17{fill:url(#SVGID_8_);}
	.st18{display:inline;fill:url(#SVGID_9_);}
	.st19{fill:url(#SVGID_10_);}
	.st20{fill:url(#SVGID_11_);}
	.st21{fill:url(#SVGID_12_);}
	.st22{fill:url(#SVGID_13_);}
	.st23{display:inline;fill:url(#SVGID_14_);}
	.st24{display:inline;fill:url(#SVGID_15_);}
	.st25{fill:url(#SVGID_16_);}
	.st26{display:inline;fill:url(#SVGID_17_);}
	.st27{fill:url(#SVGID_18_);}
	.st28{fill:url(#SVGID_19_);}
	.st29{fill:url(#SVGID_20_);}
	.st30{fill:url(#SVGID_21_);}
	.st31{display:inline;fill:url(#SVGID_22_);}
	.st32{display:inline;fill:url(#SVGID_23_);}
	.st33{fill:url(#SVGID_24_);}
	.st34{fill:url(#SVGID_25_);}
	.st35{fill:url(#SVGID_26_);}
	.st36{fill:url(#SVGID_27_);}
	.st37{fill:url(#SVGID_28_);}
	.st38{display:inline;fill:url(#SVGID_29_);}
	.st39{fill:url(#SVGID_30_);}
	.st40{fill:url(#SVGID_31_);}
	.st41{fill:url(#SVGID_32_);}
</style>
<g id="Ebene_1_1_" class="st0">
	<g class="st1">
		<path class="st2" d="M-167.6,592.7h-43c-6.6,0-12-5.4-12-12v-374c0-6.6,5.4-12,12-12h43c6.6,0,12,5.4,12,12v374
			C-155.6,587.3-161,592.7-167.6,592.7z"/>
		<ellipse class="st3" cx="-219.5" cy="388.8" rx="11.9" ry="190.9"/>
		<ellipse class="st3" cx="-158.7" cy="389.5" rx="11.9" ry="190.9"/>
		<ellipse class="st4" cx="-188.6" cy="584.2" rx="50" ry="20.5"/>
		<path d="M-189.7,207L-189.7,207c-1.8,0-3.2-1.5-3.2-3.2v-6.5c0-1.8,1.5-3.2,3.2-3.2l0,0c1.8,0,3.2,1.5,3.2,3.2v6.5
			C-186.5,205.5-187.9,207-189.7,207z"/>
	</g>
	<g class="st1">
		<path class="st2" d="M103.3,592.7h-43c-6.6,0-12-5.4-12-12v-374c0-6.6,5.4-12,12-12h43c6.6,0,12,5.4,12,12v374
			C115.3,587.3,109.9,592.7,103.3,592.7z"/>
		<ellipse class="st5" cx="51.4" cy="388.8" rx="11.9" ry="190.9"/>
		<ellipse class="st5" cx="112.2" cy="389.5" rx="11.9" ry="190.9"/>
		<ellipse class="st4" cx="82.3" cy="584.2" rx="50" ry="20.5"/>
		<path d="M81.2,207L81.2,207c-1.8,0-3.2-1.5-3.2-3.2v-6.5c0-1.8,1.5-3.2,3.2-3.2l0,0c1.8,0,3.2,1.5,3.2,3.2v6.5
			C84.4,205.5,83,207,81.2,207z"/>
	</g>
	<g class="st1">
		<path class="st2" d="M370.1,596.7h-43c-6.6,0-12-5.4-12-12v-374c0-6.6,5.4-12,12-12h43c6.6,0,12,5.4,12,12v374
			C382.1,591.3,376.7,596.7,370.1,596.7z"/>
		<ellipse class="st6" cx="318.3" cy="392.8" rx="11.9" ry="190.9"/>
		<ellipse class="st6" cx="379" cy="393.5" rx="11.9" ry="190.9"/>
		<ellipse class="st4" cx="349.1" cy="588.2" rx="50" ry="20.5"/>
		<path d="M348,211L348,211c-1.8,0-3.2-1.5-3.2-3.2v-6.5c0-1.8,1.5-3.2,3.2-3.2l0,0c1.8,0,3.2,1.5,3.2,3.2v6.5
			C351.3,209.5,349.8,211,348,211z"/>
	</g>
</g>
<g id="Ebene_2_1_" class="st0">
	
		<radialGradient id="SVGID_1_" cx="756.4354" cy="33.8085" r="99.4312" gradientTransform="matrix(1 0 0 -0.4757 0 747.702)" gradientUnits="userSpaceOnUse">
		<stop  offset="0" style="stop-color:#000000"/>
		<stop  offset="0.9923" style="stop-color:#808080"/>
	</radialGradient>
	<ellipse class="st7" cx="759.5" cy="759.2" rx="118.8" ry="48.7"/>
	<g class="st1">
		
			<radialGradient id="SVGID_2_" cx="728.5532" cy="363.7866" r="136.103" gradientTransform="matrix(1 0 0 -2.5805 0 1340.4047)" gradientUnits="userSpaceOnUse">
			<stop  offset="0.6774" style="stop-color:#666666"/>
			<stop  offset="0.8303" style="stop-color:#686868"/>
			<stop  offset="0.8854" style="stop-color:#6F6F6F"/>
			<stop  offset="0.9247" style="stop-color:#7A7A7A"/>
			<stop  offset="0.9564" style="stop-color:#8B8B8B"/>
			<stop  offset="0.9833" style="stop-color:#A1A1A1"/>
			<stop  offset="1" style="stop-color:#B3B3B3"/>
		</radialGradient>
		<ellipse class="st8" cx="728.6" cy="401.7" rx="137.7" ry="351.9"/>
		
			<radialGradient id="SVGID_3_" cx="760.6833" cy="361.4763" r="135.5599" fx="730.2736" fy="361.1411" gradientTransform="matrix(1 0 0 -2.6531 0 1363.0139)" gradientUnits="userSpaceOnUse">
			<stop  offset="3.895119e-03" style="stop-color:#000000"/>
			<stop  offset="0.1441" style="stop-color:#060606"/>
			<stop  offset="0.3397" style="stop-color:#191919"/>
			<stop  offset="0.5678" style="stop-color:#363636"/>
			<stop  offset="0.8185" style="stop-color:#5F5F5F"/>
			<stop  offset="0.9923" style="stop-color:#808080"/>
		</radialGradient>
		<path class="st9" d="M883.7,401.7c-0.7,27.3-9.2,322.8-73.6,348.4c-23.3,9.3-48,9.2-48,9.2s-23.8-0.1-46.9-9.1
			c-36.4-14.1-107.5-130-106.8-348.5c0.5-181.7,50.3-335.5,106-350c37.8-9.9,76.1-1.9,76.1-1.9s19.2,4,35.4,11.8
			C890,92.2,885.3,338.5,883.7,401.7z"/>
		
			<radialGradient id="SVGID_4_" cx="790.4432" cy="363.7904" r="138.1042" fx="784.5876" fy="364.0818" gradientTransform="matrix(1 0 0 -2.5411 0 1326.0812)" gradientUnits="userSpaceOnUse">
			<stop  offset="0" style="stop-color:#666666"/>
			<stop  offset="0.2003" style="stop-color:#6C6C6C"/>
			<stop  offset="0.4605" style="stop-color:#7C7C7C"/>
			<stop  offset="0.7525" style="stop-color:#979797"/>
			<stop  offset="1" style="stop-color:#B3B3B3"/>
		</radialGradient>
		<ellipse class="st10" cx="790.4" cy="401.7" rx="137.7" ry="351.9"/>
	</g>
</g>
<g id="Ebene_3" class="st0">
	<g class="st1">
		<path class="st11" d="M809,52.9c-6.9-2.3-13.2-3.1-18.9-3c-57.8,0.9-93.5,93.6-95.5,99c-5.7,6.2-14.2,15.1-25,25.1
			c-13.6,12.5-20.5,18.9-27.6,20.4c-16.8,3.7-31.7-5-41.9-11.2c-6.1-3.7-15.1-9.3-14.4-15.2c0.6-5.1,8.3-7.9,14.9-10.4
			c11.3-4.3,27-10.7,46.7-20c4.9-17.3,15.7-45.2,40.8-68.8c6.4-6,12.9-10.9,19.1-14.9c8.8-2.7,19-5.1,30.3-6.5
			C767.1,43.8,792.1,48.2,809,52.9z"/>
		<path class="st12" d="M588.1,162.7c10.2-3.7,20.8-7.9,31.7-12.5c9.6-4.1,18.8-8.3,27.5-12.5c-5.2,3.3-13.4,8.2-23.8,13.8
			c-16.5,8.9-23.9,11.4-24,15.8c-0.1,6,12.9,10.9,21.2,13.5c-1,0.2-19.1,3.1-28.3-8.7C589.9,169,588.7,165.6,588.1,162.7z"/>
		
			<linearGradient id="SVGID_5_" gradientUnits="userSpaceOnUse" x1="585.7473" y1="598.9725" x2="694.6232" y2="598.9725" gradientTransform="matrix(1 0 0 -1 0 765.4468)">
			<stop  offset="6.900000e-02" style="stop-color:#808080"/>
			<stop  offset="0.2245" style="stop-color:#707070"/>
			<stop  offset="0.4783" style="stop-color:#5D5D5D"/>
			<stop  offset="0.7357" style="stop-color:#515151"/>
			<stop  offset="1" style="stop-color:#4D4D4D"/>
		</linearGradient>
		<path class="st13" d="M647.3,137.7c-11.1,5.2-22.7,10.4-34.9,15.4c-8.6,3.6-17.1,6.9-25.3,10c-1,2.5-2,6.4-0.7,10.4
			c0.7,2.2,2.4,5.3,17.4,12.8c10.4,5.2,15.8,7.8,23.5,8.7c5.2,0.6,9.6,0.2,12.5-0.1c0,0,1.1-0.1,2.3-0.4
			c19.2-3.5,41.2-30.2,52.6-45.5c-5.1,5.9-13.3,14.1-25,21.5c-9.4,5.9-16.7,10.5-27.6,11.9c-10.8,1.4-19.8-2.3-37.8-9.4
			c-12.9-5.1-14.7-7.6-14.6-9.2c0.2-1.7,2.6-2.8,11-6.1c9.9-4,14.9-5.9,15.7-6.2C622.5,149.1,632.1,145,647.3,137.7z"/>
	</g>
</g>
<g id="Ebene_4" class="st0">
	
		<radialGradient id="SVGID_6_" cx="692.5811" cy="668.4267" r="16.2318" gradientTransform="matrix(0.7714 0.6364 0.9832 -1.1918 -498.8795 452.9601)" gradientUnits="userSpaceOnUse">
		<stop  offset="0.4934" style="stop-color:#000000"/>
		<stop  offset="0.6922" style="stop-color:#060606"/>
		<stop  offset="0.9519" style="stop-color:#161616"/>
		<stop  offset="1" style="stop-color:#1A1A1A"/>
	</radialGradient>
	<path class="st14" d="M675.8,116.3c7,6.1,20.2,2.4,29.5-8.2s11-24.2,4-30.3s-20.2-2.4-29.5,8.2C670.6,96.6,668.8,110.2,675.8,116.3
		z"/>
	
		<radialGradient id="SVGID_7_" cx="692.5811" cy="668.4267" r="19.063" gradientTransform="matrix(0.6806 -0.7327 -0.5135 -0.477 564.4573 923.255)" gradientUnits="userSpaceOnUse">
		<stop  offset="0.1164" style="stop-color:#000000"/>
		<stop  offset="0.2931" style="stop-color:#060606"/>
		<stop  offset="0.5242" style="stop-color:#161616"/>
		<stop  offset="0.7845" style="stop-color:#313131"/>
		<stop  offset="1" style="stop-color:#4D4D4D"/>
	</radialGradient>
	<path class="st15" d="M679.7,111.8c5.4,4.7,15.5,1.9,22.6-6.3s8.5-18.6,3.1-23.3c-5.4-4.7-15.5-1.9-22.6,6.3
		C675.7,96.7,674.3,107.1,679.7,111.8z"/>
	<g class="st1">
		<path class="st16" d="M680.7,110.8c5.9,3.6,15.8-1.1,20.9-7.5c4.2-5.3,7.3-14.7,3-20c-2.5-3.1-6.5-3.6-7.6-3.7
			c-6.4-0.8-11.3,3.3-13.1,4.9c-5.2,4.4-10.1,12.9-7.4,20.6C676.9,106.2,677.9,109.1,680.7,110.8z"/>
		
			<radialGradient id="SVGID_8_" cx="688.4805" cy="672.0763" r="22.9958" fx="688.6718" fy="651.9612" gradientTransform="matrix(0.6652 -0.7467 -0.3277 -0.2919 450.7689 803.6009)" gradientUnits="userSpaceOnUse">
			<stop  offset="3.840000e-02" style="stop-color:#B1B1B1"/>
			<stop  offset="0.1648" style="stop-color:#A1AFAD"/>
			<stop  offset="0.4117" style="stop-color:#77AAA2"/>
			<stop  offset="0.7514" style="stop-color:#35A291"/>
			<stop  offset="1" style="stop-color:#009C84"/>
		</radialGradient>
		<path class="st17" d="M696.2,99.1c6.5-7.9,5-17.1,4.8-18.5c-1.1-0.5-2.8-1-4.9-1.2c-0.7,0-2.7-0.1-5.2,0.6c-3.2,1-5.3,2.8-7,4.3
			c-1.9,1.7-5.2,4.6-7,9.6c-0.6,1.8-1.7,4.7-1.1,8.4c0.3,2.1,1.1,3.8,1.6,4.9C678.6,107.3,689.1,107.7,696.2,99.1z"/>
	</g>
</g>
<g id="Ebene_5" class="st0">
	<path class="st1" d="M692.7,138.8c-4.2,3.9-11.9,1.4-20.9-1.5c-6.9-2.2-15-4.9-15.1-8.7c0-1.7,1.7-3.4,3.3-4.1
		c3.6-1.4,6.7,2,12.3,4.6c11.4,5.3,21.3,1.3,22.5,5.1C695.4,136.2,692.9,138.6,692.7,138.8z"/>
</g>
<g id="Ebene_6" class="st0">
	
		<radialGradient id="SVGID_9_" cx="764.9372" cy="42.0714" r="99.4312" gradientTransform="matrix(1 0 0 -0.4757 0 743.3699)" gradientUnits="userSpaceOnUse">
		<stop  offset="0" style="stop-color:#000000"/>
		<stop  offset="0.9923" style="stop-color:#808080"/>
	</radialGradient>
	<ellipse class="st18" cx="768" cy="751" rx="118.8" ry="48.7"/>
	<g class="st1">
		
			<radialGradient id="SVGID_10_" cx="737.0532" cy="372.0485" r="136.1044" gradientTransform="matrix(1 0 0 -2.5805 0 1353.4645)" gradientUnits="userSpaceOnUse">
			<stop  offset="0" style="stop-color:#BFE0D2"/>
			<stop  offset="0.1054" style="stop-color:#B7DDCF"/>
			<stop  offset="0.2666" style="stop-color:#A2D6C6"/>
			<stop  offset="0.4635" style="stop-color:#7FC9B8"/>
			<stop  offset="0.6884" style="stop-color:#4FB8A4"/>
			<stop  offset="0.9341" style="stop-color:#12A28B"/>
			<stop  offset="1" style="stop-color:#009C84"/>
		</radialGradient>
		<ellipse class="st19" cx="737.1" cy="393.4" rx="137.7" ry="351.9"/>
		
			<radialGradient id="SVGID_11_" cx="769.1851" cy="369.7393" r="135.5599" fx="738.7755" fy="369.4041" gradientTransform="matrix(1 0 0 -2.6531 0 1376.6732)" gradientUnits="userSpaceOnUse">
			<stop  offset="3.895119e-03" style="stop-color:#000000"/>
			<stop  offset="0.1441" style="stop-color:#060606"/>
			<stop  offset="0.3397" style="stop-color:#191919"/>
			<stop  offset="0.5678" style="stop-color:#363636"/>
			<stop  offset="0.8185" style="stop-color:#5F5F5F"/>
			<stop  offset="0.9923" style="stop-color:#808080"/>
		</radialGradient>
		<path class="st20" d="M892.2,393.4c-0.7,27.3-9.2,322.8-73.6,348.4c-23.3,9.3-48,9.2-48,9.2s-23.8-0.1-46.9-9.1
			c-36.4-14.1-107.5-130-106.8-348.5c0.5-181.7,50.3-335.5,106-350c37.8-9.9,76.1-1.9,76.1-1.9s19.2,4,35.4,11.8
			C898.5,83.9,893.8,330.2,892.2,393.4z"/>
		
			<radialGradient id="SVGID_12_" cx="798.9432" cy="372.0522" r="138.1042" fx="793.1978" fy="377.9543" gradientTransform="matrix(1 0 0 -2.5411 0 1338.8153)" gradientUnits="userSpaceOnUse">
			<stop  offset="0" style="stop-color:#BFE0D2"/>
			<stop  offset="0.1054" style="stop-color:#B7DDCF"/>
			<stop  offset="0.2666" style="stop-color:#A2D6C6"/>
			<stop  offset="0.4635" style="stop-color:#7FC9B8"/>
			<stop  offset="0.6884" style="stop-color:#4FB8A4"/>
			<stop  offset="0.9341" style="stop-color:#12A28B"/>
			<stop  offset="1" style="stop-color:#009C84"/>
		</radialGradient>
		<ellipse class="st21" cx="798.9" cy="393.4" rx="137.7" ry="351.9"/>
	</g>
	<g class="st1">
		<path class="st11" d="M817.5,44.7c-6.9-2.3-13.2-3.1-18.9-3c-57.8,0.9-93.5,93.6-95.5,99c-5.7,6.2-14.2,15.1-25,25.1
			c-13.6,12.5-20.5,18.9-27.6,20.4c-16.8,3.7-31.7-5-41.9-11.2c-6.1-3.7-15.1-9.3-14.4-15.2c0.6-5.1,8.3-7.9,14.9-10.4
			c11.3-4.3,27-10.7,46.7-20c4.9-17.3,15.7-45.2,40.8-68.8c6.4-6,12.9-10.9,19.1-14.9c8.8-2.7,19-5.1,30.3-6.5
			C775.6,35.6,800.6,40,817.5,44.7z"/>
		<path class="st12" d="M596.6,154.4c10.2-3.7,20.8-7.9,31.7-12.5c9.6-4.1,18.8-8.3,27.5-12.5c-5.2,3.3-13.4,8.2-23.8,13.8
			c-16.5,8.9-23.9,11.4-24,15.8c-0.1,6,12.9,10.9,21.2,13.5c-1,0.2-19.1,3.1-28.3-8.7C598.4,160.8,597.2,157.4,596.6,154.4z"/>
		
			<linearGradient id="SVGID_13_" gradientUnits="userSpaceOnUse" x1="594.2473" y1="607.2325" x2="703.1232" y2="607.2325" gradientTransform="matrix(1 0 0 -1 0 765.4468)">
			<stop  offset="6.900000e-02" style="stop-color:#808080"/>
			<stop  offset="0.2245" style="stop-color:#707070"/>
			<stop  offset="0.4783" style="stop-color:#5D5D5D"/>
			<stop  offset="0.7357" style="stop-color:#515151"/>
			<stop  offset="1" style="stop-color:#4D4D4D"/>
		</linearGradient>
		<path class="st22" d="M655.8,129.4c-11.1,5.2-22.7,10.4-34.9,15.4c-8.6,3.6-17.1,6.9-25.3,10c-1,2.5-2,6.4-0.7,10.4
			c0.7,2.2,2.4,5.3,17.4,12.8c10.4,5.2,15.8,7.8,23.5,8.7c5.2,0.6,9.6,0.2,12.5-0.1c0,0,1.1-0.1,2.3-0.4
			c19.2-3.5,41.2-30.2,52.6-45.5c-5.1,5.9-13.3,14.1-25,21.5c-9.4,5.9-16.7,10.5-27.6,11.9c-10.8,1.4-19.8-2.3-37.8-9.4
			c-12.9-5.1-14.7-7.6-14.6-9.2c0.2-1.7,2.6-2.8,11-6.1c9.9-4,14.9-5.9,15.7-6.2C631,140.8,640.6,136.7,655.8,129.4z"/>
	</g>
	
		<radialGradient id="SVGID_14_" cx="701.0831" cy="676.6897" r="16.2318" gradientTransform="matrix(0.7714 0.6364 0.9832 -1.1918 -505.0598 449.1346)" gradientUnits="userSpaceOnUse">
		<stop  offset="0.4934" style="stop-color:#000000"/>
		<stop  offset="0.6922" style="stop-color:#060606"/>
		<stop  offset="0.9519" style="stop-color:#161616"/>
		<stop  offset="1" style="stop-color:#1A1A1A"/>
	</radialGradient>
	<path class="st23" d="M684.4,108c7,6.1,20.2,2.4,29.5-8.2s11-24.2,4-30.3s-20.2-2.4-29.5,8.2S677.3,101.9,684.4,108z"/>
	
		<radialGradient id="SVGID_15_" cx="701.0831" cy="676.6897" r="19.063" gradientTransform="matrix(0.6806 -0.7327 -0.5135 -0.477 571.4156 925.1624)" gradientUnits="userSpaceOnUse">
		<stop  offset="0.1164" style="stop-color:#000000"/>
		<stop  offset="0.2931" style="stop-color:#060606"/>
		<stop  offset="0.5242" style="stop-color:#161616"/>
		<stop  offset="0.7845" style="stop-color:#313131"/>
		<stop  offset="1" style="stop-color:#4D4D4D"/>
	</radialGradient>
	<path class="st24" d="M688.2,103.6c5.4,4.7,15.5,1.9,22.6-6.3s8.5-18.6,3.1-23.3c-5.4-4.7-15.5-1.9-22.6,6.3
		C684.2,88.5,682.8,98.9,688.2,103.6z"/>
	<g class="st1">
		<path class="st16" d="M689.2,102.5c5.9,3.6,15.8-1.1,20.9-7.5c4.2-5.3,7.3-14.7,3-20c-2.5-3.1-6.5-3.6-7.6-3.7
			c-6.4-0.8-11.3,3.3-13.1,4.9c-5.2,4.4-10.1,12.9-7.4,20.6C685.4,98,686.4,100.8,689.2,102.5z"/>
		
			<radialGradient id="SVGID_16_" cx="696.9863" cy="680.3393" r="22.9938" fx="697.1776" fy="660.2261" gradientTransform="matrix(0.6652 -0.7467 -0.3277 -0.2919 456.3231 804.0982)" gradientUnits="userSpaceOnUse">
			<stop  offset="3.840000e-02" style="stop-color:#B1B1B1"/>
			<stop  offset="0.1648" style="stop-color:#A1AFAD"/>
			<stop  offset="0.4117" style="stop-color:#77AAA2"/>
			<stop  offset="0.7514" style="stop-color:#35A291"/>
			<stop  offset="1" style="stop-color:#009C84"/>
		</radialGradient>
		<path class="st25" d="M704.7,90.8c6.5-7.9,5-17.1,4.8-18.5c-1.1-0.5-2.8-1-4.9-1.2c-0.7,0-2.7-0.1-5.2,0.6c-3.2,1-5.3,2.8-7,4.3
			c-1.9,1.7-5.2,4.6-7,9.6c-0.6,1.8-1.7,4.7-1.1,8.4c0.3,2.1,1.1,3.8,1.6,4.9C687.1,99.1,697.6,99.4,704.7,90.8z"/>
	</g>
	<path class="st1" d="M701.2,130.5c-4.2,3.9-11.9,1.4-20.9-1.5c-6.9-2.2-15-4.9-15.1-8.7c0-1.7,1.7-3.4,3.3-4.1
		c3.6-1.4,6.7,2,12.3,4.6c11.4,5.3,21.3,1.3,22.5,5.1C703.9,128,701.4,130.3,701.2,130.5z"/>
</g>
<g id="Ebene_7" class="st0">
	
		<radialGradient id="SVGID_17_" cx="764.9372" cy="41.6307" r="99.4312" gradientTransform="matrix(1 0 0 -0.4757 0 743.6009)" gradientUnits="userSpaceOnUse">
		<stop  offset="0" style="stop-color:#000000"/>
		<stop  offset="0.9923" style="stop-color:#808080"/>
	</radialGradient>
	<ellipse class="st26" cx="768" cy="751.4" rx="118.8" ry="48.7"/>
	<g class="st1">
		
			<radialGradient id="SVGID_18_" cx="737.0532" cy="371.608" r="136.1043" gradientTransform="matrix(1 0 0 -2.5805 0 1352.7678)" gradientUnits="userSpaceOnUse">
			<stop  offset="0" style="stop-color:#FF0000"/>
			<stop  offset="0.1566" style="stop-color:#FB0707"/>
			<stop  offset="0.3815" style="stop-color:#EE1A1A"/>
			<stop  offset="0.6477" style="stop-color:#DA3939"/>
			<stop  offset="0.9433" style="stop-color:#BF6464"/>
			<stop  offset="1" style="stop-color:#B96D6D"/>
		</radialGradient>
		<ellipse class="st27" cx="737.1" cy="393.8" rx="137.7" ry="351.9"/>
		
			<radialGradient id="SVGID_19_" cx="769.1851" cy="369.2985" r="135.5599" fx="738.7755" fy="368.963" gradientTransform="matrix(1 0 0 -2.6531 0 1375.9448)" gradientUnits="userSpaceOnUse">
			<stop  offset="3.895119e-03" style="stop-color:#000000"/>
			<stop  offset="0.1441" style="stop-color:#060606"/>
			<stop  offset="0.3397" style="stop-color:#191919"/>
			<stop  offset="0.5678" style="stop-color:#363636"/>
			<stop  offset="0.8185" style="stop-color:#5F5F5F"/>
			<stop  offset="0.9923" style="stop-color:#808080"/>
		</radialGradient>
		<path class="st28" d="M892.2,393.8c-0.7,27.3-9.2,322.8-73.6,348.4c-23.3,9.3-48,9.2-48,9.2s-23.8-0.1-46.9-9.1
			c-36.4-14.1-107.5-130-106.8-348.5c0.5-181.7,50.3-335.5,106-350c37.8-9.9,76.1-1.9,76.1-1.9s19.2,4,35.4,11.8
			C898.5,84.3,893.8,330.7,892.2,393.8z"/>
		
			<radialGradient id="SVGID_20_" cx="798.9432" cy="371.6118" r="138.1042" fx="793.1978" fy="377.5138" gradientTransform="matrix(1 0 0 -2.5411 0 1338.136)" gradientUnits="userSpaceOnUse">
			<stop  offset="0" style="stop-color:#FF0000"/>
			<stop  offset="0.1566" style="stop-color:#FB0707"/>
			<stop  offset="0.3815" style="stop-color:#EE1A1A"/>
			<stop  offset="0.6477" style="stop-color:#DA3939"/>
			<stop  offset="0.9433" style="stop-color:#BF6464"/>
			<stop  offset="1" style="stop-color:#B96D6D"/>
		</radialGradient>
		<ellipse class="st29" cx="798.9" cy="393.8" rx="137.7" ry="351.9"/>
	</g>
	<g class="st1">
		<path class="st11" d="M817.5,45.1c-6.9-2.3-13.2-3.1-18.9-3c-57.8,0.9-93.5,93.6-95.5,99c-5.7,6.2-14.2,15.1-25,25.1
			c-13.6,12.5-20.5,18.9-27.6,20.4c-16.8,3.7-31.7-5-41.9-11.2c-6.1-3.7-15.1-9.3-14.4-15.2c0.6-5.1,8.3-7.9,14.9-10.4
			c11.3-4.3,27-10.7,46.7-20c4.9-17.3,15.7-45.2,40.8-68.8c6.4-6,12.9-10.9,19.1-14.9c8.8-2.7,19-5.1,30.3-6.5
			C775.6,36,800.6,40.4,817.5,45.1z"/>
		<path class="st12" d="M596.6,154.9c10.2-3.7,20.8-7.9,31.7-12.5c9.6-4.1,18.8-8.3,27.5-12.5c-5.2,3.3-13.4,8.2-23.8,13.8
			c-16.5,8.9-23.9,11.4-24,15.8c-0.1,6,12.9,10.9,21.2,13.5c-1,0.2-19.1,3.1-28.3-8.7C598.4,161.2,597.2,157.8,596.6,154.9z"/>
		
			<linearGradient id="SVGID_21_" gradientUnits="userSpaceOnUse" x1="594.2473" y1="606.7925" x2="703.1232" y2="606.7925" gradientTransform="matrix(1 0 0 -1 0 765.4468)">
			<stop  offset="6.900000e-02" style="stop-color:#808080"/>
			<stop  offset="0.2245" style="stop-color:#707070"/>
			<stop  offset="0.4783" style="stop-color:#5D5D5D"/>
			<stop  offset="0.7357" style="stop-color:#515151"/>
			<stop  offset="1" style="stop-color:#4D4D4D"/>
		</linearGradient>
		<path class="st30" d="M655.8,129.9c-11.1,5.2-22.7,10.4-34.9,15.4c-8.6,3.6-17.1,6.9-25.3,10c-1,2.5-2,6.4-0.7,10.4
			c0.7,2.2,2.4,5.3,17.4,12.8c10.4,5.2,15.8,7.8,23.5,8.7c5.2,0.6,9.6,0.2,12.5-0.1c0,0,1.1-0.1,2.3-0.4
			c19.2-3.5,41.2-30.2,52.6-45.5c-5.1,5.9-13.3,14.1-25,21.5c-9.4,5.9-16.7,10.5-27.6,11.9c-10.8,1.4-19.8-2.3-37.8-9.4
			c-12.9-5.1-14.7-7.6-14.6-9.2c0.2-1.7,2.6-2.8,11-6.1c9.9-4,14.9-5.9,15.7-6.2C631,141.2,640.6,137.2,655.8,129.9z"/>
	</g>
	
		<radialGradient id="SVGID_22_" cx="701.0831" cy="676.2489" r="16.2318" gradientTransform="matrix(0.7714 0.6364 0.9832 -1.1918 -504.6264 449.05)" gradientUnits="userSpaceOnUse">
		<stop  offset="0.4934" style="stop-color:#000000"/>
		<stop  offset="0.6922" style="stop-color:#060606"/>
		<stop  offset="0.9519" style="stop-color:#161616"/>
		<stop  offset="1" style="stop-color:#1A1A1A"/>
	</radialGradient>
	<path class="st31" d="M684.4,108.5c7,6.1,20.2,2.4,29.5-8.2s11-24.2,4-30.3s-20.2-2.4-29.5,8.2S677.3,102.4,684.4,108.5z"/>
	
		<radialGradient id="SVGID_23_" cx="701.0831" cy="676.2489" r="19.063" gradientTransform="matrix(0.6806 -0.7327 -0.5135 -0.477 571.1893 925.3928)" gradientUnits="userSpaceOnUse">
		<stop  offset="0.1164" style="stop-color:#000000"/>
		<stop  offset="0.2931" style="stop-color:#060606"/>
		<stop  offset="0.5242" style="stop-color:#161616"/>
		<stop  offset="0.7845" style="stop-color:#313131"/>
		<stop  offset="1" style="stop-color:#4D4D4D"/>
	</radialGradient>
	<path class="st32" d="M688.2,104c5.4,4.7,15.5,1.9,22.6-6.3s8.5-18.6,3.1-23.3c-5.4-4.7-15.5-1.9-22.6,6.3S682.8,99.3,688.2,104z"
		/>
	<g class="st1">
		<path class="st16" d="M689.2,102.9c5.9,3.6,15.8-1.1,20.9-7.5c4.2-5.3,7.3-14.7,3-20c-2.5-3.1-6.5-3.6-7.6-3.7
			c-6.4-0.8-11.3,3.3-13.1,4.9c-5.2,4.4-10.1,12.9-7.4,20.6C685.4,98.4,686.4,101.3,689.2,102.9z"/>
		
			<radialGradient id="SVGID_24_" cx="696.9794" cy="679.8985" r="22.9974" fx="697.1707" fy="659.7821" gradientTransform="matrix(0.6652 -0.7467 -0.3277 -0.2919 456.1786 804.4103)" gradientUnits="userSpaceOnUse">
			<stop  offset="3.840000e-02" style="stop-color:#B1B1B1"/>
			<stop  offset="0.1648" style="stop-color:#A1AFAD"/>
			<stop  offset="0.4117" style="stop-color:#77AAA2"/>
			<stop  offset="0.7514" style="stop-color:#35A291"/>
			<stop  offset="1" style="stop-color:#009C84"/>
		</radialGradient>
		<path class="st33" d="M704.7,91.3c6.5-7.9,5-17.1,4.8-18.5c-1.1-0.5-2.8-1-4.9-1.2c-0.7,0-2.7-0.1-5.2,0.6c-3.2,1-5.3,2.8-7,4.3
			c-1.9,1.7-5.2,4.6-7,9.6c-0.6,1.8-1.7,4.7-1.1,8.4c0.3,2.1,1.1,3.8,1.6,4.9C687.1,99.5,697.6,99.9,704.7,91.3z"/>
	</g>
	<path class="st1" d="M701.2,131c-4.2,3.9-11.9,1.4-20.9-1.5c-6.9-2.2-15-4.9-15.1-8.7c0-1.7,1.7-3.4,3.3-4.1
		c3.6-1.4,6.7,2,12.3,4.6c11.4,5.3,21.3,1.3,22.5,5.1C703.9,128.4,701.4,130.8,701.2,131z"/>
</g>
<g id="Ebene_8">
	<g>
		
			<radialGradient id="SVGID_25_" cx="215.4894" cy="42.0714" r="99.4312" gradientTransform="matrix(1 0 0 -0.4757 0 743.3699)" gradientUnits="userSpaceOnUse">
			<stop  offset="0" style="stop-color:#000000"/>
			<stop  offset="0.9923" style="stop-color:#808080"/>
		</radialGradient>
		<ellipse class="st34" cx="218.6" cy="751" rx="118.8" ry="48.7"/>
		<g>
			
				<radialGradient id="SVGID_26_" cx="187.6132" cy="372.0485" r="136.1005" gradientTransform="matrix(1 0 0 -2.5805 0 1353.4645)" gradientUnits="userSpaceOnUse">
				<stop  offset="0.6774" style="stop-color:#666666"/>
				<stop  offset="0.8303" style="stop-color:#686868"/>
				<stop  offset="0.8854" style="stop-color:#6F6F6F"/>
				<stop  offset="0.9247" style="stop-color:#7A7A7A"/>
				<stop  offset="0.9564" style="stop-color:#8B8B8B"/>
				<stop  offset="0.9833" style="stop-color:#A1A1A1"/>
				<stop  offset="1" style="stop-color:#B3B3B3"/>
			</radialGradient>
			<ellipse class="st35" cx="187.6" cy="393.4" rx="137.7" ry="351.9"/>
			
				<radialGradient id="SVGID_27_" cx="219.7373" cy="369.7393" r="135.5599" fx="189.3276" fy="369.4041" gradientTransform="matrix(1 0 0 -2.6531 0 1376.6732)" gradientUnits="userSpaceOnUse">
				<stop  offset="3.895119e-03" style="stop-color:#000000"/>
				<stop  offset="0.1441" style="stop-color:#060606"/>
				<stop  offset="0.3397" style="stop-color:#191919"/>
				<stop  offset="0.5678" style="stop-color:#363636"/>
				<stop  offset="0.8185" style="stop-color:#5F5F5F"/>
				<stop  offset="0.9923" style="stop-color:#808080"/>
			</radialGradient>
			<path class="st36" d="M342.8,393.4c-0.7,27.3-9.2,322.8-73.6,348.4c-23.3,9.3-48,9.2-48,9.2s-23.8-0.1-47-9.1
				c-36.5-14.1-107.5-130-106.8-348.5c0.5-181.7,50.3-335.5,106-350c37.8-9.9,76.1-1.9,76.1-1.9s19.2,4,35.5,11.8
				C349.1,83.9,344.3,330.2,342.8,393.4z"/>
			
				<radialGradient id="SVGID_28_" cx="249.4932" cy="372.0522" r="138.1042" fx="243.7477" fy="377.9543" gradientTransform="matrix(1 0 0 -2.5411 0 1338.8153)" gradientUnits="userSpaceOnUse">
				<stop  offset="0.6774" style="stop-color:#666666"/>
				<stop  offset="0.8303" style="stop-color:#686868"/>
				<stop  offset="0.8854" style="stop-color:#6F6F6F"/>
				<stop  offset="0.9247" style="stop-color:#7A7A7A"/>
				<stop  offset="0.9564" style="stop-color:#8B8B8B"/>
				<stop  offset="0.9833" style="stop-color:#A1A1A1"/>
				<stop  offset="1" style="stop-color:#B3B3B3"/>
			</radialGradient>
			<ellipse class="st37" cx="249.5" cy="393.4" rx="137.7" ry="351.9"/>
		</g>
		<path d="M212.1,38.4c5.6,0.2,11.1,0.3,16.7,0.5c-9.7,1.1-16.4,4-20.8,6.4c-8.8,5-17,13.3-27.2,13.6c-1.1,0-2.2,0-2.5-0.6
			c-1.2-2.3,9.6-11.5,21.5-16.4C204.7,40,209,39,212.1,38.4z"/>
	</g>
</g>
<g id="Ebene_9" class="st0">
	
		<radialGradient id="SVGID_29_" cx="759.8309" cy="42.0714" r="99.4312" gradientTransform="matrix(1 0 0 -0.4757 0 743.3699)" gradientUnits="userSpaceOnUse">
		<stop  offset="0" style="stop-color:#000000"/>
		<stop  offset="0.9923" style="stop-color:#808080"/>
	</radialGradient>
	<ellipse class="st38" cx="762.9" cy="751" rx="118.8" ry="48.7"/>
	<g class="st1">
		
			<radialGradient id="SVGID_30_" cx="731.9532" cy="372.0485" r="136.1012" gradientTransform="matrix(1 0 0 -2.5805 0 1353.4645)" gradientUnits="userSpaceOnUse">
			<stop  offset="0" style="stop-color:#BFE0D2"/>
			<stop  offset="0.1054" style="stop-color:#B7DDCF"/>
			<stop  offset="0.2666" style="stop-color:#A2D6C6"/>
			<stop  offset="0.4635" style="stop-color:#7FC9B8"/>
			<stop  offset="0.6884" style="stop-color:#4FB8A4"/>
			<stop  offset="0.9341" style="stop-color:#12A28B"/>
			<stop  offset="1" style="stop-color:#009C84"/>
		</radialGradient>
		<ellipse class="st39" cx="732" cy="393.4" rx="137.7" ry="351.9"/>
		
			<radialGradient id="SVGID_31_" cx="764.0788" cy="369.7393" r="135.5599" fx="733.6691" fy="369.4041" gradientTransform="matrix(1 0 0 -2.6531 0 1376.6732)" gradientUnits="userSpaceOnUse">
			<stop  offset="3.895119e-03" style="stop-color:#000000"/>
			<stop  offset="0.1441" style="stop-color:#060606"/>
			<stop  offset="0.3397" style="stop-color:#191919"/>
			<stop  offset="0.5678" style="stop-color:#363636"/>
			<stop  offset="0.8185" style="stop-color:#5F5F5F"/>
			<stop  offset="0.9923" style="stop-color:#808080"/>
		</radialGradient>
		<path class="st40" d="M887.1,393.4c-0.7,27.3-9.2,322.8-73.6,348.4c-23.3,9.3-48,9.2-48,9.2s-23.8-0.1-46.9-9.1
			c-36.4-14.1-107.5-130-106.8-348.5c0.5-181.7,50.3-335.5,106-350c37.8-9.9,76.1-1.9,76.1-1.9s19.2,4,35.4,11.8
			C893.4,83.9,888.7,330.2,887.1,393.4z"/>
		
			<radialGradient id="SVGID_32_" cx="793.8432" cy="372.0522" r="138.1042" fx="788.0978" fy="377.9543" gradientTransform="matrix(1 0 0 -2.5411 0 1338.8153)" gradientUnits="userSpaceOnUse">
			<stop  offset="0" style="stop-color:#BFE0D2"/>
			<stop  offset="0.1054" style="stop-color:#B7DDCF"/>
			<stop  offset="0.2666" style="stop-color:#A2D6C6"/>
			<stop  offset="0.4635" style="stop-color:#7FC9B8"/>
			<stop  offset="0.6884" style="stop-color:#4FB8A4"/>
			<stop  offset="0.9341" style="stop-color:#12A28B"/>
			<stop  offset="1" style="stop-color:#009C84"/>
		</radialGradient>
		<ellipse class="st41" cx="793.8" cy="393.4" rx="137.7" ry="351.9"/>
	</g>
	<path class="st1" d="M756.4,38.4c5.6,0.2,11.1,0.3,16.7,0.5c-9.7,1.1-16.4,4-20.8,6.4c-8.8,5-17,13.3-27.2,13.6
		c-1.1,0-2.2,0-2.5-0.6c-1.2-2.3,9.6-11.5,21.5-16.4C749,40,753.3,39,756.4,38.4z"/>
</g>
</svg>
