<?xml version="1.0" encoding="utf-8"?>
<!-- Generator: Adobe Illustrator 25.2.0, SVG Export Plug-In . SVG Version: 6.00 Build 0)  -->
<svg version="1.1" xmlns="http://www.w3.org/2000/svg" xmlns:xlink="http://www.w3.org/1999/xlink" x="0px" y="0px"
	 viewBox="0 0 1920 1080" style="enable-background:new 0 0 1920 1080;" xml:space="preserve">
<style type="text/css">
	.st0{display:none;}
	.st1{display:inline;}
	.st2{fill:#B1B1B1;}
	.st3{fill:#00A585;}
	.st4{fill:#9E9E9E;}
	.st5{fill:#A30000;}
	.st6{fill:#8E8E8E;}
	.st7{display:inline;fill:url(#SVGID_1_);}
	.st8{fill:url(#SVGID_2_);}
	.st9{fill:url(#SVGID_3_);}
	.st10{fill:url(#SVGID_4_);}
	.st11{fill:#4D4D4D;}
	.st12{fill:#333333;}
	.st13{fill:url(#SVGID_5_);}
	.st14{display:inline;fill:url(#SVGID_6_);}
	.st15{display:inline;fill:url(#SVGID_7_);}
	.st16{fill:#009C84;}
	.st17{fill:url(#SVGID_8_);}
	.st18{display:inline;fill:url(#SVGID_9_);}
	.st19{fill:url(#SVGID_10_);}
	.st20{fill:url(#SVGID_11_);}
	.st21{fill:url(#SVGID_12_);}
	.st22{fill:url(#SVGID_13_);}
	.st23{display:inline;fill:url(#SVGID_14_);}
	.st24{display:inline;fill:url(#SVGID_15_);}
	.st25{fill:url(#SVGID_16_);}
	.st26{display:inline;fill:url(#SVGID_17_);}
	.st27{fill:url(#SVGID_18_);}
	.st28{fill:url(#SVGID_19_);}
	.st29{fill:url(#SVGID_20_);}
	.st30{fill:url(#SVGID_21_);}
	.st31{display:inline;fill:url(#SVGID_22_);}
	.st32{display:inline;fill:url(#SVGID_23_);}
	.st33{fill:url(#SVGID_24_);}
	.st34{fill:url(#SVGID_25_);}
	.st35{fill:url(#SVGID_26_);}
	.st36{fill:url(#SVGID_27_);}
	.st37{fill:url(#SVGID_28_);}
	.st38{display:inline;fill:url(#SVGID_29_);}
	.st39{fill:url(#SVGID_30_);}
	.st40{fill:url(#SVGID_31_);}
	.st41{fill:url(#SVGID_32_);}
</style>
<g id="Ebene_1" class="st0">
	<g class="st1">
		<path class="st2" d="M573.87,749.96h-43c-6.6,0-12-5.4-12-12v-374c0-6.6,5.4-12,12-12h43c6.6,0,12,5.4,12,12v374
			C585.87,744.56,580.47,749.96,573.87,749.96z"/>
		<ellipse class="st3" cx="521.99" cy="546.09" rx="11.88" ry="190.87"/>
		<ellipse class="st3" cx="582.74" cy="546.73" rx="11.88" ry="190.87"/>
		<ellipse class="st4" cx="552.87" cy="741.46" rx="50" ry="20.5"/>
		<path d="M551.74,364.23L551.74,364.23c-1.78,0-3.25-1.46-3.25-3.25v-6.51c0-1.78,1.46-3.25,3.25-3.25l0,0
			c1.78,0,3.25,1.46,3.25,3.25v6.51C554.98,362.77,553.52,364.23,551.74,364.23z"/>
	</g>
	<g class="st1">
		<path class="st2" d="M844.74,749.96h-43c-6.6,0-12-5.4-12-12v-374c0-6.6,5.4-12,12-12h43c6.6,0,12,5.4,12,12v374
			C856.74,744.56,851.34,749.96,844.74,749.96z"/>
		<ellipse class="st5" cx="792.86" cy="546.09" rx="11.88" ry="190.87"/>
		<ellipse class="st5" cx="853.61" cy="546.73" rx="11.88" ry="190.87"/>
		<ellipse class="st4" cx="823.74" cy="741.46" rx="50" ry="20.5"/>
		<path d="M822.61,364.23L822.61,364.23c-1.78,0-3.25-1.46-3.25-3.25v-6.51c0-1.78,1.46-3.25,3.25-3.25l0,0
			c1.78,0,3.25,1.46,3.25,3.25v6.51C825.86,362.77,824.4,364.23,822.61,364.23z"/>
	</g>
	<g class="st1">
		<path class="st2" d="M1111.59,753.96h-43c-6.6,0-12-5.4-12-12v-374c0-6.6,5.4-12,12-12h43c6.6,0,12,5.4,12,12v374
			C1123.59,748.56,1118.19,753.96,1111.59,753.96z"/>
		<ellipse class="st6" cx="1059.71" cy="550.09" rx="11.88" ry="190.87"/>
		<ellipse class="st6" cx="1120.46" cy="550.73" rx="11.88" ry="190.87"/>
		<ellipse class="st4" cx="1090.59" cy="745.46" rx="50" ry="20.5"/>
		<path d="M1089.46,368.23L1089.46,368.23c-1.78,0-3.25-1.46-3.25-3.25v-6.51c0-1.78,1.46-3.25,3.25-3.25l0,0
			c1.78,0,3.25,1.46,3.25,3.25v6.51C1092.71,366.77,1091.25,368.23,1089.46,368.23z"/>
	</g>
</g>
<g id="Ebene_2" class="st0">
	
		<radialGradient id="SVGID_1_" cx="1497.8822" cy="888.9149" r="99.4312" gradientTransform="matrix(1 0 0 0.4757 0 466.0391)" gradientUnits="userSpaceOnUse">
		<stop  offset="0" style="stop-color:#000000"/>
		<stop  offset="0.9923" style="stop-color:#808080"/>
	</radialGradient>
	<ellipse class="st7" cx="1500.95" cy="916.49" rx="118.8" ry="48.71"/>
	<g class="st1">
		
			<radialGradient id="SVGID_2_" cx="1470.0021" cy="558.9289" r="136.098" gradientTransform="matrix(1 0 0 2.5805 0 -883.4064)" gradientUnits="userSpaceOnUse">
			<stop  offset="0.6774" style="stop-color:#666666"/>
			<stop  offset="0.8303" style="stop-color:#686868"/>
			<stop  offset="0.8854" style="stop-color:#6F6F6F"/>
			<stop  offset="0.9247" style="stop-color:#7A7A7A"/>
			<stop  offset="0.9564" style="stop-color:#8B8B8B"/>
			<stop  offset="0.9833" style="stop-color:#A1A1A1"/>
			<stop  offset="1" style="stop-color:#B3B3B3"/>
		</radialGradient>
		<ellipse class="st8" cx="1470" cy="558.93" rx="137.72" ry="351.91"/>
		
			<radialGradient id="SVGID_3_" cx="1502.1301" cy="561.2471" r="135.5599" fx="1471.7205" fy="560.9118" gradientTransform="matrix(1 0 0 2.6531 0 -927.7869)" gradientUnits="userSpaceOnUse">
			<stop  offset="3.895119e-03" style="stop-color:#000000"/>
			<stop  offset="0.1441" style="stop-color:#060606"/>
			<stop  offset="0.3397" style="stop-color:#191919"/>
			<stop  offset="0.5678" style="stop-color:#363636"/>
			<stop  offset="0.8185" style="stop-color:#5F5F5F"/>
			<stop  offset="0.9923" style="stop-color:#808080"/>
		</radialGradient>
		<path class="st9" d="M1625.18,558.93c-0.67,27.26-9.25,322.79-73.63,348.37c-23.31,9.26-48,9.19-48,9.19s-23.76-0.07-46.95-9.06
			c-36.45-14.14-107.47-130.03-106.85-348.5c0.51-181.71,50.31-335.55,106.02-350.05c37.85-9.85,76.13-1.86,76.13-1.86
			s19.18,4.01,35.45,11.77C1631.48,249.43,1626.74,495.76,1625.18,558.93z"/>
		
			<radialGradient id="SVGID_4_" cx="1531.8899" cy="558.9289" r="138.2091" fx="1526.0299" fy="559.2205" gradientTransform="matrix(1 0 0 2.5411 0 -861.3747)" gradientUnits="userSpaceOnUse">
			<stop  offset="0" style="stop-color:#666666"/>
			<stop  offset="0.2003" style="stop-color:#6C6C6C"/>
			<stop  offset="0.4605" style="stop-color:#7C7C7C"/>
			<stop  offset="0.7525" style="stop-color:#979797"/>
			<stop  offset="1" style="stop-color:#B3B3B3"/>
		</radialGradient>
		<ellipse class="st10" cx="1531.89" cy="558.93" rx="137.72" ry="351.91"/>
	</g>
</g>
<g id="Ebene_3" class="st0">
	<g class="st1">
		<path class="st11" d="M1550.47,210.2c-6.9-2.28-13.23-3.08-18.92-2.99c-57.77,0.87-93.49,93.62-95.48,98.96
			c-5.7,6.23-14.15,15.08-25.03,25.13c-13.59,12.55-20.52,18.85-27.57,20.43c-16.75,3.74-31.72-5.02-41.87-11.23
			c-6.07-3.72-15.14-9.28-14.4-15.17c0.64-5.09,8.29-7.85,14.91-10.37c11.26-4.28,27.01-10.68,46.65-20
			c4.86-17.31,15.65-45.24,40.83-68.8c6.44-6.02,12.93-10.93,19.1-14.95c8.79-2.69,18.96-5.06,30.34-6.47
			C1508.56,201.09,1533.52,205.51,1550.47,210.2z"/>
		<path class="st12" d="M1329.56,319.96c10.2-3.73,20.79-7.89,31.7-12.54c9.62-4.1,18.79-8.27,27.51-12.47
			c-5.2,3.27-13.38,8.25-23.77,13.83c-16.52,8.89-23.95,11.4-24,15.83c-0.07,5.99,12.89,10.94,21.19,13.53
			c-1.01,0.18-19.1,3.12-28.34-8.68C1331.38,326.31,1330.16,322.89,1329.56,319.96z"/>
		<linearGradient id="SVGID_5_" gradientUnits="userSpaceOnUse" x1="1327.1921" y1="323.7535" x2="1436.0706" y2="323.7535">
			<stop  offset="0.069" style="stop-color:#808080"/>
			<stop  offset="0.2245" style="stop-color:#707070"/>
			<stop  offset="0.4783" style="stop-color:#5D5D5D"/>
			<stop  offset="0.7357" style="stop-color:#515151"/>
			<stop  offset="1" style="stop-color:#4D4D4D"/>
		</linearGradient>
		<path class="st13" d="M1388.76,294.95c-11.09,5.21-22.73,10.37-34.91,15.41c-8.61,3.56-17.06,6.89-25.33,9.99
			c-0.98,2.52-2.02,6.44-0.71,10.43c0.71,2.17,2.43,5.34,17.36,12.77c10.43,5.19,15.8,7.8,23.49,8.68c5.21,0.6,9.58,0.25,12.52-0.15
			c0,0,1.11-0.14,2.29-0.36c19.23-3.5,41.18-30.2,52.6-45.55c-5.09,5.89-13.26,14.13-25.03,21.55
			c-9.41,5.94-16.69,10.53-27.59,11.92c-10.85,1.39-19.84-2.3-37.77-9.37c-12.91-5.09-14.71-7.58-14.55-9.19
			c0.17-1.74,2.64-2.78,10.98-6.13c9.91-3.98,14.88-5.92,15.66-6.23C1363.9,306.33,1373.53,302.25,1388.76,294.95z"/>
	</g>
</g>
<g id="Ebene_4" class="st0">
	
		<radialGradient id="SVGID_6_" cx="1434.028" cy="254.2967" r="16.2318" gradientTransform="matrix(0.7714 0.6364 -0.9832 1.1918 577.8369 -961.3218)" gradientUnits="userSpaceOnUse">
		<stop  offset="0.4934" style="stop-color:#000000"/>
		<stop  offset="0.6922" style="stop-color:#060606"/>
		<stop  offset="0.9519" style="stop-color:#161616"/>
		<stop  offset="1" style="stop-color:#1A1A1A"/>
	</radialGradient>
	<path class="st14" d="M1417.29,273.58c7.03,6.1,20.22,2.41,29.46-8.24c9.24-10.65,11.04-24.23,4.01-30.33
		c-7.03-6.1-20.22-2.41-29.46,8.24C1412.06,253.9,1410.26,267.48,1417.29,273.58z"/>
	
		<radialGradient id="SVGID_7_" cx="1434.028" cy="254.2967" r="19.063" gradientTransform="matrix(0.6806 -0.7327 0.5135 0.477 327.457 1183.6506)" gradientUnits="userSpaceOnUse">
		<stop  offset="0.1164" style="stop-color:#000000"/>
		<stop  offset="0.2931" style="stop-color:#060606"/>
		<stop  offset="0.5242" style="stop-color:#161616"/>
		<stop  offset="0.7845" style="stop-color:#313131"/>
		<stop  offset="1" style="stop-color:#4D4D4D"/>
	</radialGradient>
	<path class="st15" d="M1421.18,269.1c5.4,4.68,15.52,1.85,22.62-6.33s8.47-18.6,3.08-23.29c-5.4-4.68-15.52-1.85-22.62,6.33
		C1417.16,253.99,1415.78,264.42,1421.18,269.1z"/>
	<g class="st1">
		<path class="st16" d="M1422.1,268.04c5.94,3.63,15.84-1.12,20.86-7.46c4.22-5.34,7.29-14.73,3-20.02
			c-2.48-3.05-6.47-3.58-7.57-3.72c-6.4-0.84-11.26,3.32-13.05,4.85c-5.19,4.44-10.06,12.9-7.4,20.56
			C1418.39,263.52,1419.38,266.38,1422.1,268.04z"/>
		
			<radialGradient id="SVGID_8_" cx="1429.9216" cy="250.6471" r="22.9987" fx="1430.1129" fy="230.5295" gradientTransform="matrix(0.6652 -0.7467 0.3277 0.2919 396.6288 1245.1729)" gradientUnits="userSpaceOnUse">
			<stop  offset="0.0384" style="stop-color:#B1B1B1"/>
			<stop  offset="0.1648" style="stop-color:#A1AFAD"/>
			<stop  offset="0.4117" style="stop-color:#77AAA2"/>
			<stop  offset="0.7514" style="stop-color:#35A291"/>
			<stop  offset="1" style="stop-color:#009C84"/>
		</radialGradient>
		<path class="st17" d="M1437.65,256.38c6.51-7.9,5-17.14,4.76-18.46c-1.06-0.46-2.75-1.04-4.9-1.17c-0.65-0.04-2.68-0.11-5.16,0.62
			c-3.24,0.97-5.31,2.78-7.02,4.31c-1.88,1.68-5.15,4.59-6.98,9.62c-0.64,1.76-1.66,4.67-1.09,8.39c0.33,2.14,1.07,3.8,1.64,4.86
			C1420.04,264.61,1430.56,264.98,1437.65,256.38z"/>
	</g>
</g>
<g id="Ebene_5" class="st0">
	<path class="st1" d="M1434.12,296.06c-4.17,3.91-11.92,1.39-20.94-1.53c-6.95-2.25-15.03-4.87-15.06-8.68
		c-0.02-1.74,1.66-3.42,3.32-4.09c3.58-1.43,6.72,2.02,12.26,4.6c11.45,5.32,21.27,1.33,22.47,5.11
		C1436.8,293.5,1434.34,295.85,1434.12,296.06z"/>
</g>
<g id="Ebene_6" class="st0">
	
		<radialGradient id="SVGID_9_" cx="1506.384" cy="880.652" r="99.4312" gradientTransform="matrix(1 0 0 0.4757 0 461.707)" gradientUnits="userSpaceOnUse">
		<stop  offset="0" style="stop-color:#000000"/>
		<stop  offset="0.9923" style="stop-color:#808080"/>
	</radialGradient>
	<ellipse class="st18" cx="1509.45" cy="908.23" rx="118.8" ry="48.71"/>
	<g class="st1">
		
			<radialGradient id="SVGID_10_" cx="1478.504" cy="550.666" r="136.098" gradientTransform="matrix(1 0 0 2.5805 0 -870.3466)" gradientUnits="userSpaceOnUse">
			<stop  offset="0" style="stop-color:#BFE0D2"/>
			<stop  offset="0.1054" style="stop-color:#B7DDCF"/>
			<stop  offset="0.2666" style="stop-color:#A2D6C6"/>
			<stop  offset="0.4635" style="stop-color:#7FC9B8"/>
			<stop  offset="0.6884" style="stop-color:#4FB8A4"/>
			<stop  offset="0.9341" style="stop-color:#12A28B"/>
			<stop  offset="1" style="stop-color:#009C84"/>
		</radialGradient>
		<ellipse class="st19" cx="1478.5" cy="550.67" rx="137.72" ry="351.91"/>
		
			<radialGradient id="SVGID_11_" cx="1510.632" cy="552.9841" r="135.5599" fx="1480.2223" fy="552.6488" gradientTransform="matrix(1 0 0 2.6531 0 -914.1276)" gradientUnits="userSpaceOnUse">
			<stop  offset="3.895119e-03" style="stop-color:#000000"/>
			<stop  offset="0.1441" style="stop-color:#060606"/>
			<stop  offset="0.3397" style="stop-color:#191919"/>
			<stop  offset="0.5678" style="stop-color:#363636"/>
			<stop  offset="0.8185" style="stop-color:#5F5F5F"/>
			<stop  offset="0.9923" style="stop-color:#808080"/>
		</radialGradient>
		<path class="st20" d="M1633.68,550.67c-0.67,27.26-9.25,322.79-73.63,348.37c-23.31,9.26-48,9.19-48,9.19s-23.76-0.07-46.95-9.06
			c-36.45-14.14-107.47-130.03-106.85-348.5c0.51-181.71,50.31-335.55,106.02-350.05c37.85-9.85,76.13-1.86,76.13-1.86
			s19.18,4.01,35.45,11.77C1639.98,241.16,1635.24,487.49,1633.68,550.67z"/>
		
			<radialGradient id="SVGID_12_" cx="1540.3918" cy="550.666" r="138.2091" fx="1534.6421" fy="556.5725" gradientTransform="matrix(1 0 0 2.5411 0 -848.6405)" gradientUnits="userSpaceOnUse">
			<stop  offset="0" style="stop-color:#BFE0D2"/>
			<stop  offset="0.1054" style="stop-color:#B7DDCF"/>
			<stop  offset="0.2666" style="stop-color:#A2D6C6"/>
			<stop  offset="0.4635" style="stop-color:#7FC9B8"/>
			<stop  offset="0.6884" style="stop-color:#4FB8A4"/>
			<stop  offset="0.9341" style="stop-color:#12A28B"/>
			<stop  offset="1" style="stop-color:#009C84"/>
		</radialGradient>
		<ellipse class="st21" cx="1540.39" cy="550.67" rx="137.72" ry="351.91"/>
	</g>
	<g class="st1">
		<path class="st11" d="M1558.97,201.94c-6.9-2.28-13.23-3.08-18.92-2.99c-57.77,0.87-93.49,93.62-95.48,98.96
			c-5.7,6.23-14.15,15.08-25.03,25.13c-13.59,12.55-20.52,18.85-27.57,20.43c-16.75,3.74-31.72-5.02-41.87-11.23
			c-6.07-3.72-15.14-9.28-14.4-15.17c0.64-5.09,8.29-7.85,14.91-10.37c11.26-4.28,27.01-10.68,46.65-20
			c4.86-17.31,15.65-45.24,40.83-68.8c6.44-6.02,12.93-10.93,19.1-14.95c8.79-2.69,18.96-5.06,30.34-6.47
			C1517.06,192.83,1542.02,197.25,1558.97,201.94z"/>
		<path class="st12" d="M1338.06,311.7c10.2-3.73,20.79-7.89,31.7-12.54c9.62-4.1,18.79-8.27,27.51-12.47
			c-5.2,3.27-13.38,8.25-23.77,13.83c-16.52,8.89-23.95,11.4-24,15.83c-0.07,5.99,12.89,10.94,21.19,13.53
			c-1.01,0.18-19.1,3.12-28.34-8.68C1339.88,318.05,1338.66,314.63,1338.06,311.7z"/>
		<linearGradient id="SVGID_13_" gradientUnits="userSpaceOnUse" x1="1335.694" y1="315.4905" x2="1444.5724" y2="315.4905">
			<stop  offset="0.069" style="stop-color:#808080"/>
			<stop  offset="0.2245" style="stop-color:#707070"/>
			<stop  offset="0.4783" style="stop-color:#5D5D5D"/>
			<stop  offset="0.7357" style="stop-color:#515151"/>
			<stop  offset="1" style="stop-color:#4D4D4D"/>
		</linearGradient>
		<path class="st22" d="M1397.26,286.69c-11.09,5.21-22.73,10.37-34.91,15.41c-8.61,3.56-17.06,6.89-25.33,9.99
			c-0.98,2.52-2.02,6.44-0.71,10.43c0.71,2.17,2.43,5.34,17.36,12.77c10.43,5.19,15.8,7.8,23.49,8.68c5.21,0.6,9.58,0.25,12.52-0.15
			c0,0,1.11-0.14,2.29-0.36c19.23-3.5,41.18-30.2,52.6-45.55c-5.09,5.89-13.26,14.13-25.03,21.55
			c-9.41,5.94-16.69,10.53-27.59,11.92c-10.85,1.39-19.84-2.3-37.77-9.37c-12.91-5.09-14.71-7.58-14.55-9.19
			c0.17-1.74,2.64-2.78,10.98-6.13c9.91-3.98,14.88-5.92,15.66-6.23C1372.4,298.06,1382.04,293.99,1397.26,286.69z"/>
	</g>
	
		<radialGradient id="SVGID_14_" cx="1442.5299" cy="246.0337" r="16.2318" gradientTransform="matrix(0.7714 0.6364 -0.9832 1.1918 571.6567 -965.1473)" gradientUnits="userSpaceOnUse">
		<stop  offset="0.4934" style="stop-color:#000000"/>
		<stop  offset="0.6922" style="stop-color:#060606"/>
		<stop  offset="0.9519" style="stop-color:#161616"/>
		<stop  offset="1" style="stop-color:#1A1A1A"/>
	</radialGradient>
	<path class="st23" d="M1425.8,265.32c7.03,6.1,20.22,2.41,29.46-8.24c9.24-10.65,11.04-24.23,4.01-30.33
		c-7.03-6.1-20.22-2.41-29.46,8.24S1418.77,259.22,1425.8,265.32z"/>
	
		<radialGradient id="SVGID_15_" cx="1442.5299" cy="246.0337" r="19.063" gradientTransform="matrix(0.6806 -0.7327 0.5135 0.477 334.4153 1185.558)" gradientUnits="userSpaceOnUse">
		<stop  offset="0.1164" style="stop-color:#000000"/>
		<stop  offset="0.2931" style="stop-color:#060606"/>
		<stop  offset="0.5242" style="stop-color:#161616"/>
		<stop  offset="0.7845" style="stop-color:#313131"/>
		<stop  offset="1" style="stop-color:#4D4D4D"/>
	</radialGradient>
	<path class="st24" d="M1429.68,260.84c5.4,4.68,15.52,1.85,22.62-6.33c7.1-8.18,8.47-18.6,3.08-23.29
		c-5.4-4.68-15.52-1.85-22.62,6.33C1425.66,245.73,1424.28,256.16,1429.68,260.84z"/>
	<g class="st1">
		<path class="st16" d="M1430.6,259.78c5.94,3.63,15.84-1.12,20.86-7.46c4.22-5.34,7.29-14.73,3-20.02
			c-2.48-3.05-6.47-3.58-7.57-3.72c-6.4-0.84-11.26,3.32-13.05,4.85c-5.19,4.44-10.06,12.9-7.4,20.56
			C1426.89,255.26,1427.89,258.12,1430.6,259.78z"/>
		
			<radialGradient id="SVGID_16_" cx="1438.4236" cy="242.3841" r="22.9987" fx="1438.6149" fy="222.2666" gradientTransform="matrix(0.6652 -0.7467 0.3277 0.2919 402.183 1245.6702)" gradientUnits="userSpaceOnUse">
			<stop  offset="0.0384" style="stop-color:#B1B1B1"/>
			<stop  offset="0.1648" style="stop-color:#A1AFAD"/>
			<stop  offset="0.4117" style="stop-color:#77AAA2"/>
			<stop  offset="0.7514" style="stop-color:#35A291"/>
			<stop  offset="1" style="stop-color:#009C84"/>
		</radialGradient>
		<path class="st25" d="M1446.15,248.11c6.51-7.9,5-17.14,4.76-18.46c-1.06-0.46-2.75-1.04-4.9-1.17c-0.65-0.04-2.68-0.11-5.16,0.62
			c-3.24,0.97-5.31,2.78-7.02,4.31c-1.88,1.68-5.15,4.59-6.98,9.62c-0.64,1.76-1.66,4.67-1.09,8.39c0.33,2.14,1.07,3.8,1.64,4.86
			C1428.54,256.34,1439.06,256.72,1446.15,248.11z"/>
	</g>
	<path class="st1" d="M1442.62,287.8c-4.17,3.91-11.92,1.39-20.94-1.53c-6.95-2.25-15.03-4.87-15.06-8.68
		c-0.02-1.74,1.66-3.42,3.32-4.09c3.58-1.43,6.72,2.02,12.26,4.6c11.45,5.32,21.27,1.33,22.47,5.11
		C1445.3,285.23,1442.85,287.59,1442.62,287.8z"/>
</g>
<g id="Ebene_7" class="st0">
	
		<radialGradient id="SVGID_17_" cx="1506.384" cy="881.0927" r="99.4312" gradientTransform="matrix(1 0 0 0.4757 0 461.938)" gradientUnits="userSpaceOnUse">
		<stop  offset="0" style="stop-color:#000000"/>
		<stop  offset="0.9923" style="stop-color:#808080"/>
	</radialGradient>
	<ellipse class="st26" cx="1509.45" cy="908.67" rx="118.8" ry="48.71"/>
	<g class="st1">
		
			<radialGradient id="SVGID_18_" cx="1478.504" cy="551.1067" r="136.098" gradientTransform="matrix(1 0 0 2.5805 0 -871.0432)" gradientUnits="userSpaceOnUse">
			<stop  offset="0" style="stop-color:#FF0000"/>
			<stop  offset="0.1566" style="stop-color:#FB0707"/>
			<stop  offset="0.3815" style="stop-color:#EE1A1A"/>
			<stop  offset="0.6477" style="stop-color:#DA3939"/>
			<stop  offset="0.9433" style="stop-color:#BF6464"/>
			<stop  offset="1" style="stop-color:#B96D6D"/>
		</radialGradient>
		<ellipse class="st27" cx="1478.5" cy="551.11" rx="137.72" ry="351.91"/>
		
			<radialGradient id="SVGID_19_" cx="1510.632" cy="553.4249" r="135.5599" fx="1480.2223" fy="553.0895" gradientTransform="matrix(1 0 0 2.6531 0 -914.8561)" gradientUnits="userSpaceOnUse">
			<stop  offset="3.895119e-03" style="stop-color:#000000"/>
			<stop  offset="0.1441" style="stop-color:#060606"/>
			<stop  offset="0.3397" style="stop-color:#191919"/>
			<stop  offset="0.5678" style="stop-color:#363636"/>
			<stop  offset="0.8185" style="stop-color:#5F5F5F"/>
			<stop  offset="0.9923" style="stop-color:#808080"/>
		</radialGradient>
		<path class="st28" d="M1633.68,551.11c-0.67,27.26-9.25,322.79-73.63,348.37c-23.31,9.26-48,9.19-48,9.19s-23.76-0.07-46.95-9.06
			c-36.45-14.14-107.47-130.03-106.85-348.5c0.51-181.71,50.31-335.55,106.02-350.05c37.85-9.85,76.13-1.86,76.13-1.86
			s19.18,4.01,35.45,11.77C1639.98,241.6,1635.24,487.93,1633.68,551.11z"/>
		
			<radialGradient id="SVGID_20_" cx="1540.3918" cy="551.1067" r="138.2091" fx="1534.6421" fy="557.0132" gradientTransform="matrix(1 0 0 2.5411 0 -849.3198)" gradientUnits="userSpaceOnUse">
			<stop  offset="0" style="stop-color:#FF0000"/>
			<stop  offset="0.1566" style="stop-color:#FB0707"/>
			<stop  offset="0.3815" style="stop-color:#EE1A1A"/>
			<stop  offset="0.6477" style="stop-color:#DA3939"/>
			<stop  offset="0.9433" style="stop-color:#BF6464"/>
			<stop  offset="1" style="stop-color:#B96D6D"/>
		</radialGradient>
		<ellipse class="st29" cx="1540.39" cy="551.11" rx="137.72" ry="351.91"/>
	</g>
	<g class="st1">
		<path class="st11" d="M1558.97,202.38c-6.9-2.28-13.23-3.08-18.92-2.99c-57.77,0.87-93.49,93.62-95.48,98.96
			c-5.7,6.23-14.15,15.08-25.03,25.13c-13.59,12.55-20.52,18.85-27.57,20.43c-16.75,3.74-31.72-5.02-41.87-11.23
			c-6.07-3.72-15.14-9.28-14.4-15.17c0.64-5.09,8.29-7.85,14.91-10.37c11.26-4.28,27.01-10.68,46.65-20
			c4.86-17.31,15.65-45.24,40.83-68.8c6.44-6.02,12.93-10.93,19.1-14.95c8.79-2.69,18.96-5.06,30.34-6.47
			C1517.06,193.27,1542.02,197.69,1558.97,202.38z"/>
		<path class="st12" d="M1338.06,312.14c10.2-3.73,20.79-7.89,31.7-12.54c9.62-4.1,18.79-8.27,27.51-12.47
			c-5.2,3.27-13.38,8.25-23.77,13.83c-16.52,8.89-23.95,11.4-24,15.83c-0.07,5.99,12.89,10.94,21.19,13.53
			c-1.01,0.18-19.1,3.12-28.34-8.68C1339.88,318.49,1338.66,315.07,1338.06,312.14z"/>
		<linearGradient id="SVGID_21_" gradientUnits="userSpaceOnUse" x1="1335.694" y1="315.9313" x2="1444.5724" y2="315.9313">
			<stop  offset="0.069" style="stop-color:#808080"/>
			<stop  offset="0.2245" style="stop-color:#707070"/>
			<stop  offset="0.4783" style="stop-color:#5D5D5D"/>
			<stop  offset="0.7357" style="stop-color:#515151"/>
			<stop  offset="1" style="stop-color:#4D4D4D"/>
		</linearGradient>
		<path class="st30" d="M1397.26,287.13c-11.09,5.21-22.73,10.37-34.91,15.41c-8.61,3.56-17.06,6.89-25.33,9.99
			c-0.98,2.52-2.02,6.44-0.71,10.43c0.71,2.17,2.43,5.34,17.36,12.77c10.43,5.19,15.8,7.8,23.49,8.68c5.21,0.6,9.58,0.25,12.52-0.15
			c0,0,1.11-0.14,2.29-0.36c19.23-3.5,41.18-30.2,52.6-45.55c-5.09,5.89-13.26,14.13-25.03,21.55
			c-9.41,5.94-16.69,10.53-27.59,11.92c-10.85,1.39-19.84-2.3-37.77-9.37c-12.91-5.09-14.71-7.58-14.55-9.19
			c0.17-1.74,2.64-2.78,10.98-6.13c9.91-3.98,14.88-5.92,15.66-6.23C1372.4,298.5,1382.04,294.43,1397.26,287.13z"/>
	</g>
	
		<radialGradient id="SVGID_22_" cx="1442.5299" cy="246.4745" r="16.2318" gradientTransform="matrix(0.7714 0.6364 -0.9832 1.1918 572.09 -965.2319)" gradientUnits="userSpaceOnUse">
		<stop  offset="0.4934" style="stop-color:#000000"/>
		<stop  offset="0.6922" style="stop-color:#060606"/>
		<stop  offset="0.9519" style="stop-color:#161616"/>
		<stop  offset="1" style="stop-color:#1A1A1A"/>
	</radialGradient>
	<path class="st31" d="M1425.8,265.76c7.03,6.1,20.22,2.41,29.46-8.24c9.24-10.65,11.04-24.23,4.01-30.33
		c-7.03-6.1-20.22-2.41-29.46,8.24S1418.77,259.66,1425.8,265.76z"/>
	
		<radialGradient id="SVGID_23_" cx="1442.5299" cy="246.4745" r="19.063" gradientTransform="matrix(0.6806 -0.7327 0.5135 0.477 334.189 1185.7885)" gradientUnits="userSpaceOnUse">
		<stop  offset="0.1164" style="stop-color:#000000"/>
		<stop  offset="0.2931" style="stop-color:#060606"/>
		<stop  offset="0.5242" style="stop-color:#161616"/>
		<stop  offset="0.7845" style="stop-color:#313131"/>
		<stop  offset="1" style="stop-color:#4D4D4D"/>
	</radialGradient>
	<path class="st32" d="M1429.68,261.28c5.4,4.68,15.52,1.85,22.62-6.33c7.1-8.18,8.47-18.6,3.08-23.29
		c-5.4-4.68-15.52-1.85-22.62,6.33S1424.28,256.6,1429.68,261.28z"/>
	<g class="st1">
		<path class="st16" d="M1430.6,260.22c5.94,3.63,15.84-1.12,20.86-7.46c4.22-5.34,7.29-14.73,3-20.02
			c-2.48-3.05-6.47-3.58-7.57-3.72c-6.4-0.84-11.26,3.32-13.05,4.85c-5.19,4.44-10.06,12.9-7.4,20.56
			C1426.89,255.7,1427.89,258.56,1430.6,260.22z"/>
		
			<radialGradient id="SVGID_24_" cx="1438.4236" cy="242.8249" r="22.9987" fx="1438.6149" fy="222.7073" gradientTransform="matrix(0.6652 -0.7467 0.3277 0.2919 402.0386 1245.9823)" gradientUnits="userSpaceOnUse">
			<stop  offset="0.0384" style="stop-color:#B1B1B1"/>
			<stop  offset="0.1648" style="stop-color:#A1AFAD"/>
			<stop  offset="0.4117" style="stop-color:#77AAA2"/>
			<stop  offset="0.7514" style="stop-color:#35A291"/>
			<stop  offset="1" style="stop-color:#009C84"/>
		</radialGradient>
		<path class="st33" d="M1446.15,248.56c6.51-7.9,5-17.14,4.76-18.46c-1.06-0.46-2.75-1.04-4.9-1.17c-0.65-0.04-2.68-0.11-5.16,0.62
			c-3.24,0.97-5.31,2.78-7.02,4.31c-1.88,1.68-5.15,4.59-6.98,9.62c-0.64,1.76-1.66,4.67-1.09,8.39c0.33,2.14,1.07,3.8,1.64,4.86
			C1428.54,256.78,1439.06,257.16,1446.15,248.56z"/>
	</g>
	<path class="st1" d="M1442.62,288.24c-4.17,3.91-11.92,1.39-20.94-1.53c-6.95-2.25-15.03-4.87-15.06-8.68
		c-0.02-1.74,1.66-3.42,3.32-4.09c3.58-1.43,6.72,2.02,12.26,4.6c11.45,5.32,21.27,1.33,22.47,5.11
		C1445.3,285.67,1442.85,288.03,1442.62,288.24z"/>
</g>
<g id="Ebene_8">
	<g>
		
			<radialGradient id="SVGID_25_" cx="956.9362" cy="880.652" r="99.4312" gradientTransform="matrix(1 0 0 0.4757 0 461.707)" gradientUnits="userSpaceOnUse">
			<stop  offset="0" style="stop-color:#000000"/>
			<stop  offset="0.9923" style="stop-color:#808080"/>
		</radialGradient>
		<ellipse class="st34" cx="960" cy="908.23" rx="118.8" ry="48.71"/>
		<g>
			
				<radialGradient id="SVGID_26_" cx="929.0561" cy="550.666" r="136.098" gradientTransform="matrix(1 0 0 2.5805 0 -870.3466)" gradientUnits="userSpaceOnUse">
				<stop  offset="0.6774" style="stop-color:#666666"/>
				<stop  offset="0.8303" style="stop-color:#686868"/>
				<stop  offset="0.8854" style="stop-color:#6F6F6F"/>
				<stop  offset="0.9247" style="stop-color:#7A7A7A"/>
				<stop  offset="0.9564" style="stop-color:#8B8B8B"/>
				<stop  offset="0.9833" style="stop-color:#A1A1A1"/>
				<stop  offset="1" style="stop-color:#B3B3B3"/>
			</radialGradient>
			<ellipse class="st35" cx="929.06" cy="550.67" rx="137.72" ry="351.91"/>
			
				<radialGradient id="SVGID_27_" cx="961.1841" cy="552.9841" r="135.5599" fx="930.7744" fy="552.6488" gradientTransform="matrix(1 0 0 2.6531 0 -914.1276)" gradientUnits="userSpaceOnUse">
				<stop  offset="3.895119e-03" style="stop-color:#000000"/>
				<stop  offset="0.1441" style="stop-color:#060606"/>
				<stop  offset="0.3397" style="stop-color:#191919"/>
				<stop  offset="0.5678" style="stop-color:#363636"/>
				<stop  offset="0.8185" style="stop-color:#5F5F5F"/>
				<stop  offset="0.9923" style="stop-color:#808080"/>
			</radialGradient>
			<path class="st36" d="M1084.24,550.67c-0.67,27.26-9.25,322.79-73.63,348.37c-23.31,9.26-48,9.19-48,9.19s-23.76-0.07-46.95-9.06
				c-36.45-14.14-107.47-130.03-106.85-348.5c0.51-181.71,50.31-335.55,106.02-350.05c37.85-9.85,76.13-1.86,76.13-1.86
				s19.18,4.01,35.45,11.77C1090.53,241.16,1085.79,487.49,1084.24,550.67z"/>
			
				<radialGradient id="SVGID_28_" cx="990.9439" cy="550.666" r="138.2091" fx="985.1941" fy="556.5725" gradientTransform="matrix(1 0 0 2.5411 0 -848.6405)" gradientUnits="userSpaceOnUse">
				<stop  offset="0.6774" style="stop-color:#666666"/>
				<stop  offset="0.8303" style="stop-color:#686868"/>
				<stop  offset="0.8854" style="stop-color:#6F6F6F"/>
				<stop  offset="0.9247" style="stop-color:#7A7A7A"/>
				<stop  offset="0.9564" style="stop-color:#8B8B8B"/>
				<stop  offset="0.9833" style="stop-color:#A1A1A1"/>
				<stop  offset="1" style="stop-color:#B3B3B3"/>
			</radialGradient>
			<ellipse class="st37" cx="990.94" cy="550.67" rx="137.72" ry="351.91"/>
		</g>
		<path d="M953.52,195.72c5.56,0.16,11.13,0.31,16.69,0.47c-9.7,1.05-16.44,3.97-20.79,6.43c-8.81,4.98-17.03,13.28-27.23,13.62
			c-1.13,0.04-2.17-0.03-2.48-0.62c-1.2-2.33,9.6-11.51,21.54-16.4C946.1,197.23,950.41,196.25,953.52,195.72z"/>
	</g>
</g>
<g id="Ebene_9" class="st0">
	
		<radialGradient id="SVGID_29_" cx="1501.2777" cy="880.652" r="99.4312" gradientTransform="matrix(1 0 0 0.4757 0 461.707)" gradientUnits="userSpaceOnUse">
		<stop  offset="0" style="stop-color:#000000"/>
		<stop  offset="0.9923" style="stop-color:#808080"/>
	</radialGradient>
	<ellipse class="st38" cx="1504.34" cy="908.23" rx="118.8" ry="48.71"/>
	<g class="st1">
		
			<radialGradient id="SVGID_30_" cx="1473.3976" cy="550.666" r="136.098" gradientTransform="matrix(1 0 0 2.5805 0 -870.3466)" gradientUnits="userSpaceOnUse">
			<stop  offset="0" style="stop-color:#BFE0D2"/>
			<stop  offset="0.1054" style="stop-color:#B7DDCF"/>
			<stop  offset="0.2666" style="stop-color:#A2D6C6"/>
			<stop  offset="0.4635" style="stop-color:#7FC9B8"/>
			<stop  offset="0.6884" style="stop-color:#4FB8A4"/>
			<stop  offset="0.9341" style="stop-color:#12A28B"/>
			<stop  offset="1" style="stop-color:#009C84"/>
		</radialGradient>
		<ellipse class="st39" cx="1473.4" cy="550.67" rx="137.72" ry="351.91"/>
		
			<radialGradient id="SVGID_31_" cx="1505.5256" cy="552.9841" r="135.5599" fx="1475.116" fy="552.6488" gradientTransform="matrix(1 0 0 2.6531 0 -914.1276)" gradientUnits="userSpaceOnUse">
			<stop  offset="3.895119e-03" style="stop-color:#000000"/>
			<stop  offset="0.1441" style="stop-color:#060606"/>
			<stop  offset="0.3397" style="stop-color:#191919"/>
			<stop  offset="0.5678" style="stop-color:#363636"/>
			<stop  offset="0.8185" style="stop-color:#5F5F5F"/>
			<stop  offset="0.9923" style="stop-color:#808080"/>
		</radialGradient>
		<path class="st40" d="M1628.58,550.67c-0.67,27.26-9.25,322.79-73.63,348.37c-23.31,9.26-48,9.19-48,9.19s-23.76-0.07-46.95-9.06
			c-36.45-14.14-107.47-130.03-106.85-348.5c0.51-181.71,50.31-335.55,106.02-350.05c37.85-9.85,76.13-1.86,76.13-1.86
			s19.18,4.01,35.45,11.77C1634.88,241.16,1630.13,487.49,1628.58,550.67z"/>
		
			<radialGradient id="SVGID_32_" cx="1535.2854" cy="550.666" r="138.2091" fx="1529.5356" fy="556.5725" gradientTransform="matrix(1 0 0 2.5411 0 -848.6405)" gradientUnits="userSpaceOnUse">
			<stop  offset="0" style="stop-color:#BFE0D2"/>
			<stop  offset="0.1054" style="stop-color:#B7DDCF"/>
			<stop  offset="0.2666" style="stop-color:#A2D6C6"/>
			<stop  offset="0.4635" style="stop-color:#7FC9B8"/>
			<stop  offset="0.6884" style="stop-color:#4FB8A4"/>
			<stop  offset="0.9341" style="stop-color:#12A28B"/>
			<stop  offset="1" style="stop-color:#009C84"/>
		</radialGradient>
		<ellipse class="st41" cx="1535.29" cy="550.67" rx="137.72" ry="351.91"/>
	</g>
	<path class="st1" d="M1497.86,195.72c5.56,0.16,11.13,0.31,16.69,0.47c-9.7,1.05-16.44,3.97-20.79,6.43
		c-8.81,4.98-17.03,13.28-27.23,13.62c-1.13,0.04-2.17-0.03-2.48-0.62c-1.2-2.33,9.6-11.51,21.54-16.4
		C1490.44,197.23,1494.75,196.25,1497.86,195.72z"/>
</g>
</svg>
