<?xml version="1.0" encoding="utf-8"?>
<!-- Generator: Adobe Illustrator 25.2.0, SVG Export Plug-In . SVG Version: 6.00 Build 0)  -->
<svg version="1.1" xmlns="http://www.w3.org/2000/svg" xmlns:xlink="http://www.w3.org/1999/xlink" x="0px" y="0px"
	 viewBox="0 0 1920 1080" style="enable-background:new 0 0 1920 1080;" xml:space="preserve">
<style type="text/css">
	.st0{fill-rule:evenodd;clip-rule:evenodd;fill:#B2B2B2;}
	.st1{fill-rule:evenodd;clip-rule:evenodd;fill:#616160;}
	.st2{opacity:0.5;fill-rule:evenodd;clip-rule:evenodd;fill:url(#SVGID_1_);enable-background:new    ;}
	.st3{fill-rule:evenodd;clip-rule:evenodd;fill:#A3A2A2;}
	.st4{fill-rule:evenodd;clip-rule:evenodd;fill:url(#SVGID_2_);}
	.st5{fill-rule:evenodd;clip-rule:evenodd;fill:#777777;}
	.st6{fill-rule:evenodd;clip-rule:evenodd;fill:#1D1D1B;}
	.st7{fill-rule:evenodd;clip-rule:evenodd;fill:#302D7E;}
	.st8{opacity:0.2;fill-rule:evenodd;clip-rule:evenodd;fill:url(#SVGID_3_);enable-background:new    ;}
	.st9{fill-rule:evenodd;clip-rule:evenodd;fill:#C1E1D3;}
	.st10{fill-rule:evenodd;clip-rule:evenodd;fill:#EE7E05;}
	.st11{opacity:0.99;fill-rule:evenodd;clip-rule:evenodd;fill:#1D1D1B;enable-background:new    ;}
	.st12{fill-rule:evenodd;clip-rule:evenodd;fill:#059D84;}
	.st13{opacity:0.99;fill:#1D1D1B;enable-background:new    ;}
	.st14{fill-rule:evenodd;clip-rule:evenodd;fill:url(#SVGID_4_);}
	.st15{fill-rule:evenodd;clip-rule:evenodd;fill:url(#SVGID_5_);}
	.st16{fill-rule:evenodd;clip-rule:evenodd;fill:url(#SVGID_6_);}
	.st17{fill-rule:evenodd;clip-rule:evenodd;fill:url(#SVGID_7_);}
	.st18{fill:#85BC25;}
	.st19{fill-rule:evenodd;clip-rule:evenodd;fill:url(#SVGID_8_);}
	.st20{fill-rule:evenodd;clip-rule:evenodd;fill:url(#SVGID_9_);}
	.st21{fill-rule:evenodd;clip-rule:evenodd;fill:url(#SVGID_10_);}
	.st22{fill:url(#SVGID_11_);}
	.st23{fill:url(#SVGID_12_);}
	.st24{fill:url(#SVGID_13_);}
	.st25{fill:url(#SVGID_14_);}
	.st26{fill:url(#SVGID_15_);}
	.st27{fill:url(#SVGID_16_);}
	.st28{fill:url(#SVGID_17_);}
	.st29{fill:url(#SVGID_18_);}
	.st30{fill:url(#SVGID_19_);}
	.st31{fill-rule:evenodd;clip-rule:evenodd;fill:#474747;}
	.st32{fill:#616160;}
	.st33{opacity:0.39;}
	.st34{fill:#010101;}
	.st35{clip-path:url(#SVGID_21_);}
	.st36{opacity:0.7;fill:#312782;}
	.st37{opacity:0.7;fill:#009C84;}
	.st38{opacity:0.9;fill:#FFFFFF;}
	.st39{fill:#312782;}
	.st40{opacity:0.41;fill-rule:evenodd;clip-rule:evenodd;fill:#3F3F3F;enable-background:new    ;}
</style>
<g id="Ebene_1">
	<g>
		<g id="Ebene_1_1_">
			<polygon class="st0" points="644.1,936.2 652.1,139.6 1045.8,127.3 1005.1,936.2 			"/>
			<polygon class="st1" points="1045.8,127.3 1206,146.9 1154.9,936.2 1005.1,936.2 			"/>
			<polygon class="st1" points="666.2,579.9 1005.1,576.8 1025.8,198.1 672.8,208 			"/>
			
				<linearGradient id="SVGID_1_" gradientUnits="userSpaceOnUse" x1="849.2656" y1="-162.0189" x2="849.2656" y2="-64.8165" gradientTransform="matrix(1 0 0 -1 0 133.2756)">
				<stop  offset="0" style="stop-color:#A499CA"/>
				<stop  offset="1" style="stop-color:#551E38"/>
			</linearGradient>
			<polygon class="st2" points="672.8,208 759,295.3 1020.7,290.9 1025.8,198.1 			"/>
			<polygon class="st0" points="759,295.3 761,551.7 1006.5,551.7 1020.7,290.9 			"/>
			<polygon class="st3" points="755.7,369.8 666.2,579.9 1005.1,576.8 1016.7,363.2 			"/>
			<linearGradient id="SVGID_2_" gradientUnits="userSpaceOnUse" x1="684.9802" y1="468.1953" x2="1016.7469" y2="468.1953">
				<stop  offset="0" style="stop-color:#141414;stop-opacity:0.5"/>
				<stop  offset="5.458882e-02" style="stop-color:#232536;stop-opacity:0.547"/>
				<stop  offset="0.1612" style="stop-color:#3D4572;stop-opacity:0.6388"/>
				<stop  offset="0.2638" style="stop-color:#535EA5;stop-opacity:0.7271"/>
				<stop  offset="0.3597" style="stop-color:#6473CC;stop-opacity:0.8097"/>
				<stop  offset="0.4473" style="stop-color:#7081E8;stop-opacity:0.8851"/>
				<stop  offset="0.5239" style="stop-color:#778AF9;stop-opacity:0.951"/>
				<stop  offset="0.5808" style="stop-color:#7A8DFF"/>
				<stop  offset="0.7034" style="stop-color:#798CFD;stop-opacity:0.8363"/>
				<stop  offset="0.7623" style="stop-color:#7688F5;stop-opacity:0.7576"/>
				<stop  offset="0.8077" style="stop-color:#7081E8;stop-opacity:0.697"/>
				<stop  offset="0.8461" style="stop-color:#6878D6;stop-opacity:0.6456"/>
				<stop  offset="0.8802" style="stop-color:#5E6BBE;stop-opacity:0.6001"/>
				<stop  offset="0.9111" style="stop-color:#515CA0;stop-opacity:0.5587"/>
				<stop  offset="0.9398" style="stop-color:#414A7D;stop-opacity:0.5205"/>
				<stop  offset="0.9665" style="stop-color:#303554;stop-opacity:0.4847"/>
				<stop  offset="0.9909" style="stop-color:#1C1E27;stop-opacity:0.4522"/>
				<stop  offset="1" style="stop-color:#141414;stop-opacity:0.44"/>
			</linearGradient>
			<polygon class="st4" points="685,566.5 998.5,564.2 1007,538.5 1016.7,369.8 759.6,375.3 			"/>
			<polygon class="st0" points="734.8,694 734.8,619.4 919.3,619.4 914.7,694 			"/>
			<polygon class="st5" points="745.6,626.9 742.6,685.1 901.3,685.1 905.3,625 			"/>
			<polygon class="st1" points="742.9,678.5 901.7,678.5 905.3,625 745.6,626.9 			"/>
			<polygon class="st6" points="745.6,626.9 752.7,671.3 902.2,671.3 905.3,625 			"/>
			<polygon class="st1" points="919.3,619.4 923.4,619.4 921.4,694 914.7,694 			"/>
			<polygon class="st1" points="748.9,694 759,702.9 928.3,702.9 932.5,625 923.4,619.4 921.4,694 			"/>
			<polygon class="st1" points="644.8,867.3 1009,857.9 1008.8,862.6 644.8,869 			"/>
			<polygon class="st7" points="745.6,918.5 744.9,910.3 890.6,908.2 887.5,918.5 			"/>
			
				<linearGradient id="SVGID_3_" gradientUnits="userSpaceOnUse" x1="1131.4236" y1="-802.9713" x2="1131.4236" y2="-320.7806" gradientTransform="matrix(1 0 0 -1 0 133.2756)">
				<stop  offset="0" style="stop-color:#7C3553"/>
				<stop  offset="1" style="stop-color:#010101"/>
			</linearGradient>
			<polygon class="st8" points="1076.7,936.2 1120.3,471.5 1186.1,454.1 1154.9,936.2 			"/>
			<polygon class="st9" points="666.2,765.4 995.6,761.2 990.3,858.4 666.2,866.8 			"/>
			<polygon class="st10" points="672.2,771.6 756.5,770.5 756.5,858.2 672.2,860.4 			"/>
			<polygon class="st11" points="786.4,781.9 953.5,780.1 953,771.4 786.4,771.7 			"/>
			<polygon class="st12" points="833.9,862 833.9,828.6 874.7,827.4 873.1,861 			"/>
			<polygon class="st12" points="887.4,861.1 887.4,827.6 929.1,826.3 927.1,860.1 			"/>
			<polygon class="st12" points="936.3,859.8 936.3,826.3 977.8,826.3 975.5,858.8 			"/>
			<rect x="786.4" y="794" class="st13" width="25" height="7"/>
			<rect x="786.4" y="815.6" class="st13" width="37.9" height="7"/>
			<rect x="786.4" y="804.7" class="st13" width="67.5" height="7"/>
			<polygon class="st9" points="666.2,143.5 666.2,198.1 1025.4,189.4 1031.6,135.6 			"/>
			
				<radialGradient id="SVGID_4_" cx="952.3738" cy="-197.4537" r="41.1444" gradientTransform="matrix(1 0 0 -1 0 133.2756)" gradientUnits="userSpaceOnUse">
				<stop  offset="2.000000e-02" style="stop-color:#412843"/>
				<stop  offset="0.99" style="stop-color:#2A1333"/>
			</radialGradient>
			<polygon class="st14" points="899.7,354.4 899.7,307.2 1005.1,306.1 1005,355.4 			"/>
			
				<radialGradient id="SVGID_5_" cx="821.8904" cy="-199.7465" r="41.636" gradientTransform="matrix(1 0 0 -1 0 133.2756)" gradientUnits="userSpaceOnUse">
				<stop  offset="2.000000e-02" style="stop-color:#412843"/>
				<stop  offset="0.99" style="stop-color:#2A1333"/>
			</radialGradient>
			<polygon class="st15" points="769.2,359.3 769.2,307.2 874.6,306.8 874.5,355.4 			"/>
			
				<radialGradient id="SVGID_6_" cx="821.8904" cy="-216.2828" r="37.8424" gradientTransform="matrix(1 0 0 -1 0 133.2756)" gradientUnits="userSpaceOnUse">
				<stop  offset="0" style="stop-color:#E6DAE3"/>
				<stop  offset="1" style="stop-color:#B7A2BB"/>
			</radialGradient>
			<polygon class="st16" points="769.2,359.3 769.2,343 874.6,339.9 874.5,357.5 			"/>
			
				<linearGradient id="SVGID_7_" gradientUnits="userSpaceOnUse" x1="781.9742" y1="-216.248" x2="860.6255" y2="-216.248" gradientTransform="matrix(1 0 0 -1 0 133.2756)">
				<stop  offset="0" style="stop-color:#6F6086"/>
				<stop  offset="1" style="stop-color:#40204A"/>
			</linearGradient>
			<polygon class="st17" points="782,348 782,352.5 860.6,350.6 860.6,346.5 			"/>
			<path class="st18" d="M791.4,315.7h2.6v2.6h-2.6V315.7z M791.4,318.4h2.6v2.6h-2.6V318.4z M791.4,321.2h2.6v2.6h-2.6V321.2z
				 M791.4,323.9h2.6v2.6h-2.6V323.9z M791.4,326.7h2.6v2.6h-2.6V326.7z M794.2,312.8h2.6v2.6h-2.6V312.8z M794.2,329.3h2.6v2.6
				h-2.6V329.3z M797,312.8h2.6v2.6H797V312.8z M797,329.3h2.6v2.6H797V329.3z M799.8,312.8h2.6v2.6h-2.6V312.8z M799.8,329.3h2.6
				v2.6h-2.6V329.3z M802.6,315.4h2.4v2.6h-2.5L802.6,315.4z M802.6,326.4h2.4v2.6h-2.5L802.6,326.4z"/>
			<path class="st18" d="M805.8,321.2h2.5v2.6h-2.5V321.2z M805.8,323.9h2.5v2.6h-2.5V323.9z M805.8,326.7h2.5v2.6h-2.5V326.7z
				 M808.6,318.4h2.6v2.6h-2.6V318.4z M808.6,329.4h2.6v2.6h-2.6V329.4z M811.4,318.4h2.6v2.6h-2.6V318.4z M811.4,329.4h2.6v2.6
				h-2.6V329.4z M814.1,318.4h2.5v2.6h-2.5V318.4z M814.1,326.7h2.5v2.6h-2.5V326.7z M816.9,321.2h2.5v2.6h-2.5V321.2z M816.9,323.9
				h2.5v2.6h-2.5V323.9z M816.9,326.7h2.5v2.6h-2.5V326.7z M816.9,329.4h2.5v2.6h-2.5V329.4z"/>
			<path class="st18" d="M820.1,321.2h2.6v2.6h-2.6V321.2z M820.1,329.4h2.6v2.6h-2.6V329.4z M822.9,318.4h2.9v2.6h-2.6L822.9,318.4
				z M822.9,323.9h2.9v2.6h-2.6L822.9,323.9z M822.9,329.4h2.9v2.6h-2.6L822.9,329.4z M825.7,318.4h2.6v2.6h-2.4L825.7,318.4z
				 M825.7,323.9h2.6v2.6h-2.4L825.7,323.9z M825.7,329.4h2.6v2.6h-2.4L825.7,329.4z M828.5,318.4h2.6v2.6h-2.6V318.4z M828.5,323.9
				h2.6v2.6h-2.6V323.9z M828.5,329.4h2.6v2.6h-2.6V329.4z M831.2,326.7h2.6v2.6h-2.6V326.7z"/>
			<path class="st18" d="M834.5,312.9h2.5v2.6h-2.5V312.9z M834.5,315.7h2.5v2.6h-2.5V315.7z M834.5,318.4h2.5v2.6h-2.5V318.4z
				 M834.5,321.2h2.5v2.6h-2.5V321.2z M834.5,323.9h2.5v2.6h-2.5V323.9z M834.5,326.7h2.5v2.6h-2.5V326.7z M834.5,329.4h2.5v2.6
				h-2.5V329.4z M837.2,321.2h2.5v2.6h-2.6L837.2,321.2z M840.1,318.4h2.5v2.6h-2.5V318.4z M842.8,318.4h2.5v2.6h-2.5V318.4z
				 M845.6,321.2h2.5v2.6h-2.5V321.2z M845.6,323.9h2.5v2.6h-2.5V323.9z M845.6,326.7h2.5v2.6h-2.5V326.7z M845.6,329.4h2.5v2.6
				h-2.5V329.4z"/>
			
				<radialGradient id="SVGID_8_" cx="970.1593" cy="-190.6133" r="43.9113" gradientTransform="matrix(0.98 0 0 -1.04 -6.82 152.2766)" gradientUnits="userSpaceOnUse">
				<stop  offset="0" style="stop-color:#E6DAE3"/>
				<stop  offset="1" style="stop-color:#B7A2BB"/>
			</radialGradient>
			<polygon class="st19" points="884.4,358.2 884.7,343.9 1005.1,341.2 1004.9,359.5 			"/>
			
				<linearGradient id="SVGID_9_" gradientUnits="userSpaceOnUse" x1="914.1251" y1="-217.9155" x2="991.4562" y2="-217.9155" gradientTransform="matrix(1 0 0 -1 0 133.2756)">
				<stop  offset="0" style="stop-color:#6F6086"/>
				<stop  offset="1" style="stop-color:#40204A"/>
			</linearGradient>
			<polygon class="st20" points="914.1,349.6 914.1,354.4 991.5,353.5 991.5,348 			"/>
			<path class="st18" d="M923.1,316.7h2.5v2.7h-2.5V316.7z M923.1,319.5h2.5v2.7h-2.5V319.5z M923.1,322.5h2.5v2.6h-2.5V322.5z
				 M923.1,325.3h2.5v2.6h-2.5V325.3z M923.1,328.2h2.5v2.6h-2.5V328.2z M925.8,313.8h2.5v2.6h-2.5V313.8z M925.8,331h2.5v2.6h-2.5
				V331z M928.5,313.8h2.5v2.6h-2.5V313.8z M928.5,331h2.5v2.6h-2.5V331z M931.2,313.8h2.5v2.6h-2.5V313.8z M931.2,331h2.5v2.6h-2.5
				V331z M934,316.7h2.5v2.7H934V316.7z M934,328.2h2.5v2.6H934V328.2z"/>
			<path class="st18" d="M937,322.5h2.5v2.6H937V322.5z M937,325.3h2.5v2.6H937V325.3z M937,328.2h2.5v2.6H937V328.2z M939.7,319.5
				h2.6v2.7h-2.6V319.5z M939.7,331h2.6v2.6h-2.6V331z M942.5,319.5h2.5v2.7h-2.5V319.5z M942.5,331h2.5v2.6h-2.5V331z M945.2,319.5
				h2.5v2.7h-2.5V319.5z M945.2,328.2h2.5v2.6h-2.5V328.2z M948,322.5h2.4v2.6H948V322.5z M948,325.3h2.4v2.6H948V325.3z M948,328.2
				h2.4v2.6H948V328.2z M948,331h2.4v2.6H948V331z"/>
			<path class="st18" d="M950.9,319.5h2.5v2.7h-2.5V319.5z M950.9,322.5h2.5v2.6h-2.5V322.5z M950.9,325.3h2.5v2.6h-2.5V325.3z
				 M950.9,328.2h2.5v2.6h-2.5V328.2z M950.9,331h2.5v2.6h-2.5V331z M953.6,322.5h2.5v2.6h-2.5V322.5z M956.4,319.5h2.5v2.7h-2.5
				V319.5z M959.1,319.5h2.5v2.7h-2.5V319.5z M961.8,322.5h3v2.6H962L961.8,322.5z"/>
			<path class="st18" d="M965.2,322.5h2.5v2.6h-2.5V322.5z M965.2,325.3h2.5v2.6h-2.5V325.3z M965.2,328.2h2.5v2.6h-2.5V328.2z
				 M967.9,319.5h2.5v2.7h-2.5V319.5z M967.9,331h2.5v2.6h-2.5V331z M970.6,319.5h2.6v2.7h-2.6V319.5z M970.6,331h2.6v2.6h-2.6V331z
				 M973.4,322.5h2.5v2.6h-2.5V322.5z M973.4,331h2.5v2.6h-2.5V331z M976.1,313.8h2.6v2.6h-2.5L976.1,313.8z M976.1,316.7h2.6v2.7
				h-2.5L976.1,316.7z M976.1,319.5h2.6v2.7h-2.5L976.1,319.5z M976.1,322.5h2.6v2.6h-2.5L976.1,322.5z M976.1,325.3h2.6v2.6h-2.5
				L976.1,325.3z M976.1,328.2h2.6v2.6h-2.5L976.1,328.2z"/>
			
				<radialGradient id="SVGID_10_" cx="926.1785" cy="-166.5037" r="17.6479" gradientTransform="matrix(0.98 0 0 -1.04 -6.82 152.2766)" gradientUnits="userSpaceOnUse">
				<stop  offset="2.000000e-02" style="stop-color:#412843"/>
				<stop  offset="0.99" style="stop-color:#2A1333"/>
			</radialGradient>
			<polygon class="st21" points="884.7,343.9 884.4,306.8 918.7,307 917.4,343.2 			"/>
			<g>
				
					<radialGradient id="SVGID_11_" cx="916.8682" cy="-155.8038" r="3.474" gradientTransform="matrix(0.98 0 0 -1.04 -6.82 152.2766)" gradientUnits="userSpaceOnUse">
					<stop  offset="0" style="stop-color:#E6DAE3"/>
					<stop  offset="1" style="stop-color:#C1AFC4"/>
				</radialGradient>
				<rect x="889" y="310.6" class="st22" width="6.9" height="7.3"/>
				
					<radialGradient id="SVGID_12_" cx="926.4564" cy="-155.8038" r="3.474" gradientTransform="matrix(0.98 0 0 -1.04 -6.82 152.2766)" gradientUnits="userSpaceOnUse">
					<stop  offset="0" style="stop-color:#E6DAE3"/>
					<stop  offset="1" style="stop-color:#C1AFC4"/>
				</radialGradient>
				<rect x="898.4" y="310.6" class="st23" width="6.9" height="7.3"/>
				
					<radialGradient id="SVGID_13_" cx="935.4888" cy="-155.8038" r="3.474" gradientTransform="matrix(0.98 0 0 -1.04 -6.82 152.2766)" gradientUnits="userSpaceOnUse">
					<stop  offset="0" style="stop-color:#E6DAE3"/>
					<stop  offset="1" style="stop-color:#C1AFC4"/>
				</radialGradient>
				<rect x="907.3" y="310.6" class="st24" width="6.9" height="7.3"/>
				
					<radialGradient id="SVGID_14_" cx="916.8682" cy="-166.5037" r="3.474" gradientTransform="matrix(0.98 0 0 -1.04 -6.82 152.2766)" gradientUnits="userSpaceOnUse">
					<stop  offset="0" style="stop-color:#E6DAE3"/>
					<stop  offset="1" style="stop-color:#C1AFC4"/>
				</radialGradient>
				<rect x="889" y="321.7" class="st25" width="6.9" height="7.3"/>
				
					<radialGradient id="SVGID_15_" cx="926.4564" cy="-166.5037" r="3.474" gradientTransform="matrix(0.98 0 0 -1.04 -6.82 152.2766)" gradientUnits="userSpaceOnUse">
					<stop  offset="0" style="stop-color:#E6DAE3"/>
					<stop  offset="1" style="stop-color:#C1AFC4"/>
				</radialGradient>
				<rect x="898.4" y="321.7" class="st26" width="6.9" height="7.3"/>
				
					<radialGradient id="SVGID_16_" cx="935.4888" cy="-166.5037" r="3.474" gradientTransform="matrix(0.98 0 0 -1.04 -6.82 152.2766)" gradientUnits="userSpaceOnUse">
					<stop  offset="0" style="stop-color:#E6DAE3"/>
					<stop  offset="1" style="stop-color:#C1AFC4"/>
				</radialGradient>
				<rect x="907.3" y="321.7" class="st27" width="6.9" height="7.3"/>
				
					<radialGradient id="SVGID_17_" cx="916.8682" cy="-177.2036" r="3.474" gradientTransform="matrix(0.98 0 0 -1.04 -6.82 152.2766)" gradientUnits="userSpaceOnUse">
					<stop  offset="0" style="stop-color:#E6DAE3"/>
					<stop  offset="1" style="stop-color:#C1AFC4"/>
				</radialGradient>
				<rect x="889" y="332.8" class="st28" width="6.9" height="7.3"/>
				
					<radialGradient id="SVGID_18_" cx="926.4564" cy="-177.2036" r="3.474" gradientTransform="matrix(0.98 0 0 -1.04 -6.82 152.2766)" gradientUnits="userSpaceOnUse">
					<stop  offset="0" style="stop-color:#E6DAE3"/>
					<stop  offset="1" style="stop-color:#C1AFC4"/>
				</radialGradient>
				<rect x="898.4" y="332.8" class="st29" width="6.9" height="7.3"/>
				
					<radialGradient id="SVGID_19_" cx="935.4888" cy="-177.2036" r="3.474" gradientTransform="matrix(0.98 0 0 -1.04 -6.82 152.2766)" gradientUnits="userSpaceOnUse">
					<stop  offset="0" style="stop-color:#E6DAE3"/>
					<stop  offset="1" style="stop-color:#C1AFC4"/>
				</radialGradient>
				<rect x="907.3" y="332.8" class="st30" width="6.9" height="7.3"/>
			</g>
			<polygon class="st31" points="1066.3,352.5 1154.9,359.3 1131.4,733.1 1045.3,733.1 			"/>
			<polygon class="st1" points="1076.7,370.7 1065.7,551.7 1135.6,552.1 1149.6,375.8 			"/>
			<polygon class="st1" points="1056.8,723.4 1060,702.9 1125.8,702.9 1125.8,723.4 			"/>
			<rect x="665.5" y="579.9" class="st32" width="1.4" height="286.9"/>
			<polygon class="st32" points="991,863 989.6,862.9 1004.4,576.7 1005.8,576.8 			"/>
			<polygon class="st12" points="860.6,193.4 860.6,139.3 1031.6,135.6 1025.4,189.4 			"/>
			<g class="st33">
				
					<ellipse transform="matrix(1 -1.396262e-03 1.396262e-03 1 -0.8685 1.3666)" class="st34" cx="978.3" cy="622.7" rx="4.7" ry="4.4"/>
			</g>
			<g class="st33">
				<path class="st34" d="M963,622.3c-0.2,0.1-0.5,0.1-0.8,0c-1.2-0.4-1.9-1.7-1.5-2.9c0,0,0-0.1,0-0.1c2.1-7.7,8.8-13.2,16.7-13.9
					c3.2-0.1,6.4,0.7,9.2,2.4c1.1,0.8,1.3,2.2,0.6,3.3c-0.6,0.9-1.8,1.2-2.8,0.8c-2.1-1.3-4.5-1.9-6.9-1.8
					c-5.8,0.7-10.6,4.8-12.2,10.5C964.9,621.6,964,622.3,963,622.3z"/>
			</g>
			<g class="st33">
				<path class="st34" d="M950.3,618.4c-0.3,0.1-0.6,0.1-0.9,0c-1.2-0.5-1.8-1.8-1.3-3c0,0,0-0.1,0-0.1c4.4-12.3,15.3-21.2,28.3-23
					c5.1-0.4,10.3,0.7,14.9,3c1.2,0.6,1.6,2,1,3.2c-0.6,1.1-1.9,1.6-3.1,1c-3.8-2-8.1-2.9-12.4-2.6c-11.2,1.8-20.5,9.5-24.3,20.1
					C952,617.9,951.1,618.4,950.3,618.4z"/>
			</g>
		</g>
	</g>
</g>
<g id="Ebene_3">
</g>
<g id="Ebene_2">
	<g>
		<defs>
			<polygon id="SVGID_20_" points="951,479.3 720.7,475.6 758.8,375.2 908.6,372.8 			"/>
		</defs>
		<clipPath id="SVGID_21_">
			<use xlink:href="#SVGID_20_"  style="overflow:visible;"/>
		</clipPath>
		<g class="st35">
			<path class="st36" d="M789.8,423.8l-48.9-85.9c-4.6-8-1.7-18.6,6.3-23.8l1.4-0.9c8.1-5.2,18.4-2.9,23.1,5l50.3,85.5
				c5.1,8.7,2.3,20.1-6.3,25.3l-1.5,0.9C805.7,435.4,794.8,432.5,789.8,423.8z"/>
			<path class="st37" d="M806.2,432.9l-70.4-0.2c-9.5,0-16.8-8.1-16.5-18l0.1-1.8c0.3-9.8,8.1-17.8,17.5-17.9l69.7-0.7
				c9.9-0.1,17.8,8,17.8,18.2l0,1.8C824.3,424.6,816.1,432.9,806.2,432.9z"/>
			<path class="st38" d="M821.1,413.4c0,8.6-6.9,15.6-15.2,15.5c-8.3,0-14.9-6.9-14.8-15.4c0.1-8.5,6.8-15.3,15.1-15.4
				C814.4,398.1,821.1,404.9,821.1,413.4z"/>
			<g>
				<path class="st39" d="M783.6,411.4l0,2c-0.1,5.7-1.7,9.9-5.4,13.7c-3.6,3.7-8.2,5.7-13.2,5.7c-10.3,0-17.9-8.2-17.6-18.9
					c0.3-10.8,8-19,18.3-19.1c5.7-0.1,10.7,2.4,14.1,6.9l-5.5,4.5c-2.5-3.2-5.1-4.5-8.6-4.5c-6.1,0-10.9,5.3-11.1,12.2
					c-0.1,6.8,4.6,12.1,10.7,12.1c3,0,6.1-1.4,8-3.7c1.1-1.3,1.6-2.4,2.3-4.6l-9.8,0l0.1-6.1L783.6,411.4z"/>
				<path class="st39" d="M819.7,400.5c3.1,3.5,4.6,7.8,4.6,13.2c0,10.6-8.4,19.2-18.7,19.2c-10.6,0-18.7-8.4-18.5-19.1
					c0.1-10.9,8.4-19.3,19-19.4C811.3,394.4,816.2,396.5,819.7,400.5z M794.6,413.7c-0.1,6.9,4.7,12.2,10.9,12.2
					c6.2,0,11.2-5.3,11.2-12.1c0-7.2-4.6-12.4-11-12.4C799.4,401.5,794.7,406.7,794.6,413.7z"/>
			</g>
		</g>
	</g>
	<polygon class="st40" points="672.8,207.5 742.9,399.3 1014.9,397.2 1025.8,197.7 	"/>
</g>
</svg>
