<?xml version="1.0" encoding="utf-8"?>
<!-- Generator: Adobe Illustrator 25.2.0, SVG Export Plug-In . SVG Version: 6.00 Build 0)  -->
<svg version="1.1" id="Ebene_1" xmlns="http://www.w3.org/2000/svg" xmlns:xlink="http://www.w3.org/1999/xlink" x="0px" y="0px"
	 viewBox="0 0 2083.4 1636.5" style="enable-background:new 0 0 2083.4 1636.5;" xml:space="preserve">
<style type="text/css">
	.st0{fill:url(#SVGID_1_);}
	.st1{fill:url(#SVGID_2_);}
	.st2{fill:url(#SVGID_3_);}
	.st3{fill:url(#SVGID_4_);}
	.st4{fill:#020203;}
	.st5{fill:url(#SVGID_5_);}
	.st6{fill:url(#SVGID_6_);}
	.st7{fill:url(#SVGID_7_);}
	.st8{fill:url(#SVGID_8_);}
	.st9{fill-rule:evenodd;clip-rule:evenodd;fill:#B3B2B2;}
	.st10{fill-rule:evenodd;clip-rule:evenodd;fill:#626261;}
	.st11{opacity:0.5;fill-rule:evenodd;clip-rule:evenodd;fill:url(#SVGID_9_);enable-background:new    ;}
	.st12{fill-rule:evenodd;clip-rule:evenodd;fill:#A3A1A1;}
	.st13{fill-rule:evenodd;clip-rule:evenodd;fill:url(#SVGID_10_);}
	.st14{fill-rule:evenodd;clip-rule:evenodd;fill:#777778;}
	.st15{fill-rule:evenodd;clip-rule:evenodd;fill:#1E1E1C;}
	.st16{fill-rule:evenodd;clip-rule:evenodd;fill:#2F2F7D;}
	.st17{opacity:0.2;fill-rule:evenodd;clip-rule:evenodd;fill:url(#SVGID_11_);enable-background:new    ;}
	.st18{fill-rule:evenodd;clip-rule:evenodd;fill:#C3E1D4;}
	.st19{fill-rule:evenodd;clip-rule:evenodd;fill:#EF7F0A;}
	.st20{opacity:0.99;fill-rule:evenodd;clip-rule:evenodd;fill:#1E1E1C;enable-background:new    ;}
	.st21{fill-rule:evenodd;clip-rule:evenodd;fill:#049D84;}
	.st22{opacity:0.99;fill:#1E1E1C;enable-background:new    ;}
	.st23{fill-rule:evenodd;clip-rule:evenodd;fill:url(#SVGID_12_);}
	.st24{fill-rule:evenodd;clip-rule:evenodd;fill:url(#SVGID_13_);}
	.st25{fill-rule:evenodd;clip-rule:evenodd;fill:url(#SVGID_14_);}
	.st26{fill-rule:evenodd;clip-rule:evenodd;fill:url(#SVGID_15_);}
	.st27{fill:#86BC28;}
	.st28{fill-rule:evenodd;clip-rule:evenodd;fill:url(#SVGID_16_);}
	.st29{fill-rule:evenodd;clip-rule:evenodd;fill:url(#SVGID_17_);}
	.st30{fill-rule:evenodd;clip-rule:evenodd;fill:url(#SVGID_18_);}
	.st31{fill:url(#SVGID_19_);}
	.st32{fill:url(#SVGID_20_);}
	.st33{fill:url(#SVGID_21_);}
	.st34{fill:url(#SVGID_22_);}
	.st35{fill:url(#SVGID_23_);}
	.st36{fill:url(#SVGID_24_);}
	.st37{fill:url(#SVGID_25_);}
	.st38{fill:url(#SVGID_26_);}
	.st39{fill:url(#SVGID_27_);}
	.st40{fill-rule:evenodd;clip-rule:evenodd;fill:#484848;}
	.st41{fill:#626261;}
	.st42{opacity:0.39;}
	.st43{fill:#020303;}
	.st44{clip-path:url(#SVGID_29_);}
	.st45{opacity:0.7;fill:#302D7D;enable-background:new    ;}
	.st46{opacity:0.7;fill:#059D84;enable-background:new    ;}
	.st47{opacity:0.9;fill:#FFFFFF;enable-background:new    ;}
	.st48{fill:#302D7D;}
	.st49{opacity:0.41;fill-rule:evenodd;clip-rule:evenodd;fill:#3F3F3F;enable-background:new    ;}
	.st50{opacity:0.5;fill-rule:evenodd;clip-rule:evenodd;fill:url(#SVGID_30_);enable-background:new    ;}
	.st51{fill-rule:evenodd;clip-rule:evenodd;fill:url(#SVGID_31_);}
	.st52{opacity:0.2;fill-rule:evenodd;clip-rule:evenodd;fill:url(#SVGID_32_);enable-background:new    ;}
	.st53{fill-rule:evenodd;clip-rule:evenodd;fill:url(#SVGID_33_);}
	.st54{fill-rule:evenodd;clip-rule:evenodd;fill:url(#SVGID_34_);}
	.st55{fill-rule:evenodd;clip-rule:evenodd;fill:url(#SVGID_35_);}
	.st56{fill-rule:evenodd;clip-rule:evenodd;fill:url(#SVGID_36_);}
	.st57{fill-rule:evenodd;clip-rule:evenodd;fill:url(#SVGID_37_);}
	.st58{fill-rule:evenodd;clip-rule:evenodd;fill:url(#SVGID_38_);}
	.st59{fill-rule:evenodd;clip-rule:evenodd;fill:url(#SVGID_39_);}
	.st60{fill:url(#SVGID_40_);}
	.st61{fill:url(#SVGID_41_);}
	.st62{fill:url(#SVGID_42_);}
	.st63{fill:url(#SVGID_43_);}
	.st64{fill:url(#SVGID_44_);}
	.st65{fill:url(#SVGID_45_);}
	.st66{fill:url(#SVGID_46_);}
	.st67{fill:url(#SVGID_47_);}
	.st68{fill:url(#SVGID_48_);}
	.st69{clip-path:url(#SVGID_50_);}
</style>
<g id="Ebene_4">
	<g>
		<g>
			<g id="Ebene_1_2_">
				<polygon class="st9" points="43.2,1559.4 58.3,67.8 795.4,44.8 719.2,1559.4 				"/>
				<polygon class="st10" points="795.4,44.8 1095.4,81.5 999.6,1559.4 719.2,1559.4 				"/>
				<polygon class="st10" points="84.7,892.2 719.2,886.3 757.9,177.4 97,195.8 				"/>
				
					<linearGradient id="SVGID_1_" gradientUnits="userSpaceOnUse" x1="427.4338" y1="9109.7842" x2="427.4338" y2="8927.7939" gradientTransform="matrix(1 0 0 1 0 -8750.4287)">
					<stop  offset="0" style="stop-color:#A499CA"/>
					<stop  offset="1" style="stop-color:#561F39"/>
				</linearGradient>
				<polygon style="opacity:0.5;fill-rule:evenodd;clip-rule:evenodd;fill:url(#SVGID_1_);enable-background:new    ;" points="
					97,195.8 258.5,359.4 748.4,351.2 757.9,177.4 				"/>
				<polygon class="st9" points="258.5,359.4 262.2,839.4 721.8,839.4 748.4,351.2 				"/>
				<polygon class="st12" points="252.3,498.9 84.7,892.2 719.2,886.3 741,486.4 				"/>
				
					<linearGradient id="SVGID_2_" gradientUnits="userSpaceOnUse" x1="119.8538" y1="245.6963" x2="741.0038" y2="245.6963" gradientTransform="matrix(1 0 0 -1 0 928.767)">
					<stop  offset="0" style="stop-color:#141414;stop-opacity:0.5"/>
					<stop  offset="3.400000e-02" style="stop-color:#1E1F22;stop-opacity:0.5292"/>
					<stop  offset="0.1448" style="stop-color:#393C4B;stop-opacity:0.6247"/>
					<stop  offset="0.2514" style="stop-color:#4F5571;stop-opacity:0.7164"/>
					<stop  offset="0.3511" style="stop-color:#606991;stop-opacity:0.8022"/>
					<stop  offset="0.4421" style="stop-color:#6C78AB;stop-opacity:0.8806"/>
					<stop  offset="0.5216" style="stop-color:#7482BC;stop-opacity:0.949"/>
					<stop  offset="0.5808" style="stop-color:#7685C1"/>
					<stop  offset="0.7053" style="stop-color:#7584BF;stop-opacity:0.8337"/>
					<stop  offset="0.7652" style="stop-color:#7280B8;stop-opacity:0.7537"/>
					<stop  offset="0.8113" style="stop-color:#6C78AB;stop-opacity:0.6921"/>
					<stop  offset="0.8504" style="stop-color:#646E9A;stop-opacity:0.6399"/>
					<stop  offset="0.885" style="stop-color:#5A6285;stop-opacity:0.5937"/>
					<stop  offset="0.9164" style="stop-color:#4D526D;stop-opacity:0.5517"/>
					<stop  offset="0.9455" style="stop-color:#3E4152;stop-opacity:0.5129"/>
					<stop  offset="0.9726" style="stop-color:#2C2D36;stop-opacity:0.4765"/>
					<stop  offset="0.9974" style="stop-color:#171718;stop-opacity:0.4435"/>
					<stop  offset="1" style="stop-color:#141414;stop-opacity:0.44"/>
				</linearGradient>
				<polygon style="fill-rule:evenodd;clip-rule:evenodd;fill:url(#SVGID_2_);" points="119.9,867.2 706.8,862.8 722.7,814.8 
					741,498.9 259.6,509.1 				"/>
				<polygon class="st9" points="213.1,1105.9 213.1,966.2 558.6,966.2 549.9,1105.9 				"/>
				<polygon class="st14" points="233.3,980.1 227.8,1089.1 524.8,1089.1 532.3,976.6 				"/>
				<polygon class="st10" points="228.3,1076.9 525.6,1076.9 532.3,976.6 233.3,980.1 				"/>
				<polygon class="st15" points="233.3,980.1 246.6,1063.4 526.5,1063.4 532.3,976.6 				"/>
				<polygon class="st10" points="558.6,966.2 566.3,966.2 562.5,1105.9 549.9,1105.9 				"/>
				<polygon class="st10" points="239.5,1105.9 258.5,1122.6 575.4,1122.6 583.3,976.6 566.3,966.2 562.5,1105.9 				"/>
				<polygon class="st10" points="44.5,1430.3 726.6,1412.8 726.2,1421.5 44.5,1433.5 				"/>
				<polygon class="st16" points="233.3,1526.1 232,1510.9 504.8,1506.8 499,1526.1 				"/>
				
					<linearGradient id="SVGID_3_" gradientUnits="userSpaceOnUse" x1="955.7088" y1="10309.8145" x2="955.7088" y2="9407.0244" gradientTransform="matrix(1 0 0 1 0 -8750.4287)">
					<stop  offset="0" style="stop-color:#7D3654"/>
					<stop  offset="1" style="stop-color:#020303"/>
				</linearGradient>
				<polygon style="opacity:0.2;fill-rule:evenodd;clip-rule:evenodd;fill:url(#SVGID_3_);enable-background:new    ;" points="
					853.3,1559.4 935,689.2 1058.2,656.6 999.6,1559.4 				"/>
				<polygon class="st18" points="84.7,1239.5 701.3,1231.6 691.4,1413.7 84.7,1429.3 				"/>
				<polygon class="st19" points="95.9,1251.2 253.7,1249.1 253.7,1413.3 95.9,1417.3 				"/>
				<polygon class="st20" points="309.8,1270.3 622.6,1267.1 621.7,1250.7 309.8,1251.3 				"/>
				<polygon class="st21" points="398.8,1420.3 398.8,1357.8 475.1,1355.5 472.1,1418.5 				"/>
				<polygon class="st21" points="498.9,1418.6 498.9,1356.1 576.8,1353.6 573.2,1416.8 				"/>
				<polygon class="st21" points="590.4,1416.3 590.4,1353.6 668.2,1353.6 663.7,1414.3 				"/>
				<rect x="309.8" y="1293" class="st22" width="46.8" height="13.1"/>
				<rect x="309.8" y="1333.4" class="st22" width="71" height="13.1"/>
				<rect x="309.8" y="1313.1" class="st22" width="126.4" height="13.1"/>
				<polygon class="st18" points="84.7,75.1 84.7,177.4 757.3,161.1 768.8,60.4 				"/>
				
					<radialGradient id="SVGID_4_" cx="620.4838" cy="9176.124" r="77.0336" gradientTransform="matrix(1 0 0 1 0 -8750.4287)" gradientUnits="userSpaceOnUse">
					<stop  offset="2.000000e-02" style="stop-color:#422944"/>
					<stop  offset="0.99" style="stop-color:#2B1433"/>
				</radialGradient>
				<polygon style="fill-rule:evenodd;clip-rule:evenodd;fill:url(#SVGID_4_);" points="521.8,469.9 521.8,381.6 719.2,379.5 
					719,471.9 				"/>
				
					<radialGradient id="SVGID_5_" cx="376.1839" cy="9180.4141" r="77.9534" gradientTransform="matrix(1 0 0 1 0 -8750.4287)" gradientUnits="userSpaceOnUse">
					<stop  offset="2.000000e-02" style="stop-color:#422944"/>
					<stop  offset="0.99" style="stop-color:#2B1433"/>
				</radialGradient>
				<polygon style="fill-rule:evenodd;clip-rule:evenodd;fill:url(#SVGID_5_);" points="277.5,479.2 277.5,381.6 474.9,380.8 
					474.6,471.9 				"/>
				
					<radialGradient id="SVGID_6_" cx="376.1839" cy="9211.377" r="70.8494" gradientTransform="matrix(1 0 0 1 0 -8750.4287)" gradientUnits="userSpaceOnUse">
					<stop  offset="0" style="stop-color:#E6DAE3"/>
					<stop  offset="1" style="stop-color:#B7A2BB"/>
				</radialGradient>
				<polygon style="fill-rule:evenodd;clip-rule:evenodd;fill:url(#SVGID_6_);" points="277.5,479.2 277.5,448.6 474.9,442.9 
					474.6,475.8 				"/>
				
					<linearGradient id="SVGID_7_" gradientUnits="userSpaceOnUse" x1="301.4438" y1="9211.3145" x2="448.7039" y2="9211.3145" gradientTransform="matrix(1 0 0 1 0 -8750.4287)">
					<stop  offset="0" style="stop-color:#706187"/>
					<stop  offset="1" style="stop-color:#41214B"/>
				</linearGradient>
				<polygon style="fill-rule:evenodd;clip-rule:evenodd;fill:url(#SVGID_7_);" points="301.4,458.1 301.4,466.5 448.7,462.9 
					448.7,455.2 				"/>
				<path class="st27" d="M319.1,397.5h4.8v4.8h-4.8V397.5z M319.1,402.7h4.8v4.8h-4.8V402.7z M319.1,407.9h4.8v4.8h-4.8V407.9z
					 M319.1,412.9h4.8v4.8h-4.8V412.9z M319.1,418.1h4.8v4.8h-4.8V418.1z M324.3,392.1h4.8v4.8h-4.8V392.1z M324.3,423h4.8v4.8h-4.8
					V423z M329.5,392.1h4.8v4.8h-4.8V392.1z M329.5,423h4.8v4.8h-4.8V423z M334.8,392.1h4.8v4.8h-4.8V392.1z M334.8,423h4.8v4.8
					h-4.8V423z M340.1,396.9h4.4v4.8h-4.7L340.1,396.9z M340.1,417.6h4.4v4.8h-4.7L340.1,417.6z"/>
				<path class="st27" d="M346.1,407.9h4.7v4.8h-4.7V407.9z M346.1,412.9h4.7v4.8h-4.7V412.9z M346.1,418.1h4.7v4.8h-4.7V418.1z
					 M351.3,402.7h4.8v4.8h-4.8V402.7z M351.3,423.2h4.8v4.8h-4.8V423.2z M356.5,402.7h4.8v4.8h-4.8V402.7z M356.5,423.2h4.8v4.8
					h-4.8V423.2z M361.7,402.7h4.7v4.8h-4.7V402.7z M361.7,418.1h4.7v4.8h-4.7V418.1z M366.9,407.9h4.7v4.8h-4.7V407.9z
					 M366.9,412.9h4.7v4.8h-4.7V412.9z M366.9,418.1h4.7v4.8h-4.7V418.1z M366.9,423.2h4.7v4.8h-4.7V423.2z"/>
				<path class="st27" d="M372.9,407.9h4.8v4.8h-4.8V407.9z M372.9,423.2h4.8v4.8h-4.8V423.2z M378.1,402.7h5.5v4.8h-4.8
					L378.1,402.7z M378.1,412.9h5.5v4.8h-4.8L378.1,412.9z M378.1,423.2h5.5v4.8h-4.8L378.1,423.2z M383.3,402.7h4.8v4.8h-4.6
					L383.3,402.7z M383.3,412.9h4.8v4.8h-4.6L383.3,412.9z M383.3,423.2h4.8v4.8h-4.6L383.3,423.2z M388.5,402.7h4.8v4.8h-4.8V402.7
					z M388.5,412.9h4.8v4.8h-4.8V412.9z M388.5,423.2h4.8v4.8h-4.8V423.2z M393.7,418.1h4.8v4.8h-4.8V418.1z"/>
				<path class="st27" d="M399.8,392.4h4.7v4.8h-4.7V392.4z M399.8,397.5h4.7v4.8h-4.7V397.5z M399.8,402.7h4.7v4.8h-4.7V402.7z
					 M399.8,407.9h4.7v4.8h-4.7V407.9z M399.8,412.9h4.7v4.8h-4.7V412.9z M399.8,418.1h4.7v4.8h-4.7V418.1z M399.8,423.2h4.7v4.8
					h-4.7V423.2z M404.9,407.9h4.7v4.8h-4.8L404.9,407.9z M410.2,402.7h4.7v4.8h-4.7V402.7z M415.4,402.7h4.7v4.8h-4.7V402.7z
					 M420.6,407.9h4.7v4.8h-4.7V407.9z M420.6,412.9h4.7v4.8h-4.7V412.9z M420.6,418.1h4.7v4.8h-4.7V418.1z M420.6,423.2h4.7v4.8
					h-4.7V423.2z"/>
				
					<radialGradient id="SVGID_8_" cx="528.0963" cy="9029.2461" r="82.2136" gradientTransform="matrix(0.98 0 0 1.04 87.1488 -8927.6768)" gradientUnits="userSpaceOnUse">
					<stop  offset="0" style="stop-color:#E6DAE3"/>
					<stop  offset="1" style="stop-color:#B7A2BB"/>
				</radialGradient>
				<polygon style="fill-rule:evenodd;clip-rule:evenodd;fill:url(#SVGID_8_);" points="493.2,477.1 493.7,450.3 719.2,445.3 
					718.9,479.5 				"/>
				
					<linearGradient id="SVGID_9_" gradientUnits="userSpaceOnUse" x1="548.8739" y1="9214.4346" x2="693.6538" y2="9214.4346" gradientTransform="matrix(1 0 0 1 0 -8750.4287)">
					<stop  offset="0" style="stop-color:#706187"/>
					<stop  offset="1" style="stop-color:#41214B"/>
				</linearGradient>
				<polygon style="fill-rule:evenodd;clip-rule:evenodd;fill:url(#SVGID_9_);" points="548.9,461.1 548.9,469.9 693.7,468.4 
					693.7,458.1 				"/>
				<path class="st27" d="M565.7,399.4h4.7v5.1h-4.7V399.4z M565.7,404.8h4.7v5.1h-4.7V404.8z M565.7,410.2h4.7v4.9h-4.7V410.2z
					 M565.7,415.5h4.7v4.9h-4.7V415.5z M565.7,420.9h4.7v4.9h-4.7V420.9z M570.7,394.1h4.7v4.9h-4.7V394.1z M570.7,426.2h4.7v4.9
					h-4.7V426.2z M575.8,394.1h4.7v4.9h-4.7V394.1z M575.8,426.2h4.7v4.9h-4.7V426.2z M580.9,394.1h4.7v4.9h-4.7V394.1z
					 M580.9,426.2h4.7v4.9h-4.7V426.2z M586.1,399.4h4.7v5.1h-4.7V399.4z M586.1,420.9h4.7v4.9h-4.7V420.9z"/>
				<path class="st27" d="M591.7,410.2h4.7v4.9h-4.7V410.2z M591.7,415.5h4.7v4.9h-4.7V415.5z M591.7,420.9h4.7v4.9h-4.7V420.9z
					 M596.7,404.8h4.8v5.1h-4.8V404.8z M596.7,426.2h4.8v4.9h-4.8V426.2z M601.9,404.8h4.7v5.1h-4.7V404.8z M601.9,426.2h4.7v4.9
					h-4.7V426.2z M607,404.8h4.7v5.1H607V404.8z M607,420.9h4.7v4.9H607V420.9z M612.2,410.2h4.6v4.9h-4.6V410.2z M612.2,415.5h4.6
					v4.9h-4.6V415.5z M612.2,420.9h4.6v4.9h-4.6V420.9z M612.2,426.2h4.6v4.9h-4.6V426.2z"/>
				<path class="st27" d="M617.7,404.8h4.7v5.1h-4.7V404.8z M617.7,410.2h4.7v4.9h-4.7V410.2z M617.7,415.5h4.7v4.9h-4.7V415.5z
					 M617.7,420.9h4.7v4.9h-4.7V420.9z M617.7,426.2h4.7v4.9h-4.7V426.2z M622.8,410.2h4.7v4.9h-4.7V410.2z M628,404.8h4.7v5.1H628
					V404.8z M633,404.8h4.7v5.1H633V404.8z M638.1,410.2h5.6v4.9h-5.2L638.1,410.2z"/>
				<path class="st27" d="M644.5,410.2h4.7v4.9h-4.7V410.2z M644.5,415.5h4.7v4.9h-4.7V415.5z M644.5,420.9h4.7v4.9h-4.7V420.9z
					 M649.6,404.8h4.7v5.1h-4.7V404.8z M649.6,426.2h4.7v4.9h-4.7V426.2z M654.6,404.8h4.8v5.1h-4.8V404.8z M654.6,426.2h4.8v4.9
					h-4.8V426.2z M659.8,410.2h4.7v4.9h-4.7V410.2z M659.8,426.2h4.7v4.9h-4.7V426.2z M664.9,394.1h4.8v4.9H665L664.9,394.1z
					 M664.9,399.4h4.8v5.1H665L664.9,399.4z M664.9,404.8h4.8v5.1H665L664.9,404.8z M664.9,410.2h4.8v4.9H665L664.9,410.2z
					 M664.9,415.5h4.8v4.9H665L664.9,415.5z M664.9,420.9h4.8v4.9H665L664.9,420.9z"/>
				
					<radialGradient id="SVGID_10_" cx="445.7527" cy="8984.1064" r="33.0415" gradientTransform="matrix(0.98 0 0 1.04 87.1488 -8927.6768)" gradientUnits="userSpaceOnUse">
					<stop  offset="2.000000e-02" style="stop-color:#422944"/>
					<stop  offset="0.99" style="stop-color:#2B1433"/>
				</radialGradient>
				<polygon class="st13" points="493.7,450.3 493.2,380.8 557.5,381.2 555,449 				"/>
				<g>
					
						<radialGradient id="SVGID_11_" cx="428.3213" cy="8964.0732" r="6.5042" gradientTransform="matrix(0.98 0 0 1.04 87.1488 -8927.6768)" gradientUnits="userSpaceOnUse">
						<stop  offset="0" style="stop-color:#E6DAE3"/>
						<stop  offset="1" style="stop-color:#C1AFC4"/>
					</radialGradient>
					<rect x="501.8" y="388" style="fill:url(#SVGID_11_);" width="12.9" height="13.7"/>
					
						<radialGradient id="SVGID_12_" cx="446.2729" cy="8964.0732" r="6.5042" gradientTransform="matrix(0.98 0 0 1.04 87.1488 -8927.6768)" gradientUnits="userSpaceOnUse">
						<stop  offset="0" style="stop-color:#E6DAE3"/>
						<stop  offset="1" style="stop-color:#C1AFC4"/>
					</radialGradient>
					<rect x="519.5" y="388" style="fill:url(#SVGID_12_);" width="12.9" height="13.7"/>
					
						<radialGradient id="SVGID_13_" cx="463.1839" cy="8964.0732" r="6.5042" gradientTransform="matrix(0.98 0 0 1.04 87.1488 -8927.6768)" gradientUnits="userSpaceOnUse">
						<stop  offset="0" style="stop-color:#E6DAE3"/>
						<stop  offset="1" style="stop-color:#C1AFC4"/>
					</radialGradient>
					<rect x="536.1" y="388" style="fill:url(#SVGID_13_);" width="12.9" height="13.7"/>
					
						<radialGradient id="SVGID_14_" cx="428.3213" cy="8984.1064" r="6.5042" gradientTransform="matrix(0.98 0 0 1.04 87.1488 -8927.6768)" gradientUnits="userSpaceOnUse">
						<stop  offset="0" style="stop-color:#E6DAE3"/>
						<stop  offset="1" style="stop-color:#C1AFC4"/>
					</radialGradient>
					<rect x="501.8" y="408.8" style="fill:url(#SVGID_14_);" width="12.9" height="13.7"/>
					
						<radialGradient id="SVGID_15_" cx="446.2729" cy="8984.1064" r="6.5042" gradientTransform="matrix(0.98 0 0 1.04 87.1488 -8927.6768)" gradientUnits="userSpaceOnUse">
						<stop  offset="0" style="stop-color:#E6DAE3"/>
						<stop  offset="1" style="stop-color:#C1AFC4"/>
					</radialGradient>
					<rect x="519.5" y="408.8" style="fill:url(#SVGID_15_);" width="12.9" height="13.7"/>
					
						<radialGradient id="SVGID_16_" cx="463.1839" cy="8984.1064" r="6.5042" gradientTransform="matrix(0.98 0 0 1.04 87.1488 -8927.6768)" gradientUnits="userSpaceOnUse">
						<stop  offset="0" style="stop-color:#E6DAE3"/>
						<stop  offset="1" style="stop-color:#C1AFC4"/>
					</radialGradient>
					<rect x="536.1" y="408.8" style="fill:url(#SVGID_16_);" width="12.9" height="13.7"/>
					
						<radialGradient id="SVGID_17_" cx="428.3213" cy="9004.1396" r="6.5042" gradientTransform="matrix(0.98 0 0 1.04 87.1488 -8927.6768)" gradientUnits="userSpaceOnUse">
						<stop  offset="0" style="stop-color:#E6DAE3"/>
						<stop  offset="1" style="stop-color:#C1AFC4"/>
					</radialGradient>
					<rect x="501.8" y="429.6" style="fill:url(#SVGID_17_);" width="12.9" height="13.7"/>
					
						<radialGradient id="SVGID_18_" cx="446.2729" cy="9004.1396" r="6.5042" gradientTransform="matrix(0.98 0 0 1.04 87.1488 -8927.6768)" gradientUnits="userSpaceOnUse">
						<stop  offset="0" style="stop-color:#E6DAE3"/>
						<stop  offset="1" style="stop-color:#C1AFC4"/>
					</radialGradient>
					<rect x="519.5" y="429.6" style="fill:url(#SVGID_18_);" width="12.9" height="13.7"/>
					
						<radialGradient id="SVGID_19_" cx="463.1839" cy="9004.1396" r="6.5042" gradientTransform="matrix(0.98 0 0 1.04 87.1488 -8927.6768)" gradientUnits="userSpaceOnUse">
						<stop  offset="0" style="stop-color:#E6DAE3"/>
						<stop  offset="1" style="stop-color:#C1AFC4"/>
					</radialGradient>
					<rect x="536.1" y="429.6" class="st31" width="12.9" height="13.7"/>
				</g>
				<polygon class="st40" points="833.8,466.5 999.6,479.2 955.6,1179 794.5,1179 				"/>
				<polygon class="st10" points="853.3,500.5 832.6,839.4 963.6,840.1 989.7,510 				"/>
				<polygon class="st10" points="815.9,1160.8 822,1122.6 945.1,1122.6 945.1,1160.8 				"/>
				<rect x="83.4" y="892.2" class="st41" width="2.6" height="537.1"/>
				<polygon class="st41" points="692.7,1422.3 690.1,1422.1 717.9,886.2 720.6,886.3 				"/>
				<polygon class="st21" points="448.7,168.5 448.7,67.3 768.8,60.4 757.3,161.1 				"/>
				<g class="st42">
					
						<ellipse transform="matrix(1 -1.396261e-03 1.396261e-03 1 -1.3569 0.9351)" class="st43" cx="669" cy="972.3" rx="8.7" ry="8.3"/>
				</g>
				<g class="st42">
					<path class="st43" d="M640.3,971.7c-0.5,0.1-1,0.1-1.4,0c-2.3-0.7-3.5-3.1-2.8-5.4c0-0.1,0.1-0.1,0.1-0.2
						c3.9-14.4,16.4-24.7,31.2-26c6-0.1,12,1.4,17.2,4.4c2,1.4,2.5,4.2,1,6.2c-1.2,1.7-3.4,2.3-5.3,1.5c-3.9-2.4-8.4-3.6-13-3.4
						c-10.9,1.3-19.9,9.1-22.8,19.6C644,970.3,642.3,971.7,640.3,971.7z"/>
				</g>
				<g class="st42">
					<path class="st43" d="M616.5,964.2c-0.6,0.1-1.1,0.1-1.7,0c-2.2-0.9-3.3-3.4-2.4-5.6c0-0.1,0-0.1,0.1-0.2
						c8.2-23.1,28.6-39.7,52.9-43.1c9.6-0.7,19.2,1.2,27.8,5.6c2.2,1.1,3,3.8,1.9,6c-1.1,2.1-3.6,2.9-5.8,2
						c-7.2-3.8-15.2-5.4-23.3-4.8c-20.9,3.3-38.4,17.8-45.5,37.7C619.7,963.4,618.2,964.3,616.5,964.2z"/>
				</g>
			</g>
		</g>
		<g>
			<g>
				<defs>
					<polygon id="SVGID_28_" points="617.9,703.8 186.7,697 258,509 538.4,504.5 					"/>
				</defs>
				<clipPath id="SVGID_20_">
					<use xlink:href="#SVGID_28_"  style="overflow:visible;"/>
				</clipPath>
				<g style="clip-path:url(#SVGID_20_);">
					<path class="st45" d="M316.1,599.9l-91.5-160.8c-8.5-15-3.2-34.9,11.8-44.5l2.7-1.7c15.1-9.7,34.4-5.5,43.2,9.4l94.2,160.1
						c9.6,16.2,4.3,37.6-11.8,47.4l-2.8,1.8C345.9,621.6,325.4,616.3,316.1,599.9z"/>
					<path class="st46" d="M346.8,617L215,616.7c-17.7,0-31.5-15.2-31-33.7l0.1-3.3c0.6-18.4,15.2-33.4,32.7-33.6l130.5-1.3
						c18.4-0.2,33.4,15,33.3,34.1l0,3.4C380.6,601.5,365.4,617,346.8,617z"/>
					<path class="st47" d="M374.6,580.6c-0.1,16.1-12.9,29.1-28.5,29.1c-15.6,0-27.9-13-27.7-28.9c0.2-15.8,12.8-28.7,28.2-28.9
						C362.1,551.8,374.7,564.6,374.6,580.6z"/>
					<g>
						<path class="st48" d="M304.5,576.8l0,3.7c-0.2,10.7-3.3,18.6-10.1,25.7c-6.8,6.9-15.3,10.7-24.7,10.7
							c-19.4,0-33.5-15.3-33-35.5c0.5-20.3,15-35.5,34.2-35.7c10.6-0.1,20.1,4.5,26.4,12.8l-10.3,8.4c-4.7-5.9-9.5-8.4-16-8.4
							c-11.5,0.1-20.4,9.9-20.7,22.8C250,594,258.9,604,270.4,604c5.7,0,11.3-2.6,14.9-6.9c2-2.4,3.1-4.6,4.2-8.7l-18.4,0.1
							l0.2-11.5L304.5,576.8z"/>
						<path class="st48" d="M372.2,556.3c5.8,6.6,8.6,14.6,8.6,24.7c-0.1,19.9-15.7,36-35,36c-19.8,0-35-15.8-34.7-35.7
							c0.3-20.4,15.7-36.1,35.5-36.3C356.4,544.9,365.5,548.9,372.2,556.3z M325,581c-0.2,12.9,8.7,22.8,20.5,22.8
							c11.7,0,20.9-10,21-22.6c0.1-13.4-8.6-23.2-20.5-23.1C334.1,558.1,325.2,567.9,325,581z"/>
					</g>
				</g>
			</g>
		</g>
		<polygon class="st49" points="97,195.1 228.3,554.1 737.5,550.2 757.9,176.6 		"/>
	</g>
	<g>
		<g>
			<g id="Ebene_1_3_">
				<polygon class="st9" points="970.4,1603.2 985.9,68.8 1744.2,45.2 1665.7,1603.2 				"/>
				<polygon class="st10" points="1744.2,45.2 2052.7,82.9 1954.2,1603.2 1665.7,1603.2 				"/>
				<polygon class="st10" points="1013.1,916.8 1665.7,910.8 1705.6,181.5 1025.7,200.5 				"/>
				
					<linearGradient id="SVGID_21_" gradientUnits="userSpaceOnUse" x1="1365.6488" y1="9119.1543" x2="1365.6488" y2="8931.9443" gradientTransform="matrix(1 0 0 1 0 -8750.4287)">
					<stop  offset="0" style="stop-color:#A499CA"/>
					<stop  offset="1" style="stop-color:#561F39"/>
				</linearGradient>
				<polygon style="opacity:0.5;fill-rule:evenodd;clip-rule:evenodd;fill:url(#SVGID_21_);enable-background:new    ;" points="
					1025.7,200.5 1191.9,368.7 1695.8,360.3 1705.6,181.5 				"/>
				<polygon class="st9" points="1191.9,368.7 1195.6,862.5 1668.4,862.5 1695.8,360.3 				"/>
				<polygon class="st12" points="1185.5,512.3 1013.1,916.8 1665.7,910.8 1688.2,499.5 				"/>
				
					<linearGradient id="SVGID_22_" gradientUnits="userSpaceOnUse" x1="1049.2339" y1="227.0412" x2="1688.2137" y2="227.0412" gradientTransform="matrix(1 0 0 -1 0 928.767)">
					<stop  offset="0" style="stop-color:#141414;stop-opacity:0.5"/>
					<stop  offset="3.400000e-02" style="stop-color:#1E1F22;stop-opacity:0.5292"/>
					<stop  offset="0.1448" style="stop-color:#393C4B;stop-opacity:0.6247"/>
					<stop  offset="0.2514" style="stop-color:#4F5571;stop-opacity:0.7164"/>
					<stop  offset="0.3511" style="stop-color:#606991;stop-opacity:0.8022"/>
					<stop  offset="0.4421" style="stop-color:#6C78AB;stop-opacity:0.8806"/>
					<stop  offset="0.5216" style="stop-color:#7482BC;stop-opacity:0.949"/>
					<stop  offset="0.5808" style="stop-color:#7685C1"/>
					<stop  offset="0.7053" style="stop-color:#7584BF;stop-opacity:0.8337"/>
					<stop  offset="0.7652" style="stop-color:#7280B8;stop-opacity:0.7537"/>
					<stop  offset="0.8113" style="stop-color:#6C78AB;stop-opacity:0.6921"/>
					<stop  offset="0.8504" style="stop-color:#646E9A;stop-opacity:0.6399"/>
					<stop  offset="0.885" style="stop-color:#5A6285;stop-opacity:0.5937"/>
					<stop  offset="0.9164" style="stop-color:#4D526D;stop-opacity:0.5517"/>
					<stop  offset="0.9455" style="stop-color:#3E4152;stop-opacity:0.5129"/>
					<stop  offset="0.9726" style="stop-color:#2C2D36;stop-opacity:0.4765"/>
					<stop  offset="0.9974" style="stop-color:#171718;stop-opacity:0.4435"/>
					<stop  offset="1" style="stop-color:#141414;stop-opacity:0.44"/>
				</linearGradient>
				<polygon style="fill-rule:evenodd;clip-rule:evenodd;fill:url(#SVGID_22_);" points="1049.2,891.1 1653,886.6 1669.3,837.2 
					1688.2,512.3 1193,522.7 				"/>
				<polygon class="st9" points="1145.2,1136.7 1145.2,993 1500.6,993 1491.6,1136.7 				"/>
				<polygon class="st14" points="1165.9,1007.3 1160.3,1119.4 1465.8,1119.4 1473.6,1003.7 				"/>
				<polygon class="st10" points="1160.8,1106.9 1466.6,1106.9 1473.6,1003.7 1165.9,1007.3 				"/>
				<polygon class="st15" points="1165.9,1007.3 1179.6,1092.9 1467.6,1092.9 1473.6,1003.7 				"/>
				<polygon class="st10" points="1500.6,993 1508.5,993 1504.6,1136.7 1491.6,1136.7 				"/>
				<polygon class="st10" points="1172.4,1136.7 1191.9,1153.8 1517.9,1153.8 1526,1003.7 1508.5,993 1504.6,1136.7 				"/>
				<polygon class="st10" points="971.8,1470.4 1673.4,1452.4 1673,1461.3 971.8,1473.6 				"/>
				<polygon class="st16" points="1165.9,1568.9 1164.6,1553.3 1445.2,1549.1 1439.3,1568.9 				"/>
				
					<linearGradient id="SVGID_23_" gradientUnits="userSpaceOnUse" x1="1909.0837" y1="10353.6143" x2="1909.0837" y2="9424.9238" gradientTransform="matrix(1 0 0 1 0 -8750.4287)">
					<stop  offset="0" style="stop-color:#7D3654"/>
					<stop  offset="1" style="stop-color:#020303"/>
				</linearGradient>
				<polygon style="opacity:0.2;fill-rule:evenodd;clip-rule:evenodd;fill:url(#SVGID_23_);enable-background:new    ;" points="
					1803.7,1603.2 1887.7,708.1 2014.5,674.5 1954.2,1603.2 				"/>
				<polygon class="st18" points="1013.1,1274.1 1647.4,1266 1637.2,1453.3 1013.1,1469.4 				"/>
				<polygon class="st19" points="1024.6,1286.2 1186.9,1284 1186.9,1452.9 1024.6,1457.1 				"/>
				<polygon class="st20" points="1244.6,1305.8 1566.4,1302.5 1565.5,1285.6 1244.6,1286.3 				"/>
				<polygon class="st21" points="1336.1,1460.1 1336.1,1395.8 1414.7,1393.5 1411.6,1458.3 				"/>
				<polygon class="st21" points="1439.2,1458.4 1439.2,1394 1519.3,1391.5 1515.6,1456.5 				"/>
				<polygon class="st21" points="1533.3,1456 1533.3,1391.5 1613.3,1391.5 1608.7,1454 				"/>
				<rect x="1244.6" y="1329.1" class="st22" width="48.2" height="13.5"/>
				<rect x="1244.6" y="1370.7" class="st22" width="73.1" height="13.5"/>
				<rect x="1244.6" y="1349.9" class="st22" width="130.1" height="13.5"/>
				<polygon class="st18" points="1013.1,76.3 1013.1,181.5 1704.9,164.8 1716.9,61.2 				"/>
				
					<radialGradient id="SVGID_24_" cx="1564.2338" cy="9187.3994" r="79.2432" gradientTransform="matrix(1 0 0 1 0 -8750.4287)" gradientUnits="userSpaceOnUse">
					<stop  offset="2.000000e-02" style="stop-color:#422944"/>
					<stop  offset="0.99" style="stop-color:#2B1433"/>
				</radialGradient>
				<polygon style="fill-rule:evenodd;clip-rule:evenodd;fill:url(#SVGID_24_);" points="1462.7,482.5 1462.7,391.6 1665.7,389.5 
					1665.6,484.5 				"/>
				
					<radialGradient id="SVGID_25_" cx="1312.9238" cy="9191.8145" r="80.1891" gradientTransform="matrix(1 0 0 1 0 -8750.4287)" gradientUnits="userSpaceOnUse">
					<stop  offset="2.000000e-02" style="stop-color:#422944"/>
					<stop  offset="0.99" style="stop-color:#2B1433"/>
				</radialGradient>
				<polygon style="fill-rule:evenodd;clip-rule:evenodd;fill:url(#SVGID_25_);" points="1211.4,492 1211.4,391.6 1414.4,390.8 
					1414.2,484.5 				"/>
				
					<radialGradient id="SVGID_26_" cx="1312.9238" cy="9223.6621" r="72.8844" gradientTransform="matrix(1 0 0 1 0 -8750.4287)" gradientUnits="userSpaceOnUse">
					<stop  offset="0" style="stop-color:#E6DAE3"/>
					<stop  offset="1" style="stop-color:#B7A2BB"/>
				</radialGradient>
				<polygon style="fill-rule:evenodd;clip-rule:evenodd;fill:url(#SVGID_26_);" points="1211.4,492 1211.4,460.5 1414.4,454.6 
					1414.2,488.5 				"/>
				
					<linearGradient id="SVGID_27_" gradientUnits="userSpaceOnUse" x1="1236.0438" y1="9223.5938" x2="1387.5238" y2="9223.5938" gradientTransform="matrix(1 0 0 1 0 -8750.4287)">
					<stop  offset="0" style="stop-color:#706187"/>
					<stop  offset="1" style="stop-color:#41214B"/>
				</linearGradient>
				<polygon style="fill-rule:evenodd;clip-rule:evenodd;fill:url(#SVGID_27_);" points="1236,470.3 1236,479 1387.5,475.2 
					1387.5,467.3 				"/>
				<path class="st27" d="M1254.2,407.9h4.9v4.9h-4.9V407.9z M1254.2,413.3h4.9v4.9h-4.9V413.3z M1254.2,418.6h4.9v4.9h-4.9V418.6z
					 M1254.2,423.9h4.9v4.9h-4.9V423.9z M1254.2,429.2h4.9v4.9h-4.9V429.2z M1259.6,402.4h4.9v4.9h-4.9V402.4z M1259.6,434.2h4.9
					v4.9h-4.9V434.2z M1265,402.4h4.9v4.9h-4.9V402.4z M1265,434.2h4.9v4.9h-4.9V434.2z M1270.3,402.4h4.9v4.9h-4.9V402.4z
					 M1270.3,434.2h4.9v4.9h-4.9V434.2z M1275.8,407.4h4.6v4.9h-4.8L1275.8,407.4z M1275.8,428.7h4.6v4.9h-4.8L1275.8,428.7z"/>
				<path class="st27" d="M1281.9,418.6h4.8v4.9h-4.8V418.6z M1281.9,423.9h4.8v4.9h-4.8V423.9z M1281.9,429.2h4.8v4.9h-4.8V429.2z
					 M1287.3,413.3h4.9v4.9h-4.9V413.3z M1287.3,434.4h4.9v4.9h-4.9V434.4z M1292.7,413.3h4.9v4.9h-4.9V413.3z M1292.7,434.4h4.9
					v4.9h-4.9V434.4z M1298,413.3h4.8v4.9h-4.8V413.3z M1298,429.2h4.8v4.9h-4.8V429.2z M1303.4,418.6h4.8v4.9h-4.8V418.6z
					 M1303.4,423.9h4.8v4.9h-4.8V423.9z M1303.4,429.2h4.8v4.9h-4.8V429.2z M1303.4,434.4h4.8v4.9h-4.8V434.4z"/>
				<path class="st27" d="M1309.5,418.6h4.9v4.9h-4.9V418.6z M1309.5,434.4h4.9v4.9h-4.9V434.4z M1314.9,413.3h5.6v4.9h-4.9
					L1314.9,413.3z M1314.9,423.9h5.6v4.9h-4.9L1314.9,423.9z M1314.9,434.4h5.6v4.9h-4.9L1314.9,434.4z M1320.2,413.3h4.9v4.9h-4.7
					L1320.2,413.3z M1320.2,423.9h4.9v4.9h-4.7L1320.2,423.9z M1320.2,434.4h4.9v4.9h-4.7L1320.2,434.4z M1325.6,413.3h4.9v4.9h-4.9
					V413.3z M1325.6,423.9h4.9v4.9h-4.9V423.9z M1325.6,434.4h4.9v4.9h-4.9V434.4z M1330.9,429.2h4.9v4.9h-4.9V429.2z"/>
				<path class="st27" d="M1337.2,402.7h4.8v4.9h-4.8V402.7z M1337.2,407.9h4.8v4.9h-4.8V407.9z M1337.2,413.3h4.8v4.9h-4.8V413.3z
					 M1337.2,418.6h4.8v4.9h-4.8V418.6z M1337.2,423.9h4.8v4.9h-4.8V423.9z M1337.2,429.2h4.8v4.9h-4.8V429.2z M1337.2,434.4h4.8
					v4.9h-4.8V434.4z M1342.4,418.6h4.8v4.9h-4.9L1342.4,418.6z M1347.9,413.3h4.8v4.9h-4.8V413.3z M1353.3,413.3h4.8v4.9h-4.8
					V413.3z M1358.6,418.6h4.8v4.9h-4.8V418.6z M1358.6,423.9h4.8v4.9h-4.8V423.9z M1358.6,429.2h4.8v4.9h-4.8V429.2z M1358.6,434.4
					h4.8v4.9h-4.8V434.4z"/>
				
					<radialGradient id="SVGID_29_" cx="1490.6466" cy="9041.1084" r="84.5724" gradientTransform="matrix(0.98 0 0 1.04 87.1488 -8927.6768)" gradientUnits="userSpaceOnUse">
					<stop  offset="0" style="stop-color:#E6DAE3"/>
					<stop  offset="1" style="stop-color:#B7A2BB"/>
				</radialGradient>
				<polygon style="fill-rule:evenodd;clip-rule:evenodd;fill:url(#SVGID_29_);" points="1433.3,489.8 1433.8,462.3 1665.7,457.2 
					1665.5,492.4 				"/>
				
					<linearGradient id="SVGID_30_" gradientUnits="userSpaceOnUse" x1="1490.5638" y1="9226.8037" x2="1639.5038" y2="9226.8037" gradientTransform="matrix(1 0 0 1 0 -8750.4287)">
					<stop  offset="0" style="stop-color:#706187"/>
					<stop  offset="1" style="stop-color:#41214B"/>
				</linearGradient>
				<polygon style="fill-rule:evenodd;clip-rule:evenodd;fill:url(#SVGID_30_);" points="1490.6,473.4 1490.6,482.5 1639.5,480.9 
					1639.5,470.3 				"/>
				<path class="st27" d="M1507.8,409.9h4.8v5.2h-4.8V409.9z M1507.8,415.4h4.8v5.2h-4.8V415.4z M1507.8,421h4.8v5.1h-4.8V421z
					 M1507.8,426.5h4.8v5.1h-4.8V426.5z M1507.8,432h4.8v5.1h-4.8V432z M1513,404.5h4.8v5.1h-4.8V404.5z M1513,437.5h4.8v5.1h-4.8
					V437.5z M1518.3,404.5h4.8v5.1h-4.8V404.5z M1518.3,437.5h4.8v5.1h-4.8V437.5z M1523.5,404.5h4.8v5.1h-4.8V404.5z M1523.5,437.5
					h4.8v5.1h-4.8V437.5z M1528.8,409.9h4.8v5.2h-4.8V409.9z M1528.8,432h4.8v5.1h-4.8V432z"/>
				<path class="st27" d="M1534.6,421h4.8v5.1h-4.8V421z M1534.6,426.5h4.8v5.1h-4.8V426.5z M1534.6,432h4.8v5.1h-4.8V432z
					 M1539.8,415.4h4.9v5.2h-4.9V415.4z M1539.8,437.5h4.9v5.1h-4.9V437.5z M1545.2,415.4h4.8v5.2h-4.8V415.4z M1545.2,437.5h4.8
					v5.1h-4.8V437.5z M1550.4,415.4h4.8v5.2h-4.8V415.4z M1550.4,432h4.8v5.1h-4.8V432z M1555.7,421h4.7v5.1h-4.7V421z
					 M1555.7,426.5h4.7v5.1h-4.7V426.5z M1555.7,432h4.7v5.1h-4.7V432z M1555.7,437.5h4.7v5.1h-4.7V437.5z"/>
				<path class="st27" d="M1561.4,415.4h4.8v5.2h-4.8V415.4z M1561.4,421h4.8v5.1h-4.8V421z M1561.4,426.5h4.8v5.1h-4.8V426.5z
					 M1561.4,432h4.8v5.1h-4.8V432z M1561.4,437.5h4.8v5.1h-4.8V437.5z M1566.6,421h4.8v5.1h-4.8V421z M1571.9,415.4h4.8v5.2h-4.8
					V415.4z M1577.1,415.4h4.8v5.2h-4.8V415.4z M1582.4,421h5.8v5.1h-5.4L1582.4,421z"/>
				<path class="st27" d="M1588.9,421h4.8v5.1h-4.8V421z M1588.9,426.5h4.8v5.1h-4.8V426.5z M1588.9,432h4.8v5.1h-4.8V432z
					 M1594.1,415.4h4.8v5.2h-4.8V415.4z M1594.1,437.5h4.8v5.1h-4.8V437.5z M1599.4,415.4h4.9v5.2h-4.9V415.4z M1599.4,437.5h4.9
					v5.1h-4.9V437.5z M1604.7,421h4.8v5.1h-4.8V421z M1604.7,437.5h4.8v5.1h-4.8V437.5z M1609.9,404.5h4.9v5.1h-4.8L1609.9,404.5z
					 M1609.9,409.9h4.9v5.2h-4.8L1609.9,409.9z M1609.9,415.4h4.9v5.2h-4.8L1609.9,415.4z M1609.9,421h4.9v5.1h-4.8L1609.9,421z
					 M1609.9,426.5h4.9v5.1h-4.8L1609.9,426.5z M1609.9,432h4.9v5.1h-4.8L1609.9,432z"/>
				
					<radialGradient id="SVGID_31_" cx="1405.9403" cy="8994.6738" r="33.9895" gradientTransform="matrix(0.98 0 0 1.04 87.1488 -8927.6768)" gradientUnits="userSpaceOnUse">
					<stop  offset="2.000000e-02" style="stop-color:#422944"/>
					<stop  offset="0.99" style="stop-color:#2B1433"/>
				</radialGradient>
				<polygon class="st51" points="1433.8,462.3 1433.3,390.8 1499.4,391.2 1496.9,460.9 				"/>
				<g>
					
						<radialGradient id="SVGID_32_" cx="1388.0089" cy="8974.0654" r="6.6909" gradientTransform="matrix(0.98 0 0 1.04 87.1488 -8927.6768)" gradientUnits="userSpaceOnUse">
						<stop  offset="0" style="stop-color:#E6DAE3"/>
						<stop  offset="1" style="stop-color:#C1AFC4"/>
					</radialGradient>
					<rect x="1442.1" y="398.2" style="fill:url(#SVGID_32_);" width="13.2" height="14.1"/>
					
						<radialGradient id="SVGID_33_" cx="1406.4755" cy="8974.0654" r="6.6909" gradientTransform="matrix(0.98 0 0 1.04 87.1488 -8927.6768)" gradientUnits="userSpaceOnUse">
						<stop  offset="0" style="stop-color:#E6DAE3"/>
						<stop  offset="1" style="stop-color:#C1AFC4"/>
					</radialGradient>
					<rect x="1460.3" y="398.2" style="fill:url(#SVGID_33_);" width="13.2" height="14.1"/>
					
						<radialGradient id="SVGID_34_" cx="1423.8717" cy="8974.0654" r="6.6909" gradientTransform="matrix(0.98 0 0 1.04 87.1488 -8927.6768)" gradientUnits="userSpaceOnUse">
						<stop  offset="0" style="stop-color:#E6DAE3"/>
						<stop  offset="1" style="stop-color:#C1AFC4"/>
					</radialGradient>
					<rect x="1477.5" y="398.2" style="fill:url(#SVGID_34_);" width="13.2" height="14.1"/>
					
						<radialGradient id="SVGID_35_" cx="1388.0089" cy="8994.6738" r="6.6909" gradientTransform="matrix(0.98 0 0 1.04 87.1488 -8927.6768)" gradientUnits="userSpaceOnUse">
						<stop  offset="0" style="stop-color:#E6DAE3"/>
						<stop  offset="1" style="stop-color:#C1AFC4"/>
					</radialGradient>
					<rect x="1442.1" y="419.6" style="fill:url(#SVGID_35_);" width="13.2" height="14.1"/>
					
						<radialGradient id="SVGID_36_" cx="1406.4755" cy="8994.6738" r="6.6909" gradientTransform="matrix(0.98 0 0 1.04 87.1488 -8927.6768)" gradientUnits="userSpaceOnUse">
						<stop  offset="0" style="stop-color:#E6DAE3"/>
						<stop  offset="1" style="stop-color:#C1AFC4"/>
					</radialGradient>
					<rect x="1460.3" y="419.6" style="fill:url(#SVGID_36_);" width="13.2" height="14.1"/>
					
						<radialGradient id="SVGID_37_" cx="1423.8717" cy="8994.6738" r="6.6909" gradientTransform="matrix(0.98 0 0 1.04 87.1488 -8927.6768)" gradientUnits="userSpaceOnUse">
						<stop  offset="0" style="stop-color:#E6DAE3"/>
						<stop  offset="1" style="stop-color:#C1AFC4"/>
					</radialGradient>
					<rect x="1477.5" y="419.6" style="fill:url(#SVGID_37_);" width="13.2" height="14.1"/>
					
						<radialGradient id="SVGID_38_" cx="1388.0089" cy="9015.2812" r="6.6909" gradientTransform="matrix(0.98 0 0 1.04 87.1488 -8927.6768)" gradientUnits="userSpaceOnUse">
						<stop  offset="0" style="stop-color:#E6DAE3"/>
						<stop  offset="1" style="stop-color:#C1AFC4"/>
					</radialGradient>
					<rect x="1442.1" y="441" style="fill:url(#SVGID_38_);" width="13.2" height="14.1"/>
					
						<radialGradient id="SVGID_39_" cx="1406.4755" cy="9015.2812" r="6.6909" gradientTransform="matrix(0.98 0 0 1.04 87.1488 -8927.6768)" gradientUnits="userSpaceOnUse">
						<stop  offset="0" style="stop-color:#E6DAE3"/>
						<stop  offset="1" style="stop-color:#C1AFC4"/>
					</radialGradient>
					<rect x="1460.3" y="441" style="fill:url(#SVGID_39_);" width="13.2" height="14.1"/>
					
						<radialGradient id="SVGID_40_" cx="1423.8717" cy="9015.2812" r="6.6909" gradientTransform="matrix(0.98 0 0 1.04 87.1488 -8927.6768)" gradientUnits="userSpaceOnUse">
						<stop  offset="0" style="stop-color:#E6DAE3"/>
						<stop  offset="1" style="stop-color:#C1AFC4"/>
					</radialGradient>
					<rect x="1477.5" y="441" class="st60" width="13.2" height="14.1"/>
				</g>
				<polygon class="st40" points="1783.6,479 1954.2,492 1909,1211.9 1743.2,1211.9 				"/>
				<polygon class="st10" points="1803.7,513.9 1782.4,862.5 1917.2,863.3 1944.1,523.7 				"/>
				<polygon class="st10" points="1765.3,1193.2 1771.6,1153.8 1898.2,1153.8 1898.2,1193.2 				"/>
				<rect x="1011.8" y="916.8" class="st41" width="2.7" height="552.5"/>
				<polygon class="st41" points="1638.6,1462.1 1635.9,1462 1664.4,910.7 1667.2,910.8 				"/>
				<polygon class="st21" points="1387.5,172.4 1387.5,68.3 1716.9,61.2 1704.9,164.8 				"/>
				<g class="st42">
					
						<ellipse transform="matrix(1 -1.396261e-03 1.396261e-03 1 -1.3936 2.2548)" class="st43" cx="1614.2" cy="999.2" rx="9" ry="8.6"/>
				</g>
				<g class="st42">
					<path class="st43" d="M1584.6,998.6c-0.5,0.1-1,0.1-1.5,0c-2.3-0.7-3.6-3.2-2.9-5.5c0-0.1,0.1-0.1,0.1-0.2
						c4-14.8,16.9-25.4,32.1-26.8c6.2-0.2,12.3,1.4,17.7,4.6c2.1,1.5,2.5,4.3,1.1,6.3c-1.2,1.7-3.5,2.4-5.5,1.6
						c-4-2.4-8.7-3.7-13.4-3.5c-11.2,1.3-20.4,9.3-23.4,20.2C1588.4,997.2,1586.7,998.6,1584.6,998.6z"/>
				</g>
				<g class="st42">
					<path class="st43" d="M1560.2,991c-0.6,0.1-1.2,0.1-1.7,0c-2.3-0.9-3.4-3.5-2.5-5.7c0-0.1,0-0.1,0.1-0.1
						c8.5-23.8,29.5-40.9,54.5-44.3c9.9-0.7,19.8,1.3,28.6,5.8c2.2,1.2,3.1,3.9,1.9,6.1c-1.1,2.2-3.7,3-5.9,2
						c-7.4-3.9-15.7-5.6-23.9-4.9c-21.5,3.4-39.5,18.3-46.8,38.8C1563.5,990.1,1561.9,991,1560.2,991z"/>
				</g>
			</g>
		</g>
		<g>
			<g>
				<defs>
					<polygon id="SVGID_49_" points="1561.5,723.1 1118,716 1191.4,522.7 1479.8,518.1 					"/>
				</defs>
				<clipPath id="SVGID_41_">
					<use xlink:href="#SVGID_49_"  style="overflow:visible;"/>
				</clipPath>
				<g style="clip-path:url(#SVGID_41_);">
					<path class="st45" d="M1251.1,616.2L1157,450.8c-8.8-15.4-3.3-35.9,12.2-45.8l2.8-1.8c15.5-9.9,35.4-5.6,44.5,9.7l96.9,164.7
						c9.8,16.7,4.4,38.6-12.1,48.8l-2.9,1.8C1281.8,638.5,1260.7,633,1251.1,616.2z"/>
					<path class="st46" d="M1282.7,633.8l-135.6-0.3c-18.2,0-32.4-15.6-31.8-34.6l0.1-3.4c0.6-18.9,15.6-34.4,33.7-34.5l134.3-1.3
						c19-0.2,34.4,15.4,34.3,35l0,3.5C1317.5,617.8,1301.8,633.8,1282.7,633.8z"/>
					<path class="st47" d="M1311.3,596.3c-0.1,16.5-13.2,29.9-29.3,29.9c-16,0-28.7-13.3-28.5-29.7c0.2-16.3,13.2-29.6,29-29.7
						C1298.5,566.7,1311.4,579.8,1311.3,596.3z"/>
					<g>
						<path class="st48" d="M1239.2,592.4l-0.1,3.8c-0.2,10.9-3.4,19.2-10.4,26.4c-7,7.2-15.8,11-25.4,11
							c-19.9,0-34.4-15.7-33.9-36.5c0.5-20.8,15.5-36.5,35.2-36.7c10.9-0.1,20.7,4.6,27.2,13.2l-10.6,8.6c-4.9-6.1-9.8-8.7-16.5-8.6
							c-11.8,0.1-21,10.2-21.3,23.4c-0.3,13.1,8.8,23.3,20.7,23.3c5.8,0,11.7-2.7,15.3-7.1c2.1-2.4,3.2-4.7,4.3-8.9l-19,0.1
							l0.2-11.8L1239.2,592.4z"/>
						<path class="st48" d="M1308.8,571.3c5.9,6.8,8.8,15,8.8,25.4c-0.1,20.5-16.2,37-36,37c-20.3-0.1-36-16.3-35.7-36.7
							c0.3-21,16.1-37.2,36.6-37.4C1292.6,559.6,1301.9,563.7,1308.8,571.3z M1260.3,596.8c-0.2,13.2,9,23.4,21.1,23.4
							c12,0,21.5-10.2,21.6-23.2c0.1-13.8-8.8-23.9-21.1-23.8C1269.7,573.2,1260.5,583.3,1260.3,596.8z"/>
					</g>
				</g>
			</g>
		</g>
		<polygon class="st49" points="1025.7,199.7 1160.8,569 1684.6,565 1705.6,180.7 		"/>
	</g>
</g>
</svg>
