<?xml version="1.0" encoding="utf-8"?>
<!-- Generator: Adobe Illustrator 25.2.0, SVG Export Plug-In . SVG Version: 6.00 Build 0)  -->
<svg version="1.1" xmlns="http://www.w3.org/2000/svg" xmlns:xlink="http://www.w3.org/1999/xlink" x="0px" y="0px"
	 viewBox="0 0 480 225" style="enable-background:new 0 0 480 225;" xml:space="preserve">
<style type="text/css">
	.st0{display:none;}
	.st1{display:inline;fill:#BFE0D2;}
	.st2{display:inline;fill:#312782;}
	.st3{display:inline;fill:#009C84;}
	.st4{display:inline;fill:#EE7D00;}
	.st5{display:inline;fill:#B1B1B1;}
	.st6{display:inline;}
	.st7{fill:#312782;}
	.st8{fill:#009C84;}
	.st9{opacity:0.7;fill:#312782;}
	.st10{opacity:0.7;fill:#009C84;}
	.st11{opacity:0.9;fill:#FFFFFF;}
	.st12{fill:none;stroke:#312782;stroke-width:18;stroke-linecap:round;stroke-linejoin:round;stroke-miterlimit:10;}
</style>
<g id="Ebene_2" class="st0">
	<rect x="-584.6" y="-710.5" class="st1" width="1973.5" height="1129.4"/>
	<rect x="1717.4" y="-640.4" class="st2" width="312.5" height="198.1"/>
	<rect x="1717.3" y="-434.8" class="st1" width="312.5" height="198.1"/>
	<rect x="1717.4" y="-229.9" class="st3" width="312.5" height="198.1"/>
	<rect x="1717.4" y="-24.3" class="st4" width="312.5" height="198.1"/>
	<rect x="1717.1" y="181.5" class="st5" width="312.5" height="198.1"/>
</g>
<g id="Ebene_3" class="st0">
	<g class="st6">
		<path class="st7" d="M373.4-400.8h-14.3v-113.4h14.3V-400.8z"/>
		<path class="st7" d="M413.3-479.1v11c6.8-9.2,13.6-12.9,23.3-12.9c7.1,0,13.6,2.4,18.2,6.5c4.9,4.8,6.6,10.2,6.6,20.9v52.9h-12.9
			v-50c0-7-0.8-10.7-2.9-13.4c-2.4-3.2-7-5.3-12.2-5.3c-5.8,0-11,2.2-15,6.6c-3.7,4.1-5.1,7.8-5.1,14.3v47.8h-12.9v-78.4H413.3z"/>
		<path class="st7" d="M500.7-416.7c0.2,3.9,1.2,4.8,6,4.8h5.9v11.2h-12.1c-9.2-0.2-12.8-3.6-12.8-12.2v-54.7h-10.9v-11.4h10.9
			v-24.6h12.9v24.6h11.9v11.4h-11.9V-416.7z"/>
		<path class="st7" d="M536.9-435.8c0.7,6.6,1.9,10,5.1,14.3c5.1,7,12.6,10.7,21.1,10.7c9.7,0,18.9-5.3,23.5-13.4L598-420
			c-6.5,13.1-19.9,21.1-34.8,21.1c-23.3,0-39.9-17-39.9-40.8c0-24.1,16.5-41.3,39.4-41.3c22.8,0,39.8,17.2,39.8,40.1
			c0,1,0,3.2-0.2,5.1H536.9z M588.6-445.3c-0.5-6.1-1.7-9.5-4.4-13.4c-4.9-6.6-12.9-10.7-21.6-10.7s-16.5,4.1-21.1,10.9
			c-2.4,3.7-3.4,7-4.4,13.3H588.6z"/>
		<path class="st7" d="M634-479.1v13.3c2.4-5.6,4.1-8,7.1-10.4c3.9-3.1,9.4-4.8,15-4.8h3.1v13.1c-1.4-0.2-2.7-0.2-3.6-0.2
			c-7,0-13.1,3.2-17,9c-3.4,4.9-4.6,9.5-4.6,18.5v39.8h-12.9v-78.4H634z"/>
		<path class="st7" d="M731.6-479.1h12.9v78.4h-12.9v-15.1c-7.8,11.7-16.7,17-28.6,17c-21.6,0-36.9-17-36.9-40.8
			c0-24,15.6-41.3,37.2-41.3c11.9,0,20.6,4.6,28.2,14.8V-479.1z M686.2-460.1c-4.1,5.6-6.5,13.1-6.5,20.7
			c0,16.7,10.9,29.2,25.2,29.2c14.8,0,26.9-13.8,26.9-30.6c0-17-10.9-28.7-26.5-28.7C696.7-469.4,690.8-466.5,686.2-460.1z"/>
		<path class="st7" d="M783.4-400.8h-12.9v-113.4h12.9v69.4l31.3-34.3H831l-35,38.2l34.8,40.1h-16.1l-31.3-35V-400.8z"/>
		<path class="st7" d="M863.8-416.7c0.2,3.9,1.2,4.8,6,4.8h5.9v11.2h-12.1c-9.2-0.2-12.8-3.6-12.8-12.2v-54.7H840v-11.4h10.9v-24.6
			h12.9v24.6h11.9v11.4h-11.9V-416.7z"/>
		<path class="st7" d="M907.7-501.1c0,4.6-3.7,8.2-8.3,8.2s-8.2-3.6-8.2-8.3s3.6-8.3,8.3-8.3C904.1-509.6,907.7-505.8,907.7-501.1z
			 M905.8-400.8h-12.9v-78.4h12.9V-400.8z"/>
		<path class="st7" d="M991.3-479.1l-29.6,78.4h-13.6l-28.7-78.4H933l22.1,59.8l22.8-59.8H991.3z"/>
		<path class="st7" d="M1010.7-435.8c0.7,6.6,1.9,10,5.1,14.3c5.1,7,12.6,10.7,21.1,10.7c9.7,0,18.9-5.3,23.5-13.4l11.4,4.2
			c-6.5,13.1-19.9,21.1-34.8,21.1c-23.3,0-40-17-40-40.8c0-24.1,16.5-41.3,39.4-41.3c22.8,0,39.8,17.2,39.8,40.1c0,1,0,3.2-0.2,5.1
			H1010.7z M1062.4-445.3c-0.5-6.1-1.7-9.5-4.4-13.4c-4.9-6.6-12.9-10.7-21.6-10.7s-16.5,4.1-21.1,10.9c-2.4,3.7-3.4,7-4.4,13.3
			H1062.4z"/>
		<path class="st7" d="M359.1-310.1h30.1c34.2,0,54.7,20.7,54.7,54.9c0,19.2-6.3,35-17.8,45.4c-9.9,8.8-23,13.1-39.4,13.1h-27.5
			V-310.1z M373.4-209h5.1c19.2,0,27.4-2,35.5-8.5c10.2-8.2,15.3-20.7,15.3-37.6c0-27.4-14.6-43-40.6-43h-15.3V-209z"/>
		<path class="st7" d="M538.5-235.7c0,23-17.7,40.8-40.1,40.8c-23.3,0-39.6-17-39.6-41.1c0-24.3,16.3-41,40.1-41
			C522-277,538.5-259.8,538.5-235.7z M472-235.9c0,17.3,10.7,29.1,26.7,29.1c15.5,0,26.5-12.1,26.5-29.1c0-17.5-10.5-29.2-26.3-29.2
			C482.7-265.1,472-253.4,472-235.9z"/>
		<path class="st7" d="M571.1-196.8h-12.9v-113.4h12.9v69.4l31.3-34.3h16.3l-35,38.2l34.8,40.1h-16.1l-31.3-35V-196.8z"/>
		<path class="st7" d="M692.5-275.1v50.1c0,10.7-2,16.7-7.8,21.9c-5.8,5.3-13.8,8.2-22.6,8.2s-17-3.1-22.6-8.3
			c-5.3-5.1-7.8-12.2-7.8-21.8v-50.1h12.9v49.8c0,11,7.1,18.9,17.5,18.9c5.4,0,10.7-2.2,13.9-6c2.5-3.1,3.4-6.3,3.4-12.6v-50.1
			H692.5z"/>
		<path class="st7" d="M729.2-275.1v10.9c6-9,12.6-12.8,22.3-12.8c10.7,0,17.5,4.6,21.1,14.3c5.8-10,13.1-14.3,24.8-14.3
			c9,0,15.8,2.9,19.9,8.3c3.7,4.9,4.8,9.3,4.8,21.8v50.1h-12.9v-47.1c0-9.5-0.3-11.7-2.2-15c-2.4-4.1-7.5-6.6-13.6-6.6
			c-11.4,0-17.7,7.7-17.7,21.6v47.1h-12.9v-46.9c0-7.6-0.7-11.6-2.6-15c-2.2-4.4-7-6.8-12.8-6.8c-11.4,0-18.2,8.2-18.2,21.8v46.9
			h-12.9v-78.4H729.2z"/>
		<path class="st7" d="M855-231.8c0.7,6.6,1.9,10,5.1,14.3c5.1,7,12.6,10.7,21.1,10.7c9.7,0,18.9-5.3,23.5-13.4L916-216
			c-6.5,13.1-19.9,21.1-34.8,21.1c-23.3,0-39.9-17-39.9-40.8c0-24.1,16.5-41.3,39.4-41.3c22.8,0,39.8,17.2,39.8,40.1
			c0,1,0,3.2-0.2,5.1H855z M906.7-241.3c-0.5-6.1-1.7-9.5-4.4-13.4c-4.9-6.6-12.9-10.7-21.6-10.7s-16.5,4.1-21.1,10.9
			c-2.4,3.7-3.4,7-4.4,13.3H906.7z"/>
		<path class="st7" d="M951.5-212.7c0.2,3.9,1.2,4.8,5.9,4.8h6v11.2h-12.1c-9.2-0.2-12.7-3.6-12.7-12.2v-54.7h-10.9v-11.4h10.9
			v-24.6h12.9v24.6h11.9v11.4h-11.9V-212.7z"/>
		<path class="st7" d="M1039.4-275.1h12.9v78.4h-12.9v-15.1c-7.8,11.7-16.7,17-28.6,17c-21.6,0-36.9-17-36.9-40.8
			c0-24,15.6-41.3,37.2-41.3c11.9,0,20.6,4.6,28.2,14.8V-275.1z M994-256.1c-4.1,5.6-6.5,13.1-6.5,20.7c0,16.7,10.9,29.2,25.2,29.2
			c14.8,0,26.9-13.8,26.9-30.6c0-17-10.9-28.7-26.5-28.7C1004.6-265.4,998.6-262.5,994-256.1z"/>
		<path class="st7" d="M1091.6-212.7c0.2,3.9,1.2,4.8,5.9,4.8h6v11.2h-12.1c-9.2-0.2-12.7-3.6-12.7-12.2v-54.7h-10.9v-11.4h10.9
			v-24.6h12.9v24.6h11.9v11.4h-11.9V-212.7z"/>
		<path class="st7" d="M1135.5-297.1c0,4.6-3.7,8.2-8.3,8.2s-8.2-3.6-8.2-8.3s3.6-8.3,8.3-8.3
			C1131.9-305.6,1135.5-301.8,1135.5-297.1z M1133.6-196.8h-12.9v-78.4h12.9V-196.8z"/>
		<path class="st7" d="M1233.1-235.7c0,23-17.7,40.8-40.1,40.8c-23.3,0-39.6-17-39.6-41.1c0-24.3,16.3-41,40.1-41
			C1216.6-277,1233.1-259.8,1233.1-235.7z M1166.6-235.9c0,17.3,10.7,29.1,26.7,29.1c15.5,0,26.5-12.1,26.5-29.1
			c0-17.5-10.5-29.2-26.3-29.2C1177.3-265.1,1166.6-253.4,1166.6-235.9z"/>
		<path class="st7" d="M1265.7-275.1v11c6.8-9.2,13.6-12.9,23.3-12.9c7.1,0,13.6,2.4,18.2,6.5c4.9,4.8,6.6,10.2,6.6,20.9v52.9h-12.9
			v-50c0-7-0.9-10.7-2.9-13.4c-2.4-3.2-7-5.3-12.2-5.3c-5.8,0-11,2.2-15,6.6c-3.7,4.1-5.1,7.8-5.1,14.3v47.8h-12.9v-78.4H1265.7z"/>
	</g>
</g>
<g id="Ebene_6" class="st0">
	<path class="st2" d="M669,209H100c-50.6,0-92-41.4-92-92v0c0-50.6,41.4-92,92-92h569c50.6,0,92,41.4,92,92v0
		C761,167.6,719.6,209,669,209z"/>
	<g class="st6">
		<path class="st8" d="M229.6,136.2c0.7,12.9,7.6,19.7,20.1,19.7c12.8,0,21.8-7.8,21.8-19.2c0-9.9-5.1-14.4-22.9-20.4
			c-13.4-4.6-17.9-6.8-22.9-11.4c-5.8-5.3-8.8-12.8-8.8-21.4c0-19.2,13.8-32.3,33.8-32.3c20.1,0,33.1,12.8,33.7,32.5h-14.3
			c-0.2-5.8-0.8-8.5-2.7-11.7c-3.2-4.9-9.5-8-16.8-8c-11.2,0-19.2,7.6-19.2,18.5c0,5.4,2.4,10.2,6.5,13.1c3.6,2.6,6.6,3.9,18.2,8
			c12.1,4.2,17.8,7.3,22.4,12.2c4.9,5.3,7.6,12.4,7.6,20.1c0,19.5-14.4,32.8-35.7,32.8c-14.4,0-24.3-5.1-30.3-15.3
			c-2.7-4.6-3.9-9.3-3.9-14.8v-2.4H229.6z"/>
		<path class="st8" d="M319.5,150.7c0.2,3.9,1.2,4.8,5.9,4.8h5.9v11.2h-12.1c-9.2-0.2-12.7-3.6-12.7-12.2V99.7h-10.9V88.3h10.9V63.6
			h12.9v24.6h11.9v11.4h-11.9V150.7z"/>
		<path class="st8" d="M407.4,88.3h12.9v78.4h-12.9v-15.1c-7.8,11.7-16.7,17-28.6,17c-21.6,0-36.9-17-36.9-40.8
			c0-24,15.6-41.3,37.2-41.3c11.9,0,20.6,4.6,28.2,14.8V88.3z M362,107.3c-4.1,5.6-6.5,13.1-6.5,20.7c0,16.7,10.9,29.2,25.2,29.2
			c14.8,0,26.9-13.8,26.9-30.6c0-17-10.9-28.7-26.5-28.7C372.6,98,366.6,100.9,362,107.3z"/>
		<path class="st8" d="M459.3,88.3v13.3c2.4-5.6,4.1-8,7.1-10.4c3.9-3.1,9.4-4.8,15-4.8h3.1v13.1c-1.4-0.2-2.7-0.2-3.6-0.2
			c-7,0-13.1,3.2-17,9c-3.4,4.9-4.6,9.5-4.6,18.5v39.8h-12.9V88.3H459.3z"/>
		<path class="st8" d="M517.8,150.7c0.2,3.9,1.2,4.8,5.9,4.8h6v11.2h-12.1c-9.2-0.2-12.7-3.6-12.7-12.2V99.7H494V88.3h10.9V63.6
			h12.9v24.6h11.9v11.4h-11.9V150.7z"/>
	</g>
</g>
<g id="Ebene_4" class="st0">
	<g class="st6">
		<path class="st9" d="M-123.6-273.6l-461.9-767.1c-46.2-76.7-21.4-176.3,55.2-222.5l7.8-4.7c76.7-46.2,176.3-21.4,222.5,55.2
			l461.9,767.1c46.2,76.7,21.4,176.3-55.2,222.5l-7.8,4.7C22.2-172.2-77.4-196.9-123.6-273.6z"/>
		<path class="st10" d="M21.6-192.5h-630.2c-89.5,0-162.1-72.6-162.1-162.1v-9.1c0-89.5,72.6-162.1,162.1-162.1H21.6
			c89.5,0,162.1,72.6,162.1,162.1v9.1C183.6-265,111.1-192.5,21.6-192.5z"/>
		<circle class="st11" cx="21.5" cy="-359.6" r="133.5"/>
		<g>
			<path class="st7" d="M-179.3-378.5v17.3c0,49.5-14.4,86.5-46.6,119.2c-32.2,32.2-73.1,49.5-118.2,49.5
				c-94.2,0-164.8-71.1-164.8-165.8c0-95.6,70.2-167.3,164.4-167.3c51.9,0,98.5,22.1,129.8,61.5l-49.5,38.9
				c-23.5-27.9-47.1-39.9-78.8-39.9c-56.2,0-99,46.1-99,106.7c0,59.6,44.2,106.2,100.4,106.2c27.4,0,54.8-12,71.6-32.2
				c9.6-11.1,14.4-21.1,19.7-40.4h-89.4v-53.8H-179.3z"/>
			<path class="st7" d="M142.8-471.7c27.4,30.8,40.9,67.8,40.9,114.4c0,91.3-73.1,164.8-163.9,164.8c-93.7,0-167.3-72.6-167.3-164.8
				c0-95.2,73.1-168.2,168.2-168.2C67.8-525.6,111.1-506.3,142.8-471.7z M-80.2-358.3c0,59.6,42.8,105.3,98.5,105.3
				c55.3,0,98.5-45.7,98.5-103.8c0-62-41.3-107.7-98-107.7S-80.2-419.3-80.2-358.3z"/>
		</g>
	</g>
</g>
<g id="Ebene_5" class="st0">
	<g class="st6">
		<path class="st7" d="M-416.3,18.8h15.8v4.3h-15.8v13.7h15.8v4.3h-20.8v-40h20.8v4.3h-15.8V18.8z"/>
		<path class="st7" d="M-388.4,13.4v4.7c0.8-2,1.4-2.8,2.5-3.7c1.4-1.1,3.3-1.7,5.3-1.7h1.1v4.6c-0.5-0.1-1-0.1-1.3-0.1
			c-2.5,0-4.6,1.1-6,3.2c-1.2,1.7-1.6,3.4-1.6,6.5v14h-4.6V13.4H-388.4z"/>
		<path class="st7" d="M-374.3,41.1v-40h4.6v40H-374.3z"/>
		<path class="st7" d="M-358,28.7c0.2,2.3,0.7,3.5,1.8,5c1.8,2.5,4.4,3.8,7.4,3.8c3.4,0,6.7-1.9,8.3-4.7l4,1.5
			c-2.3,4.6-7,7.4-12.3,7.4c-8.2,0-14.1-6-14.1-14.4c0-8.5,5.8-14.6,13.9-14.6c8,0,14,6.1,14,14.2c0,0.4,0,1.1-0.1,1.8H-358z
			 M-339.7,25.4c-0.2-2.2-0.6-3.4-1.6-4.7c-1.7-2.3-4.6-3.8-7.6-3.8s-5.8,1.4-7.4,3.8c-0.8,1.3-1.2,2.5-1.6,4.7H-339.7z"/>
		<path class="st7" d="M-324.1,41.1h-4.6v-40h4.6v17.1c2.8-3.8,5.7-5.4,9.7-5.4c7.7,0,13.1,6,13.1,14.6c0,8.5-5.3,14.4-12.9,14.4
			c-4.3,0-7.3-1.6-10-5.4V41.1z M-324.1,27.3c0,6.3,3.6,10.5,9,10.5c5.5,0,9.1-4.1,9.1-10.3s-3.7-10.6-8.9-10.6
			C-320.2,16.8-324.1,21.2-324.1,27.3z"/>
		<path class="st7" d="M-291.6,28.7c0.2,2.3,0.7,3.5,1.8,5c1.8,2.5,4.4,3.8,7.4,3.8c3.4,0,6.7-1.9,8.3-4.7l4,1.5
			c-2.3,4.6-7,7.4-12.3,7.4c-8.2,0-14.1-6-14.1-14.4c0-8.5,5.8-14.6,13.9-14.6c8,0,14,6.1,14,14.2c0,0.4,0,1.1-0.1,1.8H-291.6z
			 M-273.4,25.4c-0.2-2.2-0.6-3.4-1.6-4.7c-1.7-2.3-4.6-3.8-7.6-3.8c-3.1,0-5.8,1.4-7.4,3.8c-0.8,1.3-1.2,2.5-1.6,4.7H-273.4z"/>
		<path class="st7" d="M-241.3,28.7c0.2,2.3,0.7,3.5,1.8,5c1.8,2.5,4.4,3.8,7.4,3.8c3.4,0,6.7-1.9,8.3-4.7l4,1.5
			c-2.3,4.6-7,7.4-12.3,7.4c-8.2,0-14.1-6-14.1-14.4c0-8.5,5.8-14.6,13.9-14.6c8,0,14,6.1,14,14.2c0,0.4,0,1.1-0.1,1.8H-241.3z
			 M-223,25.4c-0.2-2.2-0.6-3.4-1.6-4.7c-1.7-2.3-4.6-3.8-7.6-3.8c-3.1,0-5.8,1.4-7.4,3.8c-0.8,1.3-1.2,2.5-1.6,4.7H-223z"/>
		<path class="st7" d="M-206.3,5.7c0,1.6-1.3,2.9-2.9,2.9c-1.6,0-2.9-1.3-2.9-2.9c0-1.7,1.3-2.9,2.9-2.9
			C-207.6,2.7-206.3,4-206.3,5.7z M-207,41.1h-4.6V13.4h4.6V41.1z"/>
		<path class="st7" d="M-193.3,13.4v3.9c2.4-3.2,4.8-4.6,8.2-4.6c2.5,0,4.8,0.8,6.4,2.3c1.7,1.7,2.3,3.6,2.3,7.4v18.7h-4.6V23.4
			c0-2.5-0.3-3.8-1-4.7c-0.8-1.1-2.5-1.9-4.3-1.9c-2,0-3.9,0.8-5.3,2.3c-1.3,1.4-1.8,2.8-1.8,5v16.9h-4.6V13.4H-193.3z"/>
		<path class="st7" d="M-164.6,28.7c0.2,2.3,0.7,3.5,1.8,5c1.8,2.5,4.4,3.8,7.4,3.8c3.4,0,6.7-1.9,8.3-4.7l4,1.5
			c-2.3,4.6-7,7.4-12.3,7.4c-8.2,0-14.1-6-14.1-14.4c0-8.5,5.8-14.6,13.9-14.6c8,0,14,6.1,14,14.2c0,0.4,0,1.1-0.1,1.8H-164.6z
			 M-146.4,25.4c-0.2-2.2-0.6-3.4-1.6-4.7c-1.7-2.3-4.6-3.8-7.6-3.8s-5.8,1.4-7.4,3.8c-0.8,1.3-1.2,2.5-1.6,4.7H-146.4z"/>
		<path class="st7" d="M-92.1,36.8v4.3h-28.6l22.6-35.7h-20.1V1.1h28.4l-22.6,35.7H-92.1z"/>
		<path class="st7" d="M-63.9,13.4v17.7c0,3.8-0.7,5.9-2.8,7.7c-2,1.9-4.9,2.9-8,2.9c-3.1,0-6-1.1-8-2.9c-1.9-1.8-2.8-4.3-2.8-7.7
			V13.4h4.6V31c0,3.9,2.5,6.7,6.2,6.7c1.9,0,3.8-0.8,4.9-2.1c0.9-1.1,1.2-2.2,1.2-4.4V13.4H-63.9z"/>
		<path class="st7" d="M-34.9,13.4h4.6v27.8c0,4.6-1.1,7.7-3.7,10.1c-2.5,2.4-6,3.7-10.2,3.7c-5.2,0-9.2-1.7-12.2-5l3.1-3.1
			c1.3,1.3,1.9,1.9,2.6,2.4c1.6,1,4.1,1.6,6.5,1.6c2.9,0,5.6-1,7.2-2.7c1.4-1.5,2.1-3.7,2.1-6.6v-5.8c-2.7,4.1-5.9,5.9-10.2,5.9
			c-7.3,0-12.8-6.2-12.8-14.4c0-4.4,1.6-8.7,4.4-11.3c2.2-2.2,5.2-3.2,8.8-3.2c4.2,0,7,1.6,9.8,5.4V13.4z M-53,27.2
			c0,5.9,3.8,10.4,9.1,10.4c2.6,0,5.2-1.3,7-3.4c1.2-1.4,2-4.1,2-6.8c0-3.6-0.5-5.5-2.2-7.3c-1.7-1.9-4.3-3.1-6.7-3.1
			C-49.3,17-53,21.2-53,27.2z"/>
		<path class="st7" d="M-16.4,41.1h-4.6V17.4h-3.8v-4h3.8V9.7c0-5.5,2.8-8.7,7.6-8.7c0.2,0,0.8,0,1.3,0.1v4.1
			c-3.3,0.4-4.2,1.3-4.3,4.6v3.7h4.3v4h-4.3V41.1z"/>
		<path class="st7" d="M14.3,13.4h4.6v27.7h-4.6v-5.3c-2.8,4.1-5.9,6-10.1,6c-7.6,0-13-6-13-14.4c0-8.5,5.5-14.6,13.1-14.6
			c4.2,0,7.3,1.6,10,5.2V13.4z M-1.7,20.1c-1.4,2-2.3,4.6-2.3,7.3c0,5.9,3.8,10.3,8.9,10.3c5.2,0,9.5-4.9,9.5-10.8
			c0-6-3.8-10.1-9.4-10.1C2,16.8-0.1,17.9-1.7,20.1z"/>
		<path class="st7" d="M32.6,17.3c2.5-3.1,5-4.5,8.3-4.5c2.4,0,4.9,1,6.4,2.5c1.5,1.5,2.2,3.7,2.2,7.2v18.6h-4.6V22.7
			c0-3.8-1.9-5.9-5.2-5.9c-2.1,0-4,0.8-5.4,2.5c-1.4,1.6-1.8,2.9-1.8,5.6v16.2H28v-40h4.6V17.3z"/>
		<path class="st7" d="M63.1,13.4v4.7c0.8-2,1.4-2.8,2.5-3.7c1.4-1.1,3.3-1.7,5.3-1.7h1.1v4.6c-0.5-0.1-1-0.1-1.3-0.1
			c-2.5,0-4.6,1.1-6,3.2c-1.2,1.7-1.6,3.4-1.6,6.5v14h-4.6V13.4H63.1z"/>
		<path class="st7" d="M83.7,35.4c0.1,1.4,0.4,1.7,2.1,1.7h2.1v4h-4.3c-3.2-0.1-4.5-1.3-4.5-4.3V17.4h-3.8v-4h3.8V4.7h4.6v8.7h4.2v4
			h-4.2V35.4z"/>
		<path class="st7" d="M116.9,13.4v3.8c2.1-3.2,4.4-4.5,7.9-4.5c3.8,0,6.2,1.6,7.4,5c2-3.5,4.6-5,8.8-5c3.2,0,5.6,1,7,2.9
			c1.3,1.7,1.7,3.3,1.7,7.7v17.7h-4.6V24.5c0-3.4-0.1-4.1-0.8-5.3c-0.8-1.4-2.6-2.3-4.8-2.3c-4,0-6.2,2.7-6.2,7.6v16.6h-4.6V24.5
			c0-2.7-0.2-4.1-0.9-5.3c-0.8-1.6-2.5-2.4-4.5-2.4c-4,0-6.4,2.9-6.4,7.7v16.6h-4.6V13.4H116.9z"/>
		<path class="st7" d="M163.9,5.7c0,1.6-1.3,2.9-2.9,2.9c-1.6,0-2.9-1.3-2.9-2.9c0-1.7,1.3-2.9,2.9-2.9C162.7,2.7,163.9,4,163.9,5.7
			z M163.3,41.1h-4.6V13.4h4.6V41.1z"/>
		<path class="st7" d="M177.3,35.4c0.1,1.4,0.4,1.7,2.1,1.7h2.1v4h-4.3c-3.2-0.1-4.5-1.3-4.5-4.3V17.4h-3.8v-4h3.8V4.7h4.6v8.7h4.2
			v4h-4.2V35.4z"/>
		<path class="st7" d="M242.9,19.4c0.1,0.8,0.1,1.9,0.1,2.3c0,5.3-1.2,9.1-4.1,12.8c-3.8,4.8-9,7.3-15.1,7.3
			c-11.4,0-19.7-8.7-19.7-20.6c0-12.1,8.3-20.8,19.7-20.8c6.1,0,11.3,2.5,15.1,7.3l-3.8,3.1c-1.6-1.7-2.3-2.5-3.4-3.2
			c-2.2-1.6-5-2.5-7.9-2.5c-8.3,0-14.6,7-14.6,16.1c0,9.1,6.3,16.1,14.5,16.1c4.4,0,9.1-2.3,11.5-5.9c1.6-2.1,2.2-4.1,2.6-7.6h-13.9
			v-4.3H242.9z"/>
		<path class="st7" d="M276,27.3c0,8.1-6.2,14.4-14.2,14.4c-8.2,0-14-6-14-14.5c0-8.6,5.8-14.5,14.2-14.5
			C270.2,12.8,276,18.8,276,27.3z M252.6,27.3c0,6.1,3.8,10.3,9.4,10.3c5.5,0,9.4-4.3,9.4-10.3c0-6.2-3.7-10.3-9.3-10.3
			C256.4,17,252.6,21.1,252.6,27.3z"/>
		<path class="st7" d="M321.9,13.4h4.6v27.7h-4.6v-5.3c-2.8,4.1-5.9,6-10.1,6c-7.6,0-13-6-13-14.4c0-8.5,5.5-14.6,13.1-14.6
			c4.2,0,7.3,1.6,10,5.2V13.4z M305.9,20.1c-1.4,2-2.3,4.6-2.3,7.3c0,5.9,3.8,10.3,8.9,10.3c5.2,0,9.5-4.9,9.5-10.8
			c0-6-3.8-10.1-9.4-10.1C309.6,16.8,307.5,17.9,305.9,20.1z"/>
		<path class="st7" d="M356.3,13.4v17.7c0,3.8-0.7,5.9-2.8,7.7c-2,1.9-4.9,2.9-8,2.9s-6-1.1-8-2.9c-1.9-1.8-2.8-4.3-2.8-7.7V13.4
			h4.6V31c0,3.9,2.5,6.7,6.2,6.7c1.9,0,3.8-0.8,4.9-2.1c0.9-1.1,1.2-2.2,1.2-4.4V13.4H356.3z"/>
		<path class="st7" d="M377.5,21v-0.3c0-2.6-2.1-4.2-5.3-4.2c-3.1,0-5,1.6-5,4c0,2.4,1.2,3.3,6.2,4.7c3.5,1,5.4,1.9,6.7,3.2
			c1.4,1.4,2.2,3.4,2.2,5.4c0,4.8-4,8-9.8,8c-6.3,0-9.8-2.9-10.3-8.5h4.5c0.3,3.1,2.3,4.8,5.8,4.8c3.1,0,5.2-1.6,5.2-4.1
			c0-2.4-1.6-3.6-6.3-4.8c-6-1.6-8.7-4.1-8.7-8.3c0-4.8,3.9-8,9.7-8c5.9,0,9.4,3,9.7,8.2H377.5z"/>
		<path class="st7" d="M428.1,1.1h4.6v40h-4.6v-4.7c-2.8,3.8-5.7,5.4-9.9,5.4c-7.6,0-13-5.9-13-14.3s5.5-14.6,13-14.6
			c4.1,0,7.2,1.5,9.9,4.9V1.1z M410,27.5c0,6.1,3.7,10.3,8.9,10.3c5.3,0,9.2-4.4,9.2-10.4c0-6.2-3.7-10.5-8.9-10.5
			C413.7,16.8,410,21.2,410,27.5z"/>
		<path class="st7" d="M444.5,28.7c0.2,2.3,0.7,3.5,1.8,5c1.8,2.5,4.4,3.8,7.4,3.8c3.4,0,6.7-1.9,8.3-4.7l4,1.5
			c-2.3,4.6-7,7.4-12.3,7.4c-8.2,0-14.1-6-14.1-14.4c0-8.5,5.8-14.6,13.9-14.6c8,0,14,6.1,14,14.2c0,0.4,0,1.1-0.1,1.8H444.5z
			 M462.7,25.4c-0.2-2.2-0.6-3.4-1.6-4.7c-1.7-2.3-4.6-3.8-7.6-3.8c-3.1,0-5.8,1.4-7.4,3.8c-0.8,1.3-1.2,2.5-1.6,4.7H462.7z"/>
		<path class="st7" d="M478.7,13.4v4.7c0.8-2,1.4-2.8,2.5-3.7c1.4-1.1,3.3-1.7,5.3-1.7h1.1v4.6c-0.5-0.1-1-0.1-1.3-0.1
			c-2.5,0-4.6,1.1-6,3.2c-1.2,1.7-1.6,3.4-1.6,6.5v14h-4.6V13.4H478.7z"/>
		<path class="st7" d="M516.7,41.1h-5v-40h5V41.1z"/>
		<path class="st7" d="M547.8,37.7c-3.1,2.8-6.2,4.1-10.2,4.1c-7.9,0-13.6-6-13.6-14.4c0-8.6,5.7-14.6,13.8-14.6
			c4,0,7.2,1.3,10.1,4.1l-2.9,2.9c-2.1-1.9-4.4-2.9-7-2.9c-5.5,0-9.2,4.2-9.2,10.2c0,6.1,3.8,10.4,9.2,10.4c2.7,0,4.9-0.9,7.1-3
			L547.8,37.7z"/>
		<path class="st7" d="M557.6,17.3c2.5-3.1,5-4.5,8.3-4.5c2.4,0,4.9,1,6.4,2.5c1.5,1.5,2.2,3.7,2.2,7.2v18.6h-4.6V22.7
			c0-3.8-1.9-5.9-5.2-5.9c-2.1,0-4,0.8-5.4,2.5c-1.4,1.6-1.8,2.9-1.8,5.6v16.2H553v-40h4.6V17.3z"/>
		<path class="st7" d="M591.3,28.6h-12.4v-4.1h12.4V28.6z"/>
		<path class="st7" d="M601.4,41.1h-5v-40H607c9.5,0,14.7,4.3,14.7,12.2c0,4-1.6,7.5-4.3,9.7c-2.3,1.9-5.5,2.8-9.9,2.8h-6.2V41.1z
			 M606.6,21.5c2.2,0,3.6-0.2,5-0.7c3.1-1.1,5-3.9,5-7.3s-1.9-6.2-5.1-7.3c-1.6-0.5-3.2-0.8-5.6-0.8h-4.6v16.1H606.6z"/>
		<path class="st7" d="M629.4,28.7c0.2,2.3,0.7,3.5,1.8,5c1.8,2.5,4.4,3.8,7.4,3.8c3.4,0,6.7-1.9,8.3-4.7l4,1.5
			c-2.3,4.6-7,7.4-12.3,7.4c-8.2,0-14.1-6-14.1-14.4c0-8.5,5.8-14.6,13.9-14.6c8,0,14,6.1,14,14.2c0,0.4,0,1.1-0.1,1.8H629.4z
			 M647.7,25.4c-0.2-2.2-0.6-3.4-1.6-4.7c-1.7-2.3-4.6-3.8-7.6-3.8c-3.1,0-5.8,1.4-7.4,3.8c-0.8,1.3-1.2,2.5-1.6,4.7H647.7z"/>
		<path class="st7" d="M663.7,13.4v4.7c0.8-2,1.4-2.8,2.5-3.7c1.4-1.1,3.3-1.7,5.3-1.7h1.1v4.6c-0.5-0.1-1-0.1-1.3-0.1
			c-2.5,0-4.6,1.1-6,3.2c-1.2,1.7-1.6,3.4-1.6,6.5v14h-4.6V13.4H663.7z"/>
		<path class="st7" d="M691.1,21v-0.3c0-2.6-2.1-4.2-5.3-4.2c-3.1,0-5,1.6-5,4c0,2.4,1.2,3.3,6.2,4.7c3.5,1,5.4,1.9,6.7,3.2
			c1.4,1.4,2.2,3.4,2.2,5.4c0,4.8-4,8-9.8,8c-6.3,0-9.8-2.9-10.3-8.5h4.5c0.3,3.1,2.3,4.8,5.8,4.8c3.1,0,5.2-1.6,5.2-4.1
			c0-2.4-1.6-3.6-6.3-4.8c-6-1.6-8.7-4.1-8.7-8.3c0-4.8,3.9-8,9.7-8c5.9,0,9.4,3,9.7,8.2H691.1z"/>
		<path class="st7" d="M707.3,13.4v5c2.6-4.1,5.5-5.7,10.1-5.7c7.7,0,13,5.9,13,14.3c0,8.7-5.3,14.7-13,14.7c-2.2,0-4.1-0.5-6.1-1.4
			c-1.7-0.8-2.5-1.6-4-3.5V54h-4.6V13.4H707.3z M707.3,27.7c0,6.1,3.7,10.1,9.1,10.1s9.1-4.3,9.1-10.6c0-3.2-0.8-5.7-2.4-7.5
			s-4.1-2.9-6.5-2.9C711.1,16.8,707.3,21.2,707.3,27.7z"/>
		<path class="st7" d="M740,28.7c0.2,2.3,0.7,3.5,1.8,5c1.8,2.5,4.4,3.8,7.4,3.8c3.4,0,6.7-1.9,8.3-4.7l4,1.5
			c-2.3,4.6-7,7.4-12.3,7.4c-8.2,0-14.1-6-14.1-14.4c0-8.5,5.8-14.6,13.9-14.6c8,0,14,6.1,14,14.2c0,0.4,0,1.1-0.1,1.8H740z
			 M758.2,25.4c-0.2-2.2-0.6-3.4-1.6-4.7c-1.7-2.3-4.6-3.8-7.6-3.8c-3.1,0-5.8,1.4-7.4,3.8c-0.8,1.3-1.2,2.5-1.6,4.7H758.2z"/>
		<path class="st7" d="M773.9,41.1h-4.6v-40h4.6v24.5l11-12.1h5.8l-12.4,13.5l12.3,14.2h-5.7l-11-12.4V41.1z"/>
		<path class="st7" d="M802.2,35.4c0.1,1.4,0.4,1.7,2.1,1.7h2.1v4h-4.3c-3.2-0.1-4.5-1.3-4.5-4.3V17.4h-3.8v-4h3.8V4.7h4.6v8.7h4.2
			v4h-4.2V35.4z"/>
		<path class="st7" d="M817.7,5.7c0,1.6-1.3,2.9-2.9,2.9s-2.9-1.3-2.9-2.9c0-1.7,1.3-2.9,2.9-2.9C816.5,2.7,817.7,4,817.7,5.7z
			 M817.1,41.1h-4.6V13.4h4.6V41.1z"/>
		<path class="st7" d="M847.2,13.4l-10.4,27.7H832l-10.1-27.7h4.8l7.8,21.1l8-21.1H847.2z"/>
		<path class="st7" d="M854.1,28.7c0.2,2.3,0.7,3.5,1.8,5c1.8,2.5,4.4,3.8,7.4,3.8c3.4,0,6.7-1.9,8.3-4.7l4,1.5
			c-2.3,4.6-7,7.4-12.3,7.4c-8.2,0-14.1-6-14.1-14.4c0-8.5,5.8-14.6,13.9-14.6c8,0,14,6.1,14,14.2c0,0.4,0,1.1-0.1,1.8H854.1z
			 M872.3,25.4c-0.2-2.2-0.6-3.4-1.6-4.7c-1.7-2.3-4.6-3.8-7.6-3.8c-3.1,0-5.8,1.4-7.4,3.8c-0.8,1.3-1.2,2.5-1.6,4.7H872.3z"/>
		<path class="st7" d="M-400.6,85.4v17.7c0,3.8-0.7,5.9-2.8,7.7c-2,1.9-4.9,2.9-8,2.9c-3.1,0-6-1.1-8-2.9c-1.9-1.8-2.8-4.3-2.8-7.7
			V85.4h4.6V103c0,3.9,2.5,6.7,6.2,6.7c1.9,0,3.8-0.8,4.9-2.1c0.9-1.1,1.2-2.2,1.2-4.4V85.4H-400.6z"/>
		<path class="st7" d="M-387.7,85.4v3.9c2.4-3.2,4.8-4.6,8.2-4.6c2.5,0,4.8,0.8,6.4,2.3c1.7,1.7,2.3,3.6,2.3,7.4v18.7h-4.6V95.4
			c0-2.5-0.3-3.8-1-4.7c-0.8-1.1-2.5-1.9-4.3-1.9c-2,0-3.9,0.8-5.3,2.3c-1.3,1.4-1.8,2.8-1.8,5v16.9h-4.6V85.4H-387.7z"/>
		<path class="st7" d="M-341,73.1h4.6v40h-4.6v-4.7c-2.8,3.8-5.7,5.4-9.9,5.4c-7.6,0-13-5.9-13-14.3s5.5-14.6,13-14.6
			c4.1,0,7.2,1.5,9.9,4.9V73.1z M-359.1,99.5c0,6.1,3.7,10.3,8.9,10.3c5.3,0,9.2-4.4,9.2-10.4c0-6.2-3.7-10.5-8.9-10.5
			C-355.4,88.8-359.1,93.2-359.1,99.5z"/>
		<path class="st7" d="M-288.5,85.4v17.7c0,3.8-0.7,5.9-2.8,7.7c-2,1.9-4.9,2.9-8,2.9c-3.1,0-6-1.1-8-2.9c-1.9-1.8-2.8-4.3-2.8-7.7
			V85.4h4.6V103c0,4,2.5,6.7,6.2,6.7c1.9,0,3.8-0.8,4.9-2.1c0.9-1.1,1.2-2.2,1.2-4.4V85.4H-288.5z M-302.5,77.6
			c0,1.6-1.2,2.8-2.8,2.8c-1.6,0-2.8-1.2-2.8-2.8c0-1.6,1.2-2.8,2.8-2.8C-303.7,74.7-302.5,75.9-302.5,77.6z M-290.5,77.6
			c0,1.6-1.2,2.8-2.8,2.8c-1.6,0-2.8-1.2-2.8-2.8c0-1.6,1.2-2.8,2.8-2.8C-291.7,74.7-290.5,75.9-290.5,77.6z"/>
		<path class="st7" d="M-275.6,113.1h-4.6v-40h4.6v17.1c2.8-3.8,5.7-5.4,9.7-5.4c7.7,0,13.1,6,13.1,14.6c0,8.5-5.3,14.4-12.9,14.4
			c-4.3,0-7.3-1.6-10-5.4V113.1z M-275.6,99.3c0,6.3,3.6,10.5,9,10.5c5.5,0,9.1-4.1,9.1-10.3s-3.7-10.6-8.9-10.6
			C-271.7,88.8-275.6,93.2-275.6,99.3z"/>
		<path class="st7" d="M-243.1,100.7c0.2,2.3,0.7,3.5,1.8,5c1.8,2.5,4.4,3.8,7.4,3.8c3.4,0,6.7-1.9,8.3-4.7l4,1.5
			c-2.3,4.6-7,7.4-12.3,7.4c-8.2,0-14.1-6-14.1-14.4c0-8.5,5.8-14.6,13.9-14.6c8,0,14,6.1,14,14.2c0,0.4,0,1.1-0.1,1.8H-243.1z
			 M-224.9,97.4c-0.2-2.2-0.6-3.4-1.6-4.7c-1.7-2.3-4.6-3.8-7.6-3.8c-3.1,0-5.8,1.4-7.4,3.8c-0.8,1.3-1.2,2.5-1.6,4.7H-224.9z"/>
		<path class="st7" d="M-208.9,85.4v4.7c0.8-2,1.4-2.8,2.5-3.7c1.4-1.1,3.3-1.7,5.3-1.7h1.1v4.6c-0.5-0.1-1-0.1-1.3-0.1
			c-2.5,0-4.6,1.1-6,3.2c-1.2,1.7-1.6,3.4-1.6,6.5v14h-4.6V85.4H-208.9z"/>
		<path class="st7" d="M-176.9,109.1v4h-20.4l14.4-23.6h-12.8v-4h20.3l-14.2,23.6H-176.9z"/>
		<path class="st7" d="M-168.7,100.7c0.2,2.3,0.7,3.5,1.8,5c1.8,2.5,4.4,3.8,7.4,3.8c3.4,0,6.7-1.9,8.3-4.7l4,1.5
			c-2.3,4.6-7,7.4-12.3,7.4c-8.2,0-14.1-6-14.1-14.4c0-8.5,5.8-14.6,13.9-14.6c8,0,14,6.1,14,14.2c0,0.4,0,1.1-0.1,1.8H-168.7z
			 M-150.5,97.4c-0.2-2.2-0.6-3.4-1.6-4.7c-1.7-2.3-4.6-3.8-7.6-3.8s-5.8,1.4-7.4,3.8c-0.8,1.3-1.2,2.5-1.6,4.7H-150.5z"/>
		<path class="st7" d="M-118.3,85.4v17.7c0,3.8-0.7,5.9-2.8,7.7c-2,1.9-4.9,2.9-8,2.9c-3.1,0-6-1.1-8-2.9c-1.9-1.8-2.8-4.3-2.8-7.7
			V85.4h4.6V103c0,3.9,2.5,6.7,6.2,6.7c1.9,0,3.8-0.8,4.9-2.1c0.9-1.1,1.2-2.2,1.2-4.4V85.4H-118.3z"/>
		<path class="st7" d="M-89.3,85.4h4.6v27.8c0,4.6-1.1,7.7-3.7,10.1c-2.5,2.4-6,3.7-10.2,3.7c-5.2,0-9.2-1.7-12.2-5l3.1-3.1
			c1.3,1.3,1.9,1.9,2.6,2.4c1.6,1,4.1,1.6,6.5,1.6c2.9,0,5.6-1,7.2-2.7c1.4-1.5,2.1-3.7,2.1-6.6v-5.8c-2.7,4.1-5.9,5.9-10.2,5.9
			c-7.3,0-12.8-6.2-12.8-14.4c0-4.4,1.6-8.7,4.4-11.3c2.2-2.2,5.2-3.2,8.8-3.2c4.2,0,7,1.6,9.8,5.4V85.4z M-107.5,99.2
			c0,5.9,3.8,10.4,9.1,10.4c2.6,0,5.2-1.3,7-3.4c1.2-1.4,2-4.1,2-6.8c0-3.6-0.5-5.5-2.2-7.3c-1.7-1.9-4.3-3.1-6.7-3.1
			C-103.7,89-107.5,93.2-107.5,99.2z"/>
		<path class="st7" d="M-73.1,100.7c0.2,2.3,0.7,3.5,1.8,5c1.8,2.5,4.4,3.8,7.4,3.8c3.4,0,6.7-1.9,8.3-4.7l4,1.5
			c-2.3,4.6-7,7.4-12.3,7.4c-8.2,0-14.1-6-14.1-14.4c0-8.5,5.8-14.6,13.9-14.6c8,0,14,6.1,14,14.2c0,0.4,0,1.1-0.1,1.8H-73.1z
			 M-54.9,97.4c-0.2-2.2-0.6-3.4-1.6-4.7c-1.7-2.3-4.6-3.8-7.6-3.8c-3.1,0-5.8,1.4-7.4,3.8c-0.8,1.3-1.2,2.5-1.6,4.7H-54.9z"/>
		<path class="st7" d="M-4.7,73.1h4.6v40h-4.6v-4.7c-2.8,3.8-5.7,5.4-9.9,5.4c-7.6,0-13-5.9-13-14.3s5.5-14.6,13-14.6
			c4.1,0,7.2,1.5,9.9,4.9V73.1z M-22.9,99.5c0,6.1,3.7,10.3,8.9,10.3c5.3,0,9.2-4.4,9.2-10.4c0-6.2-3.7-10.5-8.9-10.5
			C-19.1,88.8-22.9,93.2-22.9,99.5z"/>
		<path class="st7" d="M14.2,77.7c0,1.6-1.3,2.9-2.9,2.9c-1.6,0-2.9-1.3-2.9-2.9c0-1.7,1.3-2.9,2.9-2.9C13,74.7,14.2,76,14.2,77.7z
			 M13.6,113.1H9V85.4h4.6V113.1z"/>
		<path class="st7" d="M44.3,109.7c-3.1,2.8-6.2,4.1-10.2,4.1c-7.9,0-13.6-6-13.6-14.4c0-8.6,5.7-14.6,13.8-14.6
			c4,0,7.2,1.3,10.1,4.1l-2.9,2.9c-2.1-1.9-4.4-2.9-7-2.9c-5.5,0-9.2,4.2-9.2,10.2c0,6.1,3.8,10.4,9.2,10.4c2.7,0,4.9-0.9,7.1-3
			L44.3,109.7z"/>
		<path class="st7" d="M54.1,89.3c2.5-3.1,5-4.5,8.3-4.5c2.4,0,4.9,1,6.4,2.5c1.5,1.5,2.2,3.7,2.2,7.2v18.6h-4.6V94.7
			c0-3.8-1.9-5.9-5.2-5.9c-2.1,0-4,0.8-5.4,2.5c-1.4,1.6-1.8,2.9-1.8,5.6v16.2h-4.6v-40h4.6V89.3z"/>
		<path class="st7" d="M102.5,85.4v3.8c2.1-3.2,4.4-4.5,7.9-4.5c3.8,0,6.2,1.6,7.4,5c2-3.5,4.6-5,8.8-5c3.2,0,5.6,1,7,2.9
			c1.3,1.7,1.7,3.3,1.7,7.7v17.7h-4.6V96.5c0-3.4-0.1-4.1-0.8-5.3c-0.8-1.4-2.6-2.3-4.8-2.3c-4,0-6.2,2.7-6.2,7.6v16.6h-4.6V96.5
			c0-2.7-0.2-4.1-0.9-5.3c-0.8-1.6-2.5-2.4-4.5-2.4c-4,0-6.4,2.9-6.4,7.7v16.6H98V85.4H102.5z"/>
		<path class="st7" d="M149.5,77.7c0,1.6-1.3,2.9-2.9,2.9c-1.6,0-2.9-1.3-2.9-2.9c0-1.7,1.3-2.9,2.9-2.9
			C148.3,74.7,149.5,76,149.5,77.7z M148.9,113.1h-4.6V85.4h4.6V113.1z"/>
		<path class="st7" d="M162.9,107.4c0.1,1.4,0.4,1.7,2.1,1.7h2.1v4h-4.3c-3.2-0.1-4.5-1.3-4.5-4.3V89.4h-3.8v-4h3.8v-8.7h4.6v8.7
			h4.2v4h-4.2V107.4z"/>
		<path class="st7" d="M212.3,73.1h4.6v40h-4.6v-4.7c-2.8,3.8-5.7,5.4-9.9,5.4c-7.6,0-13-5.9-13-14.3s5.5-14.6,13-14.6
			c4.1,0,7.2,1.5,9.9,4.9V73.1z M194.2,99.5c0,6.1,3.7,10.3,8.9,10.3c5.3,0,9.2-4.4,9.2-10.4c0-6.2-3.7-10.5-8.9-10.5
			C197.9,88.8,194.2,93.2,194.2,99.5z"/>
		<path class="st7" d="M231.2,77.7c0,1.6-1.3,2.9-2.9,2.9s-2.9-1.3-2.9-2.9c0-1.7,1.3-2.9,2.9-2.9C230,74.7,231.2,76,231.2,77.7z
			 M230.6,113.1H226V85.4h4.6V113.1z"/>
		<path class="st7" d="M242.4,100.7c0.2,2.3,0.7,3.5,1.8,5c1.8,2.5,4.4,3.8,7.4,3.8c3.4,0,6.7-1.9,8.3-4.7l4,1.5
			c-2.3,4.6-7,7.4-12.3,7.4c-8.2,0-14.1-6-14.1-14.4c0-8.5,5.8-14.6,13.9-14.6c8,0,14,6.1,14,14.2c0,0.4,0,1.1-0.1,1.8H242.4z
			 M260.6,97.4c-0.2-2.2-0.6-3.4-1.6-4.7c-1.7-2.3-4.6-3.8-7.6-3.8c-3.1,0-5.8,1.4-7.4,3.8c-0.8,1.3-1.2,2.5-1.6,4.7H260.6z"/>
		<path class="st7" d="M284.7,93v-0.3c0-2.6-2.1-4.2-5.3-4.2c-3.1,0-5,1.6-5,4c0,2.4,1.2,3.3,6.2,4.7c3.5,1,5.4,1.9,6.7,3.2
			c1.4,1.4,2.2,3.4,2.2,5.4c0,4.8-4,8-9.8,8c-6.3,0-9.8-2.9-10.3-8.5h4.5c0.3,3.1,2.3,4.8,5.8,4.8c3.1,0,5.2-1.6,5.2-4.1
			c0-2.4-1.6-3.6-6.3-4.8c-6-1.6-8.7-4.1-8.7-8.3c0-4.8,3.9-8,9.7-8c5.9,0,9.4,3,9.7,8.2H284.7z"/>
		<path class="st7" d="M299.3,100.7c0.2,2.3,0.7,3.5,1.8,5c1.8,2.5,4.4,3.8,7.4,3.8c3.4,0,6.7-1.9,8.3-4.7l4,1.5
			c-2.3,4.6-7,7.4-12.3,7.4c-8.2,0-14.1-6-14.1-14.4c0-8.5,5.8-14.6,13.9-14.6c8,0,14,6.1,14,14.2c0,0.4,0,1.1-0.1,1.8H299.3z
			 M317.5,97.4c-0.2-2.2-0.6-3.4-1.6-4.7c-1.7-2.3-4.6-3.8-7.6-3.8c-3.1,0-5.8,1.4-7.4,3.8c-0.8,1.3-1.2,2.5-1.6,4.7H317.5z"/>
		<path class="st7" d="M333.5,85.4v4.7c0.8-2,1.4-2.8,2.5-3.7c1.4-1.1,3.3-1.7,5.3-1.7h1.1v4.6c-0.5-0.1-1-0.1-1.3-0.1
			c-2.5,0-4.6,1.1-6,3.2c-1.2,1.7-1.6,3.4-1.6,6.5v14H329V85.4H333.5z"/>
		<path class="st7" d="M371.3,77.7c0,1.6-1.3,2.9-2.9,2.9s-2.9-1.3-2.9-2.9c0-1.7,1.3-2.9,2.9-2.9C370,74.7,371.3,76,371.3,77.7z
			 M370.6,113.1H366V85.4h4.6V113.1z"/>
		<path class="st7" d="M384.3,85.4v3.9c2.4-3.2,4.8-4.6,8.2-4.6c2.5,0,4.8,0.8,6.4,2.3c1.7,1.7,2.3,3.6,2.3,7.4v18.7h-4.6V95.4
			c0-2.5-0.3-3.8-1-4.7c-0.8-1.1-2.5-1.9-4.3-1.9c-2,0-3.9,0.8-5.3,2.3c-1.3,1.4-1.8,2.8-1.8,5v16.9h-4.6V85.4H384.3z"/>
		<path class="st7" d="M415.2,107.4c0.1,1.4,0.4,1.7,2.1,1.7h2.1v4h-4.3c-3.2-0.1-4.5-1.3-4.5-4.3V89.4h-3.8v-4h3.8v-8.7h4.6v8.7
			h4.2v4h-4.2V107.4z"/>
		<path class="st7" d="M428,100.7c0.2,2.3,0.7,3.5,1.8,5c1.8,2.5,4.4,3.8,7.4,3.8c3.4,0,6.7-1.9,8.3-4.7l4,1.5
			c-2.3,4.6-7,7.4-12.3,7.4c-8.2,0-14.1-6-14.1-14.4c0-8.5,5.8-14.6,13.9-14.6c8,0,14,6.1,14,14.2c0,0.4,0,1.1-0.1,1.8H428z
			 M446.2,97.4c-0.2-2.2-0.6-3.4-1.6-4.7c-1.7-2.3-4.6-3.8-7.6-3.8c-3.1,0-5.8,1.4-7.4,3.8c-0.8,1.3-1.2,2.5-1.6,4.7H446.2z"/>
		<path class="st7" d="M462.2,85.4v4.7c0.8-2,1.4-2.8,2.5-3.7c1.4-1.1,3.3-1.7,5.3-1.7h1.1v4.6c-0.5-0.1-1-0.1-1.3-0.1
			c-2.5,0-4.6,1.1-6,3.2c-1.2,1.7-1.6,3.4-1.6,6.5v14h-4.6V85.4H462.2z"/>
		<path class="st7" d="M496.7,85.4h4.6v27.7h-4.6v-5.3c-2.8,4.1-5.9,6-10.1,6c-7.6,0-13-6-13-14.4c0-8.5,5.5-14.6,13.1-14.6
			c4.2,0,7.3,1.6,10,5.2V85.4z M480.6,92.1c-1.4,2-2.3,4.6-2.3,7.3c0,5.9,3.8,10.3,8.9,10.3c5.2,0,9.5-4.9,9.5-10.8
			c0-6-3.8-10.1-9.4-10.1C484.4,88.8,482.3,89.9,480.6,92.1z"/>
		<path class="st7" d="M515,113.1h-4.6v-40h4.6v24.5l11-12.1h5.8l-12.4,13.5l12.3,14.2H526l-11-12.4V113.1z"/>
		<path class="st7" d="M543.3,107.4c0.1,1.4,0.4,1.7,2.1,1.7h2.1v4h-4.3c-3.2-0.1-4.5-1.3-4.5-4.3V89.4h-3.8v-4h3.8v-8.7h4.6v8.7
			h4.2v4h-4.2V107.4z"/>
		<path class="st7" d="M558.8,77.7c0,1.6-1.3,2.9-2.9,2.9s-2.9-1.3-2.9-2.9c0-1.7,1.3-2.9,2.9-2.9C557.6,74.7,558.8,76,558.8,77.7z
			 M558.2,113.1h-4.6V85.4h4.6V113.1z"/>
		<path class="st7" d="M588.3,85.4l-10.4,27.7h-4.8L563,85.4h4.8l7.8,21.1l8-21.1H588.3z"/>
		<path class="st7" d="M595.2,100.7c0.2,2.3,0.7,3.5,1.8,5c1.8,2.5,4.4,3.8,7.4,3.8c3.4,0,6.7-1.9,8.3-4.7l4,1.5
			c-2.3,4.6-7,7.4-12.3,7.4c-8.2,0-14.1-6-14.1-14.4c0-8.5,5.8-14.6,13.9-14.6c8,0,14,6.1,14,14.2c0,0.4,0,1.1-0.1,1.8H595.2z
			 M613.4,97.4c-0.2-2.2-0.6-3.4-1.6-4.7c-1.7-2.3-4.6-3.8-7.6-3.8c-3.1,0-5.8,1.4-7.4,3.8c-0.8,1.3-1.2,2.5-1.6,4.7H613.4z"/>
		<path class="st7" d="M629.4,85.4v3.9c2.4-3.2,4.8-4.6,8.2-4.6c2.5,0,4.8,0.8,6.4,2.3c1.7,1.7,2.3,3.6,2.3,7.4v18.7h-4.6V95.4
			c0-2.5-0.3-3.8-1-4.7c-0.8-1.1-2.5-1.9-4.3-1.9c-2,0-3.9,0.8-5.3,2.3c-1.3,1.4-1.8,2.8-1.8,5v16.9h-4.6V85.4H629.4z"/>
		<path class="st7" d="M-420.9,145.1h10.6c12.1,0,19.3,7.3,19.3,19.4c0,6.8-2.2,12.4-6.3,16c-3.5,3.1-8.1,4.6-13.9,4.6h-9.7V145.1z
			 M-415.9,180.8h1.8c6.8,0,9.7-0.7,12.5-3c3.6-2.9,5.4-7.3,5.4-13.3c0-9.7-5.2-15.2-14.3-15.2h-5.4V180.8z"/>
		<path class="st7" d="M-357.6,171.3c0,8.1-6.2,14.4-14.2,14.4c-8.2,0-14-6-14-14.5c0-8.6,5.8-14.5,14.2-14.5
			C-363.4,156.8-357.6,162.8-357.6,171.3z M-381.1,171.3c0,6.1,3.8,10.3,9.4,10.3c5.5,0,9.4-4.3,9.4-10.3c0-6.2-3.7-10.3-9.3-10.3
			C-377.3,161-381.1,165.1-381.1,171.3z"/>
		<path class="st7" d="M-346.1,185.1h-4.6v-40h4.6v24.5l11-12.1h5.8l-12.4,13.5l12.3,14.2h-5.7l-11-12.4V185.1z"/>
		<path class="st7" d="M-303.2,157.4v17.7c0,3.8-0.7,5.9-2.8,7.7c-2,1.9-4.9,2.9-8,2.9c-3.1,0-6-1.1-8-2.9c-1.9-1.8-2.8-4.3-2.8-7.7
			v-17.7h4.6V175c0,3.9,2.5,6.7,6.2,6.7c1.9,0,3.8-0.8,4.9-2.1c0.9-1.1,1.2-2.2,1.2-4.4v-17.7H-303.2z"/>
		<path class="st7" d="M-290.3,157.4v3.8c2.1-3.2,4.4-4.5,7.9-4.5c3.8,0,6.2,1.6,7.4,5c2-3.5,4.6-5,8.8-5c3.2,0,5.6,1,7,2.9
			c1.3,1.7,1.7,3.3,1.7,7.7v17.7h-4.6v-16.6c0-3.4-0.1-4.1-0.8-5.3c-0.8-1.4-2.6-2.3-4.8-2.3c-4,0-6.2,2.7-6.2,7.6v16.6h-4.6v-16.6
			c0-2.7-0.2-4.1-0.9-5.3c-0.8-1.6-2.5-2.4-4.5-2.4c-4,0-6.4,2.9-6.4,7.7v16.6h-4.6v-27.7H-290.3z"/>
		<path class="st7" d="M-245.9,172.7c0.2,2.3,0.7,3.5,1.8,5c1.8,2.5,4.4,3.8,7.4,3.8c3.4,0,6.7-1.9,8.3-4.7l4,1.5
			c-2.3,4.6-7,7.4-12.3,7.4c-8.2,0-14.1-6-14.1-14.4c0-8.5,5.8-14.6,13.9-14.6c8,0,14,6.1,14,14.2c0,0.4,0,1.1-0.1,1.8H-245.9z
			 M-227.6,169.4c-0.2-2.2-0.6-3.4-1.6-4.7c-1.7-2.3-4.6-3.8-7.6-3.8c-3.1,0-5.8,1.4-7.4,3.8c-0.8,1.3-1.2,2.5-1.6,4.7H-227.6z"/>
		<path class="st7" d="M-211.6,157.4v3.9c2.4-3.2,4.8-4.6,8.2-4.6c2.5,0,4.8,0.8,6.4,2.3c1.7,1.7,2.3,3.6,2.3,7.4v18.7h-4.6v-17.6
			c0-2.5-0.3-3.8-1-4.7c-0.8-1.1-2.5-1.9-4.3-1.9c-2,0-3.9,0.8-5.3,2.3c-1.3,1.4-1.8,2.8-1.8,5v16.9h-4.6v-27.7H-211.6z"/>
		<path class="st7" d="M-180.8,179.4c0.1,1.4,0.4,1.7,2.1,1.7h2.1v4h-4.3c-3.2-0.1-4.5-1.3-4.5-4.3v-19.3h-3.8v-4h3.8v-8.7h4.6v8.7
			h4.2v4h-4.2V179.4z"/>
		<path class="st7" d="M-149.8,157.4h4.6v27.7h-4.6v-5.3c-2.8,4.1-5.9,6-10.1,6c-7.6,0-13-6-13-14.4c0-8.5,5.5-14.6,13.1-14.6
			c4.2,0,7.3,1.6,10,5.2V157.4z M-165.8,164.1c-1.4,2-2.3,4.6-2.3,7.3c0,5.9,3.8,10.3,8.9,10.3c5.2,0,9.5-4.9,9.5-10.8
			c0-6-3.8-10.1-9.4-10.1C-162.1,160.8-164.2,161.9-165.8,164.1z"/>
		<path class="st7" d="M-131.3,179.4c0.1,1.4,0.4,1.7,2.1,1.7h2.1v4h-4.3c-3.2-0.1-4.5-1.3-4.5-4.3v-19.3h-3.8v-4h3.8v-8.7h4.6v8.7
			h4.2v4h-4.2V179.4z"/>
		<path class="st7" d="M-115.9,149.7c0,1.6-1.3,2.9-2.9,2.9c-1.6,0-2.9-1.3-2.9-2.9c0-1.7,1.3-2.9,2.9-2.9
			C-117.1,146.7-115.9,148-115.9,149.7z M-116.5,185.1h-4.6v-27.7h4.6V185.1z"/>
		<path class="st7" d="M-81.4,171.3c0,8.1-6.2,14.4-14.2,14.4c-8.2,0-14-6-14-14.5c0-8.6,5.8-14.5,14.2-14.5
			C-87.2,156.8-81.4,162.8-81.4,171.3z M-104.9,171.3c0,6.1,3.8,10.3,9.4,10.3c5.5,0,9.4-4.3,9.4-10.3c0-6.2-3.7-10.3-9.3-10.3
			C-101.1,161-104.9,165.1-104.9,171.3z"/>
		<path class="st7" d="M-69.9,157.4v3.9c2.4-3.2,4.8-4.6,8.2-4.6c2.5,0,4.8,0.8,6.4,2.3c1.7,1.7,2.3,3.6,2.3,7.4v18.7h-4.6v-17.6
			c0-2.5-0.3-3.8-1-4.7c-0.8-1.1-2.5-1.9-4.3-1.9c-2,0-3.9,0.8-5.3,2.3c-1.3,1.4-1.8,2.8-1.8,5v16.9h-4.6v-27.7H-69.9z"/>
		<path class="st7" d="M-4.7,157.4l-10.4,27.7H-20l-10.1-27.7h4.8l7.8,21.1l8-21.1H-4.7z"/>
		<path class="st7" d="M25.4,171.3c0,8.1-6.2,14.4-14.2,14.4c-8.2,0-14-6-14-14.5c0-8.6,5.8-14.5,14.2-14.5
			C19.6,156.8,25.4,162.8,25.4,171.3z M1.9,171.3c0,6.1,3.8,10.3,9.4,10.3c5.5,0,9.4-4.3,9.4-10.3c0-6.2-3.7-10.3-9.3-10.3
			C5.7,161,1.9,165.1,1.9,171.3z"/>
		<path class="st7" d="M36.9,157.4v3.9c2.4-3.2,4.8-4.6,8.2-4.6c2.5,0,4.8,0.8,6.4,2.3c1.7,1.7,2.3,3.6,2.3,7.4v18.7h-4.6v-17.6
			c0-2.5-0.3-3.8-1-4.7c-0.8-1.1-2.5-1.9-4.3-1.9c-2,0-3.9,0.8-5.3,2.3c-1.3,1.4-1.8,2.8-1.8,5v16.9h-4.6v-27.7H36.9z"/>
		<path class="st7" d="M101.6,145.1h4.6v40h-4.6v-4.7c-2.8,3.8-5.7,5.4-9.9,5.4c-7.6,0-13-5.9-13-14.3s5.5-14.6,13-14.6
			c4.1,0,7.2,1.5,9.9,4.9V145.1z M83.5,171.5c0,6.1,3.7,10.3,8.9,10.3c5.3,0,9.2-4.4,9.2-10.4c0-6.2-3.7-10.5-8.9-10.5
			C87.2,160.8,83.5,165.2,83.5,171.5z"/>
		<path class="st7" d="M118,172.7c0.2,2.3,0.7,3.5,1.8,5c1.8,2.5,4.4,3.8,7.4,3.8c3.4,0,6.7-1.9,8.3-4.7l4,1.5
			c-2.3,4.6-7,7.4-12.3,7.4c-8.2,0-14.1-6-14.1-14.4c0-8.5,5.8-14.6,13.9-14.6c8,0,14,6.1,14,14.2c0,0.4,0,1.1-0.1,1.8H118z
			 M136.2,169.4c-0.2-2.2-0.6-3.4-1.6-4.7c-1.7-2.3-4.6-3.8-7.6-3.8c-3.1,0-5.8,1.4-7.4,3.8c-0.8,1.3-1.2,2.5-1.6,4.7H136.2z"/>
		<path class="st7" d="M152.2,157.4v3.8c2.1-3.2,4.4-4.5,7.9-4.5c3.8,0,6.2,1.6,7.4,5c2-3.5,4.6-5,8.8-5c3.2,0,5.6,1,7,2.9
			c1.3,1.7,1.7,3.3,1.7,7.7v17.7h-4.6v-16.6c0-3.4-0.1-4.1-0.8-5.3c-0.8-1.4-2.6-2.3-4.8-2.3c-4,0-6.2,2.7-6.2,7.6v16.6H164v-16.6
			c0-2.7-0.2-4.1-0.9-5.3c-0.8-1.6-2.5-2.4-4.5-2.4c-4,0-6.4,2.9-6.4,7.7v16.6h-4.6v-27.7H152.2z"/>
		<path class="st7" d="M216.5,185.1H212v-40h4.6v17.1c2.8-3.8,5.7-5.4,9.7-5.4c7.7,0,13.1,6,13.1,14.6c0,8.5-5.3,14.4-12.9,14.4
			c-4.3,0-7.3-1.6-10-5.4V185.1z M216.5,171.3c0,6.3,3.6,10.5,9,10.5c5.5,0,9.1-4.1,9.1-10.3s-3.7-10.6-8.9-10.6
			C220.4,160.8,216.5,165.2,216.5,171.3z"/>
		<path class="st7" d="M267.2,157.4h4.6v27.7h-4.6v-5.3c-2.8,4.1-5.9,6-10.1,6c-7.6,0-13-6-13-14.4c0-8.5,5.5-14.6,13.1-14.6
			c4.2,0,7.3,1.6,10,5.2V157.4z M251.2,164.1c-1.4,2-2.3,4.6-2.3,7.3c0,5.9,3.8,10.3,8.9,10.3c5.2,0,9.5-4.9,9.5-10.8
			c0-6-3.8-10.1-9.4-10.1C254.9,160.8,252.8,161.9,251.2,164.1z"/>
		<path class="st7" d="M285.5,157.4v4.7c0.8-2,1.4-2.8,2.5-3.7c1.4-1.1,3.3-1.7,5.3-1.7h1.1v4.6c-0.5-0.1-1-0.1-1.3-0.1
			c-2.5,0-4.6,1.1-6,3.2c-1.2,1.7-1.6,3.4-1.6,6.5v14H281v-27.7H285.5z"/>
		<path class="st7" d="M304.1,157.4v4.7c0.8-2,1.4-2.8,2.5-3.7c1.4-1.1,3.3-1.7,5.3-1.7h1.1v4.6c-0.5-0.1-1-0.1-1.3-0.1
			c-2.5,0-4.6,1.1-6,3.2c-1.2,1.7-1.6,3.4-1.6,6.5v14h-4.6v-27.7H304.1z"/>
		<path class="st7" d="M323.4,149.7c0,1.6-1.3,2.9-2.9,2.9s-2.9-1.3-2.9-2.9c0-1.7,1.3-2.9,2.9-2.9
			C322.1,146.7,323.4,148,323.4,149.7z M322.7,185.1h-4.6v-27.7h4.6V185.1z"/>
		<path class="st7" d="M334.6,172.7c0.2,2.3,0.7,3.5,1.8,5c1.8,2.5,4.4,3.8,7.4,3.8c3.4,0,6.7-1.9,8.3-4.7l4,1.5
			c-2.3,4.6-7,7.4-12.3,7.4c-8.2,0-14.1-6-14.1-14.4c0-8.5,5.8-14.6,13.9-14.6c8,0,14,6.1,14,14.2c0,0.4,0,1.1-0.1,1.8H334.6z
			 M352.8,169.4c-0.2-2.2-0.6-3.4-1.6-4.7c-1.7-2.3-4.6-3.8-7.6-3.8c-3.1,0-5.8,1.4-7.4,3.8c-0.8,1.3-1.2,2.5-1.6,4.7H352.8z"/>
		<path class="st7" d="M368.8,157.4v4.7c0.8-2,1.4-2.8,2.5-3.7c1.4-1.1,3.3-1.7,5.3-1.7h1.1v4.6c-0.5-0.1-1-0.1-1.3-0.1
			c-2.5,0-4.6,1.1-6,3.2c-1.2,1.7-1.6,3.4-1.6,6.5v14h-4.6v-27.7H368.8z"/>
		<path class="st7" d="M385,172.7c0.2,2.3,0.7,3.5,1.8,5c1.8,2.5,4.4,3.8,7.4,3.8c3.4,0,6.7-1.9,8.3-4.7l4,1.5
			c-2.3,4.6-7,7.4-12.3,7.4c-8.2,0-14.1-6-14.1-14.4c0-8.5,5.8-14.6,13.9-14.6c8,0,14,6.1,14,14.2c0,0.4,0,1.1-0.1,1.8H385z
			 M403.2,169.4c-0.2-2.2-0.6-3.4-1.6-4.7c-1.7-2.3-4.6-3.8-7.6-3.8c-3.1,0-5.8,1.4-7.4,3.8c-0.8,1.3-1.2,2.5-1.6,4.7H403.2z"/>
		<path class="st7" d="M419.1,185.1h-4.6v-23.6h-3.8v-4h3.8v-3.7c0-5.5,2.8-8.7,7.6-8.7c0.2,0,0.8,0,1.3,0.1v4.1
			c-3.3,0.4-4.2,1.3-4.3,4.6v3.7h4.3v4h-4.3V185.1z"/>
		<path class="st7" d="M434.1,157.4v4.7c0.8-2,1.4-2.8,2.5-3.7c1.4-1.1,3.3-1.7,5.3-1.7h1.1v4.6c-0.5-0.1-1-0.1-1.3-0.1
			c-2.5,0-4.6,1.1-6,3.2c-1.2,1.7-1.6,3.4-1.6,6.5v14h-4.6v-27.7H434.1z"/>
		<path class="st7" d="M450.3,172.7c0.2,2.3,0.7,3.5,1.8,5c1.8,2.5,4.4,3.8,7.4,3.8c3.4,0,6.7-1.9,8.3-4.7l4,1.5
			c-2.3,4.6-7,7.4-12.3,7.4c-8.2,0-14.1-6-14.1-14.4c0-8.5,5.8-14.6,13.9-14.6c8,0,14,6.1,14,14.2c0,0.4,0,1.1-0.1,1.8H450.3z
			 M468.5,169.4c-0.2-2.2-0.6-3.4-1.6-4.7c-1.7-2.3-4.6-3.8-7.6-3.8c-3.1,0-5.8,1.4-7.4,3.8c-0.8,1.3-1.2,2.5-1.6,4.7H468.5z"/>
		<path class="st7" d="M485.2,149.7c0,1.6-1.3,2.9-2.9,2.9s-2.9-1.3-2.9-2.9c0-1.7,1.3-2.9,2.9-2.9
			C483.9,146.7,485.2,148,485.2,149.7z M484.5,185.1H480v-27.7h4.6V185.1z"/>
		<path class="st7" d="M496.4,172.7c0.2,2.3,0.7,3.5,1.8,5c1.8,2.5,4.4,3.8,7.4,3.8c3.4,0,6.7-1.9,8.3-4.7l4,1.5
			c-2.3,4.6-7,7.4-12.3,7.4c-8.2,0-14.1-6-14.1-14.4c0-8.5,5.8-14.6,13.9-14.6c8,0,14,6.1,14,14.2c0,0.4,0,1.1-0.1,1.8H496.4z
			 M514.6,169.4c-0.2-2.2-0.6-3.4-1.6-4.7c-1.7-2.3-4.6-3.8-7.6-3.8c-3.1,0-5.8,1.4-7.4,3.8c-0.8,1.3-1.2,2.5-1.6,4.7H514.6z"/>
		<path class="st7" d="M530.6,157.4v3.9c2.4-3.2,4.8-4.6,8.2-4.6c2.5,0,4.8,0.8,6.4,2.3c1.7,1.7,2.3,3.6,2.3,7.4v18.7H543v-17.6
			c0-2.5-0.3-3.8-1-4.7c-0.8-1.1-2.5-1.9-4.3-1.9c-2,0-3.9,0.8-5.3,2.3c-1.3,1.4-1.8,2.8-1.8,5v16.9h-4.6v-27.7H530.6z"/>
		<path class="st7" d="M580.1,162.8h15.6v4.3h-15.6v18h-5v-40h20.6v4.3h-15.6V162.8z"/>
		<path class="st7" d="M623.1,157.4h4.6v27.7h-4.6v-5.3c-2.8,4.1-5.9,6-10.1,6c-7.6,0-13-6-13-14.4c0-8.5,5.5-14.6,13.1-14.6
			c4.2,0,7.3,1.6,10,5.2V157.4z M607.1,164.1c-1.4,2-2.3,4.6-2.3,7.3c0,5.9,3.8,10.3,8.9,10.3c5.2,0,9.5-4.9,9.5-10.8
			c0-6-3.8-10.1-9.4-10.1C610.8,160.8,608.7,161.9,607.1,164.1z"/>
		<path class="st7" d="M641.4,161.3c2.5-3.1,5-4.5,8.3-4.5c2.4,0,4.9,1,6.4,2.5c1.5,1.5,2.2,3.7,2.2,7.2v18.6h-4.6v-18.4
			c0-3.8-1.9-5.9-5.2-5.9c-2.1,0-4,0.8-5.4,2.5c-1.4,1.6-1.8,2.9-1.8,5.6v16.2h-4.6v-40h4.6V161.3z"/>
		<path class="st7" d="M671.9,157.4v4.7c0.8-2,1.4-2.8,2.5-3.7c1.4-1.1,3.3-1.7,5.3-1.7h1.1v4.6c-0.5-0.1-1-0.1-1.3-0.1
			c-2.5,0-4.6,1.1-6,3.2c-1.2,1.7-1.6,3.4-1.6,6.5v14h-4.6v-27.7H671.9z"/>
		<path class="st7" d="M688,172.7c0.2,2.3,0.7,3.5,1.8,5c1.8,2.5,4.4,3.8,7.4,3.8c3.4,0,6.7-1.9,8.3-4.7l4,1.5
			c-2.3,4.6-7,7.4-12.3,7.4c-8.2,0-14.1-6-14.1-14.4c0-8.5,5.8-14.6,13.9-14.6c8,0,14,6.1,14,14.2c0,0.4,0,1.1-0.1,1.8H688z
			 M706.2,169.4c-0.2-2.2-0.6-3.4-1.6-4.7c-1.7-2.3-4.6-3.8-7.6-3.8c-3.1,0-5.8,1.4-7.4,3.8c-0.8,1.3-1.2,2.5-1.6,4.7H706.2z"/>
		<path class="st7" d="M722.3,157.4v4.7c0.8-2,1.4-2.8,2.5-3.7c1.4-1.1,3.3-1.7,5.3-1.7h1.1v4.6c-0.5-0.1-1-0.1-1.3-0.1
			c-2.5,0-4.6,1.1-6,3.2c-1.2,1.7-1.6,3.4-1.6,6.5v14h-4.6v-27.7H722.3z"/>
		<path class="st7" d="M736.3,185.1v-40h4.6v40H736.3z"/>
		<path class="st7" d="M752.7,172.7c0.2,2.3,0.7,3.5,1.8,5c1.8,2.5,4.4,3.8,7.4,3.8c3.4,0,6.7-1.9,8.3-4.7l4,1.5
			c-2.3,4.6-7,7.4-12.3,7.4c-8.2,0-14.1-6-14.1-14.4c0-8.5,5.8-14.6,13.9-14.6c8,0,14,6.1,14,14.2c0,0.4,0,1.1-0.1,1.8H752.7z
			 M770.9,169.4c-0.2-2.2-0.6-3.4-1.6-4.7c-1.7-2.3-4.6-3.8-7.6-3.8c-3.1,0-5.8,1.4-7.4,3.8c-0.8,1.3-1.2,2.5-1.6,4.7H770.9z"/>
		<path class="st7" d="M786.6,185.1H782v-40h4.6v17.1c2.8-3.8,5.7-5.4,9.7-5.4c7.7,0,13.1,6,13.1,14.6c0,8.5-5.3,14.4-12.9,14.4
			c-4.3,0-7.3-1.6-10-5.4V185.1z M786.5,171.3c0,6.3,3.6,10.5,9,10.5c5.5,0,9.1-4.1,9.1-10.3s-3.7-10.6-8.9-10.6
			C790.4,160.8,786.5,165.2,786.5,171.3z"/>
		<path class="st7" d="M821,157.4v3.9c2.4-3.2,4.8-4.6,8.2-4.6c2.5,0,4.8,0.8,6.4,2.3c1.7,1.7,2.3,3.6,2.3,7.4v18.7h-4.6v-17.6
			c0-2.5-0.3-3.8-1-4.7c-0.8-1.1-2.5-1.9-4.3-1.9c-2,0-3.9,0.8-5.3,2.3c-1.3,1.4-1.8,2.8-1.8,5v16.9h-4.6v-27.7H821z"/>
		<path class="st7" d="M852.2,149.7c0,1.6-1.3,2.9-2.9,2.9s-2.9-1.3-2.9-2.9c0-1.7,1.3-2.9,2.9-2.9
			C850.9,146.7,852.2,148,852.2,149.7z M851.5,185.1h-4.6v-27.7h4.6V185.1z"/>
		<path class="st7" d="M873.5,165v-0.3c0-2.6-2.1-4.2-5.3-4.2c-3.1,0-5,1.6-5,4c0,2.4,1.2,3.3,6.2,4.7c3.5,1,5.4,1.9,6.7,3.2
			c1.4,1.4,2.2,3.4,2.2,5.4c0,4.8-4,8-9.8,8c-6.3,0-9.8-2.9-10.3-8.5h4.5c0.3,3.1,2.3,4.8,5.8,4.8c3.1,0,5.2-1.6,5.2-4.1
			c0-2.4-1.6-3.6-6.3-4.8c-6-1.6-8.7-4.1-8.7-8.3c0-4.8,3.9-8,9.7-8c5.9,0,9.4,3,9.7,8.2H873.5z"/>
		<path class="st7" d="M891.1,182.5c0,1.7-1.4,3.1-3.1,3.1c-1.8,0-3.1-1.3-3.1-3.1s1.3-3.1,3.1-3.1S891.1,180.6,891.1,182.5z"/>
	</g>
	<g class="st6">
		<path class="st12" d="M996,178.5c60.2,0,120.5,0,180.7,0"/>
		<polyline class="st12" points="1120,135.2 1157.5,156.8 1195,178.5 1157.5,200.2 1120,221.8 		"/>
	</g>
</g>
<g id="Ebene_7">
	<g>
		<path class="st12" d="M117,117.8c86.3,0,172.5,0,258.8,0"/>
		<polyline class="st12" points="294.6,55.8 348.3,86.8 402,117.8 348.3,148.8 294.6,179.8 		"/>
	</g>
</g>
</svg>
