<svg xmlns="http://www.w3.org/2000/svg" xmlns:xlink="http://www.w3.org/1999/xlink" viewBox="0 0 1920 1080"><defs><style>.cls-1{fill:none;}.cls-2{isolation:isolate;}.cls-3{clip-path:url(#clip-path);}.cls-4{fill:#87758e;}.cls-5{fill:#646487;}.cls-6{fill:#8ac6ce;}.cls-19,.cls-21,.cls-6{opacity:0.45;}.cls-104,.cls-115,.cls-12,.cls-13,.cls-15,.cls-17,.cls-19,.cls-20,.cls-31,.cls-43,.cls-50,.cls-53,.cls-6,.cls-60,.cls-62,.cls-66,.cls-67,.cls-70,.cls-73,.cls-74,.cls-77,.cls-79,.cls-9{mix-blend-mode:multiply;}.cls-7{fill:#2d4e66;}.cls-8{fill:#364f69;}.cls-12,.cls-13,.cls-9{fill:#597da1;}.cls-53,.cls-9,.cls-99{opacity:0.39;}.cls-10{fill:#5e6651;}.cls-11{fill:#535275;}.cls-12,.cls-43{opacity:0.29;}.cls-13{opacity:0.78;}.cls-14{fill:#8094a0;}.cls-15,.cls-17,.cls-20{fill:#937097;}.cls-110,.cls-15{opacity:0.54;}.cls-16{fill:#a85e51;}.cls-17{opacity:0.49;}.cls-18{fill:#a2ddd3;}.cls-19{fill:#75afb7;}.cls-20{opacity:0.85;}.cls-21{fill:url(#Áĺçűě_ííűé_ăđŕäčĺíň_116);}.cls-116,.cls-117,.cls-118,.cls-119,.cls-120,.cls-121,.cls-22{opacity:0.47;}.cls-110,.cls-114,.cls-116,.cls-117,.cls-118,.cls-119,.cls-120,.cls-121,.cls-123,.cls-22,.cls-23,.cls-24,.cls-34,.cls-35,.cls-40,.cls-44,.cls-48,.cls-51,.cls-64,.cls-65,.cls-96,.cls-99{mix-blend-mode:color-dodge;}.cls-22{fill:url(#Áĺçűě_ííűé_ăđŕäčĺíň_32);}.cls-23,.cls-24{opacity:0.62;}.cls-23{fill:url(#Áĺçűě_ííűé_ăđŕäčĺíň_22);}.cls-24{fill:url(#Áĺçűě_ííűé_ăđŕäčĺíň_22-2);}.cls-25{fill:#579a83;}.cls-26{fill:#32307a;}.cls-27,.cls-62,.cls-63,.cls-64,.cls-65,.cls-66,.cls-67,.cls-68{fill:#afafaf;}.cls-28{fill:#969696;}.cls-29,.cls-34,.cls-35{opacity:0.22;}.cls-30,.cls-57,.cls-71{fill:#48304f;}.cls-31{fill:#35233a;}.cls-31,.cls-96{opacity:0.33;}.cls-32{fill:#bfb0c6;}.cls-33{fill:#c4c4c4;}.cls-34{fill:url(#Áĺçűě_ííűé_ăđŕäčĺíň_24);}.cls-35{fill:url(#Áĺçűě_ííűé_ăđŕäčĺíň_24-2);}.cls-36{fill:#4c2e56;}.cls-37{fill:#795987;}.cls-38{fill:#d47d1f;}.cls-109,.cls-111,.cls-39,.cls-45,.cls-54,.cls-76,.cls-95{fill:#fff;}.cls-39{opacity:0.77;}.cls-111,.cls-39,.cls-45,.cls-54,.cls-63,.cls-76,.cls-95{mix-blend-mode:soft-light;}.cls-40,.cls-57,.cls-68{opacity:0.35;}.cls-40{fill:url(#Áĺçűě_ííűé_ăđŕäčĺíň_173);}.cls-41{fill:#ff5c68;}.cls-42{fill:url(#Áĺçűě_ííűé_ăđŕäčĺíň_14);}.cls-43{fill:#4a7777;}.cls-44{opacity:0.11;fill:url(#Áĺçűě_ííűé_ăđŕäčĺíň_173-2);}.cls-45{opacity:0.53;}.cls-46{fill:#f1ce52;}.cls-47{fill:#353b63;}.cls-48,.cls-73{opacity:0.74;}.cls-48{fill:url(#Áĺçűě_ííűé_ăđŕäčĺíň_177);}.cls-49{fill:url(#Áĺçűě_ííűé_ăđŕäčĺíň_169);}.cls-50,.cls-70{fill:#4f0060;}.cls-50,.cls-64{opacity:0.41;}.cls-51{opacity:0.68;fill:url(#Áĺçűě_ííűé_ăđŕäčĺíň_8);}.cls-52{fill:url(#Áĺçűě_ííűé_ăđŕäčĺíň_189);}.cls-104,.cls-53,.cls-60{fill:#271551;}.cls-54{opacity:0.48;}.cls-55{fill:url(#Áĺçűě_ííűé_ăđŕäčĺíň_189-2);}.cls-56{fill:url(#Áĺçűě_ííűé_ăđŕäčĺíň_189-3);}.cls-58{fill:url(#Áĺçűě_ííűé_ăđŕäčĺíň_189-4);}.cls-59{fill:url(#Áĺçűě_ííűé_ăđŕäčĺíň_189-5);}.cls-60{opacity:0.14;}.cls-61{fill:url(#Áĺçűě_ííűé_ăđŕäčĺíň_189-6);}.cls-62{opacity:0.61;}.cls-63,.cls-95{opacity:0.93;}.cls-65{opacity:0.63;}.cls-66{opacity:0.18;}.cls-67{opacity:0.31;}.cls-69{fill:#3d233c;}.cls-70{opacity:0.58;}.cls-71{opacity:0.34;}.cls-72{fill:url(#Áĺçűě_ííűé_ăđŕäčĺíň_15);}.cls-73,.cls-74,.cls-77,.cls-79{fill:#a96f91;}.cls-74{opacity:0.37;}.cls-75{fill:url(#Áĺçűě_ííűé_ăđŕäčĺíň_107);}.cls-76,.cls-77{opacity:0.6;}.cls-78{fill:url(#Áĺçűě_ííűé_ăđŕäčĺíň_169-2);}.cls-79{opacity:0.52;}.cls-80{fill:url(#Áĺçűě_ííűé_ăđŕäčĺíň_189-7);}.cls-81{fill:url(#Áĺçűě_ííűé_ăđŕäčĺíň_189-8);}.cls-82{fill:url(#Áĺçűě_ííűé_ăđŕäčĺíň_189-9);}.cls-83{fill:url(#Áĺçűě_ííűé_ăđŕäčĺíň_189-10);}.cls-84{fill:url(#Áĺçűě_ííűé_ăđŕäčĺíň_189-11);}.cls-85{fill:url(#Áĺçűě_ííűé_ăđŕäčĺíň_189-12);}.cls-86{fill:url(#Áĺçűě_ííűé_ăđŕäčĺíň_169-3);}.cls-87{fill:url(#Áĺçűě_ííűé_ăđŕäčĺíň_189-13);}.cls-88{fill:url(#Áĺçűě_ííűé_ăđŕäčĺíň_189-14);}.cls-89{fill:url(#Áĺçűě_ííűé_ăđŕäčĺíň_189-15);}.cls-90{fill:url(#Áĺçűě_ííűé_ăđŕäčĺíň_189-16);}.cls-91{fill:url(#Áĺçűě_ííűé_ăđŕäčĺíň_189-17);}.cls-92{fill:url(#Áĺçűě_ííűé_ăđŕäčĺíň_189-18);}.cls-93{fill:url(#Áĺçűě_ííűé_ăđŕäčĺíň_10);}.cls-94{fill:#6f5e73;}.cls-96{fill:url(#Áĺçűě_ííűé_ăđŕäčĺíň_173-3);}.cls-97{fill:url(#Áĺçűě_ííűé_ăđŕäčĺíň_189-19);}.cls-98{fill:url(#Áĺçűě_ííűé_ăđŕäčĺíň_189-20);}.cls-99{fill:url(#Áĺçűě_ííűé_ăđŕäčĺíň_11);}.cls-100{fill:url(#Áĺçűě_ííűé_ăđŕäčĺíň_189-21);}.cls-101{fill:url(#Áĺçűě_ííűé_ăđŕäčĺíň_189-22);}.cls-102{fill:url(#Áĺçűě_ííűé_ăđŕäčĺíň_189-23);}.cls-103{fill:url(#Áĺçűě_ííűé_ăđŕäčĺíň_189-24);}.cls-104{opacity:0.16;}.cls-105{fill:url(#Áĺçűě_ííűé_ăđŕäčĺíň_189-25);}.cls-106{fill:url(#Áĺçűě_ííűé_ăđŕäčĺíň_163);}.cls-107{fill:url(#Áĺçűě_ííűé_ăđŕäčĺíň_163-2);}.cls-108{fill:url(#Áĺçűě_ííűé_ăđŕäčĺíň_169-4);}.cls-110{fill:url(#Áĺçűě_ííűé_ăđŕäčĺíň_8-2);}.cls-112{fill:url(#Áĺçűě_ííűé_ăđŕäčĺíň_15-2);}.cls-113{fill:url(#Áĺçűě_ííűé_ăđŕäčĺíň_107-2);}.cls-114,.cls-115{opacity:0.67;}.cls-114{fill:url(#Áĺçűě_ííűé_ăđŕäčĺíň_21);}.cls-115{fill:#af548f;}.cls-116{fill:url(#Áĺçűě_ííűé_ăđŕäčĺíň_22-3);}.cls-117{fill:url(#Áĺçűě_ííűé_ăđŕäčĺíň_22-4);}.cls-118{fill:url(#Áĺçűě_ííűé_ăđŕäčĺíň_22-5);}.cls-119{fill:url(#Áĺçűě_ííűé_ăđŕäčĺíň_22-6);}.cls-120{fill:url(#Áĺçűě_ííűé_ăđŕäčĺíň_22-7);}.cls-121{fill:url(#Áĺçűě_ííűé_ăđŕäčĺíň_22-8);}.cls-122,.cls-123{fill:#7f7f7f;}</style><clipPath id="clip-path"><rect class="cls-1" x="-8" y="13.5" width="1935" height="1072.19"/></clipPath><linearGradient id="Áĺçűě_ííűé_ăđŕäčĺíň_116" x1="917.99" y1="744.7" x2="933.45" y2="-51.37" gradientUnits="userSpaceOnUse"><stop offset="0" stop-color="#f5fff8"/><stop offset="1" stop-color="#60e2b0"/></linearGradient><linearGradient id="Áĺçűě_ííűé_ăđŕäčĺíň_32" x1="928.91" y1="5.09" x2="924.87" y2="261.59" gradientUnits="userSpaceOnUse"><stop offset="0" stop-color="#878758"/><stop offset="1"/></linearGradient><radialGradient id="Áĺçűě_ííűé_ăđŕäčĺíň_22" cx="14.31" cy="367.97" r="74.99" gradientTransform="translate(1474.31 -13.97) scale(4.96 2.04)" xlink:href="#Áĺçűě_ííűé_ăđŕäčĺíň_32"/><radialGradient id="Áĺçűě_ííűé_ăđŕäčĺíň_22-2" cx="-191.95" cy="367.97" r="74.99" gradientTransform="translate(1474.31 -13.97) scale(4.96 2.04)" xlink:href="#Áĺçűě_ííűé_ăđŕäčĺíň_32"/><linearGradient id="Áĺçűě_ííűé_ăđŕäčĺíň_24" x1="1009.52" y1="971.43" x2="983.28" y2="617.16" gradientUnits="userSpaceOnUse"><stop offset="0"/><stop offset="0.09" stop-color="#0d0d0d"/><stop offset="0.26" stop-color="#302f30"/><stop offset="0.5" stop-color="#686669"/><stop offset="0.78" stop-color="#b4b1b6"/><stop offset="1" stop-color="#f6f2f9"/></linearGradient><linearGradient id="Áĺçűě_ííűé_ăđŕäčĺíň_24-2" x1="1294.69" y1="950.93" x2="1268.52" y2="597.6" xlink:href="#Áĺçűě_ííűé_ăđŕäčĺíň_24"/><linearGradient id="Áĺçűě_ííűé_ăđŕäčĺíň_173" x1="28.74" y1="208.2" x2="80.84" y2="404.04" gradientUnits="userSpaceOnUse"><stop offset="0" stop-color="#b2cdfc"/><stop offset="1"/></linearGradient><linearGradient id="Áĺçűě_ííűé_ăđŕäčĺíň_14" x1="229.87" y1="279.75" x2="99.22" y2="346.91" gradientUnits="userSpaceOnUse"><stop offset="0" stop-color="#b6ffb5"/><stop offset="1" stop-color="#629dae"/></linearGradient><linearGradient id="Áĺçűě_ííűé_ăđŕäčĺíň_173-2" x1="246.95" y1="221.58" x2="51.97" y2="420.54" xlink:href="#Áĺçűě_ííűé_ăđŕäčĺíň_173"/><radialGradient id="Áĺçűě_ííűé_ăđŕäčĺíň_177" cx="9708.32" cy="-4653.48" r="5.23" gradientTransform="matrix(0.61, 0, 0, 8.08, -5912.84, 37904.2)" xlink:href="#Áĺçűě_ííűé_ăđŕäčĺíň_173"/><linearGradient id="Áĺçűě_ííűé_ăđŕäčĺíň_169" x1="309.75" y1="308.84" x2="190.06" y2="367.97" gradientUnits="userSpaceOnUse"><stop offset="0" stop-color="#f1ebc9"/><stop offset="1" stop-color="#e3b6ae"/></linearGradient><linearGradient id="Áĺçűě_ííűé_ăđŕäčĺíň_8" x1="61.55" y1="444.65" x2="129.8" y2="347.96" gradientUnits="userSpaceOnUse"><stop offset="0" stop-color="#629dae"/><stop offset="1"/></linearGradient><linearGradient id="Áĺçűě_ííűé_ăđŕäčĺíň_189" x1="787.37" y1="655.22" x2="780.65" y2="813.58" gradientUnits="userSpaceOnUse"><stop offset="0" stop-color="#6f5e73"/><stop offset="1" stop-color="#2d2234"/></linearGradient><linearGradient id="Áĺçűě_ííűé_ăđŕäčĺíň_189-2" x1="746.6" y1="670.45" x2="740.65" y2="810.7" xlink:href="#Áĺçűě_ííűé_ăđŕäčĺíň_189"/><linearGradient id="Áĺçűě_ííűé_ăđŕäčĺíň_189-3" x1="749.65" y1="653.74" x2="742.93" y2="811.96" xlink:href="#Áĺçűě_ííűé_ăđŕäčĺíň_189"/><linearGradient id="Áĺçűě_ííűé_ăđŕäčĺíň_189-4" x1="769.27" y1="654.49" x2="762.55" y2="812.74" xlink:href="#Áĺçűě_ííűé_ăđŕäčĺíň_189"/><linearGradient id="Áĺçűě_ííűé_ăđŕäčĺíň_189-5" x1="787.2" y1="655.44" x2="780.51" y2="813.18" xlink:href="#Áĺçűě_ííűé_ăđŕäčĺíň_189"/><linearGradient id="Áĺçűě_ííűé_ăđŕäčĺíň_189-6" x1="767.76" y1="682.6" x2="700.94" y2="700.57" xlink:href="#Áĺçűě_ííűé_ăđŕäčĺíň_189"/><linearGradient id="Áĺçűě_ííűé_ăđŕäčĺíň_15" x1="501.16" y1="761.91" x2="690.35" y2="682.62" gradientUnits="userSpaceOnUse"><stop offset="0.01" stop-color="#863839"/><stop offset="1" stop-color="#cc7139"/></linearGradient><linearGradient id="Áĺçűě_ííűé_ăđŕäčĺíň_107" x1="705.51" y1="765.58" x2="532.45" y2="762.72" gradientUnits="userSpaceOnUse"><stop offset="0" stop-color="#cc7139"/><stop offset="0.99" stop-color="#863839"/></linearGradient><linearGradient id="Áĺçűě_ííűé_ăđŕäčĺíň_169-2" x1="1379.28" y1="703.57" x2="1342.11" y2="721.28" xlink:href="#Áĺçűě_ííűé_ăđŕäčĺíň_169"/><linearGradient id="Áĺçűě_ííűé_ăđŕäčĺíň_189-7" x1="1353.58" y1="655.22" x2="1346.86" y2="813.58" xlink:href="#Áĺçűě_ííűé_ăđŕäčĺíň_189"/><linearGradient id="Áĺçűě_ííűé_ăđŕäčĺíň_189-8" x1="1312.81" y1="670.45" x2="1306.86" y2="810.7" xlink:href="#Áĺçűě_ííűé_ăđŕäčĺíň_189"/><linearGradient id="Áĺçűě_ííűé_ăđŕäčĺíň_189-9" x1="1315.86" y1="653.74" x2="1309.14" y2="811.96" xlink:href="#Áĺçűě_ííűé_ăđŕäčĺíň_189"/><linearGradient id="Áĺçűě_ííűé_ăđŕäčĺíň_189-10" x1="1335.48" y1="654.49" x2="1328.76" y2="812.74" xlink:href="#Áĺçűě_ííűé_ăđŕäčĺíň_189"/><linearGradient id="Áĺçűě_ííűé_ăđŕäčĺíň_189-11" x1="1353.41" y1="655.44" x2="1346.72" y2="813.18" xlink:href="#Áĺçűě_ííűé_ăđŕäčĺíň_189"/><linearGradient id="Áĺçűě_ííűé_ăđŕäčĺíň_189-12" x1="1333.97" y1="682.6" x2="1267.15" y2="700.57" xlink:href="#Áĺçűě_ííűé_ăđŕäčĺíň_189"/><linearGradient id="Áĺçűě_ííűé_ăđŕäčĺíň_169-3" x1="-2737.9" y1="703.57" x2="-2775.06" y2="721.28" gradientTransform="matrix(-1, 0, 0, 1, -878.41, 0)" xlink:href="#Áĺçűě_ííűé_ăđŕäčĺíň_169"/><linearGradient id="Áĺçűě_ííűé_ăđŕäčĺíň_189-13" x1="1886" y1="655.22" x2="1879.28" y2="813.58" xlink:href="#Áĺçűě_ííűé_ăđŕäčĺíň_189"/><linearGradient id="Áĺçűě_ííűé_ăđŕäčĺíň_189-14" x1="1845.24" y1="670.45" x2="1839.29" y2="810.7" xlink:href="#Áĺçűě_ííűé_ăđŕäčĺíň_189"/><linearGradient id="Áĺçűě_ííűé_ăđŕäčĺíň_189-15" x1="1848.28" y1="653.74" x2="1841.57" y2="811.96" xlink:href="#Áĺçűě_ííűé_ăđŕäčĺíň_189"/><linearGradient id="Áĺçűě_ííűé_ăđŕäčĺíň_189-16" x1="1867.91" y1="654.49" x2="1861.19" y2="812.74" xlink:href="#Áĺçűě_ííűé_ăđŕäčĺíň_189"/><linearGradient id="Áĺçűě_ííűé_ăđŕäčĺíň_189-17" x1="1885.84" y1="655.44" x2="1879.15" y2="813.18" xlink:href="#Áĺçűě_ííűé_ăđŕäčĺíň_189"/><linearGradient id="Áĺçűě_ííűé_ăđŕäčĺíň_189-18" x1="1866.4" y1="682.6" x2="1799.58" y2="700.57" xlink:href="#Áĺçűě_ííűé_ăđŕäčĺíň_189"/><linearGradient id="Áĺçűě_ííűé_ăđŕäčĺíň_10" x1="962.6" y1="771.36" x2="958.84" y2="590.33" gradientUnits="userSpaceOnUse"><stop offset="0" stop-color="#2d2234"/><stop offset="1" stop-color="#6f5e73"/></linearGradient><linearGradient id="Áĺçűě_ííűé_ăđŕäčĺíň_173-3" x1="970.36" y1="670.52" x2="968.85" y2="670.23" xlink:href="#Áĺçűě_ííűé_ăđŕäčĺíň_173"/><linearGradient id="Áĺçűě_ííűé_ăđŕäčĺíň_189-19" x1="993.55" y1="737.36" x2="991.55" y2="667.01" xlink:href="#Áĺçűě_ííűé_ăđŕäčĺíň_189"/><linearGradient id="Áĺçűě_ííűé_ăđŕäčĺíň_189-20" x1="1015.69" y1="736.73" x2="1013.68" y2="666.37" xlink:href="#Áĺçűě_ííűé_ăđŕäčĺíň_189"/><linearGradient id="Áĺçűě_ííűé_ăđŕäčĺíň_11" x1="1049.84" y1="683.19" x2="934.28" y2="720.8" gradientUnits="userSpaceOnUse"><stop offset="0" stop-color="#92b8d3"/><stop offset="1" stop-color="#000217"/></linearGradient><linearGradient id="Áĺçűě_ííűé_ăđŕäčĺíň_189-21" x1="934.04" y1="739.1" x2="932.04" y2="668.72" xlink:href="#Áĺçűě_ííűé_ăđŕäčĺíň_189"/><linearGradient id="Áĺçűě_ííűé_ăđŕäčĺíň_189-22" x1="911.44" y1="739.75" x2="909.43" y2="669.38" xlink:href="#Áĺçűě_ííűé_ăđŕäčĺíň_189"/><linearGradient id="Áĺçűě_ííűé_ăđŕäčĺíň_189-23" x1="964.29" y1="738.22" x2="962.29" y2="667.85" xlink:href="#Áĺçűě_ííűé_ăđŕäčĺíň_189"/><linearGradient id="Áĺçűě_ííűé_ăđŕäčĺíň_189-24" x1="956.12" y1="351.02" x2="956.69" y2="415.06" xlink:href="#Áĺçűě_ííűé_ăđŕäčĺíň_189"/><linearGradient id="Áĺçűě_ííűé_ăđŕäčĺíň_189-25" x1="942.44" y1="643.82" x2="966.39" y2="336.07" xlink:href="#Áĺçűě_ííűé_ăđŕäčĺíň_189"/><linearGradient id="Áĺçűě_ííűé_ăđŕäčĺíň_163" x1="877.32" y1="646.63" x2="883.61" y2="445.83" gradientUnits="userSpaceOnUse"><stop offset="0" stop-color="#b6ffca"/><stop offset="1" stop-color="#629dae"/></linearGradient><linearGradient id="Áĺçűě_ííűé_ăđŕäčĺíň_163-2" x1="1036.67" y1="651.68" x2="1042.96" y2="450.91" xlink:href="#Áĺçűě_ííűé_ăđŕäčĺíň_163"/><linearGradient id="Áĺçűě_ííűé_ăđŕäčĺíň_169-4" x1="947.98" y1="619.19" x2="959.56" y2="456.78" xlink:href="#Áĺçűě_ííűé_ăđŕäčĺíň_169"/><linearGradient id="Áĺçűě_ííűé_ăđŕäčĺíň_8-2" x1="868.39" y1="653.99" x2="897.02" y2="540.92" xlink:href="#Áĺçűě_ííűé_ăđŕäčĺíň_8"/><linearGradient id="Áĺçűě_ííűé_ăđŕäčĺíň_15-2" x1="1065.76" y1="762.72" x2="1254.96" y2="683.43" xlink:href="#Áĺçűě_ííűé_ăđŕäčĺíň_15"/><linearGradient id="Áĺçűě_ííűé_ăđŕäčĺíň_107-2" x1="1270.12" y1="766.39" x2="1097.06" y2="763.53" xlink:href="#Áĺçűě_ííűé_ăđŕäčĺíň_107"/><linearGradient id="Áĺçűě_ííűé_ăđŕäčĺíň_21" x1="-87.06" y1="853.45" x2="2058.68" y2="853.45" gradientUnits="userSpaceOnUse"><stop offset="0"/><stop offset="0.05" stop-color="#0d0d0d"/><stop offset="0.15" stop-color="#302f30"/><stop offset="0.28" stop-color="#686669"/><stop offset="0.44" stop-color="#b4b1b6"/><stop offset="0.56" stop-color="#f6f2f9"/><stop offset="0.99"/></linearGradient><radialGradient id="Áĺçűě_ííűé_ăđŕäčĺíň_22-3" cx="182.01" cy="174.18" r="35.06" gradientTransform="translate(0 -13.97) scale(2.01 2.04)" xlink:href="#Áĺçűě_ííűé_ăđŕäčĺíň_32"/><radialGradient id="Áĺçűě_ííűé_ăđŕäčĺíň_22-4" cx="259.92" cy="169.31" r="35.06" gradientTransform="translate(0 -13.97) scale(2.01 2.04)" xlink:href="#Áĺçűě_ííűé_ăđŕäčĺíň_32"/><radialGradient id="Áĺçűě_ííűé_ăđŕäčĺíň_22-5" cx="691.32" cy="171.26" r="35.06" gradientTransform="translate(0 -13.97) scale(2.01 2.04)" xlink:href="#Áĺçűě_ííűé_ăđŕäčĺíň_32"/><radialGradient id="Áĺçűě_ííűé_ăđŕäčĺíň_22-6" cx="769.23" cy="166.39" r="35.06" gradientTransform="translate(0 -13.97) scale(2.01 2.04)" xlink:href="#Áĺçűě_ííűé_ăđŕäčĺíň_32"/><radialGradient id="Áĺçűě_ííűé_ăđŕäčĺíň_22-7" cx="344.9" cy="170.77" r="48.2" gradientTransform="translate(-413.18 -13.97) scale(1.7 2.04)" xlink:href="#Áĺçűě_ííűé_ăđŕäčĺíň_32"/><radialGradient id="Áĺçűě_ííűé_ăđŕäčĺíň_22-8" cx="1269.95" cy="176.62" r="48.2" gradientTransform="translate(-413.18 -13.97) scale(1.7 2.04)" xlink:href="#Áĺçűě_ííűé_ăđŕäčĺíň_32"/></defs><g class="cls-2"><g id="Ńëîé_1" data-name="Ńëîé 1"><g class="cls-3"><path class="cls-4" d="M947,760s-.87-331.4-5.12-484.76C937.52,116.86,925.8-40,925.8-40h26.37V760Z"/><path class="cls-4" d="M955.1,761.48s.87-331.41,5.13-484.77c4.39-158.36,16.11-315.24,16.11-315.24H950v800Z"/><rect class="cls-5" x="-184.92" y="13.94" width="2266.68" height="731.95"/><polygon class="cls-6" points="1315.16 650.98 1226.8 634.21 1187.79 645.28 1189.36 657.74 1207.04 799.59 1224.32 937.81 1224.84 942.3 1307.05 940.41 1474.26 936.59 1491.87 572.34 1350.09 536.76 1315.16 541.98 1315.16 650.98"/><polygon class="cls-6" points="1895.41 657.48 1807.05 640.71 1768.05 651.78 1769.61 664.24 1787.3 806.09 1804.57 944.31 1805.1 948.8 1887.31 946.91 2054.52 943.09 2072.13 578.84 1930.35 543.26 1895.41 548.48 1895.41 657.48"/><polygon class="cls-6" points="198.36 891.34 240.78 882.12 235.12 825.94 293.42 827.21 311.93 140.65 300.92 135.56 231.03 98.9 206.47 111.88 208.04 227.67 210.4 403.02 203.57 405.36 202.68 222.96 191.86 222.72 173.51 222.35 198.36 891.34"/><polygon class="cls-7" points="2000.03 763.58 1938.55 764.57 1904.1 765.11 1881.05 516.91 1859.48 285.2 1910.3 281.99 1914.87 281.99 1946.9 282.06 1984.56 282.14 1988.44 402.82 1988.48 404.26 2000.03 763.58"/><polygon class="cls-8" points="1858.66 352.44 1850.76 516.91 1839.02 761.31 1657.22 761.31 1641.49 418.15 1637.57 332.52 1689.17 322.53 1858.66 352.44"/><polygon class="cls-8" points="1637.58 761.32 1588.45 761.32 1568.81 414.76 1630.2 414.76 1637.58 761.32"/><polygon class="cls-9" points="1630.2 414.76 1637.58 761.32 1613.34 761.32 1607.43 414.76 1630.2 414.76"/><polygon class="cls-9" points="1850.77 516.92 1839.01 761.32 1696.58 761.32 1689.43 325.88 1859.61 352.11 1850.77 516.92"/><polygon class="cls-9" points="1661.34 761.31 1657.22 761.31 1641.49 418.15 1659.27 419.9 1661.34 761.31"/><polygon class="cls-8" points="1629.52 541.88 1623.77 661.56 1615.23 839.41 1482.93 839.41 1471.49 589.69 1468.63 527.38 1506.18 520.11 1629.52 541.88"/><polygon class="cls-8" points="1468.64 839.41 1432.89 839.41 1418.6 587.23 1463.27 587.23 1468.64 839.41"/><polygon class="cls-9" points="1463.27 587.23 1468.64 839.41 1451 839.41 1446.7 587.23 1463.27 587.23"/><polygon class="cls-8" points="1748.58 848.86 1666.42 842.64 1658.2 504.79 1760.87 512.55 1748.58 848.86"/><polygon class="cls-9" points="1760.87 512.55 1748.58 848.86 1708.04 845.79 1722.79 509.67 1760.87 512.55"/><polygon class="cls-9" points="1623.77 661.57 1615.22 839.41 1511.57 839.41 1506.37 522.54 1630.21 541.64 1623.77 661.57"/><polygon class="cls-9" points="1485.93 839.41 1482.93 839.41 1471.49 589.69 1484.42 590.96 1485.93 839.41"/><polygon class="cls-10" points="253.79 328.16 243.99 532.08 229.43 835.08 4.04 835.08 -15.46 409.63 -20.32 303.47 43.65 291.08 253.79 328.16"/><polygon class="cls-9" points="244 532.09 229.42 835.09 52.83 835.09 43.97 295.23 254.96 327.76 244 532.09"/><polygon class="cls-9" points="9.14 835.08 4.04 835.08 -15.46 409.63 6.57 411.8 9.14 835.08"/><polygon class="cls-7" points="1988.48 404.26 1921.96 328.72 1915.62 321.5 1914.87 281.99 1913.47 207.8 1932.38 206.6 1964.18 204.59 1973.79 203.97 1982.4 203.43 1988.44 402.82 1988.48 404.26"/><polygon class="cls-11" points="824.87 185.15 778.85 839.88 500.98 832.9 491.33 426.41 486.18 207.15 622.36 186.61 746.37 167.91 749.66 168.65 824.87 185.15"/><polygon class="cls-12" points="523.87 802.24 512.38 209.62 538.46 203.69 539.99 805.94 523.87 802.24"/><polygon class="cls-12" points="566.15 796.72 554.66 204.1 580.74 198.17 582.27 800.42 566.15 796.72"/><polygon class="cls-12" points="614.91 791.37 603.42 198.74 629.5 192.81 631.03 795.06 614.91 791.37"/><polygon class="cls-12" points="666.99 782.8 655.5 190.18 681.59 184.25 683.12 786.5 666.99 782.8"/><polygon class="cls-12" points="718.84 784.1 707.35 191.48 733.43 185.55 734.96 787.8 718.84 784.1"/><polygon class="cls-13" points="824.86 185.17 778.84 839.89 575.67 834.77 500.98 832.89 491.32 426.41 486.18 207.16 622.35 186.63 601.96 469.92 742.31 441.44 749.67 168.65 824.86 185.17"/><polygon class="cls-11" points="1109.89 485.43 1101.01 1020.54 917.6 1043.71 880.68 514.38 1109.89 485.43"/><polygon class="cls-12" points="1109.89 485.43 1101.01 1020.54 1044.25 1027.71 1046.81 493.4 1109.89 485.43"/><polygon class="cls-10" points="524.19 -89.76 509.93 830.14 370.02 834.45 346.51 327.34 328.13 -69.32 354.99 -72.14 486.17 -85.78 498.91 -87.15 524.19 -89.76"/><polygon class="cls-13" points="498.91 -87.15 524.19 -89.76 509.93 830.14 370.02 834.45 346.51 327.34 452.17 333.13 459.09 -77.81 459.14 -77.81 486.58 -84.15 486.17 -85.78 475.69 -126.17 474.27 -131.68 415.82 -126.6 409.42 -126.02 462.89 -134.45 452.55 -170.39 458.19 -170.97 476.24 -132.85 486.69 -133.96 498.91 -87.15"/><polygon class="cls-12" points="338.97 -61.27 436.9 -67.78 432.74 25.44 344.5 24.42 338.97 -61.27"/><polygon class="cls-12" points="345.6 41.56 384.22 798.08 394.35 797.4 355.73 40.89 345.6 41.56"/><polygon class="cls-12" points="383.09 44.41 408.2 801.83 431.84 800.26 406.73 42.84 383.09 44.41"/><polygon class="cls-12" points="420.24 41.95 445.35 799.36 468.99 797.79 443.88 40.38 420.24 41.95"/><polygon class="cls-14" points="779.64 569.77 772.54 526.54 907.4 533.75 914.49 591.38 779.64 569.77"/><polygon class="cls-15" points="808.03 533.75 814.87 575.41 779.64 569.77 772.54 526.54 907.4 533.75 908.05 539.09 808.03 533.75"/><polygon class="cls-16" points="949.98 771.48 920.83 772.87 906.39 773.55 827.13 777.3 672.65 784.62 -114.66 821.91 -114.66 418.48 339.59 468.91 318.29 765.08 321 765.49 334.48 767.51 346.68 771.48 346.68 497.73 531.22 504.93 531.22 526.54 573.81 526.54 566.71 749.87 758.35 749.87 745.96 592.78 745.24 583.62 744.23 570.81 744.15 569.77 722.86 562.56 722.86 555.36 942.88 584.18 949.98 771.48"/><polygon class="cls-17" points="289.9 786.69 319.01 791.07 318.29 800.3 275.71 793.89 297 510.53 -143.05 461.68 -143.05 440.09 311.2 490.52 289.9 786.69"/><polygon class="cls-17" points="524.12 778.69 531.22 649.01 488.64 649.01 488.64 627.4 360.88 621.23 360.88 519.68 502.83 526.54 502.83 548.15 545.42 548.15 538.32 771.48 715.19 771.48 715.76 778.69 524.12 778.69"/><polygon class="cls-18" points="921.59 793.09 907.15 793.77 906.39 773.55 779.64 757.07 751.25 584.18 914.49 605.79 920.83 772.87 921.59 793.09"/><polygon class="cls-18" points="-79.17 836.32 -79.17 504.93 254.41 540.95 233.12 821.91 -79.17 836.32"/><polygon class="cls-19" points="254.41 540.95 233.12 821.91 219.42 822.54 240.22 548.15 -79.17 513.66 -79.17 504.93 254.41 540.95"/><polygon class="cls-16" points="-1.4 497.73 -1.4 857.93 4.2 857.93 4.2 504.93 -1.4 497.73"/><polygon class="cls-16" points="57.78 497.72 47.03 857.66 52.62 857.94 63.16 505.2 57.78 497.72"/><polygon class="cls-16" points="108.73 497.72 97.98 857.66 103.58 857.94 114.12 505.2 108.73 497.72"/><polygon class="cls-16" points="171.08 512.37 149.71 871.52 155.29 872.07 176.24 520.1 171.08 512.37"/><polygon class="cls-16" points="211.76 505.2 190.39 864.36 195.97 864.9 216.92 512.93 211.76 505.2"/><polygon class="cls-16" points="783.48 576.76 800.73 771.04 806.33 770.76 789.43 580.37 783.48 576.76"/><polygon class="cls-16" points="836.32 583.96 853.57 778.24 859.17 777.96 842.27 587.57 836.32 583.96"/><polygon class="cls-16" points="877.33 584.76 894.58 779.04 900.18 778.76 883.27 588.37 877.33 584.76"/><polygon class="cls-16" points="752.2 628.14 943.88 641.04 943.99 640.4 756.14 627.76 752.2 628.14"/><polygon class="cls-16" points="758.51 679.37 950.19 692.27 950.29 691.63 762.45 678.99 758.51 679.37"/><polygon class="cls-16" points="758.51 729 950.19 741.9 950.29 741.26 762.45 728.61 758.51 729"/><polygon class="cls-18" points="382.17 533.75 382.17 612.99 392.82 612.99 398.14 533.75 382.17 533.75"/><polygon class="cls-18" points="414.11 533.75 414.11 612.99 424.76 612.99 430.08 533.75 414.11 533.75"/><polygon class="cls-18" points="451.37 533.75 451.37 612.99 462.02 612.99 467.34 533.75 451.37 533.75"/><polygon class="cls-18" points="515.45 562.56 515.45 641.81 526.1 641.81 531.42 562.56 515.45 562.56"/><polygon class="cls-18" points="367.98 656.22 524.12 663.42 517.03 771.48 375.07 764.28 367.98 656.22"/><polygon class="cls-16" points="410.56 634.6 410.56 785.89 415.43 785.89 417.86 634.6 410.56 634.6"/><polygon class="cls-16" points="467.34 641.81 467.34 793.09 472.21 793.09 474.64 641.81 467.34 641.81"/><polygon class="cls-20" points="829.32 800.3 673.17 793.09 672.65 784.62 670.52 749.87 758.35 749.87 745.96 592.78 745.24 583.62 744.23 570.81 808.03 576.97 827.13 777.3 829.32 800.3"/><polygon class="cls-21" points="2073.44 754.72 -193.67 765.44 -223.15 -2.16 2073.44 5.57 2073.44 754.72"/><polygon class="cls-22" points="-222.78 215.65 2072.13 237.11 2077.35 1.61 -78.29 -2.35 -222.78 215.65"/><ellipse class="cls-23" cx="1545.27" cy="734.9" rx="371.97" ry="152.6"/><ellipse class="cls-24" cx="522.12" cy="734.9" rx="371.97" ry="152.6"/><polygon class="cls-25" points="-40.64 874.7 -40.64 1107.03 2053.08 1093.5 2031.7 874.7 -40.64 874.7"/><polygon class="cls-26" points="-196.54 690.77 2142.73 680.98 2142.72 676.48 -196.81 683.63 -196.54 690.77"/><polygon class="cls-26" points="-196.54 367.45 2142.73 357.66 2142.72 353.16 -196.81 360.31 -196.54 367.45"/><polygon class="cls-26" points="-193.34 135.93 2145.93 126.14 2145.92 121.64 -193.61 128.79 -193.34 135.93"/><path class="cls-26" d="M-159.09,14.83s184.59,95.8,249.78,245,73.38,504.94,73.38,504.94l7.93-.31S165.41,409,106.81,259.83-132-25.4-132-25.4Z"/><path class="cls-26" d="M2065.62,18.89s-184.59,95.81-249.78,245-73.38,504.94-73.38,504.94l-7.93-.31s6.59-355.43,65.19-504.63,238.8-285.22,238.8-285.22Z"/><path class="cls-27" d="M1523.77,12s-28.66,30.64-61.38,82.69l-.28.41A684.72,684.72,0,0,0,1414,186a598,598,0,0,0-25.09,68.85c-1.37,4.62-2.69,9.3-3.94,14-7.81,29.35-14.32,66.57-19.71,107.52-2.57,19.54-4.88,39.91-7,60.7-2.2,21.92-4.15,44.28-5.87,66.55-1,13-2,26-2.81,38.83-1,15.58-2,31-2.84,46-1.26,22.41-2.32,44-3.18,64-1,22.32-1.74,42.79-2.3,60.55-.37,11.61-.69,22.06-.92,31.11-.27,10.09-.47,18.45-.59,24.74l0,0v0l-9.39,0-8.63,1.62c1.7-88.75,9.3-331.54,15.62-418.17,7.81-107,27.34-166.48,27.34-166.48l-817.11,4c1.93,3.11,7.1,23.12,18.51,128.82,13.27,123,15.75,378.31,15.62,451.86l-5.43-.45h-7.79l-1.72-7.74c-.2-8.82-.47-21.07-.92-36-.11-4.25-.25-8.71-.39-13.36q-.37-11-.8-23.45c-.92-25.48-2.17-55.07-3.83-86.86-1.3-25-2.89-51.25-4.78-78q-1.29-18.32-2.77-36.78c-2.78-34.09-6.07-68.2-10-100.38q-1.58-12.85-3.28-25.25c-5.12-37-11.19-70.56-18.35-97.51q-1.32-5-2.76-9.89A583.57,583.57,0,0,0,497,192.44,677.8,677.8,0,0,0,443.1,89c-.66-1.07-1.34-2.14-2-3.21C427.76,65,415.28,47.85,405.3,35L398.78,5.57l0-.1H1519.81l.06.1Z"/><path class="cls-28" d="M1523.77,12s-28.66,30.64-61.38,82.69L443.1,89c-.66-1.07-1.34-2.14-2-3.21C427.76,65,415.28,47.85,405.3,35L398.78,5.57H1519.87Z"/><path class="cls-26" d="M576.35,784.53,567,778.16s-.08-5.63-.29-15.77c-1.53-71.19-9.81-364.81-45.16-497.57C493.38,158.87,436.83,75.59,405.31,35,391.69,17.47,382.74,7.91,382.74,7.91l24.82-40.62s9.22,14.14,23,38.18C461.09,58.67,514,160.37,539,264.82c32,133.79,36.62,435.9,37.26,505.3C576.33,779.41,576.35,784.53,576.35,784.53Z"/><path class="cls-26" d="M1523.78,12S1425.33,117.21,1385,268.88c-35.77,134.34-43.84,433.4-45.21,500h0v0c-.17,8.58-.24,13.29-.24,13.29l-9.31,6.37s0-7.07.15-19.65c.82-78.18,5.93-369.4,37.21-500.06C1393.19,161.7,1448.22,57.43,1478.3,5.47,1490.78-16.09,1499-28.64,1499-28.64l20.84,34.11Z"/><polygon class="cls-27" points="2022.67 859.55 2022.67 874.65 -40.64 874.7 -14.32 764.81 -10.52 748.93 1993.43 748.78 2004.73 791.6 2012.99 822.89 2021.71 855.89 2022.67 859.55"/><g class="cls-29"><polygon class="cls-30" points="186.2 751.49 12.18 878.07 20.65 878.81 194.5 747.16 186.2 751.49"/><polygon class="cls-30" points="42.41 756.33 -140.45 869.34 -132.06 870.72 51 752.64 42.41 756.33"/><polygon class="cls-30" points="298.9 774.27 184.57 883 191.18 883 321.92 753.66 298.9 774.27"/><polygon class="cls-30" points="437.23 755.1 353.54 887.93 360 887.01 441.59 750.52 437.23 755.1"/><polygon class="cls-30" points="560.79 761.32 510.95 889.72 517.14 888.19 564.1 756.36 560.79 761.32"/><polygon class="cls-30" points="688.37 756.27 661.79 887.69 667.66 885.68 690.78 751.09 688.37 756.27"/><polygon class="cls-30" points="821.08 755.15 807.1 887.43 812.77 885.18 822.98 749.88 821.08 755.15"/><polygon class="cls-30" points="951.97 757.22 949.79 889.82 955.25 887.34 953.4 751.88 951.97 757.22"/></g><g class="cls-29"><polygon class="cls-30" points="1720.59 753.68 1894.61 880.27 1886.14 881 1712.29 749.35 1720.59 753.68"/><polygon class="cls-30" points="1881.07 756.28 2064.18 868.88 2055.79 870.28 1872.47 752.61 1881.07 756.28"/><polygon class="cls-30" points="1607.89 776.47 1722.22 885.19 1715.61 885.19 1580.87 750.41 1607.89 776.47"/><polygon class="cls-30" points="1475.96 767.86 1553.25 890.13 1546.79 889.2 1464.02 752.03 1475.96 767.86"/><polygon class="cls-30" points="1346 763.51 1395.84 891.92 1389.65 890.38 1339.97 751.22 1346 763.51"/><polygon class="cls-30" points="1218.42 758.46 1245 889.88 1239.13 887.87 1216.02 753.28 1218.42 758.46"/><polygon class="cls-30" points="1085.71 757.35 1099.69 889.62 1094.02 887.37 1083.81 752.08 1085.71 757.35"/></g><polygon class="cls-31" points="-61.93 897.11 2064.17 891.93 2053.77 871.75 -61.93 875.77 -61.93 897.11"/><polygon class="cls-27" points="-76.66 1109.47 2059.78 1105.51 2058.68 1007.92 -35.34 999.8 -76.66 1109.47"/><polygon class="cls-31" points="-71.86 1022.55 2063.49 1018.98 2063.49 994.72 -30.53 992.49 -71.86 1022.55"/><polygon class="cls-4" points="-99.44 978.62 2013.64 978.62 2053.14 996.26 -118.71 989.4 -99.44 978.62"/><polygon class="cls-31" points="-118.71 980.24 2013.64 987.31 2053.14 1009.26 -118.71 1000.73 -118.71 980.24"/><polygon class="cls-32" points="-99.66 978.62 2020.32 978.24 1996.85 964.81 -96.2 964.81 -99.66 978.62"/><polygon class="cls-4" points="302.22 980.59 150.6 1056.98 171.23 1059.87 322.7 980.42 302.22 980.59"/><polygon class="cls-4" points="136.82 982.84 -14.8 1059.23 5.83 1062.13 157.3 982.68 136.82 982.84"/><polygon class="cls-4" points="440.85 981.44 320.05 1062.78 342.82 1062.74 460.21 981.4 440.85 981.44"/><polygon class="cls-4" points="564.86 980.66 486.71 1063.27 510.13 1063.2 582.24 980.42 564.86 980.66"/><polygon class="cls-4" points="688.93 980.91 643.03 1063.37 663.77 1063.91 707.06 979.93 688.93 980.91"/><polygon class="cls-4" points="813.05 979.44 789.1 1060.18 808.16 1060.44 828.3 979.22 813.05 979.44"/><polygon class="cls-4" points="938.34 978.24 926.16 1058.06 942.96 1060.13 951.85 978.49 938.34 978.24"/><polygon class="cls-4" points="1724.87 982.55 1876.48 1058.94 1855.86 1061.83 1704.39 982.38 1724.87 982.55"/><polygon class="cls-4" points="1901.53 986.9 2053.14 1063.29 2032.52 1066.19 1881.05 986.74 1901.53 986.9"/><polygon class="cls-4" points="1586.23 981.44 1707.04 1062.78 1684.27 1062.74 1566.88 981.4 1586.23 981.44"/><polygon class="cls-4" points="1451.77 981.15 1529.92 1063.76 1506.5 1063.69 1434.39 980.91 1451.77 981.15"/><polygon class="cls-4" points="1325.61 979.93 1371.5 1062.39 1350.77 1062.93 1307.48 978.95 1325.61 979.93"/><polygon class="cls-4" points="1209.16 980.42 1233.11 1061.16 1214.05 1061.42 1193.91 980.2 1209.16 980.42"/><polygon class="cls-4" points="1083.87 979.22 1096.05 1059.04 1079.25 1061.12 1070.36 979.47 1083.87 979.22"/><polygon class="cls-4" points="-163.27 1036.98 2072.59 1036.98 2111.16 1069.6 -191.45 1063.1 -163.27 1036.98"/><polygon class="cls-33" points="-137.76 1050.92 2095.57 1050.54 2070.85 1037.11 -134.11 1037.11 -137.76 1050.92"/><polygon class="cls-34" points="2004.73 791.6 -14.32 764.81 -10.52 748.93 1993.43 748.78 2004.73 791.6"/><polygon class="cls-35" points="2021.71 855.89 553.24 851.14 2012.99 822.89 2021.71 855.89"/><polygon class="cls-36" points="97.53 249.99 95.93 233.75 124.74 232.94 125.54 -73.32 128.74 -73.32 136.75 236.18 171.16 248.37 167.96 262.18 97.53 249.99"/><polygon class="cls-37" points="121.54 251.62 123.94 233.75 169.15 250.13 166.81 260.23 121.54 251.62"/><polygon class="cls-36" points="212.46 306.71 253.26 311.63 207.84 310.35 205.33 367.77 251.18 362.54 202.75 364.42 212.46 306.71"/><polygon class="cls-38" points="219.28 270.46 212.81 403.72 58.64 422.6 57.37 422.56 21.89 421.43 18.86 324.76 16.11 236.91 53.33 233.75 77.87 239.18 219.28 270.46"/><polygon class="cls-39" points="53.33 233.75 21.55 238.32 21.89 421.43 16.11 236.91 53.33 233.75"/><path class="cls-40" d="M77.87,239.18c-.23,20.39-3.51,42.07-14.26,55.68a87,87,0,0,1-44.75,29.9l-2.75-87.85,37.22-3.16Z"/><polygon class="cls-38" points="219.28 270.46 213.32 393.12 213.09 397.96 212.81 403.72 58.64 422.6 57.37 422.56 53.33 233.75 88.99 241.64 107.97 245.84 219.28 270.46"/><polygon class="cls-41" points="213.32 393.12 217.31 272.81 108.04 246.02 107.97 245.84 219.28 270.46 213.32 393.12"/><polygon class="cls-36" points="207.84 281.61 202.52 395.15 197.6 395.44 78.52 402.31 75.06 260.23 74.94 255.33 207.84 281.61"/><polygon class="cls-42" points="202.75 285.48 197.65 394.52 197.6 395.44 78.52 402.31 75.37 272.99 75.06 260.23 202.75 285.48"/><polygon class="cls-41" points="75.4 275.15 77.25 403.83 197.55 395.39 78.52 402.31 75.4 275.15"/><polygon class="cls-43" points="202.75 285.48 197.65 394.52 197.55 395.39 199.63 291.34 75.37 272.99 75.06 260.23 202.75 285.48"/><path class="cls-44" d="M219.28,270.11l-6.19,127.5c-16.51-10.17-38.14-25.79-57.83-47.27-27.08-29.53-53.08-80.86-66.27-109Z"/><polygon class="cls-45" points="57.37 422.6 53.33 233.75 51.71 233.98 57.37 422.6"/><polygon class="cls-46" points="82.13 281.96 82.13 290.65 94.37 291.9 94.64 284.03 82.13 281.96"/><polygon class="cls-47" points="102.26 286.24 132.18 290.24 132.18 295.07 102.26 291.9 102.26 286.24"/><polygon class="cls-47" points="139.25 290.65 154.22 292.59 154.22 297.42 139.25 296.31 139.25 290.65"/><polygon class="cls-46" points="82.1 301.7 82.1 310.4 94.34 311.64 94.61 303.77 82.1 301.7"/><polygon class="cls-47" points="102.23 305.98 132.15 309.98 132.15 314.81 102.23 311.64 102.23 305.98"/><polygon class="cls-47" points="139.23 310.4 154.19 312.33 154.19 317.16 139.23 316.06 139.23 310.4"/><polygon class="cls-46" points="81.77 323.96 82.23 332.64 94.52 333.22 94.38 325.35 81.77 323.96"/><polygon class="cls-47" points="102.1 327.14 132.19 329.51 132.44 334.34 102.4 332.79 102.1 327.14"/><polygon class="cls-47" points="139.28 329.55 154.32 330.66 154.57 335.49 139.57 335.2 139.28 329.55"/><polygon class="cls-46" points="82.83 377.35 83.67 386 95.97 386.02 95.48 378.16 82.83 377.35"/><polygon class="cls-47" points="103.27 379.6 133.44 380.61 133.91 385.42 103.82 385.24 103.27 379.6"/><polygon class="cls-47" points="140.52 380.32 155.59 380.75 156.06 385.56 141.06 385.95 140.52 380.32"/><ellipse class="cls-48" cx="54.81" cy="288.86" rx="2.43" ry="50.55" transform="translate(-6.68 1.35) rotate(-1.33)"/><polygon class="cls-49" points="296.02 297.44 287.93 374.74 238.35 380.91 236.04 381.19 242.62 286.88 248.21 287.99 296.02 297.44"/><polygon class="cls-50" points="248.21 287.99 238.35 380.91 236.04 381.19 242.62 286.88 248.21 287.99"/><path class="cls-47" d="M260,324.42a5.11,5.11,0,0,1-2.08,1.47,5,5,0,0,1-2.41.38l.76-6.8a8.14,8.14,0,0,0,3.68-1.33,7.73,7.73,0,0,0,2.89-3.34l5.47.34-4.62,42.75-7.35.25Z"/><path class="cls-47" d="M269.82,353.72c-1.25-2.08-1.68-4.88-1.29-8.42l2-18q.63-5.67,3.09-8.4a8.35,8.35,0,0,1,12.73,1.46c1.2,2.14,1.59,5.11,1.17,8.89l-2,18q-.6,5.36-3.12,7.93a8.45,8.45,0,0,1-12.59-1.46Zm8-4.45a3.94,3.94,0,0,0,.66-1.88l2.19-19.72a8.49,8.49,0,0,0,0-2.66,1.26,1.26,0,0,0-1.19-1.05,1.22,1.22,0,0,0-1.37.76,8.8,8.8,0,0,0-.59,2.59L275.34,347a3.94,3.94,0,0,0,.21,2,1.32,1.32,0,0,0,1.05.95A1.33,1.33,0,0,0,277.85,349.27Z"/><polygon class="cls-47" points="82.64 345.57 94.07 346.39 94 349.11 82.58 348.39 82.64 345.57"/><polygon class="cls-47" points="97.53 346.64 108.26 347.41 108.2 350.02 97.47 349.33 97.53 346.64"/><polygon class="cls-47" points="111.72 347.66 123.38 348.49 123.32 350.98 111.66 350.24 111.72 347.66"/><polygon class="cls-47" points="126.84 348.74 138.5 349.58 138.44 351.94 126.78 351.2 126.84 348.74"/><polygon class="cls-47" points="155.23 350.78 155.18 353 141.9 352.16 141.96 349.82 155.23 350.78"/><polygon class="cls-47" points="83.95 362.66 95.39 363.19 95.39 365.92 83.95 365.48 83.95 362.66"/><polygon class="cls-47" points="98.86 363.36 109.61 363.86 109.61 366.47 98.86 366.05 98.86 363.36"/><polygon class="cls-47" points="113.07 364.02 124.75 364.57 124.75 367.06 113.07 366.6 113.07 364.02"/><polygon class="cls-47" points="128.21 364.73 139.88 365.28 139.88 367.64 128.21 367.19 128.21 364.73"/><polygon class="cls-47" points="156.64 366.06 156.64 368.29 143.35 367.78 143.35 365.44 156.64 366.06"/><path class="cls-51" d="M81.87,398,80.48,286.88s1,83.4,14.33,96.19,95.92,9.5,95.92,9.5L86.15,398Z"/><polygon class="cls-39" points="57.37 422.6 48.82 234.33 53.33 233.75 57.37 422.6"/><polygon class="cls-46" points="-50.37 835.09 2033.07 835.09 2028.27 828.39 -47.05 829.21 -50.37 835.09"/><polygon class="cls-52" points="815.73 717.16 815.14 720.57 814.65 723.37 804.83 779.36 778.04 779.09 767.98 778.98 754.06 719.84 753.69 718.3 815.73 717.16"/><polygon class="cls-53" points="815.14 720.57 814.76 722.75 814.65 723.37 775.13 725.17 778.04 779.08 769.86 778.98 757.21 724.82 755.2 724.62 754.54 722.07 754.13 720.52 754.05 720.22 783.81 720.39 815.14 720.57"/><polygon class="cls-54" points="804.45 726.7 801.07 775.93 803.33 775.93 811.97 726.7 804.45 726.7"/><polygon class="cls-53" points="786.36 728.62 786.36 731.13 760.22 746.04 759.01 740.12 786.36 728.62"/><polygon class="cls-55" points="746.74 801.39 739.98 801.57 740.16 701.63 740.18 689.56 740.18 687.47 742.24 689.63 743.9 691.37 744.15 701.31 746.74 801.39"/><path class="cls-56" d="M758.58,806.46H727.75s7.9-6.49,15-6.87S758.58,806.46,758.58,806.46Z"/><polygon class="cls-57" points="816.53 856.56 815.94 854.66 815.45 853.11 805.63 821.96 778.84 822.11 768.78 822.17 754.86 855.07 754.5 855.92 816.53 856.56"/><path class="cls-57" d="M759.38,806.88a48.3,48.3,0,0,1-11.87,3.58L745,865.37l-.25,5.53-1.66,1-2.06,1.2v-1.16l0-6.72-.19-54.73a49.89,49.89,0,0,1-12.22-3.58Z"/><polygon class="cls-58" points="743.92 738.53 787.91 725.93 787.91 728.61 743.54 748.07 743.92 738.53"/><polygon class="cls-54" points="745.42 740.82 787.91 726.32 745.16 738.13 745.42 740.82"/><polygon class="cls-53" points="745.5 744.38 780.77 730.89 781.14 728.99 787.91 726.21 787.91 728.61 745.39 747.26 745.5 744.38"/><path class="cls-54" d="M744.05,806.46H732.5c2.39-2.29,6.91-6.11,8.79-6.11C742.41,800.35,743.54,803,744.05,806.46Z"/><path class="cls-53" d="M756.59,806.46h-6.77s-4.77-5.73-4-6.11S752.34,801.88,756.59,806.46Z"/><polygon class="cls-53" points="739.98 800.02 746.7 799.83 744.17 699.74 745.05 799.59 739.98 800.02"/><polygon class="cls-53" points="815.14 720.57 814.76 722.75 784.03 723.32 754.54 722.07 754.13 720.52 783.81 720.39 815.14 720.57"/><polygon class="cls-59" points="748.43 714.49 750.31 720.97 818.74 722.12 821 713.72 748.43 714.49"/><polygon class="cls-54" points="748.43 714.49 805.96 714.49 805.96 720.76 818.74 722.12 821 713.72 748.43 714.49"/><polygon class="cls-53" points="751.82 715.25 752.94 720.59 772.49 720.59 772.12 715.25 751.82 715.25"/><polygon class="cls-60" points="786.78 715.23 786.78 720.59 791.45 720.53 792.69 715.23 786.78 715.23"/><polygon class="cls-53" points="744.15 701.31 740.16 701.63 740.18 689.56 742.24 689.63 743.9 691.37 744.15 701.31"/><polygon class="cls-61" points="726.68 687.38 730.44 692.34 754.88 692.34 760.52 686.23 726.68 687.38"/><path class="cls-53" d="M728.09,687.89c.14,0,3.16,4.18,3.16,4.18h7.42l-.27-4.6Z"/><polygon class="cls-54" points="750.63 691.79 752.56 687.05 733.18 687.19 759.15 686.35 754.62 691.93 750.63 691.79"/><polygon class="cls-60" points="744.58 691.65 745 687.47 747.2 687.33 746.23 691.65 744.58 691.65"/><polygon class="cls-27" points="514.19 766.76 421.79 769.79 374.33 766.13 434.43 754.85 439.6 368.1 448.32 368.1 454.16 754.85 514.19 766.76"/><polygon class="cls-27" points="517.39 776.14 371.28 776.14 371.73 774.67 374.33 766.13 514.19 766.76 516.9 774.72 517.39 776.14"/><polygon class="cls-62" points="470.37 768.26 469.91 775.9 489.8 775.9 488.92 767.58 470.37 768.26"/><polygon class="cls-62" points="468.8 764.76 451.52 755.45 487.2 765.29 468.8 764.76"/><polygon class="cls-63" points="384.15 764.93 436.55 755.51 406.93 764.93 384.15 764.93"/><polygon class="cls-62" points="448.24 366.89 440.76 366.77 440.53 421.93 445.92 422.05 451.15 753.41 434.98 754.97 454.26 754.95 448.24 366.89"/><path class="cls-27" d="M451.28,375.08a10.93,10.93,0,0,1-.08,1.3,8.55,8.55,0,0,1-.28,1.39c-1.57,5.49-7.76,6.47-7.76,6.47a10.79,10.79,0,0,1-6.38-6.36h0a11,11,0,0,1-.51-2,9,9,0,0,1-.14-1.2c-.55-7.5,7.57-17.21,7.57-17.21S451.28,367,451.28,375.08Z"/><path class="cls-64" d="M451.28,375.08a9.75,9.75,0,0,1-.1,1.46c.1-9.74-7.48-15.93-7.48-15.93s-8.2,6.19-7.49,14.9c0-.26-.07-.52-.09-.8-.54-7.5,7.58-17.21,7.58-17.21S451.28,367,451.28,375.08Z"/><path class="cls-27" d="M456.71,388.92a13.46,13.46,0,0,1-.61,1.42h0c-1.38,2.83-5.26,8.9-13,8.9-8.69,0-12.85-7.46-13.88-9.62l-.26-.58Z"/><path class="cls-62" d="M456.71,388.92a13.46,13.46,0,0,1-.61,1.42h0a24.36,24.36,0,0,1-13.23,4.12,21.29,21.29,0,0,1-13.49-4.28c-.18-.37-.47-1.14-.47-1.14Z"/><path class="cls-27" d="M368.54,342.41S404.48,391,442,391.22,518.83,344,518.83,344,473.68,382,442,382.27C412.49,382.53,368.54,342.41,368.54,342.41Z"/><ellipse class="cls-27" cx="364.88" cy="327.46" rx="29.88" ry="32.63"/><path class="cls-65" d="M343.46,327c0,11.6,6.37,21.58,15.5,26-12.63-1.95-22.35-13.8-22.35-28.12,0-15.69,11.65-28.41,26-28.41a24,24,0,0,1,10.53,2.42,23.53,23.53,0,0,0-3.68-.29C355.11,298.61,343.46,311.33,343.46,327Z"/><path class="cls-66" d="M394.77,327.46c0,18-13.38,32.63-29.89,32.63-11.73,0-21.88-7.38-26.77-18.12,5.4,8.48,14.38,14,24.56,14,16.5,0,29.88-14.61,29.88-32.63a34.93,34.93,0,0,0-3.11-14.5A34.55,34.55,0,0,1,394.77,327.46Z"/><ellipse class="cls-27" cx="518.53" cy="325.6" rx="29.88" ry="32.63"/><path class="cls-65" d="M540,325.16c0,11.6-6.37,21.57-15.5,26,12.63-2,22.34-13.8,22.34-28.13,0-15.69-11.64-28.41-26-28.41A24,24,0,0,0,510.26,297a23.53,23.53,0,0,1,3.68-.28C528.31,296.75,540,309.47,540,325.16Z"/><path class="cls-66" d="M488.65,325.6c0,18,13.38,32.62,29.88,32.62,11.74,0,21.89-7.38,26.78-18.12-5.4,8.48-14.38,14-24.56,14-16.5,0-29.88-14.61-29.88-32.63A34.89,34.89,0,0,1,494,307,34.53,34.53,0,0,0,488.65,325.6Z"/><path class="cls-62" d="M451.2,376.38a8.55,8.55,0,0,1-.28,1.39c-1.52,3.47-4.13,5.75-7.09,5.75s-5.52-2.23-7.05-5.64h0a11,11,0,0,1-.51-2c1.41,3.78,4.26,6.37,7.56,6.37S449.74,379.9,451.2,376.38Z"/><polygon class="cls-67" points="517.39 776.14 371.28 776.14 371.73 774.67 516.3 773.3 517.39 776.14"/><path class="cls-63" d="M373.71,776.14s2.34-9,2.34-9L406,768l-.35,8Z"/><polygon class="cls-63" points="505.25 767.33 506.66 776.14 514.99 776.14 512.47 767.67 505.25 767.33"/><polygon class="cls-68" points="1544.24 774.27 1543.79 775.75 1541.18 784.29 1481.09 795.57 1475.11 870.64 1466.39 870.64 1461.36 795.57 1401.33 783.66 1401.32 783.66 1398.62 775.7 1398.13 774.27 1544.24 774.27"/><polygon class="cls-68" points="516.59 777.52 516.14 779 513.53 787.54 453.43 798.82 447.46 873.88 438.74 873.88 433.7 798.82 373.68 786.91 373.67 786.91 370.96 778.95 370.48 777.52 516.59 777.52"/><polygon class="cls-27" points="1541.04 765.95 1448.64 768.98 1401.19 765.32 1461.29 754.03 1466.46 367.29 1475.18 367.29 1481.02 754.03 1541.04 765.95"/><polygon class="cls-27" points="1544.24 775.33 1398.13 775.33 1398.58 773.86 1401.19 765.32 1541.04 765.95 1543.75 773.91 1544.24 775.33"/><polygon class="cls-62" points="1497.22 767.45 1496.77 775.09 1516.65 775.09 1515.77 766.77 1497.22 767.45"/><polygon class="cls-62" points="1495.65 763.94 1478.38 754.64 1514.06 764.48 1495.65 763.94"/><polygon class="cls-63" points="1411 764.12 1463.4 754.69 1433.79 764.12 1411 764.12"/><polygon class="cls-62" points="1475.1 366.08 1467.62 365.96 1467.38 421.12 1472.78 421.24 1478 752.6 1461.83 754.16 1481.11 754.13 1475.1 366.08"/><path class="cls-27" d="M1478.13,374.27a8.94,8.94,0,0,1-.08,1.29,8.46,8.46,0,0,1-.28,1.4c-1.57,5.49-7.76,6.46-7.76,6.46a10.75,10.75,0,0,1-6.38-6.35h0a11,11,0,0,1-.51-2c-.06-.38-.11-.78-.14-1.2-.54-7.51,7.57-17.21,7.57-17.21S1478.13,366.21,1478.13,374.27Z"/><path class="cls-64" d="M1478.13,374.27a9.75,9.75,0,0,1-.1,1.46c.1-9.74-7.48-15.93-7.48-15.93s-8.2,6.19-7.49,14.9c0-.26-.06-.53-.08-.8-.54-7.51,7.57-17.21,7.57-17.21S1478.13,366.21,1478.13,374.27Z"/><path class="cls-27" d="M1483.56,388.11a13.46,13.46,0,0,1-.61,1.42h0c-1.39,2.83-5.27,8.9-13.06,8.9-8.69,0-12.85-7.46-13.87-9.62-.18-.37-.26-.59-.26-.59Z"/><path class="cls-62" d="M1483.56,388.11a13.46,13.46,0,0,1-.61,1.42h0a24.42,24.42,0,0,1-13.23,4.12,21.38,21.38,0,0,1-13.5-4.28c-.18-.37-.46-1.15-.46-1.15Z"/><path class="cls-27" d="M1395.39,341.6s35.94,48.54,73.48,48.81,76.81-47.19,76.81-47.19-45.15,38-76.81,38.24C1439.35,381.71,1395.39,341.6,1395.39,341.6Z"/><ellipse class="cls-27" cx="1391.74" cy="326.65" rx="29.88" ry="32.63"/><path class="cls-65" d="M1370.31,326.21c0,11.6,6.37,21.58,15.5,26-12.63-1.95-22.34-13.8-22.34-28.13,0-15.69,11.65-28.41,26-28.41a24,24,0,0,1,10.52,2.43,23.53,23.53,0,0,0-3.68-.29C1382,297.8,1370.31,310.52,1370.31,326.21Z"/><path class="cls-66" d="M1421.62,326.65c0,18-13.38,32.63-29.88,32.63-11.74,0-21.89-7.38-26.78-18.12,5.4,8.48,14.39,14,24.56,14,16.5,0,29.88-14.61,29.88-32.63a35.08,35.08,0,0,0-3.1-14.5A34.61,34.61,0,0,1,1421.62,326.65Z"/><ellipse class="cls-27" cx="1545.39" cy="324.78" rx="29.88" ry="32.63"/><path class="cls-65" d="M1566.81,324.34c0,11.6-6.37,21.58-15.5,26,12.63-1.95,22.35-13.8,22.35-28.12,0-15.69-11.65-28.41-26-28.41a24,24,0,0,0-10.53,2.42,23.53,23.53,0,0,1,3.68-.29C1555.16,295.93,1566.81,308.65,1566.81,324.34Z"/><path class="cls-66" d="M1515.51,324.78c0,18,13.37,32.63,29.88,32.63,11.73,0,21.88-7.38,26.77-18.12-5.4,8.48-14.38,14-24.56,14-16.5,0-29.88-14.61-29.88-32.63a34.93,34.93,0,0,1,3.11-14.5A34.55,34.55,0,0,0,1515.51,324.78Z"/><path class="cls-62" d="M1478.05,375.56a8.46,8.46,0,0,1-.28,1.4c-1.52,3.46-4.13,5.75-7.09,5.75s-5.52-2.24-7-5.64h0a11,11,0,0,1-.51-2c1.41,3.78,4.27,6.36,7.56,6.36S1476.59,379.09,1478.05,375.56Z"/><polygon class="cls-67" points="1544.24 775.33 1398.13 775.33 1398.58 773.86 1543.15 772.48 1544.24 775.33"/><path class="cls-63" d="M1400.56,775.33s2.34-9,2.34-9l29.94.87-.34,8Z"/><polygon class="cls-63" points="1532.11 766.51 1533.52 775.33 1541.84 775.33 1539.32 766.86 1532.11 766.51"/><polygon class="cls-69" points="694.82 810.59 693.63 810.59 690.42 790.77 690.24 789.68 688.79 780.72 686.69 767.72 673.5 767.72 691.35 764.27 692.5 779.63 694.82 810.59"/><polygon class="cls-70" points="692.5 779.63 688.79 780.72 686.69 767.72 673.5 767.72 691.35 764.27 692.5 779.63"/><polygon class="cls-69" points="507.3 769.37 503.4 786.37 501.74 793.57 501.19 795.98 496.13 818.02 494.56 818.02 499.04 786.44 501.37 770.07 507.3 769.37"/><polygon class="cls-69" points="535.26 814.51 534.07 814.51 531.16 795.98 530.83 793.82 529.6 785.99 526.73 767.72 521.25 767.72 531.54 766.5 533.05 785.94 533.24 788.37 533.42 790.77 533.66 793.84 533.83 795.98 535.26 814.51"/><polygon class="cls-69" points="667.37 768.9 663.89 784.02 662.64 789.46 662.34 790.77 656.09 818.02 654.51 818.02 657.64 795.98 657.8 794.9 658.38 790.77 658.57 789.42 659.33 784.08 661.32 770.07 667.37 768.9"/><polygon class="cls-71" points="495.35 816.23 496.54 816.31 498.65 833.84 498.76 834.81 499.71 842.74 501.1 854.25 514.26 855.1 496.25 856.96 495.95 843.45 495.35 816.23"/><polygon class="cls-71" points="680.1 852.35 684.94 837.73 686.98 831.54 687.67 829.47 693.94 810.53 695.51 810.63 689.29 837.96 686.06 852.12 680.1 852.35"/><polygon class="cls-71" points="654.75 817.47 655.94 817.55 657.81 833.94 658.03 835.85 658.82 842.77 660.67 858.94 666.15 859.29 655.81 859.69 655.38 842.6 655.32 840.45 655.27 838.34 655.2 835.64 655.16 833.76 654.75 817.47"/><polygon class="cls-71" points="520.45 854.47 524.75 841.48 526.29 836.8 526.67 835.67 534.42 812.25 535.99 812.35 531.64 831.42 531.43 832.36 530.62 835.92 530.35 837.09 529.3 841.71 526.54 853.84 520.45 854.47"/><polygon class="cls-69" points="500.22 795.98 658.04 795.98 658.04 794.9 501.14 793.57 500.22 795.98"/><polygon class="cls-69" points="530.87 790.77 690.95 790.77 690.95 789.69 531.8 788.36 530.87 790.77"/><polygon class="cls-70" points="501.37 770.07 507.3 769.37 503.4 786.37 499.04 786.44 501.37 770.07"/><polygon class="cls-70" points="533.05 785.94 529.6 785.99 526.73 767.72 521.25 767.72 531.54 766.5 533.05 785.94"/><polygon class="cls-70" points="661.32 770.07 667.37 768.9 663.89 784.02 659.33 784.08 661.32 770.07"/><polygon class="cls-69" points="521.25 767.72 507.3 769.37 507.68 767.72 521.25 767.72"/><polygon class="cls-69" points="673.5 767.72 667.37 768.9 667.64 767.72 673.5 767.72"/><polygon class="cls-69" points="566.68 721.28 562.53 756.05 564.61 756.05 572.37 719.03 566.68 721.28"/><polygon class="cls-69" points="672.54 727.81 668.39 762.58 670.47 762.58 678.23 725.55 672.54 727.81"/><polygon class="cls-72" points="719.33 695.77 717.62 702.54 709.65 733.9 709.63 733.9 709.06 733.9 535.6 731.67 532.06 728.09 536.18 687.86 713.34 690.29 713.35 690.3 713.35 690.3 719.33 695.77"/><path class="cls-54" d="M713.3,690.29l-7.46,36.65,4.15,5.62-.34,1.34h-.59a55.83,55.83,0,0,1-4-5l-132.45-6.22L637.38,724l65.37,2.3,4.39-22.52-67.63-4.53-.21-2.09,67.84,1.08v-2.64l-58-3.85-113-3.92,175.33,2.43Z"/><polygon class="cls-54" points="713.35 690.3 713.3 690.29 713.34 690.29 713.35 690.3"/><polygon class="cls-73" points="707.07 733.5 536.17 731 533.43 728.09 704.67 730.32 707.07 733.5"/><polygon class="cls-74" points="569.82 691.78 537.48 689.34 533.71 726.4 615.87 728.09 566.26 725.59 569.82 691.78"/><polygon class="cls-75" points="706.88 752.76 706.8 753.11 704.48 763.69 698.29 766.35 697.28 766.78 691.74 769.17 689.49 770.14 688.75 770.46 680.26 774.12 673.3 777.11 557.26 775.68 557.25 775.68 485.43 774.79 480.63 762.48 507.29 756.77 514.03 755.32 514.03 755.32 527.2 752.5 698.82 752.75 706.88 752.76"/><polygon class="cls-74" points="640.72 765.19 662.08 765.1 662 774.58 642.09 774.68 640.72 765.19"/><polygon class="cls-74" points="672.64 765.05 671.13 774.54 666.97 774.56 667.05 765.08 672.64 765.05"/><polygon class="cls-74" points="485.43 774.1 480.63 762.48 602.02 764.13 553.05 765.32 554.87 775.96 485.43 774.1"/><polygon class="cls-76" points="672.63 763.34 493.02 761.11 529.33 753.1 705.28 753.02 672.63 763.34"/><polygon class="cls-36" points="690.72 758.48 689.49 770.14 688.75 770.46 688.75 759.14 688.75 759.14 507.29 756.77 514.03 755.32 514.03 755.32 578.03 756.8 615.74 756.8 678.96 757.84 690.72 758.48"/><polygon class="cls-77" points="673.53 776.22 673.53 765.14 705.8 753.38 703.98 763.58 673.53 776.22"/><polygon class="cls-78" points="1380.77 719.23 1355.94 726.68 1325.56 716.98 1329.13 714.74 1329.44 714.55 1337.38 709.57 1338.73 706.52 1338.77 706.54 1348.12 711.15 1354.2 706.95 1355.05 701.05 1367.82 694.23 1367.16 696.78 1356.31 701.83 1355.55 707.15 1364.8 712.69 1365.5 714.19 1372.29 711.48 1372.81 708.34 1375.5 708.73 1375.35 712.4 1380.77 719.23"/><polygon class="cls-79" points="1367.82 694.23 1355.85 701.37 1354.95 708.26 1350.43 716.06 1329.13 714.74 1328.28 714.68 1329.44 714.55 1344.1 712.85 1338.77 706.54 1348.12 711.15 1354.2 706.95 1355.05 701.05 1367.82 694.23"/><polygon class="cls-80" points="1381.94 717.16 1381.35 720.57 1380.86 723.37 1371.04 779.36 1344.24 779.09 1334.19 778.98 1320.26 719.84 1319.9 718.3 1381.94 717.16"/><polygon class="cls-53" points="1381.35 720.57 1380.96 722.75 1380.86 723.37 1341.33 725.17 1344.24 779.08 1336.07 778.98 1323.42 724.82 1321.41 724.62 1320.74 722.07 1320.34 720.52 1320.26 720.22 1350.02 720.39 1381.35 720.57"/><polygon class="cls-54" points="1370.66 726.7 1367.28 775.93 1369.54 775.93 1378.18 726.7 1370.66 726.7"/><polygon class="cls-53" points="1352.57 728.62 1352.57 731.13 1326.43 746.04 1325.22 740.12 1352.57 728.62"/><polygon class="cls-81" points="1312.95 801.39 1306.18 801.57 1306.37 701.63 1306.39 689.56 1306.39 687.47 1308.45 689.63 1310.11 691.37 1310.36 701.31 1312.95 801.39"/><path class="cls-82" d="M1324.79,806.46H1294s7.9-6.49,15-6.87S1324.79,806.46,1324.79,806.46Z"/><polygon class="cls-57" points="1382.74 856.56 1382.14 854.66 1381.66 853.11 1371.84 821.96 1345.05 822.11 1334.99 822.17 1321.06 855.07 1320.7 855.92 1382.74 856.56"/><path class="cls-57" d="M1325.59,806.88a48.47,48.47,0,0,1-11.87,3.58l-2.56,54.91-.26,5.53-1.65,1-2.06,1.2v-1.16l0-6.72-.19-54.73a49.72,49.72,0,0,1-12.22-3.58Z"/><polygon class="cls-83" points="1310.13 738.53 1354.12 725.93 1354.12 728.61 1309.75 748.07 1310.13 738.53"/><polygon class="cls-54" points="1311.63 740.82 1354.12 726.32 1311.37 738.13 1311.63 740.82"/><polygon class="cls-53" points="1311.71 744.38 1346.97 730.89 1347.35 728.99 1354.12 726.21 1354.12 728.61 1311.6 747.26 1311.71 744.38"/><path class="cls-54" d="M1310.26,806.46h-11.55c2.39-2.29,6.91-6.11,8.79-6.11C1308.62,800.35,1309.75,803,1310.26,806.46Z"/><path class="cls-53" d="M1322.8,806.46H1316s-4.77-5.73-4-6.11S1318.55,801.88,1322.8,806.46Z"/><polygon class="cls-53" points="1306.19 800.02 1312.91 799.83 1310.38 699.74 1311.26 799.59 1306.19 800.02"/><polygon class="cls-53" points="1381.35 720.57 1380.96 722.75 1350.24 723.32 1320.74 722.07 1320.34 720.52 1350.02 720.39 1381.35 720.57"/><polygon class="cls-84" points="1314.64 714.49 1316.52 720.97 1384.95 722.12 1387.21 713.72 1314.64 714.49"/><polygon class="cls-54" points="1314.64 714.49 1372.17 714.49 1372.17 720.76 1384.95 722.12 1387.21 713.72 1314.64 714.49"/><polygon class="cls-53" points="1318.02 715.25 1319.15 720.59 1338.7 720.59 1338.33 715.25 1318.02 715.25"/><polygon class="cls-60" points="1352.98 715.23 1352.98 720.59 1357.66 720.53 1358.89 715.23 1352.98 715.23"/><polygon class="cls-53" points="1310.36 701.31 1306.37 701.63 1306.39 689.56 1308.45 689.63 1310.11 691.37 1310.36 701.31"/><polygon class="cls-85" points="1292.89 687.38 1296.65 692.34 1321.09 692.34 1326.73 686.23 1292.89 687.38"/><path class="cls-53" d="M1294.3,687.89c.14,0,3.16,4.18,3.16,4.18h7.42l-.27-4.6Z"/><polygon class="cls-54" points="1316.84 691.79 1318.77 687.05 1299.38 687.19 1325.36 686.35 1320.83 691.93 1316.84 691.79"/><polygon class="cls-60" points="1310.79 691.65 1311.2 687.47 1313.4 687.33 1312.44 691.65 1310.79 691.65"/><polygon class="cls-86" points="1857.99 719.23 1882.82 726.68 1913.2 716.98 1909.63 714.74 1909.32 714.55 1901.38 709.57 1900.03 706.52 1899.99 706.54 1890.64 711.15 1884.56 706.95 1883.21 707.15 1873.96 712.69 1873.26 714.19 1866.47 711.48 1865.95 708.34 1863.26 708.73 1863.41 712.4 1857.99 719.23"/><polygon class="cls-79" points="1883.81 708.26 1888.33 716.06 1909.63 714.74 1910.48 714.68 1909.32 714.55 1894.66 712.85 1899.99 706.54 1890.64 711.15 1884.56 706.95 1883.81 708.26"/><polygon class="cls-87" points="1914.37 717.16 1913.77 720.57 1913.28 723.37 1903.47 779.36 1876.67 779.09 1866.62 778.98 1852.69 719.84 1852.33 718.3 1914.37 717.16"/><polygon class="cls-53" points="1913.77 720.57 1913.39 722.75 1913.28 723.37 1873.76 725.17 1876.67 779.08 1868.5 778.98 1855.85 724.82 1853.84 724.62 1853.17 722.07 1852.77 720.52 1852.69 720.22 1882.45 720.39 1913.77 720.57"/><polygon class="cls-54" points="1903.09 726.7 1899.71 775.93 1901.96 775.93 1910.61 726.7 1903.09 726.7"/><polygon class="cls-53" points="1885 728.62 1885 731.13 1858.86 746.04 1857.65 740.12 1885 728.62"/><polygon class="cls-88" points="1845.38 801.39 1838.61 801.57 1838.8 701.63 1838.82 689.56 1838.82 687.47 1840.87 689.63 1842.53 691.37 1842.79 701.31 1845.38 801.39"/><path class="cls-89" d="M1857.22,806.46h-30.83s7.89-6.49,15-6.87S1857.22,806.46,1857.22,806.46Z"/><polygon class="cls-57" points="1915.17 856.56 1914.57 854.66 1914.08 853.11 1904.27 821.96 1877.47 822.11 1867.42 822.17 1853.49 855.07 1853.13 855.92 1915.17 856.56"/><path class="cls-57" d="M1858,806.88a48.47,48.47,0,0,1-11.87,3.58l-2.56,54.91-.26,5.53-1.65,1-2.06,1.2v-1.16l0-6.72-.18-54.73a49.72,49.72,0,0,1-12.22-3.58Z"/><polygon class="cls-90" points="1842.56 738.53 1886.55 725.93 1886.55 728.61 1842.18 748.07 1842.56 738.53"/><polygon class="cls-54" points="1844.06 740.82 1886.55 726.32 1843.79 738.13 1844.06 740.82"/><polygon class="cls-53" points="1844.14 744.38 1879.4 730.89 1879.78 728.99 1886.55 726.21 1886.55 728.61 1844.03 747.26 1844.14 744.38"/><path class="cls-54" d="M1842.69,806.46h-11.55c2.39-2.29,6.9-6.11,8.78-6.11C1841.05,800.35,1842.18,803,1842.69,806.46Z"/><path class="cls-53" d="M1855.23,806.46h-6.77s-4.78-5.73-4-6.11S1851,801.88,1855.23,806.46Z"/><polygon class="cls-53" points="1838.62 800.02 1845.34 799.83 1842.81 699.74 1843.68 799.59 1838.62 800.02"/><polygon class="cls-53" points="1913.77 720.57 1913.39 722.75 1882.66 723.32 1853.17 722.07 1852.77 720.52 1882.45 720.39 1913.77 720.57"/><polygon class="cls-91" points="1847.07 714.49 1848.95 720.97 1917.38 722.12 1919.63 713.72 1847.07 714.49"/><polygon class="cls-54" points="1847.07 714.49 1904.6 714.49 1904.6 720.76 1917.38 722.12 1919.63 713.72 1847.07 714.49"/><polygon class="cls-53" points="1850.45 715.25 1851.58 720.59 1871.13 720.59 1870.76 715.25 1850.45 715.25"/><polygon class="cls-60" points="1885.41 715.23 1885.41 720.59 1890.09 720.53 1891.32 715.23 1885.41 715.23"/><polygon class="cls-53" points="1842.79 701.31 1838.8 701.63 1838.82 689.56 1840.87 689.63 1842.53 691.37 1842.79 701.31"/><polygon class="cls-92" points="1825.32 687.38 1829.08 692.34 1853.52 692.34 1859.15 686.23 1825.32 687.38"/><path class="cls-53" d="M1826.73,687.89c.13,0,3.16,4.18,3.16,4.18h7.42l-.27-4.6Z"/><polygon class="cls-54" points="1849.27 691.79 1851.19 687.05 1831.81 687.19 1857.79 686.35 1853.25 691.93 1849.27 691.79"/><polygon class="cls-60" points="1843.22 691.65 1843.63 687.47 1845.83 687.33 1844.87 691.65 1843.22 691.65"/><polygon class="cls-57" points="1059.64 749.44 1055.6 757.92 976.03 767.48 975.47 771.09 971.47 796.68 1036.17 824.04 1054.3 856.97 880.63 858.91 893.03 824.04 954.62 795.62 950.4 770.42 949.91 767.48 870.43 757.39 866.21 749.44 1059.64 749.44"/><polygon class="cls-93" points="1054.45 737.18 932.12 741.2 869.3 736.34 948.86 721.4 949.42 715.77 953.42 675.77 956.02 649.68 967.3 649.68 970.27 677.44 974.49 716.81 974.99 721.4 1054.45 737.18"/><polygon class="cls-94" points="869.3 736.34 865.25 749.6 1058.69 749.6 1054.45 737.18 869.3 736.34"/><path class="cls-95" d="M868.47,749.6s3.1-12,3.1-12l39.64,1.15-.46,10.61Z"/><polygon class="cls-53" points="991.98 738.58 992.07 749.6 1018.39 749.6 1017.23 738.58 991.98 738.58"/><polygon class="cls-95" points="1042.62 737.93 1044.49 749.6 1055.51 749.6 1051.77 737.18 1042.62 737.93"/><polygon class="cls-53" points="989.7 736.34 967.72 722.52 970.48 722.52 1016.56 736.34 989.7 736.34"/><polygon class="cls-95" points="881.82 734.76 949.32 722.24 955.49 721.59 912.81 735.67 881.82 734.76"/><path class="cls-53" d="M975,721.4c-3.44-2.61-22.47-2.18-26.13,0l4.56-45.63,16.85,1.67Z"/><path class="cls-96" d="M970.51,662.21s-.71,7.07-.74,16.53c0-7.62.4-13.89.62-16.55Z"/><path class="cls-97" d="M1010,707.31a39.11,39.11,0,0,1-8.62.29h0a48.2,48.2,0,0,1-31.13-15.48,21.55,21.55,0,0,1-3.38-5.07c-2-4.31-3.17-13-3.91-21.07-.66-7.19-.94-13.81-1-16.19,0-.22,0-.41,0-.56h0c0-.21,0-.34,0-.35h0l.68.06,10.8,1h0l46.91,4.28s-26.49,4.57-31.74,16a43.29,43.29,0,0,0-1.78,4.63h0c-3.61,11.41-2.49,26.24,21.65,26.37,17.66.09,4.88-19,7.18-18a5,5,0,0,1,1.34,1.33C1020.61,689.27,1027.56,704.72,1010,707.31Z"/><path class="cls-98" d="M1010.31,690.44c1.47,3.42,4.45,5.41,6.66,4.43s2.82-4.54,1.35-8-4.45-5.4-6.66-4.43S1008.85,687,1010.31,690.44Z"/><path class="cls-99" d="M1010,707.31a39.11,39.11,0,0,1-8.62.29c5.52.1,13-.76,17.38-7.11,3.09-4.45.94-10.49-.63-13.7.5,1.77.08,3.46-1.07,4-1.32.58-3.09-.6-4-2.64s-.51-4.16.81-4.74c1.16-.52,2.68.35,3.62,2C1021.25,690.8,1026.67,704.85,1010,707.31Z"/><path class="cls-100" d="M961.92,648.86h0s0,.14,0,.35,0,.34,0,.57c-.08,2.39-.37,9.06-1,16.28-.75,8-2,16.68-3.9,21a21.15,21.15,0,0,1-3.05,4.67c-7.12,8.54-23.09,18.1-40.09,15.59-20.24-3-7.91-23.06-5.61-24.09s-10.49,18.11,7.17,18c24.16-.13,25.27-15,21.65-26.39h0a42.13,42.13,0,0,0-1.78-4.61c-5.24-11.48-31.73-16-31.73-16l49.27-4.49,6.62-.61,2.49-.22h0Z"/><path class="cls-101" d="M914,689.88c-1.46,3.42-4.45,5.41-6.66,4.43s-2.82-4.54-1.35-8,4.45-5.4,6.66-4.43S915.44,686.46,914,689.88Z"/><path class="cls-102" d="M951.81,684.53s6.07,23.34,10.57,23.15,11.23-27.45,11.23-27.45l-13-36.87Z"/><path class="cls-54" d="M973.61,680.23s-6.72,27.26-11.23,27.45-10.57-23.15-10.57-23.15l.74-3.47c1.76,6.13,6.28,20.61,9.83,20.46s8.31-16.53,10.3-23.91Z"/><path class="cls-103" d="M1107.86,393.34l-146-2.39-64.52-1.05-92.19-1.51s20-37,137.93-38c1.94,0,3.91,0,5.91,0q6.28,0,12.95.16C1096.54,353.66,1107.86,393.34,1107.86,393.34Z"/><path class="cls-95" d="M1107.86,393.28l-8.42-.13c-.87-2.55-15.88-39.65-145.92-42.63-3.41-.07,3.93-.1,8.37,0C1096.54,353.61,1107.86,393.28,1107.86,393.28Z"/><path class="cls-76" d="M834.81,385.44s15.08-24.6,55.24-29c31.35-3.43,45.66-4.55,45.66-4.55s-17.48,2.54-29.9,9.36S890,385.44,890,385.44Z"/><path class="cls-104" d="M1011.42,389.66s-2.82-15.05-13.35-24.83C987.76,355.25,977,353.66,977,353.66s4.69,4.07,7.91,14.72c2.28,7.56,2.22,21.32,2.22,21.32Z"/><polygon class="cls-105" points="1085.45 408.09 1077.91 444.97 1076.69 445.1 1070.18 445.81 1070.15 445.99 1054.23 527.66 1032.66 638.41 1040.11 642.42 1036.99 654.75 881.62 654.75 879.49 641.4 886.32 639.62 869.6 554.47 848.94 449.18 848.15 445.15 841.89 443.56 841.81 443.54 835.83 411.83 896.02 410.93 1028.01 408.95 1085.45 408.09"/><polygon class="cls-106" points="912.99 639.62 884.84 639.62 861.89 517.87 861.89 517.87 859.28 504.01 848.18 445.14 893.31 445.15 899.97 510.99 911.3 622.95 912.99 639.62"/><polygon class="cls-107" points="1072.48 445.79 1070.74 455.05 1035.82 640.27 1007.67 640.27 1007.69 640.12 1010.97 607.7 1027.35 445.81 1072.48 445.79"/><polygon class="cls-108" points="1015.36 446.46 1010.93 514.38 1002.75 639.63 919.07 639.63 915.84 598 909.2 512.57 904.07 446.46 1015.36 446.46"/><polygon class="cls-94" points="938.38 409.36 946.79 436.01 971.72 436.01 980.32 408 938.38 409.36"/><polygon class="cls-43" points="893.31 445.15 899.97 510.99 863.14 504.01 852.04 445.14 893.31 445.15"/><polygon class="cls-43" points="1068.99 445.79 1067.24 455.05 1032.32 640.27 1009.61 640.27 1007.69 640.12 1010.97 607.7 1027.35 445.81 1068.99 445.79"/><polygon class="cls-109" points="900.3 514.71 912.99 639.62 906.46 560.08 900.3 514.71"/><polygon class="cls-110" points="912.99 639.62 884.84 639.62 861.89 517.87 891.74 617.22 911.3 622.95 912.99 639.62"/><polygon class="cls-109" points="860.93 512.77 876.22 588.2 884.85 639.62 860.93 512.77"/><polygon class="cls-94" points="877.3 641.4 880.61 654.75 1036.98 654.75 1042.59 641.4 877.3 641.4"/><polygon class="cls-95" points="877.3 641.4 911.7 643.73 913.91 653.35 880.61 654.75 877.3 641.4"/><polygon class="cls-53" points="918.97 643.36 919.98 653.35 999.08 653.35 1000 643.36 918.97 643.36"/><polygon class="cls-95" points="1005.44 653.35 1007.64 643.36 1042.59 641.4 1036.98 654.75 1005.44 653.35"/><path class="cls-54" d="M913.84,707.31a39.11,39.11,0,0,0,8.62.29c-5.52.1-13-.76-17.38-7.11-3.09-4.45-.94-10.49.63-13.7-.5,1.77-.08,3.46,1.07,4,1.32.58,3.1-.6,4-2.64s.51-4.16-.8-4.74-2.69.35-3.63,2C902.6,690.8,897.18,704.85,913.84,707.31Z"/><polygon class="cls-94" points="1117.99 398.76 1108.15 407.94 1077.08 436.94 1059.31 436.94 1054.58 412.48 862.91 412.48 858.38 436.75 857.59 436.76 840.32 436.94 820.54 417.81 803.11 400.96 798.51 396.51 1117.99 398.76"/><polygon class="cls-95" points="857.59 436.76 840.32 436.94 820.54 417.81 839.59 417.8 857.59 436.76"/><path class="cls-70" d="M945.92,663s3.77,5.51,4.51,11.39S951.81,663,951.81,663Z"/><path class="cls-70" d="M977.93,663s-3.77,5.51-4.51,11.39S972,663,972,663Z"/><polygon class="cls-53" points="1059.33 436.94 1072.48 411.64 979.03 411.64 971.77 436.01 980.32 417.8 1040.57 416.68 1059.33 436.94"/><polygon class="cls-53" points="857.62 436.75 845.75 412.85 939.25 412.85 946.56 435.35 937.92 419.01 887.51 417.8 857.62 436.75"/><polygon class="cls-54" points="948.13 436.01 950.86 412.85 967.77 412.85 971.77 436.01 948.13 436.01"/><polygon class="cls-95" points="1059.33 436.94 1077.08 436.94 1097.59 417.8 1078.46 417.8 1059.33 436.94"/><polygon class="cls-53" points="1117.99 398.76 1108.15 407.94 803.11 400.96 798.51 396.51 1117.99 398.76"/><polygon class="cls-94" points="1133.01 390.63 1130.48 401 1077.05 400.46 854.86 398.21 812.34 397.78 788.38 397.54 784.44 385.78 784.4 385.69 881.06 387.06 948.12 388.01 948.14 388.01 1133.01 390.63"/><path class="cls-95" d="M811.35,388.21s.61,5.78,1,9.57l-24-.24-3.93-11.76L915.25,388Z"/><polygon class="cls-95" points="1133.01 390.63 1130.48 401 1077.05 400.46 1078.19 391.75 948.14 388.01 1133.01 390.63"/><path class="cls-26" d="M1010.93,514.39l-1,14.68-7.22,110.56H919.06L915.84,598c.54-1.48,1.16-3.17,1.85-5,4.67-12.19,12.5-30.1,18.23-30.1,8.7,0,35.75,38.25,35.75,38.25Z"/><path class="cls-111" d="M1010.93,514.39l-1,14.68-37,82.45s-32.25-45.65-37.08-45.65c-3.36,0-9.66,7.84-18.23,27.15,4.67-12.19,12.5-30.1,18.23-30.1,8.7,0,35.75,38.25,35.75,38.25Z"/><polygon class="cls-74" points="1015.36 446.46 1002.75 639.62 1001.66 639.62 1001.66 528.43 909.2 512.58 904.07 446.46 1015.36 446.46"/><polygon class="cls-74" points="934.62 460.72 934.13 477.89 987.09 477.38 987.61 468.26 934.62 460.72"/><polygon class="cls-74" points="925.35 488.5 925.43 507.64 996.07 493.01 996.61 484.84 925.35 488.5"/><polygon class="cls-69" points="1259.43 811.4 1258.23 811.4 1255.03 791.59 1254.85 790.5 1253.4 781.53 1251.3 768.53 1238.11 768.53 1255.96 765.08 1257.11 780.45 1259.43 811.4"/><polygon class="cls-70" points="1257.11 780.45 1253.4 781.53 1251.3 768.53 1238.11 768.53 1255.96 765.08 1257.11 780.45"/><polygon class="cls-69" points="1071.91 770.18 1068.01 787.19 1066.35 794.39 1065.8 796.79 1060.74 818.84 1059.16 818.84 1063.65 787.25 1065.97 770.88 1071.91 770.18"/><polygon class="cls-69" points="1099.87 815.32 1098.68 815.32 1095.77 796.79 1095.43 794.63 1094.21 786.8 1091.34 768.53 1085.85 768.53 1096.15 767.31 1097.66 786.75 1097.85 789.19 1098.03 791.59 1098.27 794.66 1098.43 796.79 1099.87 815.32"/><polygon class="cls-69" points="1231.97 769.71 1228.5 784.83 1227.25 790.27 1226.95 791.59 1220.69 818.84 1219.12 818.84 1222.25 796.79 1222.4 795.71 1222.99 791.59 1223.18 790.23 1223.94 784.89 1225.93 770.88 1231.97 769.71"/><polygon class="cls-71" points="1059.96 817.05 1061.15 817.12 1063.25 834.66 1063.37 835.62 1064.32 843.55 1065.7 855.06 1078.87 855.92 1060.86 857.77 1060.56 844.26 1059.96 817.05"/><polygon class="cls-71" points="1244.71 853.16 1249.54 838.54 1251.59 832.35 1252.28 830.29 1258.55 811.34 1260.12 811.44 1253.89 838.77 1250.67 852.93 1244.71 853.16"/><polygon class="cls-71" points="1219.36 818.28 1220.55 818.36 1222.42 834.75 1222.64 836.66 1223.43 843.59 1225.28 859.75 1230.76 860.11 1220.41 860.5 1219.99 843.41 1219.93 841.26 1219.88 839.15 1219.81 836.45 1219.76 834.58 1219.36 818.28"/><polygon class="cls-71" points="1085.05 855.28 1089.35 842.29 1090.9 837.61 1091.28 836.48 1099.02 813.06 1100.59 813.16 1096.25 832.23 1096.04 833.17 1095.23 836.74 1094.96 837.91 1093.91 842.52 1091.15 854.65 1085.05 855.28"/><polygon class="cls-69" points="1064.83 796.79 1222.65 796.79 1222.65 795.71 1065.75 794.38 1064.83 796.79"/><polygon class="cls-69" points="1095.47 791.59 1255.56 791.59 1255.56 790.5 1096.41 789.17 1095.47 791.59"/><polygon class="cls-70" points="1065.97 770.88 1071.91 770.18 1068.01 787.19 1063.65 787.25 1065.97 770.88"/><polygon class="cls-70" points="1097.66 786.75 1094.21 786.8 1091.34 768.53 1085.85 768.53 1096.15 767.31 1097.66 786.75"/><polygon class="cls-70" points="1225.93 770.88 1231.97 769.71 1228.5 784.83 1223.94 784.89 1225.93 770.88"/><polygon class="cls-69" points="1085.85 768.53 1071.91 770.18 1072.29 768.53 1085.85 768.53"/><polygon class="cls-69" points="1238.11 768.53 1231.97 769.71 1232.24 768.53 1238.11 768.53"/><polygon class="cls-69" points="1131.29 722.1 1127.14 756.86 1129.21 756.86 1136.98 719.84 1131.29 722.1"/><polygon class="cls-69" points="1237.15 728.62 1233 763.39 1235.08 763.39 1242.84 726.37 1237.15 728.62"/><polygon class="cls-112" points="1283.94 696.58 1282.22 703.36 1274.26 734.72 1274.23 734.72 1273.67 734.71 1100.21 732.49 1096.67 728.9 1100.79 688.67 1277.94 691.1 1277.96 691.12 1277.96 691.12 1283.94 696.58"/><path class="cls-54" d="M1277.91,691.1l-7.47,36.65,4.16,5.62-.34,1.35h-.59a52.52,52.52,0,0,1-4.05-5l-132.45-6.22,64.82,1.35,65.37,2.3,4.39-22.51-67.64-4.53-.2-2.1,67.84,1.08v-2.64l-58-3.85-113-3.92,175.33,2.43Z"/><polygon class="cls-54" points="1277.96 691.12 1277.91 691.1 1277.94 691.1 1277.96 691.12"/><polygon class="cls-73" points="1271.68 734.31 1100.78 731.81 1098.04 728.9 1269.28 731.13 1271.68 734.31"/><polygon class="cls-74" points="1134.43 692.59 1102.09 690.15 1098.32 727.21 1180.47 728.9 1130.86 726.4 1134.43 692.59"/><polygon class="cls-113" points="1271.48 753.57 1271.41 753.92 1269.09 764.5 1262.9 767.17 1261.89 767.6 1256.35 769.98 1254.1 770.95 1253.36 771.27 1244.87 774.93 1237.91 777.93 1121.86 776.49 1121.86 776.49 1050.04 775.6 1045.24 763.29 1071.9 757.58 1078.64 756.14 1078.64 756.14 1091.81 753.31 1263.43 753.56 1271.48 753.57"/><polygon class="cls-74" points="1205.33 766 1226.68 765.91 1226.6 775.4 1206.7 775.49 1205.33 766"/><polygon class="cls-74" points="1237.25 765.87 1235.74 775.35 1231.58 775.37 1231.66 765.89 1237.25 765.87"/><polygon class="cls-74" points="1050.04 774.91 1045.24 763.29 1166.63 764.95 1117.66 766.13 1119.48 776.77 1050.04 774.91"/><polygon class="cls-76" points="1237.24 764.16 1057.63 761.92 1093.94 753.91 1269.88 753.83 1237.24 764.16"/><polygon class="cls-36" points="1255.33 759.29 1254.1 770.95 1253.36 771.27 1253.36 759.95 1253.36 759.95 1071.9 757.58 1078.64 756.14 1078.64 756.14 1142.64 757.62 1180.35 757.62 1243.57 758.65 1255.33 759.29"/><polygon class="cls-77" points="1238.13 777.03 1238.13 765.95 1270.41 754.19 1268.59 764.4 1238.13 777.03"/><rect class="cls-27" x="-87.06" y="851.14" width="2145.75" height="30.06"/><rect class="cls-114" x="-87.06" y="851.14" width="2145.75" height="4.62"/><rect class="cls-115" x="-87.06" y="876.57" width="2145.75" height="4.62"/><ellipse class="cls-116" cx="364.94" cy="340.51" rx="70.29" ry="71.35"/><ellipse class="cls-117" cx="521.15" cy="330.6" rx="70.29" ry="71.35"/><ellipse class="cls-118" cx="1386.14" cy="334.56" rx="70.29" ry="71.35"/><ellipse class="cls-119" cx="1542.34" cy="324.65" rx="70.29" ry="71.35"/><ellipse class="cls-120" cx="173.59" cy="333.57" rx="82.01" ry="98.1"/><ellipse class="cls-121" cx="1747.36" cy="345.46" rx="82.01" ry="98.1"/><polygon class="cls-122" points="369.92 784.32 365.5 801.93 356.76 801.93 306.43 800.33 305.91 800.31 -159.09 563.1 -157.49 541.98 -157.16 542.15 -157.16 542.04 -102.72 541.98 -104.49 558.5 -70.03 558.5 -72.68 573.92 -35.41 574.44 -38.23 589.35 -2.89 589.35 -7.31 606.97 21.85 606.97 20.08 623.49 54.54 623.49 51.89 638.91 89.16 639.43 86.34 654.34 121.68 654.34 117.26 671.96 144.65 671.96 142.88 688.48 177.33 688.48 174.69 703.9 211.96 704.42 209.14 719.33 244.47 719.33 240.06 736.95 228.28 736.99 270.1 736.95 268.33 753.47 302.78 753.47 300.13 768.89 337.4 769.41 334.59 784.32 369.92 784.32"/><polygon class="cls-123" points="205.94 720.95 208.76 706.04 171.48 705.52 174.13 690.11 139.68 690.11 141.45 673.58 114.06 673.58 118.48 655.96 83.14 655.96 85.96 641.06 48.69 640.54 51.33 625.12 16.88 625.12 18.65 608.59 -10.51 608.59 -6.09 590.97 -41.43 590.97 -38.61 576.07 -75.88 575.55 -73.23 560.13 -107.69 560.13 -105.92 543.61 -157.62 543.66 -157.49 541.98 -157.16 542.15 -157.16 542.04 -102.72 541.98 -104.49 558.5 -70.03 558.5 -72.68 573.92 -35.41 574.44 -38.23 589.35 -2.89 589.35 -7.31 606.97 21.85 606.97 20.08 623.49 54.54 623.49 51.89 638.91 89.16 639.43 86.34 654.34 121.68 654.34 117.26 671.96 144.65 671.96 142.88 688.48 177.33 688.48 174.69 703.9 211.96 704.42 209.14 719.33 244.47 719.33 240.06 736.95 237.26 736.96 241.27 720.95 205.94 720.95"/><polygon class="cls-123" points="369.92 784.32 365.5 801.93 362.71 801.93 366.72 785.94 331.39 785.94 334.2 771.03 296.93 770.51 299.58 755.1 265.12 755.1 266.89 738.57 236.86 738.57 237.26 736.98 270.1 736.95 268.33 753.47 302.78 753.47 300.13 768.89 337.4 769.41 334.59 784.32 369.92 784.32"/><polygon class="cls-122" points="356.76 750.41 309.53 750.41 306.43 748.8 356.76 750.41"/><polygon class="cls-122" points="189.06 803.56 189.06 617.53 184.26 617.53 180.25 801.6 189.06 803.56"/><polygon class="cls-122" points="312.31 805.18 312.31 683.33 307.51 683.33 303.51 803.9 312.31 805.18"/><polygon class="cls-122" points="64.2 806.81 64.2 549.29 59.4 549.29 55.4 804.1 64.2 806.81"/><polygon class="cls-122" points="-131.88 439.62 361.13 707.7 361.13 715.01 -149.49 436.37 -131.88 439.62"/><polygon class="cls-122" points="-140.69 433.94 357.93 707.7 358.4 713.52 361.13 715.01 361.13 707.7 -140.69 433.94"/><polygon class="cls-122" points="1544.86 802.15 1549.28 819.77 1558.02 819.77 1608.35 818.16 1608.87 818.15 2073.87 580.94 2072.27 559.82 2071.94 559.99 2071.94 559.87 2017.5 559.82 2019.27 576.34 1984.81 576.34 1987.46 591.76 1950.19 592.28 1953.01 607.19 1917.67 607.19 1922.09 624.81 1892.93 624.81 1894.7 641.33 1860.24 641.33 1862.89 656.75 1825.62 657.27 1828.44 672.17 1793.1 672.17 1797.52 689.79 1770.13 689.79 1771.9 706.32 1737.45 706.32 1740.1 721.74 1702.82 722.26 1705.64 737.16 1670.3 737.16 1674.72 754.78 1686.49 754.82 1644.68 754.78 1646.45 771.31 1612 771.31 1614.65 786.73 1577.38 787.25 1580.19 802.15 1544.86 802.15"/><polygon class="cls-123" points="1708.84 736.81 1706.02 721.9 1743.3 721.38 1740.65 705.96 1775.1 705.96 1773.33 689.44 1800.72 689.44 1796.3 671.82 1831.64 671.82 1828.82 656.91 1866.1 656.39 1863.44 640.97 1897.9 640.97 1896.13 624.45 1925.29 624.45 1920.87 606.83 1956.21 606.83 1953.39 591.92 1990.66 591.4 1988.01 575.98 2022.47 575.98 2020.7 559.46 2072.4 559.52 2072.27 557.84 2071.94 558.01 2071.94 557.89 2017.5 557.84 2019.27 574.36 1984.81 574.36 1987.46 589.78 1950.19 590.3 1953.01 605.2 1917.67 605.2 1922.09 622.82 1892.93 622.82 1894.7 639.35 1860.24 639.35 1862.89 654.77 1825.62 655.29 1828.44 670.19 1793.1 670.19 1797.52 687.81 1770.13 687.81 1771.9 704.34 1737.45 704.34 1740.1 719.75 1702.82 720.27 1705.64 735.18 1670.3 735.18 1674.72 752.8 1677.52 752.81 1673.51 736.81 1708.84 736.81"/><polygon class="cls-123" points="1544.86 800.17 1549.28 817.79 1552.07 817.79 1548.06 801.79 1583.39 801.79 1580.58 786.89 1617.85 786.37 1615.2 770.95 1649.65 770.95 1647.89 754.43 1677.92 754.43 1677.52 752.83 1644.68 752.8 1646.45 769.33 1612 769.33 1614.65 784.74 1577.38 785.26 1580.19 800.17 1544.86 800.17"/><polygon class="cls-122" points="1558.02 750.41 1605.25 750.41 1608.35 748.8 1558.02 750.41"/><polygon class="cls-122" points="1725.72 819.41 1725.72 633.38 1730.52 633.38 1734.52 817.46 1725.72 819.41"/><polygon class="cls-122" points="1602.47 821.04 1602.47 699.19 1607.27 699.19 1611.27 819.76 1602.47 821.04"/><polygon class="cls-122" points="1850.58 822.66 1850.58 565.15 1855.38 565.15 1859.38 819.95 1850.58 822.66"/><polygon class="cls-122" points="2046.66 455.48 1553.64 723.56 1553.64 730.87 2064.27 452.23 2046.66 455.48"/><polygon class="cls-122" points="2055.47 449.79 1556.85 723.56 1556.38 729.38 1553.64 730.87 1553.64 723.56 2055.47 449.79"/></g></g></g></svg>