<svg xmlns="http://www.w3.org/2000/svg" viewBox="0 0 218 180"><defs><style>.cls-1{isolation:isolate;}.cls-2,.cls-3{fill:#7f7f7f;}.cls-3{mix-blend-mode:color-dodge;}</style></defs><g class="cls-1"><g id="Ńëîé_1" data-name="Ńëîé 1"><polygon class="cls-2" points="7.47 163.88 9.73 172.77 14.21 172.77 39.99 171.96 40.25 171.95 278.4 52.26 277.58 41.61 277.41 41.69 277.41 41.63 249.53 41.61 250.44 49.94 232.79 49.94 234.15 57.72 215.06 57.98 216.5 65.51 198.4 65.51 200.67 74.4 185.73 74.4 186.64 82.73 168.99 82.73 170.35 90.52 151.26 90.78 152.7 98.3 134.61 98.3 136.87 107.19 122.84 107.19 123.75 115.53 106.1 115.53 107.46 123.31 88.37 123.57 89.81 131.09 71.72 131.09 73.98 139.98 80.01 140 58.6 139.98 59.5 148.32 41.86 148.32 43.21 156.1 24.12 156.36 25.57 163.88 7.47 163.88"/><polygon class="cls-3" points="91.45 130.91 90.01 123.39 109.1 123.13 107.74 115.35 125.39 115.35 124.48 107.01 138.51 107.01 136.25 98.12 154.34 98.12 152.9 90.6 171.99 90.33 170.63 82.56 188.28 82.56 187.37 74.22 202.31 74.22 200.04 65.33 218.14 65.33 216.7 57.8 235.79 57.54 234.43 49.76 252.07 49.76 251.17 41.43 277.65 41.45 277.58 40.61 277.41 40.69 277.41 40.63 249.53 40.61 250.44 48.94 232.79 48.94 234.15 56.72 215.06 56.98 216.5 64.51 198.4 64.51 200.67 73.4 185.73 73.4 186.64 81.73 168.99 81.73 170.35 89.52 151.26 89.78 152.7 97.3 134.61 97.3 136.87 106.19 122.84 106.19 123.75 114.53 106.1 114.53 107.46 122.31 88.37 122.57 89.81 130.09 71.72 130.09 73.98 138.98 75.41 138.99 73.36 130.91 91.45 130.91"/><polygon class="cls-3" points="7.47 162.88 9.73 171.77 11.16 171.77 9.11 163.7 27.21 163.7 25.76 156.18 44.85 155.92 43.49 148.14 61.14 148.14 60.24 139.8 75.62 139.8 75.41 139 58.6 138.98 59.5 147.32 41.86 147.32 43.21 155.1 24.12 155.36 25.57 162.88 7.47 162.88"/><polygon class="cls-2" points="14.21 137.77 38.4 137.77 39.99 136.96 14.21 137.77"/><polygon class="cls-2" points="100.1 172.59 100.1 78.73 102.56 78.73 104.61 171.6 100.1 172.59"/><polygon class="cls-2" points="36.97 173.41 36.97 111.93 39.43 111.93 41.48 172.76 36.97 173.41"/><polygon class="cls-2" points="164.04 174.23 164.04 44.3 166.5 44.3 168.55 172.87 164.04 174.23"/><polygon class="cls-2" points="264.47 -11.04 11.97 124.22 11.97 127.91 273.48 -12.68 264.47 -11.04"/><polygon class="cls-2" points="268.98 -13.91 13.61 124.22 13.37 127.16 11.97 127.91 11.97 124.22 268.98 -13.91"/></g></g></svg>