<svg xmlns="http://www.w3.org/2000/svg" viewBox="0 0 207 176"><defs><style>.cls-1{isolation:isolate;}.cls-2,.cls-3{fill:#7f7f7f;}.cls-3{mix-blend-mode:color-dodge;}</style></defs><g class="cls-1"><g id="Ńëîé_1" data-name="Ńëîé 1"><polygon class="cls-2" points="195.79 158.36 193.52 167.25 189.04 167.25 163.27 166.44 163 166.43 -75.15 46.74 -74.33 36.08 -74.16 36.17 -74.16 36.11 -46.27 36.08 -47.18 44.42 -29.53 44.42 -30.89 52.2 -11.8 52.46 -13.24 59.98 4.85 59.98 2.59 68.88 17.52 68.88 16.62 77.21 34.26 77.21 32.91 84.99 51.99 85.25 50.55 92.78 68.65 92.78 66.39 101.67 80.41 101.67 79.51 110 97.15 110 95.8 117.78 114.88 118.05 113.44 125.57 131.54 125.57 129.28 134.46 123.25 134.48 144.66 134.46 143.75 142.8 161.4 142.8 160.04 150.57 179.13 150.84 177.69 158.36 195.79 158.36"/><polygon class="cls-3" points="111.8 126.39 113.25 118.87 94.16 118.6 95.51 110.82 77.87 110.82 78.77 102.49 64.75 102.49 67.01 93.6 48.91 93.6 50.35 86.07 31.27 85.81 32.62 78.03 14.98 78.03 15.88 69.69 0.95 69.69 3.21 60.8 -14.88 60.8 -13.44 53.28 -32.53 53.02 -31.17 45.24 -48.82 45.24 -47.91 36.9 -74.39 36.93 -74.33 36.08 -74.16 36.17 -74.16 36.11 -46.27 36.08 -47.18 44.42 -29.53 44.42 -30.89 52.2 -11.8 52.46 -13.24 59.98 4.85 59.98 2.59 68.88 17.52 68.88 16.62 77.21 34.26 77.21 32.91 84.99 51.99 85.25 50.55 92.78 68.65 92.78 66.39 101.67 80.41 101.67 79.51 110 97.15 110 95.8 117.78 114.88 118.05 113.44 125.57 131.54 125.57 129.28 134.46 127.84 134.46 129.9 126.39 111.8 126.39"/><polygon class="cls-3" points="195.79 158.36 193.52 167.25 192.09 167.25 194.15 159.18 176.05 159.18 177.49 151.66 158.4 151.4 159.76 143.62 142.11 143.62 143.02 135.28 127.64 135.28 127.84 134.47 144.66 134.46 143.75 142.8 161.4 142.8 160.04 150.57 179.13 150.84 177.69 158.36 195.79 158.36"/><polygon class="cls-2" points="103.16 168.07 103.16 74.2 100.7 74.2 98.65 167.08 103.16 168.07"/><polygon class="cls-2" points="166.28 168.89 166.28 107.41 163.82 107.41 161.77 168.24 166.28 168.89"/><polygon class="cls-2" points="39.21 169.71 39.21 39.77 36.75 39.77 34.7 168.34 39.21 169.71"/><polygon class="cls-2" points="-61.21 -15.56 191.28 119.7 191.28 123.39 -70.23 -17.2 -61.21 -15.56"/><polygon class="cls-2" points="-65.72 -18.43 189.65 119.7 189.89 122.64 191.28 123.39 191.28 119.7 -65.72 -18.43"/></g></g></svg>