<svg xmlns="http://www.w3.org/2000/svg" xmlns:xlink="http://www.w3.org/1999/xlink" viewBox="0 0 5442.52 3061.42"><defs><style>.cls-1{fill:none;}.cls-2{isolation:isolate;}.cls-3{clip-path:url(#clip-path);}.cls-4{fill:#6c6c6c;}.cls-11,.cls-12,.cls-123,.cls-13,.cls-132,.cls-133,.cls-136,.cls-25,.cls-26,.cls-36,.cls-37,.cls-38,.cls-39,.cls-4,.cls-41,.cls-5,.cls-6,.cls-7,.cls-89,.cls-90,.cls-91,.cls-92{fill-rule:evenodd;}.cls-5{fill:#848484;}.cls-6{fill:#059d84;}.cls-133,.cls-28,.cls-7,.cls-86{opacity:0.5;}.cls-14,.cls-27,.cls-28,.cls-7,.cls-8{mix-blend-mode:multiply;}.cls-7{fill:url(#Áĺçűě_ííűé_ăđŕäčĺíň_293);}.cls-137,.cls-138,.cls-8{opacity:0.7;}.cls-9{fill:url(#Áĺçűě_ííűé_ăđŕäčĺíň_223);}.cls-10{fill:url(#Áĺçűě_ííűé_ăđŕäčĺíň_223-2);}.cls-11{fill:#c1e1d3;}.cls-12,.cls-40{fill:#b2b2b2;}.cls-13{fill:#696b6b;}.cls-14{opacity:0.6;}.cls-15{fill:url(#Áĺçűě_ííűé_ăđŕäčĺíň_223-3);}.cls-16{fill:url(#Áĺçűě_ííűé_ăđŕäčĺíň_223-4);}.cls-17{fill:url(#Áĺçűě_ííűé_ăđŕäčĺíň_223-5);}.cls-18{fill:url(#Áĺçűě_ííűé_ăđŕäčĺíň_223-6);}.cls-19{fill:url(#Áĺçűě_ííűé_ăđŕäčĺíň_223-7);}.cls-20{fill:url(#Áĺçűě_ííűé_ăđŕäčĺíň_223-8);}.cls-21{fill:url(#Áĺçűě_ííűé_ăđŕäčĺíň_223-9);}.cls-22{fill:url(#Áĺçűě_ííűé_ăđŕäčĺíň_223-10);}.cls-23{fill:url(#Áĺçűě_ííűé_ăđŕäčĺíň_223-11);}.cls-24{fill:url(#Áĺçűě_ííűé_ăđŕäčĺíň_223-12);}.cls-25{fill:#464949;}.cls-26{fill:#ee7e05;}.cls-27{opacity:0.8;}.cls-29{fill:url(#Áĺçűě_ííűé_ăđŕäčĺíň_223-13);}.cls-30{fill:url(#Áĺçűě_ííűé_ăđŕäčĺíň_223-14);}.cls-31{fill:url(#Áĺçűě_ííűé_ăđŕäčĺíň_223-15);}.cls-32{fill:url(#Áĺçűě_ííűé_ăđŕäčĺíň_223-16);}.cls-33{fill:url(#Áĺçűě_ííűé_ăđŕäčĺíň_223-17);}.cls-34{fill:url(#Áĺçűě_ííűé_ăđŕäčĺíň_223-18);}.cls-35{fill:url(#Áĺçűě_ííűé_ăđŕäčĺíň_223-19);}.cls-36{fill:#676766;}.cls-37{fill:#888989;}.cls-38{fill:#616160;}.cls-39{fill:#575656;}.cls-133,.cls-134,.cls-139,.cls-41,.cls-88{fill:#fff;}.cls-42{fill:url(#Áĺçűě_ííűé_ăđŕäčĺíň_290);}.cls-43{fill:url(#Áĺçűě_ííűé_ăđŕäčĺíň_290-2);}.cls-44{fill:url(#Áĺçűě_ííűé_ăđŕäčĺíň_290-3);}.cls-45{fill:url(#Áĺçűě_ííűé_ăđŕäčĺíň_290-4);}.cls-46{fill:url(#Áĺçűě_ííűé_ăđŕäčĺíň_290-5);}.cls-47{fill:url(#Áĺçűě_ííűé_ăđŕäčĺíň_290-6);}.cls-48{fill:url(#Áĺçűě_ííűé_ăđŕäčĺíň_290-7);}.cls-49{fill:url(#Áĺçűě_ííűé_ăđŕäčĺíň_290-8);}.cls-50{fill:url(#Áĺçűě_ííűé_ăđŕäčĺíň_290-9);}.cls-51{fill:url(#Áĺçűě_ííűé_ăđŕäčĺíň_290-10);}.cls-52{fill:url(#Áĺçűě_ííűé_ăđŕäčĺíň_290-11);}.cls-53{fill:url(#Áĺçűě_ííűé_ăđŕäčĺíň_290-12);}.cls-54{fill:url(#Áĺçűě_ííűé_ăđŕäčĺíň_290-13);}.cls-55{fill:url(#Áĺçűě_ííűé_ăđŕäčĺíň_290-14);}.cls-56{fill:url(#Áĺçűě_ííűé_ăđŕäčĺíň_290-15);}.cls-57{fill:url(#Áĺçűě_ííűé_ăđŕäčĺíň_290-16);}.cls-58{fill:url(#Áĺçűě_ííűé_ăđŕäčĺíň_290-17);}.cls-59{fill:url(#Áĺçűě_ííűé_ăđŕäčĺíň_290-18);}.cls-60{fill:url(#Áĺçűě_ííűé_ăđŕäčĺíň_290-19);}.cls-61{fill:url(#Áĺçűě_ííűé_ăđŕäčĺíň_290-20);}.cls-62{fill:url(#Áĺçűě_ííűé_ăđŕäčĺíň_290-21);}.cls-63{fill:url(#Áĺçűě_ííűé_ăđŕäčĺíň_290-22);}.cls-64{fill:url(#Áĺçűě_ííűé_ăđŕäčĺíň_290-23);}.cls-65{fill:url(#Áĺçűě_ííűé_ăđŕäčĺíň_290-24);}.cls-66{fill:url(#Áĺçűě_ííűé_ăđŕäčĺíň_290-25);}.cls-67{fill:url(#Áĺçűě_ííűé_ăđŕäčĺíň_290-26);}.cls-68{fill:url(#Áĺçűě_ííűé_ăđŕäčĺíň_290-27);}.cls-69{fill:url(#Áĺçűě_ííűé_ăđŕäčĺíň_290-28);}.cls-70{fill:url(#Áĺçűě_ííűé_ăđŕäčĺíň_290-29);}.cls-71{fill:url(#Áĺçűě_ííűé_ăđŕäčĺíň_290-30);}.cls-72{fill:url(#Áĺçűě_ííűé_ăđŕäčĺíň_290-31);}.cls-73{fill:url(#Áĺçűě_ííűé_ăđŕäčĺíň_290-32);}.cls-74{fill:url(#Áĺçűě_ííűé_ăđŕäčĺíň_290-33);}.cls-75{fill:url(#Áĺçűě_ííűé_ăđŕäčĺíň_290-34);}.cls-76{fill:url(#Áĺçűě_ííűé_ăđŕäčĺíň_290-35);}.cls-77{fill:url(#Áĺçűě_ííűé_ăđŕäčĺíň_290-36);}.cls-78{fill:url(#Áĺçűě_ííűé_ăđŕäčĺíň_290-37);}.cls-79{fill:url(#Áĺçűě_ííűé_ăđŕäčĺíň_290-38);}.cls-80{fill:url(#Áĺçűě_ííűé_ăđŕäčĺíň_290-39);}.cls-81{fill:url(#Áĺçűě_ííűé_ăđŕäčĺíň_290-40);}.cls-82{fill:url(#Áĺçűě_ííűé_ăđŕäčĺíň_290-41);}.cls-83{fill:url(#Áĺçűě_ííűé_ăđŕäčĺíň_290-42);}.cls-84{fill:url(#Áĺçűě_ííűé_ăđŕäčĺíň_290-43);}.cls-85{fill:url(#Áĺçűě_ííűé_ăđŕäčĺíň_290-44);}.cls-133,.cls-86,.cls-87{mix-blend-mode:soft-light;}.cls-89{fill:url(#Áĺçűě_ííűé_ăđŕäčĺíň_214);}.cls-90{fill:#170e1c;}.cls-91{fill:url(#Áĺçűě_ííűé_ăđŕäčĺíň_235);}.cls-92{fill:url(#Áĺçűě_ííűé_ăđŕäčĺíň_235-2);}.cls-93{fill:url(#Áĺçűě_ííűé_ăđŕäčĺíň_121);}.cls-94{fill:url(#Áĺçűě_ííűé_ăđŕäčĺíň_121-2);}.cls-95{fill:url(#Áĺçűě_ííűé_ăđŕäčĺíň_121-3);}.cls-96{fill:url(#Áĺçűě_ííűé_ăđŕäčĺíň_121-4);}.cls-97{fill:url(#Áĺçűě_ííűé_ăđŕäčĺíň_121-5);}.cls-98{fill:url(#Áĺçűě_ííűé_ăđŕäčĺíň_121-6);}.cls-99{fill:url(#Áĺçűě_ííűé_ăđŕäčĺíň_121-7);}.cls-100{fill:url(#Áĺçűě_ííűé_ăđŕäčĺíň_121-8);}.cls-101{fill:url(#Áĺçűě_ííűé_ăđŕäčĺíň_121-9);}.cls-102{fill:url(#Áĺçűě_ííűé_ăđŕäčĺíň_121-10);}.cls-103{fill:url(#Áĺçűě_ííűé_ăđŕäčĺíň_121-11);}.cls-104{fill:url(#Áĺçűě_ííűé_ăđŕäčĺíň_121-12);}.cls-105{fill:url(#Áĺçűě_ííűé_ăđŕäčĺíň_121-13);}.cls-106{fill:url(#Áĺçűě_ííűé_ăđŕäčĺíň_121-14);}.cls-107{fill:url(#Áĺçűě_ííűé_ăđŕäčĺíň_121-15);}.cls-108{fill:url(#Áĺçűě_ííűé_ăđŕäčĺíň_121-16);}.cls-109{fill:url(#Áĺçűě_ííűé_ăđŕäčĺíň_121-17);}.cls-110{fill:url(#Áĺçűě_ííűé_ăđŕäčĺíň_121-18);}.cls-111{fill:url(#Áĺçűě_ííűé_ăđŕäčĺíň_121-19);}.cls-112{fill:url(#Áĺçűě_ííűé_ăđŕäčĺíň_121-20);}.cls-113{fill:url(#Áĺçűě_ííűé_ăđŕäčĺíň_121-21);}.cls-114{fill:url(#Áĺçűě_ííűé_ăđŕäčĺíň_121-22);}.cls-115{fill:url(#Áĺçűě_ííűé_ăđŕäčĺíň_121-23);}.cls-116{fill:url(#Áĺçűě_ííűé_ăđŕäčĺíň_121-24);}.cls-117{fill:url(#Áĺçűě_ííűé_ăđŕäčĺíň_121-25);}.cls-118{fill:url(#Áĺçűě_ííűé_ăđŕäčĺíň_121-26);}.cls-119{fill:url(#Áĺçűě_ííűé_ăđŕäčĺíň_121-27);}.cls-120{fill:url(#Áĺçűě_ííűé_ăđŕäčĺíň_121-28);}.cls-121{fill:url(#Áĺçűě_ííűé_ăđŕäčĺíň_121-29);}.cls-122{fill:url(#Áĺçűě_ííűé_ăđŕäčĺíň_121-30);}.cls-123{fill:#fff9e4;}.cls-124{fill:#db3d48;}.cls-125{fill:#f8b26d;}.cls-126{fill:#826cae;}.cls-127{fill:#824594;}.cls-128{fill:#2c8f3d;}.cls-129{fill:#328dcd;}.cls-130{fill:#acd0f0;}.cls-131{fill:#70475d;}.cls-132{fill:#646463;}.cls-134{font-size:83.63px;font-family:MyriadPro-Regular, Myriad Pro;}.cls-135{letter-spacing:-0.01em;}.cls-136{fill:#fff5bf;}.cls-137,.cls-140{fill:#302d7e;}.cls-138{fill:#009c83;}.cls-139{opacity:0.9;}.cls-141,.cls-150{font-size:148.77px;}.cls-141,.cls-146,.cls-151,.cls-155{fill:#b4dcd0;font-family:NeuzeitGro-Reg, Neuzeit Grotesk;}.cls-142{letter-spacing:-0.01em;}.cls-143{letter-spacing:0em;}.cls-144{letter-spacing:0em;}.cls-145{letter-spacing:0em;}.cls-146{font-size:59.51px;}.cls-147{letter-spacing:-0.01em;}.cls-148{letter-spacing:0em;}.cls-149{letter-spacing:0em;}.cls-151,.cls-160{font-size:119.06px;}.cls-152{letter-spacing:-0.01em;}.cls-153{letter-spacing:0em;}.cls-154{letter-spacing:0em;}.cls-155{font-size:47.62px;}.cls-156{letter-spacing:-0.01em;}.cls-157{letter-spacing:0em;}.cls-158{letter-spacing:0em;}.cls-159{letter-spacing:0em;}.cls-161{fill:#8e8e8e;}.cls-162{fill:#9e9e9e;}.cls-163{fill:#010101;}</style><clipPath id="clip-path"><rect class="cls-1" x="-402.19" y="3.71" width="6629.95" height="3085.9"/></clipPath><radialGradient id="Áĺçűě_ííűé_ăđŕäčĺíň_293" cx="228.19" cy="1419.44" r="465.07" gradientTransform="translate(0 -1222.97) scale(1 1.4)" gradientUnits="userSpaceOnUse"><stop offset="0" stop-color="#a37b86"/><stop offset="1" stop-color="#622c73"/></radialGradient><radialGradient id="Áĺçűě_ííűé_ăđŕäčĺíň_223" cx="419.28" cy="1983.61" r="439.46" gradientTransform="translate(0 -1222.97) scale(1 1.4)" gradientUnits="userSpaceOnUse"><stop offset="0" stop-color="#6b5b8a"/><stop offset="0.99" stop-color="#54437a"/></radialGradient><radialGradient id="Áĺçűě_ííűé_ăđŕäčĺíň_223-2" cx="80.11" cy="1969.91" r="451.4" xlink:href="#Áĺçűě_ííűé_ăđŕäčĺíň_223"/><radialGradient id="Áĺçűě_ííűé_ăđŕäčĺíň_223-3" cx="1220.43" cy="1912.34" r="551.32" xlink:href="#Áĺçűě_ííűé_ăđŕäčĺíň_223"/><radialGradient id="Áĺçűě_ííűé_ăđŕäčĺíň_223-4" cx="1647.78" cy="1906.24" r="567.87" xlink:href="#Áĺçűě_ííűé_ăđŕäčĺíň_223"/><radialGradient id="Áĺçűě_ííűé_ăđŕäčĺíň_223-5" cx="2184.09" cy="1902.2" r="581.74" xlink:href="#Áĺçűě_ííűé_ăđŕäčĺíň_223"/><radialGradient id="Áĺçűě_ííűé_ăđŕäčĺíň_223-6" cx="2744.45" cy="1899.24" r="600.45" xlink:href="#Áĺçűě_ííűé_ăđŕäčĺíň_223"/><radialGradient id="Áĺçűě_ííűé_ăđŕäčĺíň_223-7" cx="3450.19" cy="1895.36" r="622.5" xlink:href="#Áĺçűě_ííűé_ăđŕäčĺíň_223"/><radialGradient id="Áĺçűě_ííűé_ăđŕäčĺíň_223-8" cx="4214.92" cy="1893.53" r="651.77" xlink:href="#Áĺçűě_ííűé_ăđŕäčĺíň_223"/><radialGradient id="Áĺçűě_ííűé_ăđŕäčĺíň_223-9" cx="5094.82" cy="1885.93" r="674.72" xlink:href="#Áĺçűě_ííűé_ăđŕäčĺíň_223"/><radialGradient id="Áĺçűě_ííűé_ăđŕäčĺíň_223-10" cx="2573.39" cy="2044.53" r="484.83" xlink:href="#Áĺçűě_ííűé_ăđŕäčĺíň_223"/><radialGradient id="Áĺçűě_ííűé_ăđŕäčĺíň_223-11" cx="3201.68" cy="1649.43" r="247.32" xlink:href="#Áĺçűě_ííűé_ăđŕäčĺíň_223"/><radialGradient id="Áĺçűě_ííűé_ăđŕäčĺíň_223-12" cx="2029.59" cy="1842.14" r="180.68" xlink:href="#Áĺçűě_ííűé_ăđŕäčĺíň_223"/><radialGradient id="Áĺçűě_ííűé_ăđŕäčĺíň_223-13" cx="287.76" cy="1026.01" r="496.49" xlink:href="#Áĺçűě_ííűé_ăđŕäčĺíň_223"/><radialGradient id="Áĺçűě_ííűé_ăđŕäčĺíň_223-14" cx="932.04" cy="998.75" r="371.67" xlink:href="#Áĺçűě_ííűé_ăđŕäčĺíň_223"/><radialGradient id="Áĺçűě_ííűé_ăđŕäčĺíň_223-15" cx="1523.9" cy="965.43" r="336.43" xlink:href="#Áĺçűě_ííűé_ăđŕäčĺíň_223"/><radialGradient id="Áĺçűě_ííűé_ăđŕäčĺíň_223-16" cx="2201.82" cy="950.88" r="272.03" xlink:href="#Áĺçűě_ííűé_ăđŕäčĺíň_223"/><radialGradient id="Áĺçűě_ííűé_ăđŕäčĺíň_223-17" cx="2943.95" cy="948.54" r="241.55" xlink:href="#Áĺçűě_ííűé_ăđŕäčĺíň_223"/><radialGradient id="Áĺçűě_ííűé_ăđŕäčĺíň_223-18" cx="3803.38" cy="933.01" r="168.75" xlink:href="#Áĺçűě_ííűé_ăđŕäčĺíň_223"/><radialGradient id="Áĺçűě_ííűé_ăđŕäčĺíň_223-19" cx="4620.19" cy="892.67" r="207.24" xlink:href="#Áĺçűě_ííűé_ăđŕäčĺíň_223"/><radialGradient id="Áĺçűě_ííűé_ăđŕäčĺíň_290" cx="938.84" cy="2579.3" r="15.3" gradientTransform="translate(0 -1222.97) scale(1 1.4)" gradientUnits="userSpaceOnUse"><stop offset="0" stop-color="#ddbdd1"/><stop offset="1" stop-color="#7c123a"/></radialGradient><radialGradient id="Áĺçűě_ííűé_ăđŕäčĺíň_290-2" cx="1042.49" cy="2582.73" r="15.4" xlink:href="#Áĺçűě_ííűé_ăđŕäčĺíň_290"/><radialGradient id="Áĺçűě_ííűé_ăđŕäčĺíň_290-3" cx="1146.13" cy="2586.17" r="15.49" xlink:href="#Áĺçűě_ííűé_ăđŕäčĺíň_290"/><radialGradient id="Áĺçűě_ííűé_ăđŕäčĺíň_290-4" cx="1249.78" cy="2589.61" r="15.58" xlink:href="#Áĺçűě_ííűé_ăđŕäčĺíň_290"/><radialGradient id="Áĺçűě_ííűé_ăđŕäčĺíň_290-5" cx="1353.43" cy="2593.04" r="15.67" xlink:href="#Áĺçűě_ííűé_ăđŕäčĺíň_290"/><radialGradient id="Áĺçűě_ííűé_ăđŕäčĺíň_290-6" cx="1457.08" cy="2596.48" r="15.77" xlink:href="#Áĺçűě_ííűé_ăđŕäčĺíň_290"/><radialGradient id="Áĺçűě_ííűé_ăđŕäčĺíň_290-7" cx="1560.73" cy="2599.92" r="15.86" xlink:href="#Áĺçűě_ííűé_ăđŕäčĺíň_290"/><radialGradient id="Áĺçűě_ííűé_ăđŕäčĺíň_290-8" cx="1664.38" cy="2603.36" r="15.95" xlink:href="#Áĺçűě_ííűé_ăđŕäčĺíň_290"/><radialGradient id="Áĺçűě_ííűé_ăđŕäčĺíň_290-9" cx="1768.02" cy="2606.79" r="16.04" xlink:href="#Áĺçűě_ííűé_ăđŕäčĺíň_290"/><radialGradient id="Áĺçűě_ííűé_ăđŕäčĺíň_290-10" cx="1871.67" cy="2610.23" r="16.14" xlink:href="#Áĺçűě_ííűé_ăđŕäčĺíň_290"/><radialGradient id="Áĺçűě_ííűé_ăđŕäčĺíň_290-11" cx="1975.32" cy="2613.67" r="16.23" xlink:href="#Áĺçűě_ííűé_ăđŕäčĺíň_290"/><radialGradient id="Áĺçűě_ííűé_ăđŕäčĺíň_290-12" cx="2078.96" cy="2617.1" r="16.32" xlink:href="#Áĺçűě_ííűé_ăđŕäčĺíň_290"/><radialGradient id="Áĺçűě_ííűé_ăđŕäčĺíň_290-13" cx="2182.61" cy="2620.54" r="16.41" xlink:href="#Áĺçűě_ííűé_ăđŕäčĺíň_290"/><radialGradient id="Áĺçűě_ííűé_ăđŕäčĺíň_290-14" cx="2286.26" cy="2623.98" r="16.51" xlink:href="#Áĺçűě_ííűé_ăđŕäčĺíň_290"/><radialGradient id="Áĺçűě_ííűé_ăđŕäčĺíň_290-15" cx="2389.91" cy="2627.41" r="16.6" xlink:href="#Áĺçűě_ííűé_ăđŕäčĺíň_290"/><radialGradient id="Áĺçűě_ííűé_ăđŕäčĺíň_290-16" cx="2493.56" cy="2630.85" r="16.69" xlink:href="#Áĺçűě_ííűé_ăđŕäčĺíň_290"/><radialGradient id="Áĺçűě_ííűé_ăđŕäčĺíň_290-17" cx="2597.2" cy="2634.29" r="16.78" xlink:href="#Áĺçűě_ííűé_ăđŕäčĺíň_290"/><radialGradient id="Áĺçűě_ííűé_ăđŕäčĺíň_290-18" cx="2700.85" cy="2637.72" r="16.88" xlink:href="#Áĺçűě_ííűé_ăđŕäčĺíň_290"/><radialGradient id="Áĺçűě_ííűé_ăđŕäčĺíň_290-19" cx="2804.5" cy="2641.16" r="16.97" xlink:href="#Áĺçűě_ííűé_ăđŕäčĺíň_290"/><radialGradient id="Áĺçűě_ííűé_ăđŕäčĺíň_290-20" cx="2908.15" cy="2644.6" r="17.06" xlink:href="#Áĺçűě_ííűé_ăđŕäčĺíň_290"/><radialGradient id="Áĺçűě_ííűé_ăđŕäčĺíň_290-21" cx="3011.8" cy="2648.04" r="17.15" xlink:href="#Áĺçűě_ííűé_ăđŕäčĺíň_290"/><radialGradient id="Áĺçűě_ííűé_ăđŕäčĺíň_290-22" cx="3115.44" cy="2651.47" r="17.25" xlink:href="#Áĺçűě_ííűé_ăđŕäčĺíň_290"/><radialGradient id="Áĺçűě_ííűé_ăđŕäčĺíň_290-23" cx="3219.09" cy="2654.91" r="17.34" xlink:href="#Áĺçűě_ííűé_ăđŕäčĺíň_290"/><radialGradient id="Áĺçűě_ííűé_ăđŕäčĺíň_290-24" cx="3322.74" cy="2658.35" r="17.43" xlink:href="#Áĺçűě_ííűé_ăđŕäčĺíň_290"/><radialGradient id="Áĺçűě_ííűé_ăđŕäčĺíň_290-25" cx="3426.39" cy="2661.78" r="17.53" xlink:href="#Áĺçűě_ííűé_ăđŕäčĺíň_290"/><radialGradient id="Áĺçűě_ííűé_ăđŕäčĺíň_290-26" cx="3530.03" cy="2665.22" r="17.62" xlink:href="#Áĺçűě_ííűé_ăđŕäčĺíň_290"/><radialGradient id="Áĺçűě_ííűé_ăđŕäčĺíň_290-27" cx="3633.69" cy="2668.66" r="17.71" xlink:href="#Áĺçűě_ííűé_ăđŕäčĺíň_290"/><radialGradient id="Áĺçűě_ííűé_ăđŕäčĺíň_290-28" cx="3737.33" cy="2672.09" r="17.8" xlink:href="#Áĺçűě_ííűé_ăđŕäčĺíň_290"/><radialGradient id="Áĺçűě_ííűé_ăđŕäčĺíň_290-29" cx="3840.98" cy="2675.53" r="17.9" xlink:href="#Áĺçűě_ííűé_ăđŕäčĺíň_290"/><radialGradient id="Áĺçűě_ííűé_ăđŕäčĺíň_290-30" cx="3944.63" cy="2678.97" r="17.99" xlink:href="#Áĺçűě_ííűé_ăđŕäčĺíň_290"/><radialGradient id="Áĺçűě_ííűé_ăđŕäčĺíň_290-31" cx="4048.27" cy="2682.41" r="18.08" xlink:href="#Áĺçűě_ííűé_ăđŕäčĺíň_290"/><radialGradient id="Áĺçűě_ííűé_ăđŕäčĺíň_290-32" cx="4151.92" cy="2685.84" r="18.17" xlink:href="#Áĺçűě_ííűé_ăđŕäčĺíň_290"/><radialGradient id="Áĺçűě_ííűé_ăđŕäčĺíň_290-33" cx="4255.57" cy="2689.28" r="18.27" xlink:href="#Áĺçűě_ííűé_ăđŕäčĺíň_290"/><radialGradient id="Áĺçűě_ííűé_ăđŕäčĺíň_290-34" cx="4359.22" cy="2692.72" r="18.36" xlink:href="#Áĺçűě_ííűé_ăđŕäčĺíň_290"/><radialGradient id="Áĺçűě_ííűé_ăđŕäčĺíň_290-35" cx="4462.86" cy="2696.15" r="18.45" xlink:href="#Áĺçűě_ííűé_ăđŕäčĺíň_290"/><radialGradient id="Áĺçűě_ííűé_ăđŕäčĺíň_290-36" cx="4566.52" cy="2699.59" r="18.54" xlink:href="#Áĺçűě_ííűé_ăđŕäčĺíň_290"/><radialGradient id="Áĺçűě_ííűé_ăđŕäčĺíň_290-37" cx="4670.16" cy="2703.03" r="18.64" xlink:href="#Áĺçűě_ííűé_ăđŕäčĺíň_290"/><radialGradient id="Áĺçűě_ííűé_ăđŕäčĺíň_290-38" cx="4773.81" cy="2706.46" r="18.73" xlink:href="#Áĺçűě_ííűé_ăđŕäčĺíň_290"/><radialGradient id="Áĺçűě_ííűé_ăđŕäčĺíň_290-39" cx="4877.46" cy="2709.9" r="18.82" xlink:href="#Áĺçűě_ííűé_ăđŕäčĺíň_290"/><radialGradient id="Áĺçűě_ííűé_ăđŕäčĺíň_290-40" cx="4981.11" cy="2713.34" r="18.92" xlink:href="#Áĺçűě_ííűé_ăđŕäčĺíň_290"/><radialGradient id="Áĺçűě_ííűé_ăđŕäčĺíň_290-41" cx="5084.75" cy="2716.77" r="19.01" xlink:href="#Áĺçűě_ííűé_ăđŕäčĺíň_290"/><radialGradient id="Áĺçűě_ííűé_ăđŕäčĺíň_290-42" cx="5188.4" cy="2720.21" r="19.1" xlink:href="#Áĺçűě_ííűé_ăđŕäčĺíň_290"/><radialGradient id="Áĺçűě_ííűé_ăđŕäčĺíň_290-43" cx="5292.05" cy="2723.65" r="19.19" xlink:href="#Áĺçűě_ííűé_ăđŕäčĺíň_290"/><radialGradient id="Áĺçűě_ííűé_ăđŕäčĺíň_290-44" cx="5395.7" cy="2727.09" r="19.29" xlink:href="#Áĺçűě_ííűé_ăđŕäčĺíň_290"/><linearGradient id="Áĺçűě_ííűé_ăđŕäčĺíň_214" x1="4604" y1="2606.34" x2="4604" y2="1248.01" gradientUnits="userSpaceOnUse"><stop offset="0" stop-color="#67c2c7"/><stop offset="1" stop-color="#4660a9"/></linearGradient><radialGradient id="Áĺçűě_ííűé_ăđŕäčĺíň_235" cx="4227.59" cy="2093.56" r="435.74" gradientTransform="translate(0 -288.4) scale(1 1.07)" gradientUnits="userSpaceOnUse"><stop offset="0" stop-color="#67c2c7"/><stop offset="1" stop-color="#5ea4da"/></radialGradient><radialGradient id="Áĺçűě_ííűé_ăđŕäčĺíň_235-2" cx="4613.06" cy="1460.74" r="275.32" xlink:href="#Áĺçűě_ííűé_ăđŕäčĺíň_235"/><radialGradient id="Áĺçűě_ííűé_ăđŕäčĺíň_121" cx="4624.83" cy="2025.55" r="266.14" gradientTransform="translate(0 -697.41) scale(1 0.99)" gradientUnits="userSpaceOnUse"><stop offset="0" stop-color="#e6dae3"/><stop offset="1" stop-color="#a78fad"/></radialGradient><radialGradient id="Áĺçűě_ííűé_ăđŕäčĺíň_121-2" cx="4623.01" cy="2070.23" r="265.35" xlink:href="#Áĺçűě_ííűé_ăđŕäčĺíň_121"/><radialGradient id="Áĺçűě_ííűé_ăđŕäčĺíň_121-3" cx="4621.2" cy="2114.92" r="264.55" xlink:href="#Áĺçűě_ííűé_ăđŕäčĺíň_121"/><radialGradient id="Áĺçűě_ííűé_ăđŕäčĺíň_121-4" cx="4619.39" cy="2159.6" r="263.76" xlink:href="#Áĺçűě_ííűé_ăđŕäčĺíň_121"/><radialGradient id="Áĺçűě_ííűé_ăđŕäčĺíň_121-5" cx="4617.58" cy="2204.29" r="262.97" xlink:href="#Áĺçűě_ííűé_ăđŕäčĺíň_121"/><radialGradient id="Áĺçűě_ííűé_ăđŕäčĺíň_121-6" cx="4615.77" cy="2248.98" r="262.18" xlink:href="#Áĺçűě_ííűé_ăđŕäčĺíň_121"/><radialGradient id="Áĺçűě_ííűé_ăđŕäčĺíň_121-7" cx="4613.96" cy="2293.66" r="261.39" xlink:href="#Áĺçűě_ííűé_ăđŕäčĺíň_121"/><radialGradient id="Áĺçűě_ííűé_ăđŕäčĺíň_121-8" cx="4612.15" cy="2338.35" r="260.6" xlink:href="#Áĺçűě_ííűé_ăđŕäčĺíň_121"/><radialGradient id="Áĺçűě_ííűé_ăđŕäčĺíň_121-9" cx="4610.34" cy="2383.03" r="259.81" xlink:href="#Áĺçűě_ííűé_ăđŕäčĺíň_121"/><radialGradient id="Áĺçűě_ííűé_ăđŕäčĺíň_121-10" cx="4608.53" cy="2427.72" r="259.02" xlink:href="#Áĺçűě_ííűé_ăđŕäčĺíň_121"/><radialGradient id="Áĺçűě_ííűé_ăđŕäčĺíň_121-11" cx="4606.71" cy="2472.4" r="258.23" xlink:href="#Áĺçűě_ííűé_ăđŕäčĺíň_121"/><radialGradient id="Áĺçűě_ííűé_ăđŕäčĺíň_121-12" cx="4604.9" cy="2517.09" r="257.44" xlink:href="#Áĺçűě_ííűé_ăđŕäčĺíň_121"/><radialGradient id="Áĺçűě_ííűé_ăđŕäčĺíň_121-13" cx="4603.09" cy="2561.77" r="256.65" xlink:href="#Áĺçűě_ííűé_ăđŕäčĺíň_121"/><radialGradient id="Áĺçűě_ííűé_ăđŕäčĺíň_121-14" cx="4601.28" cy="2606.46" r="255.87" xlink:href="#Áĺçűě_ííűé_ăđŕäčĺíň_121"/><radialGradient id="Áĺçűě_ííűé_ăđŕäčĺíň_121-15" cx="4599.47" cy="2651.14" r="255.08" xlink:href="#Áĺçűě_ííűé_ăđŕäčĺíň_121"/><radialGradient id="Áĺçűě_ííűé_ăđŕäčĺíň_121-16" cx="4597.66" cy="2695.83" r="254.29" xlink:href="#Áĺçűě_ííűé_ăđŕäčĺíň_121"/><radialGradient id="Áĺçűě_ííűé_ăđŕäčĺíň_121-17" cx="4595.85" cy="2740.51" r="253.51" xlink:href="#Áĺçűě_ííűé_ăđŕäčĺíň_121"/><radialGradient id="Áĺçűě_ííűé_ăđŕäčĺíň_121-18" cx="4594.03" cy="2785.2" r="252.72" xlink:href="#Áĺçűě_ííűé_ăđŕäčĺíň_121"/><radialGradient id="Áĺçűě_ííűé_ăđŕäčĺíň_121-19" cx="4592.22" cy="2829.89" r="251.94" gradientTransform="translate(44.07 -768.08) rotate(0.89) scale(1 0.99)" xlink:href="#Áĺçűě_ííűé_ăđŕäčĺíň_121"/><radialGradient id="Áĺçűě_ííűé_ăđŕäčĺíň_121-20" cx="4590.41" cy="2874.57" r="251.15" xlink:href="#Áĺçűě_ííűé_ăđŕäčĺíň_121"/><radialGradient id="Áĺçűě_ííűé_ăđŕäčĺíň_121-21" cx="4588.6" cy="2919.26" r="250.37" xlink:href="#Áĺçűě_ííűé_ăđŕäčĺíň_121"/><radialGradient id="Áĺçűě_ííűé_ăđŕäčĺíň_121-22" cx="4586.79" cy="2963.94" r="249.58" gradientTransform="matrix(1, 0.01, -0.01, 0.99, 33.22, -748.47)" xlink:href="#Áĺçűě_ííűé_ăđŕäčĺíň_121"/><radialGradient id="Áĺçűě_ííűé_ăđŕäčĺíň_121-23" cx="4584.98" cy="3008.63" r="248.8" xlink:href="#Áĺçűě_ííűé_ăđŕäčĺíň_121"/><radialGradient id="Áĺçűě_ííűé_ăđŕäčĺíň_121-24" cx="4583.17" cy="3053.31" r="248.02" gradientTransform="translate(27.5 -738.51) rotate(0.52) scale(1 0.99)" xlink:href="#Áĺçűě_ííűé_ăđŕäčĺíň_121"/><radialGradient id="Áĺçűě_ííűé_ăđŕäčĺíň_121-25" cx="4581.36" cy="3098" r="247.23" gradientTransform="translate(20.8 -728.11) rotate(0.38) scale(1 0.99)" xlink:href="#Áĺçűě_ííűé_ăđŕäčĺíň_121"/><radialGradient id="Áĺçűě_ííűé_ăđŕäčĺíň_121-26" cx="4579.54" cy="3142.68" r="246.45" xlink:href="#Áĺçűě_ííűé_ăđŕäčĺíň_121"/><radialGradient id="Áĺçűě_ííűé_ăđŕäčĺíň_121-27" cx="4577.73" cy="3187.37" r="245.67" gradientTransform="matrix(1, 0, 0, 0.99, 14.12, -717.7)" xlink:href="#Áĺçűě_ííűé_ăđŕäčĺíň_121"/><radialGradient id="Áĺçűě_ííűé_ăđŕäčĺíň_121-28" cx="4575.92" cy="3232.05" r="244.89" gradientTransform="matrix(1, 0, 0, 0.99, 7.33, -707.82)" xlink:href="#Áĺçűě_ííűé_ăđŕäčĺíň_121"/><radialGradient id="Áĺçűě_ííűé_ăđŕäčĺíň_121-29" cx="4574.11" cy="3276.74" r="244.11" gradientTransform="matrix(1, 0, 0, 0.99, 7.43, -707.82)" xlink:href="#Áĺçűě_ííűé_ăđŕäčĺíň_121"/><radialGradient id="Áĺçűě_ííűé_ăđŕäčĺíň_121-30" cx="4572.3" cy="3321.43" r="243.33" xlink:href="#Áĺçűě_ííűé_ăđŕäčĺíň_121"/><image id="image" width="768" height="158" xlink:href="../../../../../Downloads/768px-RMV_Logo.svg.png"/></defs><g class="cls-2"><g id="Ebene_1" data-name="Ebene 1"><g class="cls-3"><polygon class="cls-4" points="982.32 736.98 915.61 2496.67 -402.19 2587.63 -402.19 229.37 -242.97 254.44 734.2 411.14 982.32 736.98"/><polygon class="cls-5" points="652.02 2402.68 698.68 980.34 573.65 695.79 -402.19 574.35 -402.19 2433.25 652.02 2402.68"/><polygon class="cls-6" points="829.87 2505.96 858.57 1021.05 698.68 649.56 -402.19 497.08 -402.19 574.35 573.65 695.79 698.68 1021.05 640.56 2485.48 829.87 2505.96"/><polygon class="cls-7" points="698.68 1021.05 858.57 1021.05 698.68 649.56 -402.19 497.08 -402.19 574.35 573.65 695.79 698.68 1021.05"/><g class="cls-8"><polygon class="cls-9" points="392.24 2413.65 389.48 2413.47 446.32 680.03 449.08 680.2 392.24 2413.65"/><polygon class="cls-10" points="61.5 2418.61 58.73 2418.49 98.73 636.8 101.49 636.92 61.5 2418.61"/></g><polygon class="cls-6" points="-402.19 2254.67 649.31 2265.14 643.85 2402.56 -402.19 2387.55 -402.19 2254.67"/><polygon class="cls-11" points="649.31 2265.14 643.84 2285.28 -402.19 2254.67 -402.19 2240.99 649.31 2265.14"/><polygon class="cls-12" points="915.61 2496.67 6227.76 2793.71 6227.76 504.8 982.32 736.98 915.61 2496.67"/><polygon class="cls-13" points="6227.76 504.8 982.32 736.98 734.2 411.14 6227.76 -125.06 6227.76 504.8"/><g class="cls-14"><polygon class="cls-15" points="1317.18 2519.1 1314.41 2518.98 1354.56 721.28 1083.5 378.38 1085.36 375.53 1357.36 719.61 1357.34 720.51 1317.18 2519.1"/><polygon class="cls-16" points="1758.13 2543.74 1755.36 2543.66 1782.07 702.32 1510.7 336.64 1512.62 333.87 1784.86 700.72 1784.85 701.56 1758.13 2543.74"/><polygon class="cls-17" points="2268.77 2571.23 2266.01 2571.15 2293.45 679.55 2071.95 297.53 2074.1 295.1 2296.23 678.22 2296.22 678.92 2268.77 2571.23"/><polygon class="cls-18" points="2822.94 2603.29 2820.18 2603.19 2859.52 654.49 2626.58 257.22 2628.72 254.78 2862.31 653.16 2862.3 653.88 2822.94 2603.29"/><polygon class="cls-19" points="3523.68 2642.48 3520.91 2642.37 3561.68 623.37 3335.92 207.07 3338.12 204.74 3564.47 622.12 3564.45 622.8 3523.68 2642.48"/><polygon class="cls-20" points="4287.51 2698.05 4284.74 2697.94 4327.32 589.45 4099.73 146.31 4101.98 144.07 4330.1 588.26 4330.09 588.91 4287.51 2698.05"/><polygon class="cls-21" points="5160.42 2734 5157.65 2733.89 5201.74 550.7 4985.13 88.99 4987.44 86.88 5204.52 549.6 5204.51 550.21 5160.42 2734"/><polygon class="cls-22" points="2721.75 2559.16 2718.99 2559.04 2741.36 1557.27 2702.35 1469.88 2702.35 708.52 2573.87 708.52 2405.4 895.7 2405.4 2413.54 2402.64 2413.54 2402.64 893.84 2403.16 893.26 2572.9 704.66 2705.11 704.66 2705.11 1468.78 2744.15 1556.22 2744.13 1556.81 2721.75 2559.16"/><polygon class="cls-23" points="2852.11 1093.55 2852.05 1089.69 3551.25 1066.88 3551.32 1070.73 2852.11 1093.55"/><polygon class="cls-24" points="2285.08 1352.92 1774.09 1349.52 1774.1 1345.66 2285.09 1349.06 2285.08 1352.92"/></g><polygon class="cls-25" points="734.2 411.14 -242.97 254.44 -402.19 229.37 -402.19 3.71 4908.48 3.71 734.2 411.14"/><polygon class="cls-26" points="-235.04 254.44 -205.4 305.96 3749.54 3.71 2734.75 -15.58 -235.04 254.44"/><polygon class="cls-25" points="-205.4 305.96 494.84 409.2 6163.81 3.71 3691.62 2.61 -205.4 305.96"/><g class="cls-27"><g class="cls-28"><polygon class="cls-29" points="977.76 389.27 199.77 279.48 177.16 224.38 -402.51 33.87 -401.88 30.12 178.96 221.01 201.46 275.84 978.03 385.43 977.76 389.27"/></g><g class="cls-28"><polygon class="cls-30" points="1442.98 341.42 893.03 222.25 892.75 221.95 836.16 161.6 420.67 5.57 421.39 1.85 837.4 158.07 894.15 218.58 1443.4 337.61 1442.98 341.42"/></g><g class="cls-28"><polygon class="cls-31" points="1982.74 298.51 1453.71 178.59 1390.16 108.33 1064.62 -44.64 1065.5 -48.3 1391.68 105.1 1454.86 174.94 1983.18 294.71 1982.74 298.51"/></g><g class="cls-28"><polygon class="cls-32" points="2570.03 257.89 2099.4 128.28 2043.46 48.9 1833.07 -44.63 1833.9 -48.31 2044.95 45.52 2045.19 45.85 2100.77 124.72 2570.57 254.11 2570.03 257.89"/></g><polygon class="cls-33" points="3276.12 209.3 2837.55 70.94 2611.17 -2.49 2611.8 -6.25 2838.17 67.19 3276.72 205.54 3276.12 209.3"/><polygon class="cls-34" points="4034.76 157.85 3571.37 5.58 3572 1.83 4035.39 154.1 4034.76 157.85"/><polygon class="cls-35" points="4908.24 95.4 4331.66 -44.57 4332.14 -48.37 4908.72 91.6 4908.24 95.4"/></g><polygon class="cls-36" points="652.02 397.96 734.2 411.14 764.79 453.29 6227.76 169.48 6227.76 -4.37 5720.97 23.52 652.02 397.96"/><polygon class="cls-37" points="2429.33 2324.44 2456.02 908.52 3324.73 864.73 3293.61 2342.69 2429.33 2324.44"/><polygon class="cls-38" points="2408.43 2318.61 2435.35 890.27 3318.13 845.77 3272.95 2324.44 2408.43 2318.61"/><polygon class="cls-12" points="3318.13 845.77 3325.14 851 3280.74 2322.67 3272.95 2324.44 3318.13 845.77"/><polygon class="cls-39" points="2454.47 2247.25 3222.19 2253.59 3263.7 904.72 2478.02 945.63 2454.47 2247.25"/><polygon class="cls-40" points="3220.15 2324.13 3217.72 2324.01 3265.22 845.71 3267.64 845.83 3220.15 2324.13"/><polygon class="cls-12" points="2454.47 2247.25 2462.29 2247.32 2488.36 957.71 3260.78 917.76 3263.7 904.72 2478.02 945.63 2454.47 2247.25"/><polygon class="cls-40" points="2455.55 2318.95 2453.11 2318.89 2477.6 887.75 2480.03 887.81 2455.55 2318.95"/><polygon class="cls-41" points="2478.02 945.63 2488.36 957.71 3260.78 917.76 3263.7 904.72 2478.02 945.63"/><polygon class="cls-12" points="926.1 2236.49 903.54 2261.56 903.54 2497.5 6227.76 2793.71 6227.76 2407.89 926.1 2236.49"/><polygon class="cls-6" points="903.54 2261.56 6227.76 2460.86 6227.76 2407.89 926.1 2236.49 903.54 2261.56"/><polygon class="cls-11" points="903.54 2348.67 6227.76 2584.29 6227.76 2793.71 903.54 2497.5 903.54 2348.67"/><polygon class="cls-6" points="903.54 2407.89 903.54 2460.86 6227.76 2748.75 6227.76 2662.73 903.54 2407.89"/><g class="cls-28"><polygon class="cls-42" points="941.72 2408.58 935.96 2408.3 935.96 2348.67 941.72 2348.93 941.72 2408.58"/></g><g class="cls-28"><polygon class="cls-43" points="1045.37 2413.56 1039.61 2413.28 1039.61 2353.28 1045.37 2353.54 1045.37 2413.56"/></g><g class="cls-28"><polygon class="cls-44" points="1149.02 2418.54 1143.25 2418.27 1143.25 2357.9 1149.02 2358.16 1149.02 2418.54"/></g><g class="cls-28"><polygon class="cls-45" points="1252.66 2423.53 1246.9 2423.25 1246.9 2362.51 1252.66 2362.77 1252.66 2423.53"/></g><g class="cls-28"><polygon class="cls-46" points="1356.31 2428.51 1350.55 2428.23 1350.55 2367.13 1356.31 2367.39 1356.31 2428.51"/></g><g class="cls-28"><polygon class="cls-47" points="1459.96 2433.49 1454.2 2433.22 1454.2 2371.74 1459.96 2372 1459.96 2433.49"/></g><g class="cls-28"><polygon class="cls-48" points="1563.61 2438.48 1557.85 2438.2 1557.85 2376.36 1563.61 2376.61 1563.61 2438.48"/></g><g class="cls-28"><polygon class="cls-49" points="1667.26 2443.46 1661.49 2443.18 1661.49 2380.97 1667.26 2381.23 1667.26 2443.46"/></g><g class="cls-28"><polygon class="cls-50" points="1770.9 2448.44 1765.14 2448.17 1765.14 2385.59 1770.9 2385.85 1770.9 2448.44"/></g><g class="cls-28"><polygon class="cls-51" points="1874.55 2453.43 1868.79 2453.15 1868.79 2390.2 1874.55 2390.46 1874.55 2453.43"/></g><g class="cls-28"><polygon class="cls-52" points="1978.2 2458.41 1972.43 2458.13 1972.43 2394.82 1978.2 2395.08 1978.2 2458.41"/></g><g class="cls-28"><polygon class="cls-53" points="2081.85 2463.39 2076.08 2463.12 2076.08 2399.43 2081.85 2399.69 2081.85 2463.39"/></g><g class="cls-28"><polygon class="cls-54" points="2185.49 2468.38 2179.73 2468.1 2179.73 2404.05 2185.49 2404.31 2185.49 2468.38"/></g><g class="cls-28"><polygon class="cls-55" points="2289.14 2473.36 2283.38 2473.08 2283.38 2408.66 2289.14 2408.92 2289.14 2473.36"/></g><g class="cls-28"><polygon class="cls-56" points="2392.79 2478.34 2387.03 2478.07 2387.03 2413.28 2392.79 2413.54 2392.79 2478.34"/></g><g class="cls-28"><polygon class="cls-57" points="2496.44 2483.33 2490.68 2483.05 2490.68 2417.89 2496.44 2418.15 2496.44 2483.33"/></g><g class="cls-28"><polygon class="cls-58" points="2600.09 2488.31 2594.32 2488.03 2594.32 2422.51 2600.09 2422.76 2600.09 2488.31"/></g><g class="cls-28"><polygon class="cls-59" points="2703.73 2493.29 2697.97 2493.02 2697.97 2427.12 2703.73 2427.38 2703.73 2493.29"/></g><g class="cls-28"><polygon class="cls-60" points="2807.38 2498.28 2801.62 2498 2801.62 2431.74 2807.38 2432 2807.38 2498.28"/></g><g class="cls-28"><polygon class="cls-61" points="2911.03 2503.26 2905.27 2502.98 2905.27 2436.35 2911.03 2436.61 2911.03 2503.26"/></g><g class="cls-28"><polygon class="cls-62" points="3014.68 2508.24 3008.92 2507.97 3008.92 2440.97 3014.68 2441.23 3014.68 2508.24"/></g><g class="cls-28"><polygon class="cls-63" points="3118.32 2513.23 3112.56 2512.95 3112.56 2445.58 3118.32 2445.84 3118.32 2513.23"/></g><g class="cls-28"><polygon class="cls-64" points="3221.97 2518.21 3216.21 2517.93 3216.21 2450.2 3221.97 2450.46 3221.97 2518.21"/></g><g class="cls-28"><polygon class="cls-65" points="3325.62 2523.19 3319.86 2522.92 3319.86 2454.81 3325.62 2455.07 3325.62 2523.19"/></g><g class="cls-28"><polygon class="cls-66" points="3429.27 2528.18 3423.51 2527.9 3423.51 2459.43 3429.27 2459.69 3429.27 2528.18"/></g><g class="cls-28"><polygon class="cls-67" points="3532.91 2533.16 3527.15 2532.88 3527.15 2464.05 3532.91 2464.3 3532.91 2533.16"/></g><g class="cls-28"><polygon class="cls-68" points="3636.57 2538.14 3630.8 2537.87 3630.8 2468.66 3636.57 2468.92 3636.57 2538.14"/></g><g class="cls-28"><polygon class="cls-69" points="3740.21 2543.13 3734.45 2542.85 3734.45 2473.28 3740.21 2473.53 3740.21 2543.13"/></g><g class="cls-28"><polygon class="cls-70" points="3843.86 2548.11 3838.1 2547.83 3838.1 2477.89 3843.86 2478.15 3843.86 2548.11"/></g><g class="cls-28"><polygon class="cls-71" points="3947.51 2553.09 3941.75 2552.82 3941.75 2482.51 3947.51 2482.76 3947.51 2553.09"/></g><g class="cls-28"><polygon class="cls-72" points="4051.15 2558.08 4045.39 2557.8 4045.39 2487.12 4051.15 2487.38 4051.15 2558.08"/></g><g class="cls-28"><polygon class="cls-73" points="4154.8 2563.06 4149.04 2562.78 4149.04 2491.74 4154.8 2491.99 4154.8 2563.06"/></g><g class="cls-28"><polygon class="cls-74" points="4258.45 2568.04 4252.69 2567.77 4252.69 2496.35 4258.45 2496.61 4258.45 2568.04"/></g><g class="cls-28"><polygon class="cls-75" points="4362.1 2573.03 4356.34 2572.75 4356.34 2500.97 4362.1 2501.22 4362.1 2573.03"/></g><g class="cls-28"><polygon class="cls-76" points="4465.74 2578.01 4459.98 2577.73 4459.98 2505.58 4465.74 2505.84 4465.74 2578.01"/></g><g class="cls-28"><polygon class="cls-77" points="4569.4 2582.99 4563.63 2582.72 4563.63 2510.2 4569.4 2510.45 4569.4 2582.99"/></g><g class="cls-28"><polygon class="cls-78" points="4673.04 2587.98 4667.28 2587.7 4667.28 2514.81 4673.04 2515.07 4673.04 2587.98"/></g><g class="cls-28"><polygon class="cls-79" points="4776.69 2592.96 4770.93 2592.68 4770.93 2519.43 4776.69 2519.68 4776.69 2592.96"/></g><g class="cls-28"><polygon class="cls-80" points="4880.34 2597.94 4874.58 2597.67 4874.58 2524.04 4880.34 2524.3 4880.34 2597.94"/></g><g class="cls-28"><polygon class="cls-81" points="4983.99 2602.93 4978.23 2602.65 4978.23 2528.66 4983.99 2528.91 4983.99 2602.93"/></g><g class="cls-28"><polygon class="cls-82" points="5087.63 2607.91 5081.87 2607.63 5081.87 2533.27 5087.63 2533.53 5087.63 2607.91"/></g><g class="cls-28"><polygon class="cls-83" points="5191.28 2612.89 5185.52 2612.61 5185.52 2537.89 5191.28 2538.14 5191.28 2612.89"/></g><g class="cls-28"><polygon class="cls-84" points="5294.93 2617.88 5289.17 2617.6 5289.17 2542.5 5294.93 2542.76 5294.93 2617.88"/></g><g class="cls-28"><polygon class="cls-85" points="5398.58 2622.86 5392.82 2622.58 5392.82 2547.12 5398.58 2547.37 5398.58 2622.86"/></g><polygon class="cls-41" points="1005.51 2398.01 968.06 2396.24 968.06 2367.9 1005.51 2369.61 1005.51 2398.01"/><polygon class="cls-41" points="1423.98 2417.79 1386.53 2416.02 1386.53 2386.98 1423.98 2388.68 1423.98 2417.79"/><polygon class="cls-41" points="1842.45 2437.57 1805 2435.8 1805 2406.05 1842.45 2407.76 1842.45 2437.57"/><polygon class="cls-41" points="2253.16 2456.99 2215.71 2455.22 2215.71 2424.77 2253.16 2426.48 2253.16 2456.99"/><polygon class="cls-41" points="2667.76 2476.59 2630.3 2474.82 2630.3 2443.67 2667.76 2445.38 2667.76 2476.59"/><polygon class="cls-41" points="3079.13 2496.03 3041.67 2494.26 3041.67 2462.43 3079.13 2464.13 3079.13 2496.03"/><polygon class="cls-41" points="3489.67 2515.44 3452.22 2513.67 3452.22 2481.14 3489.67 2482.85 3489.67 2515.44"/><polygon class="cls-41" points="3905.5 2535.1 3868.05 2533.33 3868.05 2500.1 3905.5 2501.8 3905.5 2535.1"/><polygon class="cls-41" points="4326.12 2554.98 4288.67 2553.21 4288.67 2519.27 4326.12 2520.98 4326.12 2554.98"/><polygon class="cls-41" points="4740.71 2574.58 4703.26 2572.81 4703.26 2538.17 4740.71 2539.88 4740.71 2574.58"/><polygon class="cls-41" points="5155.3 2594.18 5117.85 2592.4 5117.85 2557.07 5155.3 2558.78 5155.3 2594.18"/><g class="cls-86"><polygon class="cls-41" points="1011.56 2466.7 970.04 2464.45 903.54 2407.89 945.06 2409.87 1011.56 2466.7"/><polygon class="cls-41" points="1220.21 2477.98 1178.69 2475.73 1112.19 2417.87 1153.71 2419.86 1220.21 2477.98"/><polygon class="cls-41" points="1428.86 2489.26 1387.34 2487.02 1320.84 2427.86 1362.36 2429.85 1428.86 2489.26"/><polygon class="cls-41" points="1637.51 2500.54 1595.98 2498.3 1529.48 2437.84 1571.01 2439.83 1637.51 2500.54"/><polygon class="cls-41" points="1846.15 2511.82 1804.63 2509.58 1738.13 2447.83 1779.65 2449.82 1846.15 2511.82"/><polygon class="cls-41" points="2054.8 2523.11 2013.28 2520.86 1946.78 2457.82 1988.3 2459.81 2054.8 2523.11"/><polygon class="cls-41" points="2263.45 2534.39 2221.93 2532.14 2155.43 2467.81 2196.95 2469.79 2263.45 2534.39"/><polygon class="cls-41" points="2472.1 2545.67 2430.58 2543.43 2364.08 2477.79 2405.6 2479.78 2472.1 2545.67"/><polygon class="cls-41" points="2680.75 2556.95 2639.22 2554.71 2572.72 2487.78 2614.25 2489.77 2680.75 2556.95"/><polygon class="cls-41" points="2889.39 2568.24 2847.87 2565.99 2781.37 2497.77 2822.89 2499.75 2889.39 2568.24"/><polygon class="cls-41" points="3098.04 2579.52 3056.52 2577.27 2990.02 2507.75 3031.54 2509.74 3098.04 2579.52"/><polygon class="cls-41" points="3306.69 2590.8 3265.17 2588.55 3198.67 2517.74 3240.19 2519.73 3306.69 2590.8"/><polygon class="cls-41" points="3515.34 2602.08 3473.82 2599.84 3407.32 2527.73 3448.84 2529.71 3515.34 2602.08"/><polygon class="cls-41" points="3723.99 2613.36 3682.46 2611.12 3615.96 2537.71 3657.49 2539.7 3723.99 2613.36"/><polygon class="cls-41" points="3932.63 2624.64 3891.11 2622.4 3824.61 2547.7 3866.13 2549.69 3932.63 2624.64"/><polygon class="cls-41" points="4141.28 2635.93 4099.76 2633.68 4033.26 2557.69 4074.78 2559.68 4141.28 2635.93"/><polygon class="cls-41" points="4349.93 2647.21 4308.41 2644.96 4241.91 2567.67 4283.43 2569.66 4349.93 2647.21"/><polygon class="cls-41" points="4558.58 2658.49 4517.06 2656.24 4450.55 2577.66 4492.08 2579.65 4558.58 2658.49"/><polygon class="cls-41" points="4767.23 2669.77 4725.7 2667.53 4659.2 2587.65 4700.72 2589.64 4767.23 2669.77"/><polygon class="cls-41" points="4975.87 2681.05 4934.35 2678.81 4867.85 2597.63 4909.37 2599.62 4975.87 2681.05"/><polygon class="cls-41" points="5184.52 2692.34 5143 2690.09 5076.5 2607.62 5118.02 2609.61 5184.52 2692.34"/><polygon class="cls-41" points="5393.17 2703.62 5351.65 2701.37 5285.15 2617.61 5326.67 2619.6 5393.17 2703.62"/></g><polygon class="cls-37" points="-402.19 3089.61 6227.76 3089.61 6227.76 2793.71 915.61 2496.67 829.93 2502.58 640.56 2485.48 643.84 2402.91 -402.19 2323.3 -402.19 3089.61"/><g class="cls-87"><polygon class="cls-88" points="-402.19 2812.19 -402.2 2808.34 5913.93 2774.32 5913.94 2778.18 -402.19 2812.19"/><rect class="cls-88" x="1718.91" y="534.54" width="3.86" height="4246.06" transform="translate(-939.58 4374.01) rotate(-89.91)"/><polygon class="cls-88" points="2100.07 2564.83 -402.2 2534.12 -402.18 2530.27 2100.1 2560.97 2100.07 2564.83"/><polygon class="cls-88" points="829.84 2507.89 -402.22 2470.3 -402.16 2466.45 829.9 2504.03 829.84 2507.89"/><polygon class="cls-88" points="641.81 2454.39 -402.22 2399.18 -402.16 2397.26 641.86 2452.46 641.81 2454.39"/><polygon class="cls-88" points="643.81 2403.88 -402.22 2341.26 -402.16 2339.33 643.87 2401.95 643.81 2403.88"/><polygon class="cls-88" points="6227.66 3091.53 -402.29 2435.17 -402.09 2431.33 6227.86 3087.69 6227.66 3091.53"/><polygon class="cls-88" points="3803.24 3091.53 -402.33 2499.07 -402.05 2495.23 3803.52 3087.69 3803.24 3091.53"/><polygon class="cls-88" points="2539.32 3091.52 -402.36 2589.54 -402.02 2585.72 2539.65 3087.7 2539.32 3091.52"/><polygon class="cls-88" points="1246.67 3091.51 -402.42 2699.89 -401.96 2696.1 1247.13 3087.71 1246.67 3091.51"/><polygon class="cls-88" points="33.86 3091.45 -402.62 2895.64 -401.77 2891.96 34.7 3087.77 33.86 3091.45"/></g><polygon class="cls-38" points="4178.89 2634.59 4190.11 1254.61 5036.21 1203.71 4936.53 2635.61 4178.89 2634.59"/><polygon class="cls-38" points="5036.21 1203.71 5129.63 1221.58 5017.48 2635.61 4936.53 2635.61 5036.21 1203.71"/><polygon class="cls-89" points="4206.25 2606.34 4916.41 2606.34 5001.76 1248.01 4224.36 1290.37 4206.25 2606.34"/><polygon class="cls-90" points="4206.47 2631.61 4229.99 2655.16 4964.19 2655.16 4987.26 2635.69 4206.47 2631.61"/><polygon class="cls-90" points="4266.49 2655.16 4272.62 2700.81 4299.53 2700.81 4311.82 2655.16 4266.49 2655.16"/><polygon class="cls-90" points="4863.18 2655.16 4869.31 2710.66 4896.23 2710.66 4908.52 2655.16 4863.18 2655.16"/><polygon class="cls-37" points="4097.44 2728.63 4272.62 2700.81 4299.53 2700.81 4452.44 2737.77 4097.44 2728.63"/><polygon class="cls-12" points="4097.44 2728.63 4097.44 2750.39 4452.44 2750.39 4452.44 2737.77 4097.44 2728.63"/><polygon class="cls-37" points="4704.48 2738.48 4875.04 2710.66 4901.95 2710.66 5054.86 2747.62 4704.48 2738.48"/><polygon class="cls-12" points="4704.48 2738.48 4704.48 2760.24 5054.86 2760.24 5054.86 2747.62 4704.48 2738.48"/><polygon class="cls-91" points="4206.25 2606.34 4228.19 2606.34 4248.94 1296.48 4224.36 1290.37 4206.25 2606.34"/><polygon class="cls-92" points="4224.36 1290.37 4248.94 1296.48 5000.72 1264.52 5001.76 1248.01 4224.36 1290.37"/><g class="cls-87"><polygon class="cls-93" points="4249.02 1335.32 4248.85 1330.47 5000.63 1299.39 5000.8 1304.24 4249.02 1335.32"/><polygon class="cls-94" points="4248.3 1379.23 4248.13 1374.38 4997.72 1344.37 4997.9 1349.23 4248.3 1379.23"/><polygon class="cls-95" points="4247.59 1423.14 4247.42 1418.29 4994.82 1389.36 4994.98 1394.21 4247.59 1423.14"/><polygon class="cls-96" points="4246.87 1467.05 4246.7 1462.2 4991.92 1434.34 4992.08 1439.2 4246.87 1467.05"/><polygon class="cls-97" points="4246.15 1510.97 4246 1506.11 4989.01 1479.33 4989.16 1484.18 4246.15 1510.97"/><polygon class="cls-98" points="4245.43 1554.88 4245.28 1550.03 4986.11 1524.31 4986.26 1529.16 4245.43 1554.88"/><polygon class="cls-99" points="4244.72 1598.79 4244.57 1593.94 4983.2 1569.29 4983.34 1574.15 4244.72 1598.79"/><polygon class="cls-100" points="4244 1642.7 4243.86 1637.85 4980.3 1614.28 4980.44 1619.13 4244 1642.7"/><polygon class="cls-101" points="4243.27 1686.62 4243.15 1681.76 4977.4 1659.26 4977.53 1664.11 4243.27 1686.62"/><polygon class="cls-102" points="4242.56 1730.53 4242.43 1725.67 4974.49 1704.24 4974.62 1709.1 4242.56 1730.53"/><polygon class="cls-103" points="4241.84 1774.44 4241.72 1769.58 4971.59 1749.23 4971.71 1754.08 4241.84 1774.44"/><polygon class="cls-104" points="4241.12 1818.35 4241.01 1813.5 4968.68 1794.21 4968.79 1799.06 4241.12 1818.35"/><polygon class="cls-105" points="4240.4 1862.26 4240.3 1857.41 4965.78 1839.19 4965.88 1844.05 4240.4 1862.26"/><polygon class="cls-106" points="4239.68 1906.18 4239.58 1901.32 4962.88 1884.17 4962.98 1889.03 4239.68 1906.18"/><polygon class="cls-107" points="4238.97 1950.09 4238.87 1945.23 4959.97 1929.16 4960.07 1934.01 4238.97 1950.09"/><polygon class="cls-108" points="4238.25 1994 4238.16 1989.14 4957.07 1974.14 4957.15 1978.99 4238.25 1994"/><polygon class="cls-109" points="4237.53 2037.91 4237.45 2033.05 4954.16 2019.13 4954.25 2023.98 4237.53 2037.91"/><polygon class="cls-110" points="4236.81 2081.82 4236.73 2076.97 4951.26 2064.11 4951.33 2068.96 4236.81 2081.82"/><rect class="cls-111" x="4236.01" y="2114.99" width="712.43" height="4.85" transform="translate(-32.19 71.26) rotate(-0.89)"/><polygon class="cls-112" points="4235.38 2169.64 4235.31 2164.79 4945.45 2154.07 4945.52 2158.93 4235.38 2169.64"/><polygon class="cls-113" points="4234.65 2213.56 4234.6 2208.7 4942.55 2199.06 4942.6 2203.91 4234.65 2213.56"/><rect class="cls-114" x="4233.89" y="2248.33" width="705.81" height="4.85" transform="translate(-24.86 51.39) rotate(-0.64)"/><polygon class="cls-115" points="4233.22 2301.38 4233.17 2296.53 4936.74 2289.03 4936.78 2293.88 4233.22 2301.38"/><rect class="cls-116" x="4232.46" y="2337.22" width="701.41" height="4.85" transform="translate(-20.85 41.31) rotate(-0.52)"/><rect class="cls-117" x="4231.76" y="2381.67" width="699.2" height="4.85" transform="translate(-15.91 30.82) rotate(-0.38)"/><polygon class="cls-118" points="4231.06 2433.12 4231.04 2428.26 4928.03 2423.97 4928.05 2428.83 4231.06 2433.12"/><rect class="cls-119" x="4230.33" y="2470.57" width="694.8" height="4.85" transform="translate(-10.93 20.35) rotate(-0.25)"/><rect class="cls-120" x="4229.62" y="2515.01" width="692.61" height="4.85" transform="translate(-5.72 10.42) rotate(-0.13)"/><rect class="cls-121" x="4228.9" y="2559.46" width="690.42" height="4.85" transform="translate(-5.82 10.42) rotate(-0.13)"/><rect class="cls-122" x="4228.19" y="2603.91" width="688.22" height="4.85"/></g><polygon class="cls-37" points="1107.06 1062.16 1099.01 1947.25 1662.64 1965.18 1694.86 1052.44 1107.06 1062.16"/><polygon class="cls-39" points="1063.56 1035.95 1055.28 1945.59 1630.97 1947.25 1651.36 1026.22 1063.56 1035.95"/><polygon class="cls-38" points="1651.36 1026.22 1683.71 1041.88 1651.36 1947.25 1630.97 1947.25 1651.36 1026.22"/><polygon class="cls-123" points="1068.09 1918.39 1613.66 1932.47 1638.45 1040.79 1076.06 1062.42 1068.09 1918.39"/><polygon class="cls-41" points="1068.09 1918.39 1076.06 1062.42 1083.77 1062.29 1073.85 1918.49 1068.09 1918.39"/><path class="cls-124" d="M1367.87,1689c-82,0-148.74-93.16-148.74-207.69s66.72-207.68,148.74-207.68,148.74,93.16,148.74,207.68S1449.88,1689,1367.87,1689Zm0-410.77c-80.2,0-145.45,91.1-145.45,203.08s65.25,203.1,145.45,203.1,145.44-91.11,145.44-203.1S1448.07,1278.27,1367.87,1278.27Z"/><path class="cls-124" d="M1381.22,1928.37l-49.82-45.8c-6.7-6.17-10.7-16.53-10.7-27.74V1589.75a43.18,43.18,0,0,1,4-18.38l9.67-20.32a37,37,0,0,0,3.42-15.83V1261.68a41.58,41.58,0,0,1,6-22l84.3-133a35.81,35.81,0,0,0,5.15-19v-39.06h3.3v39.06a41.6,41.6,0,0,1-6,22l-84.31,133a35.78,35.78,0,0,0-5.14,19v273.54a43.14,43.14,0,0,1-4,18.38l-9.67,20.32a37,37,0,0,0-3.42,15.83v265.08c0,9.66,3.44,18.58,9.22,23.89l49.81,45.8Z"/><path class="cls-125" d="M1094.62,1919.92l-2.58-2.86,216.37-379.73a36.42,36.42,0,0,0,4.46-17.81V1436c0-8.69,2.39-16.92,6.73-23.15l187.91-269.9a35.11,35.11,0,0,0,5.8-20v-74.33h3.3V1123c0,8.7-2.39,16.93-6.73,23.16L1322,1416a35.1,35.1,0,0,0-5.8,19.94v83.57a42.35,42.35,0,0,1-5.18,20.68Z"/><path class="cls-126" d="M1615.55,1866.84h-73.29c-10.62,0-20-10-22.9-24.23L1461,1552.27c-2.49-12.37-10.56-20.87-19.72-20.87h-.5l-62,2c-6.47.32-12.43-3.07-17-9.24s-7.2-14.47-7.31-23.38l-.51-40.23c-.12-10-4.06-19.32-10.28-24.31l-210.38-168.72c-7.37-5.9-11.94-16.94-11.94-28.8V1062.42h3.3v176.36c0,10.22,3.94,19.72,10.28,24.81l210.38,168.72c7.22,5.79,11.79,16.6,11.94,28.22l.5,40.23c.1,7.68,2.34,14.83,6.3,20.14s9.16,8.14,14.68,8l62-2c10.77-.36,20.52,9.6,23.46,24.22l58.39,290.33c2.47,12.29,10.58,20.88,19.73,20.88h73.29Z"/><path class="cls-127" d="M1078.68,1828.52l-.1-4.6,103-4.68c6-.27,11.62-4.2,15.37-10.78l200.09-351.39a36.63,36.63,0,0,0,4.44-17.81v-58.94c0-9.5,2.93-18.57,8-24.87l127.09-157c4.09-5.06,9.36-8,14.82-8.31l82.87-4.55.13,4.6-82.87,4.55c-4.71.26-9.24,2.8-12.77,7.16l-127.08,157c-4.4,5.43-6.92,13.23-6.92,21.42v58.94a42.27,42.27,0,0,1-5.17,20.67l-200.08,351.39c-4.35,7.65-10.86,12.2-17.84,12.52Z"/><path class="cls-128" d="M1097.62,1679.05h-18v-4.6h18c9.54,0,18.54-5.85,24.69-16l87-144.33c6.78-11.24,16.69-17.68,27.21-17.68h286.79c11.09,0,21.26-7.79,27.22-20.86l22.59-49.53c6.64-14.57,18.48-23.19,30.82-23l24.35.78-.07,4.6-24.36-.78c-11.17-.35-21.93,7.63-28,20.85L1553.35,1478c-6.56,14.4-17.78,23-30,23H1236.56c-9.54,0-18.54,5.84-24.69,16l-87,144.33C1118.05,1672.61,1108.14,1679.05,1097.62,1679.05Z"/><polygon class="cls-129" points="1513.38 1929.46 1452.17 1649.78 1081.01 1352.99 1082.65 1348.99 1454.94 1646.69 1455.13 1647.57 1516.53 1928.12 1513.38 1929.46"/><path class="cls-130" d="M1316.17,1423.4h-3.3v-89.29c0-8.85-2.86-17.07-7.86-22.53l-2-2.13c-5.77-6.31-9.09-15.8-9.12-26l-.61-229.41,3.3,0,.61,229.41c0,8.82,2.88,17,7.85,22.42l2,2.14c5.79,6.34,9.12,15.87,9.12,26.15Z"/><ellipse class="cls-88" cx="1125.78" cy="1253.81" rx="6.8" ry="9.5"/><path class="cls-126" d="M1125.78,1265c-4.43,0-8-5-8-11.22s3.61-11.23,8-11.23,8,5,8,11.23S1130.21,1265,1125.78,1265Zm0-19c-3.07,0-5.56,3.48-5.56,7.77s2.49,7.77,5.56,7.77,5.57-3.49,5.57-7.77S1128.85,1246,1125.78,1246Z"/><rect class="cls-131" x="1137.32" y="1250.24" width="35.02" height="7.14"/><ellipse class="cls-88" cx="1123.51" cy="1207.76" rx="6.8" ry="9.5"/><path class="cls-126" d="M1123.51,1219c-4.43,0-8-5-8-11.23s3.6-11.22,8-11.22,8,5,8,11.22S1128,1219,1123.51,1219Zm0-19c-3.06,0-5.56,3.49-5.56,7.77s2.5,7.77,5.56,7.77,5.57-3.48,5.57-7.77S1126.58,1200,1123.51,1200Z"/><rect class="cls-131" x="1135.06" y="1204.19" width="35.02" height="7.14"/><ellipse class="cls-88" cx="1123.51" cy="1144.86" rx="6.8" ry="9.5"/><path class="cls-126" d="M1123.51,1156.08c-4.43,0-8-5-8-11.22s3.6-11.23,8-11.23,8,5,8,11.23S1128,1156.08,1123.51,1156.08Zm0-19c-3.06,0-5.56,3.49-5.56,7.78s2.5,7.77,5.56,7.77,5.57-3.49,5.57-7.77S1126.58,1137.08,1123.51,1137.08Z"/><rect class="cls-131" x="1135.06" y="1141.29" width="35.02" height="7.14"/><path class="cls-88" d="M1095.43,1360.66c0,5.25-3,9.5-6.8,9.5s-6.8-4.25-6.8-9.5,3-9.5,6.8-9.5S1095.43,1355.42,1095.43,1360.66Z"/><path class="cls-129" d="M1088.63,1372.46c-4.66,0-8.45-5.29-8.45-11.8s3.79-11.8,8.45-11.8,8.45,5.3,8.45,11.8S1093.29,1372.46,1088.63,1372.46Zm0-19c-2.84,0-5.15,3.22-5.15,7.19s2.31,7.2,5.15,7.2,5.15-3.23,5.15-7.2S1091.47,1353.47,1088.63,1353.47Z"/><rect class="cls-131" x="1100.17" y="1357.09" width="35.02" height="7.14"/><ellipse class="cls-88" cx="1220.21" cy="1458.48" rx="6.8" ry="9.5"/><path class="cls-129" d="M1220.21,1470.28c-4.66,0-8.45-5.3-8.45-11.81s3.79-11.79,8.45-11.79,8.45,5.29,8.45,11.79S1224.87,1470.28,1220.21,1470.28Zm0-19c-2.84,0-5.15,3.23-5.15,7.19s2.31,7.2,5.15,7.2,5.16-3.23,5.16-7.2S1223.06,1451.28,1220.21,1451.28Z"/><rect class="cls-131" x="1231.75" y="1454.91" width="35.02" height="7.14"/><ellipse class="cls-88" cx="1265.43" cy="1499.88" rx="6.8" ry="9.5"/><path class="cls-129" d="M1265.43,1511.69c-4.66,0-8.45-5.3-8.45-11.81s3.79-11.79,8.45-11.79,8.45,5.29,8.45,11.79S1270.09,1511.69,1265.43,1511.69Zm0-19c-2.84,0-5.15,3.23-5.15,7.19s2.31,7.2,5.15,7.2,5.15-3.23,5.15-7.2S1268.27,1492.69,1265.43,1492.69Z"/><rect class="cls-131" x="1276.97" y="1496.32" width="35.02" height="7.14"/><ellipse class="cls-88" cx="1310.95" cy="1531.54" rx="6.8" ry="9.5"/><path class="cls-129" d="M1311,1543.34c-4.66,0-8.45-5.3-8.45-11.81s3.79-11.79,8.45-11.79,8.45,5.29,8.45,11.79S1315.61,1543.34,1311,1543.34Zm0-19c-2.85,0-5.16,3.23-5.16,7.19s2.31,7.2,5.16,7.2,5.15-3.23,5.15-7.2S1313.79,1524.34,1311,1524.34Z"/><rect class="cls-131" x="1322.49" y="1527.97" width="35.02" height="7.14"/><ellipse class="cls-88" cx="1343.33" cy="1556.75" rx="6.8" ry="9.5"/><path class="cls-129" d="M1343.33,1568.54c-4.66,0-8.45-5.28-8.45-11.79s3.79-11.8,8.45-11.8,8.45,5.29,8.45,11.8S1348,1568.54,1343.33,1568.54Zm0-19c-2.84,0-5.15,3.23-5.15,7.2s2.31,7.2,5.15,7.2,5.16-3.23,5.16-7.2S1346.17,1549.55,1343.33,1549.55Z"/><rect class="cls-131" x="1354.87" y="1553.18" width="35.02" height="7.14"/><path class="cls-88" d="M1522.38,1497.55c0,5.25-3.05,9.5-6.81,9.5s-6.8-4.25-6.8-9.5,3-9.5,6.8-9.5S1522.38,1492.31,1522.38,1497.55Z"/><path class="cls-128" d="M1515.57,1509.35c-4.66,0-8.45-5.29-8.45-11.8s3.79-11.8,8.45-11.8,8.45,5.3,8.45,11.8S1520.23,1509.35,1515.57,1509.35Zm0-19c-2.84,0-5.15,3.23-5.15,7.19s2.31,7.2,5.15,7.2,5.16-3.23,5.16-7.2S1518.41,1490.36,1515.57,1490.36Z"/><rect class="cls-131" x="1527.11" y="1493.98" width="35.02" height="7.14"/><ellipse class="cls-88" cx="1220.21" cy="1503.45" rx="6.8" ry="9.5"/><path class="cls-128" d="M1220.21,1515.25c-4.66,0-8.45-5.29-8.45-11.79s3.79-11.81,8.45-11.81,8.45,5.3,8.45,11.81S1224.87,1515.25,1220.21,1515.25Zm0-19c-2.84,0-5.15,3.23-5.15,7.2s2.31,7.19,5.15,7.19,5.16-3.23,5.16-7.19S1223.06,1496.26,1220.21,1496.26Z"/><rect class="cls-131" x="1231.75" y="1499.88" width="35.02" height="7.14"/><ellipse class="cls-88" cx="1111.45" cy="1669.5" rx="6.8" ry="9.5"/><path class="cls-128" d="M1111.45,1681.3c-4.66,0-8.45-5.29-8.45-11.79s3.79-11.8,8.45-11.8,8.45,5.29,8.45,11.8S1116.11,1681.3,1111.45,1681.3Zm0-19c-2.84,0-5.15,3.24-5.15,7.21s2.31,7.19,5.15,7.19,5.16-3.23,5.16-7.19S1114.29,1662.3,1111.45,1662.3Z"/><rect class="cls-131" x="1122.99" y="1665.93" width="35.02" height="7.14"/><path class="cls-88" d="M1151.22,1624.77c0,5.25-3,9.5-6.8,9.5s-6.8-4.25-6.8-9.5,3.05-9.5,6.8-9.5S1151.22,1619.53,1151.22,1624.77Z"/><path class="cls-128" d="M1144.42,1636.57c-4.66,0-8.45-5.29-8.45-11.8s3.79-11.8,8.45-11.8,8.45,5.29,8.45,11.8S1149.08,1636.57,1144.42,1636.57Zm0-19c-2.84,0-5.15,3.23-5.15,7.2s2.31,7.2,5.15,7.2,5.16-3.23,5.16-7.2S1147.27,1617.57,1144.42,1617.57Z"/><rect class="cls-131" x="1155.96" y="1621.2" width="35.02" height="7.14"/><path class="cls-88" d="M1173.65,1587.89c0,5.24-3.05,9.5-6.8,9.5s-6.81-4.26-6.81-9.5,3-9.5,6.81-9.5S1173.65,1582.64,1173.65,1587.89Z"/><path class="cls-128" d="M1166.85,1599.68c-4.67,0-8.46-5.29-8.46-11.8s3.79-11.79,8.46-11.79,8.44,5.29,8.44,11.79S1171.5,1599.68,1166.85,1599.68Zm0-19c-2.85,0-5.16,3.23-5.16,7.19s2.31,7.21,5.16,7.21,5.15-3.24,5.15-7.21S1169.69,1580.69,1166.85,1580.69Z"/><rect class="cls-131" x="1178.39" y="1584.32" width="35.02" height="7.14"/><ellipse class="cls-88" cx="1185.19" cy="1554.91" rx="6.8" ry="9.5"/><path class="cls-128" d="M1185.19,1566.7c-4.66,0-8.45-5.29-8.45-11.79s3.79-11.8,8.45-11.8,8.45,5.29,8.45,11.8S1189.85,1566.7,1185.19,1566.7Zm0-19c-2.84,0-5.16,3.23-5.16,7.2s2.32,7.19,5.16,7.19,5.15-3.23,5.15-7.19S1188,1547.71,1185.19,1547.71Z"/><rect class="cls-131" x="1196.73" y="1551.34" width="35.02" height="7.14"/><ellipse class="cls-88" cx="1261" cy="1621.2" rx="6.8" ry="9.5"/><path class="cls-125" d="M1261,1633c-4.66,0-8.45-5.29-8.45-11.79s3.79-11.8,8.45-11.8,8.45,5.29,8.45,11.8S1265.66,1633,1261,1633Zm0-19c-2.84,0-5.16,3.24-5.16,7.21s2.32,7.19,5.16,7.19,5.15-3.23,5.15-7.19S1263.84,1614,1261,1614Z"/><rect class="cls-131" x="1272.54" y="1617.63" width="35.02" height="7.14"/><ellipse class="cls-88" cx="1129.77" cy="1855.19" rx="6.8" ry="9.5"/><path class="cls-125" d="M1129.77,1867c-4.66,0-8.45-5.29-8.45-11.8s3.79-11.8,8.45-11.8,8.45,5.29,8.45,11.8S1134.43,1867,1129.77,1867Zm0-19c-2.84,0-5.15,3.23-5.15,7.2s2.31,7.2,5.15,7.2,5.15-3.23,5.15-7.2S1132.61,1848,1129.77,1848Z"/><rect class="cls-131" x="1141.31" y="1851.62" width="35.02" height="7.14"/><path class="cls-88" d="M1112.67,1899.29c0,5.24-3,9.5-6.8,9.5s-6.8-4.26-6.8-9.5,3-9.5,6.8-9.5S1112.67,1894,1112.67,1899.29Z"/><path class="cls-125" d="M1105.87,1911.08c-4.66,0-8.45-5.29-8.45-11.79s3.79-11.8,8.45-11.8,8.45,5.29,8.45,11.8S1110.53,1911.08,1105.87,1911.08Zm0-19c-2.84,0-5.15,3.23-5.15,7.2s2.31,7.2,5.15,7.2,5.15-3.23,5.15-7.2S1108.71,1892.09,1105.87,1892.09Z"/><rect class="cls-131" x="1117.41" y="1895.72" width="35.02" height="7.14"/><path class="cls-88" d="M1323.45,1423.4c0,5.25-3,9.5-6.8,9.5s-6.8-4.25-6.8-9.5,3-9.5,6.8-9.5S1323.45,1418.16,1323.45,1423.4Z"/><path class="cls-125" d="M1316.65,1435.2c-4.66,0-8.45-5.29-8.45-11.8s3.79-11.8,8.45-11.8,8.45,5.29,8.45,11.8S1321.31,1435.2,1316.65,1435.2Zm0-19c-2.84,0-5.15,3.23-5.15,7.2s2.31,7.2,5.15,7.2,5.15-3.23,5.15-7.2S1319.49,1416.2,1316.65,1416.2Z"/><rect class="cls-131" x="1328.19" y="1419.83" width="35.02" height="7.14"/><ellipse class="cls-88" cx="1341.09" cy="1387.72" rx="6.8" ry="9.5"/><path class="cls-125" d="M1341.08,1399.52c-4.65,0-8.45-5.3-8.45-11.8s3.8-11.8,8.45-11.8,8.46,5.29,8.46,11.8S1345.75,1399.52,1341.08,1399.52Zm0-19c-2.84,0-5.15,3.23-5.15,7.2s2.31,7.19,5.15,7.19,5.16-3.22,5.16-7.19S1343.93,1380.52,1341.08,1380.52Z"/><rect class="cls-131" x="1352.63" y="1384.15" width="35.02" height="7.14"/><path class="cls-88" d="M1418,1285.47c0,5.24-3,9.49-6.81,9.49s-6.8-4.25-6.8-9.49,3-9.5,6.8-9.5S1418,1280.22,1418,1285.47Z"/><path class="cls-125" d="M1411.2,1297.27c-4.66,0-8.45-5.3-8.45-11.81s3.79-11.79,8.45-11.79,8.45,5.29,8.45,11.79S1415.86,1297.27,1411.2,1297.27Zm0-19c-2.84,0-5.15,3.23-5.15,7.19s2.31,7.2,5.15,7.2,5.16-3.23,5.16-7.2S1414,1278.27,1411.2,1278.27Z"/><rect class="cls-131" x="1422.74" y="1281.9" width="35.02" height="7.14"/><ellipse class="cls-88" cx="1513.02" cy="1132.43" rx="6.8" ry="9.5"/><path class="cls-125" d="M1513,1144.23c-4.67,0-8.46-5.29-8.46-11.8s3.79-11.8,8.46-11.8,8.45,5.29,8.45,11.8S1517.67,1144.23,1513,1144.23Zm0-19c-2.85,0-5.16,3.23-5.16,7.2s2.31,7.2,5.16,7.2,5.15-3.23,5.15-7.2S1515.86,1125.23,1513,1125.23Z"/><rect class="cls-131" x="1524.56" y="1128.86" width="35.02" height="7.14"/><path class="cls-88" d="M1441.53,1095.82c0,5.25-3,9.5-6.81,9.5s-6.8-4.25-6.8-9.5,3-9.49,6.8-9.49S1441.53,1090.58,1441.53,1095.82Z"/><path class="cls-124" d="M1434.73,1107.62c-4.67,0-8.46-5.29-8.46-11.8s3.79-11.8,8.46-11.8,8.44,5.3,8.44,11.8S1439.38,1107.62,1434.73,1107.62Zm0-19c-2.85,0-5.16,3.22-5.16,7.19s2.31,7.2,5.16,7.2,5.15-3.23,5.15-7.2S1437.57,1088.63,1434.73,1088.63Z"/><rect class="cls-131" x="1446.27" y="1092.26" width="35.02" height="7.14"/><ellipse class="cls-88" cx="1414.84" cy="1135.36" rx="6.8" ry="9.5"/><path class="cls-124" d="M1414.84,1147.16c-4.66,0-8.45-5.3-8.45-11.8s3.79-11.8,8.45-11.8,8.45,5.29,8.45,11.8S1419.5,1147.16,1414.84,1147.16Zm0-19c-2.84,0-5.15,3.23-5.15,7.2s2.31,7.19,5.15,7.19,5.16-3.22,5.16-7.19S1417.69,1128.16,1414.84,1128.16Z"/><rect class="cls-131" x="1426.38" y="1131.79" width="35.02" height="7.14"/><ellipse class="cls-88" cx="1392.76" cy="1166.37" rx="6.8" ry="9.5"/><path class="cls-124" d="M1392.76,1178.17c-4.66,0-8.45-5.29-8.45-11.8s3.79-11.8,8.45-11.8,8.45,5.29,8.45,11.8S1397.42,1178.17,1392.76,1178.17Zm0-19c-2.84,0-5.15,3.23-5.15,7.2s2.31,7.2,5.15,7.2,5.16-3.23,5.16-7.2S1395.61,1159.17,1392.76,1159.17Z"/><rect class="cls-131" x="1404.31" y="1162.8" width="35.02" height="7.14"/><ellipse class="cls-88" cx="1367.77" cy="1204.19" rx="6.8" ry="9.5"/><path class="cls-124" d="M1367.77,1216c-4.66,0-8.45-5.29-8.45-11.79s3.79-11.81,8.45-11.81,8.45,5.3,8.45,11.81S1372.43,1216,1367.77,1216Zm0-19c-2.84,0-5.16,3.23-5.16,7.2s2.32,7.19,5.16,7.19,5.15-3.23,5.15-7.19S1370.61,1197,1367.77,1197Z"/><rect class="cls-131" x="1379.31" y="1200.63" width="35.02" height="7.14"/><path class="cls-88" d="M1347.89,1250.24c0,5.24-3.05,9.5-6.8,9.5s-6.81-4.26-6.81-9.5,3-9.5,6.81-9.5S1347.89,1245,1347.89,1250.24Z"/><path class="cls-124" d="M1341.08,1262c-4.65,0-8.45-5.29-8.45-11.8s3.8-11.8,8.45-11.8,8.46,5.29,8.46,11.8S1345.75,1262,1341.08,1262Zm0-19c-2.84,0-5.15,3.23-5.15,7.2s2.31,7.19,5.15,7.19,5.16-3.22,5.16-7.19S1343.93,1243,1341.08,1243Z"/><rect class="cls-131" x="1352.63" y="1246.67" width="35.02" height="7.14"/><ellipse class="cls-88" cx="1323.45" cy="1587.89" rx="6.8" ry="9.5"/><path class="cls-124" d="M1323.45,1599.68c-4.66,0-8.45-5.29-8.45-11.8s3.79-11.79,8.45-11.79,8.45,5.29,8.45,11.79S1328.11,1599.68,1323.45,1599.68Zm0-19c-2.84,0-5.15,3.23-5.15,7.19s2.31,7.21,5.15,7.21,5.15-3.24,5.15-7.21S1326.29,1580.69,1323.45,1580.69Z"/><rect class="cls-131" x="1334.99" y="1584.32" width="35.02" height="7.14"/><ellipse class="cls-88" cx="1321.2" cy="1673.07" rx="6.8" ry="9.5"/><path class="cls-124" d="M1321.2,1684.87c-4.66,0-8.45-5.29-8.45-11.8s3.79-11.8,8.45-11.8,8.45,5.29,8.45,11.8S1325.86,1684.87,1321.2,1684.87Zm0-19c-2.84,0-5.15,3.23-5.15,7.2s2.31,7.2,5.15,7.2,5.16-3.23,5.16-7.2S1324.05,1665.87,1321.2,1665.87Z"/><rect class="cls-131" x="1332.74" y="1669.5" width="35.02" height="7.14"/><ellipse class="cls-88" cx="1324.71" cy="1864.54" rx="6.8" ry="9.5"/><path class="cls-124" d="M1324.71,1876.34c-4.66,0-8.45-5.29-8.45-11.8s3.79-11.8,8.45-11.8,8.45,5.29,8.45,11.8S1329.37,1876.34,1324.71,1876.34Zm0-19c-2.84,0-5.15,3.23-5.15,7.2s2.31,7.2,5.15,7.2,5.15-3.23,5.15-7.2S1327.55,1857.34,1324.71,1857.34Z"/><rect class="cls-131" x="1336.25" y="1860.97" width="35.02" height="7.14"/><ellipse class="cls-88" cx="1193.53" cy="1816.72" rx="6.8" ry="9.5"/><path class="cls-127" d="M1193.53,1828.52c-4.66,0-8.45-5.29-8.45-11.8s3.79-11.79,8.45-11.79,8.45,5.29,8.45,11.79S1198.19,1828.52,1193.53,1828.52Zm0-19c-2.84,0-5.15,3.24-5.15,7.2s2.31,7.2,5.15,7.2,5.15-3.23,5.15-7.2S1196.37,1809.52,1193.53,1809.52Z"/><rect class="cls-131" x="1205.07" y="1813.15" width="35.02" height="7.14"/><path class="cls-88" d="M1229.38,1764.65c0,5.25-3,9.5-6.8,9.5s-6.8-4.25-6.8-9.5,3-9.5,6.8-9.5S1229.38,1759.41,1229.38,1764.65Z"/><path class="cls-127" d="M1222.58,1776.45c-4.66,0-8.45-5.29-8.45-11.8s3.79-11.8,8.45-11.8,8.45,5.29,8.45,11.8S1227.24,1776.45,1222.58,1776.45Zm0-19c-2.84,0-5.15,3.23-5.15,7.2s2.31,7.21,5.15,7.21,5.15-3.24,5.15-7.21S1225.42,1757.45,1222.58,1757.45Z"/><rect class="cls-131" x="1234.12" y="1761.08" width="35.02" height="7.14"/><ellipse class="cls-88" cx="1252.66" cy="1715.17" rx="6.8" ry="9.5"/><path class="cls-127" d="M1252.66,1727c-4.66,0-8.45-5.29-8.45-11.8s3.79-11.8,8.45-11.8,8.45,5.29,8.45,11.8S1257.32,1727,1252.66,1727Zm0-19c-2.85,0-5.16,3.23-5.16,7.2s2.31,7.2,5.16,7.2,5.15-3.23,5.15-7.2S1255.5,1708,1252.66,1708Z"/><rect class="cls-131" x="1264.2" y="1711.6" width="35.02" height="7.14"/><ellipse class="cls-88" cx="1287.68" cy="1652.09" rx="6.8" ry="9.5"/><path class="cls-127" d="M1287.68,1663.88c-4.66,0-8.45-5.29-8.45-11.79s3.79-11.8,8.45-11.8,8.45,5.29,8.45,11.8S1292.34,1663.88,1287.68,1663.88Zm0-19c-2.84,0-5.15,3.23-5.15,7.2s2.31,7.19,5.15,7.19,5.16-3.23,5.16-7.19S1290.52,1644.89,1287.68,1644.89Z"/><rect class="cls-131" x="1299.22" y="1648.52" width="35.02" height="7.14"/><ellipse class="cls-88" cx="1402.86" cy="1448.98" rx="6.8" ry="9.5"/><path class="cls-127" d="M1402.86,1460.78c-4.66,0-8.45-5.3-8.45-11.8s3.79-11.8,8.45-11.8,8.45,5.29,8.45,11.8S1407.52,1460.78,1402.86,1460.78Zm0-19c-2.84,0-5.15,3.23-5.15,7.2s2.31,7.19,5.15,7.19,5.16-3.23,5.16-7.19S1405.71,1441.78,1402.86,1441.78Z"/><rect class="cls-131" x="1414.4" y="1445.41" width="35.02" height="7.14"/><path class="cls-88" d="M1412.65,1370.16c0,5.25-3.05,9.5-6.81,9.5s-6.8-4.25-6.8-9.5,3-9.5,6.8-9.5S1412.65,1364.91,1412.65,1370.16Z"/><path class="cls-127" d="M1405.84,1382c-4.66,0-8.45-5.29-8.45-11.8s3.79-11.8,8.45-11.8,8.46,5.29,8.46,11.8S1410.51,1382,1405.84,1382Zm0-19c-2.84,0-5.15,3.23-5.15,7.2s2.31,7.2,5.15,7.2,5.16-3.23,5.16-7.2S1408.69,1363,1405.84,1363Z"/><rect class="cls-131" x="1417.38" y="1366.59" width="35.02" height="7.14"/><path class="cls-88" d="M1549.06,1197.38c0,5.25-3,9.5-6.8,9.5s-6.81-4.25-6.81-9.5,3-9.5,6.81-9.5S1549.06,1192.13,1549.06,1197.38Z"/><path class="cls-127" d="M1542.26,1209.18c-4.66,0-8.45-5.29-8.45-11.8s3.79-11.8,8.45-11.8,8.45,5.29,8.45,11.8S1546.92,1209.18,1542.26,1209.18Zm0-19c-2.85,0-5.16,3.23-5.16,7.2s2.31,7.2,5.16,7.2,5.15-3.23,5.15-7.2S1545.1,1190.18,1542.26,1190.18Z"/><rect class="cls-131" x="1553.8" y="1193.81" width="35.02" height="7.14"/><ellipse class="cls-88" cx="1452.41" cy="1648.52" rx="6.8" ry="9.5"/><path class="cls-129" d="M1452.41,1660.32c-4.66,0-8.45-5.29-8.45-11.8s3.79-11.8,8.45-11.8,8.45,5.29,8.45,11.8S1457.07,1660.32,1452.41,1660.32Zm0-19c-2.84,0-5.15,3.24-5.15,7.21s2.31,7.2,5.15,7.2,5.15-3.23,5.15-7.2S1455.25,1641.31,1452.41,1641.31Z"/><rect class="cls-131" x="1463.95" y="1644.95" width="35.02" height="7.14"/><ellipse class="cls-88" cx="1488.89" cy="1813.15" rx="6.8" ry="9.5"/><path class="cls-129" d="M1488.89,1825c-4.66,0-8.45-5.29-8.45-11.79s3.79-11.8,8.45-11.8,8.45,5.29,8.45,11.8S1493.55,1825,1488.89,1825Zm0-19c-2.84,0-5.15,3.24-5.15,7.21s2.31,7.19,5.15,7.19,5.15-3.23,5.15-7.19S1491.73,1806,1488.89,1806Z"/><rect class="cls-131" x="1500.43" y="1809.59" width="35.02" height="7.14"/><ellipse class="cls-88" cx="1482.01" cy="1774.15" rx="6.8" ry="9.5"/><path class="cls-129" d="M1482,1785.94c-4.67,0-8.46-5.28-8.46-11.79s3.79-11.79,8.46-11.79,8.45,5.28,8.45,11.79S1486.67,1785.94,1482,1785.94Zm0-19c-2.85,0-5.16,3.23-5.16,7.2s2.31,7.2,5.16,7.2,5.15-3.23,5.15-7.2S1484.85,1767,1482,1767Z"/><rect class="cls-131" x="1493.55" y="1770.58" width="35.02" height="7.14"/><ellipse class="cls-88" cx="1468.93" cy="1711.6" rx="6.8" ry="9.5"/><path class="cls-129" d="M1468.93,1723.4c-4.66,0-8.45-5.29-8.45-11.8s3.79-11.8,8.45-11.8,8.45,5.29,8.45,11.8S1473.59,1723.4,1468.93,1723.4Zm0-19c-2.85,0-5.16,3.23-5.16,7.2s2.31,7.2,5.16,7.2,5.15-3.23,5.15-7.2S1471.77,1704.4,1468.93,1704.4Z"/><rect class="cls-131" x="1480.47" y="1708.03" width="35.02" height="7.14"/><ellipse class="cls-88" cx="1508.69" cy="1902.86" rx="6.8" ry="9.5"/><path class="cls-129" d="M1508.69,1914.65c-4.66,0-8.45-5.29-8.45-11.79s3.79-11.8,8.45-11.8,8.45,5.29,8.45,11.8S1513.35,1914.65,1508.69,1914.65Zm0-19c-2.84,0-5.15,3.23-5.15,7.2s2.31,7.2,5.15,7.2,5.15-3.23,5.15-7.2S1511.53,1895.66,1508.69,1895.66Z"/><rect class="cls-131" x="1520.23" y="1899.29" width="35.02" height="7.14"/><ellipse class="cls-88" cx="1251.83" cy="1357.09" rx="6.8" ry="9.5"/><path class="cls-126" d="M1251.83,1368.32c-4.44,0-8-5-8-11.23s3.6-11.22,8-11.22,8,5,8,11.22S1256.26,1368.32,1251.83,1368.32Zm0-19c-3.07,0-5.57,3.49-5.57,7.77s2.5,7.77,5.57,7.77,5.56-3.48,5.56-7.77S1254.89,1349.32,1251.83,1349.32Z"/><rect class="cls-131" x="1263.37" y="1353.52" width="35.02" height="7.14"/><path class="cls-88" d="M1482.61,1617.63c0,5.25-3,9.5-6.8,9.5s-6.8-4.25-6.8-9.5,3-9.49,6.8-9.49S1482.61,1612.39,1482.61,1617.63Z"/><path class="cls-126" d="M1475.81,1628.86c-4.43,0-8-5-8-11.22s3.61-11.23,8-11.23,8,5,8,11.23S1480.24,1628.86,1475.81,1628.86Zm0-19c-3.07,0-5.57,3.49-5.57,7.78s2.5,7.77,5.57,7.77,5.57-3.49,5.57-7.77S1478.88,1609.86,1475.81,1609.86Z"/><rect class="cls-131" x="1487.35" y="1614.07" width="35.02" height="7.14"/><path class="cls-88" d="M1475.81,1576c0,5.25-3,9.5-6.8,9.5s-6.81-4.25-6.81-9.5,3-9.5,6.81-9.5S1475.81,1570.75,1475.81,1576Z"/><path class="cls-126" d="M1469,1587.22c-4.43,0-8-5-8-11.22s3.61-11.22,8-11.22,8,5,8,11.22S1473.44,1587.22,1469,1587.22Zm0-19c-3.07,0-5.57,3.49-5.57,7.77s2.5,7.77,5.57,7.77,5.56-3.49,5.56-7.77S1472.08,1568.23,1469,1568.23Z"/><rect class="cls-131" x="1480.55" y="1572.43" width="35.02" height="7.14"/><ellipse class="cls-88" cx="1454.48" cy="1535.1" rx="6.8" ry="9.5"/><path class="cls-126" d="M1454.48,1546.33c-4.44,0-8-5-8-11.23s3.6-11.22,8-11.22,8,5,8,11.22S1458.91,1546.33,1454.48,1546.33Zm0-19c-3.07,0-5.57,3.49-5.57,7.77s2.5,7.78,5.57,7.78,5.56-3.49,5.56-7.78S1457.55,1527.33,1454.48,1527.33Z"/><rect class="cls-131" x="1466.02" y="1531.54" width="35.02" height="7.14"/><ellipse class="cls-88" cx="1529.18" cy="1855.19" rx="6.8" ry="9.5"/><path class="cls-126" d="M1529.18,1866.41c-4.43,0-8-5-8-11.22s3.61-11.23,8-11.23,8,5,8,11.23S1533.61,1866.41,1529.18,1866.41Zm0-19c-3.07,0-5.57,3.49-5.57,7.78s2.5,7.77,5.57,7.77,5.56-3.48,5.56-7.77S1532.25,1847.41,1529.18,1847.41Z"/><rect class="cls-131" x="1540.72" y="1851.62" width="35.02" height="7.14"/><ellipse class="cls-88" cx="1122.76" cy="1076.83" rx="6.8" ry="9.5"/><path class="cls-126" d="M1122.76,1088.05c-4.43,0-8-5-8-11.22s3.6-11.23,8-11.23,8,5,8,11.23S1127.19,1088.05,1122.76,1088.05Zm0-19c-3.07,0-5.56,3.49-5.56,7.78s2.49,7.77,5.56,7.77,5.57-3.49,5.57-7.77S1125.83,1069.05,1122.76,1069.05Z"/><rect class="cls-131" x="1134.3" y="1073.26" width="35.02" height="7.14"/><ellipse class="cls-88" cx="1294.64" cy="1122.93" rx="6.8" ry="9.5"/><path class="cls-130" d="M1294.64,1134.73c-4.66,0-8.45-5.29-8.45-11.8s3.79-11.8,8.45-11.8,8.45,5.3,8.45,11.8S1299.3,1134.73,1294.64,1134.73Zm0-19c-2.84,0-5.16,3.22-5.16,7.19s2.32,7.2,5.16,7.2,5.15-3.23,5.15-7.2S1297.48,1115.74,1294.64,1115.74Z"/><rect class="cls-131" x="1306.18" y="1119.36" width="35.02" height="7.14"/><path class="cls-88" d="M1304.83,1299.37c0,5.24-3,9.5-6.81,9.5s-6.8-4.26-6.8-9.5,3-9.5,6.8-9.5S1304.83,1294.12,1304.83,1299.37Z"/><path class="cls-130" d="M1298,1311.17c-4.67,0-8.46-5.3-8.46-11.8s3.79-11.8,8.46-11.8,8.45,5.29,8.45,11.8S1302.68,1311.17,1298,1311.17Zm0-19c-2.85,0-5.16,3.23-5.16,7.2s2.31,7.19,5.16,7.19,5.15-3.22,5.15-7.19S1300.87,1292.17,1298,1292.17Z"/><rect class="cls-131" x="1309.57" y="1295.8" width="35.02" height="7.14"/><polygon class="cls-41" points="1076.06 1062.42 1083.7 1073.26 1637.9 1060.59 1638.45 1040.79 1076.06 1062.42"/><polygon class="cls-132" points="1797.33 302.81 1753.52 310.55 1692.86 306.62 1685.94 296.19 1709.44 276.73 1797.33 302.81"/><polygon class="cls-37" points="1751.79 388.89 1754.56 304.8 1735.07 302.81 1736.43 388.69 1751.79 388.89"/><polygon class="cls-132" points="1735.05 301.5 1727.43 309.79 1728.63 388.59 1736.43 388.69 1735.05 301.5"/><polygon class="cls-37" points="1797.33 302.81 1803.67 292.46 1709.44 276.73 1712.82 285.98 1797.33 302.81"/><polygon class="cls-132" points="1256.3 256.68 1196.46 267.25 1113.6 261.88 1104.14 247.64 1136.25 221.05 1256.3 256.68"/><polygon class="cls-37" points="1256.3 256.68 1264.96 242.53 1136.25 221.05 1140.86 233.68 1256.3 256.68"/><polygon class="cls-132" points="1108.17 382.51 1119.26 385.63 1298.5 691.85 1771.39 715.22 1118.88 716.67 1108.17 382.51"/><polygon class="cls-37" points="1801.08 384.96 1793.23 710.52 1144.97 710.25 1134.26 376.09 1801.08 384.96"/><polygon class="cls-37" points="1134.26 376.09 1119.01 382.14 1131.66 716.28 1144.97 710.25 1134.26 376.09"/><polygon class="cls-37" points="1108.17 382.51 1094.52 387.93 1108.72 722.71 1118.88 716.67 1108.17 382.51"/><polygon class="cls-133" points="1651.15 382.97 1563.41 708.09 1289.2 708.09 1319.43 378.55 1651.15 382.97"/><polygon class="cls-26" points="1785.23 698.68 1152.09 698.4 1142.29 387.93 1788.14 394 1785.23 698.68"/><polygon class="cls-37" points="1197.56 382.51 1192.2 253.66 1171.55 251.95 1178.86 382.26 1197.56 382.51"/><polygon class="cls-132" points="1171.35 249.66 1159.17 259.74 1166.25 382.1 1178.86 382.26 1171.35 249.66"/><polygon class="cls-132" points="1793.23 710.52 1771.39 715.22 1131.66 716.28 1144.97 710.25 1793.23 710.52"/><polygon class="cls-132" points="1108.72 722.71 1750.59 719.92 1763.73 715.28 1118.88 716.67 1108.72 722.71"/><text class="cls-134" transform="translate(1247.1 578.88) scale(0.87 1)"><tspan class="cls-135">Z</tspan><tspan x="45.66" y="0">u den Gleisen</tspan></text><polygon class="cls-13" points="398.57 279.51 713.17 264.08 1098.54 354.73 1098.54 376.95 931.41 387.35 398.57 305.96 398.57 279.51"/><polygon class="cls-136" points="398.57 305.96 715.93 296.61 1098.54 376.95 931.41 387.35 398.57 305.96"/><polygon class="cls-13" points="398.57 279.51 398.57 305.96 715.93 296.61 713.17 264.08 398.57 279.51"/><polygon class="cls-13" points="1723.04 187.04 2037.64 171.61 2373.28 262.26 2373.28 284.48 2206.16 294.88 1723.04 213.49 1723.04 187.04"/><polygon class="cls-136" points="1723.04 213.49 2040.41 204.14 2373.28 284.48 2206.16 294.88 1723.04 213.49"/><polygon class="cls-13" points="1723.04 187.04 1723.04 213.49 2040.41 204.14 2037.64 171.61 1723.04 187.04"/><polygon class="cls-13" points="3137.01 78.87 3451.61 63.44 3732.01 161.8 3732.01 184.02 3509.63 194.42 3137.01 105.32 3137.01 78.87"/><polygon class="cls-136" points="3137.01 105.32 3454.38 95.97 3732.01 184.02 3509.63 194.42 3137.01 105.32"/><polygon class="cls-13" points="3137.01 78.87 3137.01 105.32 3454.38 95.97 3451.61 63.44 3137.01 78.87"/></g><path class="cls-137" d="M3116,1233.83l-87.24-202.3H2747.49l162.09,375.87c34.33,79.6,108.37,105.28,165.37,57.34S3150.34,1313.43,3116,1233.83Z"/><path class="cls-138" d="M3012.93,1153.76H2594.67v336.48h418.26c66.55,0,120.49-75.32,120.49-168.24h0C3133.42,1229.08,3079.48,1153.76,3012.93,1153.76Z"/><ellipse class="cls-139" cx="3016.15" cy="1321.5" rx="96.53" ry="134.79"/><path class="cls-140" d="M2871,1302.43v17.47c0,50-10.43,87.34-33.71,120.34-23.28,32.51-52.82,50-85.49,50-68.11,0-119.19-71.82-119.19-167.41,0-96.57,50.74-168.87,118.84-168.87,37.54,0,71.25,22.32,93.83,62.11l-35.79,39.31c-17-28.14-34.06-40.27-57-40.27-40.66,0-71.59,46.58-71.59,107.72,0,60.17,32,107.24,72.63,107.24,19.81,0,39.62-12.13,51.78-32.51,6.95-11.16,10.42-21.36,14.25-40.76H2755v-54.35Z"/><path class="cls-140" d="M3103.88,1208.29c19.81,31.06,29.54,68.42,29.54,115.49,0,92.19-52.82,166.44-118.5,166.44-67.76,0-120.93-73.27-120.93-166.44,0-96.08,52.82-169.84,121.62-169.84C3049.67,1153.94,3080.94,1173.35,3103.88,1208.29Zm-161.24,114.52c0,60.17,30.92,106.27,71.24,106.27,40,0,71.24-46.1,71.24-104.81,0-62.6-29.89-108.7-70.9-108.7S2942.64,1261.18,2942.64,1322.81Z"/><text class="cls-141" transform="translate(2538.7 1732.52) scale(0.72 1)">ist endli<tspan class="cls-142" x="487.81" y="0">c</tspan><tspan class="cls-143" x="554.16" y="0">h </tspan><tspan class="cls-144" x="674.36" y="0">d</tspan><tspan class="cls-145" x="759.16" y="0">a!</tspan></text><text class="cls-146" transform="translate(2760.46 1853.8) scale(0.72 1)"><tspan class="cls-147">e</tspan><tspan x="31.18" y="0">x</tspan><tspan class="cls-148" x="57.72" y="0">k</tspan><tspan x="83.85" y="0">lus</tspan><tspan class="cls-149" x="150.79" y="0">i</tspan><tspan x="164.24" y="0">v bei</tspan><tspan class="cls-150" x="287.78" y="0"> </tspan></text><path class="cls-137" d="M4781.73,1666l-71.47-161.89H4479.82l132.79,300.8c28.12,63.7,88.78,84.24,135.48,45.88S4809.85,1729.72,4781.73,1666Z"/><path class="cls-138" d="M4697.28,1602H4354.64v269.27h342.64c54.51,0,98.7-60.28,98.7-134.64h0C4796,1662.22,4751.79,1602,4697.28,1602Z"/><ellipse class="cls-139" cx="4699.91" cy="1736.18" rx="79.08" ry="107.87"/><path class="cls-140" d="M4581,1720.92v14c0,40-8.54,69.89-27.61,96.3-19.07,26-43.27,40-70,40-55.8,0-97.65-57.47-97.65-134,0-77.28,41.57-135.14,97.36-135.14,30.75,0,58.36,17.87,76.86,49.71l-29.32,31.45c-13.95-22.52-27.89-32.23-46.68-32.23-33.31,0-58.65,37.28-58.65,86.21,0,48.15,26.19,85.82,59.5,85.82,16.23,0,32.46-9.71,42.42-26,5.69-8.93,8.54-17.09,11.67-32.62h-53v-43.49Z"/><path class="cls-140" d="M4771.78,1645.59c16.23,24.85,24.2,54.75,24.2,92.42,0,73.77-43.27,133.19-97.07,133.19-55.52,0-99.07-58.64-99.07-133.19,0-76.89,43.27-135.92,99.63-135.92C4727.38,1602.09,4753,1617.63,4771.78,1645.59Zm-132.09,91.64c0,48.15,25.34,85,58.36,85,32.74,0,58.36-36.89,58.36-83.87,0-50.1-24.48-87-58.08-87S4639.69,1687.91,4639.69,1737.23Z"/><text class="cls-151" transform="translate(4359.32 2122.31) scale(0.73 1)">ist endli<tspan class="cls-152" x="390.37" y="0">c</tspan><tspan class="cls-153" x="443.47" y="0">h </tspan><tspan class="cls-154" x="539.66" y="0">d</tspan><tspan x="607.52" y="0">a!</tspan></text><text class="cls-155" transform="translate(4515.02 2239.57) scale(0.73 1)"><tspan class="cls-156">e</tspan><tspan class="cls-157" x="24.95" y="0">x</tspan><tspan class="cls-158" x="46.19" y="0">k</tspan><tspan x="67.1" y="0">lus</tspan><tspan class="cls-159" x="120.67" y="0">i</tspan><tspan x="131.43" y="0">v bei</tspan><tspan class="cls-160" x="230.3" y="0"> </tspan></text><rect class="cls-40" x="873.5" y="1492.8" width="141.98" height="1133.93" rx="53.2"/><ellipse class="cls-161" cx="880.11" cy="2068.65" rx="25.18" ry="521.05"/><ellipse class="cls-161" cx="1008.86" cy="2064.83" rx="25.18" ry="526.67"/><path class="cls-162" d="M839.59,2641.44c0-32.25,47.44-58.4,106-58.4s106,26.15,106,58.4"/><rect class="cls-163" x="936.29" y="1490.71" width="13.75" height="37.04" rx="0.48"/><rect class="cls-40" x="294.43" y="1532.84" width="141.98" height="1154.28" rx="57.62"/><ellipse class="cls-161" cx="301.04" cy="2119.01" rx="25.18" ry="530.4"/><ellipse class="cls-161" cx="429.78" cy="2115.13" rx="25.18" ry="536.12"/><path class="cls-162" d="M260.52,2702.09c0-32.84,47.44-59.46,106-59.46s106,26.62,106,59.46"/><rect class="cls-163" x="357.21" y="1530.71" width="13.75" height="37.7" rx="0.48"/><use transform="translate(4650.56 2289.89) scale(0.27 0.37)" xlink:href="#image"/><use transform="translate(2933.2 1920.11) scale(0.33 0.46)" xlink:href="#image"/></g></g></svg>