<svg id="Ebene_1" data-name="Ebene 1" xmlns="http://www.w3.org/2000/svg" viewBox="0 0 1226 312"><defs><style>.cls-1{fill:#c1e1d3;}.cls-2{fill:#1d1d1b;}</style></defs><rect class="cls-1" x="16" y="40" width="1124" height="229" rx="114.5"/><path class="cls-2" d="M89.92,74.12h8.85c10,0,16.1,6.1,16.1,16.15,0,5.65-1.85,10.3-5.25,13.35-2.9,2.6-6.75,3.85-11.6,3.85h-8.1Zm4.2,29.75h1.5c5.65,0,8-.6,10.45-2.5,3-2.4,4.5-6.1,4.5-11.05,0-8-4.3-12.65-11.95-12.65h-4.5Z"/><path class="cls-2" d="M138.47,84.42h3.8v23h-3.8V103c-2.3,3.45-4.9,5-8.4,5-6.35,0-10.85-5-10.85-12s4.6-12.15,10.95-12.15a9.64,9.64,0,0,1,8.3,4.35ZM125.12,90a10.52,10.52,0,0,0-1.9,6.1c0,4.9,3.2,8.6,7.4,8.6,4.35,0,7.9-4,7.9-9s-3.2-8.45-7.8-8.45A6.28,6.28,0,0,0,125.12,90Z"/><path class="cls-2" d="M160.52,90.72v-.25c0-2.15-1.75-3.5-4.4-3.5s-4.15,1.3-4.15,3.3,1,2.75,5.15,3.9c2.95.8,4.5,1.55,5.6,2.65a6.44,6.44,0,0,1,1.85,4.5c0,4-3.3,6.7-8.2,6.7-5.25,0-8.2-2.45-8.6-7.1h3.75c.25,2.6,1.95,4,4.85,4,2.6,0,4.3-1.35,4.3-3.4s-1.3-3-5.25-4c-5-1.35-7.25-3.45-7.25-7,0-4,3.25-6.7,8.1-6.7s7.85,2.5,8,6.85Z"/><path class="cls-2" d="M194.82,107.47h-4.2V77.72h-8.51v-3.6h21.16v3.6h-8.45Z"/><path class="cls-2" d="M226.77,96A11.77,11.77,0,0,1,215,108c-6.85,0-11.66-5-11.66-12.1s4.81-12,11.81-12C221.92,83.87,226.77,88.92,226.77,96Zm-19.55,0c0,5.1,3.15,8.55,7.85,8.55s7.8-3.55,7.8-8.55c0-5.15-3.1-8.6-7.75-8.6S207.22,90.82,207.22,96Z"/><path class="cls-2" d="M236.36,107.47h-3.8V74.12h3.8v20.4l9.21-10.1h4.8L240.06,95.67l10.26,11.8h-4.75l-9.21-10.3Z"/><path class="cls-2" d="M255.71,97.17a7.19,7.19,0,0,0,1.5,4.2,7.5,7.5,0,0,0,6.2,3.15,8,8,0,0,0,6.9-4l3.36,1.25a11.3,11.3,0,0,1-10.26,6.2c-6.85,0-11.75-5-11.75-12s4.85-12.15,11.6-12.15A11.46,11.46,0,0,1,275,95.67c0,.3,0,1-.05,1.5Zm15.21-2.8a7.14,7.14,0,0,0-1.3-4,7.93,7.93,0,0,0-6.36-3.15,7.41,7.41,0,0,0-6.2,3.2,9.15,9.15,0,0,0-1.3,3.9Z"/><path class="cls-2" d="M284.26,84.42v3.25c2-2.7,4-3.8,6.85-3.8a8,8,0,0,1,5.35,1.9c1.45,1.4,2,3,2,6.15v15.55h-3.8V92.77c0-2-.25-3.15-.85-4a4.44,4.44,0,0,0-3.6-1.55,5.74,5.74,0,0,0-4.4,2,5.44,5.44,0,0,0-1.5,4.2v14h-3.8v-23Z"/><path class="cls-2" d="M325.26,78a2.41,2.41,0,0,1-2.45,2.4,2.45,2.45,0,0,1,.05-4.9A2.42,2.42,0,0,1,325.26,78Zm-.55,29.5h-3.8v-23h3.8Z"/><path class="cls-2" d="M343,90.72v-.25c0-2.15-1.75-3.5-4.4-3.5s-4.15,1.3-4.15,3.3,1,2.75,5.15,3.9c2.95.8,4.5,1.55,5.6,2.65a6.44,6.44,0,0,1,1.85,4.5c0,4-3.3,6.7-8.2,6.7-5.25,0-8.2-2.45-8.6-7.1H334c.25,2.6,1.95,4,4.85,4,2.6,0,4.3-1.35,4.3-3.4s-1.3-3-5.25-4c-5-1.35-7.25-3.45-7.25-7,0-4,3.25-6.7,8.1-6.7s7.85,2.5,8.05,6.85Z"/><path class="cls-2" d="M357,102.77c.05,1.15.35,1.4,1.75,1.4h1.75v3.3h-3.55c-2.7,0-3.75-1-3.75-3.6V87.77H350V84.42h3.2V77.17H357v7.25h3.5v3.35H357Z"/><path class="cls-2" d="M384.66,84.42v3.2c1.75-2.65,3.7-3.75,6.55-3.75,3.15,0,5.15,1.35,6.2,4.2a7.54,7.54,0,0,1,7.3-4.2c2.65,0,4.65.85,5.85,2.45s1.4,2.75,1.4,6.4v14.75h-3.8V93.62c0-2.8-.1-3.45-.65-4.4a4.5,4.5,0,0,0-4-2c-3.35,0-5.2,2.25-5.2,6.35v13.85h-3.8V93.67c0-2.25-.2-3.4-.75-4.4a4,4,0,0,0-3.75-2c-3.35,0-5.35,2.4-5.35,6.4v13.8h-3.8v-23Z"/><path class="cls-2" d="M423.81,78a2.41,2.41,0,0,1-2.45,2.4,2.45,2.45,0,0,1,.05-4.9A2.42,2.42,0,0,1,423.81,78Zm-.55,29.5h-3.8v-23h3.8Z"/><path class="cls-2" d="M435,102.77c.05,1.15.35,1.4,1.75,1.4h1.75v3.3h-3.55c-2.7,0-3.75-1-3.75-3.6V87.77H428V84.42h3.2V77.17H435v7.25h3.5v3.35H435Z"/><path class="cls-2" d="M461.06,97.17a7.19,7.19,0,0,0,1.5,4.2,7.5,7.5,0,0,0,6.2,3.15,8,8,0,0,0,6.9-4l3.35,1.25a11.29,11.29,0,0,1-10.25,6.2c-6.85,0-11.75-5-11.75-12s4.85-12.15,11.6-12.15a11.46,11.46,0,0,1,11.7,11.8c0,.3,0,1-.05,1.5Zm15.2-2.8a7.14,7.14,0,0,0-1.3-4,7.91,7.91,0,0,0-6.35-3.15,7.41,7.41,0,0,0-6.2,3.2,9.15,9.15,0,0,0-1.3,3.9Z"/><path class="cls-2" d="M490.16,78a2.41,2.41,0,0,1-2.45,2.4,2.45,2.45,0,0,1,.05-4.9A2.42,2.42,0,0,1,490.16,78Zm-.55,29.5h-3.8v-23h3.8Z"/><path class="cls-2" d="M501.06,84.42v3.25c2-2.7,4-3.8,6.85-3.8a8,8,0,0,1,5.35,1.9c1.45,1.4,2,3,2,6.15v15.55h-3.8V92.77c0-2-.25-3.15-.85-4a4.44,4.44,0,0,0-3.6-1.55,5.74,5.74,0,0,0-4.4,2,5.44,5.44,0,0,0-1.5,4.2v14h-3.8v-23Z"/><path class="cls-2" d="M524.91,97.17a7.19,7.19,0,0,0,1.5,4.2,7.5,7.5,0,0,0,6.2,3.15,8,8,0,0,0,6.9-4l3.35,1.25a11.29,11.29,0,0,1-10.25,6.2c-6.85,0-11.75-5-11.75-12s4.85-12.15,11.6-12.15a11.46,11.46,0,0,1,11.7,11.8c0,.3,0,1,0,1.5Zm15.2-2.8a7.14,7.14,0,0,0-1.3-4,7.91,7.91,0,0,0-6.35-3.15,7.41,7.41,0,0,0-6.2,3.2,9.15,9.15,0,0,0-1.3,3.9Z"/><path class="cls-2" d="M553.46,84.42v3.2c1.75-2.65,3.7-3.75,6.55-3.75,3.15,0,5.15,1.35,6.2,4.2a7.54,7.54,0,0,1,7.3-4.2c2.65,0,4.65.85,5.85,2.45s1.4,2.75,1.4,6.4v14.75H577V93.62c0-2.8-.1-3.45-.65-4.4a4.5,4.5,0,0,0-4-2c-3.35,0-5.2,2.25-5.2,6.35v13.85h-3.8V93.67c0-2.25-.2-3.4-.75-4.4a4,4,0,0,0-3.75-2c-3.35,0-5.35,2.4-5.35,6.4v13.8h-3.8v-23Z"/><path class="cls-2" d="M607.8,107.47h-4.2V74.12h9.1c7.1,0,11.4,3.65,11.4,9.7a9.05,9.05,0,0,1-4.8,8.4c-1.6.85-3.1,1.2-6.15,1.4l13,13.85h-5.36l-13-14ZM612,90.62c5,0,7.8-2.3,7.8-6.5s-2.5-6.4-7.1-6.4h-4.9v12.9Z"/><path class="cls-2" d="M635.3,88.87h13v3.6h-13v15h-4.2V74.12h17.21v3.6h-13Z"/><path class="cls-2" d="M658.1,107.47h-4.2V74.12h4.2Z"/><path class="cls-2" d="M666.4,74.12h8.85c10.06,0,16.11,6.1,16.11,16.15,0,5.65-1.85,10.3-5.25,13.35-2.9,2.6-6.76,3.85-11.61,3.85h-8.1Zm4.2,29.75h1.5c5.65,0,8-.6,10.46-2.5,3-2.4,4.5-6.1,4.5-11.05,0-8-4.3-12.65-12-12.65h-4.5Z"/><path class="cls-2" d="M706.65,97.07H696.3V93.62h10.35Z"/><path class="cls-2" d="M739.75,102.42a15.92,15.92,0,0,1-23.65.75,18.86,18.86,0,0,1-4.45-12.35c0-10,6.75-17.3,16-17.3A16.31,16.31,0,0,1,736,75.77a17.46,17.46,0,0,1,3.9,3.45l-2.9,2.7c-3.25-3.35-5.7-4.55-9.25-4.55C720.9,77.37,716,83,716,90.82s5,13.4,11.95,13.4c3.65,0,6.45-1.45,9.05-4.6Z"/><path class="cls-2" d="M748.55,87.62c2.1-2.6,4.2-3.75,7-3.75a7.69,7.69,0,0,1,5.35,2.1c1.25,1.25,1.8,3,1.8,6v15.5h-3.8V92.17c0-3.15-1.55-4.9-4.3-4.9a5.87,5.87,0,0,0-4.5,2c-1.15,1.3-1.5,2.45-1.5,4.65v13.5h-3.8V74.12h3.8Z"/><path class="cls-2" d="M774.5,78a2.41,2.41,0,0,1-2.45,2.4,2.45,2.45,0,0,1,.05-4.9A2.42,2.42,0,0,1,774.5,78Zm-.55,29.5h-3.8v-23H774Z"/><path class="cls-2" d="M785.4,84.42v4.2c2.2-3.4,4.55-4.75,8.4-4.75,6.4,0,10.85,4.9,10.85,11.9,0,7.25-4.45,12.25-10.85,12.25a11,11,0,0,1-5-1.2,8.27,8.27,0,0,1-3.35-2.95v14.4h-3.8V84.42Zm0,11.9c0,5.05,3.05,8.4,7.6,8.4s7.6-3.55,7.6-8.8a8.94,8.94,0,0,0-2-6.25,7.45,7.45,0,0,0-5.45-2.4C788.55,87.27,785.4,90.92,785.4,96.32Z"/><path class="cls-2" d="M842.8,84.42h3.8v23h-3.8V103c-2.3,3.45-4.9,5-8.4,5-6.35,0-10.85-5-10.85-12s4.6-12.15,11-12.15a9.64,9.64,0,0,1,8.3,4.35ZM829.45,90a10.52,10.52,0,0,0-1.9,6.1c0,4.9,3.2,8.6,7.4,8.6s7.9-4,7.9-9-3.2-8.45-7.8-8.45A6.28,6.28,0,0,0,829.45,90Z"/><path class="cls-2" d="M871.5,84.42V99.17c0,3.15-.6,4.9-2.3,6.45a10.33,10.33,0,0,1-13.3-.05c-1.55-1.5-2.3-3.6-2.3-6.4V84.42h3.8V99.07c0,3.25,2.1,5.55,5.15,5.55a5.46,5.46,0,0,0,4.1-1.75c.75-.9,1-1.85,1-3.7V84.42Z"/><path class="cls-2" d="M889.15,90.72v-.25c0-2.15-1.75-3.5-4.4-3.5s-4.15,1.3-4.15,3.3,1,2.75,5.15,3.9c3,.8,4.5,1.55,5.6,2.65a6.44,6.44,0,0,1,1.85,4.5c0,4-3.3,6.7-8.2,6.7-5.25,0-8.2-2.45-8.6-7.1h3.75c.25,2.6,2,4,4.85,4,2.6,0,4.3-1.35,4.3-3.4s-1.3-3-5.25-4c-5-1.35-7.25-3.45-7.25-7,0-4,3.25-6.7,8.1-6.7s7.85,2.5,8.05,6.85Z"/><path class="cls-2" d="M916,84.42h3.8v23.2c0,3.85-1,6.45-3,8.45a11.87,11.87,0,0,1-8.5,3.05q-6.45,0-10.2-4.2l2.6-2.6a13.47,13.47,0,0,0,2.2,2,11.2,11.2,0,0,0,5.4,1.35,8.35,8.35,0,0,0,6-2.25,7.89,7.89,0,0,0,1.75-5.5v-4.85c-2.25,3.4-4.9,5-8.5,5-6.1,0-10.65-5.15-10.65-12a13.22,13.22,0,0,1,3.65-9.45,10.13,10.13,0,0,1,7.3-2.7c3.5,0,5.85,1.3,8.2,4.5ZM900.8,95.87c0,4.95,3.2,8.65,7.55,8.65a7.81,7.81,0,0,0,5.85-2.8,9.31,9.31,0,0,0,1.65-5.7c0-3-.45-4.6-1.8-6.1a7.83,7.83,0,0,0-5.6-2.55C904,87.37,900.8,90.87,900.8,95.87Z"/><path class="cls-2" d="M929.4,97.17a7.19,7.19,0,0,0,1.5,4.2,7.5,7.5,0,0,0,6.2,3.15,8,8,0,0,0,6.9-4l3.35,1.25A11.29,11.29,0,0,1,937.1,108c-6.85,0-11.75-5-11.75-12S930.2,83.87,937,83.87a11.46,11.46,0,0,1,11.7,11.8c0,.3,0,1,0,1.5Zm15.2-2.8a7.14,7.14,0,0,0-1.3-4A7.91,7.91,0,0,0,937,87.27a7.41,7.41,0,0,0-6.2,3.2,9.15,9.15,0,0,0-1.3,3.9Z"/><path class="cls-2" d="M964.7,90.72v-.25c0-2.15-1.75-3.5-4.4-3.5s-4.15,1.3-4.15,3.3,1,2.75,5.15,3.9c3,.8,4.5,1.55,5.6,2.65a6.44,6.44,0,0,1,1.85,4.5c0,4-3.3,6.7-8.2,6.7-5.25,0-8.2-2.45-8.6-7.1h3.75c.25,2.6,1.95,4,4.85,4,2.6,0,4.3-1.35,4.3-3.4s-1.3-3-5.25-4c-5-1.35-7.25-3.45-7.25-7,0-4,3.25-6.7,8.1-6.7s7.85,2.5,8,6.85Z"/><path class="cls-2" d="M978.65,102.77c.05,1.15.35,1.4,1.75,1.4h1.75v3.3H978.6c-2.7,0-3.75-1-3.75-3.6V87.77h-3.2V84.42h3.2V77.17h3.8v7.25h3.5v3.35h-3.5Z"/><path class="cls-2" d="M1004.5,84.42h3.8v23h-3.8V103c-2.3,3.45-4.9,5-8.4,5-6.35,0-10.85-5-10.85-12s4.6-12.15,11-12.15a9.64,9.64,0,0,1,8.3,4.35ZM991.15,90a10.52,10.52,0,0,0-1.9,6.1c0,4.9,3.2,8.6,7.4,8.6,4.35,0,7.9-4,7.9-9s-3.2-8.45-7.8-8.45A6.28,6.28,0,0,0,991.15,90Z"/><path class="cls-2" d="M1019.85,102.77c0,1.15.35,1.4,1.75,1.4h1.75v3.3h-3.55c-2.7,0-3.75-1-3.75-3.6V87.77h-3.2V84.42h3.2V77.17h3.8v7.25h3.5v3.35h-3.5Z"/><path class="cls-2" d="M1033.5,102.77c0,1.15.35,1.4,1.75,1.4H1037v3.3h-3.55c-2.7,0-3.75-1-3.75-3.6V87.77h-3.2V84.42h3.2V77.17h3.8v7.25h3.5v3.35h-3.5Z"/><path class="cls-2" d="M1044.15,97.17a7.19,7.19,0,0,0,1.5,4.2,7.5,7.5,0,0,0,6.2,3.15,8,8,0,0,0,6.9-4l3.35,1.25a11.29,11.29,0,0,1-10.25,6.2c-6.85,0-11.75-5-11.75-12s4.85-12.15,11.6-12.15a11.46,11.46,0,0,1,11.7,11.8c0,.3,0,1-.05,1.5Zm15.2-2.8a7.14,7.14,0,0,0-1.3-4,7.91,7.91,0,0,0-6.35-3.15,7.41,7.41,0,0,0-6.2,3.2,9.15,9.15,0,0,0-1.3,3.9Z"/><path class="cls-2" d="M1072.55,102.77c0,1.15.35,1.4,1.75,1.4h1.75v3.3h-3.55c-2.7,0-3.75-1-3.75-3.6V87.77h-3.2V84.42h3.2V77.17h3.8v7.25h3.5v3.35h-3.5Z"/><path class="cls-2" d="M1081.05,115.42l-2.75-.85,4.2-12.15,3.6,1.15Z"/><path class="cls-2" d="M106.82,134.12h3.8v33.35h-3.8v-3.95c-2.3,3.15-4.75,4.5-8.25,4.5-6.35,0-10.85-5-10.85-12s4.6-12.2,10.85-12.2a9.89,9.89,0,0,1,8.25,4Zm-15.1,22c0,5,3,8.6,7.4,8.6s7.7-3.7,7.7-8.7c0-5.2-3-8.75-7.45-8.75C94.82,147.27,91.72,150.87,91.72,156.12Z"/><path class="cls-2" d="M120.47,157.17a7.19,7.19,0,0,0,1.5,4.2,7.5,7.5,0,0,0,6.2,3.15,8,8,0,0,0,6.9-4l3.35,1.25a11.29,11.29,0,0,1-10.25,6.2c-6.85,0-11.75-5-11.75-12s4.85-12.15,11.6-12.15a11.46,11.46,0,0,1,11.7,11.8c0,.3,0,1-.05,1.5Zm15.2-2.8a7.14,7.14,0,0,0-1.3-4,7.91,7.91,0,0,0-6.35-3.15,7.41,7.41,0,0,0-6.2,3.2,9.15,9.15,0,0,0-1.3,3.9Z"/><path class="cls-2" d="M149,144.42v3.9a6.38,6.38,0,0,1,2.1-3,7.22,7.22,0,0,1,4.4-1.4h.9v3.85a8.51,8.51,0,0,0-1-.05,5.91,5.91,0,0,0-5,2.65c-1,1.45-1.35,2.8-1.35,5.45v11.7h-3.81V144.42Z"/><path class="cls-2" d="M179.91,144.42v3.2c1.75-2.65,3.7-3.75,6.55-3.75,3.15,0,5.15,1.35,6.2,4.2a7.55,7.55,0,0,1,7.31-4.2c2.65,0,4.65.85,5.85,2.45s1.4,2.75,1.4,6.4v14.75h-3.8V153.62c0-2.8-.1-3.45-.65-4.4a4.5,4.5,0,0,0-4-1.95c-3.35,0-5.21,2.25-5.21,6.35v13.85h-3.8v-13.8c0-2.25-.2-3.4-.75-4.4a4,4,0,0,0-3.75-2c-3.35,0-5.35,2.4-5.35,6.4v13.8h-3.8V144.42Z"/><path class="cls-2" d="M219.06,138a2.41,2.41,0,0,1-2.45,2.4,2.45,2.45,0,0,1,0-4.9A2.42,2.42,0,0,1,219.06,138Zm-.55,29.5h-3.8V144.42h3.8Z"/><path class="cls-2" d="M230.21,162.77c0,1.15.35,1.4,1.75,1.4h1.75v3.3h-3.55c-2.7-.05-3.75-1.05-3.75-3.6v-16.1h-3.2v-3.35h3.2v-7.25h3.8v7.25h3.5v3.35h-3.5Z"/><path class="cls-2" d="M271.36,134.12h3.8v33.35h-3.8v-3.95c-2.3,3.15-4.75,4.5-8.25,4.5-6.35,0-10.85-5-10.85-12s4.6-12.2,10.85-12.2a9.89,9.89,0,0,1,8.25,4Zm-15.1,22c0,5,3.05,8.6,7.4,8.6s7.7-3.7,7.7-8.7c0-5.2-3.05-8.75-7.45-8.75C259.36,147.27,256.26,150.87,256.26,156.12Z"/><path class="cls-2" d="M285,157.17a7.19,7.19,0,0,0,1.5,4.2,7.5,7.5,0,0,0,6.2,3.15,8,8,0,0,0,6.9-4l3.35,1.25a11.29,11.29,0,0,1-10.25,6.2c-6.85,0-11.75-5-11.75-12s4.85-12.15,11.6-12.15a11.46,11.46,0,0,1,11.7,11.8c0,.3,0,1-.05,1.5Zm15.2-2.8a7.14,7.14,0,0,0-1.3-4,7.91,7.91,0,0,0-6.35-3.15,7.41,7.41,0,0,0-6.2,3.2,9.15,9.15,0,0,0-1.3,3.9Z"/><path class="cls-2" d="M313.56,144.42v3.25c2-2.7,4-3.8,6.85-3.8a8,8,0,0,1,5.35,1.9c1.45,1.4,1.95,3,1.95,6.15v15.55h-3.8v-14.7c0-2.05-.25-3.15-.85-4a4.44,4.44,0,0,0-3.6-1.55,5.74,5.74,0,0,0-4.4,1.95,5.44,5.44,0,0,0-1.5,4.2v14.05h-3.8V144.42Z"/><path class="cls-2" d="M354.76,167.47h-4.2V134.12h4.2v15.35l12.95-15.35h5.05l-13.9,16.5,13.9,16.85h-5.35l-12.65-15.4Z"/><path class="cls-2" d="M397,156a11.77,11.77,0,0,1-11.8,12c-6.85,0-11.65-5-11.65-12.1s4.8-12,11.8-12C392.16,143.87,397,148.92,397,156ZM377.46,156c0,5.1,3.15,8.55,7.85,8.55s7.8-3.55,7.8-8.55c0-5.15-3.1-8.6-7.75-8.6S377.46,150.82,377.46,156Z"/><path class="cls-2" d="M406.61,144.42v3.25c2-2.7,4-3.8,6.85-3.8a8,8,0,0,1,5.35,1.9c1.45,1.4,1.95,3,1.95,6.15v15.55H417v-14.7c0-2.05-.25-3.15-.85-4a4.44,4.44,0,0,0-3.6-1.55,5.74,5.74,0,0,0-4.4,1.95,5.44,5.44,0,0,0-1.5,4.2v14.05h-3.8V144.42Z"/><path class="cls-2" d="M432.31,162.77c.05,1.15.35,1.4,1.75,1.4h1.75v3.3h-3.55c-2.7-.05-3.75-1.05-3.75-3.6v-16.1h-3.2v-3.35h3.2v-7.25h3.8v7.25h3.5v3.35h-3.5Z"/><path class="cls-2" d="M444.86,144.42v3.9a6.51,6.51,0,0,1,2.1-3,7.22,7.22,0,0,1,4.4-1.4h.9v3.85a8.51,8.51,0,0,0-1.05-.05,5.91,5.91,0,0,0-5,2.65c-1,1.45-1.35,2.8-1.35,5.45v11.7h-3.8V144.42Z"/><path class="cls-2" d="M477.71,156a11.77,11.77,0,0,1-11.8,12c-6.85,0-11.65-5-11.65-12.1s4.8-12,11.8-12C472.86,143.87,477.71,148.92,477.71,156ZM458.16,156c0,5.1,3.15,8.55,7.85,8.55s7.8-3.55,7.8-8.55c0-5.15-3.1-8.6-7.75-8.6S458.16,150.82,458.16,156Z"/><path class="cls-2" d="M483.51,167.47V134.12h3.8v33.35Z"/><path class="cls-2" d="M495,167.47V134.12h3.8v33.35Z"/><path class="cls-2" d="M510.21,144.42v4.2c2.2-3.4,4.55-4.75,8.4-4.75,6.4,0,10.85,4.9,10.85,11.9C529.46,163,525,168,518.61,168a11,11,0,0,1-5.05-1.2,8.27,8.27,0,0,1-3.35-2.95v14.4h-3.8V144.42Zm0,11.9c0,5.05,3.05,8.4,7.6,8.4s7.6-3.55,7.6-8.8a8.94,8.94,0,0,0-2-6.25,7.45,7.45,0,0,0-5.45-2.4C513.36,147.27,510.21,150.92,510.21,156.32Z"/><path class="cls-2" d="M552.46,144.42v14.75c0,3.15-.6,4.9-2.3,6.45a10.34,10.34,0,0,1-13.31-.05c-1.54-1.5-2.29-3.6-2.29-6.4V144.42h3.79v14.65c0,3.25,2.11,5.55,5.16,5.55a5.46,5.46,0,0,0,4.1-1.75c.75-.9,1-1.85,1-3.7V144.42Z"/><path class="cls-2" d="M563.25,144.42v3.25c2-2.7,4-3.8,6.85-3.8a8,8,0,0,1,5.36,1.9c1.45,1.4,1.95,3,1.95,6.15v15.55h-3.8v-14.7c0-2.05-.25-3.15-.85-4a4.44,4.44,0,0,0-3.6-1.55,5.76,5.76,0,0,0-4.41,1.95,5.44,5.44,0,0,0-1.5,4.2v14.05h-3.8V144.42Z"/><path class="cls-2" d="M588.7,167.47h-3.8V134.12h3.8v20.4l9.2-10.1h4.81L592.4,155.67l10.25,11.8H597.9l-9.2-10.3Z"/><path class="cls-2" d="M612.35,162.77c0,1.15.35,1.4,1.75,1.4h1.75v3.3H612.3c-2.7-.05-3.75-1.05-3.75-3.6v-16.1h-3.2v-3.35h3.2v-7.25h3.8v7.25h3.5v3.35h-3.5Z"/><path class="cls-2" d="M623,157.17a7.19,7.19,0,0,0,1.5,4.2,7.5,7.5,0,0,0,6.2,3.15,8,8,0,0,0,6.9-4l3.35,1.25A11.29,11.29,0,0,1,630.7,168c-6.85,0-11.75-5-11.75-12s4.85-12.15,11.6-12.15a11.46,11.46,0,0,1,11.7,11.8c0,.3,0,1,0,1.5Zm15.2-2.8a7.14,7.14,0,0,0-1.3-4,7.91,7.91,0,0,0-6.35-3.15,7.41,7.41,0,0,0-6.2,3.2,9.15,9.15,0,0,0-1.3,3.9Z"/><path class="cls-2" d="M651.55,144.42v3.25c2-2.7,4-3.8,6.85-3.8a8,8,0,0,1,5.35,1.9c1.45,1.4,2,3,2,6.15v15.55h-3.8v-14.7c0-2.05-.25-3.15-.85-4a4.44,4.44,0,0,0-3.6-1.55,5.74,5.74,0,0,0-4.4,1.95,5.44,5.44,0,0,0-1.5,4.2v14.05h-3.8V144.42Z"/><path class="cls-2" d="M705.45,144.42v14.75c0,3.15-.6,4.9-2.3,6.45a10.33,10.33,0,0,1-13.3-.05c-1.55-1.5-2.3-3.6-2.3-6.4V144.42h3.8v14.65c0,3.25,2.1,5.55,5.15,5.55a5.46,5.46,0,0,0,4.1-1.75c.75-.9,1-1.85,1-3.7V144.42Z"/><path class="cls-2" d="M716.25,144.42v3.25c2-2.7,4-3.8,6.85-3.8a8,8,0,0,1,5.35,1.9c1.45,1.4,1.95,3,1.95,6.15v15.55h-3.8v-14.7c0-2.05-.25-3.15-.85-4a4.44,4.44,0,0,0-3.6-1.55,5.74,5.74,0,0,0-4.4,1.95,5.44,5.44,0,0,0-1.5,4.2v14.05h-3.8V144.42Z"/><path class="cls-2" d="M755.15,134.12H759v33.35h-3.8v-3.95c-2.3,3.15-4.75,4.5-8.25,4.5-6.35,0-10.85-5-10.85-12s4.6-12.2,10.85-12.2a9.89,9.89,0,0,1,8.25,4Zm-15.1,22c0,5,3.05,8.6,7.4,8.6s7.7-3.7,7.7-8.7c0-5.2-3-8.75-7.45-8.75C743.15,147.27,740.05,150.87,740.05,156.12Z"/><path class="cls-2" d="M99.32,194.12c6.8,0,10.65,3.2,10.65,8.85a8,8,0,0,1-1.9,5.45,7.25,7.25,0,0,1-3.4,2.15,8.38,8.38,0,0,1,3.8,1.55,7.92,7.92,0,0,1,2.75,6.4,8.45,8.45,0,0,1-3.6,7.25c-2,1.25-4.1,1.7-8.3,1.7h-9.4V194.12Zm-5.2,15,4.25-.05c2.65,0,4.25-.35,5.45-1.3a5.87,5.87,0,0,0,2.05-4.6,5.2,5.2,0,0,0-2.65-4.8c-1.2-.6-2.6-.8-5.65-.8H94.12Zm0,14.95h4.2c3.5,0,4.85-.25,6.3-1.1a5,5,0,0,0,2.4-4.7c0-4-2.35-5.75-7.65-5.75H94.12Z"/><path class="cls-2" d="M119.32,217.17a7.19,7.19,0,0,0,1.5,4.2,7.5,7.5,0,0,0,6.2,3.15,8,8,0,0,0,6.9-4l3.35,1.25A11.29,11.29,0,0,1,127,228c-6.85,0-11.75-5-11.75-12s4.85-12.15,11.6-12.15a11.46,11.46,0,0,1,11.7,11.8c0,.3,0,1,0,1.5Zm15.2-2.8a7.14,7.14,0,0,0-1.3-4,7.91,7.91,0,0,0-6.35-3.15,7.41,7.41,0,0,0-6.2,3.2,9.15,9.15,0,0,0-1.3,3.9Z"/><path class="cls-2" d="M156.87,224.12v3.35h-17l12-19.7h-10.7v-3.35h17l-11.85,19.7Z"/><path class="cls-2" d="M178.87,204.42h3.8v23.05h-3.8V223c-2.3,3.45-4.9,5-8.4,5-6.36,0-10.86-5-10.86-12s4.6-12.15,11-12.15a9.64,9.64,0,0,1,8.3,4.35ZM165.52,210a10.45,10.45,0,0,0-1.91,6.1c0,4.9,3.2,8.6,7.41,8.6s7.9-4.05,7.9-9-3.2-8.45-7.8-8.45A6.28,6.28,0,0,0,165.52,210Z"/><path class="cls-2" d="M194.11,207.62c2.1-2.6,4.2-3.75,6.95-3.75a7.72,7.72,0,0,1,5.36,2.1c1.25,1.25,1.8,3.05,1.8,6v15.5h-3.8v-15.3c0-3.15-1.55-4.9-4.3-4.9a5.87,5.87,0,0,0-4.51,2c-1.15,1.3-1.5,2.45-1.5,4.65v13.5h-3.8V194.12h3.8Z"/><path class="cls-2" d="M215.71,227.47V194.12h3.8v33.35Z"/><path class="cls-2" d="M244.56,204.42h3.8v23.05h-3.8V223c-2.3,3.45-4.9,5-8.4,5-6.35,0-10.85-5-10.85-12s4.6-12.15,10.95-12.15a9.64,9.64,0,0,1,8.3,4.35ZM231.21,210a10.52,10.52,0,0,0-1.9,6.1c0,4.9,3.2,8.6,7.4,8.6s7.9-4.05,7.9-9-3.2-8.45-7.8-8.45A6.28,6.28,0,0,0,231.21,210Z"/><path class="cls-2" d="M273.26,204.42v14.75c0,3.15-.6,4.9-2.3,6.45a10.33,10.33,0,0,1-13.3-.05c-1.55-1.5-2.3-3.6-2.3-6.4V204.42h3.8v14.65c0,3.25,2.1,5.55,5.15,5.55a5.46,5.46,0,0,0,4.1-1.75c.75-.9,1-1.85,1-3.7V204.42Z"/><path class="cls-2" d="M284.31,222.77c.05,1.15.35,1.4,1.75,1.4h1.75v3.3h-3.55c-2.7-.05-3.75-1.05-3.75-3.6v-16.1h-3.2v-3.35h3.2v-7.25h3.8v7.25h3.5v3.35h-3.5Z"/><path class="cls-2" d="M314.36,216a11.77,11.77,0,0,1-11.8,12c-6.85,0-11.65-5-11.65-12.1s4.8-12,11.8-12C309.51,203.87,314.36,208.92,314.36,216ZM294.81,216c0,5.1,3.15,8.55,7.85,8.55,4.55,0,7.8-3.55,7.8-8.55,0-5.15-3.1-8.6-7.75-8.6S294.81,210.82,294.81,216Z"/><path class="cls-2" d="M324,204.42v3.2c1.75-2.65,3.7-3.75,6.55-3.75,3.15,0,5.15,1.35,6.2,4.2a7.54,7.54,0,0,1,7.3-4.2c2.65,0,4.65.85,5.85,2.45s1.4,2.75,1.4,6.4v14.75h-3.8V213.62c0-2.8-.1-3.45-.65-4.4a4.5,4.5,0,0,0-4-1.95c-3.35,0-5.2,2.25-5.2,6.35v13.85h-3.8v-13.8c0-2.25-.2-3.4-.75-4.4a4,4,0,0,0-3.75-2c-3.35,0-5.35,2.4-5.35,6.4v13.8h-3.8V204.42Z"/><path class="cls-2" d="M376.16,204.42H380v23.05h-3.8V223c-2.3,3.45-4.9,5-8.4,5-6.35,0-10.85-5-10.85-12s4.6-12.15,10.95-12.15a9.64,9.64,0,0,1,8.3,4.35ZM362.81,210a10.52,10.52,0,0,0-1.9,6.1c0,4.9,3.2,8.6,7.4,8.6,4.35,0,7.9-4.05,7.9-9s-3.2-8.45-7.8-8.45A6.28,6.28,0,0,0,362.81,210Z"/><path class="cls-2" d="M391.51,222.77c.05,1.15.35,1.4,1.75,1.4H395v3.3h-3.55c-2.7-.05-3.75-1.05-3.75-3.6v-16.1h-3.2v-3.35h3.2v-7.25h3.8v7.25H395v3.35h-3.5Z"/><path class="cls-2" d="M402.16,217.17a7.19,7.19,0,0,0,1.5,4.2,7.5,7.5,0,0,0,6.2,3.15,8,8,0,0,0,6.9-4l3.35,1.25a11.29,11.29,0,0,1-10.25,6.2c-6.85,0-11.75-5-11.75-12s4.85-12.15,11.6-12.15a11.46,11.46,0,0,1,11.7,11.8c0,.3,0,1-.05,1.5Zm15.2-2.8a7.14,7.14,0,0,0-1.3-4,7.91,7.91,0,0,0-6.35-3.15,7.41,7.41,0,0,0-6.2,3.2,9.15,9.15,0,0,0-1.3,3.9Z"/><path class="cls-2" d="M430.71,204.42v3.25c2-2.7,4-3.8,6.85-3.8a8,8,0,0,1,5.35,1.9c1.45,1.4,1.95,3,1.95,6.15v15.55h-3.8v-14.7c0-2.05-.25-3.15-.85-4a4.44,4.44,0,0,0-3.6-1.55,5.74,5.74,0,0,0-4.4,1.95,5.44,5.44,0,0,0-1.5,4.2v14.05h-3.8V204.42Z"/><path class="cls-2" d="M471.16,227.47h-3.8V194.12h3.8v20.4l9.2-10.1h4.8l-10.3,11.25,10.25,11.8h-4.75l-9.2-10.3Z"/><path class="cls-2" d="M509.91,216a11.77,11.77,0,0,1-11.8,12c-6.85,0-11.65-5-11.65-12.1s4.8-12,11.8-12C505.06,203.87,509.91,208.92,509.91,216ZM490.36,216c0,5.1,3.15,8.55,7.85,8.55S506,221,506,216c0-5.15-3.1-8.6-7.75-8.6S490.36,210.82,490.36,216Z"/><path class="cls-2" d="M519.51,204.42v3.2c1.75-2.65,3.7-3.75,6.55-3.75,3.15,0,5.15,1.35,6.2,4.2a7.54,7.54,0,0,1,7.3-4.2c2.65,0,4.65.85,5.85,2.45s1.4,2.75,1.4,6.4v14.75H543V213.62c0-2.8-.1-3.45-.65-4.4a4.5,4.5,0,0,0-4-1.95c-3.35,0-5.2,2.25-5.2,6.35v13.85h-3.8v-13.8c0-2.25-.2-3.4-.75-4.4a4,4,0,0,0-3.75-2c-3.35,0-5.35,2.4-5.35,6.4v13.8h-3.8V204.42Z"/><path class="cls-2" d="M558.11,204.42v3.2c1.75-2.65,3.7-3.75,6.55-3.75,3.15,0,5.15,1.35,6.2,4.2a7.54,7.54,0,0,1,7.3-4.2c2.65,0,4.65.85,5.85,2.45s1.4,2.75,1.4,6.4v14.75h-3.8V213.62c0-2.8-.1-3.45-.65-4.4a4.5,4.5,0,0,0-4-1.95c-3.35,0-5.2,2.25-5.2,6.35v13.85H568v-13.8c0-2.25-.2-3.4-.75-4.4a4,4,0,0,0-3.75-2c-3.35,0-5.35,2.4-5.35,6.4v13.8h-3.8V204.42Z"/><path class="cls-2" d="M610.16,204.42v14.75c0,3.15-.6,4.9-2.3,6.45a10.33,10.33,0,0,1-13.3-.05c-1.55-1.5-2.3-3.6-2.3-6.4V204.42h3.8v14.65c0,3.25,2.1,5.55,5.15,5.55a5.46,5.46,0,0,0,4.1-1.75c.75-.9,1-1.85,1-3.7V204.42Z"/><path class="cls-2" d="M621,204.42v3.25c2-2.7,4-3.8,6.85-3.8a8,8,0,0,1,5.35,1.9c1.45,1.4,2,3,2,6.15v15.55h-3.8v-14.7c0-2.05-.25-3.15-.85-4a4.44,4.44,0,0,0-3.6-1.55,5.74,5.74,0,0,0-4.4,1.95,5.44,5.44,0,0,0-1.5,4.2v14.05h-3.8V204.42Z"/><path class="cls-2" d="M647,198a2.41,2.41,0,0,1-2.45,2.4,2.45,2.45,0,0,1,0-4.9A2.42,2.42,0,0,1,647,198Zm-.55,29.5h-3.8V204.42h3.8Z"/><path class="cls-2" d="M667.86,224.12v3.35h-17l12-19.7h-10.7v-3.35h17l-11.85,19.7Z"/><path class="cls-2" d="M677.66,198a2.41,2.41,0,0,1-2.45,2.4,2.45,2.45,0,0,1,0-4.9A2.42,2.42,0,0,1,677.66,198Zm-.55,29.5h-3.8V204.42h3.8Z"/><path class="cls-2" d="M687,217.17a7.19,7.19,0,0,0,1.5,4.2,7.5,7.5,0,0,0,6.2,3.15,8,8,0,0,0,6.9-4l3.35,1.25a11.29,11.29,0,0,1-10.25,6.2c-6.85,0-11.75-5-11.75-12s4.85-12.15,11.6-12.15a11.46,11.46,0,0,1,11.7,11.8c0,.3,0,1-.05,1.5Zm15.2-2.8a7.14,7.14,0,0,0-1.3-4,7.91,7.91,0,0,0-6.35-3.15,7.41,7.41,0,0,0-6.2,3.2,9.15,9.15,0,0,0-1.3,3.9Z"/><path class="cls-2" d="M715.5,204.42v3.9a6.59,6.59,0,0,1,2.1-3,7.23,7.23,0,0,1,4.41-1.4h.9v3.85a8.66,8.66,0,0,0-1.06-.05,5.92,5.92,0,0,0-5,2.65c-1,1.45-1.35,2.8-1.35,5.45v11.7h-3.8V204.42Z"/><path class="cls-2" d="M732.7,222.77c0,1.15.35,1.4,1.75,1.4h1.75v3.3h-3.55c-2.7-.05-3.75-1.05-3.75-3.6v-16.1h-3.2v-3.35h3.2v-7.25h3.8v7.25h3.5v3.35h-3.5Z"/><path class="cls-2" d="M746.45,225.32a2.6,2.6,0,1,1-2.6-2.65A2.54,2.54,0,0,1,746.45,225.32Z"/></svg>