<svg id="Ebene_1" data-name="Ebene 1" xmlns="http://www.w3.org/2000/svg" viewBox="0 0 1561 626"><defs><style>.cls-1{fill:#c1e1d3;}.cls-2{fill:#1d1d1b;}</style></defs><rect class="cls-1" x="45" y="13" width="1493" height="589" rx="294.5"/><path class="cls-2" d="M165.32,106.7h12.62v3.46H165.32v10.93h12.62v3.46H161.29v-32h16.65V96H165.32Z"/><path class="cls-2" d="M194.2,108.48v-.24c0-2.07-1.68-3.36-4.22-3.36s-4,1.25-4,3.17,1,2.63,4.94,3.74c2.83.77,4.31,1.48,5.37,2.54a6.19,6.19,0,0,1,1.77,4.32c0,3.84-3.16,6.43-7.86,6.43-5,0-7.87-2.35-8.25-6.82h3.59c.24,2.5,1.88,3.84,4.66,3.84,2.49,0,4.12-1.29,4.12-3.26s-1.24-2.88-5-3.84c-4.8-1.29-7-3.31-7-6.67,0-3.83,3.12-6.42,7.77-6.42s7.53,2.39,7.73,6.57Z"/><path class="cls-2" d="M234.45,102.43h3.64v22.26c0,3.7-.91,6.19-2.92,8.11a11.4,11.4,0,0,1-8.16,2.93,12.48,12.48,0,0,1-9.79-4l2.5-2.5a12.91,12.91,0,0,0,2.11,1.92,10.72,10.72,0,0,0,5.18,1.3,8,8,0,0,0,5.76-2.16,7.6,7.6,0,0,0,1.68-5.28v-4.65c-2.16,3.26-4.7,4.75-8.16,4.75-5.85,0-10.22-4.94-10.22-11.52a12.69,12.69,0,0,1,3.5-9.06,9.73,9.73,0,0,1,7-2.59c3.36,0,5.61,1.24,7.87,4.31Zm-14.54,11c0,4.75,3.07,8.3,7.24,8.3a7.49,7.49,0,0,0,5.62-2.69,8.92,8.92,0,0,0,1.58-5.47c0-2.88-.43-4.41-1.73-5.85a7.48,7.48,0,0,0-5.37-2.45C222.93,105.26,219.91,108.62,219.91,113.42Z"/><path class="cls-2" d="M249.6,96.24a2.31,2.31,0,0,1-2.35,2.31,2.35,2.35,0,0,1,.05-4.7A2.32,2.32,0,0,1,249.6,96.24Zm-.52,28.31h-3.65V102.43h3.65Z"/><path class="cls-2" d="M260.06,124.55h-3.64v-32h3.64v13.67c2.21-3,4.56-4.31,7.77-4.31,6.19,0,10.51,4.79,10.51,11.65s-4.27,11.52-10.31,11.52c-3.41,0-5.81-1.3-8-4.32Zm-.05-11c0,5,2.88,8.4,7.2,8.4s7.29-3.31,7.29-8.25-3-8.49-7.15-8.49S260,108.67,260,113.51Z"/><path class="cls-2" d="M287.79,120c0,1.1.33,1.34,1.68,1.34h1.68v3.17h-3.41c-2.59,0-3.6-1-3.6-3.46V105.65h-3.07v-3.22h3.07v-7h3.65v7h3.36v3.22h-3.36Z"/><path class="cls-2" d="M314.36,102.43v4c2.11-3.26,4.37-4.55,8.06-4.55,6.14,0,10.41,4.7,10.41,11.41,0,7-4.27,11.76-10.41,11.76a10.68,10.68,0,0,1-4.84-1.15,8,8,0,0,1-3.22-2.84v13.82h-3.64V102.43Zm0,11.42c0,4.85,2.93,8.06,7.3,8.06s7.29-3.41,7.29-8.44a8.62,8.62,0,0,0-1.92-6,7.15,7.15,0,0,0-5.23-2.3C317.39,105.17,314.36,108.67,314.36,113.85Z"/><path class="cls-2" d="M340.46,114.67a6.9,6.9,0,0,0,1.44,4,7.21,7.21,0,0,0,6,3,7.67,7.67,0,0,0,6.62-3.79l3.21,1.2a10.83,10.83,0,0,1-9.83,6c-6.58,0-11.28-4.8-11.28-11.52s4.66-11.65,11.13-11.65a11,11,0,0,1,11.23,11.32c0,.28,0,.91-.05,1.44ZM355,112a6.86,6.86,0,0,0-1.24-3.79,7.61,7.61,0,0,0-6.1-3,7.12,7.12,0,0,0-5.95,3.07,8.64,8.64,0,0,0-1.24,3.74Z"/><path class="cls-2" d="M367.85,102.43v3.74a6.24,6.24,0,0,1,2-2.92,6.91,6.91,0,0,1,4.23-1.34H375v3.69a7.84,7.84,0,0,0-1,0,5.69,5.69,0,0,0-4.8,2.54c-.95,1.39-1.29,2.69-1.29,5.23v11.23H364.2V102.43Z"/><path class="cls-2" d="M389.77,108.48v-.24c0-2.07-1.68-3.36-4.22-3.36s-4,1.25-4,3.17,1,2.63,4.94,3.74c2.83.77,4.32,1.48,5.37,2.54a6.15,6.15,0,0,1,1.78,4.32c0,3.84-3.17,6.43-7.87,6.43-5,0-7.87-2.35-8.25-6.82h3.6c.24,2.5,1.87,3.84,4.65,3.84,2.49,0,4.13-1.29,4.13-3.26s-1.25-2.88-5-3.84c-4.8-1.29-7-3.31-7-6.67,0-3.83,3.12-6.42,7.77-6.42s7.54,2.39,7.73,6.57Z"/><path class="cls-2" d="M420,113.56a11.27,11.27,0,0,1-11.32,11.52c-6.57,0-11.17-4.8-11.17-11.61s4.6-11.56,11.32-11.56C415.34,101.91,420,106.75,420,113.56Zm-18.75,0c0,4.9,3,8.21,7.53,8.21s7.48-3.41,7.48-8.21-3-8.25-7.43-8.25S401.24,108.57,401.24,113.51Zm5-17.36a2.26,2.26,0,1,1-2.26-2.3A2.19,2.19,0,0,1,406.23,96.15Zm9.54,0a2.26,2.26,0,1,1-2.25-2.3A2.18,2.18,0,0,1,415.77,96.15Z"/><path class="cls-2" d="M429.2,102.43v3.12c1.92-2.59,3.84-3.64,6.58-3.64a7.71,7.71,0,0,1,5.13,1.82c1.39,1.34,1.87,2.88,1.87,5.9v14.92h-3.65V110.44c0-2-.24-3-.81-3.79a4.27,4.27,0,0,0-3.46-1.48,5.5,5.5,0,0,0-4.22,1.87,5.24,5.24,0,0,0-1.44,4v13.48h-3.64V102.43Z"/><path class="cls-2" d="M450,124.55v-32h3.65v32Z"/><path class="cls-2" d="M465.13,96.24a2.31,2.31,0,0,1-2.35,2.31,2.35,2.35,0,0,1,.05-4.7A2.32,2.32,0,0,1,465.13,96.24Zm-.53,28.31H461V102.43h3.64Z"/><path class="cls-2" d="M489.17,121.81a11.35,11.35,0,0,1-8.16,3.27c-6.33,0-10.84-4.8-10.84-11.52s4.56-11.65,11-11.65a10.91,10.91,0,0,1,8.06,3.31l-2.35,2.35a8.11,8.11,0,0,0-5.61-2.31c-4.37,0-7.39,3.36-7.39,8.16s3,8.3,7.34,8.3a7.73,7.73,0,0,0,5.66-2.4Z"/><path class="cls-2" d="M497,105.5c2-2.49,4-3.59,6.67-3.59a7.38,7.38,0,0,1,5.14,2c1.2,1.2,1.72,2.93,1.72,5.76v14.87h-3.64V109.87c0-3-1.49-4.7-4.13-4.7a5.66,5.66,0,0,0-4.32,2A5.81,5.81,0,0,0,497,111.6v13h-3.64v-32H497Z"/><path class="cls-2" d="M519.82,114.67a6.9,6.9,0,0,0,1.44,4,7.21,7.21,0,0,0,6,3,7.67,7.67,0,0,0,6.62-3.79l3.21,1.2a10.83,10.83,0,0,1-9.83,6c-6.58,0-11.28-4.8-11.28-11.52s4.66-11.65,11.13-11.65a11,11,0,0,1,11.23,11.32c0,.28,0,.91,0,1.44ZM534.4,112a6.86,6.86,0,0,0-1.24-3.79,7.61,7.61,0,0,0-6.1-3,7.12,7.12,0,0,0-5.95,3.07,8.64,8.64,0,0,0-1.24,3.74Z"/><path class="cls-2" d="M567,124.55h-4V96h-8.15V92.55h20.29V96H567Z"/><path class="cls-2" d="M597.63,113.56a11.3,11.3,0,0,1-11.32,11.52c-6.58,0-11.18-4.8-11.18-11.61s4.6-11.56,11.32-11.56C593,101.91,597.63,106.75,597.63,113.56Zm-18.76,0c0,4.9,3,8.21,7.53,8.21s7.49-3.41,7.49-8.21-3-8.25-7.44-8.25S578.87,108.57,578.87,113.51Z"/><path class="cls-2" d="M606.84,124.55h-3.65v-32h3.65v19.57l8.82-9.69h4.61l-9.88,10.8,9.83,11.32h-4.56l-8.82-9.88Z"/><path class="cls-2" d="M625.4,114.67a6.9,6.9,0,0,0,1.44,4,7.21,7.21,0,0,0,5.95,3,7.67,7.67,0,0,0,6.62-3.79l3.21,1.2a10.83,10.83,0,0,1-9.83,6c-6.57,0-11.28-4.8-11.28-11.52s4.66-11.65,11.13-11.65a11,11,0,0,1,11.23,11.32c0,.28,0,.91,0,1.44ZM640,112a6.86,6.86,0,0,0-1.24-3.79,7.6,7.6,0,0,0-6.1-3,7.09,7.09,0,0,0-5.94,3.07,8.63,8.63,0,0,0-1.25,3.74Z"/><path class="cls-2" d="M652.79,102.43v3.12c1.92-2.59,3.84-3.64,6.57-3.64a7.72,7.72,0,0,1,5.14,1.82c1.39,1.34,1.87,2.88,1.87,5.9v14.92h-3.65V110.44c0-2-.24-3-.81-3.79a4.28,4.28,0,0,0-3.46-1.48,5.49,5.49,0,0,0-4.22,1.87,5.21,5.21,0,0,0-1.44,4v13.48h-3.65V102.43Z"/><path class="cls-2" d="M673.18,132.18l-2.64-.82,4-11.66,3.45,1.11Z"/><path class="cls-2" d="M177.89,150.12h3.65v32h-3.65v-3.79c-2.21,3-4.56,4.32-7.92,4.32-6.09,0-10.41-4.75-10.41-11.46S164,159.47,170,159.47a9.48,9.48,0,0,1,7.92,3.89Zm-14.49,21.1c0,4.85,2.93,8.26,7.1,8.26s7.39-3.55,7.39-8.35c0-5-2.93-8.4-7.15-8.4S163.4,166.19,163.4,171.22Z"/><path class="cls-2" d="M193.05,153.81a2.32,2.32,0,0,1-2.35,2.3,2.35,2.35,0,0,1,0-4.7A2.33,2.33,0,0,1,193.05,153.81Zm-.53,28.3h-3.65V160h3.65Z"/><path class="cls-2" d="M202,172.23a6.9,6.9,0,0,0,1.44,4,7.18,7.18,0,0,0,6,3,7.65,7.65,0,0,0,6.62-3.79l3.21,1.2a10.81,10.81,0,0,1-9.83,5.95c-6.58,0-11.28-4.8-11.28-11.51s4.66-11.66,11.13-11.66a11,11,0,0,1,11.23,11.32c0,.29,0,.91-.05,1.44Zm14.58-2.69a6.92,6.92,0,0,0-1.24-3.79,7.61,7.61,0,0,0-6.1-3,7.12,7.12,0,0,0-6,3.07,8.74,8.74,0,0,0-1.24,3.74Z"/><path class="cls-2" d="M243.75,160v3.07c1.68-2.54,3.55-3.6,6.28-3.6,3,0,4.95,1.3,5.95,4a7.24,7.24,0,0,1,7-4c2.54,0,4.46.82,5.61,2.35s1.34,2.64,1.34,6.14v14.15H266.3V168.83c0-2.69-.1-3.31-.63-4.23a4.31,4.31,0,0,0-3.83-1.87c-3.22,0-5,2.16-5,6.1v13.28H253.2V168.87a8.27,8.27,0,0,0-.72-4.22,3.8,3.8,0,0,0-3.6-1.92c-3.21,0-5.13,2.31-5.13,6.14v13.24H240.1V160Z"/><path class="cls-2" d="M293.83,160h3.65v22.11h-3.65v-4.27c-2.21,3.31-4.7,4.8-8.06,4.8-6.09,0-10.41-4.8-10.41-11.51s4.42-11.66,10.51-11.66a9.26,9.26,0,0,1,8,4.17ZM281,165.37a10.1,10.1,0,0,0-1.82,5.85c0,4.71,3.07,8.26,7.1,8.26s7.58-3.89,7.58-8.64-3.07-8.11-7.48-8.11A6,6,0,0,0,281,165.37Z"/><path class="cls-2" d="M308.46,160v3.12c1.92-2.59,3.84-3.65,6.58-3.65a7.71,7.71,0,0,1,5.13,1.82c1.39,1.35,1.87,2.88,1.87,5.9v14.92h-3.65V168c0-2-.24-3-.81-3.79a4.27,4.27,0,0,0-3.46-1.49,5.53,5.53,0,0,0-4.22,1.87,5.24,5.24,0,0,0-1.44,4v13.48h-3.64V160Z"/><path class="cls-2" d="M347.27,182.11h-3.65v-32h3.65v13.67c2.21-3,4.56-4.32,7.77-4.32,6.19,0,10.51,4.8,10.51,11.66s-4.27,11.51-10.32,11.51c-3.4,0-5.8-1.29-8-4.32Zm0-11c0,5,2.88,8.4,7.2,8.4s7.29-3.31,7.29-8.26-3-8.49-7.15-8.49S347.22,166.23,347.22,171.08Z"/><path class="cls-2" d="M373.22,172.23a6.9,6.9,0,0,0,1.44,4,7.18,7.18,0,0,0,5.95,3,7.65,7.65,0,0,0,6.62-3.79l3.21,1.2a10.81,10.81,0,0,1-9.83,5.95c-6.57,0-11.27-4.8-11.27-11.51s4.65-11.66,11.13-11.66a11,11,0,0,1,11.22,11.32c0,.29,0,.91-.05,1.44Zm14.59-2.69a6.92,6.92,0,0,0-1.25-3.79,7.59,7.59,0,0,0-6.09-3,7.09,7.09,0,0,0-6,3.07,8.87,8.87,0,0,0-1.25,3.74Z"/><path class="cls-2" d="M401.14,153.81a2.32,2.32,0,0,1-2.35,2.3,2.35,2.35,0,0,1,0-4.7A2.33,2.33,0,0,1,401.14,153.81Zm-.53,28.3H397V160h3.64Z"/><path class="cls-2" d="M411.6,160v3.07c1.68-2.54,3.55-3.6,6.28-3.6a5.72,5.72,0,0,1,5.95,4,7.23,7.23,0,0,1,7-4c2.55,0,4.47.82,5.62,2.35s1.34,2.64,1.34,6.14v14.15h-3.64V168.83c0-2.69-.1-3.31-.63-4.23a4.32,4.32,0,0,0-3.84-1.87c-3.21,0-5,2.16-5,6.1v13.28h-3.64V168.87a8.27,8.27,0,0,0-.72-4.22,3.8,3.8,0,0,0-3.6-1.92c-3.21,0-5.13,2.31-5.13,6.14v13.24H408V160Z"/><path class="cls-2" d="M463.74,182.11h-4v-32h4v14.72l12.43-14.72H481L467.67,166,481,182.11h-5.13l-12.14-14.77Z"/><path class="cls-2" d="M500.29,160h3.65v22.11h-3.65v-4.27c-2.2,3.31-4.7,4.8-8.05,4.8-6.1,0-10.41-4.8-10.41-11.51s4.41-11.66,10.5-11.66a9.25,9.25,0,0,1,8,4.17Zm-12.8,5.37a10,10,0,0,0-1.83,5.85c0,4.71,3.07,8.26,7.1,8.26,4.18,0,7.58-3.89,7.58-8.64s-3.07-8.11-7.48-8.11A6,6,0,0,0,487.49,165.37Z"/><path class="cls-2" d="M527.83,160v14.15c0,3-.58,4.7-2.21,6.19a9.92,9.92,0,0,1-12.76-.05,8.11,8.11,0,0,1-2.2-6.14V160h3.64v14.05c0,3.12,2,5.33,4.94,5.33a5.24,5.24,0,0,0,3.94-1.68c.72-.86,1-1.77,1-3.55V160Z"/><path class="cls-2" d="M538.57,182.11h-3.64v-18.9h-3V160h3v-3c0-4.36,2.25-7,6.09-7a8.33,8.33,0,0,1,1,.05v3.26c-2.64.29-3.36,1.05-3.46,3.64v3H542v3.21h-3.46Z"/><path class="cls-2" d="M563.47,172.23a6.9,6.9,0,0,0,1.44,4,7.18,7.18,0,0,0,6,3,7.65,7.65,0,0,0,6.62-3.79l3.21,1.2a10.81,10.81,0,0,1-9.83,5.95c-6.57,0-11.28-4.8-11.28-11.51s4.66-11.66,11.13-11.66a11,11,0,0,1,11.23,11.32c0,.29,0,.91-.05,1.44Zm14.58-2.69a6.92,6.92,0,0,0-1.24-3.79,7.6,7.6,0,0,0-6.1-3,7.12,7.12,0,0,0-6,3.07,8.87,8.87,0,0,0-1.24,3.74Z"/><path class="cls-2" d="M591.39,153.81a2.32,2.32,0,0,1-2.35,2.3,2.35,2.35,0,0,1,0-4.7A2.33,2.33,0,0,1,591.39,153.81Zm-.53,28.3h-3.65V160h3.65Z"/><path class="cls-2" d="M601.85,160v3.12c1.91-2.59,3.83-3.65,6.57-3.65a7.69,7.69,0,0,1,5.13,1.82c1.39,1.35,1.87,2.88,1.87,5.9v14.92h-3.64V168c0-2-.24-3-.82-3.79a4.27,4.27,0,0,0-3.45-1.49,5.52,5.52,0,0,0-4.22,1.87,5.21,5.21,0,0,0-1.44,4v13.48H598.2V160Z"/><path class="cls-2" d="M624.73,172.23a6.83,6.83,0,0,0,1.44,4,7.18,7.18,0,0,0,5.94,3,7.63,7.63,0,0,0,6.62-3.79l3.22,1.2a10.81,10.81,0,0,1-9.84,5.95c-6.57,0-11.27-4.8-11.27-11.51s4.65-11.66,11.13-11.66a11,11,0,0,1,11.23,11.32c0,.29,0,.91-.05,1.44Zm14.58-2.69a6.84,6.84,0,0,0-1.25-3.79,7.58,7.58,0,0,0-6.09-3,7.11,7.11,0,0,0-6,3.07,8.87,8.87,0,0,0-1.25,3.74Z"/><path class="cls-2" d="M652.12,160v3.74a6.34,6.34,0,0,1,2-2.93,7,7,0,0,1,4.22-1.34h.87v3.69a9.89,9.89,0,0,0-1,0,5.68,5.68,0,0,0-4.8,2.54c-1,1.39-1.29,2.69-1.29,5.23v11.22h-3.65V160Z"/><path class="cls-2" d="M682.48,182.11h-4v-32h4l11.85,24,12-24h3.93v32h-4V158.7l-11.9,23.75-11.8-23.8Z"/><path class="cls-2" d="M738.56,171.13a11.3,11.3,0,0,1-11.32,11.51c-6.57,0-11.18-4.8-11.18-11.61s4.61-11.56,11.32-11.56C733.91,159.47,738.56,164.32,738.56,171.13Zm-18.76,0c0,4.89,3,8.2,7.53,8.2s7.49-3.4,7.49-8.2-3-8.25-7.44-8.25S719.8,166.14,719.8,171.08Z"/><path class="cls-2" d="M747.77,160v3.12c1.92-2.59,3.84-3.65,6.57-3.65a7.67,7.67,0,0,1,5.13,1.82c1.4,1.35,1.88,2.88,1.88,5.9v14.92H757.7V168c0-2-.24-3-.82-3.79a4.25,4.25,0,0,0-3.45-1.49,5.52,5.52,0,0,0-4.22,1.87,5.21,5.21,0,0,0-1.44,4v13.48h-3.65V160Z"/><path class="cls-2" d="M785.24,160h3.64v22.11h-3.64v-4.27c-2.21,3.31-4.71,4.8-8.06,4.8-6.1,0-10.41-4.8-10.41-11.51s4.41-11.66,10.5-11.66a9.28,9.28,0,0,1,8,4.17Zm-12.81,5.37a10.11,10.11,0,0,0-1.83,5.85c0,4.71,3.07,8.26,7.1,8.26s7.58-3.89,7.58-8.64-3.07-8.11-7.48-8.11A6,6,0,0,0,772.43,165.37Z"/><path class="cls-2" d="M800,177.6c0,1.11.34,1.35,1.68,1.35h1.68v3.16h-3.41c-2.59,0-3.59-1-3.59-3.45V163.21h-3.07V160h3.07v-7H800v7h3.36v3.21H800Z"/><path class="cls-2" d="M818.72,166v-.24c0-2.06-1.68-3.36-4.22-3.36s-4,1.25-4,3.17,1,2.64,5,3.74c2.83.77,4.31,1.49,5.37,2.55a6.16,6.16,0,0,1,1.77,4.31c0,3.84-3.16,6.43-7.86,6.43-5,0-7.87-2.35-8.26-6.81h3.6c.24,2.49,1.87,3.84,4.66,3.84,2.49,0,4.12-1.3,4.12-3.26s-1.25-2.88-5-3.84c-4.79-1.3-7-3.31-7-6.67,0-3.84,3.12-6.43,7.77-6.43s7.53,2.4,7.72,6.57Z"/><path class="cls-2" d="M835.36,172.14h-9.93v-3.31h9.93Z"/><path class="cls-2" d="M874.12,171.13a11.3,11.3,0,0,1-11.32,11.51c-6.57,0-11.18-4.8-11.18-11.61s4.61-11.56,11.33-11.56C869.47,159.47,874.12,164.32,874.12,171.13Zm-18.75,0c0,4.89,3,8.2,7.53,8.2s7.48-3.4,7.48-8.2-3-8.25-7.43-8.25S855.37,166.14,855.37,171.08Z"/><path class="cls-2" d="M896.24,150.12h3.64v32h-3.64v-3.79c-2.21,3-4.56,4.32-7.92,4.32-6.09,0-10.41-4.75-10.41-11.46s4.41-11.71,10.41-11.71a9.49,9.49,0,0,1,7.92,3.89Zm-14.49,21.1c0,4.85,2.93,8.26,7.1,8.26s7.39-3.55,7.39-8.35c0-5-2.93-8.4-7.15-8.4C884.72,162.73,881.75,166.19,881.75,171.22Z"/><path class="cls-2" d="M909.33,172.23a6.9,6.9,0,0,0,1.44,4,7.18,7.18,0,0,0,6,3,7.65,7.65,0,0,0,6.62-3.79l3.21,1.2a10.81,10.81,0,0,1-9.83,5.95c-6.57,0-11.27-4.8-11.27-11.51s4.65-11.66,11.13-11.66a11,11,0,0,1,11.22,11.32c0,.29,0,.91,0,1.44Zm14.59-2.69a6.92,6.92,0,0,0-1.25-3.79,7.59,7.59,0,0,0-6.09-3,7.09,7.09,0,0,0-6,3.07,8.87,8.87,0,0,0-1.25,3.74Z"/><path class="cls-2" d="M936.72,160v3.74a6.27,6.27,0,0,1,2-2.93,7,7,0,0,1,4.22-1.34h.86v3.69a9.71,9.71,0,0,0-1,0,5.67,5.67,0,0,0-4.8,2.54c-1,1.39-1.3,2.69-1.3,5.23v11.22h-3.64V160Z"/><path class="cls-2" d="M973.61,172.23c0,4.51-1.68,7.49-5.08,9a16.28,16.28,0,0,1-6.62,1.06c-.34,0-.91,0-1.59-.05v-3.5a18,18,0,0,0,2,.09,8,8,0,0,0,5.28-1.53c1.53-1.35,2-3.17,2-7.34V153.57h-9.26v-3.45h13.29Z"/><path class="cls-2" d="M997.36,160H1001v22.11h-3.64v-4.27c-2.21,3.31-4.7,4.8-8.06,4.8-6.09,0-10.41-4.8-10.41-11.51s4.41-11.66,10.5-11.66a9.28,9.28,0,0,1,8,4.17Zm-12.81,5.37a10.1,10.1,0,0,0-1.82,5.85c0,4.71,3.07,8.26,7.1,8.26s7.58-3.89,7.58-8.64-3.08-8.11-7.49-8.11A6,6,0,0,0,984.55,165.37Z"/><path class="cls-2" d="M1012,163.07c2-2.5,4-3.6,6.67-3.6a7.38,7.38,0,0,1,5.13,2c1.2,1.19,1.73,2.92,1.73,5.75v14.87h-3.65V167.43c0-3-1.49-4.7-4.13-4.7a5.61,5.61,0,0,0-4.31,2c-1.11,1.25-1.44,2.35-1.44,4.46v13h-3.65v-32H1012Z"/><path class="cls-2" d="M1036.36,160v3.74a6.34,6.34,0,0,1,2-2.93,7,7,0,0,1,4.22-1.34h.87v3.69a9.89,9.89,0,0,0-1,0,5.67,5.67,0,0,0-4.8,2.54c-1,1.39-1.29,2.69-1.29,5.23v11.22h-3.65V160Z"/><path class="cls-2" d="M1049.26,172.23a6.9,6.9,0,0,0,1.44,4,7.18,7.18,0,0,0,6,3,7.65,7.65,0,0,0,6.62-3.79l3.21,1.2a10.81,10.81,0,0,1-9.83,5.95c-6.57,0-11.27-4.8-11.27-11.51s4.65-11.66,11.12-11.66a11,11,0,0,1,11.23,11.32c0,.29,0,.91,0,1.44Zm14.58-2.69a6.84,6.84,0,0,0-1.24-3.79,7.6,7.6,0,0,0-6.1-3,7.09,7.09,0,0,0-5.94,3.07,8.73,8.73,0,0,0-1.25,3.74Z"/><path class="cls-2" d="M1083.13,166v-.24c0-2.06-1.68-3.36-4.22-3.36s-4,1.25-4,3.17,1,2.64,4.95,3.74c2.83.77,4.31,1.49,5.37,2.55a6.16,6.16,0,0,1,1.77,4.31c0,3.84-3.16,6.43-7.86,6.43-5,0-7.87-2.35-8.26-6.81h3.6c.24,2.49,1.87,3.84,4.66,3.84,2.49,0,4.12-1.3,4.12-3.26s-1.25-2.88-5-3.84c-4.79-1.3-7-3.31-7-6.67,0-3.84,3.12-6.43,7.77-6.43s7.53,2.4,7.72,6.57Z"/><path class="cls-2" d="M1096.08,182.11h-3.65v-32h3.65v19.57l8.83-9.69h4.6l-9.88,10.79,9.83,11.32h-4.55l-8.83-9.88Z"/><path class="cls-2" d="M1129.23,160h3.64v22.11h-3.64v-4.27c-2.21,3.31-4.7,4.8-8.06,4.8-6.09,0-10.41-4.8-10.41-11.51s4.41-11.66,10.5-11.66a9.28,9.28,0,0,1,8,4.17Zm-12.81,5.37a10.1,10.1,0,0,0-1.82,5.85c0,4.71,3.07,8.26,7.1,8.26s7.58-3.89,7.58-8.64-3.07-8.11-7.49-8.11A6,6,0,0,0,1116.42,165.37Z"/><path class="cls-2" d="M1143.86,160v3.74a6.34,6.34,0,0,1,2-2.93,7,7,0,0,1,4.22-1.34h.87v3.69a9.89,9.89,0,0,0-1,0,5.68,5.68,0,0,0-4.8,2.54c-1,1.39-1.29,2.69-1.29,5.23v11.22h-3.65V160Z"/><path class="cls-2" d="M1160.36,177.6c.05,1.11.34,1.35,1.68,1.35h1.68v3.16h-3.41c-2.59,0-3.6-1-3.6-3.45V163.21h-3.07V160h3.07v-7h3.65v7h3.36v3.21h-3.36Z"/><path class="cls-2" d="M1170.58,172.23a6.83,6.83,0,0,0,1.44,4,7.18,7.18,0,0,0,5.94,3,7.66,7.66,0,0,0,6.63-3.79l3.21,1.2a10.81,10.81,0,0,1-9.84,5.95c-6.57,0-11.27-4.8-11.27-11.51s4.65-11.66,11.13-11.66a11,11,0,0,1,11.23,11.32c0,.29,0,.91,0,1.44Zm14.58-2.69a6.84,6.84,0,0,0-1.25-3.79,7.58,7.58,0,0,0-6.09-3,7.12,7.12,0,0,0-6,3.07,8.87,8.87,0,0,0-1.25,3.74Z"/><path class="cls-2" d="M178.27,217.56l-8.34,22.12h-3.84L158,217.56h3.84l6.23,16.89,6.43-16.89Z"/><path class="cls-2" d="M202.36,228.69A11.3,11.3,0,0,1,191,240.21c-6.57,0-11.17-4.8-11.17-11.61S184.46,217,191.18,217C197.7,217,202.36,221.88,202.36,228.69Zm-18.76,0c0,4.89,3,8.2,7.53,8.2s7.48-3.41,7.48-8.2c0-5-3-8.26-7.43-8.26S183.6,223.7,183.6,228.65Z"/><path class="cls-2" d="M211.56,217.56v3.07c1.68-2.54,3.55-3.59,6.29-3.59,3,0,4.94,1.29,6,4a7.21,7.21,0,0,1,7-4c2.54,0,4.46.81,5.61,2.35s1.35,2.63,1.35,6.14v14.15h-3.65V226.39c0-2.69-.09-3.31-.62-4.22a4.32,4.32,0,0,0-3.84-1.87c-3.21,0-5,2.16-5,6.09v13.29H221V226.44a8.27,8.27,0,0,0-.72-4.22,3.79,3.79,0,0,0-3.59-1.92c-3.22,0-5.14,2.3-5.14,6.14v13.24h-3.64V217.56Z"/><path class="cls-2" d="M277.52,207.68h4.27l-11.13,32h-3.93l-10.79-32h4.22l8.58,25.43Z"/><path class="cls-2" d="M286,229.8a7,7,0,0,0,1.44,4,7.21,7.21,0,0,0,5.95,3,7.65,7.65,0,0,0,6.62-3.79l3.22,1.2a10.85,10.85,0,0,1-9.84,6c-6.57,0-11.27-4.8-11.27-11.52S286.78,217,293.26,217a11,11,0,0,1,11.22,11.32c0,.29,0,.91,0,1.44Zm14.59-2.69a6.86,6.86,0,0,0-1.25-3.79,7.59,7.59,0,0,0-6.09-3,7.09,7.09,0,0,0-5.95,3.07,8.77,8.77,0,0,0-1.25,3.74Z"/><path class="cls-2" d="M313.41,217.56v3.75a6.23,6.23,0,0,1,2-2.93,7,7,0,0,1,4.22-1.34h.87v3.69a7.92,7.92,0,0,0-1,0,5.67,5.67,0,0,0-4.8,2.54c-1,1.4-1.29,2.69-1.29,5.23v11.23h-3.65V217.56Z"/><path class="cls-2" d="M328.28,239.68h-3.65v-32h3.65v19.57l8.82-9.69h4.61l-9.88,10.8,9.83,11.32H337.1l-8.82-9.88Z"/><path class="cls-2" d="M346.84,229.8a6.9,6.9,0,0,0,1.44,4,7.21,7.21,0,0,0,6,3,7.67,7.67,0,0,0,6.62-3.79l3.21,1.2a10.83,10.83,0,0,1-9.83,6c-6.57,0-11.28-4.8-11.28-11.52S347.61,217,354.08,217a11,11,0,0,1,11.23,11.32c0,.29,0,.91-.05,1.44Zm14.58-2.69a6.86,6.86,0,0,0-1.24-3.79,7.6,7.6,0,0,0-6.1-3,7.12,7.12,0,0,0-5.95,3.07,8.77,8.77,0,0,0-1.24,3.74Z"/><path class="cls-2" d="M373.94,220.63c2-2.49,4-3.59,6.67-3.59a7.38,7.38,0,0,1,5.14,2c1.19,1.2,1.72,2.93,1.72,5.76v14.87h-3.64V225c0-3-1.49-4.7-4.13-4.7a5.64,5.64,0,0,0-4.32,2,5.82,5.82,0,0,0-1.44,4.47v13H370.3v-32h3.64Z"/><path class="cls-2" d="M398.31,217.56v3.75a6.17,6.17,0,0,1,2-2.93,7,7,0,0,1,4.22-1.34h.86v3.69a7.78,7.78,0,0,0-1,0,5.67,5.67,0,0,0-4.8,2.54c-1,1.4-1.3,2.69-1.3,5.23v11.23h-3.64V217.56Z"/><path class="cls-2" d="M420.23,223.61v-.24c0-2.06-1.67-3.36-4.22-3.36s-4,1.25-4,3.17,1,2.63,4.94,3.74c2.83.77,4.32,1.49,5.38,2.54a6.19,6.19,0,0,1,1.77,4.32c0,3.84-3.17,6.43-7.87,6.43-5,0-7.87-2.35-8.25-6.82h3.6c.24,2.5,1.87,3.84,4.65,3.84,2.5,0,4.13-1.29,4.13-3.26s-1.25-2.88-5-3.84c-4.8-1.29-7-3.31-7-6.67,0-3.83,3.12-6.42,7.78-6.42s7.53,2.39,7.72,6.57Z"/><path class="cls-2" d="M446.52,217.56l-8.34,22.12h-3.84l-8.11-22.12h3.84l6.24,16.89,6.42-16.89Z"/><path class="cls-2" d="M452,229.8a6.9,6.9,0,0,0,1.44,4,7.21,7.21,0,0,0,5.95,3,7.67,7.67,0,0,0,6.62-3.79l3.21,1.2a10.83,10.83,0,0,1-9.83,6c-6.57,0-11.27-4.8-11.27-11.52S452.76,217,459.24,217a11,11,0,0,1,11.22,11.32c0,.29,0,.91,0,1.44Zm14.59-2.69a6.86,6.86,0,0,0-1.25-3.79,7.59,7.59,0,0,0-6.09-3,7.09,7.09,0,0,0-5.95,3.07,8.77,8.77,0,0,0-1.25,3.74Z"/><path class="cls-2" d="M479.38,217.56v3.75a6.17,6.17,0,0,1,2-2.93,7,7,0,0,1,4.22-1.34h.86v3.69a7.78,7.78,0,0,0-1,0,5.67,5.67,0,0,0-4.8,2.54c-1,1.4-1.3,2.69-1.3,5.23v11.23h-3.64V217.56Z"/><path class="cls-2" d="M494.25,239.68h-3.64v-32h3.64v13.67c2.21-3,4.56-4.31,7.77-4.31,6.19,0,10.51,4.79,10.51,11.65s-4.27,11.52-10.31,11.52c-3.41,0-5.81-1.3-8-4.32Zm0-11c0,5,2.87,8.39,7.19,8.39s7.29-3.31,7.29-8.25-3-8.49-7.15-8.49S494.21,223.8,494.21,228.65Z"/><path class="cls-2" d="M534.65,217.56v14.16c0,3-.58,4.7-2.21,6.18a9.9,9.9,0,0,1-12.76,0,8.09,8.09,0,0,1-2.21-6.14V217.56h3.65v14.06c0,3.12,2,5.32,4.94,5.32a5.25,5.25,0,0,0,3.93-1.67,4.93,4.93,0,0,0,1-3.55V217.56Z"/><path class="cls-2" d="M545,217.56v3.12c1.91-2.59,3.83-3.64,6.57-3.64a7.69,7.69,0,0,1,5.13,1.82c1.39,1.34,1.87,2.88,1.87,5.9v14.92h-3.64V225.57c0-2-.24-3-.82-3.79a4.26,4.26,0,0,0-3.45-1.48,5.49,5.49,0,0,0-4.22,1.87,5.21,5.21,0,0,0-1.44,4v13.48h-3.65V217.56Z"/><path class="cls-2" d="M582.33,207.68H586v32h-3.64v-3.79c-2.21,3-4.56,4.32-7.92,4.32-6.09,0-10.41-4.75-10.41-11.47s4.42-11.7,10.41-11.7a9.48,9.48,0,0,1,7.92,3.88Zm-14.49,21.11c0,4.84,2.93,8.25,7.1,8.25s7.39-3.55,7.39-8.35c0-5-2.93-8.39-7.15-8.39S567.84,223.75,567.84,228.79Z"/><path class="cls-2" d="M609.81,229.8a6.9,6.9,0,0,0,1.44,4,7.21,7.21,0,0,0,6,3,7.66,7.66,0,0,0,6.62-3.79l3.22,1.2a10.85,10.85,0,0,1-9.84,6c-6.57,0-11.27-4.8-11.27-11.52S610.58,217,617.06,217a11,11,0,0,1,11.22,11.32c0,.29,0,.91,0,1.44Zm14.59-2.69a6.86,6.86,0,0,0-1.25-3.79,7.59,7.59,0,0,0-6.09-3,7.09,7.09,0,0,0-5.95,3.07,8.77,8.77,0,0,0-1.25,3.74Z"/><path class="cls-2" d="M637.2,217.56v3.75a6.31,6.31,0,0,1,2-2.93,7,7,0,0,1,4.22-1.34h.86v3.69a7.7,7.7,0,0,0-1,0,5.67,5.67,0,0,0-4.8,2.54c-1,1.4-1.3,2.69-1.3,5.23v11.23h-3.64V217.56Z"/><path class="cls-2" d="M652.07,220.63c2-2.49,4-3.59,6.67-3.59a7.38,7.38,0,0,1,5.14,2c1.2,1.2,1.72,2.93,1.72,5.76v14.87H662V225c0-3-1.49-4.7-4.13-4.7a5.66,5.66,0,0,0-4.32,2,5.82,5.82,0,0,0-1.44,4.47v13h-3.64v-32h3.64Z"/><path class="cls-2" d="M689.49,217.56h3.65v22.12h-3.65v-4.27c-2.2,3.31-4.7,4.8-8.06,4.8-6.09,0-10.41-4.8-10.41-11.52S675.44,217,681.53,217a9.24,9.24,0,0,1,8,4.17Zm-12.81,5.38a10.08,10.08,0,0,0-1.82,5.85c0,4.7,3.07,8.25,7.1,8.25,4.22,0,7.58-3.89,7.58-8.63s-3.07-8.11-7.48-8.11A6,6,0,0,0,676.68,222.94Zm4-11.66a2.26,2.26,0,1,1-2.26-2.3A2.19,2.19,0,0,1,680.67,211.28Zm9.59,0A2.26,2.26,0,1,1,688,209,2.19,2.19,0,0,1,690.26,211.28Z"/><path class="cls-2" d="M700.48,239.68v-32h3.64v32Z"/><path class="cls-2" d="M715.35,235.17c0,1.1.33,1.34,1.68,1.34h1.68v3.17H715.3c-2.59-.05-3.6-1-3.6-3.46V220.78h-3.07v-3.22h3.07v-6.95h3.65v6.95h3.36v3.22h-3.36Z"/><path class="cls-2" d="M723.5,247.31l-2.64-.82,4-11.66,3.46,1.11Z"/><path class="cls-2" d="M765.91,207.68h3.64v32h-3.64v-3.79c-2.21,3-4.56,4.32-7.92,4.32-6.09,0-10.41-4.75-10.41-11.47S752,217,758,217a9.48,9.48,0,0,1,7.92,3.88Zm-14.49,21.11c0,4.84,2.93,8.25,7.1,8.25s7.39-3.55,7.39-8.35c0-5-2.93-8.39-7.15-8.39S751.42,223.75,751.42,228.79Z"/><path class="cls-2" d="M793.39,217.56H797v22.12h-3.65v-4.27c-2.2,3.31-4.7,4.8-8.06,4.8-6.09,0-10.41-4.8-10.41-11.52S779.34,217,785.43,217a9.23,9.23,0,0,1,8,4.17Zm-12.8,5.38a10,10,0,0,0-1.83,5.85c0,4.7,3.07,8.25,7.1,8.25s7.58-3.89,7.58-8.63-3.07-8.11-7.48-8.11A6,6,0,0,0,780.59,222.94Z"/><path class="cls-2" d="M814.55,223.61v-.24c0-2.06-1.68-3.36-4.22-3.36s-4,1.25-4,3.17,1,2.63,4.94,3.74c2.83.77,4.32,1.49,5.37,2.54a6.2,6.2,0,0,1,1.78,4.32c0,3.84-3.17,6.43-7.87,6.43-5,0-7.87-2.35-8.25-6.82h3.6c.23,2.5,1.87,3.84,4.65,3.84,2.49,0,4.12-1.29,4.12-3.26s-1.24-2.88-5-3.84c-4.8-1.29-7-3.31-7-6.67,0-3.83,3.12-6.42,7.77-6.42s7.53,2.39,7.73,6.57Z"/><path class="cls-2" d="M847.46,239.68h-4V211.13h-8.16v-3.45h20.29v3.45h-8.1Z"/><path class="cls-2" d="M864,211.37a2.31,2.31,0,0,1-2.35,2.31,2.35,2.35,0,0,1,.05-4.7A2.32,2.32,0,0,1,864,211.37Zm-.52,28.31h-3.65V217.56h3.65Z"/><path class="cls-2" d="M888,236.94a11.33,11.33,0,0,1-8.16,3.27c-6.33,0-10.84-4.8-10.84-11.52s4.56-11.65,11-11.65a10.94,10.94,0,0,1,8.06,3.31l-2.35,2.35a8.13,8.13,0,0,0-5.62-2.31c-4.36,0-7.39,3.36-7.39,8.16s3,8.3,7.34,8.3a7.76,7.76,0,0,0,5.67-2.4Z"/><path class="cls-2" d="M895.86,239.68h-3.65v-32h3.65v19.57l8.82-9.69h4.61l-9.88,10.8,9.83,11.32h-4.56l-8.82-9.88Z"/><path class="cls-2" d="M914.42,229.8a6.9,6.9,0,0,0,1.44,4,7.21,7.21,0,0,0,5.95,3,7.67,7.67,0,0,0,6.62-3.79l3.21,1.2a10.83,10.83,0,0,1-9.83,6c-6.57,0-11.27-4.8-11.27-11.52S915.19,217,921.67,217a11,11,0,0,1,11.22,11.32c0,.29,0,.91,0,1.44ZM929,227.11a6.86,6.86,0,0,0-1.25-3.79,7.59,7.59,0,0,0-6.09-3,7.09,7.09,0,0,0-5.95,3.07,8.77,8.77,0,0,0-1.25,3.74Z"/><path class="cls-2" d="M941.67,235.17c.05,1.1.34,1.34,1.68,1.34H945v3.17h-3.41c-2.59-.05-3.6-1-3.6-3.46V220.78H935v-3.22H938v-6.95h3.65v6.95H945v3.22h-3.36Z"/><path class="cls-2" d="M968.77,211.37a2.31,2.31,0,0,1-2.35,2.31,2.35,2.35,0,0,1,.05-4.7A2.32,2.32,0,0,1,968.77,211.37Zm-.53,28.31H964.6V217.56h3.64Z"/><path class="cls-2" d="M985.8,223.61v-.24c0-2.06-1.68-3.36-4.22-3.36s-4,1.25-4,3.17,1,2.63,4.94,3.74c2.83.77,4.32,1.49,5.37,2.54a6.15,6.15,0,0,1,1.78,4.32c0,3.84-3.17,6.43-7.87,6.43-5,0-7.87-2.35-8.25-6.82h3.6c.24,2.5,1.87,3.84,4.65,3.84,2.49,0,4.13-1.29,4.13-3.26s-1.25-2.88-5-3.84c-4.8-1.29-7-3.31-7-6.67,0-3.83,3.12-6.42,7.77-6.42s7.53,2.39,7.73,6.57Z"/><path class="cls-2" d="M999.18,235.17c.05,1.1.34,1.34,1.68,1.34h1.68v3.17h-3.4c-2.59-.05-3.6-1-3.6-3.46V220.78h-3.07v-3.22h3.07v-6.95h3.64v6.95h3.36v3.22h-3.36Z"/><path class="cls-2" d="M1024,217.56h3.64v22.12H1024v-4.27c-2.21,3.31-4.7,4.8-8.06,4.8-6.1,0-10.41-4.8-10.41-11.52S1009.93,217,1016,217a9.26,9.26,0,0,1,8,4.17Zm-12.81,5.38a10.09,10.09,0,0,0-1.83,5.85c0,4.7,3.07,8.25,7.1,8.25s7.58-3.89,7.58-8.63-3.07-8.11-7.48-8.11A6,6,0,0,0,1011.18,222.94Z"/><path class="cls-2" d="M1051.52,217.56v14.16c0,3-.57,4.7-2.21,6.18a9.9,9.9,0,0,1-12.76,0,8.12,8.12,0,0,1-2.2-6.14V217.56H1038v14.06c0,3.12,2,5.32,4.94,5.32a5.26,5.26,0,0,0,3.94-1.67,4.93,4.93,0,0,0,1-3.55V217.56Z"/><path class="cls-2" d="M1062.27,239.68h-3.65v-18.9h-3v-3.22h3v-3c0-4.37,2.25-7,6.09-7a8.24,8.24,0,0,1,1,.05v3.26c-2.64.29-3.36,1.06-3.45,3.65v3h3.45v3.22h-3.45Z"/><path class="cls-2" d="M1089.22,211.37a2.31,2.31,0,0,1-2.35,2.31,2.35,2.35,0,0,1,.05-4.7A2.32,2.32,0,0,1,1089.22,211.37Zm-.52,28.31h-3.65V217.56h3.65Z"/><path class="cls-2" d="M1099.68,220.63c2-2.49,4-3.59,6.67-3.59a7.36,7.36,0,0,1,5.13,2c1.2,1.2,1.73,2.93,1.73,5.76v14.87h-3.65V225c0-3-1.48-4.7-4.12-4.7a5.64,5.64,0,0,0-4.32,2,5.82,5.82,0,0,0-1.44,4.47v13H1096v-32h3.64Z"/><path class="cls-2" d="M1124.05,217.56v3.12c1.92-2.59,3.84-3.64,6.57-3.64a7.72,7.72,0,0,1,5.14,1.82c1.39,1.34,1.87,2.88,1.87,5.9v14.92H1134V225.57c0-2-.24-3-.81-3.79a4.28,4.28,0,0,0-3.46-1.48,5.49,5.49,0,0,0-4.22,1.87,5.21,5.21,0,0,0-1.44,4v13.48h-3.65V217.56Z"/><path class="cls-2" d="M1146.93,229.8a6.9,6.9,0,0,0,1.44,4,7.21,7.21,0,0,0,6,3,7.67,7.67,0,0,0,6.62-3.79l3.21,1.2a10.83,10.83,0,0,1-9.83,6c-6.57,0-11.27-4.8-11.27-11.52S1147.7,217,1154.18,217a11,11,0,0,1,11.22,11.32c0,.29,0,.91-.05,1.44Zm14.59-2.69a6.86,6.86,0,0,0-1.25-3.79,7.59,7.59,0,0,0-6.09-3,7.09,7.09,0,0,0-6,3.07,8.77,8.77,0,0,0-1.25,3.74Z"/><path class="cls-2" d="M1174.32,217.56v3.12c1.92-2.59,3.84-3.64,6.57-3.64a7.72,7.72,0,0,1,5.14,1.82c1.39,1.34,1.87,2.88,1.87,5.9v14.92h-3.65V225.57c0-2-.24-3-.81-3.79a4.27,4.27,0,0,0-3.46-1.48,5.5,5.5,0,0,0-4.22,1.87,5.24,5.24,0,0,0-1.44,4v13.48h-3.64V217.56Z"/><path class="cls-2" d="M1225.84,217.56h3.65v22.26c0,3.7-.91,6.19-2.93,8.11a11.36,11.36,0,0,1-8.15,2.93,12.48,12.48,0,0,1-9.79-4l2.5-2.5a12.13,12.13,0,0,0,2.11,1.92,10.69,10.69,0,0,0,5.18,1.3,8,8,0,0,0,5.75-2.16,7.55,7.55,0,0,0,1.68-5.28v-4.65c-2.16,3.26-4.7,4.75-8.15,4.75-5.86,0-10.22-4.94-10.22-11.52a12.65,12.65,0,0,1,3.5-9.06,9.71,9.71,0,0,1,7-2.59c3.35,0,5.61,1.24,7.86,4.31Zm-14.53,11c0,4.75,3.07,8.3,7.24,8.3a7.49,7.49,0,0,0,5.61-2.69,8.92,8.92,0,0,0,1.59-5.47c0-2.88-.43-4.41-1.73-5.85a7.5,7.5,0,0,0-5.37-2.45C1214.33,220.39,1211.31,223.75,1211.31,228.55Z"/><path class="cls-2" d="M1238.75,229.8a6.83,6.83,0,0,0,1.44,4,7.19,7.19,0,0,0,5.94,3,7.65,7.65,0,0,0,6.62-3.79l3.22,1.2a10.83,10.83,0,0,1-9.84,6c-6.57,0-11.27-4.8-11.27-11.52S1239.51,217,1246,217a11,11,0,0,1,11.23,11.32c0,.29,0,.91,0,1.44Zm14.58-2.69a6.79,6.79,0,0,0-1.25-3.79,7.58,7.58,0,0,0-6.09-3,7.11,7.11,0,0,0-6,3.07,8.77,8.77,0,0,0-1.25,3.74Z"/><path class="cls-2" d="M1272.61,223.61v-.24c0-2.06-1.68-3.36-4.22-3.36s-4,1.25-4,3.17,1,2.63,4.94,3.74c2.83.77,4.32,1.49,5.37,2.54a6.15,6.15,0,0,1,1.78,4.32c0,3.84-3.17,6.43-7.87,6.43-5,0-7.87-2.35-8.25-6.82h3.6c.24,2.5,1.87,3.84,4.65,3.84,2.5,0,4.13-1.29,4.13-3.26s-1.25-2.88-5-3.84c-4.8-1.29-7-3.31-7-6.67,0-3.83,3.12-6.42,7.78-6.42s7.53,2.39,7.72,6.57Z"/><path class="cls-2" d="M1285.56,217.56v4c2.12-3.26,4.37-4.55,8.06-4.55,6.14,0,10.41,4.7,10.41,11.41,0,7-4.27,11.76-10.41,11.76a10.68,10.68,0,0,1-4.84-1.15,8,8,0,0,1-3.22-2.84V250h-3.64V217.56Zm0,11.42c0,4.85,2.93,8.06,7.3,8.06s7.29-3.41,7.29-8.44a8.62,8.62,0,0,0-1.92-6,7.15,7.15,0,0,0-5.23-2.3C1288.59,220.3,1285.56,223.8,1285.56,229Z"/><path class="cls-2" d="M1311.66,229.8a6.9,6.9,0,0,0,1.44,4,7.21,7.21,0,0,0,6,3,7.67,7.67,0,0,0,6.62-3.79l3.21,1.2a10.83,10.83,0,0,1-9.83,6c-6.57,0-11.28-4.8-11.28-11.52S1312.43,217,1318.9,217a11,11,0,0,1,11.23,11.32c0,.29,0,.91-.05,1.44Zm14.58-2.69a6.86,6.86,0,0,0-1.24-3.79,7.6,7.6,0,0,0-6.1-3,7.09,7.09,0,0,0-5.94,3.07,8.63,8.63,0,0,0-1.25,3.74Z"/><path class="cls-2" d="M1339.58,211.37a2.32,2.32,0,0,1-2.35,2.31,2.35,2.35,0,0,1,0-4.7A2.32,2.32,0,0,1,1339.58,211.37Zm-.53,28.31h-3.64V217.56h3.64Z"/><path class="cls-2" d="M1363.61,236.94a11.31,11.31,0,0,1-8.15,3.27c-6.34,0-10.84-4.8-10.84-11.52s4.55-11.65,11-11.65a10.91,10.91,0,0,1,8.06,3.31l-2.35,2.35a8.11,8.11,0,0,0-5.61-2.31c-4.37,0-7.39,3.36-7.39,8.16s3,8.3,7.34,8.3a7.74,7.74,0,0,0,5.66-2.4Z"/><path class="cls-2" d="M1371.43,220.63c2-2.49,4-3.59,6.67-3.59a7.36,7.36,0,0,1,5.13,2c1.2,1.2,1.73,2.93,1.73,5.76v14.87h-3.65V225c0-3-1.48-4.7-4.12-4.7a5.64,5.64,0,0,0-4.32,2,5.82,5.82,0,0,0-1.44,4.47v13h-3.64v-32h3.64Z"/><path class="cls-2" d="M1394.26,229.8a7,7,0,0,0,1.44,4,7.21,7.21,0,0,0,6,3,7.65,7.65,0,0,0,6.62-3.79l3.22,1.2a10.85,10.85,0,0,1-9.84,6c-6.57,0-11.27-4.8-11.27-11.52S1395,217,1401.51,217a11,11,0,0,1,11.22,11.32c0,.29,0,.91,0,1.44Zm14.59-2.69a6.79,6.79,0,0,0-1.25-3.79,7.58,7.58,0,0,0-6.09-3,7.11,7.11,0,0,0-6,3.07,8.77,8.77,0,0,0-1.25,3.74Z"/><path class="cls-2" d="M1421.66,217.56v3.75a6.23,6.23,0,0,1,2-2.93,7,7,0,0,1,4.22-1.34h.87v3.69a7.92,7.92,0,0,0-1,0,5.67,5.67,0,0,0-4.8,2.54c-1,1.4-1.29,2.69-1.29,5.23v11.23H1418V217.56Z"/><path class="cls-2" d="M1438.16,235.17c0,1.1.33,1.34,1.68,1.34h1.67v3.17h-3.4c-2.59-.05-3.6-1-3.6-3.46V220.78h-3.07v-3.22h3.07v-6.95h3.65v6.95h3.35v3.22h-3.35Z"/><path class="cls-2" d="M1451.35,237.62a2.5,2.5,0,1,1-2.5-2.55A2.43,2.43,0,0,1,1451.35,237.62Z"/><path class="cls-2" d="M161.67,322.81h8.5c9.64,0,15.44,5.85,15.44,15.5,0,5.42-1.77,9.88-5,12.81-2.79,2.49-6.48,3.69-11.13,3.69h-7.78Zm4,28.55h1.44c5.42,0,7.73-.58,10-2.4,2.88-2.31,4.32-5.86,4.32-10.61,0-7.72-4.13-12.13-11.47-12.13H165.7Z"/><path class="cls-2" d="M195.54,326.5a2.31,2.31,0,0,1-2.35,2.31,2.35,2.35,0,0,1,.05-4.7A2.32,2.32,0,0,1,195.54,326.5ZM195,354.81h-3.64V332.69H195Z"/><path class="cls-2" d="M204.46,344.93a7,7,0,0,0,1.44,4,7.21,7.21,0,0,0,5.95,3,7.65,7.65,0,0,0,6.62-3.79l3.22,1.2a10.85,10.85,0,0,1-9.84,5.95c-6.57,0-11.27-4.8-11.27-11.52s4.65-11.65,11.13-11.65a11,11,0,0,1,11.22,11.32c0,.29,0,.91,0,1.44Zm14.59-2.69a6.86,6.86,0,0,0-1.25-3.79,7.59,7.59,0,0,0-6.09-3,7.09,7.09,0,0,0-6,3.07,8.82,8.82,0,0,0-1.25,3.74Z"/><path class="cls-2" d="M244.61,346.22c.2,3.65,2.16,5.57,5.67,5.57s6.14-2.21,6.14-5.42c0-2.79-1.44-4.08-6.48-5.76-3.79-1.3-5-1.92-6.48-3.22a7.93,7.93,0,0,1-2.49-6c0-5.42,3.88-9.11,9.54-9.11s9.36,3.59,9.5,9.16h-4a6.13,6.13,0,0,0-.76-3.31,5.6,5.6,0,0,0-4.75-2.26,5.11,5.11,0,0,0-5.42,5.23,4.45,4.45,0,0,0,1.82,3.7c1,.72,1.87,1.1,5.13,2.25,3.41,1.2,5,2.06,6.33,3.46a8.18,8.18,0,0,1,2.16,5.66c0,5.51-4.07,9.26-10.07,9.26-4.08,0-6.86-1.44-8.54-4.32a7.88,7.88,0,0,1-1.1-4.18v-.67Z"/><path class="cls-2" d="M270,350.3c.05,1.1.34,1.34,1.68,1.34h1.68v3.17h-3.41c-2.59-.05-3.6-1-3.6-3.45V335.91h-3.07v-3.22h3.07v-6.95H270v6.95h3.36v3.22H270Z"/><path class="cls-2" d="M294.79,332.69h3.65v22.12h-3.65v-4.27c-2.21,3.31-4.7,4.8-8.06,4.8-6.09,0-10.41-4.8-10.41-11.52s4.42-11.65,10.51-11.65a9.24,9.24,0,0,1,8,4.17ZM282,338.07a10.08,10.08,0,0,0-1.82,5.85c0,4.7,3.07,8.25,7.1,8.25s7.58-3.89,7.58-8.63-3.07-8.11-7.48-8.11A6,6,0,0,0,282,338.07Z"/><path class="cls-2" d="M309.42,332.69v3.12c1.92-2.59,3.84-3.64,6.57-3.64a7.72,7.72,0,0,1,5.14,1.82c1.39,1.34,1.87,2.88,1.87,5.9v14.92h-3.65v-14.1c0-2-.24-3-.81-3.79a4.24,4.24,0,0,0-3.46-1.49,5.49,5.49,0,0,0-4.22,1.87,5.24,5.24,0,0,0-1.44,4v13.48h-3.64V332.69Z"/><path class="cls-2" d="M346.74,322.81h3.65v32h-3.65V351c-2.2,3-4.55,4.32-7.91,4.32-6.09,0-10.41-4.75-10.41-11.47s4.41-11.7,10.41-11.7a9.49,9.49,0,0,1,7.91,3.88Zm-14.48,21.11c0,4.84,2.92,8.25,7.1,8.25s7.38-3.55,7.38-8.35c0-5-2.92-8.39-7.14-8.39C335.23,335.43,332.26,338.88,332.26,343.92Z"/><path class="cls-2" d="M374.23,332.69h3.65v22.12h-3.65v-4.27c-2.21,3.31-4.7,4.8-8.06,4.8-6.09,0-10.41-4.8-10.41-11.52s4.41-11.65,10.51-11.65a9.25,9.25,0,0,1,8,4.17Zm-12.81,5.38a10.08,10.08,0,0,0-1.82,5.85c0,4.7,3.07,8.25,7.1,8.25s7.58-3.89,7.58-8.63-3.07-8.11-7.49-8.11A6,6,0,0,0,361.42,338.07Z"/><path class="cls-2" d="M388.86,332.69v3.75a6.17,6.17,0,0,1,2-2.93,6.92,6.92,0,0,1,4.22-1.34H396v3.69a7.84,7.84,0,0,0-1-.05,5.66,5.66,0,0,0-4.79,2.54c-1,1.4-1.3,2.69-1.3,5.23v11.23h-3.65V332.69Z"/><path class="cls-2" d="M416.25,322.81h3.65v32h-3.65V351c-2.2,3-4.55,4.32-7.91,4.32-6.09,0-10.41-4.75-10.41-11.47s4.41-11.7,10.41-11.7a9.49,9.49,0,0,1,7.91,3.88Zm-14.48,21.11c0,4.84,2.92,8.25,7.1,8.25s7.38-3.55,7.38-8.35c0-5-2.92-8.39-7.14-8.39C404.74,335.43,401.77,338.88,401.77,343.92Z"/><path class="cls-2" d="M433.52,344.83h-9.93v-3.31h9.93Z"/><path class="cls-2" d="M446,354.81h-4V326.27h-8.15v-3.46h20.29v3.46H446Z"/><path class="cls-2" d="M476.7,343.82a11.3,11.3,0,0,1-11.33,11.52c-6.57,0-11.17-4.8-11.17-11.61s4.6-11.56,11.32-11.56C472,332.17,476.7,337,476.7,343.82Zm-18.76,0c0,4.89,3,8.2,7.53,8.2s7.48-3.41,7.48-8.2c0-4.95-3-8.26-7.43-8.26S457.94,338.83,457.94,343.78Z"/><path class="cls-2" d="M485.91,354.81h-3.65v-32h3.65v19.57l8.82-9.69h4.61l-9.88,10.8,9.83,11.32h-4.56l-8.82-9.88Z"/><path class="cls-2" d="M504.47,344.93a6.9,6.9,0,0,0,1.44,4,7.21,7.21,0,0,0,5.95,3,7.67,7.67,0,0,0,6.62-3.79l3.21,1.2a10.83,10.83,0,0,1-9.83,5.95c-6.57,0-11.28-4.8-11.28-11.52s4.66-11.65,11.13-11.65a11,11,0,0,1,11.23,11.32c0,.29,0,.91-.05,1.44Zm14.58-2.69a6.86,6.86,0,0,0-1.24-3.79,7.6,7.6,0,0,0-6.1-3,7.12,7.12,0,0,0-5.95,3.07,8.82,8.82,0,0,0-1.24,3.74Z"/><path class="cls-2" d="M531.86,332.69v3.12c1.92-2.59,3.84-3.64,6.57-3.64a7.72,7.72,0,0,1,5.14,1.82c1.39,1.34,1.87,2.88,1.87,5.9v14.92h-3.65v-14.1c0-2-.24-3-.81-3.79a4.26,4.26,0,0,0-3.46-1.49,5.49,5.49,0,0,0-4.22,1.87,5.21,5.21,0,0,0-1.44,4v13.48h-3.65V332.69Z"/><path class="cls-2" d="M570.67,354.81H567v-32h3.65v13.67c2.21-3,4.56-4.31,7.77-4.31,6.19,0,10.51,4.79,10.51,11.65s-4.27,11.52-10.32,11.52c-3.4,0-5.8-1.3-8-4.32Zm0-11c0,5,2.88,8.39,7.2,8.39s7.29-3.31,7.29-8.25-3-8.49-7.15-8.49S570.62,338.93,570.62,343.78Z"/><path class="cls-2" d="M596.62,344.93a6.9,6.9,0,0,0,1.44,4,7.21,7.21,0,0,0,6,3,7.67,7.67,0,0,0,6.62-3.79l3.21,1.2a10.83,10.83,0,0,1-9.83,5.95c-6.57,0-11.28-4.8-11.28-11.52s4.66-11.65,11.13-11.65a11,11,0,0,1,11.23,11.32c0,.29,0,.91-.05,1.44Zm14.58-2.69a6.86,6.86,0,0,0-1.24-3.79,7.6,7.6,0,0,0-6.1-3,7.09,7.09,0,0,0-5.94,3.07,8.68,8.68,0,0,0-1.25,3.74Z"/><path class="cls-2" d="M623.72,354.81h-3.64v-32h3.64v19.57l8.83-9.69h4.61l-9.89,10.8,9.84,11.32h-4.56l-8.83-9.88Z"/><path class="cls-2" d="M660.9,343.82a11.3,11.3,0,0,1-11.32,11.52c-6.57,0-11.18-4.8-11.18-11.61s4.61-11.56,11.32-11.56C656.25,332.17,660.9,337,660.9,343.82Zm-18.76,0c0,4.89,3,8.2,7.53,8.2s7.49-3.41,7.49-8.2c0-4.95-3-8.26-7.44-8.26S642.14,338.83,642.14,343.78Z"/><path class="cls-2" d="M670.11,332.69v3.07c1.68-2.54,3.55-3.59,6.28-3.59,3,0,4.94,1.29,6,4a7.24,7.24,0,0,1,7-4c2.54,0,4.46.81,5.61,2.35s1.34,2.64,1.34,6.14v14.15h-3.64V341.52c0-2.69-.1-3.31-.63-4.22a4.31,4.31,0,0,0-3.83-1.87c-3.22,0-5,2.16-5,6.09v13.29h-3.65V341.57a8.27,8.27,0,0,0-.72-4.22,3.8,3.8,0,0,0-3.6-1.92c-3.21,0-5.13,2.3-5.13,6.14v13.24h-3.65V332.69Z"/><path class="cls-2" d="M707.14,332.69v3.07c1.68-2.54,3.55-3.59,6.29-3.59,3,0,4.94,1.29,6,4a7.23,7.23,0,0,1,7-4c2.54,0,4.46.81,5.61,2.35s1.35,2.64,1.35,6.14v14.15h-3.65V341.52c0-2.69-.1-3.31-.62-4.22a4.33,4.33,0,0,0-3.84-1.87c-3.22,0-5,2.16-5,6.09v13.29h-3.65V341.57a8.27,8.27,0,0,0-.72-4.22,3.79,3.79,0,0,0-3.59-1.92c-3.22,0-5.14,2.3-5.14,6.14v13.24H703.5V332.69Z"/><path class="cls-2" d="M744.42,350.3c0,1.1.33,1.34,1.67,1.34h1.68v3.17h-3.4c-2.59-.05-3.6-1-3.6-3.45V335.91H737.7v-3.22h3.07v-6.95h3.65v6.95h3.35v3.22h-3.35Z"/><path class="cls-2" d="M771,332.69v3.07c1.68-2.54,3.55-3.59,6.28-3.59,3,0,5,1.29,6,4a7.24,7.24,0,0,1,7-4c2.54,0,4.46.81,5.61,2.35s1.34,2.64,1.34,6.14v14.15h-3.64V341.52c0-2.69-.1-3.31-.63-4.22a4.31,4.31,0,0,0-3.83-1.87c-3.22,0-5,2.16-5,6.09v13.29h-3.65V341.57a8.27,8.27,0,0,0-.72-4.22,3.8,3.8,0,0,0-3.6-1.92c-3.21,0-5.13,2.3-5.13,6.14v13.24h-3.65V332.69Z"/><path class="cls-2" d="M821.07,332.69h3.65v22.12h-3.65v-4.27c-2.2,3.31-4.7,4.8-8.06,4.8-6.09,0-10.41-4.8-10.41-11.52s4.42-11.65,10.51-11.65a9.24,9.24,0,0,1,8,4.17Zm-12.81,5.38a10.08,10.08,0,0,0-1.82,5.85c0,4.7,3.07,8.25,7.1,8.25s7.58-3.89,7.58-8.63-3.07-8.11-7.48-8.11A6,6,0,0,0,808.26,338.07Z"/><path class="cls-2" d="M835.7,332.69v3.12c1.92-2.59,3.84-3.64,6.57-3.64a7.72,7.72,0,0,1,5.14,1.82c1.39,1.34,1.87,2.88,1.87,5.9v14.92h-3.65v-14.1c0-2-.24-3-.81-3.79a4.24,4.24,0,0,0-3.46-1.49,5.5,5.5,0,0,0-4.22,1.87,5.24,5.24,0,0,0-1.44,4v13.48h-3.64V332.69Z"/><path class="cls-2" d="M887.56,332.69h3.65v22.12h-3.65v-4.27c-2.21,3.31-4.7,4.8-8.06,4.8-6.09,0-10.41-4.8-10.41-11.52s4.41-11.65,10.5-11.65a9.26,9.26,0,0,1,8,4.17Zm-12.81,5.38a10.08,10.08,0,0,0-1.82,5.85c0,4.7,3.07,8.25,7.1,8.25s7.58-3.89,7.58-8.63-3.07-8.11-7.49-8.11A6,6,0,0,0,874.75,338.07Z"/><path class="cls-2" d="M902.19,332.69v3.12c1.92-2.59,3.84-3.64,6.57-3.64a7.67,7.67,0,0,1,5.13,1.82c1.4,1.34,1.87,2.88,1.87,5.9v14.92h-3.64v-14.1c0-2-.24-3-.82-3.79a4.22,4.22,0,0,0-3.45-1.49,5.49,5.49,0,0,0-4.22,1.87,5.21,5.21,0,0,0-1.44,4v13.48h-3.65V332.69Z"/><path class="cls-2" d="M953.9,322.81h3.65v32H953.9V351c-2.21,3-4.56,4.32-7.91,4.32-6.1,0-10.41-4.75-10.41-11.47s4.41-11.7,10.41-11.7a9.49,9.49,0,0,1,7.91,3.88Zm-14.49,21.11c0,4.84,2.93,8.25,7.1,8.25s7.39-3.55,7.39-8.35c0-5-2.93-8.39-7.15-8.39S939.41,338.88,939.41,343.92Z"/><path class="cls-2" d="M967,344.93a6.83,6.83,0,0,0,1.44,4,7.2,7.2,0,0,0,5.94,3,7.65,7.65,0,0,0,6.62-3.79l3.22,1.2a10.83,10.83,0,0,1-9.84,5.95c-6.57,0-11.27-4.8-11.27-11.52s4.65-11.65,11.13-11.65a11,11,0,0,1,11.23,11.32c0,.29,0,.91-.05,1.44Zm14.58-2.69a6.79,6.79,0,0,0-1.25-3.79,7.58,7.58,0,0,0-6.09-3,7.11,7.11,0,0,0-6,3.07,8.82,8.82,0,0,0-1.25,3.74Z"/><path class="cls-2" d="M994.39,332.69v3.12c1.92-2.59,3.83-3.64,6.57-3.64a7.69,7.69,0,0,1,5.13,1.82c1.39,1.34,1.87,2.88,1.87,5.9v14.92h-3.64v-14.1c0-2-.24-3-.82-3.79a4.22,4.22,0,0,0-3.45-1.49,5.49,5.49,0,0,0-4.22,1.87,5.21,5.21,0,0,0-1.44,4v13.48h-3.65V332.69Z"/><path class="cls-2" d="M1033.53,337h12.62v3.46h-12.62v10.94h12.62v3.45H1029.5v-32h16.65v3.46h-12.62Z"/><path class="cls-2" d="M1056.08,326.5a2.32,2.32,0,0,1-2.35,2.31,2.35,2.35,0,0,1,0-4.7A2.32,2.32,0,0,1,1056.08,326.5Zm-.53,28.31h-3.65V332.69h3.65Z"/><path class="cls-2" d="M1066.53,332.69v3.12c1.92-2.59,3.84-3.64,6.58-3.64a7.71,7.71,0,0,1,5.13,1.82c1.39,1.34,1.87,2.88,1.87,5.9v14.92h-3.65v-14.1c0-2-.24-3-.81-3.79a4.24,4.24,0,0,0-3.46-1.49,5.5,5.5,0,0,0-4.22,1.87,5.24,5.24,0,0,0-1.44,4v13.48h-3.64V332.69Z"/><path class="cls-2" d="M1103.57,332.69h3.64V355c0,3.7-.91,6.19-2.92,8.11a11.4,11.4,0,0,1-8.16,2.93,12.5,12.5,0,0,1-9.79-4l2.5-2.5a12.91,12.91,0,0,0,2.11,1.92,10.72,10.72,0,0,0,5.18,1.3,8,8,0,0,0,5.76-2.16,7.6,7.6,0,0,0,1.68-5.28v-4.65c-2.16,3.26-4.7,4.75-8.16,4.75-5.85,0-10.22-4.94-10.22-11.52a12.66,12.66,0,0,1,3.51-9.06,9.69,9.69,0,0,1,7-2.59c3.36,0,5.61,1.24,7.87,4.31Zm-14.54,11c0,4.75,3.07,8.3,7.25,8.3a7.49,7.49,0,0,0,5.61-2.69,8.92,8.92,0,0,0,1.58-5.47c0-2.88-.43-4.41-1.73-5.85a7.48,7.48,0,0,0-5.37-2.45C1092.05,335.52,1089,338.88,1089,343.68Z"/><path class="cls-2" d="M1131.05,332.69h3.65v22.12h-3.65v-4.27c-2.2,3.31-4.7,4.8-8,4.8-6.1,0-10.42-4.8-10.42-11.52s4.42-11.65,10.51-11.65a9.23,9.23,0,0,1,8,4.17Zm-12.8,5.38a10,10,0,0,0-1.83,5.85c0,4.7,3.07,8.25,7.1,8.25,4.18,0,7.58-3.89,7.58-8.63s-3.07-8.11-7.48-8.11A6,6,0,0,0,1118.25,338.07Z"/><path class="cls-2" d="M1145.68,332.69v3.12c1.92-2.59,3.84-3.64,6.58-3.64a7.71,7.71,0,0,1,5.13,1.82c1.39,1.34,1.87,2.88,1.87,5.9v14.92h-3.64v-14.1c0-2-.24-3-.82-3.79a4.24,4.24,0,0,0-3.45-1.49,5.51,5.51,0,0,0-4.23,1.87,5.24,5.24,0,0,0-1.44,4v13.48H1142V332.69Z"/><path class="cls-2" d="M1182.72,332.69h3.64V355c0,3.7-.91,6.19-2.92,8.11a11.4,11.4,0,0,1-8.16,2.93,12.46,12.46,0,0,1-9.78-4l2.49-2.5a12.91,12.91,0,0,0,2.11,1.92,10.72,10.72,0,0,0,5.18,1.3,8,8,0,0,0,5.76-2.16,7.6,7.6,0,0,0,1.68-5.28v-4.65c-2.16,3.26-4.7,4.75-8.16,4.75-5.85,0-10.22-4.94-10.22-11.52a12.66,12.66,0,0,1,3.51-9.06,9.69,9.69,0,0,1,7-2.59c3.36,0,5.61,1.24,7.87,4.31Zm-14.54,11c0,4.75,3.07,8.3,7.25,8.3a7.49,7.49,0,0,0,5.61-2.69,8.92,8.92,0,0,0,1.58-5.47c0-2.88-.43-4.41-1.73-5.85a7.48,7.48,0,0,0-5.37-2.45C1171.2,335.52,1168.18,338.88,1168.18,343.68Z"/><path class="cls-2" d="M1203.87,338.74v-.24c0-2.06-1.68-3.36-4.22-3.36s-4,1.25-4,3.17,1,2.63,4.94,3.74c2.83.77,4.32,1.49,5.37,2.54a6.15,6.15,0,0,1,1.78,4.32c0,3.84-3.17,6.43-7.87,6.43-5,0-7.87-2.35-8.25-6.82h3.6c.24,2.5,1.87,3.84,4.65,3.84,2.5,0,4.13-1.29,4.13-3.26s-1.25-2.88-5-3.84c-4.8-1.29-7-3.31-7-6.67,0-3.83,3.12-6.42,7.77-6.42s7.54,2.39,7.73,6.57Z"/><path class="cls-2" d="M1216.83,354.81h-3.65v-32h3.65v19.57l8.82-9.69h4.61l-9.88,10.8,9.83,11.32h-4.56l-8.82-9.88Z"/><path class="cls-2" d="M1254,343.82a11.3,11.3,0,0,1-11.32,11.52c-6.57,0-11.18-4.8-11.18-11.61s4.61-11.56,11.32-11.56C1249.35,332.17,1254,337,1254,343.82Zm-18.75,0c0,4.89,3,8.2,7.53,8.2s7.48-3.41,7.48-8.2c0-4.95-3-8.26-7.44-8.26S1235.25,338.83,1235.25,343.78Z"/><path class="cls-2" d="M1263.21,332.69v3.12c1.92-2.59,3.84-3.64,6.57-3.64a7.72,7.72,0,0,1,5.14,1.82c1.39,1.34,1.87,2.88,1.87,5.9v14.92h-3.65v-14.1c0-2-.24-3-.81-3.79a4.24,4.24,0,0,0-3.46-1.49,5.49,5.49,0,0,0-4.22,1.87,5.24,5.24,0,0,0-1.44,4v13.48h-3.64V332.69Z"/><path class="cls-2" d="M1287.87,350.3c.05,1.1.33,1.34,1.68,1.34h1.68v3.17h-3.41c-2.59-.05-3.6-1-3.6-3.45V335.91h-3.07v-3.22h3.07v-6.95h3.65v6.95h3.36v3.22h-3.36Z"/><path class="cls-2" d="M1299.91,332.69v3.75a6.23,6.23,0,0,1,2-2.93,7,7,0,0,1,4.23-1.34h.86v3.69a7.92,7.92,0,0,0-1-.05,5.69,5.69,0,0,0-4.8,2.54c-1,1.4-1.29,2.69-1.29,5.23v11.23h-3.65V332.69Z"/><path class="cls-2" d="M1331.43,343.82a11.3,11.3,0,0,1-11.33,11.52c-6.57,0-11.17-4.8-11.17-11.61s4.6-11.56,11.32-11.56C1326.77,332.17,1331.43,337,1331.43,343.82Zm-18.76,0c0,4.89,3,8.2,7.53,8.2s7.48-3.41,7.48-8.2c0-4.95-3-8.26-7.43-8.26S1312.67,338.83,1312.67,343.78Z"/><path class="cls-2" d="M1337,354.81v-32h3.65v32Z"/><path class="cls-2" d="M1348,354.81v-32h3.65v32Z"/><path class="cls-2" d="M1361.07,344.93a6.9,6.9,0,0,0,1.44,4,7.21,7.21,0,0,0,6,3,7.67,7.67,0,0,0,6.62-3.79l3.21,1.2a10.83,10.83,0,0,1-9.83,5.95c-6.57,0-11.28-4.8-11.28-11.52s4.66-11.65,11.13-11.65a11,11,0,0,1,11.23,11.32c0,.29,0,.91,0,1.44Zm14.58-2.69a6.86,6.86,0,0,0-1.24-3.79,7.6,7.6,0,0,0-6.1-3,7.09,7.09,0,0,0-5.94,3.07,8.68,8.68,0,0,0-1.25,3.74Z"/><path class="cls-2" d="M1388.46,332.69v3.12c1.92-2.59,3.84-3.64,6.57-3.64a7.72,7.72,0,0,1,5.14,1.82c1.39,1.34,1.87,2.88,1.87,5.9v14.92h-3.65v-14.1c0-2-.24-3-.81-3.79a4.26,4.26,0,0,0-3.46-1.49,5.49,5.49,0,0,0-4.22,1.87,5.21,5.21,0,0,0-1.44,4v13.48h-3.65V332.69Z"/><path class="cls-2" d="M165.51,384.07a2.31,2.31,0,0,1-2.35,2.3,2.35,2.35,0,0,1,.05-4.7A2.33,2.33,0,0,1,165.51,384.07Zm-.53,28.3h-3.64V390.26H165Z"/><path class="cls-2" d="M176,390.26v3.07c1.68-2.54,3.55-3.6,6.28-3.6a5.71,5.71,0,0,1,5.95,4,7.24,7.24,0,0,1,7-4c2.54,0,4.46.82,5.61,2.35s1.34,2.64,1.34,6.14v14.15h-3.64V399.09c0-2.69-.1-3.31-.63-4.23a4.32,4.32,0,0,0-3.84-1.87c-3.21,0-5,2.16-5,6.1v13.28h-3.65V399.13a8.27,8.27,0,0,0-.72-4.22,3.8,3.8,0,0,0-3.6-1.92c-3.21,0-5.13,2.31-5.13,6.14v13.24h-3.65V390.26Z"/><path class="cls-2" d="M227.39,414.68c0,3-.52,4.84-1.87,6.28a7.31,7.31,0,0,1-5.56,2.3h-1v-3.45h.53c2.59-.1,4.17-2,4.22-5.13V390.26h3.64Zm.53-30.61a2.31,2.31,0,0,1-2.35,2.3,2.35,2.35,0,0,1,.05-4.7A2.33,2.33,0,0,1,227.92,384.07Z"/><path class="cls-2" d="M236.84,402.49a7,7,0,0,0,1.44,4,7.18,7.18,0,0,0,5.95,3,7.64,7.64,0,0,0,6.62-3.79l3.22,1.2a10.84,10.84,0,0,1-9.84,5.95c-6.57,0-11.27-4.8-11.27-11.51s4.65-11.66,11.13-11.66a11,11,0,0,1,11.22,11.32c0,.29,0,.91-.05,1.44Zm14.59-2.68a6.86,6.86,0,0,0-1.25-3.79,7.57,7.57,0,0,0-6.09-3,7.09,7.09,0,0,0-6,3.07,8.87,8.87,0,0,0-1.25,3.75Z"/><path class="cls-2" d="M289.42,390.26l-7.87,22.11h-3.31l-5.08-16.79-5.33,16.79h-3.45l-7.58-22.11h3.74l5.66,16.26,5.09-16.26h3.59l5,16.26,5.81-16.26Z"/><path class="cls-2" d="M295.08,402.49a6.9,6.9,0,0,0,1.44,4,7.18,7.18,0,0,0,6,3,7.65,7.65,0,0,0,6.62-3.79l3.21,1.2a10.81,10.81,0,0,1-9.83,5.95c-6.58,0-11.28-4.8-11.28-11.51s4.66-11.66,11.13-11.66a11,11,0,0,1,11.23,11.32c0,.29,0,.91-.05,1.44Zm14.58-2.68a6.86,6.86,0,0,0-1.24-3.79,7.59,7.59,0,0,0-6.1-3,7.12,7.12,0,0,0-5.95,3.07,8.87,8.87,0,0,0-1.24,3.75Z"/><path class="cls-2" d="M323,384.07a2.31,2.31,0,0,1-2.35,2.3,2.35,2.35,0,0,1,0-4.7A2.33,2.33,0,0,1,323,384.07Zm-.53,28.3h-3.65V390.26h3.65Z"/><path class="cls-2" d="M329.81,412.37v-32h3.64v32Z"/><path class="cls-2" d="M345,384.07a2.31,2.31,0,0,1-2.35,2.3,2.35,2.35,0,0,1,0-4.7A2.33,2.33,0,0,1,345,384.07Zm-.53,28.3h-3.65V390.26h3.65Z"/><path class="cls-2" d="M368.09,390.26h3.65v22.26c0,3.69-.92,6.19-2.93,8.11a11.44,11.44,0,0,1-8.16,2.92,12.44,12.44,0,0,1-9.78-4l2.49-2.49a13.4,13.4,0,0,0,2.11,1.92,10.84,10.84,0,0,0,5.18,1.29,8,8,0,0,0,5.76-2.16,7.57,7.57,0,0,0,1.68-5.27v-4.66c-2.16,3.27-4.7,4.75-8.16,4.75-5.85,0-10.22-4.94-10.22-11.51a12.68,12.68,0,0,1,3.51-9.07,9.69,9.69,0,0,1,7-2.59c3.36,0,5.61,1.25,7.87,4.32Zm-14.54,11c0,4.75,3.07,8.3,7.25,8.3a7.48,7.48,0,0,0,5.61-2.68,8.94,8.94,0,0,0,1.58-5.47c0-2.88-.43-4.42-1.72-5.85a7.52,7.52,0,0,0-5.38-2.45C356.58,393.09,353.55,396.45,353.55,401.24Z"/><path class="cls-2" d="M381,402.49a6.9,6.9,0,0,0,1.44,4,7.18,7.18,0,0,0,5.95,3,7.64,7.64,0,0,0,6.62-3.79l3.21,1.2a10.81,10.81,0,0,1-9.83,5.95c-6.57,0-11.27-4.8-11.27-11.51s4.65-11.66,11.13-11.66a11,11,0,0,1,11.22,11.32c0,.29,0,.91,0,1.44Zm14.59-2.68a6.86,6.86,0,0,0-1.25-3.79,7.57,7.57,0,0,0-6.09-3,7.09,7.09,0,0,0-5.95,3.07,8.87,8.87,0,0,0-1.25,3.75Z"/><path class="cls-2" d="M408.38,390.26v3.12c1.92-2.59,3.84-3.65,6.58-3.65a7.71,7.71,0,0,1,5.13,1.82c1.39,1.35,1.87,2.88,1.87,5.9v14.92h-3.65v-14.1c0-2-.24-3-.81-3.79A4.27,4.27,0,0,0,414,393a5.53,5.53,0,0,0-4.22,1.87,5.26,5.26,0,0,0-1.44,4v13.48h-3.64V390.26Z"/><path class="cls-2" d="M452.9,380.38c6.52,0,10.22,3.07,10.22,8.49a7.73,7.73,0,0,1-1.83,5.23,6.89,6.89,0,0,1-3.26,2.06,8,8,0,0,1,3.65,1.49,7.59,7.59,0,0,1,2.64,6.14,8.1,8.1,0,0,1-3.46,6.95c-1.87,1.2-3.93,1.63-8,1.63h-9v-32Zm-5,14.39,4.08,0c2.54,0,4.08-.34,5.23-1.25a5.64,5.64,0,0,0,2-4.41,5,5,0,0,0-2.54-4.61c-1.15-.57-2.49-.76-5.42-.76h-3.31Zm0,14.34h4c3.36,0,4.65-.24,6-1.05a4.77,4.77,0,0,0,2.31-4.51c0-3.84-2.26-5.52-7.34-5.52h-5Z"/><path class="cls-2" d="M486.67,390.26h3.65v22.11h-3.65V408.1c-2.21,3.32-4.7,4.8-8.06,4.8-6.09,0-10.41-4.8-10.41-11.51s4.41-11.66,10.51-11.66a9.26,9.26,0,0,1,8,4.17Zm-12.81,5.37a10.1,10.1,0,0,0-1.82,5.85c0,4.71,3.07,8.26,7.1,8.26s7.58-3.89,7.58-8.64-3.07-8.11-7.48-8.11A6,6,0,0,0,473.86,395.63Z"/><path class="cls-2" d="M501.3,393.33c2-2.5,4-3.6,6.67-3.6a7.36,7.36,0,0,1,5.13,2c1.2,1.2,1.73,2.92,1.73,5.75v14.87h-3.65V397.69c0-3-1.48-4.7-4.12-4.7a5.62,5.62,0,0,0-4.32,2,5.8,5.8,0,0,0-1.44,4.46v12.95h-3.64v-32h3.64Z"/><path class="cls-2" d="M525.67,390.26v3.12c1.92-2.59,3.84-3.65,6.57-3.65a7.72,7.72,0,0,1,5.14,1.82c1.39,1.35,1.87,2.88,1.87,5.9v14.92H535.6v-14.1c0-2-.24-3-.81-3.79a4.29,4.29,0,0,0-3.46-1.49,5.52,5.52,0,0,0-4.22,1.87,5.22,5.22,0,0,0-1.44,4v13.48H522V390.26Z"/><path class="cls-2" d="M550.09,393.33c2-2.5,4-3.6,6.66-3.6a7.39,7.39,0,0,1,5.14,2c1.2,1.2,1.73,2.92,1.73,5.75v14.87H560V397.69c0-3-1.49-4.7-4.13-4.7a5.61,5.61,0,0,0-4.31,2c-1.11,1.25-1.44,2.35-1.44,4.46v12.95h-3.65v-32h3.65Z"/><path class="cls-2" d="M591.54,401.39a11.3,11.3,0,0,1-11.33,11.51c-6.57,0-11.17-4.8-11.17-11.61s4.6-11.56,11.32-11.56C586.88,389.73,591.54,394.58,591.54,401.39Zm-18.76-.05c0,4.89,3,8.2,7.53,8.2s7.48-3.4,7.48-8.2-3-8.25-7.43-8.25S572.78,396.4,572.78,401.34Z"/><path class="cls-2" d="M601.13,412.37h-3.65v-18.9h-3v-3.21h3v-3c0-4.36,2.26-6.95,6.09-6.95a8.16,8.16,0,0,1,1,.05v3.26c-2.64.29-3.36,1.05-3.45,3.64v3h3.45v3.21h-3.45Z"/><path class="cls-2" d="M613.26,410.31a2.49,2.49,0,0,1-5-.05,2.49,2.49,0,1,1,5,.05Z"/><path class="cls-2" d="M638.74,412.37h-4v-32h3.69l17.08,24.08V380.38h4v32H656l-17.22-24.46Z"/><path class="cls-2" d="M683.88,390.26h3.64v22.11h-3.64V408.1c-2.21,3.32-4.7,4.8-8.06,4.8-6.1,0-10.41-4.8-10.41-11.51s4.41-11.66,10.5-11.66a9.28,9.28,0,0,1,8,4.17Zm-12.81,5.37a10.1,10.1,0,0,0-1.82,5.85c0,4.71,3.07,8.26,7.09,8.26,4.18,0,7.58-3.89,7.58-8.64s-3.07-8.11-7.48-8.11A6,6,0,0,0,671.07,395.63Z"/><path class="cls-2" d="M712.08,409.64a11.34,11.34,0,0,1-8.15,3.26c-6.33,0-10.84-4.8-10.84-11.51s4.55-11.66,11-11.66a10.94,10.94,0,0,1,8.06,3.31l-2.35,2.35a8.14,8.14,0,0,0-5.61-2.3c-4.37,0-7.39,3.36-7.39,8.15s3,8.3,7.34,8.3a7.77,7.77,0,0,0,5.66-2.39Z"/><path class="cls-2" d="M719.9,393.33c2-2.5,4-3.6,6.67-3.6a7.36,7.36,0,0,1,5.13,2c1.2,1.2,1.73,2.92,1.73,5.75v14.87h-3.65V397.69c0-3-1.48-4.7-4.12-4.7a5.62,5.62,0,0,0-4.32,2,5.8,5.8,0,0,0-1.44,4.46v12.95h-3.64v-32h3.64Z"/><path class="cls-2" d="M759,394.53h12.61V398H759v10.94h12.61v3.45H755v-32h16.64v3.45H759Z"/><path class="cls-2" d="M781.35,390.26v3.12c1.92-2.59,3.84-3.65,6.57-3.65a7.72,7.72,0,0,1,5.14,1.82c1.39,1.35,1.87,2.88,1.87,5.9v14.92h-3.65v-14.1c0-2-.24-3-.81-3.79A4.29,4.29,0,0,0,787,393a5.52,5.52,0,0,0-4.22,1.87,5.26,5.26,0,0,0-1.44,4v13.48h-3.64V390.26Z"/><path class="cls-2" d="M818.67,380.38h3.65v32h-3.65v-3.79c-2.2,3-4.55,4.32-7.91,4.32-6.09,0-10.41-4.75-10.41-11.46s4.41-11.71,10.41-11.71a9.47,9.47,0,0,1,7.91,3.89Zm-14.48,21.1c0,4.85,2.92,8.26,7.1,8.26s7.38-3.55,7.38-8.35c0-5-2.92-8.4-7.14-8.4S804.19,396.45,804.19,401.48Z"/><path class="cls-2" d="M831.77,402.49a6.83,6.83,0,0,0,1.44,4,7.18,7.18,0,0,0,5.95,3,7.65,7.65,0,0,0,6.62-3.79L849,407a10.81,10.81,0,0,1-9.83,5.95c-6.58,0-11.28-4.8-11.28-11.51s4.66-11.66,11.13-11.66a11,11,0,0,1,11.23,11.32c0,.29,0,.91,0,1.44Zm14.58-2.68A6.79,6.79,0,0,0,845.1,396a7.56,7.56,0,0,0-6.09-3,7.11,7.11,0,0,0-6,3.07,8.74,8.74,0,0,0-1.24,3.75Z"/><path class="cls-2" d="M886.45,380.38h3.65v32h-3.65v-3.79c-2.2,3-4.55,4.32-7.91,4.32-6.09,0-10.41-4.75-10.41-11.46s4.41-11.71,10.41-11.71a9.47,9.47,0,0,1,7.91,3.89ZM872,401.48c0,4.85,2.92,8.26,7.1,8.26s7.38-3.55,7.38-8.35c0-5-2.92-8.4-7.14-8.4S872,396.45,872,401.48Z"/><path class="cls-2" d="M899.55,402.49a6.9,6.9,0,0,0,1.44,4,7.18,7.18,0,0,0,6,3,7.65,7.65,0,0,0,6.62-3.79l3.21,1.2a10.81,10.81,0,0,1-9.83,5.95c-6.58,0-11.28-4.8-11.28-11.51s4.66-11.66,11.13-11.66A11,11,0,0,1,918,401.05c0,.29,0,.91,0,1.44Zm14.58-2.68a6.86,6.86,0,0,0-1.24-3.79,7.59,7.59,0,0,0-6.1-3,7.12,7.12,0,0,0-5.95,3.07,8.74,8.74,0,0,0-1.24,3.75Z"/><path class="cls-2" d="M926.94,390.26V394a6.34,6.34,0,0,1,2-2.93,7,7,0,0,1,4.23-1.34H934v3.69a9.79,9.79,0,0,0-1,0,5.69,5.69,0,0,0-4.8,2.54c-1,1.39-1.29,2.69-1.29,5.23v11.22h-3.65V390.26Z"/><path class="cls-2" d="M972.8,408.92v3.45H949.92L968,383.83H951.93v-3.45h22.74l-18.09,28.54Z"/><path class="cls-2" d="M995.35,390.26v14.15c0,3-.58,4.7-2.21,6.19a9.92,9.92,0,0,1-12.76-.05,8.08,8.08,0,0,1-2.21-6.14V390.26h3.65v14.05c0,3.12,2,5.33,4.94,5.33a5.22,5.22,0,0,0,3.93-1.68c.72-.86,1-1.77,1-3.55V390.26Z"/><path class="cls-2" d="M1018.56,390.26h3.65v22.26c0,3.69-.91,6.19-2.93,8.11a11.41,11.41,0,0,1-8.15,2.92,12.45,12.45,0,0,1-9.79-4l2.49-2.49A12.93,12.93,0,0,0,1006,419a10.81,10.81,0,0,0,5.18,1.29,8,8,0,0,0,5.75-2.16,7.53,7.53,0,0,0,1.68-5.27v-4.66c-2.16,3.27-4.7,4.75-8.15,4.75-5.86,0-10.22-4.94-10.22-11.51a12.67,12.67,0,0,1,3.5-9.07,9.71,9.71,0,0,1,7-2.59c3.35,0,5.61,1.25,7.86,4.32Zm-14.53,11c0,4.75,3.07,8.3,7.24,8.3a7.48,7.48,0,0,0,5.61-2.68,8.94,8.94,0,0,0,1.59-5.47c0-2.88-.43-4.42-1.73-5.85a7.5,7.5,0,0,0-5.37-2.45C1007.05,393.09,1004,396.45,1004,401.24Z"/><path class="cls-2" d="M1033.34,412.37h-3.65v-18.9h-3v-3.21h3v-3c0-4.36,2.26-6.95,6.09-6.95a8.16,8.16,0,0,1,1,.05v3.26c-2.64.29-3.36,1.05-3.45,3.64v3h3.45v3.21h-3.45Z"/><path class="cls-2" d="M1057.85,390.26h3.65v22.11h-3.65V408.1c-2.21,3.32-4.7,4.8-8.06,4.8-6.09,0-10.41-4.8-10.41-11.51s4.41-11.66,10.51-11.66a9.26,9.26,0,0,1,8,4.17ZM1045,395.63a10.1,10.1,0,0,0-1.82,5.85c0,4.71,3.07,8.26,7.1,8.26s7.58-3.89,7.58-8.64-3.07-8.11-7.48-8.11A6,6,0,0,0,1045,395.63Z"/><path class="cls-2" d="M1072.48,393.33c2-2.5,4-3.6,6.67-3.6a7.36,7.36,0,0,1,5.13,2c1.2,1.2,1.73,2.92,1.73,5.75v14.87h-3.65V397.69c0-3-1.48-4.7-4.12-4.7a5.62,5.62,0,0,0-4.32,2,5.8,5.8,0,0,0-1.44,4.46v12.95h-3.65v-32h3.65Z"/><path class="cls-2" d="M1096.85,390.26V394a6.34,6.34,0,0,1,2-2.93,7,7,0,0,1,4.23-1.34h.86v3.69a9.79,9.79,0,0,0-1,0,5.69,5.69,0,0,0-4.8,2.54c-1,1.39-1.29,2.69-1.29,5.23v11.22h-3.65V390.26Z"/><path class="cls-2" d="M1113.35,407.86c.05,1.11.34,1.35,1.68,1.35h1.68v3.16h-3.41c-2.59,0-3.59-1-3.59-3.45V393.47h-3.08v-3.21h3.08v-7h3.64v7h3.36v3.21h-3.36Z"/><path class="cls-2" d="M1139.93,412.37h-3.65v-32h3.65v13.67c2.2-3,4.55-4.32,7.77-4.32,6.19,0,10.5,4.8,10.5,11.66s-4.27,11.51-10.31,11.51c-3.41,0-5.81-1.29-8-4.32Zm0-11c0,5,2.88,8.4,7.19,8.4s7.3-3.31,7.3-8.26-3-8.49-7.15-8.49S1139.88,396.5,1139.88,401.34Z"/><path class="cls-2" d="M1165.88,402.49a6.9,6.9,0,0,0,1.44,4,7.18,7.18,0,0,0,6,3,7.65,7.65,0,0,0,6.62-3.79l3.21,1.2a10.81,10.81,0,0,1-9.83,5.95c-6.58,0-11.28-4.8-11.28-11.51s4.66-11.66,11.13-11.66a11,11,0,0,1,11.23,11.32c0,.29,0,.91,0,1.44Zm14.58-2.68a6.79,6.79,0,0,0-1.25-3.79,7.56,7.56,0,0,0-6.09-3,7.12,7.12,0,0,0-5.95,3.07,8.74,8.74,0,0,0-1.24,3.75Z"/><path class="cls-2" d="M1201.9,409.16v3.21h-16.31l11.52-18.9h-10.27v-3.21h16.26l-11.37,18.9Z"/><path class="cls-2" d="M1223,390.26h3.65v22.11H1223V408.1c-2.21,3.32-4.7,4.8-8.06,4.8-6.09,0-10.41-4.8-10.41-11.51s4.41-11.66,10.51-11.66a9.26,9.26,0,0,1,8,4.17Zm-12.81,5.37a10.1,10.1,0,0,0-1.82,5.85c0,4.71,3.07,8.26,7.1,8.26s7.58-3.89,7.58-8.64S1220,393,1215.58,393A6,6,0,0,0,1210.2,395.63Z"/><path class="cls-2" d="M1237.64,393.33c2-2.5,4-3.6,6.67-3.6a7.36,7.36,0,0,1,5.13,2c1.2,1.2,1.73,2.92,1.73,5.75v14.87h-3.65V397.69c0-3-1.48-4.7-4.12-4.7a5.62,5.62,0,0,0-4.32,2,5.8,5.8,0,0,0-1.44,4.46v12.95H1234v-32h3.64Z"/><path class="cls-2" d="M1258.37,412.37v-32H1262v32Z"/><path class="cls-2" d="M1273.24,407.86c0,1.11.33,1.35,1.67,1.35h1.68v3.16h-3.4c-2.59,0-3.6-1-3.6-3.45V393.47h-3.07v-3.21h3.07v-7h3.65v7h3.35v3.21h-3.35Z"/><path class="cls-2" d="M1299.81,390.26v3.07c1.68-2.54,3.55-3.6,6.28-3.6,3,0,5,1.3,6,4a7.24,7.24,0,0,1,7-4c2.54,0,4.46.82,5.61,2.35s1.34,2.64,1.34,6.14v14.15h-3.64V399.09c0-2.69-.1-3.31-.63-4.23a4.31,4.31,0,0,0-3.83-1.87c-3.22,0-5,2.16-5,6.1v13.28h-3.65V399.13a8.27,8.27,0,0,0-.72-4.22,3.8,3.8,0,0,0-3.6-1.92c-3.21,0-5.13,2.31-5.13,6.14v13.24h-3.65V390.26Z"/><path class="cls-2" d="M1349.89,390.26h3.65v22.11h-3.65V408.1c-2.21,3.32-4.7,4.8-8.06,4.8-6.09,0-10.41-4.8-10.41-11.51s4.41-11.66,10.51-11.66a9.26,9.26,0,0,1,8,4.17Zm-12.81,5.37a10.1,10.1,0,0,0-1.82,5.85c0,4.71,3.07,8.26,7.1,8.26s7.58-3.89,7.58-8.64-3.07-8.11-7.48-8.11A6,6,0,0,0,1337.08,395.63Z"/><path class="cls-2" d="M1364.52,390.26v3.12c1.92-2.59,3.84-3.65,6.57-3.65a7.72,7.72,0,0,1,5.14,1.82c1.39,1.35,1.87,2.88,1.87,5.9v14.92h-3.65v-14.1c0-2-.24-3-.81-3.79a4.27,4.27,0,0,0-3.46-1.49,5.53,5.53,0,0,0-4.22,1.87,5.26,5.26,0,0,0-1.44,4v13.48h-3.64V390.26Z"/><path class="cls-2" d="M1416.38,390.26H1420v22.11h-3.64V408.1c-2.21,3.32-4.7,4.8-8.06,4.8-6.09,0-10.41-4.8-10.41-11.51s4.41-11.66,10.5-11.66a9.28,9.28,0,0,1,8,4.17Zm-12.81,5.37a10.1,10.1,0,0,0-1.82,5.85c0,4.71,3.07,8.26,7.1,8.26s7.58-3.89,7.58-8.64-3.07-8.11-7.49-8.11A6,6,0,0,0,1403.57,395.63Z"/><path class="cls-2" d="M1431,390.26v3.12c1.92-2.59,3.84-3.65,6.57-3.65a7.67,7.67,0,0,1,5.13,1.82c1.4,1.35,1.87,2.88,1.87,5.9v14.92h-3.64v-14.1c0-2-.24-3-.82-3.79a4.25,4.25,0,0,0-3.45-1.49,5.52,5.52,0,0,0-4.22,1.87,5.22,5.22,0,0,0-1.44,4v13.48h-3.65V390.26Z"/><path class="cls-2" d="M163.45,460.06a6.9,6.9,0,0,0,1.44,4,7.21,7.21,0,0,0,6,3,7.67,7.67,0,0,0,6.62-3.79l3.21,1.2a10.83,10.83,0,0,1-9.83,6c-6.58,0-11.28-4.8-11.28-11.52s4.66-11.65,11.13-11.65a11,11,0,0,1,11.23,11.32c0,.29,0,.91,0,1.44ZM178,457.37a6.86,6.86,0,0,0-1.24-3.79,7.61,7.61,0,0,0-6.1-3,7.12,7.12,0,0,0-5.95,3.07,8.82,8.82,0,0,0-1.24,3.74Z"/><path class="cls-2" d="M191.37,441.64a2.32,2.32,0,0,1-2.35,2.3,2.35,2.35,0,0,1,0-4.7A2.33,2.33,0,0,1,191.37,441.64Zm-.53,28.3h-3.65V447.82h3.65Z"/><path class="cls-2" d="M201.83,447.82v3.12c1.91-2.59,3.83-3.64,6.57-3.64a7.69,7.69,0,0,1,5.13,1.82c1.39,1.34,1.87,2.88,1.87,5.9v14.92h-3.64v-14.1c0-2-.24-3-.82-3.79a4.24,4.24,0,0,0-3.45-1.49,5.52,5.52,0,0,0-4.23,1.87,5.24,5.24,0,0,0-1.43,4v13.48h-3.65V447.82Z"/><path class="cls-2" d="M224.71,460.06a6.83,6.83,0,0,0,1.44,4,7.19,7.19,0,0,0,5.94,3,7.65,7.65,0,0,0,6.62-3.79l3.22,1.2a10.83,10.83,0,0,1-9.84,6c-6.57,0-11.27-4.8-11.27-11.52S225.47,447.3,232,447.3a11,11,0,0,1,11.23,11.32c0,.29,0,.91-.05,1.44Zm14.58-2.69a6.79,6.79,0,0,0-1.25-3.79,7.58,7.58,0,0,0-6.09-3,7.11,7.11,0,0,0-5.95,3.07,8.82,8.82,0,0,0-1.25,3.74Z"/><path class="cls-2" d="M252.1,447.82v3.07c1.68-2.54,3.55-3.59,6.28-3.59,3,0,4.94,1.29,5.95,4a7.23,7.23,0,0,1,7-4c2.55,0,4.47.81,5.62,2.35s1.34,2.64,1.34,6.14v14.15h-3.65V456.65c0-2.69-.09-3.31-.62-4.22a4.32,4.32,0,0,0-3.84-1.87c-3.21,0-5,2.16-5,6.09v13.29h-3.64V456.7a8.27,8.27,0,0,0-.72-4.22,3.81,3.81,0,0,0-3.6-1.92c-3.21,0-5.13,2.3-5.13,6.14v13.24h-3.65V447.82Z"/><path class="cls-2" d="M309.23,437.94c6.52,0,10.22,3.07,10.22,8.49a7.7,7.7,0,0,1-1.83,5.23,6.89,6.89,0,0,1-3.26,2.06,8.09,8.09,0,0,1,3.65,1.49,7.59,7.59,0,0,1,2.64,6.14,8.1,8.1,0,0,1-3.46,7c-1.87,1.2-3.93,1.63-8,1.63h-9v-32Zm-5,14.39,4.08,0c2.54,0,4.08-.34,5.23-1.25a5.66,5.66,0,0,0,2-4.42A5,5,0,0,0,313,442c-1.15-.58-2.49-.77-5.42-.77h-3.31Zm0,14.35h4c3.36,0,4.65-.24,6-1.06a4.76,4.76,0,0,0,2.31-4.51c0-3.84-2.26-5.51-7.34-5.51h-5Z"/><path class="cls-2" d="M328.42,460.06a6.83,6.83,0,0,0,1.44,4,7.19,7.19,0,0,0,5.94,3,7.68,7.68,0,0,0,6.63-3.79l3.21,1.2a10.83,10.83,0,0,1-9.84,6c-6.57,0-11.27-4.8-11.27-11.52s4.65-11.65,11.13-11.65a11,11,0,0,1,11.23,11.32c0,.29,0,.91-.05,1.44ZM343,457.37a6.79,6.79,0,0,0-1.25-3.79,7.58,7.58,0,0,0-6.09-3,7.11,7.11,0,0,0-6,3.07,8.82,8.82,0,0,0-1.25,3.74Z"/><path class="cls-2" d="M364.44,466.73v3.21H348.13L359.65,451H349.38v-3.22h16.26l-11.37,18.91Z"/><path class="cls-2" d="M385.55,447.82h3.65v22.12h-3.65v-4.27c-2.21,3.31-4.7,4.8-8.06,4.8-6.09,0-10.41-4.8-10.41-11.52s4.41-11.65,10.51-11.65a9.24,9.24,0,0,1,8,4.17Zm-12.81,5.38a10.08,10.08,0,0,0-1.82,5.85c0,4.7,3.07,8.25,7.1,8.25s7.58-3.88,7.58-8.63-3.07-8.11-7.48-8.11A6,6,0,0,0,372.74,453.2Z"/><path class="cls-2" d="M400.18,450.89c2-2.49,4-3.59,6.67-3.59a7.36,7.36,0,0,1,5.13,2c1.2,1.2,1.73,2.93,1.73,5.76v14.87h-3.65V455.26c0-3-1.48-4.7-4.12-4.7a5.62,5.62,0,0,0-4.32,2,5.79,5.79,0,0,0-1.44,4.46v12.95h-3.64v-32h3.64Z"/><path class="cls-2" d="M420.9,469.94v-32h3.65v32Z"/><path class="cls-2" d="M448.58,447.82h3.65v22.12h-3.65v-4.27c-2.2,3.31-4.7,4.8-8.06,4.8-6.09,0-10.41-4.8-10.41-11.52s4.42-11.65,10.51-11.65a9.24,9.24,0,0,1,8,4.17Zm-12.8,5.38a10,10,0,0,0-1.83,5.85c0,4.7,3.07,8.25,7.1,8.25s7.58-3.88,7.58-8.63-3.07-8.11-7.48-8.11A6,6,0,0,0,435.78,453.2Z"/><path class="cls-2" d="M476.12,447.82V462c0,3-.58,4.7-2.21,6.18a9.9,9.9,0,0,1-12.76,0,8.09,8.09,0,0,1-2.21-6.14V447.82h3.65v14.06c0,3.12,2,5.33,4.94,5.33a5.24,5.24,0,0,0,3.93-1.68,4.93,4.93,0,0,0,1-3.55V447.82Z"/><path class="cls-2" d="M486.72,465.43c0,1.1.33,1.34,1.68,1.34h1.68v3.17h-3.41c-2.59-.05-3.6-1-3.6-3.45V451H480v-3.22h3.07v-6.95h3.65v6.95h3.36V451h-3.36Z"/><path class="cls-2" d="M515.55,459a11.3,11.3,0,0,1-11.32,11.52c-6.57,0-11.18-4.8-11.18-11.61s4.61-11.56,11.32-11.56C510.9,447.3,515.55,452.14,515.55,459Zm-18.76,0c0,4.89,3,8.2,7.53,8.2s7.49-3.41,7.49-8.2c0-5-3-8.26-7.44-8.26S496.79,454,496.79,458.91Z"/><path class="cls-2" d="M524.76,447.82v3.07c1.68-2.54,3.55-3.59,6.28-3.59,3,0,4.94,1.29,6,4a7.24,7.24,0,0,1,7-4c2.54,0,4.46.81,5.61,2.35s1.34,2.64,1.34,6.14v14.15h-3.64V456.65c0-2.69-.1-3.31-.63-4.22a4.32,4.32,0,0,0-3.84-1.87c-3.21,0-5,2.16-5,6.09v13.29h-3.65V456.7a8.27,8.27,0,0,0-.72-4.22,3.8,3.8,0,0,0-3.6-1.92c-3.21,0-5.13,2.3-5.13,6.14v13.24h-3.65V447.82Z"/><path class="cls-2" d="M574.84,447.82h3.65v22.12h-3.65v-4.27c-2.21,3.31-4.7,4.8-8.06,4.8-6.09,0-10.41-4.8-10.41-11.52s4.41-11.65,10.51-11.65a9.24,9.24,0,0,1,8,4.17ZM562,453.2a10.08,10.08,0,0,0-1.82,5.85c0,4.7,3.07,8.25,7.1,8.25s7.58-3.88,7.58-8.63-3.07-8.11-7.48-8.11A6,6,0,0,0,562,453.2Z"/><path class="cls-2" d="M589.57,465.43c0,1.1.33,1.34,1.68,1.34h1.68v3.17h-3.41c-2.59-.05-3.6-1-3.6-3.45V451h-3.07v-3.22h3.07v-6.95h3.65v6.95h3.36V451h-3.36Z"/><path class="cls-2" d="M599.79,460.06a6.89,6.89,0,0,0,1.43,4,7.21,7.21,0,0,0,5.95,3,7.65,7.65,0,0,0,6.62-3.79l3.22,1.2a10.85,10.85,0,0,1-9.84,6c-6.57,0-11.27-4.8-11.27-11.52S600.55,447.3,607,447.3a11,11,0,0,1,11.22,11.32c0,.29,0,.91,0,1.44Zm14.58-2.69a6.79,6.79,0,0,0-1.25-3.79,7.58,7.58,0,0,0-6.09-3,7.11,7.11,0,0,0-5.95,3.07,8.82,8.82,0,0,0-1.25,3.74Z"/><path class="cls-2" d="M627.18,447.82v3.12c1.92-2.59,3.83-3.64,6.57-3.64a7.69,7.69,0,0,1,5.13,1.82c1.39,1.34,1.87,2.88,1.87,5.9v14.92h-3.64v-14.1c0-2-.24-3-.82-3.79a4.22,4.22,0,0,0-3.45-1.49,5.49,5.49,0,0,0-4.22,1.87,5.21,5.21,0,0,0-1.44,4v13.48h-3.65V447.82Z"/><path class="cls-2" d="M678.89,447.82V462c0,3-.58,4.7-2.21,6.18a9.9,9.9,0,0,1-12.76,0,8.09,8.09,0,0,1-2.21-6.14V447.82h3.65v14.06c0,3.12,2,5.33,4.94,5.33a5.24,5.24,0,0,0,3.93-1.68,4.93,4.93,0,0,0,1-3.55V447.82Z"/><path class="cls-2" d="M689.25,447.82v3.12c1.92-2.59,3.84-3.64,6.57-3.64a7.72,7.72,0,0,1,5.14,1.82c1.39,1.34,1.87,2.88,1.87,5.9v14.92h-3.65v-14.1c0-2-.24-3-.82-3.79a4.22,4.22,0,0,0-3.45-1.49,5.49,5.49,0,0,0-4.22,1.87,5.21,5.21,0,0,0-1.44,4v13.48H685.6V447.82Z"/><path class="cls-2" d="M726.57,437.94h3.65v32h-3.65v-3.79c-2.21,3-4.56,4.32-7.92,4.32-6.09,0-10.41-4.75-10.41-11.47s4.42-11.7,10.41-11.7a9.5,9.5,0,0,1,7.92,3.88Zm-14.49,21.11c0,4.85,2.93,8.25,7.1,8.25s7.39-3.55,7.39-8.35c0-5-2.93-8.39-7.15-8.39S712.08,454,712.08,459.05Z"/><path class="cls-2" d="M768.3,447.82H772v22.26c0,3.7-.91,6.19-2.93,8.11a11.36,11.36,0,0,1-8.15,2.93,12.48,12.48,0,0,1-9.79-4l2.5-2.5a12.13,12.13,0,0,0,2.11,1.92,10.69,10.69,0,0,0,5.18,1.3,8,8,0,0,0,5.75-2.16,7.55,7.55,0,0,0,1.68-5.28v-4.65c-2.16,3.26-4.7,4.75-8.15,4.75-5.85,0-10.22-4.94-10.22-11.52a12.69,12.69,0,0,1,3.5-9.06,9.73,9.73,0,0,1,7-2.59c3.35,0,5.61,1.24,7.86,4.31Zm-14.53,11c0,4.75,3.07,8.3,7.24,8.3a7.47,7.47,0,0,0,5.61-2.69,8.92,8.92,0,0,0,1.59-5.47c0-2.87-.43-4.41-1.73-5.85a7.5,7.5,0,0,0-5.37-2.45C756.79,450.65,753.77,454,753.77,458.81Z"/><path class="cls-2" d="M783.46,441.64a2.31,2.31,0,0,1-2.35,2.3,2.35,2.35,0,0,1,0-4.7A2.32,2.32,0,0,1,783.46,441.64Zm-.53,28.3h-3.64V447.82h3.64Z"/><path class="cls-2" d="M793.92,469.94h-3.65v-32h3.65v13.67c2.21-3,4.56-4.31,7.77-4.31,6.19,0,10.51,4.79,10.51,11.65s-4.27,11.52-10.32,11.52c-3.4,0-5.8-1.3-8-4.32Zm0-11c0,5,2.88,8.39,7.2,8.39s7.29-3.31,7.29-8.25-3-8.49-7.15-8.49S793.87,454.06,793.87,458.91Z"/><path class="cls-2" d="M821.65,465.43c0,1.1.33,1.34,1.68,1.34H825v3.17h-3.4c-2.59-.05-3.6-1-3.6-3.45V451h-3.07v-3.22H818v-6.95h3.65v6.95H825V451h-3.35Z"/><path class="cls-2" d="M861.13,437.94h3.64v32h-3.64v-3.79c-2.21,3-4.56,4.32-7.92,4.32-6.09,0-10.41-4.75-10.41-11.47s4.41-11.7,10.41-11.7a9.51,9.51,0,0,1,7.92,3.88Zm-14.49,21.11c0,4.85,2.92,8.25,7.1,8.25s7.39-3.55,7.39-8.35c0-5-2.93-8.39-7.15-8.39S846.64,454,846.64,459.05Z"/><path class="cls-2" d="M888.61,447.82h3.65v22.12h-3.65v-4.27c-2.2,3.31-4.7,4.8-8.06,4.8-6.09,0-10.41-4.8-10.41-11.52s4.42-11.65,10.51-11.65a9.24,9.24,0,0,1,8,4.17ZM875.8,453.2a10.08,10.08,0,0,0-1.82,5.85c0,4.7,3.07,8.25,7.1,8.25s7.58-3.88,7.58-8.63-3.07-8.11-7.48-8.11A6,6,0,0,0,875.8,453.2Z"/><path class="cls-2" d="M909.77,453.87v-.24c0-2.06-1.68-3.36-4.22-3.36s-4,1.25-4,3.17,1,2.64,5,3.74c2.83.77,4.31,1.49,5.37,2.54a6.19,6.19,0,0,1,1.77,4.32c0,3.84-3.16,6.43-7.86,6.43-5,0-7.87-2.35-8.26-6.81h3.6c.24,2.49,1.87,3.83,4.66,3.83,2.49,0,4.12-1.29,4.12-3.26s-1.25-2.88-5-3.84c-4.79-1.29-7-3.31-7-6.67,0-3.83,3.12-6.42,7.77-6.42s7.53,2.39,7.72,6.57Z"/><path class="cls-2" d="M942.67,469.94h-4V441.4h-8.15v-3.46h20.29v3.46h-8.11Z"/><path class="cls-2" d="M973.33,459A11.3,11.3,0,0,1,962,470.47c-6.57,0-11.18-4.8-11.18-11.61s4.61-11.56,11.32-11.56C968.68,447.3,973.33,452.14,973.33,459Zm-18.76,0c0,4.89,3,8.2,7.53,8.2s7.49-3.41,7.49-8.2c0-5-3-8.26-7.44-8.26S954.57,454,954.57,458.91Z"/><path class="cls-2" d="M982.54,469.94h-3.65v-32h3.65v19.57l8.83-9.69H996l-9.88,10.8,9.83,11.32h-4.55l-8.83-9.88Z"/><path class="cls-2" d="M1001.1,460.06a6.9,6.9,0,0,0,1.44,4,7.21,7.21,0,0,0,6,3,7.66,7.66,0,0,0,6.62-3.79l3.22,1.2a10.85,10.85,0,0,1-9.84,6c-6.57,0-11.27-4.8-11.27-11.52s4.65-11.65,11.13-11.65a11,11,0,0,1,11.22,11.32c0,.29,0,.91-.05,1.44Zm14.59-2.69a6.86,6.86,0,0,0-1.25-3.79,7.59,7.59,0,0,0-6.09-3,7.09,7.09,0,0,0-6,3.07,8.82,8.82,0,0,0-1.25,3.74Z"/><path class="cls-2" d="M1028.49,447.82v3.12c1.92-2.59,3.84-3.64,6.58-3.64a7.71,7.71,0,0,1,5.13,1.82c1.39,1.34,1.87,2.88,1.87,5.9v14.92h-3.65v-14.1c0-2-.24-3-.81-3.79a4.24,4.24,0,0,0-3.46-1.49,5.5,5.5,0,0,0-4.22,1.87,5.24,5.24,0,0,0-1.44,4v13.48h-3.64V447.82Z"/><path class="cls-2" d="M1067.3,469.94h-3.65v-32h3.65v13.67c2.21-3,4.56-4.31,7.77-4.31,6.19,0,10.51,4.79,10.51,11.65s-4.27,11.52-10.32,11.52c-3.4,0-5.8-1.3-8-4.32Zm0-11c0,5,2.88,8.39,7.2,8.39s7.29-3.31,7.29-8.25-3-8.49-7.15-8.49S1067.25,454.06,1067.25,458.91Z"/><path class="cls-2" d="M1093.25,460.06a7,7,0,0,0,1.44,4,7.21,7.21,0,0,0,6,3,7.65,7.65,0,0,0,6.62-3.79l3.22,1.2a10.85,10.85,0,0,1-9.84,6c-6.57,0-11.27-4.8-11.27-11.52s4.65-11.65,11.13-11.65a11,11,0,0,1,11.22,11.32c0,.29,0,.91,0,1.44Zm14.59-2.69a6.86,6.86,0,0,0-1.25-3.79,7.59,7.59,0,0,0-6.09-3,7.09,7.09,0,0,0-6,3.07,8.82,8.82,0,0,0-1.25,3.74Z"/><path class="cls-2" d="M1121.17,441.64a2.31,2.31,0,0,1-2.35,2.3,2.35,2.35,0,0,1,0-4.7A2.32,2.32,0,0,1,1121.17,441.64Zm-.53,28.3H1117V447.82h3.64Z"/><path class="cls-2" d="M1131.63,447.82v3.07c1.68-2.54,3.55-3.59,6.28-3.59,3,0,4.94,1.29,5.95,4a7.23,7.23,0,0,1,7-4c2.54,0,4.46.81,5.61,2.35s1.34,2.64,1.34,6.14v14.15h-3.64V456.65c0-2.69-.1-3.31-.63-4.22a4.32,4.32,0,0,0-3.84-1.87c-3.21,0-5,2.16-5,6.09v13.29h-3.64V456.7a8.27,8.27,0,0,0-.72-4.22,3.8,3.8,0,0,0-3.6-1.92c-3.21,0-5.13,2.3-5.13,6.14v13.24H1128V447.82Z"/><path class="cls-2" d="M179.52,495.51h4.27l-11.13,32h-3.93l-10.8-32h4.22l8.59,25.42Z"/><path class="cls-2" d="M188,517.62a6.9,6.9,0,0,0,1.44,4,7.18,7.18,0,0,0,6,3,7.65,7.65,0,0,0,6.62-3.79l3.21,1.2A10.81,10.81,0,0,1,195.4,528c-6.57,0-11.28-4.79-11.28-11.51s4.66-11.66,11.13-11.66a11,11,0,0,1,11.23,11.32c0,.29,0,.91,0,1.44Zm14.58-2.68a6.78,6.78,0,0,0-1.24-3.79,7.58,7.58,0,0,0-6.1-3,7.09,7.09,0,0,0-5.94,3.07,8.73,8.73,0,0,0-1.25,3.75Z"/><path class="cls-2" d="M215.4,505.39v3.74a6.27,6.27,0,0,1,2-2.93,6.92,6.92,0,0,1,4.22-1.34h.86v3.7a7.84,7.84,0,0,0-1-.05,5.66,5.66,0,0,0-4.79,2.54c-1,1.39-1.3,2.69-1.3,5.23V527.5h-3.64V505.39Z"/><path class="cls-2" d="M226.63,527.5v-32h3.64v32Z"/><path class="cls-2" d="M254.31,505.39H258V527.5h-3.64v-4.26c-2.21,3.31-4.71,4.79-8.06,4.79-6.1,0-10.41-4.79-10.41-11.51s4.41-11.66,10.5-11.66a9.27,9.27,0,0,1,8,4.18Zm-12.81,5.37a10.13,10.13,0,0,0-1.83,5.85c0,4.71,3.07,8.26,7.1,8.26s7.58-3.89,7.58-8.64-3.07-8.11-7.48-8.11A6,6,0,0,0,241.5,510.76Z"/><path class="cls-2" d="M275.46,511.43v-.24c0-2.06-1.68-3.35-4.22-3.35s-4,1.24-4,3.16,1,2.64,4.94,3.74c2.83.77,4.32,1.49,5.37,2.55a6.13,6.13,0,0,1,1.78,4.31c0,3.84-3.17,6.43-7.87,6.43-5,0-7.87-2.35-8.25-6.81h3.6c.24,2.49,1.87,3.84,4.65,3.84,2.49,0,4.13-1.3,4.13-3.26s-1.25-2.88-5-3.84c-4.8-1.3-7-3.31-7-6.67,0-3.84,3.12-6.43,7.77-6.43s7.54,2.4,7.73,6.57Z"/><path class="cls-2" d="M295.18,511.43v-.24c0-2.06-1.68-3.35-4.22-3.35s-4,1.24-4,3.16,1,2.64,4.95,3.74c2.83.77,4.31,1.49,5.37,2.55a6.16,6.16,0,0,1,1.77,4.31c0,3.84-3.16,6.43-7.86,6.43-5,0-7.87-2.35-8.26-6.81h3.6c.24,2.49,1.87,3.84,4.66,3.84,2.49,0,4.12-1.3,4.12-3.26s-1.25-2.88-5-3.84c-4.79-1.3-6.95-3.31-6.95-6.67,0-3.84,3.12-6.43,7.77-6.43s7.53,2.4,7.72,6.57Z"/><path class="cls-2" d="M306.79,517.62a6.89,6.89,0,0,0,1.43,4,7.18,7.18,0,0,0,5.95,3,7.63,7.63,0,0,0,6.62-3.79l3.22,1.2a10.84,10.84,0,0,1-9.84,5.95c-6.57,0-11.27-4.79-11.27-11.51s4.65-11.66,11.13-11.66a11,11,0,0,1,11.22,11.32c0,.29,0,.91,0,1.44Zm14.58-2.68a6.79,6.79,0,0,0-1.25-3.79,7.56,7.56,0,0,0-6.09-3,7.11,7.11,0,0,0-5.95,3.07,8.87,8.87,0,0,0-1.25,3.75Z"/><path class="cls-2" d="M334.18,505.39v3.12c1.91-2.59,3.83-3.65,6.57-3.65a7.69,7.69,0,0,1,5.13,1.82c1.39,1.35,1.87,2.88,1.87,5.91V527.5h-3.64V513.4c0-2-.24-3-.82-3.79a4.27,4.27,0,0,0-3.45-1.49,5.52,5.52,0,0,0-4.22,1.87,5.22,5.22,0,0,0-1.44,4V527.5h-3.65V505.39Z"/><path class="cls-2" d="M385.89,495.51h3.64v32h-3.64v-3.79c-2.21,3-4.56,4.32-7.92,4.32-6.09,0-10.41-4.75-10.41-11.46S372,504.86,378,504.86a9.49,9.49,0,0,1,7.92,3.89Zm-14.49,21.1c0,4.85,2.93,8.26,7.1,8.26s7.39-3.55,7.39-8.35c0-5-2.93-8.4-7.15-8.4S371.4,511.58,371.4,516.61Z"/><path class="cls-2" d="M399,517.62a7,7,0,0,0,1.44,4,7.18,7.18,0,0,0,5.95,3,7.63,7.63,0,0,0,6.62-3.79l3.22,1.2a10.84,10.84,0,0,1-9.84,5.95c-6.57,0-11.27-4.79-11.27-11.51s4.65-11.66,11.13-11.66a11,11,0,0,1,11.22,11.32c0,.29,0,.91,0,1.44Zm14.59-2.68a6.86,6.86,0,0,0-1.25-3.79,7.57,7.57,0,0,0-6.09-3,7.09,7.09,0,0,0-6,3.07,8.87,8.87,0,0,0-1.25,3.75Z"/><path class="cls-2" d="M432.85,511.43v-.24c0-2.06-1.68-3.35-4.22-3.35s-4,1.24-4,3.16,1,2.64,4.94,3.74c2.83.77,4.32,1.49,5.37,2.55a6.17,6.17,0,0,1,1.78,4.31c0,3.84-3.17,6.43-7.87,6.43-5,0-7.87-2.35-8.25-6.81h3.6c.24,2.49,1.87,3.84,4.65,3.84,2.49,0,4.12-1.3,4.12-3.26s-1.24-2.88-5-3.84c-4.8-1.3-7-3.31-7-6.67,0-3.84,3.12-6.43,7.77-6.43s7.53,2.4,7.73,6.57Z"/><path class="cls-2" d="M466.09,495.51c6.53,0,10.22,3.07,10.22,8.49a7.73,7.73,0,0,1-1.82,5.23,7,7,0,0,1-3.26,2.06,7.93,7.93,0,0,1,3.64,1.49,7.59,7.59,0,0,1,2.64,6.14,8.09,8.09,0,0,1-3.45,7c-1.87,1.2-3.94,1.63-8,1.63h-9v-32Zm-5,14.39,4.08,0c2.54,0,4.08-.34,5.23-1.25a5.61,5.61,0,0,0,2-4.41,5,5,0,0,0-2.54-4.61c-1.16-.57-2.5-.76-5.43-.76H461.1Zm0,14.34h4c3.36,0,4.66-.24,6.05-1a4.78,4.78,0,0,0,2.3-4.51c0-3.84-2.25-5.52-7.34-5.52h-5Z"/><path class="cls-2" d="M499.87,505.39h3.64V527.5h-3.64v-4.26c-2.21,3.31-4.71,4.79-8.06,4.79-6.1,0-10.41-4.79-10.41-11.51s4.41-11.66,10.5-11.66a9.27,9.27,0,0,1,8,4.18Zm-12.81,5.37a10.13,10.13,0,0,0-1.83,5.85c0,4.71,3.07,8.26,7.1,8.26,4.18,0,7.58-3.89,7.58-8.64s-3.07-8.11-7.48-8.11A6,6,0,0,0,487.06,510.76Z"/><path class="cls-2" d="M514.5,508.46c2-2.5,4-3.6,6.66-3.6a7.39,7.39,0,0,1,5.14,2c1.2,1.2,1.72,2.92,1.72,5.75V527.5h-3.64V512.82c0-3-1.49-4.7-4.13-4.7a5.67,5.67,0,0,0-4.32,2,5.8,5.8,0,0,0-1.43,4.46v13h-3.65v-32h3.65Z"/><path class="cls-2" d="M538.86,505.39v3.12c1.92-2.59,3.84-3.65,6.58-3.65a7.71,7.71,0,0,1,5.13,1.82c1.39,1.35,1.87,2.88,1.87,5.91V527.5h-3.65V513.4c0-2-.24-3-.81-3.79a4.27,4.27,0,0,0-3.45-1.49A5.54,5.54,0,0,0,540.3,510a5.26,5.26,0,0,0-1.44,4V527.5h-3.64V505.39Z"/><path class="cls-2" d="M563.28,508.46c2-2.5,4-3.6,6.67-3.6a7.36,7.36,0,0,1,5.13,2c1.2,1.2,1.73,2.92,1.73,5.75V527.5h-3.65V512.82c0-3-1.48-4.7-4.12-4.7a5.65,5.65,0,0,0-4.32,2,5.8,5.8,0,0,0-1.44,4.46v13h-3.65v-32h3.65Z"/><path class="cls-2" d="M604.73,516.52A11.29,11.29,0,0,1,593.41,528c-6.58,0-11.18-4.79-11.18-11.61s4.6-11.56,11.32-11.56C600.08,504.86,604.73,509.71,604.73,516.52Zm-18.76,0c0,4.89,3,8.2,7.53,8.2s7.49-3.4,7.49-8.2-3-8.25-7.44-8.25S586,511.53,586,516.47Z"/><path class="cls-2" d="M614.32,527.5h-3.64V508.6h-3v-3.21h3v-3c0-4.36,2.25-7,6.09-7a8.33,8.33,0,0,1,1,.05v3.26c-2.64.29-3.36,1.05-3.46,3.64v3h3.46v3.21h-3.46Z"/><path class="cls-2" d="M624.25,517.62a6.9,6.9,0,0,0,1.44,4,7.18,7.18,0,0,0,5.95,3,7.65,7.65,0,0,0,6.62-3.79l3.21,1.2a10.81,10.81,0,0,1-9.83,5.95c-6.57,0-11.27-4.79-11.27-11.51s4.65-11.66,11.13-11.66a11,11,0,0,1,11.22,11.32c0,.29,0,.91-.05,1.44Zm14.58-2.68a6.78,6.78,0,0,0-1.24-3.79,7.57,7.57,0,0,0-6.09-3,7.09,7.09,0,0,0-6,3.07,8.87,8.87,0,0,0-1.25,3.75Z"/><path class="cls-2" d="M658.12,511.43v-.24c0-2.06-1.68-3.35-4.22-3.35s-4,1.24-4,3.16,1,2.64,4.94,3.74c2.83.77,4.31,1.49,5.37,2.55A6.16,6.16,0,0,1,662,521.6c0,3.84-3.16,6.43-7.86,6.43-5,0-7.87-2.35-8.26-6.81h3.6c.24,2.49,1.87,3.84,4.66,3.84,2.49,0,4.12-1.3,4.12-3.26s-1.25-2.88-5-3.84c-4.79-1.3-7-3.31-7-6.67,0-3.84,3.12-6.43,7.77-6.43s7.53,2.4,7.72,6.57Z"/><path class="cls-2" d="M711.27,505.39,703.4,527.5h-3.31L695,510.71l-5.33,16.79h-3.45l-7.58-22.11h3.74l5.66,16.26,5.09-16.26h3.59l5,16.26,5.81-16.26Z"/><path class="cls-2" d="M719.28,499.2a2.31,2.31,0,0,1-2.35,2.3,2.35,2.35,0,0,1,.05-4.7A2.33,2.33,0,0,1,719.28,499.2Zm-.53,28.3h-3.64V505.39h3.64Z"/><path class="cls-2" d="M728.2,517.62a6.9,6.9,0,0,0,1.44,4,7.18,7.18,0,0,0,6,3,7.65,7.65,0,0,0,6.62-3.79l3.21,1.2a10.81,10.81,0,0,1-9.83,5.95c-6.57,0-11.27-4.79-11.27-11.51s4.65-11.66,11.13-11.66a11,11,0,0,1,11.22,11.32c0,.29,0,.91,0,1.44Zm14.59-2.68a6.86,6.86,0,0,0-1.25-3.79,7.57,7.57,0,0,0-6.09-3,7.09,7.09,0,0,0-6,3.07,8.87,8.87,0,0,0-1.25,3.75Z"/><path class="cls-2" d="M768.5,495.51h3.64v32H768.5v-3.79c-2.21,3-4.56,4.32-7.92,4.32-6.09,0-10.41-4.75-10.41-11.46s4.41-11.71,10.41-11.71a9.49,9.49,0,0,1,7.92,3.89ZM754,516.61c0,4.85,2.93,8.26,7.1,8.26s7.39-3.55,7.39-8.35c0-5-2.93-8.4-7.15-8.4S754,511.58,754,516.61Z"/><path class="cls-2" d="M781.59,517.62a6.9,6.9,0,0,0,1.44,4,7.18,7.18,0,0,0,6,3,7.65,7.65,0,0,0,6.62-3.79l3.21,1.2A10.81,10.81,0,0,1,789,528c-6.57,0-11.27-4.79-11.27-11.51s4.65-11.66,11.13-11.66a11,11,0,0,1,11.22,11.32c0,.29,0,.91,0,1.44Zm14.59-2.68a6.86,6.86,0,0,0-1.25-3.79,7.57,7.57,0,0,0-6.09-3,7.09,7.09,0,0,0-6,3.07,8.87,8.87,0,0,0-1.25,3.75Z"/><path class="cls-2" d="M809,505.39v3.74a6.34,6.34,0,0,1,2-2.93,7,7,0,0,1,4.22-1.34h.86v3.7a7.7,7.7,0,0,0-1-.05,5.67,5.67,0,0,0-4.8,2.54c-1,1.39-1.3,2.69-1.3,5.23V527.5h-3.64V505.39Z"/><path class="cls-2" d="M851.68,505.39h3.64V527.5h-3.64v-4.26c-2.21,3.31-4.7,4.79-8.06,4.79-6.1,0-10.41-4.79-10.41-11.51s4.41-11.66,10.5-11.66a9.27,9.27,0,0,1,8,4.18Zm-12.81,5.37a10.13,10.13,0,0,0-1.83,5.85c0,4.71,3.08,8.26,7.1,8.26,4.18,0,7.58-3.89,7.58-8.64s-3.07-8.11-7.48-8.11A6,6,0,0,0,838.87,510.76Z"/><path class="cls-2" d="M866.31,527.5h-3.65v-32h3.65v13.67c2.2-3,4.56-4.32,7.77-4.32,6.19,0,10.51,4.8,10.51,11.66S880.32,528,874.27,528c-3.4,0-5.8-1.29-8-4.32Zm0-11c0,5,2.88,8.4,7.2,8.4s7.29-3.31,7.29-8.26-3-8.49-7.15-8.49S866.26,511.63,866.26,516.47Z"/><path class="cls-2" d="M894.08,525.44a2.5,2.5,0,1,1-2.49-2.54A2.44,2.44,0,0,1,894.08,525.44Z"/></svg>