<svg id="Ebene_1" data-name="Ebene 1" xmlns="http://www.w3.org/2000/svg" viewBox="0 0 1191 493"><defs><style>.cls-1{fill:#c1e1d3;}.cls-2{fill:#1d1d1b;}</style></defs><rect class="cls-1" x="64" y="38" width="1078" height="436" rx="218"/><path class="cls-2" d="M125.75,151.42h4.45l-11.6,33.35h-4.1l-11.25-33.35h4.4l8.95,26.5Z"/><path class="cls-2" d="M154,173.32a11.77,11.77,0,0,1-11.8,12c-6.85,0-11.65-5-11.65-12.1s4.8-12.05,11.8-12.05C149.15,161.17,154,166.22,154,173.32Zm-19.55,0c0,5.1,3.15,8.55,7.85,8.55,4.55,0,7.8-3.55,7.8-8.55,0-5.15-3.1-8.6-7.75-8.6S134.45,168.12,134.45,173.27Z"/><path class="cls-2" d="M163.6,161.72v3.9a6.51,6.51,0,0,1,2.1-3.05,7.22,7.22,0,0,1,4.4-1.4h.9V165A8.51,8.51,0,0,0,170,165a5.91,5.91,0,0,0-5,2.65c-1,1.45-1.35,2.8-1.35,5.45v11.7h-3.8V161.72Z"/><path class="cls-2" d="M179.1,164.92c2.1-2.6,4.2-3.75,7-3.75a7.69,7.69,0,0,1,5.35,2.1c1.25,1.25,1.8,3,1.8,6v15.5h-3.8v-15.3c0-3.15-1.55-4.9-4.3-4.9a5.87,5.87,0,0,0-4.5,2.05c-1.15,1.3-1.5,2.45-1.5,4.65v13.5h-3.8V151.42h3.8Z"/><path class="cls-2" d="M218.1,161.72h3.8v23.05h-3.8v-4.45c-2.3,3.45-4.9,5-8.4,5-6.35,0-10.85-5-10.85-12s4.6-12.15,11-12.15a9.64,9.64,0,0,1,8.3,4.35Zm-13.35,5.6a10.52,10.52,0,0,0-1.9,6.1c0,4.9,3.2,8.6,7.4,8.6,4.35,0,7.9-4.05,7.9-9s-3.2-8.45-7.8-8.45A6.28,6.28,0,0,0,204.75,167.32Z"/><path class="cls-2" d="M233.35,161.72V165c2-2.7,4-3.8,6.85-3.8a8,8,0,0,1,5.35,1.9c1.45,1.4,1.95,3,1.95,6.15v15.55h-3.8v-14.7c0-2-.25-3.15-.85-3.95a4.44,4.44,0,0,0-3.6-1.55,5.74,5.74,0,0,0-4.4,2,5.44,5.44,0,0,0-1.5,4.2v14.05h-3.8V161.72Z"/><path class="cls-2" d="M272.25,151.42h3.8v33.35h-3.8v-4c-2.3,3.15-4.75,4.5-8.25,4.5-6.35,0-10.85-4.95-10.85-11.95s4.6-12.2,10.85-12.2a9.89,9.89,0,0,1,8.25,4.05Zm-15.1,22c0,5.05,3.05,8.6,7.4,8.6s7.7-3.7,7.7-8.7c0-5.2-3.05-8.75-7.45-8.75C260.25,164.57,257.15,168.17,257.15,173.42Z"/><path class="cls-2" d="M285.9,174.47a7.19,7.19,0,0,0,1.5,4.2,7.5,7.5,0,0,0,6.2,3.15,8,8,0,0,0,6.9-3.95l3.35,1.25a11.29,11.29,0,0,1-10.25,6.2c-6.85,0-11.75-5-11.75-12s4.85-12.15,11.6-12.15a11.46,11.46,0,0,1,11.7,11.8c0,.3,0,.95,0,1.5Zm15.2-2.8a7.14,7.14,0,0,0-1.3-3.95,7.91,7.91,0,0,0-6.35-3.15,7.41,7.41,0,0,0-6.2,3.2,9.15,9.15,0,0,0-1.3,3.9Z"/><path class="cls-2" d="M314.45,161.72V165c2-2.7,4-3.8,6.85-3.8a8,8,0,0,1,5.35,1.9c1.45,1.4,2,3,2,6.15v15.55h-3.8v-14.7c0-2-.25-3.15-.85-3.95a4.44,4.44,0,0,0-3.6-1.55,5.74,5.74,0,0,0-4.4,2,5.44,5.44,0,0,0-1.5,4.2v14.05h-3.8V161.72Z"/><path class="cls-2" d="M338.3,174.47a7.19,7.19,0,0,0,1.5,4.2,7.5,7.5,0,0,0,6.2,3.15,8,8,0,0,0,6.9-3.95l3.35,1.25a11.29,11.29,0,0,1-10.25,6.2c-6.85,0-11.75-5-11.75-12s4.85-12.15,11.6-12.15a11.46,11.46,0,0,1,11.7,11.8c0,.3,0,.95-.05,1.5Zm15.2-2.8a7.14,7.14,0,0,0-1.3-3.95,7.91,7.91,0,0,0-6.35-3.15,7.41,7.41,0,0,0-6.2,3.2,9.15,9.15,0,0,0-1.3,3.9Z"/><path class="cls-2" d="M382.6,166.17h13v3.6h-13v15h-4.2V151.42h17.2V155h-13Z"/><path class="cls-2" d="M418.45,161.72h3.8v23.05h-3.8v-4.45c-2.3,3.45-4.9,5-8.4,5-6.35,0-10.85-5-10.85-12s4.6-12.15,10.95-12.15a9.64,9.64,0,0,1,8.3,4.35Zm-13.35,5.6a10.52,10.52,0,0,0-1.9,6.1c0,4.9,3.2,8.6,7.4,8.6s7.9-4.05,7.9-9-3.2-8.45-7.8-8.45A6.28,6.28,0,0,0,405.1,167.32Z"/><path class="cls-2" d="M433.7,164.92c2.09-2.6,4.2-3.75,6.95-3.75a7.69,7.69,0,0,1,5.35,2.1c1.25,1.25,1.8,3,1.8,6v15.5H444v-15.3c0-3.15-1.55-4.9-4.3-4.9a5.87,5.87,0,0,0-4.5,2.05c-1.16,1.3-1.5,2.45-1.5,4.65v13.5h-3.81V151.42h3.81Z"/><path class="cls-2" d="M459.1,161.72v3.9a6.51,6.51,0,0,1,2.1-3.05,7.22,7.22,0,0,1,4.4-1.4h.9V165a8.51,8.51,0,0,0-1.05-.05,5.91,5.91,0,0,0-5,2.65c-1,1.45-1.35,2.8-1.35,5.45v11.7h-3.81V161.72Z"/><path class="cls-2" d="M474.59,184.77h-3.8V151.42h3.8v20.4l9.2-10.1h4.81L478.29,173l10.26,11.8h-4.76l-9.2-10.3Z"/><path class="cls-2" d="M509.15,161.72H513v23.05h-3.8v-4.45c-2.3,3.45-4.9,5-8.4,5-6.36,0-10.86-5-10.86-12s4.61-12.15,10.95-12.15a9.65,9.65,0,0,1,8.31,4.35Zm-13.36,5.6a10.52,10.52,0,0,0-1.9,6.1c0,4.9,3.2,8.6,7.4,8.6,4.36,0,7.91-4.05,7.91-9s-3.2-8.45-7.8-8.45A6.28,6.28,0,0,0,495.79,167.32Z"/><path class="cls-2" d="M524.39,161.72v3.9a6.51,6.51,0,0,1,2.1-3.05,7.24,7.24,0,0,1,4.4-1.4h.9V165a8.36,8.36,0,0,0-1-.05,5.91,5.91,0,0,0-5,2.65c-1,1.45-1.35,2.8-1.35,5.45v11.7h-3.8V161.72Z"/><path class="cls-2" d="M541.59,180.07c0,1.15.35,1.4,1.75,1.4h1.75v3.3h-3.55c-2.7-.05-3.75-1.05-3.75-3.6v-16.1h-3.2v-3.35h3.2v-7.25h3.8v7.25h3.5v3.35h-3.5Z"/><path class="cls-2" d="M552.24,174.47a7.19,7.19,0,0,0,1.5,4.2,7.5,7.5,0,0,0,6.2,3.15,8,8,0,0,0,6.9-3.95l3.35,1.25a11.29,11.29,0,0,1-10.25,6.2c-6.85,0-11.75-5-11.75-12s4.85-12.15,11.6-12.15A11.47,11.47,0,0,1,571.5,173a14.81,14.81,0,0,1-.06,1.5Zm15.2-2.8a7.14,7.14,0,0,0-1.3-3.95,7.91,7.91,0,0,0-6.35-3.15,7.41,7.41,0,0,0-6.2,3.2,9.15,9.15,0,0,0-1.3,3.9Z"/><path class="cls-2" d="M580.79,161.72V165c2-2.7,4-3.8,6.85-3.8a8,8,0,0,1,5.35,1.9c1.45,1.4,2,3,2,6.15v15.55h-3.8v-14.7c0-2-.25-3.15-.85-3.95a4.44,4.44,0,0,0-3.6-1.55,5.74,5.74,0,0,0-4.4,2,5.44,5.44,0,0,0-1.5,4.2v14.05H577V161.72Z"/><path class="cls-2" d="M619.84,161.72h3.8v23.05h-3.8v-4.45c-2.3,3.45-4.9,5-8.4,5-6.35,0-10.85-5-10.85-12s4.6-12.15,10.95-12.15a9.64,9.64,0,0,1,8.3,4.35Zm-13.35,5.6a10.52,10.52,0,0,0-1.9,6.1c0,4.9,3.2,8.6,7.4,8.6s7.9-4.05,7.9-9-3.2-8.45-7.8-8.45A6.28,6.28,0,0,0,606.49,167.32Z"/><path class="cls-2" d="M648.54,161.72v14.75c0,3.15-.6,4.9-2.3,6.45a10.33,10.33,0,0,1-13.3,0c-1.55-1.5-2.3-3.6-2.3-6.4V161.72h3.8v14.65c0,3.25,2.1,5.55,5.15,5.55a5.46,5.46,0,0,0,4.1-1.75c.75-.9,1-1.85,1-3.7V161.72Z"/><path class="cls-2" d="M659.59,180.07c0,1.15.35,1.4,1.75,1.4h1.75v3.3h-3.55c-2.7-.05-3.75-1.05-3.75-3.6v-16.1h-3.2v-3.35h3.2v-7.25h3.8v7.25h3.5v3.35h-3.5Z"/><path class="cls-2" d="M689.64,173.32a11.77,11.77,0,0,1-11.8,12c-6.85,0-11.65-5-11.65-12.1s4.8-12.05,11.8-12.05C684.79,161.17,689.64,166.22,689.64,173.32Zm-19.55,0c0,5.1,3.15,8.55,7.85,8.55,4.55,0,7.8-3.55,7.8-8.55,0-5.15-3.1-8.6-7.75-8.6S670.09,168.12,670.09,173.27Z"/><path class="cls-2" d="M699.24,161.72v3.2c1.75-2.65,3.7-3.75,6.55-3.75,3.15,0,5.15,1.35,6.2,4.2a7.54,7.54,0,0,1,7.3-4.2c2.65,0,4.65.85,5.85,2.45,1.1,1.45,1.4,2.75,1.4,6.4v14.75h-3.8V170.92c0-2.8-.1-3.45-.65-4.4a4.5,4.5,0,0,0-4-2c-3.35,0-5.2,2.25-5.2,6.35v13.85h-3.8V171c0-2.25-.2-3.4-.75-4.4a4,4,0,0,0-3.75-2c-3.35,0-5.35,2.4-5.35,6.4v13.8h-3.8V161.72Z"/><path class="cls-2" d="M751.44,161.72h3.8v23.05h-3.8v-4.45c-2.3,3.45-4.9,5-8.4,5-6.35,0-10.85-5-10.85-12s4.6-12.15,10.95-12.15a9.64,9.64,0,0,1,8.3,4.35Zm-13.35,5.6a10.52,10.52,0,0,0-1.9,6.1c0,4.9,3.2,8.6,7.4,8.6s7.9-4.05,7.9-9-3.2-8.45-7.8-8.45A6.28,6.28,0,0,0,738.09,167.32Z"/><path class="cls-2" d="M766.79,180.07c.05,1.15.35,1.4,1.75,1.4h1.75v3.3h-3.55c-2.7-.05-3.75-1.05-3.75-3.6v-16.1h-3.2v-3.35H763v-7.25h3.8v7.25h3.5v3.35h-3.5Z"/><path class="cls-2" d="M777.44,174.47a7.19,7.19,0,0,0,1.5,4.2,7.5,7.5,0,0,0,6.2,3.15,8,8,0,0,0,6.9-3.95l3.35,1.25a11.29,11.29,0,0,1-10.25,6.2c-6.85,0-11.75-5-11.75-12s4.85-12.15,11.6-12.15a11.46,11.46,0,0,1,11.7,11.8c0,.3,0,.95-.05,1.5Zm15.2-2.8a7.14,7.14,0,0,0-1.3-3.95,7.91,7.91,0,0,0-6.35-3.15,7.41,7.41,0,0,0-6.2,3.2,9.15,9.15,0,0,0-1.3,3.9Z"/><path class="cls-2" d="M806,161.72V165c2-2.7,4-3.8,6.85-3.8a8,8,0,0,1,5.35,1.9c1.45,1.4,1.95,3,1.95,6.15v15.55h-3.8v-14.7c0-2-.25-3.15-.85-3.95a4.44,4.44,0,0,0-3.6-1.55,5.74,5.74,0,0,0-4.4,2,5.44,5.44,0,0,0-1.5,4.2v14.05h-3.8V161.72Z"/><path class="cls-2" d="M873.14,161.72l-8.2,23.05h-3.45l-5.3-17.5-5.55,17.5H847l-7.9-23.05H843l5.9,16.95,5.3-16.95H858l5.2,16.95,6-16.95Z"/><path class="cls-2" d="M879,174.47a7.19,7.19,0,0,0,1.5,4.2,7.5,7.5,0,0,0,6.2,3.15,8,8,0,0,0,6.9-3.95l3.35,1.25a11.29,11.29,0,0,1-10.25,6.2c-6.85,0-11.75-5-11.75-12s4.85-12.15,11.6-12.15a11.46,11.46,0,0,1,11.7,11.8c0,.3,0,.95,0,1.5Zm15.2-2.8a7.14,7.14,0,0,0-1.3-3.95,7.91,7.91,0,0,0-6.35-3.15,7.41,7.41,0,0,0-6.2,3.2,9.15,9.15,0,0,0-1.3,3.9Z"/><path class="cls-2" d="M907.59,161.72v3.9a6.51,6.51,0,0,1,2.1-3.05,7.22,7.22,0,0,1,4.4-1.4h.9V165a8.51,8.51,0,0,0-1-.05,5.91,5.91,0,0,0-5,2.65c-1,1.45-1.35,2.8-1.35,5.45v11.7h-3.8V161.72Z"/><path class="cls-2" d="M936.14,151.42h3.8v33.35h-3.8v-4c-2.3,3.15-4.75,4.5-8.25,4.5-6.35,0-10.85-4.95-10.85-11.95s4.6-12.2,10.85-12.2a9.89,9.89,0,0,1,8.25,4.05Zm-15.1,22c0,5.05,3.05,8.6,7.4,8.6s7.7-3.7,7.7-8.7c0-5.2-3-8.75-7.45-8.75C924.14,164.57,921,168.17,921,173.42Z"/><path class="cls-2" d="M949.79,174.47a7.19,7.19,0,0,0,1.5,4.2,7.5,7.5,0,0,0,6.2,3.15,8,8,0,0,0,6.9-3.95l3.35,1.25a11.29,11.29,0,0,1-10.25,6.2c-6.85,0-11.75-5-11.75-12s4.85-12.15,11.6-12.15A11.46,11.46,0,0,1,969,173c0,.3,0,.95,0,1.5Zm15.2-2.8a7.14,7.14,0,0,0-1.3-3.95,7.91,7.91,0,0,0-6.35-3.15,7.41,7.41,0,0,0-6.2,3.2,9.15,9.15,0,0,0-1.3,3.9Z"/><path class="cls-2" d="M978.34,161.72V165c2-2.7,4-3.8,6.85-3.8a8,8,0,0,1,5.35,1.9c1.45,1.4,2,3,2,6.15v15.55h-3.8v-14.7c0-2-.25-3.15-.85-3.95a4.44,4.44,0,0,0-3.6-1.55,5.74,5.74,0,0,0-4.4,2,5.44,5.44,0,0,0-1.5,4.2v14.05h-3.8V161.72Z"/><path class="cls-2" d="M1018.79,161.72v3.2c1.75-2.65,3.7-3.75,6.54-3.75,3.16,0,5.16,1.35,6.21,4.2a7.54,7.54,0,0,1,7.3-4.2c2.65,0,4.65.85,5.85,2.45,1.1,1.45,1.4,2.75,1.4,6.4v14.75h-3.8V170.92c0-2.8-.1-3.45-.65-4.4a4.5,4.5,0,0,0-4-2c-3.35,0-5.2,2.25-5.2,6.35v13.85h-3.8V171c0-2.25-.2-3.4-.75-4.4a4,4,0,0,0-3.75-2c-3.35,0-5.35,2.4-5.35,6.4v13.8H1015V161.72Z"/><path class="cls-2" d="M1057.93,155.27a2.41,2.41,0,0,1-2.45,2.4,2.45,2.45,0,0,1,0-4.9A2.42,2.42,0,0,1,1057.93,155.27Zm-.55,29.5h-3.8V161.72h3.8Z"/><path class="cls-2" d="M1069.08,180.07c.05,1.15.35,1.4,1.75,1.4h1.75v3.3H1069c-2.7-.05-3.75-1.05-3.75-3.6v-16.1h-3.2v-3.35h3.2v-7.25h3.8v7.25h3.5v3.35h-3.5Z"/><path class="cls-2" d="M124.05,211.42h3.8v33.35h-3.8v-4c-2.3,3.15-4.75,4.5-8.25,4.5-6.35,0-10.85-4.95-10.85-11.95s4.6-12.2,10.85-12.2a9.89,9.89,0,0,1,8.25,4.05Zm-15.1,22c0,5.05,3,8.6,7.4,8.6s7.7-3.7,7.7-8.7c0-5.2-3-8.75-7.45-8.75S109,228.17,109,233.42Z"/><path class="cls-2" d="M137.7,234.47a7.19,7.19,0,0,0,1.5,4.2,7.5,7.5,0,0,0,6.2,3.15,8,8,0,0,0,6.9-3.95l3.35,1.25a11.29,11.29,0,0,1-10.25,6.2c-6.85,0-11.75-5-11.75-12s4.85-12.15,11.6-12.15A11.46,11.46,0,0,1,157,233c0,.3,0,.95,0,1.5Zm15.2-2.8a7.14,7.14,0,0,0-1.3-3.95,7.91,7.91,0,0,0-6.35-3.15,7.41,7.41,0,0,0-6.2,3.2,9.15,9.15,0,0,0-1.3,3.9Z"/><path class="cls-2" d="M166.25,221.72v3.9a6.51,6.51,0,0,1,2.1-3.05,7.22,7.22,0,0,1,4.4-1.4h.9V225a8.51,8.51,0,0,0-1.05-.05,5.91,5.91,0,0,0-5,2.65c-1,1.45-1.35,2.8-1.35,5.45v11.7h-3.8V221.72Z"/><path class="cls-2" d="M197.15,221.72v4.2c2.2-3.4,4.55-4.75,8.4-4.75,6.4,0,10.85,4.9,10.85,11.9,0,7.25-4.45,12.25-10.85,12.25a11,11,0,0,1-5.05-1.2,8.27,8.27,0,0,1-3.35-3v14.4h-3.8V221.72Zm0,11.9c0,5,3,8.4,7.6,8.4s7.6-3.55,7.6-8.8a8.94,8.94,0,0,0-2-6.25,7.45,7.45,0,0,0-5.45-2.4C200.3,224.57,197.15,228.22,197.15,233.62Z"/><path class="cls-2" d="M239.55,221.72h3.8v23.05h-3.8v-4.45c-2.3,3.45-4.9,5-8.4,5-6.35,0-10.85-5-10.85-12s4.6-12.15,10.95-12.15a9.64,9.64,0,0,1,8.3,4.35Zm-13.35,5.6a10.52,10.52,0,0,0-1.9,6.1c0,4.9,3.2,8.6,7.4,8.6,4.35,0,7.9-4.05,7.9-9s-3.2-8.45-7.8-8.45A6.28,6.28,0,0,0,226.2,227.32Z"/><path class="cls-2" d="M261.6,228v-.25c0-2.15-1.75-3.5-4.4-3.5s-4.15,1.3-4.15,3.3,1,2.75,5.15,3.9c2.95.8,4.5,1.55,5.6,2.65a6.44,6.44,0,0,1,1.85,4.5c0,4-3.3,6.7-8.2,6.7-5.25,0-8.2-2.45-8.6-7.1h3.75c.25,2.6,2,4,4.85,4,2.6,0,4.3-1.35,4.3-3.4s-1.3-3-5.25-4c-5-1.35-7.25-3.45-7.25-6.95,0-4,3.25-6.7,8.1-6.7s7.85,2.5,8,6.85Z"/><path class="cls-2" d="M282.15,228v-.25c0-2.15-1.75-3.5-4.4-3.5s-4.15,1.3-4.15,3.3,1,2.75,5.15,3.9c2.95.8,4.5,1.55,5.6,2.65a6.44,6.44,0,0,1,1.85,4.5c0,4-3.3,6.7-8.2,6.7-5.25,0-8.2-2.45-8.6-7.1h3.75c.25,2.6,2,4,4.85,4,2.6,0,4.3-1.35,4.3-3.4s-1.3-3-5.25-4c-5-1.35-7.25-3.45-7.25-6.95,0-4,3.25-6.7,8.1-6.7s7.85,2.5,8.05,6.85Z"/><path class="cls-2" d="M294.25,234.47a7.19,7.19,0,0,0,1.5,4.2,7.5,7.5,0,0,0,6.2,3.15,8,8,0,0,0,6.9-3.95l3.35,1.25a11.29,11.29,0,0,1-10.25,6.2c-6.85,0-11.75-5-11.75-12s4.85-12.15,11.6-12.15A11.46,11.46,0,0,1,313.5,233c0,.3,0,.95-.05,1.5Zm15.2-2.8a7.14,7.14,0,0,0-1.3-3.95,7.91,7.91,0,0,0-6.35-3.15,7.41,7.41,0,0,0-6.2,3.2,9.15,9.15,0,0,0-1.3,3.9Z"/><path class="cls-2" d="M322.8,221.72V225c2-2.7,4-3.8,6.85-3.8a8,8,0,0,1,5.35,1.9c1.45,1.4,1.95,3,1.95,6.15v15.55h-3.8v-14.7c0-2-.25-3.15-.85-3.95a4.44,4.44,0,0,0-3.6-1.55,5.74,5.74,0,0,0-4.4,2,5.44,5.44,0,0,0-1.5,4.2v14.05H319V221.72Z"/><path class="cls-2" d="M361.7,211.42h3.8v33.35h-3.8v-4c-2.3,3.15-4.75,4.5-8.25,4.5-6.35,0-10.85-4.95-10.85-11.95s4.6-12.2,10.85-12.2a9.89,9.89,0,0,1,8.25,4.05Zm-15.1,22c0,5.05,3,8.6,7.4,8.6s7.7-3.7,7.7-8.7c0-5.2-3.05-8.75-7.45-8.75C349.7,224.57,346.6,228.17,346.6,233.42Z"/><path class="cls-2" d="M375.35,234.47a7.19,7.19,0,0,0,1.5,4.2,7.5,7.5,0,0,0,6.2,3.15,8,8,0,0,0,6.9-3.95l3.35,1.25a11.29,11.29,0,0,1-10.25,6.2c-6.85,0-11.75-5-11.75-12s4.85-12.15,11.6-12.15A11.46,11.46,0,0,1,394.6,233c0,.3,0,.95-.05,1.5Zm15.2-2.8a7.14,7.14,0,0,0-1.3-3.95,7.91,7.91,0,0,0-6.35-3.15,7.41,7.41,0,0,0-6.2,3.2,9.15,9.15,0,0,0-1.3,3.9Z"/><path class="cls-2" d="M403.9,221.72V225c2-2.7,4-3.8,6.85-3.8a8,8,0,0,1,5.35,1.9c1.45,1.4,1.95,3,1.95,6.15v15.55h-3.8v-14.7c0-2-.25-3.15-.85-3.95a4.44,4.44,0,0,0-3.6-1.55,5.74,5.74,0,0,0-4.4,2,5.41,5.41,0,0,0-1.5,4.2v14.05h-3.81V221.72Z"/><path class="cls-2" d="M445.09,244.77h-4.2V211.42H450c7.1,0,11.4,3.65,11.4,9.7a9.05,9.05,0,0,1-4.8,8.4c-1.6.85-3.1,1.2-6.15,1.4l12.95,13.85H458l-13-14Zm4.2-16.85c5,0,7.8-2.3,7.8-6.5s-2.5-6.4-7.1-6.4h-4.9v12.9Z"/><path class="cls-2" d="M472.59,226.17h13v3.6h-13v15h-4.2V211.42h17.2V215h-13Z"/><path class="cls-2" d="M495.39,244.77h-4.2V211.42h4.2Z"/><path class="cls-2" d="M503.69,211.42h8.85c10.05,0,16.1,6.1,16.1,16.15,0,5.65-1.85,10.3-5.25,13.35-2.9,2.6-6.75,3.85-11.6,3.85h-8.1Zm4.2,29.75h1.5c5.65,0,8.05-.6,10.45-2.5,3-2.4,4.5-6.1,4.5-11,0-8.05-4.3-12.65-12-12.65h-4.5Z"/><path class="cls-2" d="M543.94,234.37H533.59v-3.45h10.35Z"/><path class="cls-2" d="M557,244.77h-4.2V215h-8.5v-3.6h21.15V215H557Z"/><path class="cls-2" d="M569.54,234.47a7.19,7.19,0,0,0,1.5,4.2,7.5,7.5,0,0,0,6.2,3.15,8,8,0,0,0,6.9-3.95l3.35,1.25a11.29,11.29,0,0,1-10.25,6.2c-6.85,0-11.75-5-11.75-12s4.85-12.15,11.6-12.15a11.46,11.46,0,0,1,11.7,11.8c0,.3,0,.95,0,1.5Zm15.2-2.8a7.14,7.14,0,0,0-1.3-3.95,7.91,7.91,0,0,0-6.35-3.15,7.41,7.41,0,0,0-6.2,3.2,9.15,9.15,0,0,0-1.3,3.9Z"/><path class="cls-2" d="M612.24,241.92a11.81,11.81,0,0,1-8.5,3.4c-6.6,0-11.3-5-11.3-12,0-7.15,4.75-12.15,11.5-12.15a11.4,11.4,0,0,1,8.4,3.45l-2.45,2.45a8.47,8.47,0,0,0-5.85-2.4c-4.55,0-7.7,3.5-7.7,8.5s3.15,8.65,7.65,8.65a8.07,8.07,0,0,0,5.9-2.5Z"/><path class="cls-2" d="M620.39,224.92c2.1-2.6,4.2-3.75,7-3.75a7.69,7.69,0,0,1,5.35,2.1c1.25,1.25,1.8,3,1.8,6v15.5h-3.8v-15.3c0-3.15-1.55-4.9-4.3-4.9a5.87,5.87,0,0,0-4.5,2.05c-1.15,1.3-1.5,2.45-1.5,4.65v13.5h-3.8V211.42h3.8Z"/><path class="cls-2" d="M645.79,221.72V225c2-2.7,4-3.8,6.85-3.8a8,8,0,0,1,5.35,1.9c1.45,1.4,2,3,2,6.15v15.55h-3.8v-14.7c0-2-.25-3.15-.85-3.95a4.44,4.44,0,0,0-3.6-1.55,5.74,5.74,0,0,0-4.4,2,5.44,5.44,0,0,0-1.5,4.2v14.05H642V221.72Z"/><path class="cls-2" d="M671.79,215.27a2.41,2.41,0,0,1-2.45,2.4,2.45,2.45,0,0,1,0-4.9A2.42,2.42,0,0,1,671.79,215.27Zm-.55,29.5h-3.8V221.72h3.8Z"/><path class="cls-2" d="M682.69,244.77h-3.8V211.42h3.8v20.4l9.2-10.1h4.8L686.39,233l10.25,11.8h-4.75l-9.2-10.3Z"/><path class="cls-2" d="M733.49,221.72h3.8v23.05h-3.8v-4.45c-2.3,3.45-4.9,5-8.4,5-6.35,0-10.85-5-10.85-12s4.6-12.15,11-12.15a9.64,9.64,0,0,1,8.3,4.35Zm-13.35,5.6a10.52,10.52,0,0,0-1.9,6.1c0,4.9,3.2,8.6,7.4,8.6,4.35,0,7.9-4.05,7.9-9s-3.2-8.45-7.8-8.45A6.28,6.28,0,0,0,720.14,227.32Z"/><path class="cls-2" d="M762.19,221.72v14.75c0,3.15-.6,4.9-2.3,6.45a10.33,10.33,0,0,1-13.3,0c-1.55-1.5-2.3-3.6-2.3-6.4V221.72h3.8v14.65c0,3.25,2.1,5.55,5.15,5.55a5.46,5.46,0,0,0,4.1-1.75c.75-.9,1-1.85,1-3.7V221.72Z"/><path class="cls-2" d="M779.84,228v-.25c0-2.15-1.75-3.5-4.4-3.5s-4.15,1.3-4.15,3.3,1,2.75,5.15,3.9c2.95.8,4.5,1.55,5.6,2.65a6.44,6.44,0,0,1,1.85,4.5c0,4-3.3,6.7-8.2,6.7-5.25,0-8.2-2.45-8.6-7.1h3.75c.25,2.6,1.95,4,4.85,4,2.6,0,4.3-1.35,4.3-3.4s-1.3-3-5.25-4c-5-1.35-7.25-3.45-7.25-6.95,0-4,3.25-6.7,8.1-6.7s7.85,2.5,8,6.85Z"/><path class="cls-2" d="M806.64,221.72h3.8v23.2c0,3.85-1,6.45-3.05,8.45a11.87,11.87,0,0,1-8.5,3.05q-6.45,0-10.2-4.2l2.6-2.6a13.47,13.47,0,0,0,2.2,2,11.2,11.2,0,0,0,5.4,1.35,8.35,8.35,0,0,0,6-2.25,7.89,7.89,0,0,0,1.75-5.5v-4.85c-2.25,3.4-4.9,4.95-8.5,4.95-6.1,0-10.65-5.15-10.65-12a13.22,13.22,0,0,1,3.65-9.45,10.13,10.13,0,0,1,7.3-2.7c3.5,0,5.85,1.3,8.2,4.5Zm-15.15,11.45c0,5,3.2,8.65,7.55,8.65a7.81,7.81,0,0,0,5.85-2.8,9.31,9.31,0,0,0,1.65-5.7c0-3-.45-4.6-1.8-6.1a7.83,7.83,0,0,0-5.6-2.55C794.64,224.67,791.49,228.17,791.49,233.17Z"/><path class="cls-2" d="M820.09,234.47a7.19,7.19,0,0,0,1.5,4.2,7.5,7.5,0,0,0,6.2,3.15,8,8,0,0,0,6.9-3.95l3.35,1.25a11.29,11.29,0,0,1-10.25,6.2c-6.85,0-11.75-5-11.75-12s4.85-12.15,11.6-12.15a11.46,11.46,0,0,1,11.7,11.8c0,.3,0,.95-.05,1.5Zm15.2-2.8a7.14,7.14,0,0,0-1.3-3.95,7.91,7.91,0,0,0-6.35-3.15,7.41,7.41,0,0,0-6.2,3.2,9.15,9.15,0,0,0-1.3,3.9Z"/><path class="cls-2" d="M855.39,228v-.25c0-2.15-1.75-3.5-4.4-3.5s-4.15,1.3-4.15,3.3,1,2.75,5.15,3.9c3,.8,4.5,1.55,5.6,2.65a6.44,6.44,0,0,1,1.85,4.5c0,4-3.3,6.7-8.2,6.7-5.25,0-8.2-2.45-8.6-7.1h3.75c.25,2.6,2,4,4.85,4,2.6,0,4.3-1.35,4.3-3.4s-1.3-3-5.25-4c-5-1.35-7.25-3.45-7.25-6.95,0-4,3.25-6.7,8.1-6.7s7.85,2.5,8.05,6.85Z"/><path class="cls-2" d="M869.34,240.07c0,1.15.35,1.4,1.75,1.4h1.75v3.3h-3.55c-2.7-.05-3.75-1.05-3.75-3.6v-16.1h-3.2v-3.35h3.2v-7.25h3.8v7.25h3.5v3.35h-3.5Z"/><path class="cls-2" d="M895.19,221.72H899v23.05h-3.8v-4.45c-2.3,3.45-4.9,5-8.4,5-6.35,0-10.85-5-10.85-12s4.6-12.15,10.95-12.15a9.64,9.64,0,0,1,8.3,4.35Zm-13.35,5.6a10.52,10.52,0,0,0-1.9,6.1c0,4.9,3.2,8.6,7.4,8.6s7.9-4.05,7.9-9-3.2-8.45-7.8-8.45A6.28,6.28,0,0,0,881.84,227.32Z"/><path class="cls-2" d="M910.54,240.07c.05,1.15.35,1.4,1.75,1.4H914v3.3h-3.55c-2.7-.05-3.75-1.05-3.75-3.6v-16.1h-3.2v-3.35h3.2v-7.25h3.8v7.25H914v3.35h-3.5Z"/><path class="cls-2" d="M924.19,240.07c0,1.15.35,1.4,1.75,1.4h1.75v3.3h-3.55c-2.7-.05-3.75-1.05-3.75-3.6v-16.1h-3.2v-3.35h3.2v-7.25h3.8v7.25h3.5v3.35h-3.5Z"/><path class="cls-2" d="M934.84,234.47a7.19,7.19,0,0,0,1.5,4.2,7.5,7.5,0,0,0,6.2,3.15,8,8,0,0,0,6.9-3.95l3.35,1.25a11.29,11.29,0,0,1-10.25,6.2c-6.85,0-11.75-5-11.75-12s4.85-12.15,11.6-12.15a11.46,11.46,0,0,1,11.7,11.8c0,.3,0,.95-.05,1.5Zm15.2-2.8a7.14,7.14,0,0,0-1.3-3.95,7.91,7.91,0,0,0-6.35-3.15,7.41,7.41,0,0,0-6.2,3.2,9.15,9.15,0,0,0-1.3,3.9Z"/><path class="cls-2" d="M963.24,240.07c0,1.15.35,1.4,1.75,1.4h1.75v3.3h-3.55c-2.7-.05-3.75-1.05-3.75-3.6v-16.1h-3.2v-3.35h3.2v-7.25h3.8v7.25h3.5v3.35h-3.5Z"/><path class="cls-2" d="M971.74,252.72l-2.75-.85,4.2-12.15,3.6,1.15Z"/><path class="cls-2" d="M124.05,271.42h3.8v33.35h-3.8v-3.95c-2.3,3.15-4.75,4.5-8.25,4.5-6.35,0-10.85-4.95-10.85-11.95s4.6-12.2,10.85-12.2a9.89,9.89,0,0,1,8.25,4.05Zm-15.1,22c0,5.05,3,8.6,7.4,8.6s7.7-3.7,7.7-8.7c0-5.2-3-8.75-7.45-8.75S109,288.17,109,293.42Z"/><path class="cls-2" d="M152.7,281.72h3.8v23h-3.8v-4.45c-2.3,3.45-4.9,5-8.4,5-6.35,0-10.85-5-10.85-12s4.6-12.15,11-12.15a9.64,9.64,0,0,1,8.3,4.35Zm-13.35,5.6a10.52,10.52,0,0,0-1.9,6.1c0,4.9,3.2,8.6,7.4,8.6,4.35,0,7.9-4,7.9-9s-3.2-8.45-7.8-8.45A6.28,6.28,0,0,0,139.35,287.32Z"/><path class="cls-2" d="M168,281.72v3.2c1.75-2.65,3.7-3.75,6.55-3.75,3.15,0,5.15,1.35,6.2,4.2a7.54,7.54,0,0,1,7.3-4.2c2.65,0,4.65.85,5.85,2.45,1.1,1.45,1.4,2.75,1.4,6.4v14.75h-3.8V290.92c0-2.8-.1-3.45-.65-4.4a4.5,4.5,0,0,0-4-1.95c-3.35,0-5.2,2.25-5.2,6.35v13.85h-3.8V291c0-2.25-.2-3.4-.75-4.4a4,4,0,0,0-3.75-2c-3.35,0-5.35,2.4-5.35,6.4v13.8h-3.8v-23Z"/><path class="cls-2" d="M207.1,275.27a2.41,2.41,0,0,1-2.45,2.4,2.45,2.45,0,0,1,0-4.9A2.42,2.42,0,0,1,207.1,275.27Zm-.55,29.5h-3.8v-23h3.8Z"/><path class="cls-2" d="M218.25,300.07c.05,1.15.35,1.4,1.75,1.4h1.75v3.3H218.2c-2.7,0-3.75-1-3.75-3.6v-16.1h-3.2v-3.35h3.2v-7.25h3.8v7.25h3.5v3.35h-3.5Z"/><path class="cls-2" d="M259.4,271.42h3.8v33.35h-3.8v-3.95c-2.3,3.15-4.75,4.5-8.25,4.5-6.35,0-10.85-4.95-10.85-11.95s4.6-12.2,10.85-12.2a9.89,9.89,0,0,1,8.25,4.05Zm-15.1,22c0,5.05,3,8.6,7.4,8.6s7.7-3.7,7.7-8.7c0-5.2-3-8.75-7.45-8.75S244.3,288.17,244.3,293.42Z"/><path class="cls-2" d="M275.2,275.27a2.41,2.41,0,0,1-2.45,2.4,2.45,2.45,0,0,1,.05-4.9A2.42,2.42,0,0,1,275.2,275.27Zm-.55,29.5h-3.8v-23h3.8Z"/><path class="cls-2" d="M284.5,294.47a7.19,7.19,0,0,0,1.5,4.2,7.5,7.5,0,0,0,6.2,3.15,8,8,0,0,0,6.9-3.95l3.35,1.25a11.29,11.29,0,0,1-10.25,6.2c-6.85,0-11.75-5-11.75-12s4.85-12.15,11.6-12.15a11.46,11.46,0,0,1,11.7,11.8c0,.3,0,.95-.05,1.5Zm15.2-2.8a7.14,7.14,0,0,0-1.3-3.95,7.91,7.91,0,0,0-6.35-3.15,7.41,7.41,0,0,0-6.2,3.2,9.15,9.15,0,0,0-1.3,3.9Z"/><path class="cls-2" d="M333.65,304.77h-4.2V275h-8.51v-3.6H342.1V275h-8.45Z"/><path class="cls-2" d="M365.6,293.32a11.77,11.77,0,0,1-11.8,12c-6.85,0-11.65-5-11.65-12.1s4.8-12.05,11.8-12.05C360.75,281.17,365.6,286.22,365.6,293.32Zm-19.55-.05c0,5.1,3.15,8.55,7.85,8.55s7.8-3.55,7.8-8.55-3.1-8.6-7.75-8.6S346.05,288.12,346.05,293.27Z"/><path class="cls-2" d="M375.2,304.77h-3.81V271.42h3.81v20.4l9.2-10.1h4.8L378.9,293l10.25,11.8H384.4l-9.2-10.3Z"/><path class="cls-2" d="M394.54,294.47a7.19,7.19,0,0,0,1.5,4.2,7.5,7.5,0,0,0,6.21,3.15,8,8,0,0,0,6.9-3.95l3.35,1.25a11.29,11.29,0,0,1-10.25,6.2c-6.86,0-11.76-5-11.76-12s4.85-12.15,11.6-12.15A11.47,11.47,0,0,1,413.8,293c0,.3,0,.95-.05,1.5Zm15.21-2.8a7.14,7.14,0,0,0-1.3-3.95,7.93,7.93,0,0,0-6.36-3.15,7.41,7.41,0,0,0-6.2,3.2,9.15,9.15,0,0,0-1.3,3.9Z"/><path class="cls-2" d="M423.09,281.72V285c2-2.7,4-3.8,6.85-3.8a8,8,0,0,1,5.35,1.9c1.45,1.4,1.95,3,1.95,6.15v15.55h-3.8v-14.7c0-2.05-.25-3.15-.85-3.95a4.44,4.44,0,0,0-3.6-1.55,5.74,5.74,0,0,0-4.4,1.95,5.44,5.44,0,0,0-1.5,4.2v14h-3.8v-23Z"/><path class="cls-2" d="M461.94,294.47a7.19,7.19,0,0,0,1.5,4.2,7.5,7.5,0,0,0,6.2,3.15,8,8,0,0,0,6.9-3.95l3.35,1.25a11.29,11.29,0,0,1-10.25,6.2c-6.85,0-11.75-5-11.75-12s4.85-12.15,11.6-12.15a11.46,11.46,0,0,1,11.7,11.8c0,.3,0,.95-.05,1.5Zm15.2-2.8a7.14,7.14,0,0,0-1.3-3.95,7.91,7.91,0,0,0-6.35-3.15,7.41,7.41,0,0,0-6.2,3.2,9.15,9.15,0,0,0-1.3,3.9Z"/><path class="cls-2" d="M490.49,281.72v3.9a6.51,6.51,0,0,1,2.1-3.05,7.22,7.22,0,0,1,4.4-1.4h.9V285a8.51,8.51,0,0,0-1.05,0,5.91,5.91,0,0,0-5,2.65c-1,1.45-1.35,2.8-1.35,5.45v11.7h-3.8v-23Z"/><path class="cls-2" d="M507.74,304.77h-3.8v-19.7h-3.15v-3.35h3.15v-3.1c0-4.55,2.35-7.25,6.35-7.25a8.93,8.93,0,0,1,1,.05v3.4c-2.75.3-3.5,1.1-3.6,3.8v3.1h3.6v3.35h-3.6Z"/><path class="cls-2" d="M533.29,281.72h3.8v23h-3.8v-4.45c-2.3,3.45-4.9,5-8.4,5-6.35,0-10.85-5-10.85-12s4.6-12.15,11-12.15a9.64,9.64,0,0,1,8.3,4.35Zm-13.35,5.6a10.52,10.52,0,0,0-1.9,6.1c0,4.9,3.2,8.6,7.4,8.6s7.9-4,7.9-9-3.2-8.45-7.8-8.45A6.28,6.28,0,0,0,519.94,287.32Z"/><path class="cls-2" d="M555.34,288v-.25c0-2.15-1.75-3.5-4.4-3.5s-4.15,1.3-4.15,3.3,1,2.75,5.15,3.9c2.95.8,4.5,1.55,5.6,2.65a6.44,6.44,0,0,1,1.85,4.5c0,4-3.3,6.7-8.2,6.7-5.25,0-8.2-2.45-8.6-7.1h3.75c.25,2.6,1.95,4,4.85,4,2.6,0,4.3-1.35,4.3-3.4s-1.3-3-5.25-4c-5-1.35-7.25-3.45-7.25-6.95,0-4,3.25-6.7,8.1-6.7s7.85,2.5,8,6.85Z"/><path class="cls-2" d="M575.89,288v-.25c0-2.15-1.75-3.5-4.4-3.5s-4.15,1.3-4.15,3.3,1,2.75,5.15,3.9c3,.8,4.5,1.55,5.6,2.65a6.44,6.44,0,0,1,1.85,4.5c0,4-3.3,6.7-8.2,6.7-5.25,0-8.2-2.45-8.6-7.1h3.75c.25,2.6,2,4,4.85,4,2.6,0,4.3-1.35,4.3-3.4s-1.3-3-5.25-4c-5-1.35-7.25-3.45-7.25-6.95,0-4,3.25-6.7,8.1-6.7s7.85,2.5,8.05,6.85Z"/><path class="cls-2" d="M589.84,300.07c0,1.15.35,1.4,1.75,1.4h1.75v3.3h-3.55c-2.7,0-3.75-1-3.75-3.6v-16.1h-3.2v-3.35H586v-7.25h3.8v7.25h3.5v3.35h-3.5Z"/><path class="cls-2" d="M644.24,281.72l-8.2,23h-3.45l-5.3-17.5-5.55,17.5h-3.6l-7.9-23h3.9l5.9,16.95,5.3-16.95h3.75l5.2,16.95,6.05-16.95Z"/><path class="cls-2" d="M650.14,294.47a7.19,7.19,0,0,0,1.5,4.2,7.5,7.5,0,0,0,6.2,3.15,8,8,0,0,0,6.9-3.95l3.35,1.25a11.29,11.29,0,0,1-10.25,6.2c-6.85,0-11.75-5-11.75-12s4.85-12.15,11.6-12.15a11.46,11.46,0,0,1,11.7,11.8c0,.3,0,.95,0,1.5Zm15.2-2.8a7.14,7.14,0,0,0-1.3-3.95,7.91,7.91,0,0,0-6.35-3.15,7.41,7.41,0,0,0-6.2,3.2,9.15,9.15,0,0,0-1.3,3.9Z"/><path class="cls-2" d="M678.69,281.72v3.9a6.51,6.51,0,0,1,2.1-3.05,7.22,7.22,0,0,1,4.4-1.4h.9V285a8.51,8.51,0,0,0-1.05,0,5.91,5.91,0,0,0-5,2.65c-1,1.45-1.35,2.8-1.35,5.45v11.7h-3.8v-23Z"/><path class="cls-2" d="M707.24,271.42H711v33.35h-3.8v-3.95c-2.3,3.15-4.75,4.5-8.25,4.5-6.35,0-10.85-4.95-10.85-11.95s4.6-12.2,10.85-12.2a9.89,9.89,0,0,1,8.25,4.05Zm-15.1,22c0,5.05,3.05,8.6,7.4,8.6s7.7-3.7,7.7-8.7c0-5.2-3-8.75-7.45-8.75S692.14,288.17,692.14,293.42Z"/><path class="cls-2" d="M720.89,294.47a7.19,7.19,0,0,0,1.5,4.2,7.5,7.5,0,0,0,6.2,3.15,8,8,0,0,0,6.9-3.95l3.35,1.25a11.29,11.29,0,0,1-10.25,6.2c-6.85,0-11.75-5-11.75-12s4.85-12.15,11.6-12.15a11.46,11.46,0,0,1,11.7,11.8c0,.3,0,.95,0,1.5Zm15.2-2.8a7.14,7.14,0,0,0-1.3-3.95,7.91,7.91,0,0,0-6.35-3.15,7.41,7.41,0,0,0-6.2,3.2,9.15,9.15,0,0,0-1.3,3.9Z"/><path class="cls-2" d="M749.44,281.72V285c2-2.7,4-3.8,6.85-3.8a8,8,0,0,1,5.35,1.9c1.45,1.4,2,3,2,6.15v15.55h-3.8v-14.7c0-2.05-.25-3.15-.85-3.95a4.44,4.44,0,0,0-3.6-1.55,5.74,5.74,0,0,0-4.4,1.95,5.44,5.44,0,0,0-1.5,4.2v14h-3.8v-23Z"/><path class="cls-2" d="M789.89,304.77h-3.81V271.42h3.81v20.4l9.2-10.1h4.8L793.59,293l10.25,11.8h-4.75l-9.2-10.3Z"/><path class="cls-2" d="M828.64,293.32a11.74,11.74,0,0,1-11.8,12c-6.85,0-11.65-5-11.65-12.1s4.8-12.05,11.8-12.05C823.79,281.17,828.64,286.22,828.64,293.32Zm-19.55-.05c0,5.1,3.15,8.55,7.85,8.55,4.55,0,7.8-3.55,7.8-8.55s-3.1-8.6-7.75-8.6S809.09,288.12,809.09,293.27Zm5.2-18.1a2.35,2.35,0,1,1-2.35-2.4A2.3,2.3,0,0,1,814.29,275.17Zm10,0a2.35,2.35,0,1,1-2.35-2.4A2.3,2.3,0,0,1,824.24,275.17Z"/><path class="cls-2" d="M838.24,281.72V285c2-2.7,4-3.8,6.85-3.8a8,8,0,0,1,5.35,1.9c1.45,1.4,1.95,3,1.95,6.15v15.55h-3.8v-14.7c0-2.05-.25-3.15-.85-3.95a4.44,4.44,0,0,0-3.6-1.55,5.74,5.74,0,0,0-4.4,1.95,5.41,5.41,0,0,0-1.5,4.2v14h-3.81v-23Z"/><path class="cls-2" d="M863.68,281.72V285c2-2.7,4-3.8,6.86-3.8a8,8,0,0,1,5.34,1.9c1.45,1.4,2,3,2,6.15v15.55H874v-14.7c0-2.05-.25-3.15-.86-3.95a4.43,4.43,0,0,0-3.6-1.55,5.74,5.74,0,0,0-4.4,1.95,5.44,5.44,0,0,0-1.5,4.2v14h-3.8v-23Z"/><path class="cls-2" d="M887.53,294.47a7.19,7.19,0,0,0,1.5,4.2,7.5,7.5,0,0,0,6.2,3.15,8,8,0,0,0,6.9-3.95l3.35,1.25a11.29,11.29,0,0,1-10.25,6.2c-6.85,0-11.75-5-11.75-12s4.85-12.15,11.6-12.15A11.47,11.47,0,0,1,906.79,293a14.81,14.81,0,0,1-.06,1.5Zm15.2-2.8a7.14,7.14,0,0,0-1.3-3.95,7.91,7.91,0,0,0-6.35-3.15,7.41,7.41,0,0,0-6.2,3.2,9.15,9.15,0,0,0-1.3,3.9Z"/><path class="cls-2" d="M916.08,281.72V285c2-2.7,4-3.8,6.85-3.8a8,8,0,0,1,5.35,1.9c1.45,1.4,2,3,2,6.15v15.55h-3.8v-14.7c0-2.05-.25-3.15-.85-3.95a4.44,4.44,0,0,0-3.6-1.55,5.74,5.74,0,0,0-4.4,1.95,5.44,5.44,0,0,0-1.5,4.2v14h-3.8v-23Z"/><path class="cls-2" d="M970,281.72v14.75c0,3.15-.6,4.9-2.3,6.45a10.33,10.33,0,0,1-13.3-.05c-1.55-1.5-2.3-3.6-2.3-6.4V281.72h3.8v14.65c0,3.25,2.1,5.55,5.15,5.55a5.46,5.46,0,0,0,4.1-1.75c.75-.9,1-1.85,1-3.7V281.72Z"/><path class="cls-2" d="M980.78,281.72V285c2-2.7,4-3.8,6.85-3.8a8,8,0,0,1,5.35,1.9c1.45,1.4,1.95,3,1.95,6.15v15.55h-3.8v-14.7c0-2.05-.25-3.15-.85-3.95a4.44,4.44,0,0,0-3.6-1.55,5.74,5.74,0,0,0-4.4,1.95,5.44,5.44,0,0,0-1.5,4.2v14H977v-23Z"/><path class="cls-2" d="M1019.68,271.42h3.8v33.35h-3.8v-3.95c-2.3,3.15-4.75,4.5-8.25,4.5-6.35,0-10.85-4.95-10.85-11.95s4.6-12.2,10.85-12.2a9.89,9.89,0,0,1,8.25,4.05Zm-15.1,22c0,5.05,3,8.6,7.4,8.6s7.7-3.7,7.7-8.7c0-5.2-3-8.75-7.45-8.75C1007.68,284.57,1004.58,288.17,1004.58,293.42Z"/><path class="cls-2" d="M124.05,331.42h3.8v33.35h-3.8v-3.95c-2.3,3.15-4.75,4.5-8.25,4.5-6.35,0-10.85-4.95-10.85-11.95s4.6-12.2,10.85-12.2a9.89,9.89,0,0,1,8.25,4.05Zm-15.1,22c0,5.05,3,8.6,7.4,8.6s7.7-3.7,7.7-8.7c0-5.2-3-8.75-7.45-8.75S109,348.17,109,353.42Z"/><path class="cls-2" d="M139.85,335.27a2.41,2.41,0,0,1-2.45,2.4,2.45,2.45,0,0,1,0-4.9A2.42,2.42,0,0,1,139.85,335.27Zm-.55,29.5h-3.8v-23h3.8Z"/><path class="cls-2" d="M149.15,354.47a7.19,7.19,0,0,0,1.5,4.2,7.5,7.5,0,0,0,6.2,3.15,8,8,0,0,0,6.9-3.95l3.35,1.25a11.29,11.29,0,0,1-10.25,6.2c-6.85,0-11.75-5-11.75-12s4.85-12.15,11.6-12.15A11.46,11.46,0,0,1,168.4,353c0,.3,0,.95-.05,1.5Zm15.2-2.8a7.14,7.14,0,0,0-1.3-3.95,7.91,7.91,0,0,0-6.35-3.15,7.41,7.41,0,0,0-6.2,3.2,9.15,9.15,0,0,0-1.3,3.9Z"/><path class="cls-2" d="M206,341.72h3.8v23.2c0,3.85-.95,6.45-3.05,8.45a11.87,11.87,0,0,1-8.5,3.05q-6.45,0-10.2-4.2l2.6-2.6a13.47,13.47,0,0,0,2.2,2,11.2,11.2,0,0,0,5.4,1.35,8.35,8.35,0,0,0,6-2.25,7.89,7.89,0,0,0,1.75-5.5v-4.85c-2.25,3.4-4.9,4.95-8.5,4.95-6.1,0-10.65-5.15-10.65-12a13.22,13.22,0,0,1,3.65-9.45,10.13,10.13,0,0,1,7.3-2.7c3.5,0,5.85,1.3,8.2,4.5ZM190.8,353.17c0,4.95,3.2,8.65,7.55,8.65a7.81,7.81,0,0,0,5.85-2.8,9.31,9.31,0,0,0,1.65-5.7c0-3-.45-4.6-1.8-6.1a7.83,7.83,0,0,0-5.6-2.55C194,344.67,190.8,348.17,190.8,353.17Z"/><path class="cls-2" d="M219.4,354.47a7.19,7.19,0,0,0,1.5,4.2,7.5,7.5,0,0,0,6.2,3.15,8,8,0,0,0,6.9-3.95l3.35,1.25a11.29,11.29,0,0,1-10.25,6.2c-6.85,0-11.75-5-11.75-12s4.85-12.15,11.6-12.15a11.46,11.46,0,0,1,11.7,11.8c0,.3,0,.95-.05,1.5Zm15.2-2.8a7.14,7.14,0,0,0-1.3-3.95,7.91,7.91,0,0,0-6.35-3.15,7.41,7.41,0,0,0-6.2,3.2,9.15,9.15,0,0,0-1.3,3.9Z"/><path class="cls-2" d="M247.85,364.77h-3.8v-19.7H240.9v-3.35h3.15v-3.1c0-4.55,2.35-7.25,6.35-7.25a8.93,8.93,0,0,1,1,.05v3.4c-2.75.3-3.5,1.1-3.6,3.8v3.1h3.6v3.35h-3.6Z"/><path class="cls-2" d="M273.4,341.72h3.8v23h-3.8v-4.45c-2.3,3.45-4.9,5-8.4,5-6.35,0-10.85-5-10.85-12s4.6-12.15,11-12.15a9.64,9.64,0,0,1,8.3,4.35Zm-13.35,5.6a10.52,10.52,0,0,0-1.9,6.1c0,4.9,3.2,8.6,7.4,8.6s7.9-4,7.9-9-3.2-8.45-7.8-8.45A6.28,6.28,0,0,0,260.05,347.32Z"/><path class="cls-2" d="M288.65,344.92c2.1-2.6,4.2-3.75,7-3.75a7.69,7.69,0,0,1,5.35,2.1c1.25,1.25,1.8,3.05,1.8,6v15.5H299v-15.3c0-3.15-1.55-4.9-4.3-4.9a5.87,5.87,0,0,0-4.5,2.05c-1.15,1.3-1.5,2.45-1.5,4.65v13.5h-3.8V331.42h3.8Z"/><path class="cls-2" d="M314.05,341.72v3.9a6.51,6.51,0,0,1,2.1-3.05,7.22,7.22,0,0,1,4.4-1.4h.9V345a8.51,8.51,0,0,0-1.05,0,5.91,5.91,0,0,0-5,2.65c-1,1.45-1.35,2.8-1.35,5.45v11.7h-3.8v-23Z"/><path class="cls-2" d="M327.5,354.47a7.19,7.19,0,0,0,1.5,4.2,7.5,7.5,0,0,0,6.2,3.15,8,8,0,0,0,6.9-3.95l3.35,1.25a11.29,11.29,0,0,1-10.25,6.2c-6.85,0-11.75-5-11.75-12s4.85-12.15,11.6-12.15a11.46,11.46,0,0,1,11.7,11.8c0,.3,0,.95-.05,1.5Zm15.2-2.8a7.14,7.14,0,0,0-1.3-3.95,7.91,7.91,0,0,0-6.35-3.15,7.41,7.41,0,0,0-6.2,3.2,9.15,9.15,0,0,0-1.3,3.9Z"/><path class="cls-2" d="M356.05,341.72V345c2-2.7,4-3.8,6.85-3.8a8,8,0,0,1,5.35,1.9c1.45,1.4,1.95,3,1.95,6.15v15.55h-3.8v-14.7c0-2.05-.25-3.15-.85-3.95a4.44,4.44,0,0,0-3.6-1.55,5.74,5.74,0,0,0-4.4,1.95,5.44,5.44,0,0,0-1.5,4.2v14h-3.8v-23Z"/><path class="cls-2" d="M379.89,354.47a7.25,7.25,0,0,0,1.5,4.2,7.53,7.53,0,0,0,6.21,3.15,8,8,0,0,0,6.9-3.95l3.35,1.25a11.29,11.29,0,0,1-10.25,6.2c-6.85,0-11.76-5-11.76-12s4.86-12.15,11.61-12.15a11.46,11.46,0,0,1,11.7,11.8c0,.3,0,.95,0,1.5Zm15.21-2.8a7.14,7.14,0,0,0-1.3-3.95,7.91,7.91,0,0,0-6.35-3.15,7.39,7.39,0,0,0-6.2,3.2,9,9,0,0,0-1.3,3.9Z"/><path class="cls-2" d="M421.74,355.82c.2,3.8,2.25,5.8,5.9,5.8s6.4-2.3,6.4-5.65c0-2.9-1.5-4.25-6.75-6-4-1.35-5.25-2-6.75-3.35a8.29,8.29,0,0,1-2.6-6.3c0-5.65,4.05-9.5,9.95-9.5s9.76,3.75,9.9,9.55h-4.2a6.39,6.39,0,0,0-.8-3.45,5.81,5.81,0,0,0-5-2.35,5.33,5.33,0,0,0-5.65,5.45,4.63,4.63,0,0,0,1.9,3.85c1.05.75,2,1.15,5.35,2.35,3.56,1.25,5.26,2.15,6.6,3.6a8.54,8.54,0,0,1,2.25,5.9c0,5.75-4.25,9.65-10.5,9.65-4.25,0-7.15-1.5-8.9-4.5a8.22,8.22,0,0,1-1.15-4.35v-.7Z"/><path class="cls-2" d="M448.19,360.07c.05,1.15.35,1.4,1.75,1.4h1.75v3.3h-3.55c-2.7,0-3.75-1-3.75-3.6v-16.1h-3.2v-3.35h3.2v-7.25h3.8v7.25h3.5v3.35h-3.5Z"/><path class="cls-2" d="M460.74,341.72v3.9a6.51,6.51,0,0,1,2.1-3.05,7.22,7.22,0,0,1,4.4-1.4h.9V345a8.51,8.51,0,0,0-1.05,0,5.91,5.91,0,0,0-5,2.65c-1,1.45-1.35,2.8-1.35,5.45v11.7h-3.8v-23Z"/><path class="cls-2" d="M474.19,354.47a7.19,7.19,0,0,0,1.5,4.2,7.5,7.5,0,0,0,6.2,3.15,8,8,0,0,0,6.9-3.95l3.35,1.25a11.29,11.29,0,0,1-10.25,6.2c-6.85,0-11.75-5-11.75-12s4.85-12.15,11.6-12.15a11.46,11.46,0,0,1,11.7,11.8c0,.3,0,.95-.05,1.5Zm15.2-2.8a7.14,7.14,0,0,0-1.3-3.95,7.91,7.91,0,0,0-6.35-3.15,7.41,7.41,0,0,0-6.2,3.2,9.15,9.15,0,0,0-1.3,3.9Z"/><path class="cls-2" d="M516.89,361.92a11.81,11.81,0,0,1-8.5,3.4c-6.6,0-11.3-5-11.3-12s4.75-12.15,11.5-12.15a11.4,11.4,0,0,1,8.4,3.45l-2.45,2.45a8.47,8.47,0,0,0-5.85-2.4c-4.55,0-7.7,3.5-7.7,8.5s3.15,8.65,7.65,8.65a8.07,8.07,0,0,0,5.9-2.5Z"/><path class="cls-2" d="M525,364.77h-3.8V331.42H525v20.4l9.2-10.1H539L528.74,353,539,364.77h-4.75l-9.2-10.3Z"/><path class="cls-2" d="M544.39,354.47a7.19,7.19,0,0,0,1.5,4.2,7.5,7.5,0,0,0,6.2,3.15,8,8,0,0,0,6.9-3.95l3.35,1.25a11.29,11.29,0,0,1-10.25,6.2c-6.85,0-11.75-5-11.75-12s4.85-12.15,11.6-12.15a11.46,11.46,0,0,1,11.7,11.8c0,.3,0,.95,0,1.5Zm15.2-2.8a7.14,7.14,0,0,0-1.3-3.95,7.91,7.91,0,0,0-6.35-3.15,7.41,7.41,0,0,0-6.2,3.2,9.15,9.15,0,0,0-1.3,3.9Z"/><path class="cls-2" d="M586.34,354.47a7.19,7.19,0,0,0,1.5,4.2,7.5,7.5,0,0,0,6.2,3.15,8,8,0,0,0,6.9-3.95l3.35,1.25a11.29,11.29,0,0,1-10.25,6.2c-6.85,0-11.75-5-11.75-12s4.85-12.15,11.6-12.15a11.46,11.46,0,0,1,11.7,11.8c0,.3,0,.95-.05,1.5Zm15.2-2.8a7.14,7.14,0,0,0-1.3-3.95,7.91,7.91,0,0,0-6.35-3.15,7.41,7.41,0,0,0-6.2,3.2,9.15,9.15,0,0,0-1.3,3.9Z"/><path class="cls-2" d="M614.89,341.72v3.9a6.51,6.51,0,0,1,2.1-3.05,7.22,7.22,0,0,1,4.4-1.4h.9V345a8.51,8.51,0,0,0-1,0,5.91,5.91,0,0,0-5,2.65c-1,1.45-1.35,2.8-1.35,5.45v11.7h-3.8v-23Z"/><path class="cls-2" d="M630.39,341.72v3.9a6.51,6.51,0,0,1,2.1-3.05,7.22,7.22,0,0,1,4.4-1.4h.9V345a8.51,8.51,0,0,0-1,0,5.91,5.91,0,0,0-5,2.65c-1,1.45-1.35,2.8-1.35,5.45v11.7h-3.8v-23Z"/><path class="cls-2" d="M643.84,354.47a7.19,7.19,0,0,0,1.5,4.2,7.5,7.5,0,0,0,6.2,3.15,8,8,0,0,0,6.9-3.95l3.35,1.25a11.29,11.29,0,0,1-10.25,6.2c-6.85,0-11.75-5-11.75-12s4.85-12.15,11.6-12.15a11.46,11.46,0,0,1,11.7,11.8c0,.3,0,.95-.05,1.5Zm15.2-2.8a7.14,7.14,0,0,0-1.3-3.95,7.91,7.91,0,0,0-6.35-3.15,7.41,7.41,0,0,0-6.2,3.2,9.15,9.15,0,0,0-1.3,3.9Z"/><path class="cls-2" d="M686.54,361.92a11.81,11.81,0,0,1-8.5,3.4c-6.6,0-11.3-5-11.3-12s4.75-12.15,11.5-12.15a11.4,11.4,0,0,1,8.4,3.45l-2.45,2.45a8.47,8.47,0,0,0-5.85-2.4c-4.55,0-7.7,3.5-7.7,8.5s3.15,8.65,7.65,8.65a8.07,8.07,0,0,0,5.9-2.5Z"/><path class="cls-2" d="M694.69,344.92c2.1-2.6,4.2-3.75,6.95-3.75a7.69,7.69,0,0,1,5.35,2.1c1.25,1.25,1.8,3.05,1.8,6v15.5H705v-15.3c0-3.15-1.55-4.9-4.3-4.9a5.87,5.87,0,0,0-4.5,2.05c-1.15,1.3-1.5,2.45-1.5,4.65v13.5h-3.8V331.42h3.8Z"/><path class="cls-2" d="M720.09,341.72V345c2-2.7,4-3.8,6.85-3.8a8,8,0,0,1,5.35,1.9c1.45,1.4,2,3,2,6.15v15.55h-3.8v-14.7c0-2.05-.25-3.15-.85-3.95a4.44,4.44,0,0,0-3.6-1.55,5.74,5.74,0,0,0-4.4,1.95,5.44,5.44,0,0,0-1.5,4.2v14h-3.8v-23Z"/><path class="cls-2" d="M743.94,354.47a7.19,7.19,0,0,0,1.5,4.2,7.5,7.5,0,0,0,6.2,3.15,8,8,0,0,0,6.9-3.95l3.35,1.25a11.29,11.29,0,0,1-10.25,6.2c-6.85,0-11.75-5-11.75-12s4.85-12.15,11.6-12.15a11.46,11.46,0,0,1,11.7,11.8c0,.3,0,.95-.05,1.5Zm15.2-2.8a7.14,7.14,0,0,0-1.3-3.95,7.91,7.91,0,0,0-6.35-3.15,7.41,7.41,0,0,0-6.2,3.2,9.15,9.15,0,0,0-1.3,3.9Z"/><path class="cls-2" d="M772.34,360.07c0,1.15.35,1.4,1.75,1.4h1.75v3.3h-3.55c-2.7,0-3.75-1-3.75-3.6v-16.1h-3.2v-3.35h3.2v-7.25h3.8v7.25h3.5v3.35h-3.5Z"/><path class="cls-2" d="M826.74,341.72l-8.2,23h-3.45l-5.3-17.5-5.55,17.5h-3.6l-7.9-23h3.9l5.9,16.95,5.3-16.95h3.75l5.2,16.95,6.05-16.95Z"/><path class="cls-2" d="M832.63,354.47a7.25,7.25,0,0,0,1.5,4.2,7.53,7.53,0,0,0,6.21,3.15,8,8,0,0,0,6.9-3.95l3.35,1.25a11.29,11.29,0,0,1-10.25,6.2c-6.85,0-11.76-5-11.76-12s4.86-12.15,11.61-12.15a11.46,11.46,0,0,1,11.7,11.8c0,.3,0,.95,0,1.5Zm15.21-2.8a7.14,7.14,0,0,0-1.3-3.95,7.91,7.91,0,0,0-6.35-3.15,7.39,7.39,0,0,0-6.2,3.2,9.15,9.15,0,0,0-1.3,3.9Z"/><path class="cls-2" d="M861.18,341.72v3.9a6.51,6.51,0,0,1,2.1-3.05,7.24,7.24,0,0,1,4.4-1.4h.9V345a8.36,8.36,0,0,0-1,0,5.91,5.91,0,0,0-5,2.65c-1,1.45-1.35,2.8-1.35,5.45v11.7h-3.8v-23Z"/><path class="cls-2" d="M889.74,331.42h3.8v33.35h-3.8v-3.95c-2.3,3.15-4.75,4.5-8.25,4.5-6.36,0-10.86-4.95-10.86-11.95s4.61-12.2,10.86-12.2a9.89,9.89,0,0,1,8.25,4.05Zm-15.11,22c0,5.05,3.06,8.6,7.41,8.6s7.7-3.7,7.7-8.7c0-5.2-3-8.75-7.45-8.75S874.63,348.17,874.63,353.42Z"/><path class="cls-2" d="M903.38,354.47a7.19,7.19,0,0,0,1.5,4.2,7.5,7.5,0,0,0,6.2,3.15,8,8,0,0,0,6.91-3.95l3.34,1.25a11.26,11.26,0,0,1-10.25,6.2c-6.85,0-11.75-5-11.75-12s4.85-12.15,11.6-12.15A11.47,11.47,0,0,1,922.64,353a14.81,14.81,0,0,1-.06,1.5Zm15.2-2.8a7.14,7.14,0,0,0-1.29-3.95,7.94,7.94,0,0,0-6.36-3.15,7.41,7.41,0,0,0-6.2,3.2,9.15,9.15,0,0,0-1.3,3.9Z"/><path class="cls-2" d="M931.93,341.72V345c2-2.7,4-3.8,6.85-3.8a8,8,0,0,1,5.35,1.9c1.45,1.4,2,3,2,6.15v15.55h-3.8v-14.7c0-2.05-.25-3.15-.85-3.95a4.44,4.44,0,0,0-3.6-1.55,5.74,5.74,0,0,0-4.4,1.95,5.44,5.44,0,0,0-1.5,4.2v14h-3.8v-23Z"/><path class="cls-2" d="M972.38,364.77h-3.8V331.42h3.8v20.4l9.2-10.1h4.8L976.08,353l10.25,11.8h-4.75l-9.2-10.3Z"/><path class="cls-2" d="M1006.93,341.72h3.8v23h-3.8v-4.45c-2.3,3.45-4.9,5-8.4,5-6.35,0-10.85-5-10.85-12s4.6-12.15,11-12.15a9.64,9.64,0,0,1,8.3,4.35Zm-13.35,5.6a10.52,10.52,0,0,0-1.9,6.1c0,4.9,3.2,8.6,7.4,8.6s7.9-4,7.9-9-3.2-8.45-7.8-8.45A6.28,6.28,0,0,0,993.58,347.32Z"/><path class="cls-2" d="M1022.18,341.72V345c2-2.7,4-3.8,6.85-3.8a8,8,0,0,1,5.35,1.9c1.45,1.4,1.95,3,1.95,6.15v15.55h-3.8v-14.7c0-2.05-.25-3.15-.85-3.95a4.44,4.44,0,0,0-3.6-1.55,5.74,5.74,0,0,0-4.4,1.95,5.44,5.44,0,0,0-1.5,4.2v14h-3.8v-23Z"/><path class="cls-2" d="M1047.63,341.72V345c2-2.7,4-3.8,6.85-3.8a8,8,0,0,1,5.35,1.9c1.45,1.4,2,3,2,6.15v15.55H1058v-14.7c0-2.05-.25-3.15-.85-3.95a4.44,4.44,0,0,0-3.6-1.55,5.74,5.74,0,0,0-4.4,1.95,5.44,5.44,0,0,0-1.5,4.2v14h-3.8v-23Z"/><path class="cls-2" d="M1073.83,362.62a2.6,2.6,0,1,1-2.6-2.65A2.54,2.54,0,0,1,1073.83,362.62Z"/></svg>