<svg id="Ebene_1" data-name="Ebene 1" xmlns="http://www.w3.org/2000/svg" viewBox="0 0 1145 345"><defs><style>.cls-1{fill:#c1e1d3;}.cls-2{fill:#1d1d1b;}</style></defs><rect class="cls-1" x="34" y="33" width="1084" height="287" rx="143.5"/><path class="cls-2" d="M129.13,116c.05.71.05,1.63.05,1.93,0,4.54-1,7.7-3.52,10.87a15.89,15.89,0,0,1-12.8,6.22c-9.69,0-16.78-7.4-16.78-17.55s7-17.69,16.78-17.69a15.89,15.89,0,0,1,12.8,6.17l-3.21,2.6a14.33,14.33,0,0,0-2.86-2.7,11.47,11.47,0,0,0-6.73-2.14c-7,0-12.39,5.91-12.39,13.71s5.35,13.67,12.29,13.67a12.34,12.34,0,0,0,9.79-5c1.33-1.78,1.83-3.47,2.19-6.42H112.91V116Z"/><path class="cls-2" d="M157.28,122.7a12,12,0,0,1-12,12.24c-7,0-11.88-5.1-11.88-12.35s4.9-12.29,12-12.29C152.33,110.3,157.28,115.46,157.28,122.7Zm-19.94,0c0,5.2,3.21,8.72,8,8.72,4.64,0,8-3.62,8-8.72,0-5.26-3.16-8.78-7.9-8.78S137.34,117.39,137.34,122.65Z"/><path class="cls-2" d="M182.93,104.29a2.47,2.47,0,0,1-2.5,2.45,2.5,2.5,0,0,1,.06-5A2.47,2.47,0,0,1,182.93,104.29Zm-.56,30.08H178.5v-23.5h3.87Z"/><path class="cls-2" d="M201,117.29V117c0-2.2-1.79-3.57-4.49-3.57s-4.23,1.32-4.23,3.36,1,2.81,5.25,4c3,.82,4.59,1.58,5.71,2.7a6.6,6.6,0,0,1,1.89,4.59c0,4.08-3.37,6.84-8.37,6.84-5.35,0-8.36-2.5-8.77-7.25h3.83c.25,2.66,2,4.08,4.94,4.08,2.66,0,4.39-1.37,4.39-3.46s-1.33-3.06-5.35-4.08c-5.1-1.38-7.4-3.52-7.4-7.09,0-4.08,3.32-6.84,8.26-6.84s8,2.55,8.21,7Z"/><path class="cls-2" d="M215.27,129.58c0,1.17.35,1.43,1.78,1.43h1.79v3.36h-3.62c-2.76-.05-3.83-1.07-3.83-3.67V114.28h-3.26v-3.41h3.26v-7.4h3.88v7.4h3.57v3.41h-3.57Z"/><path class="cls-2" d="M241.89,123.87a7.27,7.27,0,0,0,1.53,4.28,7.65,7.65,0,0,0,6.32,3.22,8.16,8.16,0,0,0,7-4l3.42,1.27a11.52,11.52,0,0,1-10.46,6.33c-7,0-12-5.1-12-12.24s4.94-12.4,11.83-12.4a11.7,11.7,0,0,1,11.93,12c0,.31,0,1,0,1.53Zm15.5-2.86a7.21,7.21,0,0,0-1.33-4,8,8,0,0,0-6.47-3.22,7.58,7.58,0,0,0-6.33,3.27,9.43,9.43,0,0,0-1.32,4Z"/><path class="cls-2" d="M271.57,104.29a2.47,2.47,0,0,1-2.5,2.45,2.5,2.5,0,0,1,.05-5A2.47,2.47,0,0,1,271.57,104.29ZM271,134.37h-3.88v-23.5H271Z"/><path class="cls-2" d="M282.69,110.87v3.31c2-2.75,4.08-3.88,7-3.88a8.22,8.22,0,0,1,5.46,1.94c1.48,1.43,2,3.06,2,6.28v15.85h-3.88v-15c0-2.09-.25-3.21-.86-4a4.55,4.55,0,0,0-3.68-1.58,5.86,5.86,0,0,0-4.48,2,5.53,5.53,0,0,0-1.53,4.28v14.33h-3.88v-23.5Z"/><path class="cls-2" d="M337.81,110.87h3.88v23.5h-3.88v-4.53c-2.34,3.51-5,5.1-8.56,5.1-6.48,0-11.07-5.1-11.07-12.24s4.69-12.4,11.17-12.4c3.57,0,6.17,1.38,8.46,4.44Zm-13.61,5.71a10.66,10.66,0,0,0-1.94,6.22c0,5,3.26,8.77,7.55,8.77s8.06-4.13,8.06-9.18-3.27-8.62-8-8.62A6.4,6.4,0,0,0,324.2,116.58Z"/><path class="cls-2" d="M367.09,110.87v15c0,3.21-.61,5-2.35,6.58a10.52,10.52,0,0,1-13.56-.05c-1.58-1.53-2.35-3.67-2.35-6.53v-15h3.88v14.94c0,3.31,2.14,5.66,5.25,5.66a5.58,5.58,0,0,0,4.18-1.79c.77-.91,1-1.88,1-3.77v-15Z"/><path class="cls-2" d="M378.36,129.58c.05,1.17.36,1.43,1.78,1.43h1.79v3.36h-3.62c-2.76-.05-3.83-1.07-3.83-3.67V114.28h-3.26v-3.41h3.26v-7.4h3.88v7.4h3.57v3.41h-3.57Z"/><path class="cls-2" d="M409,122.7a12,12,0,0,1-12,12.24c-7,0-11.88-5.1-11.88-12.35s4.9-12.29,12-12.29C404.06,110.3,409,115.46,409,122.7Zm-19.94,0c0,5.2,3.21,8.72,8,8.72,4.64,0,7.95-3.62,7.95-8.72,0-5.26-3.16-8.78-7.9-8.78S389.07,117.39,389.07,122.65Z"/><path class="cls-2" d="M418.8,110.87v3.26c1.79-2.7,3.78-3.83,6.68-3.83,3.22,0,5.25,1.38,6.33,4.29a7.68,7.68,0,0,1,7.44-4.29c2.7,0,4.74.87,6,2.5s1.43,2.81,1.43,6.53v15h-3.88V120.25c0-2.86-.1-3.52-.66-4.49a4.61,4.61,0,0,0-4.08-2c-3.42,0-5.31,2.3-5.31,6.48v14.12h-3.87V120.3c0-2.29-.21-3.47-.77-4.49a4,4,0,0,0-3.82-2c-3.42,0-5.46,2.45-5.46,6.53v14.07h-3.87v-23.5Z"/><path class="cls-2" d="M472,110.87h3.88v23.5H472v-4.53c-2.34,3.51-5,5.1-8.56,5.1-6.48,0-11.07-5.1-11.07-12.24s4.69-12.4,11.17-12.4c3.57,0,6.17,1.38,8.46,4.44Zm-13.61,5.71a10.73,10.73,0,0,0-1.94,6.22c0,5,3.26,8.77,7.55,8.77s8.06-4.13,8.06-9.18-3.27-8.62-8-8.62A6.4,6.4,0,0,0,458.43,116.58Z"/><path class="cls-2" d="M487.7,129.58c.05,1.17.36,1.43,1.79,1.43h1.78v3.36h-3.62c-2.75-.05-3.82-1.07-3.82-3.67V114.28h-3.27v-3.41h3.27v-7.4h3.87v7.4h3.57v3.41H487.7Z"/><path class="cls-2" d="M500.86,104.29a2.47,2.47,0,0,1-2.5,2.45,2.5,2.5,0,0,1,.05-5A2.47,2.47,0,0,1,500.86,104.29Zm-.56,30.08h-3.88v-23.5h3.88Z"/><path class="cls-2" d="M519,117.29V117c0-2.2-1.78-3.57-4.48-3.57s-4.23,1.32-4.23,3.36,1,2.81,5.25,4c3,.82,4.59,1.58,5.71,2.7a6.6,6.6,0,0,1,1.89,4.59c0,4.08-3.37,6.84-8.37,6.84-5.35,0-8.36-2.5-8.77-7.25h3.83c.25,2.66,2,4.08,4.94,4.08,2.65,0,4.39-1.37,4.39-3.46s-1.33-3.06-5.36-4.08c-5.1-1.38-7.39-3.52-7.39-7.09,0-4.08,3.31-6.84,8.26-6.84s8,2.55,8.21,7Z"/><path class="cls-2" d="M533.5,104.29a2.47,2.47,0,0,1-2.5,2.45,2.5,2.5,0,0,1,0-5A2.47,2.47,0,0,1,533.5,104.29Zm-.56,30.08h-3.88v-23.5h3.88Z"/><path class="cls-2" d="M543,123.87a7.27,7.27,0,0,0,1.53,4.28,7.63,7.63,0,0,0,6.32,3.22,8.16,8.16,0,0,0,7-4l3.41,1.27a11.5,11.5,0,0,1-10.45,6.33c-7,0-12-5.1-12-12.24s4.94-12.4,11.83-12.4a11.7,11.7,0,0,1,11.93,12c0,.31,0,1,0,1.53Zm15.5-2.86a7.29,7.29,0,0,0-1.33-4,8.06,8.06,0,0,0-6.47-3.22,7.56,7.56,0,0,0-6.33,3.27,9.29,9.29,0,0,0-1.32,4Z"/><path class="cls-2" d="M572.11,110.87v4a6.65,6.65,0,0,1,2.14-3.11,7.34,7.34,0,0,1,4.49-1.43h.91v3.93a8.73,8.73,0,0,0-1.07,0,6,6,0,0,0-5.1,2.7c-1,1.48-1.37,2.86-1.37,5.56v11.93h-3.88v-23.5Z"/><path class="cls-2" d="M589.65,129.58c.05,1.17.36,1.43,1.78,1.43h1.79v3.36H589.6c-2.76-.05-3.83-1.07-3.83-3.67V114.28h-3.26v-3.41h3.26v-7.4h3.88v7.4h3.57v3.41h-3.57Z"/><path class="cls-2" d="M600.51,123.87a7.33,7.33,0,0,0,1.53,4.28,7.67,7.67,0,0,0,6.33,3.22,8.14,8.14,0,0,0,7-4l3.42,1.27a11.51,11.51,0,0,1-10.45,6.33c-7,0-12-5.1-12-12.24s5-12.4,11.83-12.4a11.7,11.7,0,0,1,11.94,12c0,.31,0,1-.06,1.53ZM616,121a7.29,7.29,0,0,0-1.33-4,8.08,8.08,0,0,0-6.48-3.22,7.56,7.56,0,0,0-6.32,3.27,9.43,9.43,0,0,0-1.33,4Z"/><path class="cls-2" d="M636.52,117.29V117c0-2.2-1.79-3.57-4.49-3.57s-4.23,1.32-4.23,3.36,1,2.81,5.25,4c3,.82,4.59,1.58,5.71,2.7a6.6,6.6,0,0,1,1.89,4.59c0,4.08-3.37,6.84-8.37,6.84-5.35,0-8.36-2.5-8.77-7.25h3.83c.25,2.66,2,4.08,4.94,4.08,2.66,0,4.39-1.37,4.39-3.46s-1.33-3.06-5.35-4.08c-5.1-1.38-7.4-3.52-7.4-7.09,0-4.08,3.32-6.84,8.26-6.84s8,2.55,8.21,7Z"/><path class="cls-2" d="M671.5,134.37h-4.28V104h-8.67v-3.67h21.57V104H671.5Z"/><path class="cls-2" d="M689.1,104.29a2.47,2.47,0,0,1-2.5,2.45,2.5,2.5,0,0,1,0-5A2.47,2.47,0,0,1,689.1,104.29Zm-.56,30.08h-3.88v-23.5h3.88Z"/><path class="cls-2" d="M714.65,131.47a12.11,12.11,0,0,1-8.67,3.47c-6.73,0-11.53-5.1-11.53-12.24,0-7.3,4.85-12.4,11.73-12.4a11.65,11.65,0,0,1,8.57,3.52l-2.5,2.5a8.65,8.65,0,0,0-6-2.45c-4.64,0-7.85,3.57-7.85,8.67s3.21,8.83,7.8,8.83a8.25,8.25,0,0,0,6-2.55Z"/><path class="cls-2" d="M723,134.37h-3.88v-34H723v20.81l9.38-10.3h4.9l-10.51,11.47,10.46,12h-4.85L723,123.87Z"/><path class="cls-2" d="M742.7,123.87a7.27,7.27,0,0,0,1.53,4.28,7.65,7.65,0,0,0,6.32,3.22,8.16,8.16,0,0,0,7-4l3.41,1.27a11.49,11.49,0,0,1-10.45,6.33c-7,0-12-5.1-12-12.24s4.94-12.4,11.83-12.4a11.7,11.7,0,0,1,11.93,12c0,.31,0,1-.05,1.53ZM758.2,121a7.21,7.21,0,0,0-1.33-4,8,8,0,0,0-6.47-3.22,7.58,7.58,0,0,0-6.33,3.27,9.29,9.29,0,0,0-1.32,4Z"/><path class="cls-2" d="M771.66,129.58c.06,1.17.36,1.43,1.79,1.43h1.78v3.36h-3.62c-2.75-.05-3.82-1.07-3.82-3.67V114.28h-3.26v-3.41h3.26v-7.4h3.87v7.4h3.57v3.41h-3.57Z"/><path class="cls-2" d="M791.6,117.29V117c0-2.2-1.78-3.57-4.48-3.57s-4.24,1.32-4.24,3.36,1,2.81,5.26,4c3,.82,4.59,1.58,5.71,2.7a6.59,6.59,0,0,1,1.88,4.59c0,4.08-3.36,6.84-8.36,6.84-5.35,0-8.36-2.5-8.77-7.25h3.82c.26,2.66,2,4.08,5,4.08,2.65,0,4.39-1.37,4.39-3.46s-1.33-3.06-5.36-4.08c-5.1-1.38-7.39-3.52-7.39-7.09,0-4.08,3.31-6.84,8.26-6.84s8,2.55,8.21,7Z"/><path class="cls-2" d="M815.37,110.87h4.23l-14,34.83h-4.23l4.89-12-8.36-22.79H802l6.32,17.44Z"/><path class="cls-2" d="M834.44,117.29V117c0-2.2-1.78-3.57-4.48-3.57s-4.24,1.32-4.24,3.36,1,2.81,5.26,4c3,.82,4.59,1.58,5.71,2.7a6.59,6.59,0,0,1,1.88,4.59c0,4.08-3.36,6.84-8.36,6.84-5.35,0-8.36-2.5-8.77-7.25h3.82c.26,2.66,2,4.08,5,4.08,2.65,0,4.39-1.37,4.39-3.46s-1.33-3.06-5.36-4.08c-5.1-1.38-7.39-3.52-7.39-7.09,0-4.08,3.31-6.84,8.26-6.84s8,2.55,8.21,7Z"/><path class="cls-2" d="M848.67,129.58c.05,1.17.36,1.43,1.79,1.43h1.78v3.36h-3.62c-2.75-.05-3.82-1.07-3.82-3.67V114.28h-3.27v-3.41h3.27v-7.4h3.87v7.4h3.57v3.41h-3.57Z"/><path class="cls-2" d="M859.54,123.87a7.27,7.27,0,0,0,1.53,4.28,7.65,7.65,0,0,0,6.32,3.22,8.16,8.16,0,0,0,7-4l3.41,1.27a11.49,11.49,0,0,1-10.45,6.33c-7,0-12-5.1-12-12.24s4.94-12.4,11.83-12.4a11.7,11.7,0,0,1,11.93,12c0,.31,0,1,0,1.53ZM875,121a7.21,7.21,0,0,0-1.33-4,8.06,8.06,0,0,0-6.47-3.22,7.58,7.58,0,0,0-6.33,3.27,9.29,9.29,0,0,0-1.32,4Z"/><path class="cls-2" d="M888.66,110.87v3.26c1.78-2.7,3.77-3.83,6.68-3.83,3.21,0,5.25,1.38,6.32,4.29a7.69,7.69,0,0,1,7.45-4.29c2.7,0,4.74.87,6,2.5s1.43,2.81,1.43,6.53v15h-3.88V120.25c0-2.86-.1-3.52-.66-4.49a4.59,4.59,0,0,0-4.08-2c-3.42,0-5.3,2.3-5.3,6.48v14.12H898.7V120.3c0-2.29-.2-3.47-.76-4.49a4.07,4.07,0,0,0-3.83-2c-3.41,0-5.45,2.45-5.45,6.53v14.07h-3.88v-23.5Z"/><path class="cls-2" d="M923.74,142.48l-2.8-.86,4.28-12.4,3.67,1.18Z"/><path class="cls-2" d="M115.31,161.56h3.87v34h-3.87v-4c-2.35,3.21-4.85,4.59-8.42,4.59-6.47,0-11.06-5-11.06-12.19s4.69-12.45,11.06-12.45a10.09,10.09,0,0,1,8.42,4.14ZM99.91,184c0,5.15,3.11,8.77,7.54,8.77s7.86-3.77,7.86-8.87c0-5.31-3.11-8.93-7.6-8.93S99.91,178.64,99.91,184Z"/><path class="cls-2" d="M144.53,172.07h3.88v23.5h-3.88V191c-2.35,3.51-5,5.1-8.57,5.1-6.47,0-11.06-5.1-11.06-12.24s4.69-12.4,11.16-12.4a9.84,9.84,0,0,1,8.47,4.44Zm-13.62,5.71A10.73,10.73,0,0,0,129,184c0,5,3.26,8.77,7.54,8.77,4.44,0,8.06-4.13,8.06-9.18s-3.26-8.62-8-8.62A6.42,6.42,0,0,0,130.91,177.78Z"/><path class="cls-2" d="M167,178.49v-.25c0-2.2-1.78-3.57-4.48-3.57S158.3,176,158.3,178s1,2.81,5.25,4c3,.82,4.59,1.58,5.72,2.7a6.59,6.59,0,0,1,1.88,4.59c0,4.08-3.36,6.84-8.36,6.84-5.35,0-8.36-2.5-8.77-7.25h3.82c.26,2.66,2,4.08,4.95,4.08,2.65,0,4.39-1.37,4.39-3.46s-1.33-3.06-5.36-4.08c-5.1-1.38-7.39-3.52-7.39-7.09,0-4.08,3.31-6.84,8.26-6.84s8,2.55,8.21,7Z"/><path class="cls-2" d="M194.66,185.07a7.4,7.4,0,0,0,1.53,4.28,7.67,7.67,0,0,0,6.33,3.22,8.14,8.14,0,0,0,7-4l3.42,1.27a11.51,11.51,0,0,1-10.45,6.33c-7,0-12-5.1-12-12.24s4.95-12.4,11.83-12.4a11.7,11.7,0,0,1,11.94,12c0,.31,0,1-.05,1.53Zm15.51-2.86a7.29,7.29,0,0,0-1.33-4,8.08,8.08,0,0,0-6.48-3.22,7.56,7.56,0,0,0-6.32,3.27,9.43,9.43,0,0,0-1.33,4Z"/><path class="cls-2" d="M224.35,165.49a2.47,2.47,0,0,1-2.5,2.45,2.5,2.5,0,0,1,.05-5A2.48,2.48,0,0,1,224.35,165.49Zm-.57,30.08h-3.87v-23.5h3.87Z"/><path class="cls-2" d="M235.46,172.07v3.31c2-2.75,4.08-3.88,7-3.88a8.22,8.22,0,0,1,5.46,1.94c1.47,1.43,2,3.06,2,6.28v15.85H246v-15c0-2.09-.26-3.21-.87-4a4.52,4.52,0,0,0-3.67-1.58,5.89,5.89,0,0,0-4.49,2,5.57,5.57,0,0,0-1.53,4.28v14.33h-3.87v-23.5Z"/><path class="cls-2" d="M259.79,185.07a7.27,7.27,0,0,0,1.53,4.28,7.65,7.65,0,0,0,6.32,3.22,8.16,8.16,0,0,0,7-4l3.42,1.27a11.52,11.52,0,0,1-10.46,6.33c-7,0-12-5.1-12-12.24s5-12.4,11.83-12.4a11.7,11.7,0,0,1,11.93,12c0,.31,0,1-.05,1.53Zm15.5-2.86a7.28,7.28,0,0,0-1.32-4,8.08,8.08,0,0,0-6.48-3.22,7.54,7.54,0,0,0-6.32,3.27,9.29,9.29,0,0,0-1.33,4Z"/><path class="cls-2" d="M304.21,195.57h-3.88v-34h3.88v14.53c2.34-3.21,4.84-4.59,8.26-4.59,6.58,0,11.17,5.1,11.17,12.4s-4.54,12.24-11,12.24c-3.62,0-6.17-1.38-8.46-4.59Zm0-11.72c0,5.35,3.06,8.92,7.65,8.92s7.75-3.52,7.75-8.77-3.16-9-7.6-9S304.16,178.7,304.16,183.85Z"/><path class="cls-2" d="M347.3,172.07h3.88v23.5H347.3V191c-2.34,3.51-5,5.1-8.56,5.1-6.48,0-11.07-5.1-11.07-12.24s4.69-12.4,11.17-12.4c3.57,0,6.17,1.38,8.46,4.44Zm-13.61,5.71a10.66,10.66,0,0,0-1.94,6.22c0,5,3.26,8.77,7.55,8.77s8.05-4.13,8.05-9.18-3.26-8.62-8-8.62A6.39,6.39,0,0,0,333.69,177.78Z"/><path class="cls-2" d="M362.86,172.07v4a6.65,6.65,0,0,1,2.14-3.11,7.34,7.34,0,0,1,4.49-1.43h.92v3.93a9,9,0,0,0-1.08-.05,6,6,0,0,0-5.09,2.7c-1,1.48-1.38,2.86-1.38,5.56v11.93H359v-23.5Z"/><path class="cls-2" d="M378.67,172.07v4a6.65,6.65,0,0,1,2.14-3.11,7.34,7.34,0,0,1,4.49-1.43h.92v3.93a9,9,0,0,0-1.08-.05,6,6,0,0,0-5.1,2.7c-1,1.48-1.37,2.86-1.37,5.56v11.93h-3.88v-23.5Z"/><path class="cls-2" d="M395,165.49a2.47,2.47,0,0,1-2.5,2.45,2.5,2.5,0,0,1,0-5A2.47,2.47,0,0,1,395,165.49Zm-.56,30.08H390.6v-23.5h3.88Z"/><path class="cls-2" d="M404.52,185.07a7.4,7.4,0,0,0,1.53,4.28,7.67,7.67,0,0,0,6.33,3.22,8.17,8.17,0,0,0,7-4l3.41,1.27a11.5,11.5,0,0,1-10.45,6.33c-7,0-12-5.1-12-12.24s4.95-12.4,11.83-12.4a11.7,11.7,0,0,1,11.94,12c0,.31,0,1-.05,1.53ZM420,182.21a7.29,7.29,0,0,0-1.33-4,8.07,8.07,0,0,0-6.48-3.22,7.56,7.56,0,0,0-6.32,3.27,9.29,9.29,0,0,0-1.32,4Z"/><path class="cls-2" d="M433.64,172.07v4a6.72,6.72,0,0,1,2.15-3.11,7.33,7.33,0,0,1,4.48-1.43h.92v3.93a8.81,8.81,0,0,0-1.07-.05,6,6,0,0,0-5.1,2.7c-1,1.48-1.38,2.86-1.38,5.56v11.93h-3.87v-23.5Z"/><path class="cls-2" d="M447.36,185.07a7.33,7.33,0,0,0,1.53,4.28,7.67,7.67,0,0,0,6.33,3.22,8.14,8.14,0,0,0,7-4l3.42,1.27a11.51,11.51,0,0,1-10.45,6.33c-7,0-12-5.1-12-12.24s4.95-12.4,11.83-12.4a11.7,11.7,0,0,1,11.94,12c0,.31,0,1-.05,1.53Zm15.51-2.86a7.29,7.29,0,0,0-1.33-4,8.08,8.08,0,0,0-6.48-3.22,7.56,7.56,0,0,0-6.32,3.27,9.43,9.43,0,0,0-1.33,4Z"/><path class="cls-2" d="M476.38,195.57h-3.87V175.48h-3.22v-3.41h3.22V168.9c0-4.64,2.39-7.39,6.47-7.39a9.15,9.15,0,0,1,1.07.05V165c-2.8.3-3.57,1.12-3.67,3.87v3.17h3.67v3.41h-3.67Z"/><path class="cls-2" d="M489.18,172.07v4a6.79,6.79,0,0,1,2.14-3.11,7.38,7.38,0,0,1,4.49-1.43h.92v3.93a8.9,8.9,0,0,0-1.07-.05,6,6,0,0,0-5.1,2.7c-1,1.48-1.38,2.86-1.38,5.56v11.93h-3.87v-23.5Z"/><path class="cls-2" d="M502.9,185.07a7.33,7.33,0,0,0,1.53,4.28,7.66,7.66,0,0,0,6.32,3.22,8.15,8.15,0,0,0,7-4l3.42,1.27a11.52,11.52,0,0,1-10.46,6.33c-7,0-12-5.1-12-12.24s5-12.4,11.83-12.4a11.69,11.69,0,0,1,11.93,12c0,.31,0,1,0,1.53Zm15.5-2.86a7.28,7.28,0,0,0-1.32-4A8.08,8.08,0,0,0,510.6,175a7.56,7.56,0,0,0-6.32,3.27,9.29,9.29,0,0,0-1.33,4Z"/><path class="cls-2" d="M532.58,165.49a2.47,2.47,0,0,1-2.5,2.45,2.5,2.5,0,0,1,0-5A2.47,2.47,0,0,1,532.58,165.49ZM532,195.57h-3.87v-23.5H532Z"/><path class="cls-2" d="M542.07,185.07a7.27,7.27,0,0,0,1.53,4.28,7.65,7.65,0,0,0,6.32,3.22,8.16,8.16,0,0,0,7-4l3.42,1.27a11.52,11.52,0,0,1-10.46,6.33c-7,0-12-5.1-12-12.24s4.94-12.4,11.83-12.4a11.7,11.7,0,0,1,11.93,12c0,.31,0,1-.05,1.53Zm15.5-2.86a7.28,7.28,0,0,0-1.32-4,8.08,8.08,0,0,0-6.48-3.22,7.54,7.54,0,0,0-6.32,3.27,9.29,9.29,0,0,0-1.33,4Z"/><path class="cls-2" d="M587.25,176.6h13.26v3.68H587.25v15.29H583v-34h17.54v3.67H587.25Z"/><path class="cls-2" d="M623.82,172.07h3.87v23.5h-3.87V191c-2.35,3.51-5,5.1-8.57,5.1-6.48,0-11.06-5.1-11.06-12.24s4.69-12.4,11.16-12.4c3.57,0,6.17,1.38,8.47,4.44Zm-13.62,5.71a10.73,10.73,0,0,0-1.94,6.22c0,5,3.27,8.77,7.55,8.77,4.44,0,8.06-4.13,8.06-9.18s-3.26-8.62-8-8.62A6.4,6.4,0,0,0,610.2,177.78Z"/><path class="cls-2" d="M639.37,175.33c2.15-2.65,4.29-3.83,7.09-3.83a7.85,7.85,0,0,1,5.46,2.15c1.27,1.27,1.83,3.11,1.83,6.12v15.8h-3.87V180c0-3.21-1.58-5-4.39-5a6,6,0,0,0-4.59,2.09c-1.17,1.33-1.53,2.5-1.53,4.75v13.76H635.5v-34h3.87Z"/><path class="cls-2" d="M665.28,172.07v4a6.79,6.79,0,0,1,2.14-3.11,7.38,7.38,0,0,1,4.49-1.43h.92v3.93a8.9,8.9,0,0,0-1.07-.05,6,6,0,0,0-5.1,2.7c-1,1.48-1.38,2.86-1.38,5.56v11.93h-3.87v-23.5Z"/><path class="cls-2" d="M682.83,190.78c0,1.17.35,1.43,1.78,1.43h1.79v3.36h-3.63c-2.75,0-3.82-1.07-3.82-3.67V175.48h-3.26v-3.41H679v-7.4h3.88v7.4h3.57v3.41h-3.57Z"/><path class="cls-2" d="M709.45,185.07a7.27,7.27,0,0,0,1.53,4.28,7.65,7.65,0,0,0,6.32,3.22,8.16,8.16,0,0,0,7-4l3.41,1.27a11.49,11.49,0,0,1-10.45,6.33c-7,0-12-5.1-12-12.24s4.94-12.4,11.83-12.4a11.7,11.7,0,0,1,11.93,12c0,.31,0,1-.05,1.53Zm15.5-2.86a7.21,7.21,0,0,0-1.33-4,8.06,8.06,0,0,0-6.47-3.22,7.58,7.58,0,0,0-6.33,3.27,9.29,9.29,0,0,0-1.32,4Z"/><path class="cls-2" d="M738.57,172.07v4a6.65,6.65,0,0,1,2.14-3.11,7.34,7.34,0,0,1,4.49-1.43h.91v3.93a8.73,8.73,0,0,0-1.07-.05,6,6,0,0,0-5.1,2.7c-1,1.48-1.37,2.86-1.37,5.56v11.93h-3.88v-23.5Z"/><path class="cls-2" d="M754.38,172.07v3.26c1.78-2.7,3.77-3.83,6.68-3.83,3.21,0,5.25,1.38,6.32,4.29a7.69,7.69,0,0,1,7.45-4.29c2.7,0,4.74.87,6,2.5,1.12,1.48,1.43,2.81,1.43,6.53v15h-3.88V181.45c0-2.86-.1-3.52-.66-4.49a4.59,4.59,0,0,0-4.08-2c-3.42,0-5.3,2.3-5.3,6.48v14.12h-3.88V181.5c0-2.29-.2-3.47-.76-4.49a4.07,4.07,0,0,0-3.83-2c-3.41,0-5.45,2.45-5.45,6.53v14.07H750.5v-23.5Z"/><path class="cls-2" d="M811.9,183.9a12,12,0,0,1-12,12.24c-7,0-11.88-5.1-11.88-12.35s4.89-12.29,12-12.29C807,171.5,811.9,176.66,811.9,183.9ZM792,183.85c0,5.2,3.21,8.72,8,8.72,4.64,0,7.95-3.62,7.95-8.72,0-5.26-3.16-8.78-7.9-8.78S792,178.59,792,183.85Zm5.31-18.46a2.4,2.4,0,1,1-2.4-2.45A2.35,2.35,0,0,1,797.27,165.39Zm10.14,0a2.4,2.4,0,1,1-2.39-2.45A2.34,2.34,0,0,1,807.41,165.39Z"/><path class="cls-2" d="M835.31,172.07h3.88v23.66c0,3.92-1,6.58-3.11,8.62a12.1,12.1,0,0,1-8.67,3.11q-6.58,0-10.41-4.29l2.66-2.65a14,14,0,0,0,2.24,2,11.37,11.37,0,0,0,5.51,1.38,8.54,8.54,0,0,0,6.12-2.3,8,8,0,0,0,1.78-5.61v-4.94c-2.29,3.46-5,5-8.67,5-6.22,0-10.86-5.26-10.86-12.24a13.49,13.49,0,0,1,3.72-9.64A10.33,10.33,0,0,1,827,171.5c3.57,0,6,1.33,8.36,4.59Zm-15.45,11.67c0,5,3.26,8.83,7.7,8.83a8,8,0,0,0,6-2.86,9.49,9.49,0,0,0,1.68-5.81c0-3.06-.46-4.69-1.84-6.22a7.94,7.94,0,0,0-5.71-2.61C823.07,175.07,819.86,178.64,819.86,183.74Z"/><path class="cls-2" d="M846.58,195.57v-34h3.88v34Z"/><path class="cls-2" d="M862.7,165.49a2.47,2.47,0,0,1-2.5,2.45,2.5,2.5,0,0,1,0-5A2.47,2.47,0,0,1,862.7,165.49Zm-.56,30.08h-3.88v-23.5h3.88Z"/><path class="cls-2" d="M888.25,192.67a12.07,12.07,0,0,1-8.67,3.47c-6.73,0-11.53-5.1-11.53-12.24,0-7.3,4.85-12.4,11.73-12.4a11.65,11.65,0,0,1,8.57,3.52l-2.5,2.5a8.63,8.63,0,0,0-6-2.45c-4.64,0-7.85,3.57-7.85,8.67s3.21,8.83,7.8,8.83a8.25,8.25,0,0,0,6-2.55Z"/><path class="cls-2" d="M896.56,175.33c2.14-2.65,4.29-3.83,7.09-3.83a7.85,7.85,0,0,1,5.46,2.15c1.27,1.27,1.83,3.11,1.83,6.12v15.8h-3.87V180c0-3.21-1.58-5-4.39-5a6,6,0,0,0-4.59,2.09c-1.17,1.33-1.53,2.5-1.53,4.75v13.76h-3.87v-34h3.87Z"/><path class="cls-2" d="M922.72,190.78c.06,1.17.36,1.43,1.79,1.43h1.78v3.36h-3.62c-2.75,0-3.82-1.07-3.82-3.67V175.48h-3.27v-3.41h3.27v-7.4h3.87v7.4h3.57v3.41h-3.57Z"/><path class="cls-2" d="M964.69,172.07v15c0,3.21-.61,5-2.34,6.58a10.54,10.54,0,0,1-13.57-.05c-1.58-1.53-2.34-3.67-2.34-6.53v-15h3.87V187c0,3.31,2.15,5.66,5.26,5.66a5.58,5.58,0,0,0,4.18-1.79c.76-.91,1-1.88,1-3.77v-15Z"/><path class="cls-2" d="M975.71,172.07v3.31c2-2.75,4.08-3.88,7-3.88a8.18,8.18,0,0,1,5.45,1.94c1.48,1.43,2,3.06,2,6.28v15.85h-3.87v-15c0-2.09-.26-3.21-.87-4a4.52,4.52,0,0,0-3.67-1.58,5.88,5.88,0,0,0-4.49,2,5.57,5.57,0,0,0-1.53,4.28v14.33h-3.87v-23.5Z"/><path class="cls-2" d="M1015.39,161.56h3.87v34h-3.87v-4c-2.35,3.21-4.85,4.59-8.42,4.59-6.47,0-11.06-5-11.06-12.19s4.69-12.45,11.06-12.45a10.09,10.09,0,0,1,8.42,4.14ZM1000,184c0,5.15,3.11,8.77,7.54,8.77s7.86-3.77,7.86-8.87c0-5.31-3.11-8.93-7.6-8.93S1000,178.64,1000,184Z"/><path class="cls-2" d="M115.31,222.76h3.87v34h-3.87v-4c-2.35,3.21-4.85,4.59-8.42,4.59-6.47,0-11.06-5-11.06-12.19s4.69-12.44,11.06-12.44a10.09,10.09,0,0,1,8.42,4.13ZM99.91,245.2c0,5.15,3.11,8.77,7.54,8.77s7.86-3.77,7.86-8.87c0-5.31-3.11-8.93-7.6-8.93S99.91,239.84,99.91,245.2Z"/><path class="cls-2" d="M144.53,233.27h3.88v23.5h-3.88v-4.53c-2.35,3.51-5,5.1-8.57,5.1-6.47,0-11.06-5.1-11.06-12.24s4.69-12.39,11.16-12.39a9.83,9.83,0,0,1,8.47,4.43ZM130.91,239A10.73,10.73,0,0,0,129,245.2c0,5,3.26,8.77,7.54,8.77,4.44,0,8.06-4.13,8.06-9.18s-3.26-8.62-8-8.62A6.42,6.42,0,0,0,130.91,239Z"/><path class="cls-2" d="M167,239.69v-.25c0-2.2-1.78-3.57-4.48-3.57s-4.24,1.32-4.24,3.36,1,2.81,5.25,4c3,.82,4.59,1.58,5.72,2.7a6.59,6.59,0,0,1,1.88,4.59c0,4.08-3.36,6.84-8.36,6.84-5.35,0-8.36-2.5-8.77-7.25h3.82c.26,2.66,2,4.08,4.95,4.08,2.65,0,4.39-1.37,4.39-3.46s-1.33-3.06-5.36-4.08c-5.1-1.38-7.39-3.52-7.39-7.09,0-4.08,3.31-6.83,8.26-6.83s8,2.54,8.21,7Z"/><path class="cls-2" d="M202.36,222.76c6.94,0,10.87,3.26,10.87,9a8.24,8.24,0,0,1-1.94,5.56,7.52,7.52,0,0,1-3.47,2.19,8.52,8.52,0,0,1,3.88,1.58,8.09,8.09,0,0,1,2.8,6.53,8.62,8.62,0,0,1-3.67,7.39c-2,1.28-4.18,1.73-8.47,1.73h-9.58v-34Zm-5.3,15.3,4.34-.05c2.7,0,4.33-.36,5.55-1.33A6,6,0,0,0,209,232a5.29,5.29,0,0,0-2.7-4.89c-1.22-.62-2.65-.82-5.76-.82h-3.52Zm0,15.25h4.28c3.57,0,4.95-.26,6.43-1.12a5.08,5.08,0,0,0,2.45-4.8c0-4.08-2.4-5.86-7.8-5.86h-5.36Z"/><path class="cls-2" d="M222.76,246.27a7.4,7.4,0,0,0,1.53,4.28,7.67,7.67,0,0,0,6.33,3.22,8.15,8.15,0,0,0,7-4l3.41,1.27a11.5,11.5,0,0,1-10.45,6.33c-7,0-12-5.1-12-12.24s5-12.39,11.83-12.39a11.69,11.69,0,0,1,11.94,12c0,.31,0,1-.05,1.53Zm15.51-2.86a7.29,7.29,0,0,0-1.33-4,8.07,8.07,0,0,0-6.48-3.22,7.56,7.56,0,0,0-6.32,3.27,9.29,9.29,0,0,0-1.32,4Z"/><path class="cls-2" d="M261.06,253.36v3.41H243.73L256,236.68H245.05v-3.41h17.29l-12.09,20.09Z"/><path class="cls-2" d="M283.5,233.27h3.88v23.5H283.5v-4.53c-2.34,3.51-5,5.1-8.56,5.1-6.48,0-11.07-5.1-11.07-12.24s4.69-12.39,11.17-12.39a9.81,9.81,0,0,1,8.46,4.43ZM269.89,239A10.66,10.66,0,0,0,268,245.2c0,5,3.26,8.77,7.55,8.77s8.05-4.13,8.05-9.18-3.26-8.62-7.95-8.62A6.39,6.39,0,0,0,269.89,239Z"/><path class="cls-2" d="M299.06,236.53c2.14-2.65,4.28-3.82,7.09-3.82a7.8,7.8,0,0,1,5.45,2.14c1.28,1.27,1.84,3.11,1.84,6.12v15.8h-3.88v-15.6c0-3.21-1.58-5-4.38-5a6,6,0,0,0-4.59,2.09c-1.17,1.33-1.53,2.5-1.53,4.75v13.76h-3.88v-34h3.88Z"/><path class="cls-2" d="M321.09,256.77v-34H325v34Z"/><path class="cls-2" d="M335,246.27a7.4,7.4,0,0,0,1.53,4.28,7.67,7.67,0,0,0,6.33,3.22,8.12,8.12,0,0,0,7-4l3.42,1.27a11.51,11.51,0,0,1-10.45,6.33c-7,0-12-5.1-12-12.24s4.95-12.39,11.83-12.39a11.69,11.69,0,0,1,11.94,12c0,.31,0,1,0,1.53Zm15.51-2.86a7.29,7.29,0,0,0-1.33-4,8.08,8.08,0,0,0-6.48-3.22,7.56,7.56,0,0,0-6.32,3.27,9.43,9.43,0,0,0-1.33,4Z"/><path class="cls-2" d="M364.13,233.27v3.31c2-2.75,4.08-3.87,7-3.87a8.22,8.22,0,0,1,5.46,1.93c1.48,1.43,2,3.06,2,6.28v15.85h-3.88v-15c0-2.09-.26-3.21-.87-4a4.52,4.52,0,0,0-3.67-1.58,5.89,5.89,0,0,0-4.49,2,5.58,5.58,0,0,0-1.53,4.29v14.32h-3.87v-23.5Z"/><path class="cls-2" d="M419.11,222.76H423v34h-3.88v-4c-2.35,3.21-4.85,4.59-8.41,4.59-6.48,0-11.07-5-11.07-12.19s4.69-12.44,11.07-12.44a10.08,10.08,0,0,1,8.41,4.13Zm-15.4,22.44c0,5.15,3.11,8.77,7.55,8.77s7.85-3.77,7.85-8.87c0-5.31-3.11-8.93-7.6-8.93S403.71,239.84,403.71,245.2Z"/><path class="cls-2" d="M433,246.27a7.33,7.33,0,0,0,1.53,4.28,7.67,7.67,0,0,0,6.33,3.22,8.12,8.12,0,0,0,7-4l3.42,1.27a11.51,11.51,0,0,1-10.45,6.33c-7,0-12-5.1-12-12.24s5-12.39,11.83-12.39a11.69,11.69,0,0,1,11.94,12c0,.31,0,1-.05,1.53Zm15.51-2.86a7.29,7.29,0,0,0-1.33-4,8.08,8.08,0,0,0-6.48-3.22,7.56,7.56,0,0,0-6.32,3.27,9.43,9.43,0,0,0-1.33,4Z"/><path class="cls-2" d="M462.15,233.27v4a6.79,6.79,0,0,1,2.14-3.11,7.44,7.44,0,0,1,4.49-1.42h.92v3.92a8.9,8.9,0,0,0-1.07,0,6,6,0,0,0-5.1,2.7c-1,1.48-1.38,2.86-1.38,5.56v11.93h-3.87v-23.5Z"/><path class="cls-2" d="M494.44,237.8h13.25v3.68H494.44v15.29h-4.29v-34h17.54v3.67H494.44Z"/><path class="cls-2" d="M531,233.27h3.88v23.5H531v-4.53c-2.34,3.51-5,5.1-8.57,5.1-6.47,0-11.06-5.1-11.06-12.24s4.69-12.39,11.17-12.39a9.81,9.81,0,0,1,8.46,4.43ZM517.38,239a10.73,10.73,0,0,0-1.93,6.22c0,5,3.26,8.77,7.54,8.77,4.44,0,8.06-4.13,8.06-9.18s-3.26-8.62-7.95-8.62A6.42,6.42,0,0,0,517.38,239Z"/><path class="cls-2" d="M546.56,236.53c2.14-2.65,4.28-3.82,7.09-3.82a7.82,7.82,0,0,1,5.45,2.14c1.28,1.27,1.84,3.11,1.84,6.12v15.8h-3.88v-15.6c0-3.21-1.58-5-4.38-5a6,6,0,0,0-4.59,2.09c-1.18,1.33-1.53,2.5-1.53,4.75v13.76h-3.88v-34h3.88Z"/><path class="cls-2" d="M572.46,233.27v4a6.72,6.72,0,0,1,2.15-3.11,7.39,7.39,0,0,1,4.48-1.42H580v3.92a8.81,8.81,0,0,0-1.07,0,6,6,0,0,0-5.1,2.7c-1,1.48-1.38,2.86-1.38,5.56v11.93h-3.87v-23.5Z"/><path class="cls-2" d="M590,252c0,1.17.36,1.43,1.78,1.43h1.79v3.36H590c-2.76,0-3.83-1.07-3.83-3.67V236.68h-3.26v-3.41h3.26v-7.4H590v7.4h3.57v3.41H590Z"/><path class="cls-2" d="M616.63,246.27a7.27,7.27,0,0,0,1.53,4.28,7.65,7.65,0,0,0,6.32,3.22,8.14,8.14,0,0,0,7-4l3.42,1.27a11.52,11.52,0,0,1-10.46,6.33c-7,0-12-5.1-12-12.24s5-12.39,11.83-12.39a11.69,11.69,0,0,1,11.93,12c0,.31,0,1,0,1.53Zm15.5-2.86a7.28,7.28,0,0,0-1.32-4,8.08,8.08,0,0,0-6.48-3.22,7.54,7.54,0,0,0-6.32,3.27,9.29,9.29,0,0,0-1.33,4Z"/><path class="cls-2" d="M645.75,233.27v4a6.65,6.65,0,0,1,2.14-3.11,7.42,7.42,0,0,1,4.49-1.42h.92v3.92a8.9,8.9,0,0,0-1.07,0,6,6,0,0,0-5.1,2.7c-1,1.48-1.38,2.86-1.38,5.56v11.93h-3.88v-23.5Z"/><path class="cls-2" d="M661.56,236.53c2.14-2.65,4.28-3.82,7.09-3.82a7.8,7.8,0,0,1,5.45,2.14c1.28,1.27,1.84,3.11,1.84,6.12v15.8h-3.88v-15.6c0-3.21-1.58-5-4.38-5a6,6,0,0,0-4.59,2.09c-1.17,1.33-1.53,2.5-1.53,4.75v13.76h-3.88v-34h3.88Z"/><path class="cls-2" d="M685.83,246.27a7.34,7.34,0,0,0,1.54,4.28,7.63,7.63,0,0,0,6.32,3.22,8.15,8.15,0,0,0,7-4l3.41,1.27a11.5,11.5,0,0,1-10.45,6.33c-7,0-12-5.1-12-12.24s4.94-12.39,11.83-12.39a11.69,11.69,0,0,1,11.93,12c0,.31,0,1-.05,1.53Zm15.51-2.86a7.29,7.29,0,0,0-1.33-4,8.06,8.06,0,0,0-6.47-3.22,7.56,7.56,0,0,0-6.33,3.27,9.29,9.29,0,0,0-1.32,4Z"/><path class="cls-2" d="M714.65,256.77h-3.88v-34h3.88v14.53c2.35-3.21,4.84-4.58,8.26-4.58,6.58,0,11.17,5.09,11.17,12.39s-4.54,12.24-11,12.24c-3.63,0-6.18-1.38-8.47-4.59Zm0-11.72c0,5.35,3.06,8.92,7.65,8.92s7.75-3.52,7.75-8.77-3.16-9-7.6-9S714.6,239.9,714.6,245.05Z"/><path class="cls-2" d="M740,256.77v-34h3.87v34Z"/><path class="cls-2" d="M756.11,226.69a2.47,2.47,0,0,1-2.5,2.45,2.5,2.5,0,0,1,0-5A2.47,2.47,0,0,1,756.11,226.69Zm-.56,30.08h-3.88v-23.5h3.88Z"/><path class="cls-2" d="M781.66,253.87a12.07,12.07,0,0,1-8.67,3.47c-6.73,0-11.52-5.1-11.52-12.24,0-7.3,4.84-12.39,11.73-12.39a11.64,11.64,0,0,1,8.56,3.51l-2.5,2.5a8.63,8.63,0,0,0-6-2.45c-4.64,0-7.86,3.57-7.86,8.67s3.22,8.83,7.81,8.83a8.23,8.23,0,0,0,6-2.55Z"/><path class="cls-2" d="M790,236.53c2.15-2.65,4.29-3.82,7.09-3.82a7.82,7.82,0,0,1,5.46,2.14c1.27,1.27,1.84,3.11,1.84,6.12v15.8h-3.88v-15.6c0-3.21-1.58-5-4.39-5a6,6,0,0,0-4.59,2.09c-1.17,1.33-1.53,2.5-1.53,4.75v13.76H786.1v-34H790Z"/><path class="cls-2" d="M845.31,233.27l-8.88,23.5h-4.08l-8.61-23.5h4.08l6.63,17.95,6.83-17.95Z"/><path class="cls-2" d="M851.12,246.27a7.33,7.33,0,0,0,1.53,4.28,7.67,7.67,0,0,0,6.33,3.22,8.12,8.12,0,0,0,7-4l3.42,1.27A11.51,11.51,0,0,1,859,257.34c-7,0-12-5.1-12-12.24s5-12.39,11.83-12.39a11.69,11.69,0,0,1,11.94,12c0,.31,0,1,0,1.53Zm15.51-2.86a7.29,7.29,0,0,0-1.33-4,8.08,8.08,0,0,0-6.48-3.22,7.56,7.56,0,0,0-6.32,3.27,9.43,9.43,0,0,0-1.33,4Z"/><path class="cls-2" d="M880.24,233.27v4a6.79,6.79,0,0,1,2.14-3.11,7.44,7.44,0,0,1,4.49-1.42h.92v3.92a8.9,8.9,0,0,0-1.07,0,6,6,0,0,0-5.1,2.7c-1,1.48-1.38,2.86-1.38,5.56v11.93h-3.87v-23.5Z"/><path class="cls-2" d="M894,246.27a7.33,7.33,0,0,0,1.53,4.28,7.67,7.67,0,0,0,6.33,3.22,8.12,8.12,0,0,0,7-4l3.42,1.27a11.51,11.51,0,0,1-10.45,6.33c-7,0-12-5.1-12-12.24s4.95-12.39,11.83-12.39a11.68,11.68,0,0,1,11.93,12c0,.31,0,1-.05,1.53Zm15.5-2.86a7.2,7.2,0,0,0-1.32-4,8.08,8.08,0,0,0-6.48-3.22,7.56,7.56,0,0,0-6.32,3.27,9.29,9.29,0,0,0-1.33,4Z"/><path class="cls-2" d="M923.64,226.69a2.47,2.47,0,0,1-2.5,2.45,2.5,2.5,0,0,1,.06-5A2.47,2.47,0,0,1,923.64,226.69Zm-.56,30.08h-3.87v-23.5h3.87Z"/><path class="cls-2" d="M934.76,233.27v3.31c2-2.75,4.08-3.87,7-3.87a8.17,8.17,0,0,1,5.45,1.93c1.48,1.43,2,3.06,2,6.28v15.85h-3.87v-15c0-2.09-.26-3.21-.87-4a4.52,4.52,0,0,0-3.67-1.58,5.86,5.86,0,0,0-4.49,2,5.58,5.58,0,0,0-1.53,4.29v14.32h-3.87v-23.5Z"/><path class="cls-2" d="M961.13,256.77h-3.88V236.68H954v-3.41h3.21V230.1c0-4.64,2.4-7.39,6.48-7.39a9.33,9.33,0,0,1,1.07,0v3.47c-2.81.3-3.57,1.12-3.67,3.87v3.17h3.67v3.41h-3.67Z"/><path class="cls-2" d="M987.19,233.27h3.87v23.5h-3.87v-4.53c-2.35,3.51-5,5.1-8.57,5.1-6.48,0-11.07-5.1-11.07-12.24s4.7-12.39,11.17-12.39a9.84,9.84,0,0,1,8.47,4.43ZM973.57,239a10.73,10.73,0,0,0-1.94,6.22c0,5,3.27,8.77,7.55,8.77,4.44,0,8.06-4.13,8.06-9.18s-3.27-8.62-8-8.62A6.4,6.4,0,0,0,973.57,239Z"/><path class="cls-2" d="M1017.17,253.87a12.07,12.07,0,0,1-8.67,3.47c-6.73,0-11.52-5.1-11.52-12.24,0-7.3,4.84-12.39,11.73-12.39a11.66,11.66,0,0,1,8.57,3.51l-2.5,2.5a8.67,8.67,0,0,0-6-2.45c-4.64,0-7.85,3.57-7.85,8.67s3.21,8.83,7.8,8.83a8.26,8.26,0,0,0,6-2.55Z"/><path class="cls-2" d="M1025.49,236.53c2.14-2.65,4.28-3.82,7.09-3.82a7.8,7.8,0,0,1,5.45,2.14c1.28,1.27,1.84,3.11,1.84,6.12v15.8H1036v-15.6c0-3.21-1.58-5-4.38-5a6,6,0,0,0-4.59,2.09c-1.17,1.33-1.53,2.5-1.53,4.75v13.76h-3.88v-34h3.88Z"/><path class="cls-2" d="M1051.65,252c0,1.17.36,1.43,1.79,1.43h1.78v3.36h-3.62c-2.75,0-3.82-1.07-3.82-3.67V236.68h-3.27v-3.41h3.27v-7.4h3.87v7.4h3.57v3.41h-3.57Z"/><path class="cls-2" d="M1065.68,254.58a2.6,2.6,0,0,1-2.66,2.6,2.65,2.65,0,1,1,2.66-2.6Z"/></svg>