<svg id="Ebene_1" data-name="Ebene 1" xmlns="http://www.w3.org/2000/svg" viewBox="0 0 1517 609"><defs><style>.cls-1{fill:#c1e1d3;}.cls-2{fill:#1d1d1b;}</style></defs><rect class="cls-1" x="9" y="35" width="1475" height="542" rx="271"/><path class="cls-2" d="M153,131.34h5.77l-13.53,44.24h-4.91l-9.75-34.75-9.81,34.75h-4.91l-13.53-44.24h5.9l10.08,33.89,9.82-33.89h5.24l9.48,34Z"/><path class="cls-2" d="M165.2,161.91a9.52,9.52,0,0,0,2,5.58,10,10,0,0,0,8.22,4.17,10.57,10.57,0,0,0,9.15-5.24l4.44,1.66a15,15,0,0,1-13.59,8.23c-9.09,0-15.58-6.64-15.58-15.92s6.43-16.11,15.38-16.11a15.2,15.2,0,0,1,15.52,15.65c0,.39,0,1.26-.07,2Zm20.16-3.71a9.5,9.5,0,0,0-1.73-5.24,10.5,10.5,0,0,0-8.42-4.18A9.83,9.83,0,0,0,167,153a12.15,12.15,0,0,0-1.73,5.17Z"/><path class="cls-2" d="M203.06,145v4.32c2.65-3.59,5.31-5,9.09-5a10.59,10.59,0,0,1,7.09,2.52c1.93,1.85,2.59,4,2.59,8.15v20.63h-5v-19.5c0-2.72-.33-4.18-1.13-5.24a5.89,5.89,0,0,0-4.77-2.06,7.63,7.63,0,0,0-5.84,2.59,7.21,7.21,0,0,0-2,5.57v18.64h-5V145Z"/><path class="cls-2" d="M236.81,145v4.32c2.66-3.59,5.31-5,9.09-5a10.6,10.6,0,0,1,7.1,2.52c1.92,1.85,2.58,4,2.58,8.15v20.63h-5v-19.5c0-2.72-.33-4.18-1.13-5.24a5.86,5.86,0,0,0-4.77-2.06,7.65,7.65,0,0,0-5.84,2.59,7.25,7.25,0,0,0-2,5.57v18.64h-5V145Z"/><path class="cls-2" d="M290.46,145v4.25c2.32-3.52,4.91-5,8.69-5,4.18,0,6.83,1.79,8.22,5.57,2.26-3.92,5.11-5.57,9.68-5.57,3.52,0,6.17,1.12,7.76,3.24,1.46,1.93,1.86,3.65,1.86,8.49v19.57h-5V157.21c0-3.72-.13-4.58-.86-5.84a6,6,0,0,0-5.31-2.59c-4.44,0-6.9,3-6.9,8.43v18.37h-5V157.27c0-3-.27-4.51-1-5.83a5.25,5.25,0,0,0-5-2.66c-4.45,0-7.1,3.19-7.1,8.49v18.31h-5V145Z"/><path class="cls-2" d="M359.69,145h5v30.58h-5v-5.91c-3.05,4.58-6.5,6.64-11.14,6.64-8.42,0-14.39-6.64-14.39-15.92s6.1-16.11,14.52-16.11c4.65,0,8,1.79,11,5.76ZM342,152.43a13.9,13.9,0,0,0-2.52,8.09c0,6.5,4.24,11.41,9.81,11.41,5.77,0,10.48-5.37,10.48-11.94s-4.25-11.21-10.35-11.21A8.32,8.32,0,0,0,342,152.43Z"/><path class="cls-2" d="M379.92,145v4.32c2.65-3.59,5.3-5,9.08-5a10.6,10.6,0,0,1,7.1,2.52c1.92,1.85,2.58,4,2.58,8.15v20.63h-5v-19.5c0-2.72-.34-4.18-1.13-5.24a5.9,5.9,0,0,0-4.78-2.06,7.61,7.61,0,0,0-5.83,2.59,7.21,7.21,0,0,0-2,5.57v18.64h-5V145Z"/><path class="cls-2" d="M433.56,145v4.25c2.33-3.52,4.91-5,8.69-5,4.18,0,6.83,1.79,8.22,5.57,2.26-3.92,5.11-5.57,9.69-5.57,3.51,0,6.16,1.12,7.76,3.24,1.45,1.93,1.85,3.65,1.85,8.49v19.57h-5V157.21c0-3.72-.13-4.58-.86-5.84a6,6,0,0,0-5.31-2.59c-4.44,0-6.89,3-6.89,8.43v18.37h-5V157.27c0-3-.27-4.51-1-5.83a5.25,5.25,0,0,0-5-2.66c-4.44,0-7.1,3.19-7.1,8.49v18.31h-5V145Z"/><path class="cls-2" d="M485.49,136.45a3.2,3.2,0,0,1-3.25,3.18,3.25,3.25,0,0,1,.06-6.5A3.22,3.22,0,0,1,485.49,136.45Zm-.73,39.13h-5V145h5Z"/><path class="cls-2" d="M500.27,169.34c.07,1.53.47,1.86,2.33,1.86h2.32v4.38h-4.71c-3.58-.07-5-1.4-5-4.78V149.45H491V145h4.24v-9.61h5V145h4.65v4.45h-4.65Z"/><path class="cls-2" d="M534.89,161.91a9.52,9.52,0,0,0,2,5.58,10,10,0,0,0,8.22,4.17,10.57,10.57,0,0,0,9.15-5.24l4.45,1.66a15,15,0,0,1-13.6,8.23c-9.08,0-15.58-6.64-15.58-15.92s6.43-16.11,15.38-16.11a15.2,15.2,0,0,1,15.52,15.65c0,.39,0,1.26-.07,2Zm20.16-3.71a9.42,9.42,0,0,0-1.73-5.24,10.5,10.5,0,0,0-8.42-4.18,9.83,9.83,0,0,0-8.22,4.25A12,12,0,0,0,535,158.2Z"/><path class="cls-2" d="M573.48,136.45a3.2,3.2,0,0,1-3.25,3.18,3.25,3.25,0,0,1,.07-6.5A3.21,3.21,0,0,1,573.48,136.45Zm-.73,39.13h-5V145h5Z"/><path class="cls-2" d="M587.94,145v4.32c2.65-3.59,5.3-5,9.08-5a10.6,10.6,0,0,1,7.1,2.52c1.92,1.85,2.59,4,2.59,8.15v20.63h-5v-19.5c0-2.72-.34-4.18-1.13-5.24a5.9,5.9,0,0,0-4.78-2.06,7.61,7.61,0,0,0-5.83,2.59,7.21,7.21,0,0,0-2,5.57v18.64h-5V145Z"/><path class="cls-2" d="M619.57,161.91a9.52,9.52,0,0,0,2,5.58,10,10,0,0,0,8.22,4.17,10.57,10.57,0,0,0,9.15-5.24l4.45,1.66a15,15,0,0,1-13.6,8.23c-9.08,0-15.58-6.64-15.58-15.92s6.43-16.11,15.38-16.11a15.2,15.2,0,0,1,15.52,15.65c0,.39,0,1.26-.07,2Zm20.16-3.71A9.42,9.42,0,0,0,638,153a10.49,10.49,0,0,0-8.42-4.18,9.83,9.83,0,0,0-8.22,4.25,12,12,0,0,0-1.72,5.17Z"/><path class="cls-2" d="M657.43,145v4.25c2.33-3.52,4.91-5,8.69-5,4.18,0,6.83,1.79,8.22,5.57,2.26-3.92,5.11-5.57,9.69-5.57,3.51,0,6.16,1.12,7.76,3.24,1.45,1.93,1.85,3.65,1.85,8.49v19.57h-5V157.21c0-3.72-.13-4.58-.86-5.84a6,6,0,0,0-5.3-2.59c-4.45,0-6.9,3-6.9,8.43v18.37h-5V157.27c0-3-.27-4.51-1-5.83a5.25,5.25,0,0,0-5-2.66c-4.44,0-7.1,3.19-7.1,8.49v18.31h-5V145Z"/><path class="cls-2" d="M746.09,145h5v30.77c0,5.11-1.26,8.56-4,11.21S740.46,191,735.82,191q-8.57,0-13.53-5.57l3.45-3.45a17.93,17.93,0,0,0,2.91,2.65,14.9,14.9,0,0,0,7.17,1.79,11.09,11.09,0,0,0,7.95-3c1.53-1.66,2.32-4.11,2.32-7.3v-6.43c-3,4.51-6.49,6.57-11.27,6.57-8.09,0-14.12-6.84-14.12-15.92,0-4.91,1.79-9.62,4.84-12.53a13.42,13.42,0,0,1,9.68-3.58c4.64,0,7.76,1.72,10.87,6ZM726,160.19c0,6.57,4.25,11.47,10,11.47a10.35,10.35,0,0,0,7.76-3.71c1.33-1.53,2.19-4.51,2.19-7.56,0-4-.59-6.1-2.39-8.09a10.33,10.33,0,0,0-7.42-3.38C730.18,148.92,726,153.56,726,160.19Z"/><path class="cls-2" d="M784.16,145v19.57c0,4.18-.8,6.5-3,8.55a13.69,13.69,0,0,1-17.64-.06c-2.06-2-3.05-4.78-3.05-8.49V145h5v19.43c0,4.38,2.78,7.37,6.83,7.37a7.26,7.26,0,0,0,5.44-2.33c1-1.19,1.32-2.45,1.32-4.9V145Zm-15.39-8.68a3.12,3.12,0,1,1-3.11-3.19A3,3,0,0,1,768.77,136.32Zm13.27,0a3.12,3.12,0,1,1-3.12-3.19A3.06,3.06,0,0,1,782,136.32Z"/><path class="cls-2" d="M793.44,175.58V131.34h5v44.24Z"/><path class="cls-2" d="M814,169.34c.06,1.53.46,1.86,2.32,1.86h2.32v4.38h-4.71c-3.58-.07-5-1.4-5-4.78V149.45h-4.25V145H809v-9.61h5V145h4.64v4.45H814Z"/><path class="cls-2" d="M831.11,136.45a3.2,3.2,0,0,1-3.25,3.18,3.25,3.25,0,0,1,.06-6.5A3.22,3.22,0,0,1,831.11,136.45Zm-.73,39.13h-5V145h5Z"/><path class="cls-2" d="M863.07,145h5v30.77c0,5.11-1.26,8.56-4.05,11.21S857.43,191,852.79,191q-8.55,0-13.53-5.57l3.45-3.45a17.89,17.89,0,0,0,2.92,2.65,14.86,14.86,0,0,0,7.16,1.79,11.13,11.13,0,0,0,8-3c1.52-1.66,2.32-4.11,2.32-7.3v-6.43c-3,4.51-6.5,6.57-11.27,6.57-8.09,0-14.13-6.84-14.13-15.92,0-4.91,1.79-9.62,4.84-12.53a13.43,13.43,0,0,1,9.68-3.58c4.65,0,7.76,1.72,10.88,6ZM843,160.19c0,6.57,4.24,11.47,10,11.47a10.35,10.35,0,0,0,7.76-3.71c1.33-1.53,2.19-4.51,2.19-7.56,0-4-.6-6.1-2.39-8.09a10.37,10.37,0,0,0-7.43-3.38C847.15,148.92,843,153.56,843,160.19Z"/><path class="cls-2" d="M880.91,161.91a9.52,9.52,0,0,0,2,5.58,10,10,0,0,0,8.22,4.17,10.57,10.57,0,0,0,9.15-5.24l4.44,1.66a15,15,0,0,1-13.59,8.23c-9.08,0-15.58-6.64-15.58-15.92s6.43-16.11,15.38-16.11a15.2,15.2,0,0,1,15.52,15.65c0,.39,0,1.26-.07,2Zm20.16-3.71a9.5,9.5,0,0,0-1.73-5.24,10.5,10.5,0,0,0-8.42-4.18A9.83,9.83,0,0,0,882.7,153,12.15,12.15,0,0,0,881,158.2Z"/><path class="cls-2" d="M918.77,145v4.32c2.66-3.59,5.31-5,9.09-5A10.59,10.59,0,0,1,935,146.8c1.93,1.85,2.59,4,2.59,8.15v20.63h-5v-19.5c0-2.72-.33-4.18-1.13-5.24a5.89,5.89,0,0,0-4.77-2.06,7.63,7.63,0,0,0-5.84,2.59,7.21,7.21,0,0,0-2,5.57v18.64h-5V145Z"/><path class="cls-2" d="M979.85,175.58h-5.57V136.12H963v-4.78h28v4.78h-11.2Z"/><path class="cls-2" d="M1022.22,160.39a15.62,15.62,0,0,1-15.65,15.92c-9.08,0-15.45-6.64-15.45-16.05s6.37-16,15.65-16C1015.79,144.28,1022.22,151,1022.22,160.39Zm-25.93-.07c0,6.77,4.18,11.34,10.41,11.34,6,0,10.35-4.71,10.35-11.34,0-6.83-4.11-11.4-10.28-11.4S996.29,153.49,996.29,160.32Z"/><path class="cls-2" d="M1035,175.58h-5V131.34h5V158.4l12.2-13.4h6.37l-13.66,14.93,13.59,15.65h-6.3L1035,161.91Z"/><path class="cls-2" d="M1060.62,161.91a9.52,9.52,0,0,0,2,5.58,9.93,9.93,0,0,0,8.22,4.17,10.57,10.57,0,0,0,9.15-5.24l4.44,1.66a15,15,0,0,1-13.59,8.23c-9.09,0-15.59-6.64-15.59-15.92s6.44-16.11,15.39-16.11a15.2,15.2,0,0,1,15.52,15.65c0,.39,0,1.26-.07,2Zm20.16-3.71a9.5,9.5,0,0,0-1.73-5.24,10.5,10.5,0,0,0-8.42-4.18,9.83,9.83,0,0,0-8.22,4.25,12.15,12.15,0,0,0-1.73,5.17Z"/><path class="cls-2" d="M1098.48,145v4.32c2.65-3.59,5.31-5,9.09-5a10.59,10.59,0,0,1,7.09,2.52c1.92,1.85,2.59,4,2.59,8.15v20.63h-5v-19.5c0-2.72-.33-4.18-1.13-5.24a5.89,5.89,0,0,0-4.77-2.06,7.63,7.63,0,0,0-5.84,2.59,7.21,7.21,0,0,0-2,5.57v18.64h-5V145Z"/><path class="cls-2" d="M1152.13,145v5.58c2.91-4.51,6-6.3,11.14-6.3,8.49,0,14.39,6.49,14.39,15.78,0,9.61-5.9,16.25-14.39,16.25a14.67,14.67,0,0,1-6.7-1.6,10.81,10.81,0,0,1-4.44-3.91v19.1h-5V145Zm0,15.79c0,6.7,4,11.14,10.08,11.14s10.08-4.71,10.08-11.67c0-3.58-.87-6.3-2.66-8.29a9.89,9.89,0,0,0-7.22-3.19C1156.3,148.78,1152.13,153.63,1152.13,160.79Z"/><path class="cls-2" d="M1208.36,145h5v30.58h-5v-5.91c-3,4.58-6.5,6.64-11.14,6.64-8.42,0-14.39-6.64-14.39-15.92s6.1-16.11,14.52-16.11c4.64,0,8,1.79,11,5.76Zm-17.71,7.43a14,14,0,0,0-2.52,8.09c0,6.5,4.25,11.41,9.82,11.41,5.77,0,10.48-5.37,10.48-11.94s-4.25-11.21-10.35-11.21A8.35,8.35,0,0,0,1190.65,152.43Z"/><path class="cls-2" d="M1237.61,153.36V153c0-2.85-2.33-4.64-5.84-4.64s-5.5,1.72-5.5,4.37,1.32,3.65,6.83,5.18c3.91,1.06,6,2.05,7.42,3.51a8.53,8.53,0,0,1,2.46,6c0,5.3-4.38,8.89-10.88,8.89-7,0-10.87-3.25-11.4-9.42h5c.33,3.45,2.58,5.3,6.43,5.3,3.45,0,5.7-1.79,5.7-4.51s-1.72-4-7-5.3c-6.63-1.79-9.61-4.58-9.61-9.22,0-5.3,4.31-8.88,10.74-8.88s10.41,3.31,10.68,9.08Z"/><path class="cls-2" d="M1264.86,153.36V153c0-2.85-2.32-4.64-5.84-4.64s-5.5,1.72-5.5,4.37,1.33,3.65,6.83,5.18c3.91,1.06,6,2.05,7.43,3.51a8.56,8.56,0,0,1,2.45,6c0,5.3-4.37,8.89-10.87,8.89-7,0-10.88-3.25-11.41-9.42h5c.33,3.45,2.59,5.3,6.44,5.3,3.44,0,5.7-1.79,5.7-4.51s-1.73-4-7-5.3c-6.64-1.79-9.62-4.58-9.62-9.22,0-5.3,4.31-8.88,10.74-8.88s10.41,3.31,10.68,9.08Z"/><path class="cls-2" d="M1283.76,136.45a3.2,3.2,0,0,1-3.25,3.18,3.25,3.25,0,0,1,.07-6.5A3.21,3.21,0,0,1,1283.76,136.45Zm-.73,39.13h-5V145h5Z"/><path class="cls-2" d="M1296.09,161.91a9.59,9.59,0,0,0,2,5.58,10,10,0,0,0,8.22,4.17,10.58,10.58,0,0,0,9.16-5.24l4.44,1.66a15,15,0,0,1-13.6,8.23c-9.08,0-15.58-6.64-15.58-15.92s6.43-16.11,15.39-16.11a15.19,15.19,0,0,1,15.51,15.65c0,.39,0,1.26-.06,2Zm20.16-3.71a9.5,9.5,0,0,0-1.72-5.24,10.52,10.52,0,0,0-8.42-4.18,9.84,9.84,0,0,0-8.23,4.25,12.29,12.29,0,0,0-1.72,5.17Z"/><path class="cls-2" d="M1334,145v5.18a8.62,8.62,0,0,1,2.78-4.05,9.62,9.62,0,0,1,5.84-1.85h1.19v5.1a12.43,12.43,0,0,0-1.39-.06,7.83,7.83,0,0,0-6.63,3.51c-1.33,1.92-1.79,3.71-1.79,7.23v15.52h-5V145Z"/><path class="cls-2" d="M1356.77,169.34c.06,1.53.46,1.86,2.32,1.86h2.32v4.38h-4.71c-3.58-.07-5-1.4-5-4.78V149.45h-4.25V145h4.25v-9.61h5V145h4.64v4.45h-4.64Z"/><path class="cls-2" d="M1368,186.12l-3.65-1.13,5.57-16.11,4.78,1.52Z"/><path class="cls-2" d="M107,255.15V210.92h5v44.23Z"/><path class="cls-2" d="M125.14,241.49a9.56,9.56,0,0,0,2,5.57,10,10,0,0,0,8.23,4.18,10.59,10.59,0,0,0,9.15-5.24l4.44,1.66a15,15,0,0,1-13.59,8.22c-9.09,0-15.59-6.63-15.59-15.91s6.43-16.12,15.39-16.12a15.2,15.2,0,0,1,15.51,15.65c0,.4,0,1.26-.06,2Zm20.16-3.71a9.47,9.47,0,0,0-1.72-5.24,10.48,10.48,0,0,0-8.42-4.18,9.81,9.81,0,0,0-8.23,4.25,12.06,12.06,0,0,0-1.72,5.17Z"/><path class="cls-2" d="M180.85,224.58v19.56c0,4.18-.8,6.5-3,8.56a13,13,0,0,1-8.82,3.18,12.84,12.84,0,0,1-8.82-3.25c-2.06-2-3-4.77-3-8.49V224.58h5V244c0,4.31,2.78,7.36,6.83,7.36a7.23,7.23,0,0,0,5.43-2.32c1-1.19,1.33-2.45,1.33-4.91V224.58Z"/><path class="cls-2" d="M213.94,251.37a15.66,15.66,0,0,1-11.28,4.51c-8.75,0-15-6.63-15-15.91,0-9.49,6.3-16.12,15.25-16.12a15.11,15.11,0,0,1,11.14,4.58l-3.25,3.25a11.25,11.25,0,0,0-7.76-3.19c-6,0-10.21,4.65-10.21,11.28S197,251.24,203,251.24a10.66,10.66,0,0,0,7.83-3.32Z"/><path class="cls-2" d="M224.75,228.83c2.78-3.45,5.57-5,9.21-5a10.18,10.18,0,0,1,7.1,2.79c1.66,1.66,2.39,4,2.39,8v20.55h-5V234.86c0-4.18-2.06-6.5-5.71-6.5a7.8,7.8,0,0,0-6,2.72c-1.52,1.72-2,3.25-2,6.17v17.9h-5V210.92h5Z"/><path class="cls-2" d="M258.76,248.92c.07,1.52.47,1.86,2.32,1.86h2.33v4.37H258.7c-3.58-.06-5-1.39-5-4.77V229h-4.24v-4.44h4.24V215h5v9.61h4.65V229h-4.65Z"/><path class="cls-2" d="M272.89,241.49a9.49,9.49,0,0,0,2,5.57,9.94,9.94,0,0,0,8.22,4.18,10.59,10.59,0,0,0,9.15-5.24l4.45,1.66a15,15,0,0,1-13.6,8.22c-9.08,0-15.58-6.63-15.58-15.91s6.43-16.12,15.38-16.12a15.2,15.2,0,0,1,15.52,15.65c0,.4,0,1.26-.07,2Zm20.16-3.71a9.47,9.47,0,0,0-1.73-5.24,10.48,10.48,0,0,0-8.42-4.18,9.81,9.81,0,0,0-8.22,4.25,12.05,12.05,0,0,0-1.73,5.17Z"/><path class="cls-2" d="M310.55,248.92c.07,1.52.47,1.86,2.33,1.86h2.32v4.37h-4.71c-3.58-.06-5-1.39-5-4.77V229h-4.24v-4.44h4.24V215h5v9.61h4.65V229h-4.65Z"/><path class="cls-2" d="M365.13,210.92h5v44.23h-5v-5.24c-3.05,4.18-6.3,6-10.94,6-8.42,0-14.39-6.56-14.39-15.85s6.1-16.18,14.39-16.18a13.11,13.11,0,0,1,10.94,5.37Zm-20,29.18c0,6.7,4,11.41,9.82,11.41s10.21-4.91,10.21-11.54c0-6.9-4.05-11.61-9.88-11.61C349.21,228.36,345.1,233.14,345.1,240.1Z"/><path class="cls-2" d="M386.08,216a3.19,3.19,0,0,1-3.25,3.18,3.25,3.25,0,0,1,.07-6.5A3.21,3.21,0,0,1,386.08,216Zm-.73,39.12h-5V224.58h5Z"/><path class="cls-2" d="M398.42,241.49a9.49,9.49,0,0,0,2,5.57,9.93,9.93,0,0,0,8.22,4.18,10.59,10.59,0,0,0,9.15-5.24l4.44,1.66a15,15,0,0,1-13.59,8.22c-9.09,0-15.58-6.63-15.58-15.91s6.43-16.12,15.38-16.12A15.2,15.2,0,0,1,424,239.5c0,.4,0,1.26-.07,2Zm20.16-3.71a9.47,9.47,0,0,0-1.73-5.24,10.48,10.48,0,0,0-8.42-4.18,9.81,9.81,0,0,0-8.22,4.25,12.05,12.05,0,0,0-1.73,5.17Z"/><path class="cls-2" d="M453.92,243.28c.27,5,3,7.69,7.83,7.69s8.48-3.05,8.48-7.49c0-3.84-2-5.64-9-8-5.24-1.79-7-2.65-8.95-4.44a11,11,0,0,1-3.45-8.36c0-7.49,5.37-12.59,13.2-12.59s12.93,5,13.13,12.66h-5.57a8.49,8.49,0,0,0-1.06-4.57A7.7,7.7,0,0,0,462,215.1c-4.38,0-7.49,3-7.49,7.23a6.12,6.12,0,0,0,2.52,5.1c1.39,1,2.58,1.53,7.09,3.12,4.71,1.66,7,2.85,8.76,4.77a11.42,11.42,0,0,1,3,7.83c0,7.63-5.64,12.8-13.93,12.8-5.63,0-9.48-2-11.8-6a10.91,10.91,0,0,1-1.52-5.77v-.93Z"/><path class="cls-2" d="M507,224.58h5v30.57h-5v-5.9c-3.05,4.58-6.5,6.63-11.14,6.63-8.43,0-14.39-6.63-14.39-15.91s6.1-16.12,14.52-16.12c4.64,0,8,1.79,11,5.77ZM489.33,232a14,14,0,0,0-2.52,8.09c0,6.5,4.25,11.41,9.82,11.41,5.83,0,10.47-5.38,10.47-11.94s-4.24-11.21-10.34-11.21A8.33,8.33,0,0,0,489.33,232Zm5.51-16.12a3.12,3.12,0,1,1-3.12-3.18A3,3,0,0,1,494.84,215.89Zm13.26,0a3.12,3.12,0,1,1-3.12-3.18A3,3,0,0,1,508.1,215.89Z"/><path class="cls-2" d="M545.1,224.58v19.56c0,4.18-.79,6.5-3.05,8.56a13.71,13.71,0,0,1-17.64-.07c-2.06-2-3-4.77-3-8.49V224.58h5V244c0,4.31,2.79,7.36,6.83,7.36a7.25,7.25,0,0,0,5.44-2.32c1-1.19,1.33-2.45,1.33-4.91V224.58Z"/><path class="cls-2" d="M554.38,255.15V210.92h5v44.23Z"/><path class="cls-2" d="M572.49,241.49a9.49,9.49,0,0,0,2,5.57,9.93,9.93,0,0,0,8.22,4.18,10.59,10.59,0,0,0,9.15-5.24l4.44,1.66a15,15,0,0,1-13.59,8.22c-9.09,0-15.58-6.63-15.58-15.91s6.43-16.12,15.38-16.12A15.2,15.2,0,0,1,598,239.5c0,.4,0,1.26-.07,2Zm20.16-3.71a9.47,9.47,0,0,0-1.73-5.24,10.48,10.48,0,0,0-8.42-4.18,9.81,9.81,0,0,0-8.22,4.25,12.05,12.05,0,0,0-1.73,5.17Z"/><path class="cls-2" d="M630.25,255.15h-5V210.92h5v18.9c3-4.18,6.29-6,10.74-6,8.55,0,14.52,6.63,14.52,16.12s-5.9,15.91-14.26,15.91c-4.71,0-8-1.79-11-6Zm-.07-15.25c0,7,4,11.61,10,11.61s10.08-4.58,10.08-11.41-4.12-11.74-9.89-11.74S630.18,233.2,630.18,239.9Z"/><path class="cls-2" d="M666.12,241.49a9.56,9.56,0,0,0,2,5.57,9.94,9.94,0,0,0,8.22,4.18,10.59,10.59,0,0,0,9.15-5.24l4.45,1.66a15,15,0,0,1-13.6,8.22c-9.08,0-15.58-6.63-15.58-15.91s6.43-16.12,15.38-16.12a15.2,15.2,0,0,1,15.52,15.65c0,.4,0,1.26-.06,2Zm20.16-3.71a9.47,9.47,0,0,0-1.72-5.24,10.5,10.5,0,0,0-8.43-4.18,9.81,9.81,0,0,0-8.22,4.25,11.92,11.92,0,0,0-1.72,5.17Z"/><path class="cls-2" d="M712.94,232.94v-.33c0-2.86-2.32-4.65-5.84-4.65s-5.5,1.73-5.5,4.38,1.32,3.65,6.83,5.17c3.91,1.06,6,2.06,7.43,3.52a8.54,8.54,0,0,1,2.45,6c0,5.3-4.38,8.88-10.88,8.88-7,0-10.87-3.25-11.4-9.41h5c.33,3.44,2.59,5.3,6.43,5.3,3.45,0,5.71-1.79,5.71-4.51s-1.73-4-7-5.3c-6.63-1.79-9.61-4.58-9.61-9.22,0-5.31,4.31-8.89,10.74-8.89s10.41,3.32,10.68,9.09Z"/><path class="cls-2" d="M731.44,248.92c.07,1.52.46,1.86,2.32,1.86h2.32v4.37h-4.71c-3.58-.06-5-1.39-5-4.77V229h-4.24v-4.44h4.24V215h5v9.61h4.64V229h-4.64Z"/><path class="cls-2" d="M765.72,224.58h5v30.57h-5v-5.9c-3.05,4.58-6.49,6.63-11.14,6.63-8.42,0-14.39-6.63-14.39-15.91s6.1-16.12,14.53-16.12c4.64,0,8,1.79,11,5.77ZM748,232a14,14,0,0,0-2.52,8.09c0,6.5,4.24,11.41,9.81,11.41,5.84,0,10.48-5.38,10.48-11.94s-4.24-11.21-10.34-11.21A8.33,8.33,0,0,0,748,232Zm5.5-16.12a3.12,3.12,0,1,1-3.11-3.18A3,3,0,0,1,753.52,215.89Zm13.27,0a3.12,3.12,0,1,1-3.12-3.18A3,3,0,0,1,766.79,215.89Z"/><path class="cls-2" d="M786.08,248.92c.07,1.52.47,1.86,2.32,1.86h2.32v4.37H786c-3.58-.06-5-1.39-5-4.77V229H776.8v-4.44H781V215h5v9.61h4.64V229h-4.64Z"/><path class="cls-2" d="M803.19,216a3.2,3.2,0,0,1-3.25,3.18,3.25,3.25,0,0,1,.07-6.5A3.21,3.21,0,0,1,803.19,216Zm-.73,39.12h-5V224.58h5Z"/><path class="cls-2" d="M835.15,224.58h5v30.77c0,5.11-1.26,8.56-4,11.21s-6.63,4-11.27,4q-8.57,0-13.53-5.57l3.45-3.44a18.42,18.42,0,0,0,2.91,2.65,14.9,14.9,0,0,0,7.17,1.79,11,11,0,0,0,8-3c1.53-1.65,2.32-4.11,2.32-7.29v-6.43c-3,4.51-6.49,6.56-11.27,6.56-8.09,0-14.12-6.83-14.12-15.91,0-4.91,1.79-9.62,4.84-12.54a13.46,13.46,0,0,1,9.68-3.58c4.64,0,7.76,1.73,10.87,6Zm-20.09,15.19c0,6.56,4.25,11.47,10,11.47a10.35,10.35,0,0,0,7.76-3.71C834.16,246,835,243,835,240c0-4-.59-6.1-2.39-8.09a10.34,10.34,0,0,0-7.42-3.39C819.24,228.49,815.06,233.14,815.06,239.77Z"/><path class="cls-2" d="M853,241.49a9.56,9.56,0,0,0,2,5.57,10,10,0,0,0,8.23,4.18,10.6,10.6,0,0,0,9.15-5.24l4.44,1.66a15,15,0,0,1-13.59,8.22c-9.09,0-15.59-6.63-15.59-15.91s6.43-16.12,15.39-16.12a15.2,15.2,0,0,1,15.51,15.65c0,.4,0,1.26-.06,2Zm20.16-3.71a9.47,9.47,0,0,0-1.72-5.24,10.49,10.49,0,0,0-8.42-4.18,9.81,9.81,0,0,0-8.23,4.25,12.06,12.06,0,0,0-1.72,5.17Z"/><path class="cls-2" d="M890.86,224.58v4.31c2.65-3.58,5.3-5,9.08-5a10.65,10.65,0,0,1,7.1,2.52c1.92,1.86,2.58,4,2.58,8.16v20.62h-5V235.66c0-2.72-.33-4.18-1.12-5.24a5.9,5.9,0,0,0-4.78-2.06,7.58,7.58,0,0,0-5.83,2.59,7.21,7.21,0,0,0-2,5.57v18.63h-5V224.58Z"/><path class="cls-2" d="M942.45,210.92h5v44.23h-5v-5.24c-3.05,4.18-6.3,6-10.94,6-8.43,0-14.39-6.56-14.39-15.85s6.1-16.18,14.39-16.18a13.12,13.12,0,0,1,10.94,5.37Zm-20,29.18c0,6.7,4.05,11.41,9.82,11.41s10.21-4.91,10.21-11.54c0-6.9-4.05-11.61-9.88-11.61C926.53,228.36,922.42,233.14,922.42,240.1Z"/><path class="cls-2" d="M1000.14,224.58h5v30.77c0,5.11-1.26,8.56-4,11.21s-6.64,4-11.28,4q-8.55,0-13.53-5.57l3.45-3.44a18.39,18.39,0,0,0,2.92,2.65,14.86,14.86,0,0,0,7.16,1.79,11.07,11.07,0,0,0,8-3c1.52-1.65,2.32-4.11,2.32-7.29v-6.43c-3,4.51-6.5,6.56-11.27,6.56-8.09,0-14.13-6.83-14.13-15.91,0-4.91,1.79-9.62,4.84-12.54a13.48,13.48,0,0,1,9.69-3.58c4.64,0,7.75,1.73,10.87,6Zm-20.09,15.19c0,6.56,4.24,11.47,10,11.47a10.35,10.35,0,0,0,7.76-3.71C999.15,246,1000,243,1000,240c0-4-.6-6.1-2.39-8.09a10.38,10.38,0,0,0-7.43-3.39C984.23,228.49,980.05,233.14,980.05,239.77Z"/><path class="cls-2" d="M1019.84,224.58v5.17a8.64,8.64,0,0,1,2.78-4,9.63,9.63,0,0,1,5.84-1.86h1.19V229a10.67,10.67,0,0,0-1.39-.07,7.82,7.82,0,0,0-6.63,3.52c-1.33,1.92-1.79,3.71-1.79,7.23v15.51h-5V224.58Z"/><path class="cls-2" d="M1058.7,224.58v19.56c0,4.18-.8,6.5-3,8.56a13,13,0,0,1-8.82,3.18,12.84,12.84,0,0,1-8.82-3.25c-2.06-2-3-4.77-3-8.49V224.58h5V244c0,4.38,2.78,7.36,6.83,7.36a7.23,7.23,0,0,0,5.43-2.32c1-1.19,1.33-2.45,1.33-4.91V224.58Zm-15.39-8.69a3.12,3.12,0,1,1-3.12-3.18A3,3,0,0,1,1043.31,215.89Zm13.26,0a3.12,3.12,0,1,1-3.11-3.18A3,3,0,0,1,1056.57,215.89Z"/><path class="cls-2" d="M1073,224.58v4.31c2.65-3.58,5.3-5,9.08-5a10.65,10.65,0,0,1,7.1,2.52c1.92,1.86,2.59,4,2.59,8.16v20.62h-5V235.66c0-2.72-.34-4.18-1.13-5.24a5.9,5.9,0,0,0-4.78-2.06A7.58,7.58,0,0,0,1075,231a7.21,7.21,0,0,0-2,5.57v18.63h-5V224.58Z"/><path class="cls-2" d="M1107.77,252.3a3.45,3.45,0,1,1-3.45-3.51A3.37,3.37,0,0,1,1107.77,252.3Z"/><path class="cls-2" d="M112.54,310.06H130v4.78H112.54V330H130v4.77H107V290.5h23v4.77H112.54Z"/><path class="cls-2" d="M143.71,295.6a3.21,3.21,0,0,1-3.25,3.19,3.25,3.25,0,0,1,.07-6.5A3.21,3.21,0,0,1,143.71,295.6ZM143,334.73h-5V304.16h5Z"/><path class="cls-2" d="M158.17,304.16v4.31c2.65-3.58,5.3-5,9.08-5a10.65,10.65,0,0,1,7.1,2.52c1.92,1.86,2.58,4,2.58,8.16v20.62h-5v-19.5c0-2.72-.34-4.17-1.13-5.24a5.89,5.89,0,0,0-4.78-2.05,7.6,7.6,0,0,0-5.83,2.58,7.25,7.25,0,0,0-2,5.58v18.63h-5V304.16Z"/><path class="cls-2" d="M211.81,304.16v4.31c2.66-3.58,5.31-5,9.09-5A10.69,10.69,0,0,1,228,306c1.92,1.86,2.58,4,2.58,8.16v20.62h-5v-19.5c0-2.72-.33-4.17-1.13-5.24a5.86,5.86,0,0,0-4.77-2.05,7.62,7.62,0,0,0-5.84,2.58,7.25,7.25,0,0,0-2,5.58v18.63h-5V304.16Z"/><path class="cls-2" d="M246.3,295.6a3.21,3.21,0,0,1-3.25,3.19,3.25,3.25,0,0,1,.06-6.5A3.22,3.22,0,0,1,246.3,295.6Zm-.73,39.13h-5V304.16h5Z"/><path class="cls-2" d="M279.52,331a15.66,15.66,0,0,1-11.27,4.51c-8.76,0-15-6.63-15-15.92,0-9.48,6.3-16.11,15.25-16.11A15.13,15.13,0,0,1,279.65,308l-3.25,3.25a11.22,11.22,0,0,0-7.76-3.18c-6,0-10.21,4.64-10.21,11.27s4.18,11.48,10.15,11.48a10.7,10.7,0,0,0,7.82-3.32Z"/><path class="cls-2" d="M290.33,308.4c2.78-3.45,5.57-5,9.22-5a10.21,10.21,0,0,1,7.09,2.78c1.66,1.66,2.39,4.05,2.39,8v20.56h-5V314.44c0-4.18-2.06-6.5-5.7-6.5a7.79,7.79,0,0,0-6,2.72c-1.53,1.72-2,3.25-2,6.16v17.91h-5V290.5h5Z"/><path class="cls-2" d="M324.35,328.5c.06,1.52.46,1.85,2.32,1.85H329v4.38h-4.71c-3.58-.07-5-1.39-5-4.77V308.6h-4.25v-4.44h4.25v-9.62h5v9.62H329v4.44h-4.64Z"/><path class="cls-2" d="M378.66,304.16h5v30.77c0,5.1-1.26,8.55-4.05,11.21s-6.63,4-11.27,4q-8.55,0-13.53-5.57l3.45-3.45a17,17,0,0,0,2.92,2.65,14.72,14.72,0,0,0,7.16,1.8,11.09,11.09,0,0,0,8-3c1.52-1.66,2.32-4.11,2.32-7.29v-6.44c-3,4.51-6.5,6.57-11.28,6.57-8.09,0-14.12-6.83-14.12-15.92,0-4.9,1.79-9.61,4.84-12.53a13.42,13.42,0,0,1,9.68-3.58c4.64,0,7.76,1.72,10.88,6Zm-20.1,15.18c0,6.57,4.25,11.48,10,11.48a10.36,10.36,0,0,0,7.76-3.72c1.32-1.52,2.18-4.51,2.18-7.56,0-4-.59-6.1-2.38-8.09a10.41,10.41,0,0,0-7.43-3.38C362.74,308.07,358.56,312.71,358.56,319.34Z"/><path class="cls-2" d="M416.72,304.16v19.56c0,4.18-.8,6.5-3.05,8.56a13.71,13.71,0,0,1-17.64-.07c-2.06-2-3-4.77-3-8.49V304.16h5v19.43c0,4.38,2.79,7.36,6.83,7.36a7.25,7.25,0,0,0,5.44-2.32c1-1.19,1.32-2.45,1.32-4.91V304.16Zm-15.38-8.69a3.12,3.12,0,1,1-3.12-3.18A3,3,0,0,1,401.34,295.47Zm13.26,0a3.12,3.12,0,1,1-3.12-3.18A3,3,0,0,1,414.6,295.47Z"/><path class="cls-2" d="M426,334.73V290.5h5v44.23Z"/><path class="cls-2" d="M446.56,328.5c.07,1.52.46,1.85,2.32,1.85h2.32v4.38h-4.71c-3.58-.07-5-1.39-5-4.77V308.6h-4.24v-4.44h4.24v-9.62h5v9.62h4.64v4.44h-4.64Z"/><path class="cls-2" d="M463.67,295.6a3.21,3.21,0,0,1-3.25,3.19,3.25,3.25,0,0,1,.07-6.5A3.21,3.21,0,0,1,463.67,295.6Zm-.73,39.13h-5V304.16h5Z"/><path class="cls-2" d="M495.63,304.16h5v30.77c0,5.1-1.26,8.55-4,11.21s-6.63,4-11.28,4q-8.55,0-13.52-5.57l3.44-3.45a17.83,17.83,0,0,0,2.92,2.65,14.78,14.78,0,0,0,7.16,1.8,11.06,11.06,0,0,0,8-3c1.53-1.66,2.32-4.11,2.32-7.29v-6.44c-3,4.51-6.5,6.57-11.27,6.57-8.09,0-14.13-6.83-14.13-15.92,0-4.9,1.79-9.61,4.85-12.53a13.4,13.4,0,0,1,9.68-3.58c4.64,0,7.76,1.72,10.87,6Zm-20.09,15.18c0,6.57,4.24,11.48,10,11.48a10.36,10.36,0,0,0,7.76-3.72c1.33-1.52,2.19-4.51,2.19-7.56,0-4-.6-6.1-2.39-8.09a10.39,10.39,0,0,0-7.42-3.38C479.72,308.07,475.54,312.71,475.54,319.34Z"/><path class="cls-2" d="M513.47,321.07a9.56,9.56,0,0,0,2,5.57,9.94,9.94,0,0,0,8.22,4.18,10.59,10.59,0,0,0,9.15-5.24l4.45,1.66a15,15,0,0,1-13.6,8.22c-9.08,0-15.58-6.63-15.58-15.92s6.43-16.11,15.38-16.11A15.2,15.2,0,0,1,539,319.08c0,.4,0,1.26-.06,2Zm20.16-3.71a9.47,9.47,0,0,0-1.72-5.24,10.5,10.5,0,0,0-8.43-4.18,9.82,9.82,0,0,0-8.22,4.24,12,12,0,0,0-1.72,5.18Z"/><path class="cls-2" d="M560.29,312.51v-.33c0-2.85-2.32-4.64-5.84-4.64s-5.5,1.72-5.5,4.38,1.32,3.64,6.83,5.17c3.91,1.06,6,2.06,7.43,3.51a8.58,8.58,0,0,1,2.45,6c0,5.31-4.38,8.89-10.88,8.89-7,0-10.87-3.25-11.4-9.42h5c.33,3.45,2.59,5.31,6.43,5.31,3.45,0,5.71-1.79,5.71-4.51s-1.73-4-7-5.31c-6.63-1.79-9.61-4.57-9.61-9.21,0-5.31,4.31-8.89,10.74-8.89s10.41,3.31,10.68,9.08Z"/><path class="cls-2" d="M605.78,334.73h-5.57V295.27H588.93V290.5H617v4.77H605.78Z"/><path class="cls-2" d="M648.15,319.54a15.61,15.61,0,0,1-15.65,15.92c-9.08,0-15.45-6.63-15.45-16s6.37-16,15.65-16C641.72,303.43,648.15,310.13,648.15,319.54Zm-25.93-.06c0,6.76,4.18,11.34,10.42,11.34,6,0,10.34-4.71,10.34-11.34,0-6.83-4.11-11.41-10.28-11.41S622.22,312.65,622.22,319.48Z"/><path class="cls-2" d="M660.88,334.73h-5V290.5h5v27.05l12.21-13.39h6.36l-13.66,14.92,13.6,15.65h-6.3l-12.21-13.66Z"/><path class="cls-2" d="M686.55,321.07a9.49,9.49,0,0,0,2,5.57,9.93,9.93,0,0,0,8.22,4.18,10.59,10.59,0,0,0,9.15-5.24l4.44,1.66a15,15,0,0,1-13.59,8.22c-9.09,0-15.58-6.63-15.58-15.92s6.43-16.11,15.38-16.11a15.2,15.2,0,0,1,15.52,15.65c0,.4,0,1.26-.07,2Zm20.16-3.71a9.47,9.47,0,0,0-1.73-5.24,10.48,10.48,0,0,0-8.42-4.18,9.82,9.82,0,0,0-8.22,4.24,12.15,12.15,0,0,0-1.73,5.18Z"/><path class="cls-2" d="M724.41,304.16v4.31c2.65-3.58,5.31-5,9.09-5a10.64,10.64,0,0,1,7.09,2.52c1.93,1.86,2.59,4,2.59,8.16v20.62h-5v-19.5c0-2.72-.33-4.17-1.13-5.24a5.89,5.89,0,0,0-4.77-2.05,7.62,7.62,0,0,0-5.84,2.58,7.25,7.25,0,0,0-2,5.58v18.63h-5V304.16Z"/><path class="cls-2" d="M813.47,304.16l-10.88,30.57H798l-7-23.21-7.36,23.21h-4.78l-10.47-30.57h5.17l7.82,22.48,7-22.48h5l6.89,22.48,8-22.48Z"/><path class="cls-2" d="M824.54,295.6a3.21,3.21,0,0,1-3.25,3.19,3.25,3.25,0,0,1,.07-6.5A3.21,3.21,0,0,1,824.54,295.6Zm-.73,39.13h-5V304.16h5Z"/><path class="cls-2" d="M839,304.16v5.17a8.54,8.54,0,0,1,2.79-4,9.51,9.51,0,0,1,5.83-1.86h1.19v5.11a10.67,10.67,0,0,0-1.39-.07,7.85,7.85,0,0,0-6.63,3.51c-1.33,1.93-1.79,3.72-1.79,7.23v15.52h-5V304.16Z"/><path class="cls-2" d="M876.87,290.5h5v44.23h-5v-5.24c-3.06,4.18-6.3,6-11,6-8.42,0-14.39-6.57-14.39-15.85s6.1-16.18,14.39-16.18a13.14,13.14,0,0,1,11,5.37Zm-20,29.18c0,6.69,4,11.4,9.81,11.4s10.22-4.9,10.22-11.54c0-6.89-4-11.6-9.89-11.6C861,307.94,856.84,312.71,856.84,319.68Z"/><path class="cls-2" d="M934.82,290.5h5v44.23h-5v-5.24c-3.05,4.18-6.3,6-10.94,6-8.42,0-14.39-6.57-14.39-15.85s6.1-16.18,14.39-16.18a13.11,13.11,0,0,1,10.94,5.37Zm-20,29.18c0,6.69,4,11.4,9.81,11.4s10.21-4.9,10.21-11.54c0-6.89-4-11.6-9.88-11.6C918.91,307.94,914.8,312.71,914.8,319.68Z"/><path class="cls-2" d="M972.89,304.16v19.56c0,4.18-.8,6.5-3,8.56a13,13,0,0,1-8.82,3.18,12.84,12.84,0,0,1-8.82-3.25c-2.06-2-3.05-4.77-3.05-8.49V304.16h5v19.43c0,4.31,2.78,7.36,6.83,7.36a7.23,7.23,0,0,0,5.43-2.32c1-1.19,1.33-2.45,1.33-4.91V304.16Z"/><path class="cls-2" d="M987.21,304.16v5.17a8.6,8.6,0,0,1,2.78-4,9.56,9.56,0,0,1,5.84-1.86H997v5.11a10.67,10.67,0,0,0-1.39-.07A7.83,7.83,0,0,0,989,312c-1.33,1.93-1.79,3.72-1.79,7.23v15.52h-5V304.16Z"/><path class="cls-2" d="M1025.87,331a15.66,15.66,0,0,1-11.27,4.51c-8.76,0-15-6.63-15-15.92,0-9.48,6.3-16.11,15.25-16.11A15.13,15.13,0,0,1,1026,308l-3.25,3.25a11.22,11.22,0,0,0-7.76-3.18c-6,0-10.21,4.64-10.21,11.27s4.18,11.48,10.15,11.48a10.7,10.7,0,0,0,7.82-3.32Z"/><path class="cls-2" d="M1036.68,308.4c2.78-3.45,5.57-5,9.22-5a10.21,10.21,0,0,1,7.09,2.78c1.66,1.66,2.39,4.05,2.39,8v20.56h-5V314.44c0-4.18-2.06-6.5-5.7-6.5a7.79,7.79,0,0,0-6,2.72c-1.53,1.72-2,3.25-2,6.16v17.91h-5V290.5h5Z"/><path class="cls-2" d="M1088.14,321.07a9.49,9.49,0,0,0,2,5.57,9.94,9.94,0,0,0,8.22,4.18,10.59,10.59,0,0,0,9.15-5.24l4.45,1.66a15,15,0,0,1-13.6,8.22c-9.08,0-15.58-6.63-15.58-15.92s6.43-16.11,15.38-16.11a15.2,15.2,0,0,1,15.52,15.65c0,.4,0,1.26-.07,2Zm20.16-3.71a9.47,9.47,0,0,0-1.73-5.24,10.48,10.48,0,0,0-8.42-4.18,9.82,9.82,0,0,0-8.22,4.24,12.15,12.15,0,0,0-1.73,5.18Z"/><path class="cls-2" d="M1126.73,295.6a3.21,3.21,0,0,1-3.25,3.19,3.25,3.25,0,0,1,.07-6.5A3.21,3.21,0,0,1,1126.73,295.6Zm-.73,39.13h-5V304.16h5Z"/><path class="cls-2" d="M1141.19,304.16v4.31c2.65-3.58,5.3-5,9.08-5a10.65,10.65,0,0,1,7.1,2.52c1.92,1.86,2.58,4,2.58,8.16v20.62h-5v-19.5c0-2.72-.33-4.17-1.12-5.24a5.89,5.89,0,0,0-4.78-2.05,7.6,7.6,0,0,0-5.83,2.58,7.25,7.25,0,0,0-2,5.58v18.63h-5V304.16Z"/><path class="cls-2" d="M1194.83,304.16v5.17a8.61,8.61,0,0,1,2.79-4,9.54,9.54,0,0,1,5.84-1.86h1.19v5.11a10.67,10.67,0,0,0-1.39-.07,7.86,7.86,0,0,0-6.64,3.51c-1.32,1.93-1.79,3.72-1.79,7.23v15.52h-5V304.16Z"/><path class="cls-2" d="M1238.4,319.54a15.61,15.61,0,0,1-15.65,15.92c-9.08,0-15.45-6.63-15.45-16s6.37-16,15.65-16C1232,303.43,1238.4,310.13,1238.4,319.54Zm-25.93-.06c0,6.76,4.18,11.34,10.41,11.34,6,0,10.35-4.71,10.35-11.34,0-6.83-4.11-11.41-10.28-11.41S1212.47,312.65,1212.47,319.48Z"/><path class="cls-2" d="M1251.13,328.5c.07,1.52.47,1.85,2.33,1.85h2.32v4.38h-4.71c-3.58-.07-5-1.39-5-4.77V308.6h-4.24v-4.44h4.24v-9.62h5v9.62h4.65v4.44h-4.65Z"/><path class="cls-2" d="M1265.26,321.07a9.49,9.49,0,0,0,2,5.57,9.94,9.94,0,0,0,8.22,4.18,10.59,10.59,0,0,0,9.15-5.24l4.45,1.66a15,15,0,0,1-13.6,8.22c-9.08,0-15.58-6.63-15.58-15.92s6.43-16.11,15.38-16.11a15.2,15.2,0,0,1,15.52,15.65c0,.4,0,1.26-.07,2Zm20.16-3.71a9.47,9.47,0,0,0-1.72-5.24,10.5,10.5,0,0,0-8.43-4.18,9.82,9.82,0,0,0-8.22,4.24,12,12,0,0,0-1.72,5.18Z"/><path class="cls-2" d="M1312.08,312.51v-.33c0-2.85-2.33-4.64-5.84-4.64s-5.5,1.72-5.5,4.38,1.32,3.64,6.83,5.17c3.91,1.06,6,2.06,7.42,3.51a8.54,8.54,0,0,1,2.46,6c0,5.31-4.38,8.89-10.88,8.89-7,0-10.87-3.25-11.4-9.42h5c.33,3.45,2.59,5.31,6.43,5.31,3.45,0,5.71-1.79,5.71-4.51s-1.73-4-7-5.31c-6.63-1.79-9.61-4.57-9.61-9.21,0-5.31,4.31-8.89,10.74-8.89s10.41,3.31,10.68,9.08Z"/><path class="cls-2" d="M1366.72,329.69v5h-21.16V290.5h5.57v39.19Z"/><path class="cls-2" d="M1378.59,295.6a3.21,3.21,0,0,1-3.25,3.19,3.25,3.25,0,0,1,.07-6.5A3.21,3.21,0,0,1,1378.59,295.6Zm-.73,39.13h-5V304.16h5Z"/><path class="cls-2" d="M1411.81,331a15.66,15.66,0,0,1-11.27,4.51c-8.76,0-15-6.63-15-15.92,0-9.48,6.3-16.11,15.25-16.11a15.13,15.13,0,0,1,11.14,4.57l-3.25,3.25a11.21,11.21,0,0,0-7.75-3.18c-6,0-10.22,4.64-10.22,11.27s4.18,11.48,10.15,11.48a10.7,10.7,0,0,0,7.82-3.32Z"/><path class="cls-2" d="M1422.62,308.4c2.79-3.45,5.57-5,9.22-5a10.19,10.19,0,0,1,7.09,2.78c1.66,1.66,2.39,4.05,2.39,8v20.56h-5V314.44c0-4.18-2.06-6.5-5.7-6.5a7.79,7.79,0,0,0-6,2.72c-1.53,1.72-2,3.25-2,6.16v17.91h-5V290.5h5Z"/><path class="cls-2" d="M1456.64,328.5c.07,1.52.46,1.85,2.32,1.85h2.32v4.38h-4.71c-3.58-.07-5-1.39-5-4.77V308.6h-4.25v-4.44h4.25v-9.62h5v9.62h4.64v4.44h-4.64Z"/><path class="cls-2" d="M129.92,383.74V403.3c0,4.18-.8,6.5-3,8.55a13.69,13.69,0,0,1-17.64-.06c-2.06-2-3-4.78-3-8.49V383.74h5v19.43c0,4.31,2.78,7.36,6.83,7.36a7.28,7.28,0,0,0,5.44-2.32c1-1.2,1.32-2.46,1.32-4.91V383.74Z"/><path class="cls-2" d="M144.24,383.74v4.31c2.65-3.58,5.31-5,9.09-5a10.59,10.59,0,0,1,7.09,2.52c1.93,1.85,2.59,4,2.59,8.15v20.63h-5v-19.5c0-2.72-.33-4.18-1.13-5.24a5.89,5.89,0,0,0-4.77-2.05,7.62,7.62,0,0,0-5.84,2.58,7.21,7.21,0,0,0-2,5.57v18.64h-5V383.74Z"/><path class="cls-2" d="M195.83,370.07h5v44.24h-5v-5.24c-3.05,4.18-6.3,6-10.94,6-8.42,0-14.39-6.57-14.39-15.85S176.6,383,184.89,383a13.08,13.08,0,0,1,10.94,5.37Zm-20,29.18c0,6.7,4,11.41,9.81,11.41s10.21-4.91,10.21-11.54c0-6.9-4-11.6-9.88-11.6C179.92,387.52,175.81,392.29,175.81,399.25Z"/><path class="cls-2" d="M233.83,400.65a9.51,9.51,0,0,0,2,5.57,9.93,9.93,0,0,0,8.22,4.17,10.58,10.58,0,0,0,9.15-5.23l4.45,1.65A15,15,0,0,1,244,415c-9.08,0-15.58-6.64-15.58-15.92S234.89,383,243.84,383a15.2,15.2,0,0,1,15.52,15.65c0,.39,0,1.26-.07,2ZM254,396.93a9.42,9.42,0,0,0-1.73-5.24,10.48,10.48,0,0,0-8.42-4.17,9.82,9.82,0,0,0-8.22,4.24,12,12,0,0,0-1.72,5.17Z"/><path class="cls-2" d="M272.42,375.18a3.2,3.2,0,0,1-3.25,3.18,3.25,3.25,0,0,1,.07-6.49A3.21,3.21,0,0,1,272.42,375.18Zm-.73,39.13h-5V383.74h5Z"/><path class="cls-2" d="M286.88,383.74v4.31c2.65-3.58,5.3-5,9.08-5a10.6,10.6,0,0,1,7.1,2.52c1.92,1.85,2.59,4,2.59,8.15v20.63h-5v-19.5c0-2.72-.34-4.18-1.13-5.24a5.89,5.89,0,0,0-4.78-2.05,7.6,7.6,0,0,0-5.83,2.58,7.21,7.21,0,0,0-2,5.57v18.64h-5V383.74Z"/><path class="cls-2" d="M375.94,383.74l-10.88,30.57h-4.57l-7-23.21-7.36,23.21h-4.78l-10.48-30.57H336l7.82,22.48,7-22.48h5l6.9,22.48,8-22.48Z"/><path class="cls-2" d="M403.92,383.74h5v30.57h-5V408.4c-3.05,4.58-6.5,6.64-11.14,6.64-8.42,0-14.39-6.64-14.39-15.92S384.49,383,392.91,383c4.64,0,8,1.79,11,5.77Zm-17.7,7.42a13.9,13.9,0,0,0-2.52,8.09c0,6.5,4.24,11.41,9.81,11.41,5.77,0,10.48-5.37,10.48-11.94s-4.25-11.2-10.35-11.2A8.31,8.31,0,0,0,386.22,391.16Z"/><path class="cls-2" d="M424.15,383.74v5.17a8.69,8.69,0,0,1,2.78-4.05,9.62,9.62,0,0,1,5.84-1.85H434v5.1a12.43,12.43,0,0,0-1.39-.06,7.83,7.83,0,0,0-6.63,3.51c-1.33,1.92-1.79,3.71-1.79,7.23v15.52h-5V383.74Z"/><path class="cls-2" d="M444.7,383.74v4.31c2.66-3.58,5.31-5,9.09-5a10.59,10.59,0,0,1,7.09,2.52c1.93,1.85,2.59,4,2.59,8.15v20.63h-5v-19.5c0-2.72-.33-4.18-1.13-5.24a5.87,5.87,0,0,0-4.77-2.05,7.62,7.62,0,0,0-5.84,2.58,7.21,7.21,0,0,0-2,5.57v18.64h-5V383.74Z"/><path class="cls-2" d="M476.33,400.65a9.58,9.58,0,0,0,2,5.57,9.94,9.94,0,0,0,8.23,4.17,10.58,10.58,0,0,0,9.15-5.23l4.44,1.65A15,15,0,0,1,486.55,415c-9.09,0-15.59-6.64-15.59-15.92S477.4,383,486.35,383a15.2,15.2,0,0,1,15.52,15.65c0,.39,0,1.26-.07,2Zm20.16-3.72a9.42,9.42,0,0,0-1.72-5.24,10.5,10.5,0,0,0-8.42-4.17,9.82,9.82,0,0,0-8.22,4.24,12.15,12.15,0,0,0-1.73,5.17Z"/><path class="cls-2" d="M514.2,383.74v4.31c2.65-3.58,5.3-5,9.08-5a10.6,10.6,0,0,1,7.1,2.52c1.92,1.85,2.59,4,2.59,8.15v20.63h-5v-19.5c0-2.72-.33-4.18-1.13-5.24a5.89,5.89,0,0,0-4.78-2.05,7.6,7.6,0,0,0-5.83,2.58,7.21,7.21,0,0,0-2,5.57v18.64h-5V383.74Z"/><path class="cls-2" d="M565.79,370.07h5v44.24h-5v-5.24c-3,4.18-6.3,6-10.94,6-8.42,0-14.39-6.57-14.39-15.85S546.56,383,554.85,383a13.08,13.08,0,0,1,10.94,5.37Zm-20,29.18c0,6.7,4,11.41,9.82,11.41s10.21-4.91,10.21-11.54c0-6.9-4-11.6-9.88-11.6C549.88,387.52,545.76,392.29,545.76,399.25Z"/><path class="cls-2" d="M583.89,400.65a9.58,9.58,0,0,0,2,5.57,9.94,9.94,0,0,0,8.23,4.17,10.58,10.58,0,0,0,9.15-5.23l4.44,1.65A15,15,0,0,1,594.11,415c-9.09,0-15.59-6.64-15.59-15.92S585,383,593.91,383a15.2,15.2,0,0,1,15.52,15.65c0,.39,0,1.26-.07,2Zm20.16-3.72a9.5,9.5,0,0,0-1.72-5.24,10.5,10.5,0,0,0-8.42-4.17,9.85,9.85,0,0,0-8.23,4.24,12.29,12.29,0,0,0-1.72,5.17Z"/><path class="cls-2" d="M621.76,383.74v4.31c2.65-3.58,5.3-5,9.08-5a10.6,10.6,0,0,1,7.1,2.52c1.92,1.85,2.59,4,2.59,8.15v20.63h-5v-19.5c0-2.72-.34-4.18-1.13-5.24a5.89,5.89,0,0,0-4.78-2.05,7.6,7.6,0,0,0-5.83,2.58,7.21,7.21,0,0,0-2,5.57v18.64h-5V383.74Z"/><path class="cls-2" d="M673.15,402.44c.27,5,3,7.69,7.83,7.69s8.48-3.05,8.48-7.49c0-3.85-2-5.64-9-8-5.24-1.79-7-2.65-9-4.45a11,11,0,0,1-3.45-8.35c0-7.49,5.37-12.6,13.2-12.6s12.93,5,13.13,12.67h-5.57a8.5,8.5,0,0,0-1.06-4.58,7.72,7.72,0,0,0-6.57-3.12c-4.38,0-7.49,3-7.49,7.23a6.15,6.15,0,0,0,2.52,5.11c1.39,1,2.58,1.52,7.09,3.11,4.71,1.66,7,2.86,8.76,4.78a11.38,11.38,0,0,1,3,7.82c0,7.63-5.64,12.8-13.93,12.8-5.63,0-9.48-2-11.8-6a10.88,10.88,0,0,1-1.52-5.77v-.92Z"/><path class="cls-2" d="M708.69,375.18a3.2,3.2,0,0,1-3.25,3.18,3.25,3.25,0,0,1,.07-6.49A3.21,3.21,0,0,1,708.69,375.18ZM708,414.31h-5V383.74h5Z"/><path class="cls-2" d="M740.66,383.74h5v30.77c0,5.1-1.26,8.55-4.05,11.2s-6.63,4.05-11.27,4.05q-8.55,0-13.53-5.57l3.45-3.45a17,17,0,0,0,2.92,2.65,14.83,14.83,0,0,0,7.16,1.79,11.08,11.08,0,0,0,8-3c1.52-1.66,2.32-4.11,2.32-7.3v-6.43c-3,4.51-6.5,6.57-11.28,6.57-8.09,0-14.12-6.83-14.12-15.92,0-4.91,1.79-9.61,4.84-12.53a13.42,13.42,0,0,1,9.68-3.58c4.64,0,7.76,1.72,10.88,6Zm-20.1,15.18c0,6.57,4.25,11.47,10,11.47a10.35,10.35,0,0,0,7.76-3.71c1.32-1.52,2.18-4.51,2.18-7.56,0-4-.59-6.1-2.38-8.09a10.37,10.37,0,0,0-7.43-3.38C724.74,387.65,720.56,392.29,720.56,398.92Z"/><path class="cls-2" d="M760.88,383.74v4.31c2.65-3.58,5.31-5,9.09-5a10.59,10.59,0,0,1,7.09,2.52c1.93,1.85,2.59,4,2.59,8.15v20.63h-5v-19.5c0-2.72-.33-4.18-1.13-5.24a5.89,5.89,0,0,0-4.77-2.05,7.62,7.62,0,0,0-5.84,2.58,7.21,7.21,0,0,0-2,5.57v18.64h-5V383.74Z"/><path class="cls-2" d="M812.67,383.74h5v30.57h-5V408.4c-3,4.58-6.5,6.64-11.14,6.64-8.42,0-14.39-6.64-14.39-15.92S793.24,383,801.66,383c4.65,0,8,1.79,11,5.77ZM795,391.16a14,14,0,0,0-2.52,8.09c0,6.5,4.24,11.41,9.81,11.41,5.77,0,10.48-5.37,10.48-11.94s-4.25-11.2-10.35-11.2A8.31,8.31,0,0,0,795,391.16Z"/><path class="cls-2" d="M827.86,414.31V370.07h5v44.24Z"/><path class="cls-2" d="M848.42,408.07c.06,1.53.46,1.86,2.32,1.86h2.32v4.38h-4.71c-3.58-.07-5-1.4-5-4.78V388.18h-4.25v-4.44h4.25v-9.62h5v9.62h4.64v4.44h-4.64Z"/><path class="cls-2" d="M888.27,399.12A15.62,15.62,0,0,1,872.62,415c-9.09,0-15.45-6.64-15.45-16.05s6.36-16,15.65-16C881.84,383,888.27,389.7,888.27,399.12Zm-25.93-.07c0,6.77,4.18,11.34,10.41,11.34,6,0,10.35-4.7,10.35-11.34,0-6.83-4.11-11.4-10.28-11.4S862.34,392.22,862.34,399.05Z"/><path class="cls-2" d="M901,383.74v4.31c2.65-3.58,5.31-5,9.09-5a10.59,10.59,0,0,1,7.09,2.52c1.92,1.85,2.59,4,2.59,8.15v20.63h-5v-19.5c0-2.72-.33-4.18-1.13-5.24a5.89,5.89,0,0,0-4.77-2.05A7.62,7.62,0,0,0,903,390.1a7.21,7.21,0,0,0-2,5.57v18.64h-5V383.74Z"/><path class="cls-2" d="M972.49,370.07h5v44.24h-5v-5.24c-3,4.18-6.3,6-11,6-8.42,0-14.39-6.57-14.39-15.85S953.25,383,961.54,383a13.11,13.11,0,0,1,11,5.37Zm-20,29.18c0,6.7,4,11.41,9.81,11.41s10.22-4.91,10.22-11.54c0-6.9-4-11.6-9.88-11.6C956.57,387.52,952.46,392.29,952.46,399.25Z"/><path class="cls-2" d="M990.59,400.65a9.51,9.51,0,0,0,2,5.57,9.93,9.93,0,0,0,8.22,4.17,10.58,10.58,0,0,0,9.15-5.23l4.45,1.65a15,15,0,0,1-13.6,8.23c-9.08,0-15.58-6.64-15.58-15.92S991.65,383,1000.6,383a15.2,15.2,0,0,1,15.52,15.65c0,.39,0,1.26-.07,2Zm20.16-3.72a9.42,9.42,0,0,0-1.73-5.24,10.5,10.5,0,0,0-8.42-4.17,9.82,9.82,0,0,0-8.22,4.24,12,12,0,0,0-1.72,5.17Z"/><path class="cls-2" d="M1046.29,383.74V403.3c0,4.18-.79,6.5-3,8.55a13.69,13.69,0,0,1-17.64-.06c-2-2-3-4.78-3-8.49V383.74h5v19.43c0,4.31,2.79,7.36,6.83,7.36a7.28,7.28,0,0,0,5.44-2.32c1-1.2,1.33-2.46,1.33-4.91V383.74Z"/><path class="cls-2" d="M1061,408.07c.06,1.53.46,1.86,2.32,1.86h2.32v4.38h-4.71c-3.58-.07-5-1.4-5-4.78V388.18h-4.25v-4.44h4.25v-9.62h5v9.62h4.64v4.44H1061Z"/><path class="cls-2" d="M1072.75,414.31V370.07h5v44.24Z"/><path class="cls-2" d="M1093.7,375.18a3.19,3.19,0,0,1-3.24,3.18,3.25,3.25,0,0,1,.06-6.49A3.21,3.21,0,0,1,1093.7,375.18Zm-.73,39.13h-5V383.74h5Z"/><path class="cls-2" d="M1126.93,410.53a15.7,15.7,0,0,1-11.28,4.51c-8.75,0-15-6.64-15-15.92,0-9.48,6.3-16.11,15.25-16.11a15.13,15.13,0,0,1,11.14,4.57l-3.25,3.25a11.24,11.24,0,0,0-7.76-3.18c-6,0-10.21,4.64-10.21,11.27s4.18,11.47,10.15,11.47a10.68,10.68,0,0,0,7.82-3.31Z"/><path class="cls-2" d="M1137.74,388c2.78-3.45,5.57-5,9.21-5a10.22,10.22,0,0,1,7.1,2.78c1.66,1.66,2.39,4,2.39,8v20.56h-5V394c0-4.17-2.06-6.49-5.71-6.49a7.76,7.76,0,0,0-6,2.71c-1.53,1.73-2,3.25-2,6.17v17.91h-5V370.07h5Z"/><path class="cls-2" d="M121.17,471.67v-.33c0-2.85-2.33-4.65-5.84-4.65s-5.5,1.73-5.5,4.38,1.32,3.65,6.83,5.17c3.91,1.07,6,2.06,7.42,3.52a8.51,8.51,0,0,1,2.46,6c0,5.3-4.38,8.88-10.88,8.88-7,0-10.87-3.25-11.41-9.41h5c.33,3.44,2.58,5.3,6.43,5.3,3.45,0,5.7-1.79,5.7-4.51s-1.72-4-7-5.3c-6.63-1.79-9.61-4.58-9.61-9.22,0-5.31,4.31-8.89,10.74-8.89s10.41,3.32,10.68,9.09Z"/><path class="cls-2" d="M140.06,454.76a3.19,3.19,0,0,1-3.25,3.18,3.25,3.25,0,0,1,.07-6.5A3.21,3.21,0,0,1,140.06,454.76Zm-.73,39.12h-5V463.31h5Z"/><path class="cls-2" d="M173.29,490.1A15.66,15.66,0,0,1,162,494.61c-8.75,0-15-6.63-15-15.91,0-9.49,6.3-16.12,15.25-16.12a15.1,15.1,0,0,1,11.14,4.58l-3.25,3.25a11.24,11.24,0,0,0-7.76-3.18c-6,0-10.21,4.64-10.21,11.27S156.38,490,162.34,490a10.69,10.69,0,0,0,7.83-3.31Z"/><path class="cls-2" d="M184.1,467.56c2.78-3.45,5.57-5,9.21-5a10.18,10.18,0,0,1,7.1,2.79c1.66,1.66,2.39,4,2.39,8v20.55h-5V473.59c0-4.18-2.06-6.5-5.71-6.5a7.77,7.77,0,0,0-6,2.72c-1.53,1.73-2,3.25-2,6.17v17.9h-5V449.65h5Z"/><path class="cls-2" d="M218.11,487.65c.07,1.53.47,1.86,2.33,1.86h2.32v4.37h-4.71c-3.58-.06-5-1.39-5-4.77V467.76h-4.24v-4.45h4.24V453.7h5v9.61h4.65v4.45h-4.65Z"/><path class="cls-2" d="M239.8,480.09H226.07v-4.58H239.8Z"/><path class="cls-2" d="M287.61,463.31v19.57c0,4.17-.8,6.49-3.05,8.55a13.71,13.71,0,0,1-17.64-.07c-2.06-2-3.05-4.77-3.05-8.48V463.31h5v19.43c0,4.31,2.78,7.36,6.83,7.36a7.25,7.25,0,0,0,5.44-2.32c1-1.19,1.32-2.45,1.32-4.9V463.31Z"/><path class="cls-2" d="M301.93,463.31v4.31c2.65-3.58,5.31-5,9.09-5a10.64,10.64,0,0,1,7.09,2.52c1.93,1.86,2.59,4,2.59,8.16v20.62h-5V474.39c0-2.72-.33-4.18-1.13-5.24a5.89,5.89,0,0,0-4.77-2.06,7.6,7.6,0,0,0-5.84,2.59,7.21,7.21,0,0,0-2,5.57v18.63h-5V463.31Z"/><path class="cls-2" d="M353.52,449.65h5v44.23h-5v-5.24c-3,4.18-6.3,6-10.94,6-8.42,0-14.39-6.56-14.39-15.85s6.1-16.18,14.39-16.18A13.11,13.11,0,0,1,353.52,468Zm-20,29.18c0,6.7,4,11.41,9.81,11.41s10.21-4.91,10.21-11.54c0-6.9-4-11.61-9.88-11.61C337.61,467.09,333.5,471.87,333.5,478.83Z"/><path class="cls-2" d="M393.64,467.56c2.79-3.45,5.57-5,9.22-5a10.2,10.2,0,0,1,7.1,2.79c1.65,1.66,2.38,4,2.38,8v20.55h-5V473.59c0-4.18-2.05-6.5-5.7-6.5a7.79,7.79,0,0,0-6,2.72c-1.52,1.73-2,3.25-2,6.17v17.9h-5V449.65h5Z"/><path class="cls-2" d="M450.94,478.7a15.57,15.57,0,0,1-15.65,15.91c-9.09,0-15.45-6.63-15.45-16s6.36-16,15.65-16C444.5,462.58,450.94,469.28,450.94,478.7ZM425,478.63c0,6.77,4.18,11.34,10.41,11.34,6,0,10.34-4.71,10.34-11.34,0-6.83-4.11-11.4-10.27-11.4S425,471.8,425,478.63Zm6.89-24a3.12,3.12,0,1,1-3.11-3.19A3,3,0,0,1,431.9,454.63Zm13.2,0a3.12,3.12,0,1,1-3.12-3.19A3.06,3.06,0,0,1,445.1,454.63Z"/><path class="cls-2" d="M463.67,463.31v5.18a8.69,8.69,0,0,1,2.78-4.05,9.63,9.63,0,0,1,5.84-1.86h1.19v5.11a10.67,10.67,0,0,0-1.39-.07,7.82,7.82,0,0,0-6.63,3.52c-1.33,1.92-1.79,3.71-1.79,7.23v15.51h-5V463.31Z"/><path class="cls-2" d="M484.23,493.88h-5V449.65h5v18.9c3-4.18,6.3-6,10.74-6,8.55,0,14.52,6.63,14.52,16.12s-5.9,15.91-14.26,15.91c-4.7,0-8-1.79-11-6Zm-.07-15.25c0,7,4,11.61,9.95,11.61s10.08-4.58,10.08-11.41-4.11-11.74-9.88-11.74S484.16,471.93,484.16,478.63Z"/><path class="cls-2" d="M540.26,463.31h5v30.57h-5V488c-3,4.58-6.5,6.63-11.14,6.63-8.42,0-14.39-6.63-14.39-15.91s6.1-16.12,14.52-16.12c4.64,0,8,1.79,11,5.77Zm-17.7,7.43a13.9,13.9,0,0,0-2.52,8.09c0,6.5,4.24,11.41,9.81,11.41,5.77,0,10.48-5.38,10.48-11.94s-4.25-11.21-10.35-11.21A8.32,8.32,0,0,0,522.56,470.74Z"/><path class="cls-2" d="M560.49,463.31v5.18a8.69,8.69,0,0,1,2.78-4.05,9.63,9.63,0,0,1,5.84-1.86h1.19v5.11a10.67,10.67,0,0,0-1.39-.07,7.82,7.82,0,0,0-6.63,3.52c-1.33,1.92-1.79,3.71-1.79,7.23v15.51h-5V463.31Z"/><path class="cls-2" d="M619,463.31h5v30.77c0,5.11-1.26,8.56-4,11.21s-6.64,4-11.28,4q-8.55,0-13.53-5.58l3.45-3.44A17.89,17.89,0,0,0,601.6,503a14.86,14.86,0,0,0,7.16,1.79,11.09,11.09,0,0,0,8-3c1.53-1.66,2.32-4.12,2.32-7.3v-6.43c-3,4.51-6.5,6.56-11.27,6.56-8.09,0-14.13-6.83-14.13-15.91,0-4.91,1.79-9.62,4.84-12.54a13.48,13.48,0,0,1,9.69-3.58c4.64,0,7.75,1.73,10.87,6ZM599,478.5c0,6.56,4.24,11.47,10,11.47a10.35,10.35,0,0,0,7.76-3.71c1.33-1.53,2.19-4.51,2.19-7.56,0-4-.6-6.1-2.39-8.09a10.37,10.37,0,0,0-7.43-3.38C603.13,467.23,599,471.87,599,478.5Z"/><path class="cls-2" d="M636.88,480.22a9.46,9.46,0,0,0,2,5.57,9.94,9.94,0,0,0,8.22,4.18,10.57,10.57,0,0,0,9.15-5.24l4.45,1.66a15,15,0,0,1-13.6,8.22c-9.08,0-15.58-6.63-15.58-15.91s6.43-16.12,15.38-16.12a15.2,15.2,0,0,1,15.52,15.65c0,.4,0,1.26-.07,2ZM657,476.51a9.42,9.42,0,0,0-1.73-5.24,10.48,10.48,0,0,0-8.42-4.18,9.81,9.81,0,0,0-8.22,4.25,12.15,12.15,0,0,0-1.73,5.17Z"/><path class="cls-2" d="M674.74,463.31v4.25c2.32-3.52,4.91-5,8.69-5,4.18,0,6.83,1.79,8.22,5.57,2.26-3.91,5.11-5.57,9.69-5.57,3.51,0,6.16,1.13,7.75,3.25,1.46,1.93,1.86,3.65,1.86,8.49v19.56h-5V475.51c0-3.71-.13-4.57-.86-5.83a6,6,0,0,0-5.31-2.59c-4.44,0-6.89,3-6.89,8.42v18.37h-5v-18.3c0-3-.27-4.51-1-5.83a5.25,5.25,0,0,0-5-2.66c-4.44,0-7.1,3.19-7.1,8.49v18.3h-5V463.31Z"/><path class="cls-2" d="M744,463.31h5v30.57h-5V488c-3.05,4.58-6.49,6.63-11.14,6.63-8.42,0-14.39-6.63-14.39-15.91s6.1-16.12,14.53-16.12c4.64,0,8,1.79,11,5.77Zm-17.7,7.43a14,14,0,0,0-2.52,8.09c0,6.5,4.24,11.41,9.81,11.41,5.77,0,10.48-5.38,10.48-11.94s-4.24-11.21-10.34-11.21A8.33,8.33,0,0,0,726.27,470.74Z"/><path class="cls-2" d="M783,490.1a15.66,15.66,0,0,1-11.28,4.51c-8.75,0-15-6.63-15-15.91,0-9.49,6.3-16.12,15.25-16.12a15.1,15.1,0,0,1,11.14,4.58l-3.25,3.25a11.24,11.24,0,0,0-7.76-3.18c-6,0-10.21,4.64-10.21,11.27S766.06,490,772,490a10.69,10.69,0,0,0,7.83-3.31Z"/><path class="cls-2" d="M793.78,467.56c2.78-3.45,5.57-5,9.21-5a10.18,10.18,0,0,1,7.1,2.79c1.66,1.66,2.39,4,2.39,8v20.55h-5V473.59c0-4.18-2.06-6.5-5.71-6.5a7.77,7.77,0,0,0-6,2.72c-1.53,1.73-2,3.25-2,6.17v17.9h-5V449.65h5Z"/><path class="cls-2" d="M827.79,487.65c.07,1.53.47,1.86,2.33,1.86h2.32v4.37h-4.71c-3.58-.06-5-1.39-5-4.77V467.76h-4.24v-4.45h4.24V453.7h5v9.61h4.65v4.45h-4.65Z"/><path class="cls-2" d="M846,491a3.45,3.45,0,1,1-3.45-3.51A3.37,3.37,0,0,1,846,491Z"/></svg>