<svg id="Ńëîé_1" data-name="Ńëîé 1" xmlns="http://www.w3.org/2000/svg" viewBox="0 0 1397 178"><defs><style>.cls-1{fill:#303233;}.cls-2{fill:#3d3d41;}.cls-3{fill:#579a83;}.cls-4{fill:#494a50;}.cls-5{fill:#91989d;}.cls-6{fill:#d5dfe8;}.cls-10,.cls-7,.cls-9{fill:#fff;}.cls-7{opacity:0.24;}.cls-8{fill:#666a6b;}.cls-9{opacity:0.12;}.cls-10{opacity:0.27;}</style></defs><path class="cls-1" d="M115.81,19.29h53.32a8.35,8.35,0,0,1,8.35,8.35V29a0,0,0,0,1,0,0h-70a0,0,0,0,1,0,0V27.64A8.35,8.35,0,0,1,115.81,19.29Z"/><path class="cls-1" d="M248.15,18.35h53.32a8.35,8.35,0,0,1,8.35,8.35V28a0,0,0,0,1,0,0h-70a0,0,0,0,1,0,0V26.7A8.35,8.35,0,0,1,248.15,18.35Z"/><path class="cls-1" d="M380.49,19.29h53.32a8.35,8.35,0,0,1,8.35,8.35V29a0,0,0,0,1,0,0h-70a0,0,0,0,1,0,0V27.64A8.35,8.35,0,0,1,380.49,19.29Z"/><path class="cls-1" d="M493.23,18.82h53.32a8.35,8.35,0,0,1,8.35,8.35v1.34a0,0,0,0,1,0,0h-70a0,0,0,0,1,0,0V27.17A8.35,8.35,0,0,1,493.23,18.82Z"/><path class="cls-1" d="M617.9,17.88h53.32a8.35,8.35,0,0,1,8.35,8.35v1.34a0,0,0,0,1,0,0h-70a0,0,0,0,1,0,0V26.23A8.35,8.35,0,0,1,617.9,17.88Z"/><path class="cls-1" d="M742.57,18.82h53.32a8.35,8.35,0,0,1,8.35,8.35v1.34a0,0,0,0,1,0,0h-70a0,0,0,0,1,0,0V27.17A8.35,8.35,0,0,1,742.57,18.82Z"/><path class="cls-1" d="M867.23,18.35h53.32a8.35,8.35,0,0,1,8.35,8.35V28a0,0,0,0,1,0,0h-70a0,0,0,0,1,0,0V26.7A8.35,8.35,0,0,1,867.23,18.35Z"/><rect class="cls-2" x="41" y="131.42" width="410.41" height="14.8"/><rect class="cls-2" x="464.59" y="131.42" width="474.43" height="14.8"/><path class="cls-3" d="M55.89,157.43H13.7s-1.58-45.1,0-56.57S79,24.91,88.07,23.72s363.34,0,363.34,0V134.64H73.12a16.51,16.51,0,0,0-15.18,10Z"/><path class="cls-4" d="M451.41,23.72s-354.24-1.19-363.34,0l-.16,0V49.26h363.5Z"/><path class="cls-5" d="M87.91,49.26S53.65,73.15,51.08,83.14,65.23,97.33,65.23,97.33H451.41V49.26Z"/><path class="cls-4" d="M19.4,90.88,65,90.31S98.14,58.82,97.56,59s-51,.94-51,.94-5.79,5.35-13,13.56C24.26,84,19.4,90.88,19.4,90.88Z"/><path class="cls-1" d="M20.9,88.89l41.86-.49s31-27.67,30.43-27.5-48.42.79-48.42.79-4.7,4.74-11.48,12C24.61,82.88,20.9,88.89,20.9,88.89Z"/><rect class="cls-4" x="177.48" y="60.95" width="57.94" height="28.3" rx="12.2"/><path class="cls-4" d="M258.94,60.81h29.85a10.42,10.42,0,0,1,10.42,10.42v63.56a0,0,0,0,1,0,0h-50.7a0,0,0,0,1,0,0V71.23A10.42,10.42,0,0,1,258.94,60.81Z"/><path class="cls-6" d="M260.2,62.32h27.34a10,10,0,0,1,10,10v62.52a0,0,0,0,1,0,0H250.24a0,0,0,0,1,0,0V72.28A10,10,0,0,1,260.2,62.32Z"/><rect class="cls-1" x="255.73" y="67.71" width="11.94" height="33.89" rx="5.15"/><rect class="cls-1" x="279.03" y="67.71" width="11.94" height="33.89" rx="5.15"/><rect class="cls-4" x="273.35" y="61.59" width="1.72" height="73.2"/><polygon class="cls-5" points="233.11 122.63 13 122.63 13 111.48 246.26 111.48 233.11 122.63"/><polygon class="cls-5" points="451.41 122.63 303.54 122.63 319.88 111.48 451.41 111.48 451.41 122.63"/><path class="cls-7" d="M24.73,104.05c-1.2,3.79-1.19,7.84-1.17,11.81q.06,11.61.13,23.21c0,3.32.3,7.18,3,9.06a8.51,8.51,0,0,0,5,1.17c2,0,4.3-.53,5.29-2.29a6.78,6.78,0,0,0,.45-3.9q-.69-8-1.36-16.06c-.39-4.55-.72-9.41,1.49-13.42,1.23-2.25,3.16-4,4.68-6.08s2.68-4.68,2-7.14a7.26,7.26,0,0,0-4.88-4.59C32.53,93.56,26.84,97.42,24.73,104.05Z"/><circle class="cls-5" cx="87.91" cy="157.93" r="13.02"/><path class="cls-8" d="M97.91,157.93a10,10,0,1,1-10-10A10,10,0,0,1,97.91,157.93Z"/><circle class="cls-5" cx="87.91" cy="157.93" r="3.57"/><path class="cls-5" d="M132.48,157.93a13,13,0,1,1-13-13A13,13,0,0,1,132.48,157.93Z"/><path class="cls-8" d="M129.45,157.93a10,10,0,1,1-10-10A10,10,0,0,1,129.45,157.93Z"/><circle class="cls-5" cx="119.46" cy="157.93" r="3.57"/><path class="cls-5" d="M164,157.93a13,13,0,1,1-13-13A13,13,0,0,1,164,157.93Z"/><path class="cls-8" d="M161,157.93a10,10,0,1,1-10-10A10,10,0,0,1,161,157.93Z"/><circle class="cls-5" cx="151" cy="157.93" r="3.57"/><polygon class="cls-1" points="173.86 154.75 170.88 141.19 125.09 141.19 113.5 141.19 67.7 141.19 64.73 154.75 63.14 159.78 67.13 159.78 70.41 154.75 113.5 154.75 125.09 154.75 168.17 154.75 171.45 159.78 175.45 159.78 173.86 154.75"/><circle class="cls-5" cx="363.36" cy="157.93" r="13.02"/><path class="cls-8" d="M373.35,157.93a10,10,0,1,1-10-10A10,10,0,0,1,373.35,157.93Z"/><circle class="cls-5" cx="363.36" cy="157.93" r="3.57"/><path class="cls-5" d="M407.92,157.93a13,13,0,1,1-13-13A13,13,0,0,1,407.92,157.93Z"/><path class="cls-8" d="M404.89,157.93a10,10,0,1,1-10-10A10,10,0,0,1,404.89,157.93Z"/><circle class="cls-5" cx="394.9" cy="157.93" r="3.57"/><path class="cls-5" d="M439.46,157.93a13,13,0,1,1-13-13A13,13,0,0,1,439.46,157.93Z"/><path class="cls-8" d="M436.44,157.93a10,10,0,1,1-10-10A10,10,0,0,1,436.44,157.93Z"/><circle class="cls-5" cx="426.44" cy="157.93" r="3.57"/><polygon class="cls-1" points="449.3 154.75 446.32 141.19 400.53 141.19 388.94 141.19 343.14 141.19 340.17 154.75 338.58 159.78 342.57 159.78 345.85 154.75 388.94 154.75 400.53 154.75 443.62 154.75 446.89 159.78 450.89 159.78 449.3 154.75"/><circle class="cls-5" cx="502.36" cy="157.93" r="13.02"/><path class="cls-8" d="M512.36,157.93a10,10,0,1,1-10-10A10,10,0,0,1,512.36,157.93Z"/><circle class="cls-5" cx="502.36" cy="157.93" r="3.57"/><path class="cls-5" d="M546.93,157.93a13,13,0,1,1-13-13A13,13,0,0,1,546.93,157.93Z"/><path class="cls-8" d="M543.9,157.93a10,10,0,1,1-10-10A10,10,0,0,1,543.9,157.93Z"/><circle class="cls-5" cx="533.91" cy="157.93" r="3.57"/><path class="cls-5" d="M578.47,157.93a13,13,0,1,1-13-13A13,13,0,0,1,578.47,157.93Z"/><path class="cls-8" d="M575.44,157.93a10,10,0,1,1-10-10A10,10,0,0,1,575.44,157.93Z"/><path class="cls-5" d="M569,157.93a3.57,3.57,0,1,1-3.57-3.57A3.56,3.56,0,0,1,569,157.93Z"/><polygon class="cls-1" points="588.31 154.75 585.33 141.19 539.54 141.19 527.95 141.19 482.15 141.19 479.18 154.75 477.59 159.78 481.58 159.78 484.86 154.75 527.95 154.75 539.54 154.75 582.62 154.75 585.9 159.78 589.89 159.78 588.31 154.75"/><circle class="cls-5" cx="838.48" cy="157.93" r="13.02"/><path class="cls-8" d="M848.47,157.93a10,10,0,1,1-10-10A10,10,0,0,1,848.47,157.93Z"/><circle class="cls-5" cx="838.48" cy="157.93" r="3.57"/><path class="cls-5" d="M883,157.93a13,13,0,1,1-13-13A13,13,0,0,1,883,157.93Z"/><path class="cls-8" d="M880,157.93a10,10,0,1,1-10-10A10,10,0,0,1,880,157.93Z"/><circle class="cls-5" cx="870.02" cy="157.93" r="3.57"/><path class="cls-5" d="M914.58,157.93a13,13,0,1,1-13-13A13,13,0,0,1,914.58,157.93Z"/><path class="cls-8" d="M911.56,157.93a10,10,0,1,1-10-10A10,10,0,0,1,911.56,157.93Z"/><circle class="cls-5" cx="901.56" cy="157.93" r="3.57"/><polygon class="cls-1" points="924.42 154.75 921.44 141.19 875.65 141.19 864.06 141.19 818.26 141.19 815.29 154.75 813.7 159.78 817.7 159.78 820.97 154.75 864.06 154.75 875.65 154.75 918.74 154.75 922.01 159.78 926.01 159.78 924.42 154.75"/><rect class="cls-4" x="104.36" y="60.9" width="57.94" height="28.3" rx="12.2"/><rect class="cls-1" x="106.67" y="62.23" width="53.33" height="25.21" rx="10.87"/><polygon class="cls-9" points="120.39 62.23 106.67 77.19 106.73 81.66 125.14 62.23 120.39 62.23"/><path class="cls-9" d="M119.2,87.44,141,62.23h7.92s-17.33,25.21-17.72,25.21Z"/><path class="cls-9" d="M142.86,87.44c.2,0,17.14-16.68,17.14-16.68V75l-9,12.49Z"/><rect class="cls-4" x="177.48" y="61.01" width="57.94" height="28.3" rx="12.2"/><rect class="cls-1" x="179.78" y="62.34" width="53.33" height="25.21" rx="10.87"/><polygon class="cls-9" points="193.5 62.34 179.78 77.3 179.84 81.77 198.25 62.34 193.5 62.34"/><path class="cls-9" d="M192.31,87.55l21.78-25.21H222s-17.32,25.21-17.72,25.21Z"/><path class="cls-9" d="M216,87.55c.2,0,17.14-16.68,17.14-16.68v4.19l-9,12.49Z"/><rect class="cls-4" x="310.08" y="60.96" width="57.94" height="28.3" rx="12.2"/><rect class="cls-1" x="312.39" y="62.28" width="53.33" height="25.21" rx="10.87"/><polygon class="cls-9" points="326.1 62.28 312.39 77.25 312.44 81.71 330.86 62.28 326.1 62.28"/><path class="cls-9" d="M324.91,87.49l21.78-25.21h7.92s-17.32,25.21-17.72,25.21Z"/><path class="cls-9" d="M348.57,87.49c.2,0,17.14-16.68,17.14-16.68V75l-9,12.48Z"/><rect class="cls-4" x="383.19" y="61.07" width="57.94" height="28.3" rx="12.2"/><rect class="cls-1" x="385.5" y="62.39" width="53.33" height="25.21" rx="10.87"/><polygon class="cls-9" points="399.21 62.39 385.5 77.36 385.56 81.82 403.97 62.39 399.21 62.39"/><path class="cls-9" d="M398,87.6l21.78-25.21h7.92S410.4,87.6,410,87.6Z"/><path class="cls-9" d="M421.69,87.6c.2,0,17.14-16.68,17.14-16.68v4.19l-9,12.49Z"/><path class="cls-9" d="M23.55,85.12l33.5-23.59,6.64-.09c-.33,0-36.44,27.38-36.44,27.38l-6.35.07Z"/><path class="cls-10" d="M40.93,88.66,83.66,61.13,91.57,61C91.25,61,58,88.46,58,88.46Z"/><path class="cls-7" d="M199.41,33.1a81.06,81.06,0,0,0,12.17-.81,3.46,3.46,0,0,0,2.5-1.22c.71-1.12-.09-2.69-1.27-3.28a7.25,7.25,0,0,0-3.9-.36C171.72,30.67,134.33,26.16,97,25.59c-3.76-.06-7.8,0-11.22,1.76-2.68,1.39-4.26,4.41-.46,5.79,3.61,1.32,9.56-.15,13.38-.28q6.94-.24,13.88-.32c18.62-.23,37.23.24,55.84.5C178.74,33.18,189.08,33.25,199.41,33.1Z"/><path class="cls-7" d="M228.48,32.31l23,.42c5.71.11,11.51.21,17.05-1.23a2.61,2.61,0,0,0,1.34-.66,1.87,1.87,0,0,0-.64-2.64,5.45,5.45,0,0,0-3-.57l-27.71,0h-6.92c-1.57,0-4.18-.52-5.65.17C222.35,29.54,225.84,32.26,228.48,32.31Z"/><rect class="cls-2" x="451.41" y="41.99" width="13.18" height="87.76"/><rect class="cls-3" x="464.59" y="24.01" width="474.43" height="110.5"/><rect class="cls-4" x="464.59" y="24.01" width="474.43" height="24.19"/><rect class="cls-5" x="464.59" y="48.2" width="474.43" height="49.13"/><path class="cls-4" d="M551.34,60.34h29.85a10.42,10.42,0,0,1,10.42,10.42v63.56a0,0,0,0,1,0,0h-50.7a0,0,0,0,1,0,0V70.76A10.42,10.42,0,0,1,551.34,60.34Z"/><path class="cls-6" d="M552.59,61.84h27.34a10,10,0,0,1,10,10v62.52a0,0,0,0,1,0,0H542.63a0,0,0,0,1,0,0V71.8A10,10,0,0,1,552.59,61.84Z"/><rect class="cls-1" x="548.12" y="67.24" width="11.94" height="33.89" rx="5.15"/><rect class="cls-1" x="571.42" y="67.24" width="11.94" height="33.89" rx="5.15"/><rect class="cls-4" x="565.74" y="61.12" width="1.72" height="73.2"/><path class="cls-4" d="M824.12,60.34H854a10.42,10.42,0,0,1,10.42,10.42v63.56a0,0,0,0,1,0,0H813.7a0,0,0,0,1,0,0V70.76A10.42,10.42,0,0,1,824.12,60.34Z"/><path class="cls-6" d="M825.37,61.84h27.34a10,10,0,0,1,10,10v62.52a0,0,0,0,1,0,0H815.41a0,0,0,0,1,0,0V71.8A10,10,0,0,1,825.37,61.84Z"/><rect class="cls-1" x="820.9" y="67.24" width="11.94" height="33.89" rx="5.15"/><rect class="cls-1" x="844.21" y="67.24" width="11.94" height="33.89" rx="5.15"/><rect class="cls-4" x="838.53" y="61.12" width="1.72" height="73.2"/><rect class="cls-4" x="471.82" y="61.07" width="57.94" height="28.3" rx="12.2"/><rect class="cls-1" x="474.13" y="62.39" width="53.33" height="25.21" rx="10.87"/><polygon class="cls-9" points="487.85 62.39 474.13 77.36 474.19 81.82 492.6 62.39 487.85 62.39"/><path class="cls-9" d="M486.66,87.6l21.78-25.21h7.92S499,87.6,498.64,87.6Z"/><path class="cls-9" d="M510.32,87.6c.2,0,17.14-16.68,17.14-16.68v4.19l-9,12.49Z"/><rect class="cls-4" x="873.12" y="59.14" width="57.94" height="28.3" rx="12.2"/><rect class="cls-1" x="875.42" y="60.47" width="53.33" height="25.21" rx="10.87"/><polygon class="cls-9" points="889.14 60.47 875.42 75.43 875.48 79.9 893.89 60.47 889.14 60.47"/><path class="cls-9" d="M888,85.68l21.78-25.21h7.92s-17.32,25.21-17.72,25.21Z"/><path class="cls-9" d="M911.61,85.68c.2,0,17.14-16.68,17.14-16.68v4.19l-9,12.49Z"/><rect class="cls-4" x="603.05" y="60.61" width="57.94" height="28.3" rx="12.2"/><rect class="cls-1" x="605.35" y="61.93" width="53.33" height="25.21" rx="10.87"/><polygon class="cls-9" points="619.07 61.93 605.35 76.9 605.41 81.36 623.82 61.93 619.07 61.93"/><path class="cls-9" d="M617.88,87.14l21.78-25.21h7.92s-17.33,25.21-17.72,25.21Z"/><path class="cls-9" d="M641.54,87.14c.2,0,17.14-16.68,17.14-16.68v4.19l-9,12.49Z"/><rect class="cls-4" x="676.16" y="60.72" width="57.94" height="28.3" rx="12.2"/><rect class="cls-1" x="678.46" y="62.04" width="53.33" height="25.21" rx="10.87"/><polygon class="cls-9" points="692.18 62.04 678.46 77.01 678.52 81.47 696.93 62.04 692.18 62.04"/><path class="cls-9" d="M691,87.25,712.77,62h7.92S703.37,87.25,703,87.25Z"/><path class="cls-9" d="M714.65,87.25c.2,0,17.14-16.68,17.14-16.68v4.19l-9,12.49Z"/><rect class="cls-4" x="747.67" y="60.72" width="57.94" height="28.3" rx="12.2"/><rect class="cls-1" x="749.98" y="62.04" width="53.33" height="25.21" rx="10.87"/><polygon class="cls-9" points="763.69 62.04 749.98 77.01 750.03 81.47 768.45 62.04 763.69 62.04"/><path class="cls-9" d="M762.51,87.25,784.29,62h7.91s-17.32,25.21-17.72,25.21Z"/><path class="cls-9" d="M786.17,87.25c.19,0,17.13-16.68,17.13-16.68v4.19l-9,12.49Z"/><polygon class="cls-5" points="939.02 122.63 873.12 122.63 885.96 111.48 939.02 111.48 939.02 122.63"/><polygon class="cls-5" points="517.31 122.63 464.6 122.63 464.6 111.48 530.21 111.48 517.31 122.63"/><polygon class="cls-5" points="750.1 111.48 740 111.48 618.56 111.48 602.22 122.63 740 122.63 750.1 122.63 792.72 122.63 805.61 111.48 750.1 111.48"/><path class="cls-7" d="M628.08,34.58c5.14.18,10.36.35,15.32-1a3.21,3.21,0,0,0,1.81-1c.78-1,.16-2.6-.93-3.28a7,7,0,0,0-3.73-.7L511,28.43l-16.11,0c-4.49,0-9.91-.84-14.23.65-2.45.84-6.44,3.16-3.56,5.79s11.65.33,15.07.1c21.33-1.41,42.71-1.91,64.08-1.88Q592.17,33.09,628.08,34.58Z"/><path class="cls-7" d="M714.42,34.93c6.14.1,12.37.2,18.32-1.33a3.49,3.49,0,0,0,2.15-1.18c.75-1.09.05-2.71-1.09-3.39a7.26,7.26,0,0,0-3.9-.65c-9.78.23-19.53,1.17-29.32,1.2-4.5,0-9-.16-13.51-.34-3.07-.12-28.73-3-27.15,2.89,1,3.64,12.41,2.1,15.17,2.15l18.61.31Z"/><path class="cls-1" d="M1226.71,19h70a0,0,0,0,1,0,0v1.34a8.35,8.35,0,0,1-8.35,8.35h-53.32a8.35,8.35,0,0,1-8.35-8.35V19a0,0,0,0,1,0,0Z" transform="translate(2523.45 47.66) rotate(-180)"/><path class="cls-1" d="M1094.37,18h70a0,0,0,0,1,0,0v1.34a8.35,8.35,0,0,1-8.35,8.35h-53.32a8.35,8.35,0,0,1-8.35-8.35V18a0,0,0,0,1,0,0Z" transform="translate(2258.77 45.77) rotate(-180)"/><path class="cls-1" d="M962,19h70a0,0,0,0,1,0,0v1.34a8.35,8.35,0,0,1-8.35,8.35H970.38A8.35,8.35,0,0,1,962,20.32V19a0,0,0,0,1,0,0Z" transform="translate(1994.08 47.66) rotate(-180)"/><rect class="cls-2" x="952.78" y="131.12" width="410.41" height="14.8" transform="translate(2315.97 277.03) rotate(-180)"/><path class="cls-3" d="M1348.3,157.12h42.19s1.58-45.1,0-56.57-65.27-75.95-74.37-77.14-363.34,0-363.34,0V134.33h378.29a16.51,16.51,0,0,1,15.18,10Z"/><path class="cls-4" d="M952.78,23.41s354.24-1.18,363.34,0l.16,0V49H952.78Z"/><path class="cls-5" d="M1316.28,49s34.26,23.89,36.83,33.89S1339,97,1339,97H952.78V49Z"/><path class="cls-4" d="M1384.79,90.58,1339.16,90s-33.11-31.48-32.52-31.29,51,.95,51,.95,5.79,5.34,13.05,13.56C1379.93,83.72,1384.79,90.58,1384.79,90.58Z"/><path class="cls-1" d="M1383.29,88.59l-41.86-.5s-31-27.66-30.43-27.49,48.42.79,48.42.79,4.7,4.74,11.48,12C1379.58,82.57,1383.29,88.59,1383.29,88.59Z"/><rect class="cls-4" x="1168.78" y="60.64" width="57.94" height="28.3" rx="12.2" transform="translate(2395.49 149.59) rotate(-180)"/><path class="cls-4" d="M1105,60.51h50.7a0,0,0,0,1,0,0v63.56a10.42,10.42,0,0,1-10.42,10.42H1115.4A10.42,10.42,0,0,1,1105,124.06V60.51A0,0,0,0,1,1105,60.51Z" transform="translate(2260.65 194.99) rotate(-180)"/><path class="cls-6" d="M1106.69,62H1154a0,0,0,0,1,0,0v62.52a10,10,0,0,1-10,10h-27.34a10,10,0,0,1-10-10V62A0,0,0,0,1,1106.69,62Z" transform="translate(2260.65 196.49) rotate(-180)"/><rect class="cls-1" x="1136.52" y="67.4" width="11.94" height="33.89" rx="5.15" transform="translate(2284.99 168.7) rotate(-180)"/><rect class="cls-1" x="1113.22" y="67.4" width="11.94" height="33.89" rx="5.15" transform="translate(2238.39 168.7) rotate(-180)"/><rect class="cls-4" x="1129.13" y="61.29" width="1.72" height="73.2" transform="translate(2259.97 195.77) rotate(-180)"/><polygon class="cls-5" points="1171.08 122.33 1391.19 122.33 1391.19 111.18 1157.93 111.18 1171.08 122.33"/><polygon class="cls-5" points="952.78 122.33 1100.66 122.33 1084.31 111.18 952.78 111.18 952.78 122.33"/><path class="cls-7" d="M1379.46,103.74c1.21,3.79,1.19,7.84,1.17,11.81l-.12,23.21c0,3.32-.31,7.18-3,9.07a8.49,8.49,0,0,1-5,1.16c-2,0-4.3-.53-5.29-2.28a6.79,6.79,0,0,1-.45-3.9q.69-8,1.37-16.06c.38-4.56.71-9.42-1.49-13.43-1.24-2.24-3.17-4-4.69-6.07s-2.68-4.68-2-7.15a7.23,7.23,0,0,1,4.88-4.58C1371.66,93.26,1377.35,97.11,1379.46,103.74Z"/><circle class="cls-5" cx="1316.28" cy="157.62" r="13.02"/><path class="cls-8" d="M1306.28,157.62a10,10,0,1,0,10-10A10,10,0,0,0,1306.28,157.62Z"/><circle class="cls-5" cx="1316.28" cy="157.62" r="3.57"/><path class="cls-5" d="M1271.71,157.62a13,13,0,1,0,13-13A13,13,0,0,0,1271.71,157.62Z"/><path class="cls-8" d="M1274.74,157.62a10,10,0,1,0,10-10A10,10,0,0,0,1274.74,157.62Z"/><circle class="cls-5" cx="1284.73" cy="157.62" r="3.57"/><path class="cls-5" d="M1240.17,157.62a13,13,0,1,0,13-13A13,13,0,0,0,1240.17,157.62Z"/><path class="cls-8" d="M1243.19,157.62a10,10,0,1,0,10-10A10,10,0,0,0,1243.19,157.62Z"/><circle class="cls-5" cx="1253.19" cy="157.62" r="3.57"/><polygon class="cls-1" points="1230.33 154.44 1233.31 140.89 1279.1 140.89 1290.69 140.89 1336.49 140.89 1339.46 154.44 1341.05 159.47 1337.06 159.47 1333.78 154.44 1290.69 154.44 1279.1 154.44 1236.02 154.44 1232.74 159.47 1228.74 159.47 1230.33 154.44"/><circle class="cls-5" cx="1040.84" cy="157.62" r="13.02"/><path class="cls-8" d="M1030.84,157.62a10,10,0,1,0,10-10A10,10,0,0,0,1030.84,157.62Z"/><circle class="cls-5" cx="1040.84" cy="157.62" r="3.57"/><path class="cls-5" d="M996.27,157.62a13,13,0,1,0,13-13A13,13,0,0,0,996.27,157.62Z"/><path class="cls-8" d="M999.3,157.62a10,10,0,1,0,10-10A10,10,0,0,0,999.3,157.62Z"/><circle class="cls-5" cx="1009.29" cy="157.62" r="3.57"/><path class="cls-5" d="M964.73,157.62a13,13,0,1,0,13-13A13,13,0,0,0,964.73,157.62Z"/><path class="cls-8" d="M967.75,157.62a10,10,0,1,0,10-10A10,10,0,0,0,967.75,157.62Z"/><circle class="cls-5" cx="977.75" cy="157.62" r="3.57"/><polygon class="cls-1" points="954.89 154.44 957.87 140.89 1003.66 140.89 1015.25 140.89 1061.05 140.89 1064.02 154.44 1065.61 159.47 1061.62 159.47 1058.34 154.44 1015.25 154.44 1003.66 154.44 960.58 154.44 957.3 159.47 953.3 159.47 954.89 154.44"/><rect class="cls-4" x="1241.89" y="60.6" width="57.94" height="28.3" rx="12.2" transform="translate(2541.72 149.5) rotate(180)"/><rect class="cls-1" x="1244.19" y="61.92" width="53.33" height="25.21" rx="10.87" transform="translate(2541.72 149.05) rotate(180)"/><polygon class="cls-9" points="1283.8 61.92 1297.52 76.89 1297.46 81.35 1279.05 61.92 1283.8 61.92"/><path class="cls-9" d="M1285,87.13l-21.78-25.21h-7.92s17.33,25.21,17.72,25.21Z"/><path class="cls-9" d="M1261.33,87.13c-.2,0-17.14-16.68-17.14-16.68v4.19l9,12.49Z"/><rect class="cls-4" x="1168.78" y="60.71" width="57.94" height="28.3" rx="12.2" transform="translate(2395.49 149.72) rotate(-180)"/><rect class="cls-1" x="1171.08" y="62.03" width="53.33" height="25.21" rx="10.87" transform="translate(2395.49 149.27) rotate(180)"/><polygon class="cls-9" points="1210.69 62.03 1224.41 77 1224.35 81.46 1205.94 62.03 1210.69 62.03"/><path class="cls-9" d="M1211.88,87.24,1190.1,62h-7.92s17.32,25.21,17.72,25.21Z"/><path class="cls-9" d="M1188.22,87.24c-.2,0-17.14-16.68-17.14-16.68v4.19l9,12.49Z"/><rect class="cls-4" x="1036.17" y="60.65" width="57.94" height="28.3" rx="12.2" transform="translate(2130.28 149.61) rotate(-180)"/><rect class="cls-1" x="1038.48" y="61.97" width="53.33" height="25.21" rx="10.87" transform="translate(2130.28 149.16) rotate(-180)"/><polygon class="cls-9" points="1078.09 61.97 1091.81 76.94 1091.75 81.41 1073.34 61.97 1078.09 61.97"/><path class="cls-9" d="M1079.28,87.19,1057.5,62h-7.92s17.32,25.22,17.72,25.22Z"/><path class="cls-9" d="M1055.62,87.19c-.2,0-17.14-16.68-17.14-16.68V74.7l9,12.49Z"/><rect class="cls-4" x="963.06" y="60.76" width="57.94" height="28.3" rx="12.2" transform="translate(1984.06 149.83) rotate(-180)"/><rect class="cls-1" x="965.37" y="62.08" width="53.33" height="25.21" rx="10.87" transform="translate(1984.06 149.38) rotate(-180)"/><polygon class="cls-9" points="1004.98 62.08 1018.69 77.05 1018.64 81.52 1000.22 62.08 1004.98 62.08"/><path class="cls-9" d="M1006.16,87.3,984.38,62.08h-7.92S993.79,87.3,994.18,87.3Z"/><path class="cls-9" d="M982.5,87.3c-.19,0-17.13-16.68-17.13-16.68v4.19l9,12.49Z"/><path class="cls-9" d="M1380.64,84.81l-33.5-23.59-6.64-.09c.33,0,36.44,27.38,36.44,27.38l6.35.08Z"/><path class="cls-10" d="M1363.26,88.35l-42.73-27.53-7.91-.15c.32,0,33.55,27.48,33.55,27.48Z"/><path class="cls-7" d="M1204.78,32.8a82.4,82.4,0,0,1-12.17-.82,3.48,3.48,0,0,1-2.5-1.22c-.71-1.11.09-2.69,1.27-3.27a7.35,7.35,0,0,1,3.9-.37c37.2,3.24,74.58-1.26,111.91-1.84,3.76-.05,7.8,0,11.22,1.77,2.68,1.38,4.26,4.4.46,5.79-3.61,1.31-9.56-.15-13.38-.28q-6.95-.24-13.88-.32c-18.62-.24-37.23.24-55.83.49C1225.45,32.87,1215.11,33,1204.78,32.8Z"/><path class="cls-7" d="M1175.71,32l-23,.43c-5.71.1-11.51.2-17-1.24a2.54,2.54,0,0,1-1.34-.66,1.86,1.86,0,0,1,.64-2.63,5.39,5.39,0,0,1,3-.58l27.7,0h6.92c1.57,0,4.19-.51,5.65.18C1181.85,29.24,1178.35,32,1175.71,32Z"/><rect class="cls-2" x="939.6" y="41.68" width="13.18" height="87.76" transform="translate(1892.38 171.12) rotate(-180)"/></svg>