<svg id="Ńëîé_1" data-name="Ńëîé 1" xmlns="http://www.w3.org/2000/svg" viewBox="0 0 398.79 178"><defs><style>.cls-1{fill:#303233;}.cls-2{fill:#3d3d41;}.cls-3{fill:#91989d;}.cls-4{fill:#666a6b;}.cls-5{fill:#579a83;}.cls-6{fill:#494a50;}.cls-7{fill:#d5dfe8;}.cls-8,.cls-9{fill:#fff;isolation:isolate;}.cls-8{opacity:0.12;}.cls-9{opacity:0.24;}</style></defs><path class="cls-1" d="M-25.36,17.88H28a8.35,8.35,0,0,1,8.35,8.35v1.34h-70V26.23A8.35,8.35,0,0,1-25.36,17.88Z"/><path class="cls-1" d="M99.31,18.82h53.32A8.35,8.35,0,0,1,161,27.17v1.34H91V27.17A8.35,8.35,0,0,1,99.31,18.82Z"/><path class="cls-1" d="M224,18.35h53.32a8.35,8.35,0,0,1,8.35,8.35V28h-70V26.7A8.35,8.35,0,0,1,224,18.35Z"/><rect class="cls-2" x="-178.67" y="131.42" width="474.43" height="14.8"/><circle class="cls-3" cx="195.22" cy="157.93" r="13.02"/><path class="cls-4" d="M205.21,157.93a10,10,0,1,1-10-10A10,10,0,0,1,205.21,157.93Z"/><circle class="cls-3" cx="195.22" cy="157.93" r="3.57"/><path class="cls-3" d="M239.74,157.93a13,13,0,1,1-13-13,13,13,0,0,1,13,13Z"/><path class="cls-4" d="M236.74,157.93a10,10,0,1,1-10-10A10,10,0,0,1,236.74,157.93Z"/><circle class="cls-3" cx="226.76" cy="157.93" r="3.57"/><path class="cls-3" d="M271.32,157.93a13,13,0,1,1-13-13,13,13,0,0,1,13,13Z"/><path class="cls-4" d="M268.3,157.93a10,10,0,1,1-10-10A10,10,0,0,1,268.3,157.93Z"/><circle class="cls-3" cx="258.3" cy="157.93" r="3.57"/><polygon class="cls-1" points="281.16 154.75 278.18 141.19 232.39 141.19 220.8 141.19 175 141.19 172.03 154.75 170.44 159.78 174.44 159.78 177.71 154.75 220.8 154.75 232.39 154.75 275.48 154.75 278.75 159.78 282.75 159.78 281.16 154.75"/><rect class="cls-5" x="-178.67" y="24.01" width="474.43" height="110.5"/><rect class="cls-6" x="-178.67" y="24.01" width="474.43" height="24.19"/><rect class="cls-3" x="-178.67" y="48.2" width="474.43" height="49.13"/><path class="cls-6" d="M180.86,60.34h29.88a10.42,10.42,0,0,1,10.42,10.42v63.56H170.44V70.76A10.43,10.43,0,0,1,180.86,60.34Z"/><path class="cls-7" d="M182.11,61.84h27.34a10,10,0,0,1,10,10v62.52h-47.3V71.8A10,10,0,0,1,182.11,61.84Z"/><rect class="cls-1" x="177.64" y="67.24" width="11.94" height="33.89" rx="5.15"/><rect class="cls-1" x="200.95" y="67.24" width="11.94" height="33.89" rx="5.15"/><rect class="cls-6" x="195.27" y="61.12" width="1.72" height="73.2"/><rect class="cls-6" x="229.86" y="59.14" width="57.94" height="28.3" rx="12.2"/><rect class="cls-1" x="232.16" y="60.47" width="53.33" height="25.21" rx="10.87"/><polygon class="cls-8" points="245.88 60.47 232.16 75.43 232.22 79.9 250.63 60.47 245.88 60.47"/><path class="cls-8" d="M244.74,85.68l21.78-25.21h7.92s-17.32,25.21-17.72,25.21Z"/><path class="cls-8" d="M268.35,85.68c.2,0,17.14-16.68,17.14-16.68v4.19l-9,12.49Z"/><rect class="cls-6" x="-40.21" y="60.61" width="57.94" height="28.3" rx="12.2"/><rect class="cls-1" x="-37.91" y="61.93" width="53.33" height="25.21" rx="10.87"/><path class="cls-8" d="M-25.38,87.14-3.6,61.93H4.32S-13,87.14-13.4,87.14Z"/><path class="cls-8" d="M-1.72,87.14c.2,0,17.14-16.68,17.14-16.68v4.19l-9,12.49Z"/><rect class="cls-6" x="32.9" y="60.72" width="57.94" height="28.3" rx="12.2"/><rect class="cls-1" x="35.2" y="62.04" width="53.33" height="25.21" rx="10.87"/><polygon class="cls-8" points="48.92 62.04 35.2 77.01 35.26 81.47 53.67 62.04 48.92 62.04"/><path class="cls-8" d="M47.74,87.25,69.51,62h7.92S60.11,87.25,59.74,87.25Z"/><path class="cls-8" d="M71.39,87.25c.2,0,17.14-16.68,17.14-16.68v4.19l-9,12.49Z"/><rect class="cls-6" x="104.41" y="60.72" width="57.94" height="28.3" rx="12.2"/><rect class="cls-1" x="106.72" y="62.04" width="53.33" height="25.21" rx="10.87"/><polygon class="cls-8" points="120.43 62.04 106.72 77.01 106.77 81.47 125.19 62.04 120.43 62.04"/><path class="cls-8" d="M119.25,87.25,141,62h7.91s-17.32,25.21-17.72,25.21Z"/><path class="cls-8" d="M142.91,87.25c.19,0,17.13-16.68,17.13-16.68v4.19l-9,12.49Z"/><polygon class="cls-3" points="295.76 122.63 229.86 122.63 242.7 111.48 295.76 111.48 295.76 122.63"/><polygon class="cls-3" points="106.84 111.48 96.74 111.48 -24.7 111.48 -41.04 122.63 96.74 122.63 106.84 122.63 149.46 122.63 162.35 111.48 106.84 111.48"/><path class="cls-9" d="M-15.18,34.58c5.14.18,10.36.35,15.32-1a3.21,3.21,0,0,0,1.81-1c.78-1,.16-2.6-.93-3.28a7.06,7.06,0,0,0-3.73-.7l-129.55-.17h-16.11c-4.49,0-9.91-.84-14.23.65-2.45.84-6.44,3.16-3.56,5.79s11.65.33,15.07.1c21.33-1.41,42.71-1.91,64.08-1.88Q-51.08,33.09-15.18,34.58Z"/><path class="cls-9" d="M71.16,34.93c6.14.1,12.37.2,18.32-1.33a3.48,3.48,0,0,0,2.15-1.18c.75-1.09.05-2.71-1.09-3.39a7.26,7.26,0,0,0-3.9-.65c-9.78.23-19.53,1.17-29.32,1.2-4.5,0-9-.16-13.51-.34-3.07-.12-28.73-3-27.15,2.89,1,3.64,12.41,2.1,15.17,2.15l18.61.31Z"/><path class="cls-1" d="M388.82,28.66h-70V27.32A8.35,8.35,0,0,1,327.17,19h53.27a8.35,8.35,0,0,1,8.38,8.32v1.37Z"/><rect class="cls-2" x="309.52" y="131.11" width="410.41" height="14.8"/><path class="cls-5" d="M705,157.12h42.19s1.58-45.1,0-56.57S682,24.6,672.86,23.41s-363.34,0-363.34,0V134.33H687.81a16.5,16.5,0,0,1,15.18,10Z"/><path class="cls-6" d="M309.52,23.41s354.24-1.18,363.34,0H673V49H309.52Z"/><path class="cls-3" d="M673,49s34.26,23.89,36.83,33.89S695.74,97,695.74,97H309.52V49Z"/><polygon class="cls-3" points="309.52 122.33 457.4 122.33 441.05 111.18 309.52 111.18 309.52 122.33"/><circle class="cls-3" cx="397.58" cy="157.62" r="13.02"/><path class="cls-4" d="M387.58,157.62a10,10,0,1,0,10-10A10,10,0,0,0,387.58,157.62Z"/><circle class="cls-3" cx="397.58" cy="157.62" r="3.57"/><path class="cls-3" d="M353,157.62a13,13,0,1,0,13-13,13,13,0,0,0-13,13Z"/><path class="cls-4" d="M356,157.62a10,10,0,1,0,10-10A10,10,0,0,0,356,157.62Z"/><circle class="cls-3" cx="366.03" cy="157.62" r="3.57"/><path class="cls-3" d="M321.47,157.62a13,13,0,1,0,13-13,13,13,0,0,0-13,13Z"/><path class="cls-4" d="M324.49,157.62a10,10,0,1,0,10-10A10,10,0,0,0,324.49,157.62Z"/><circle class="cls-3" cx="334.49" cy="157.62" r="3.57"/><polygon class="cls-1" points="311.63 154.44 314.61 140.89 360.4 140.89 371.99 140.89 417.79 140.89 420.76 154.44 422.35 159.47 418.36 159.47 415.08 154.44 371.99 154.44 360.4 154.44 317.32 154.44 314.04 159.47 310.04 159.47 311.63 154.44"/><rect class="cls-6" x="392.91" y="60.66" width="57.94" height="28.3" rx="12.2"/><rect class="cls-1" x="395.21" y="61.98" width="53.33" height="25.21" rx="10.87"/><path class="cls-8" d="M412.36,87.19c-.2,0-17.14-16.68-17.14-16.68V74.7l9,12.49Z"/><rect class="cls-6" x="319.8" y="60.77" width="57.94" height="28.3" rx="12.2"/><rect class="cls-1" x="322.1" y="62.09" width="53.33" height="25.21" rx="10.87"/><polygon class="cls-8" points="361.72 62.08 375.43 77.05 375.38 81.52 356.96 62.08 361.72 62.08"/><path class="cls-8" d="M362.9,87.3,341.12,62.08H333.2S350.53,87.3,350.92,87.3Z"/><path class="cls-8" d="M339.24,87.3c-.19,0-17.13-16.68-17.13-16.68v4.19l9,12.49Z"/><rect class="cls-2" x="296.34" y="41.68" width="13.18" height="87.76"/></svg>